<?xml version="1.0" encoding="UTF-8"?>
<svg width="13px" height="13px" viewBox="0 0 13 13" version="1.1" xmlns="http://www.w3.org/2000/svg" xmlns:xlink="http://www.w3.org/1999/xlink">
    <!-- Generator: Sketch 61 (89581) - https://sketch.com -->
    <title>analyse_stop_select</title>
    <desc>Created with Sketch.</desc>
    <g id="图标" stroke="none" stroke-width="1" fill="none" fill-rule="evenodd">
        <g id="切图" transform="translate(-449.000000, -565.000000)" fill="#E0E7FA" fill-rule="nonzero">
            <path d="M455.5,565 C459.089625,565 462,567.910375 462,571.5 C462,575.089625 459.089625,578 455.5,578 C451.910375,578 449,575.089625 449,571.5 C449,567.910375 451.910375,565 455.5,565 Z M455.5,566.04 C452.488875,566.04 450.04,568.488875 450.04,571.5 C450.04,574.511125 452.488875,576.96 455.5,576.96 C458.511125,576.96 460.96,574.511125 460.96,571.5 C460.96,568.488875 458.511125,566.04 455.5,566.04 Z M454.2325,568.9 C454.500625,568.9 454.72,569.119375 454.72,569.3875 L454.72,573.6125 C454.72,573.880625 454.500625,574.1 454.2325,574.1 L454.1675,574.1 C453.899375,574.1 453.68,573.880625 453.68,573.6125 L453.68,569.3875 C453.68,569.119375 453.899375,568.9 454.1675,568.9 L454.2325,568.9 Z M456.8325,568.9 C457.100625,568.9 457.32,569.119375 457.32,569.3875 L457.32,573.6125 C457.32,573.880625 457.100625,574.1 456.8325,574.1 L456.7675,574.1 C456.499375,574.1 456.28,573.880625 456.28,573.6125 L456.28,569.3875 C456.28,569.119375 456.499375,568.9 456.7675,568.9 L456.8325,568.9 Z" id="analyse_stop_select"></path>
        </g>
    </g>
</svg>