<?xml version="1.0" encoding="UTF-8"?>
<svg width="13px" height="13px" viewBox="0 0 13 13" version="1.1" xmlns="http://www.w3.org/2000/svg" xmlns:xlink="http://www.w3.org/1999/xlink">
    <!-- Generator: Sketch 61 (89581) - https://sketch.com -->
    <title>analyse_continue_normal</title>
    <desc>Created with Sketch.</desc>
    <g id="图标" stroke="none" stroke-width="1" fill="none" fill-rule="evenodd">
        <g id="切图" transform="translate(-472.000000, -544.000000)" fill="#A2ABC3" fill-rule="nonzero">
            <path d="M478.5,544 C482.089625,544 485,546.910375 485,550.5 C485,554.089625 482.089625,557 478.5,557 C474.910375,557 472,554.089625 472,550.5 C472,546.910375 474.910375,544 478.5,544 Z M478.5,545.04 C475.488875,545.04 473.04,547.488875 473.04,550.5 C473.04,553.511125 475.488875,555.96 478.5,555.96 C481.511125,555.96 483.96,553.511125 483.96,550.5 C483.96,547.488875 481.511125,545.04 478.5,545.04 Z M477.797578,548.082562 L480.763409,549.996336 C480.910911,550.091612 481,550.255217 481,550.430814 C481,550.606411 480.910911,550.770016 480.763409,550.865292 L477.797578,552.779065 C477.638485,552.881672 477.436048,552.889167 477.269804,552.798606 C477.10356,552.708045 477.000072,552.533898 477,552.344587 L477,548.517041 C477.000072,548.32773 477.10356,548.153583 477.269804,548.063022 C477.436048,547.972461 477.638485,547.979956 477.797578,548.082562 Z" id="analyse_continue_normal"></path>
        </g>
    </g>
</svg>