<?xml version="1.0" encoding="UTF-8"?>
<svg width="13px" height="13px" viewBox="0 0 13 13" version="1.1" xmlns="http://www.w3.org/2000/svg" xmlns:xlink="http://www.w3.org/1999/xlink">
    <!-- Generator: Sketch 61 (89581) - https://sketch.com -->
    <title>analyse_continue_select</title>
    <desc>Created with Sketch.</desc>
    <g id="图标" stroke="none" stroke-width="1" fill="none" fill-rule="evenodd">
        <g id="切图" transform="translate(-472.000000, -565.000000)" fill="#E0E7FA" fill-rule="nonzero">
            <path d="M478.5,565 C482.089625,565 485,567.910375 485,571.5 C485,575.089625 482.089625,578 478.5,578 C474.910375,578 472,575.089625 472,571.5 C472,567.910375 474.910375,565 478.5,565 Z M478.5,566.04 C475.488875,566.04 473.04,568.488875 473.04,571.5 C473.04,574.511125 475.488875,576.96 478.5,576.96 C481.511125,576.96 483.96,574.511125 483.96,571.5 C483.96,568.488875 481.511125,566.04 478.5,566.04 Z M477.797578,569.082562 L480.763409,570.996336 C480.910911,571.091612 481,571.255217 481,571.430814 C481,571.606411 480.910911,571.770016 480.763409,571.865292 L477.797578,573.779065 C477.638485,573.881672 477.436048,573.889167 477.269804,573.798606 C477.10356,573.708045 477.000072,573.533898 477,573.344587 L477,569.517041 C477.000072,569.32773 477.10356,569.153583 477.269804,569.063022 C477.436048,568.972461 477.638485,568.979956 477.797578,569.082562 Z" id="analyse_continue_select"></path>
        </g>
    </g>
</svg>