<?xml version="1.0" encoding="UTF-8"?>
<svg width="13px" height="13px" viewBox="0 0 13 13" version="1.1" xmlns="http://www.w3.org/2000/svg" xmlns:xlink="http://www.w3.org/1999/xlink">
    <!-- Generator: Sketch 61 (89581) - https://sketch.com -->
    <title>analyse_end_normal</title>
    <desc>Created with Sketch.</desc>
    <g id="图标" stroke="none" stroke-width="1" fill="none" fill-rule="evenodd">
        <g id="切图" transform="translate(-495.000000, -544.000000)" fill="#A2ABC3" fill-rule="nonzero">
            <path d="M501.5,544 C505.089857,544 508,546.910143 508,550.5 C508,554.089857 505.089857,557 501.5,557 C497.910143,557 495,554.089857 495,550.5 C495,546.910143 497.910143,544 501.5,544 Z M501.55,545.03 C500.804397,545.03 500.081594,545.17582 499.401642,545.463406 C498.744431,545.74139 498.154007,546.13952 497.646771,546.646771 C497.13952,547.154007 496.741376,547.744431 496.463406,548.401642 C496.17582,549.081594 496.03,549.804398 496.03,550.55 C496.03,551.295602 496.17582,552.018421 496.463406,552.698358 C496.74139,553.355569 497.13952,553.945993 497.646771,554.453229 C498.154007,554.96048 498.744431,555.358624 499.401642,555.636594 C500.081594,555.92418 500.804397,556.07 501.55,556.07 C502.295602,556.07 503.018421,555.92418 503.698358,555.636594 C504.355569,555.35861 504.945993,554.96048 505.453229,554.453229 C505.96048,553.945993 506.358624,553.355569 506.636594,552.698358 C506.92418,552.018406 507.07,551.295602 507.07,550.55 C507.07,549.804398 506.92418,549.081579 506.636594,548.401642 C506.35861,547.744431 505.96048,547.154007 505.453229,546.646771 C504.945993,546.13952 504.355569,545.741376 503.698358,545.463406 C503.018406,545.17582 502.295602,545.03 501.55,545.03 Z M503.647902,547.714852 C503.829205,547.533533 504.123185,547.533533 504.304489,547.714852 C504.485807,547.89617 504.485807,548.190135 504.304489,548.371453 L504.304489,548.371453 L502.166265,550.509677 L504.304489,552.647902 C504.485807,552.829205 504.485807,553.123185 504.304489,553.304489 C504.213837,553.395155 504.095009,553.440481 503.976195,553.440481 C503.857382,553.440481 503.738554,553.395155 503.647902,553.304489 L503.647902,553.304489 L501.509677,551.166265 L499.371453,553.304489 C499.280801,553.395155 499.161973,553.440481 499.04316,553.440481 C498.924346,553.440481 498.805518,553.395155 498.714866,553.304489 C498.533548,553.123185 498.533548,552.829205 498.714866,552.647902 L498.714866,552.647902 L500.85309,550.509677 L498.714852,548.371468 C498.533533,548.19015 498.533533,547.896184 498.714852,547.714866 C498.89617,547.533548 499.190135,547.533548 499.371453,547.714866 L499.371453,547.714866 L501.509677,549.85309 Z" id="analyse_end_normal"></path>
        </g>
    </g>
</svg>