<?xml version="1.0" encoding="UTF-8"?>
<svg width="13px" height="13px" viewBox="0 0 13 13" version="1.1" xmlns="http://www.w3.org/2000/svg" xmlns:xlink="http://www.w3.org/1999/xlink">
    <!-- Generator: Sketch 61 (89581) - https://sketch.com -->
    <title>analyse_stop_normal</title>
    <desc>Created with Sketch.</desc>
    <g id="图标" stroke="none" stroke-width="1" fill="none" fill-rule="evenodd">
        <g id="切图" transform="translate(-449.000000, -544.000000)" fill="#A2ABC3" fill-rule="nonzero">
            <path d="M455.5,544 C459.089625,544 462,546.910375 462,550.5 C462,554.089625 459.089625,557 455.5,557 C451.910375,557 449,554.089625 449,550.5 C449,546.910375 451.910375,544 455.5,544 Z M455.5,545.04 C452.488875,545.04 450.04,547.488875 450.04,550.5 C450.04,553.511125 452.488875,555.96 455.5,555.96 C458.511125,555.96 460.96,553.511125 460.96,550.5 C460.96,547.488875 458.511125,545.04 455.5,545.04 Z M454.2325,547.9 C454.500625,547.9 454.72,548.119375 454.72,548.3875 L454.72,552.6125 C454.72,552.880625 454.500625,553.1 454.2325,553.1 L454.1675,553.1 C453.899375,553.1 453.68,552.880625 453.68,552.6125 L453.68,548.3875 C453.68,548.119375 453.899375,547.9 454.1675,547.9 L454.2325,547.9 Z M456.8325,547.9 C457.100625,547.9 457.32,548.119375 457.32,548.3875 L457.32,552.6125 C457.32,552.880625 457.100625,553.1 456.8325,553.1 L456.7675,553.1 C456.499375,553.1 456.28,552.880625 456.28,552.6125 L456.28,548.3875 C456.28,548.119375 456.499375,547.9 456.7675,547.9 L456.8325,547.9 Z" id="analyse_stop_normal"></path>
        </g>
    </g>
</svg>