<?xml version="1.0" encoding="UTF-8"?>
<svg width="21px" height="11px" viewBox="0 0 21 11" version="1.1" xmlns="http://www.w3.org/2000/svg" xmlns:xlink="http://www.w3.org/1999/xlink">
    <title>BBS</title>
    <g id="2.6.3" stroke="none" stroke-width="1" fill="none" fill-rule="evenodd">
        <g id="更多设置下拉框-关于软件弹窗" transform="translate(-658.000000, -368.000000)" fill="#1D088F" fill-rule="nonzero">
            <g id="编组备份-2" transform="translate(412.000000, 172.000000)">
                <g id="编组-15" transform="translate(44.000000, 185.000000)">
                    <g id="编组-2备份" transform="translate(196.000000, 0.000000)">
                        <path d="M10.1323242,21 C10.855957,21 11.4737956,20.741862 11.9858398,20.2255859 C12.5021159,19.7135417 12.7602539,19.0935872 12.7602539,18.3657227 C12.7602539,17.9256185 12.6544596,17.5130208 12.4428711,17.1279297 C12.2439779,16.7513021 11.9689128,16.4423828 11.6176758,16.2011719 C12.0281576,15.71875 12.2333984,15.1580404 12.2333984,14.519043 C12.2333984,13.8038737 11.9794922,13.1902669 11.4716797,12.6782227 C10.9638672,12.1704102 10.3502604,11.9165039 9.63085938,11.9165039 L9.63085938,11.9165039 L6.78076172,11.9165039 L6.78076172,21 L10.1323242,21 Z M9.63085938,15.7441406 L8.15820312,15.7441406 L8.15820312,13.2939453 L9.63085938,13.2939453 C9.96940104,13.2939453 10.2571615,13.4145508 10.4941406,13.6557617 C10.7353516,13.8927409 10.855957,14.1805013 10.855957,14.519043 C10.855957,14.8575846 10.7353516,15.1453451 10.4941406,15.3823242 C10.2571615,15.6235352 9.96940104,15.7441406 9.63085938,15.7441406 L9.63085938,15.7441406 Z M10.1323242,19.6225586 L8.15820312,19.6225586 L8.15820312,17.121582 L10.1323242,17.121582 C10.4750977,17.121582 10.7692057,17.2443034 11.0146484,17.4897461 C11.2558594,17.730957 11.3764648,18.0229492 11.3764648,18.3657227 C11.3764648,18.7127279 11.2558594,19.0089518 11.0146484,19.2543945 C10.7692057,19.4998372 10.4750977,19.6225586 10.1323242,19.6225586 L10.1323242,19.6225586 Z M17.2290039,21 C17.9526367,21 18.5704753,20.741862 19.0825195,20.2255859 C19.5987956,19.7135417 19.8569336,19.0935872 19.8569336,18.3657227 C19.8569336,17.9256185 19.7511393,17.5130208 19.5395508,17.1279297 C19.3406576,16.7513021 19.0655924,16.4423828 18.7143555,16.2011719 C19.1248372,15.71875 19.3300781,15.1580404 19.3300781,14.519043 C19.3300781,13.8038737 19.0761719,13.1902669 18.5683594,12.6782227 C18.0605469,12.1704102 17.4469401,11.9165039 16.7275391,11.9165039 L16.7275391,11.9165039 L13.8774414,11.9165039 L13.8774414,21 L17.2290039,21 Z M16.7275391,15.7441406 L15.2548828,15.7441406 L15.2548828,13.2939453 L16.7275391,13.2939453 C17.0660807,13.2939453 17.3538411,13.4145508 17.5908203,13.6557617 C17.8320312,13.8927409 17.9526367,14.1805013 17.9526367,14.519043 C17.9526367,14.8575846 17.8320312,15.1453451 17.5908203,15.3823242 C17.3538411,15.6235352 17.0660807,15.7441406 16.7275391,15.7441406 L16.7275391,15.7441406 Z M17.2290039,19.6225586 L15.2548828,19.6225586 L15.2548828,17.121582 L17.2290039,17.121582 C17.5717773,17.121582 17.8658854,17.2443034 18.1113281,17.4897461 C18.3525391,17.730957 18.4731445,18.0229492 18.4731445,18.3657227 C18.4731445,18.7127279 18.3525391,19.0089518 18.1113281,19.2543945 C17.8658854,19.4998372 17.5717773,19.6225586 17.2290039,19.6225586 L17.2290039,19.6225586 Z M23.5449219,21.0888672 C24.3489583,21.0888672 25.038737,20.8582357 25.6142578,20.3969727 C26.2320964,19.8976237 26.5579427,19.2882487 26.5917969,18.5688477 C26.6129557,18.0568034 26.4627279,17.5891927 26.1411133,17.1660156 C25.6756185,16.5566406 24.8842773,16.0953776 23.7670898,15.7822266 C22.527181,15.4352214 21.9199219,14.9760742 21.9453125,14.4047852 C21.9664714,13.9054362 22.2055664,13.558431 22.6625977,13.3637695 C22.9545898,13.2410482 23.3079427,13.188151 23.7226562,13.2050781 C24.3108724,13.2304688 24.7700195,13.4208984 25.1000977,13.7763672 L25.1000977,13.7763672 L26.109375,12.8369141 C25.5253906,12.2063802 24.7509766,11.8699544 23.7861328,11.8276367 C22.9905599,11.7895508 22.3092448,11.9440104 21.7421875,12.2910156 C20.9973958,12.7438151 20.605957,13.4272461 20.5678711,14.3413086 C20.5086263,15.644694 21.4501953,16.5693359 23.3925781,17.1152344 C24.632487,17.4622396 25.2397461,17.9256185 25.2143555,18.5053711 C25.1974284,18.8100586 25.0429688,19.0808919 24.7509766,19.3178711 C24.4039714,19.597168 23.9659831,19.726237 23.4370117,19.7050781 C23.0942383,19.688151 22.7768555,19.6056315 22.4848633,19.4575195 C22.1547852,19.2840169 21.936849,19.0576172 21.8310547,18.7783203 L21.8310547,18.7783203 L20.5361328,19.2543945 C20.7434896,19.8172201 21.1349284,20.2657878 21.7104492,20.6000977 C22.2182617,20.8963216 22.7726237,21.0571289 23.3735352,21.0825195 C23.4285482,21.0867513 23.4856771,21.0888672 23.5449219,21.0888672 Z" id="BBS"></path>
                    </g>
                </g>
            </g>
        </g>
    </g>
</svg>