<?xml version="1.0" encoding="UTF-8"?>
<svg width="26px" height="12px" viewBox="0 0 26 12" version="1.1" xmlns="http://www.w3.org/2000/svg" xmlns:xlink="http://www.w3.org/1999/xlink">
    <title>Fill 1</title>
    <g id="2.6.3" stroke="none" stroke-width="1" fill="none" fill-rule="evenodd">
        <g id="更多设置下拉框-关于软件弹窗" transform="translate(-607.000000, -367.000000)" fill="#FB6B8A">
            <g id="编组备份-2" transform="translate(412.000000, 172.000000)">
                <g id="编组-15" transform="translate(44.000000, 185.000000)">
                    <g id="编组-2" transform="translate(147.000000, 0.000000)">
                        <path d="M28.3877299,15.6401383 L29.0228666,15.6401383 L29.0228666,13.7786947 L28.3877299,13.7786947 L28.3877299,15.6401383 Z M29.2736642,15.6401383 L30,15.6401383 L30,13.7786947 L29.2736642,13.7786947 L29.2736642,15.6401383 Z M28.5455912,16.2985745 L29.9997829,16.2985745 L29.9997829,21.2537232 L28.9412217,21.2537232 L28.5455912,16.2985745 Z M25.9040739,11.4496398 C25.9040739,11.4496398 27.4105965,11.2842431 27.4627103,11.4496398 L28.2018574,20.6477189 L27.0538342,20.6477189 L25.9040739,11.45144 L25.9040739,11.4496398 Z M24.1061484,13.7516911 L24.795136,13.689358 L25.0066311,15.5372999 L24.4042827,15.6401383 L24.1078856,13.7501159 L24.1061484,13.7516911 Z M24.9529974,13.5592909 L25.6923617,13.5592909 L25.9040739,15.4495384 L25.2168234,15.4495384 L24.9529974,13.5592909 Z M24.4498822,16.2427672 C24.4498822,16.2427672 25.7444754,15.9693564 25.9318679,16.1329528 L26.5635304,21.0073159 L25.5049692,21.1439088 L24.4514022,16.2427672 L24.4498822,16.2427672 Z M20.8994137,20.7894874 L20.6373248,18.6460818 L22.5590205,19.4831914 L20.8978937,20.7894874 L20.8994137,20.7894874 Z M24.6613773,19.0088293 C23.658187,17.2839785 19.6421687,17.5306108 19.6421687,17.5306108 L19.2432812,10 C19.0087691,10.2194037 17.2401577,10.8218076 17.2401577,10.8218076 C17.8459804,12.9838906 18.6667725,21.992945 18.6667725,21.992945 C22.8261037,22.1295378 24.5588869,20.2426658 24.6631145,19.8022832 C24.7265196,19.5416991 24.7265196,19.2691884 24.6631145,19.0088293 L24.6613773,19.0088293 Z M7.65947318,20.7876872 L7.39868713,18.6445066 L9.32211996,19.4831914 L7.66099317,20.7894874 L7.65947318,20.7876872 Z M6.40548531,17.5306108 L6.0063806,10 C5.77186858,10.2194037 4,10.8218076 4,10.8218076 C4.60582271,12.9838906 5.42661478,21.992945 5.42661478,21.992945 C9.58746597,22.1295378 11.3187292,20.2426658 11.4244768,19.8022832 C11.4878819,19.5416991 11.4878819,19.2691884 11.4244768,19.0088293 C10.4197665,17.2839785 6.40374818,17.5306108 6.40374818,17.5306108 L6.40548531,17.5306108 Z M15.1508293,13.7786947 L15.7842289,13.7786947 L15.7842289,15.6401383 L15.1490922,15.6401383 L15.1490922,13.7786947 L15.1508293,13.7786947 Z M16.0350265,15.6401383 L16.7613623,15.6401383 L16.7613623,13.7786947 L16.0350265,13.7786947 L16.0350265,15.6401383 Z M15.3086906,16.2985745 L16.7613623,16.2985745 L16.7613623,21.2537232 L15.7043211,21.2537232 L15.3086906,16.2985745 Z M12.6656533,11.4496398 C12.6656533,11.4496398 14.1719588,11.2842431 14.2255925,11.4496398 L14.965174,20.6477189 L13.8154137,20.6477189 L12.6656533,11.45144 L12.6656533,11.4496398 Z M10.8692479,13.7516911 L11.5564984,13.689358 L11.7682106,15.5372999 L11.165645,15.6401383 L10.8692479,13.7501159 L10.8692479,13.7516911 Z M11.7143597,13.5592909 L12.4554611,13.5592909 L12.6671733,15.4495384 L11.9784028,15.4495384 L11.7143597,13.5592909 Z M11.2145017,16.2427672 C11.2145017,16.2427672 12.5075749,15.9693564 12.6932302,16.1329528 L13.3268469,21.0073159 L12.2698057,21.1423336 L11.2145017,16.2445675 L11.2145017,16.2427672 Z" id="Fill-1"></path>
                    </g>
                </g>
            </g>
        </g>
    </g>
</svg>