<?xml version="1.0" standalone="no"?><!DOCTYPE svg PUBLIC "-//W3C//DTD SVG 1.1//EN" "http://www.w3.org/Graphics/SVG/1.1/DTD/svg11.dtd"><svg t="1645756496271" class="icon" viewBox="0 0 1024 1024" version="1.1" xmlns="http://www.w3.org/2000/svg" p-id="1251" xmlns:xlink="http://www.w3.org/1999/xlink" width="48" height="48"><defs><style type="text/css"></style></defs><path d="M520.45525 658.632833a127.543378 127.543378 0 0 0-86.735348-40.734897 663.898386 663.898386 0 0 1-28.302343-199.87159c24.280047-8.629655 45.342256-24.353179 60.480719-45.122858 69.329772 13.237013 136.026768 37.590193 197.531343 72.035681a129.225429 129.225429 0 0 0 15.065331 87.320409 664.337182 664.337182 0 0 1-158.039702 126.373255z m12.798217 158.478498c10.969901-16.454851 17.917504-35.176815 20.404015-54.776371a771.257146 771.257146 0 0 0 212.669807-168.058877c24.206914 4.38796 49.218287 1.755184 71.962548-7.67893a663.020794 663.020794 0 0 1 114.745161 185.025657 514.268941 514.268941 0 0 1-242.434804 212.23101 665.434172 665.434172 0 0 1-177.346727-166.742489zM334.25947 657.316445a127.982174 127.982174 0 0 0-35.249947 80.007142 664.55658 664.55658 0 0 1-249.748071-6.874471 511.928696 511.928696 0 0 1-46.073583-276.148965 656.000057 656.000057 0 0 1 252.088317-87.539807c11.043033 17.113045 26.035231 31.373916 43.660204 41.539357a770.672085 770.672085 0 0 0 35.32308 249.016744z m4.241695 181.588422c27.64415 26.474027 65.673138 39.052846 103.702127 34.372355 38.979714 54.48384 84.833898 103.628995 136.465564 146.265342a510.246644 510.246644 0 0 1-450.497252-169.302133c70.280497 5.777481 141.072922 1.974582 210.329561-11.335564z m463.222337-498.472284a127.250847 127.250847 0 0 0-76.643039 16.674249 761.823032 761.823032 0 0 0-237.608048-88.856195 128.274705 128.274705 0 0 0-42.416949-69.476038c26.327761-72.401344 65.088077-139.683401 114.525763-198.774599a509.295919 509.295919 0 0 1 292.311285 127.177715 660.241752 660.241752 0 0 1-50.169012 213.254868z m109.333343 167.400683a128.42097 128.42097 0 0 0-16.601117-112.916844c22.45173-50.827206 39.345377-103.848393 50.315278-158.332232a515.585329 515.585329 0 0 1 62.674699 404.058006c-27.351619-47.536236-59.603127-92.147165-96.38886-132.80893zM341.865268 170.545388a128.201572 128.201572 0 0 0-102.020076 90.465114c-69.476037 9.141584-137.416288 27.93668-201.846171 55.727095A512.87942 512.87942 0 0 1 423.042532 5.558083a767.161717 767.161717 0 0 0-81.177264 164.987305z" fill="#A2ABC3" p-id="1252"></path></svg>