<?xml version="1.0" standalone="no"?><!DOCTYPE svg PUBLIC "-//W3C//DTD SVG 1.1//EN" "http://www.w3.org/Graphics/SVG/1.1/DTD/svg11.dtd"><svg t="1645756486135" class="icon" viewBox="0 0 1024 1024" version="1.1" xmlns="http://www.w3.org/2000/svg" p-id="1101" xmlns:xlink="http://www.w3.org/1999/xlink" width="48" height="48"><defs><style type="text/css"></style></defs><path d="M520.507653 658.699164a127.556223 127.556223 0 0 0-86.744082-40.739 663.965247 663.965247 0 0 1-28.305194-199.891718c24.282492-8.630524 45.346822-24.355632 60.48681-45.127402 69.336754 13.238347 136.040467 37.593979 197.551237 72.042935a129.238444 129.238444 0 0 0 15.066847 87.329203 664.404087 664.404087 0 0 1-158.055618 126.385982z" fill="#4F84FA" p-id="1102"></path><path d="M533.30716 817.193623c10.971005-16.456508 17.919309-35.180357 20.40607-54.781887a771.33482 771.33482 0 0 0 212.691225-168.075803c24.209352 4.388402 49.223244 1.755361 71.969795-7.679704a663.087567 663.087567 0 0 1 114.756717 185.044291 514.320733 514.320733 0 0 1-242.45922 212.252385 665.501188 665.501188 0 0 1-177.364587-166.759282z" fill="#FA6400" p-id="1103"></path><path d="M334.293122 657.382644a127.995063 127.995063 0 0 0-35.253498 80.015199 664.623507 664.623507 0 0 1-249.773223-6.875163 511.980252 511.980252 0 0 1-46.078222-276.176776 656.066123 656.066123 0 0 1 252.113704-87.548623c11.044145 17.114768 26.037853 31.377075 43.664601 41.54354a770.7497 770.7497 0 0 0 35.326638 249.041823z" fill="#F7B500" p-id="1104"></path><path d="M338.535244 838.916213c27.646934 26.549833 65.679752 39.129919 103.712571 34.448957 38.983639 54.489327 84.842442 103.639431 136.479307 146.280072a510.298031 510.298031 0 0 1-450.542622-169.319183c70.287575 5.778063 141.087129 1.974781 210.350744-11.336706zM801.731092 340.466868a127.263663 127.263663 0 0 0-76.577618 16.675928 761.899755 761.899755 0 0 0-237.631977-88.865144 128.287623 128.287623 0 0 0-42.421221-69.483034c26.330413-72.408636 65.094632-139.697469 114.537297-198.794618a509.347211 509.347211 0 0 1 292.340724 127.190523 660.308245 660.308245 0 0 1-50.174065 213.276345z" fill="#44D7B6" p-id="1105"></path><path d="M911.148586 507.88441a128.433903 128.433903 0 0 0-16.602788-112.928215c22.453991-50.832325 39.349339-103.858851 50.320345-158.348178a515.637254 515.637254 0 0 1 62.68101 404.098699c-27.354373-47.541023-59.609129-92.156445-96.398567-132.822306z" fill="#F7B500" p-id="1106"></path><path d="M341.826545 170.562564a128.214483 128.214483 0 0 0-101.95721 90.474225c-69.483034 9.142505-137.430128 27.939494-201.866499 55.732707A512.931073 512.931073 0 0 1 423.085125 5.558643a767.238978 767.238978 0 0 0-81.18544 165.003921z" fill="#FA6400" p-id="1107"></path></svg>