<?xml version="1.0" encoding="UTF-8"?>
<svg width="16px" height="16px" viewBox="0 0 16 16" version="1.1" xmlns="http://www.w3.org/2000/svg" xmlns:xlink="http://www.w3.org/1999/xlink">
    <title>路径 2</title>
    <g id="2.6.3" stroke="none" stroke-width="1" fill="none" fill-rule="evenodd">
        <g id="工具栏优化2" transform="translate(-832.000000, -22.000000)" fill="#E0E7FA">
            <g id="mid-top" transform="translate(444.000000, 16.000000)">
                <g id="布局设置" transform="translate(382.000000, 0.000000)">
                    <path d="M19.1668,6 C20.7318,6 21.9998,7.269 21.9998,8.833 L21.9998,8.833 L21.9998,19.167 C21.9998,20.731 20.7318,22 19.1668,22 L19.1668,22 L8.8338,22 C7.2688,22 5.9998,20.731 5.9998,19.167 L5.9998,19.167 L5.9998,8.833 C5.9998,7.269 7.2688,6 8.8338,6 L8.8338,6 Z M7.1998,19.167 C7.1998,20.067 7.9328,20.8 8.8338,20.8 L8.8338,20.8 L13.3998,20.8 L13.399,16.396 L7.1988,16.396 Z M20.7988,12.801 L14.599,12.801 L14.5998,20.8 L19.1668,20.8 C20.0194316,20.8 20.7221795,20.1421274 20.7937911,19.3076349 L20.7998,19.167 L20.7988,12.801 Z M13.3998,7.2 L8.8338,7.2 C7.9328,7.2 7.1998,7.933 7.1998,8.833 L7.1998,8.833 L7.1988,15.197 L13.399,15.197 L13.3998,7.2 Z M19.3074349,7.20600889 L19.1668,7.2 L14.5998,7.2 L14.599,11.602 L20.7988,11.602 L20.7998,8.833 C20.7998,7.98036842 20.1419274,7.2776205 19.3074349,7.20600889 Z" id="路径-2"></path>
                </g>
            </g>
        </g>
    </g>
</svg>