<?xml version="1.0" encoding="utf-8"?>
<!-- Generator: Adobe Illustrator 25.0.0, SVG Export Plug-In . SVG Version: 6.00 Build 0)  -->
<svg version="1.1" id="图层_1" xmlns="http://www.w3.org/2000/svg" xmlns:xlink="http://www.w3.org/1999/xlink" x="0px" y="0px"
	 viewBox="0 0 16 16" style="enable-background:new 0 0 16 16;" xml:space="preserve">
<style type="text/css">
	.st0{fill:#E0E7FA;}
	.st1{fill:none;stroke:#739EFF;stroke-width:1.2;stroke-miterlimit:10;}
	.st2{fill:none;stroke:#A2ABC3;stroke-width:1.2;stroke-miterlimit:10;}
	.st3{fill:none;stroke:#A2ABC3;stroke-miterlimit:10;}
</style>
<g>
	<path class="st0" d="M13.2,1.2c0.9,0,1.6,0.7,1.6,1.6v10.4c0,0.9-0.7,1.6-1.6,1.6H2.8c-0.9,0-1.6-0.7-1.6-1.6V2.8
		c0-0.9,0.7-1.6,1.6-1.6H13.2 M13.2,0H2.8C1.3,0,0,1.3,0,2.8v10.4C0,14.7,1.3,16,2.8,16h10.4c1.5,0,2.8-1.3,2.8-2.8V2.8
		C16,1.3,14.7,0,13.2,0L13.2,0z"/>
</g>
<g>
	<rect y="5" class="st0" width="15.2" height="1"/>
</g>
<g>
	<rect x="0.4" y="10" class="st0" width="15.3" height="1"/>
</g>
<g>
	<path class="st1" d="M18.8,20.4"/>
</g>
<g>
	<path class="st2" d="M3.6,20.4"/>
</g>
<g>
	<rect x="10" y="0.2" class="st0" width="1" height="15.2"/>
</g>
<g>
	<rect x="5" y="0.5" class="st0" width="1" height="15.3"/>
</g>
<g>
	<path class="st3" d="M-3.9,15.9"/>
</g>
<g>
	<path class="st3" d="M-3.9,0.6"/>
</g>
</svg>
