<?xml version="1.0" standalone="no"?><!DOCTYPE svg PUBLIC "-//W3C//DTD SVG 1.1//EN"
        "http://www.w3.org/Graphics/SVG/1.1/DTD/svg11.dtd">
<svg t="1649838422849" class="icon" viewBox="0 0 1092 1024" version="1.1" xmlns="http://www.w3.org/2000/svg" p-id="6323"
     xmlns:xlink="http://www.w3.org/1999/xlink" width="213.28125" height="200">
    <defs>
        <style type="text/css"></style>
    </defs>
    <path d="M364.202667 0a45.533867 45.533867 0 0 1 0 91.067733H136.6016a45.533867 45.533867 0 0 0-45.533867 45.533867v637.201067c0 25.122133 20.411733 45.533867 45.533867 45.533866h259.208533c13.994667 0 27.716267 3.208533 40.277334 9.352534l5.461333 3.208533 104.721067 70.519467 101.239466-73.1136c12.6976-6.417067 26.692267-9.898667 40.96-9.966934h267.4688a45.533867 45.533867 0 0 0 45.4656-45.533866V136.6016a45.533867 45.533867 0 0 0-45.4656-45.533867H637.269333a45.533867 45.533867 0 0 0-45.533866 45.533867v546.2016a45.533867 45.533867 0 1 1-90.999467 0V136.6016a136.533333 136.533333 0 0 1 136.533333-136.6016h318.6688a136.533333 136.533333 0 0 1 136.533334 136.6016v637.201067a136.533333 136.533333 0 0 1-136.533334 136.6016h-266.513066L577.399467 991.232a68.539733 68.539733 0 0 1-61.166934 0.341333l-5.461333-3.140266-115.643733-78.0288H136.6016A136.669867 136.669867 0 0 1 0 773.802667V136.6016C0 61.166933 61.2352 0 136.6016 0z m0 455.202133c30.3104 0 45.4656 15.223467 45.4656 45.533867 0 30.3104-15.1552 45.533867-45.4656 45.533867H227.601067c-30.3104 0-45.4656-15.223467-45.4656-45.533867 0-30.3104 15.1552-45.533867 45.4656-45.533867z m0-182.0672c30.3104 0 45.4656 15.223467 45.4656 45.533867 0 30.3104-15.1552 45.533867-45.4656 45.533867H227.601067c-30.3104 0-45.4656-15.223467-45.4656-45.533867 0-30.3104 15.1552-45.533867 45.4656-45.533867z"
          fill="#A2ABC3" p-id="6324"></path>
</svg>