<?xml version="1.0" encoding="UTF-8"?>
<svg width="13px" height="13px" viewBox="0 0 13 13" version="1.1" xmlns="http://www.w3.org/2000/svg" xmlns:xlink="http://www.w3.org/1999/xlink">
    <!-- Generator: Sketch 61 (89581) - https://sketch.com -->
    <title>choice_multiple_select</title>
    <desc>Created with Sketch.</desc>
    <g id="图标" stroke="none" stroke-width="1" fill="none" fill-rule="evenodd">
        <g id="切图" transform="translate(-332.000000, -445.000000)" fill="#4F84FA" fill-rule="nonzero">
            <path d="M338.89,454.12314 L338.201,454.8124 C338.140082,454.873432 338.057391,454.907728 337.97116,454.907728 C337.884929,454.907728 337.802238,454.873432 337.74132,454.8124 L334.9835,452.05484 C334.856683,451.927853 334.856683,451.722147 334.9835,451.59516 L335.67302,450.90564 C335.800007,450.778823 336.005713,450.778823 336.1327,450.90564 L337.97116,452.7441 L343.43688,447.27864 C342.244,445.88582 340.476,445 338.5,445 C334.91018,445 332,447.91018 332,451.5 C332,455.08982 334.91018,458 338.5,458 C342.08982,458 345,455.08982 345,451.5 C344.999149,450.518832 344.774908,449.550738 344.34428,448.66912 L338.89,454.12314 Z" id="choice_multiple_select"></path>
        </g>
    </g>
</svg>