<?xml version="1.0" standalone="no"?><!DOCTYPE svg PUBLIC "-//W3C//DTD SVG 1.1//EN"
        "http://www.w3.org/Graphics/SVG/1.1/DTD/svg11.dtd">
<svg t="1649838488775" class="icon" viewBox="0 0 1024 1024" version="1.1" xmlns="http://www.w3.org/2000/svg" p-id="8681"
     xmlns:xlink="http://www.w3.org/1999/xlink" width="200" height="200">
    <defs>
        <style type="text/css"></style>
    </defs>
    <path d="M111.445661 755.65871a78.484557 78.484557 0 0 1-39.151927-67.762952V341.009677l352.427584 189.374864v405.674206c-0.96374-0.48187-2.047947-0.602337-3.011687-1.204675L111.445661 755.65871zM421.709631 82.727421a78.544791 78.544791 0 0 1 78.243622 0l310.324203 179.135128c5.180101 3.011687 9.637398 6.746178 13.853759 10.661372L460.861559 467.741456l-363.32989-195.157302a77.099181 77.099181 0 0 1 13.853759-10.721605l310.324203-179.135128zM586.087494 885.101007l-86.134241 49.753065c-0.903506 0.602337-1.987713 0.722805-3.011687 1.204675V530.384541l352.487818-189.374864v184.917567a36.140241 36.140241 0 0 0 72.220249 0V329.505034c0-53.547791-28.791725-103.481557-75.231936-130.285569L536.093494 20.084337a150.94574 150.94574 0 0 0-150.46387 0L75.184953 199.279699A151.005974 151.005974 0 0 0 0.013251 329.565268v358.390724c0 53.608024 28.851959 103.481557 75.231936 130.285569l310.384437 179.195362a150.584338 150.584338 0 0 0 150.46387 0l86.074008-49.753065a36.140241 36.140241 0 1 0-36.080008-62.582851z m347.789587-131.068608h-84.809099V669.2233a36.140241 36.140241 0 0 0-72.220249 0v84.809099h-84.869332a36.140241 36.140241 0 0 0 0 72.280482h84.929566v84.809099a36.140241 36.140241 0 1 0 72.160015 0v-84.809099h84.809099a36.140241 36.140241 0 1 0 0-72.280482M330.274821 562.910758L190.653023 487.919757a30.116868 30.116868 0 0 0-28.490557 53.065921l139.621798 74.991a30.116868 30.116868 0 0 0 28.490557-53.06592"
          fill="#A2ABC3" p-id="8682"></path>
</svg>