<?xml version="1.0" encoding="UTF-8"?>
<svg width="24px" height="28px" viewBox="0 0 24 28" version="1.1" xmlns="http://www.w3.org/2000/svg" xmlns:xlink="http://www.w3.org/1999/xlink">
    <!-- Generator: Sketch 61 (89581) - https://sketch.com -->
    <title>create_success_qq</title>
    <desc>Created with Sketch.</desc>
    <g id="图标" stroke="none" stroke-width="1" fill="none" fill-rule="evenodd">
        <g id="切图" transform="translate(-467.000000, -402.000000)" fill-rule="nonzero">
            <g id="create_success_qq" transform="translate(467.000000, 402.000000)">
                <path d="M14.8009896,25.165 C13.6809896,25.165 12.7068229,25.165 12.0068229,25.305 C11.1668229,25.165 10.1926563,25.165 9.07265625,25.165 C5.99848957,25.165 3.20432293,26.425 3.20432293,27.2591667 C3.20432293,28.0991667 5.5784896,27.9591667 8.65265625,27.9591667 C9.91265625,27.9591667 11.0268229,27.8191667 12.0068229,27.5391667 C12.9868229,27.6791667 14.1009896,27.8191667 15.2209896,27.8191667 C18.2951563,27.8191667 20.6693229,27.9591667 20.6693229,27.1191667 C20.6634896,26.2791667 17.8693229,25.165 14.8009896,25.165 Z" id="路径" fill="#EFAB1B"></path>
                <path d="M22.6234896,16.6425 C22.0634896,15.1083333 21.3634896,13.4283333 20.6693229,11.8941667 L20.6693229,10.7741667 C20.6693229,4.76583332 17.5951562,0.0175 11.8668229,0.0175 C6.1384896,0.0175 3.06432293,4.76583332 3.06432293,10.7741667 L3.06432293,11.8941667 C2.36432293,13.4283334 1.67015625,15.1083334 1.11015625,16.6425 C-0.14984375,19.9966667 -0.14984375,22.9308333 0.27015625,23.2108333 C0.55015625,23.3508333 1.66432293,22.2308333 2.78432293,20.4166667 C3.48432293,24.605 6.4184896,27.9591667 11.8668229,27.9591667 C17.3151563,27.9591667 20.2493229,24.745 20.9493229,20.2766667 C21.9293229,22.0908334 23.0434896,23.2108334 23.3234896,23.0708333 C23.8776562,22.9308333 23.7376562,19.8566666 22.6234896,16.6425 Z" id="路径" fill="#040000"></path>
                <path d="M9.62682293,3.51166668 C8.78682293,3.51166668 8.09265625,4.49166668 8.09265625,5.74583332 C8.09265625,7.00583332 8.79265625,7.98 9.62682293,7.98 C10.4668229,7.98 11.1609896,7 11.1609896,5.74583332 C11.1668229,4.48583332 10.4668229,3.51166668 9.62682293,3.51166668 Z M14.3809896,3.51166668 C13.5409896,3.51166668 12.8468229,4.49166668 12.8468229,5.60583332 C12.8468229,6.86583332 13.5468229,7.84 14.3809896,7.84 C15.2209896,7.84 15.9151563,6.86 15.9151563,5.74583332 C15.9151563,4.48583332 15.2151562,3.51166668 14.3809896,3.51166668 L14.3809896,3.51166668 Z M17.5951562,13.2883333 C15.9209896,13.5683333 13.9609896,13.7083333 12.0068229,13.7083333 C10.0526563,13.7083333 8.09265625,13.5683333 6.41848957,13.2883333 C5.29848957,14.6825 5.15848957,16.7825 5.15848957,19.0166667 C5.15848957,23.205 7.53265625,26.6991667 12.0009896,26.6991667 C16.4693229,26.6991667 18.8434896,23.205 18.8434896,19.0166667 C18.8493229,16.7825 18.7093229,14.6883334 17.5951562,13.2883333 L17.5951562,13.2883333 Z" id="形状" fill="#FFFFFF"></path>
                <path d="M12.0068229,8.68 C9.07265625,8.68 6.55848957,9.24 6.55848957,9.8 C6.55848957,10.22 9.77265625,11.6141667 12.0068229,11.6141667 C14.2409896,11.6141667 17.4551562,10.22 17.4551562,9.8 C17.3151562,9.24 14.9351562,8.68 12.0068229,8.68 Z" id="路径" fill="#EFAB1B"></path>
                <path d="M20.5234896,11.7541667 C18.2893229,12.4541667 15.2151563,12.8741667 11.8609896,12.8741667 C8.3668229,12.8741667 5.29265625,12.4541667 3.19848957,11.7541667 C2.77848957,12.7341667 2.35848957,13.8483334 1.93848957,14.8283333 C3.33265625,15.2483333 4.73265625,15.6683333 6.40682293,15.9483333 L6.40682293,20.0025 C6.40682293,20.0025 7.52682293,20.2825 8.64098957,20.2825 C9.48098957,20.2825 10.1751563,20.1425 10.1751563,20.1425 L10.1751563,16.3683333 L11.8493229,16.3683333 C15.6234896,16.3683333 19.1118229,15.8083333 21.9059896,14.9741667 C21.5034896,13.8483334 21.0834896,12.8683334 20.5234896,11.7541667 Z" id="路径" fill="#DB2920"></path>
                <path d="M10.1868229,5.04583332 C9.76682293,5.04583332 9.48682293,5.46583332 9.48682293,5.88583332 C9.48682293,6.30583332 9.76682293,6.72583332 10.1868229,6.72583332 C10.6068229,6.72583332 10.8868229,6.30583332 10.8868229,5.88583332 C10.7468229,5.46583332 10.4668229,5.04583332 10.1868229,5.04583332 Z M15.0751563,5.60583332 C15.0751563,5.60583332 14.7951563,5.32583332 14.0951563,5.32583332 C13.3951563,5.46583332 13.1151563,5.74583332 13.1151563,5.88583332 C13.1151563,5.88583332 12.9751563,6.16583332 13.1151563,6.30583332 C13.2551563,6.44583332 13.3951563,6.16583332 13.3951563,6.16583332 C13.3951563,6.16583332 13.6751563,5.74583332 14.0951563,5.74583332 C14.5151563,5.74583332 14.7951563,5.88583332 14.7951563,5.88583332 C14.7951563,5.88583332 14.9351563,6.02583332 15.0751563,5.88583332 C15.2151563,5.74583332 15.0751563,5.60583332 15.0751563,5.60583332 L15.0751563,5.60583332 Z" id="形状" fill="#040000"></path>
            </g>
        </g>
    </g>
</svg>