<?xml version="1.0" encoding="UTF-8"?>
<svg width="28px" height="28px" viewBox="0 0 28 28" version="1.1" xmlns="http://www.w3.org/2000/svg" xmlns:xlink="http://www.w3.org/1999/xlink">
    <!-- Generator: Sketch 61 (89581) - https://sketch.com -->
    <title>create_success_course</title>
    <desc>Created with Sketch.</desc>
    <g id="图标" stroke="none" stroke-width="1" fill="none" fill-rule="evenodd">
        <g id="切图" transform="translate(-358.000000, -404.000000)" fill-rule="nonzero">
            <g id="create_success_course" transform="translate(358.000000, 404.000000)">
                <polygon id="路径" fill="#F7B500" points="7.73771552 0.0135775862 15.4618534 0.0135775862 15.4618534 27.8204741 7.73771552 27.8204741"></polygon>
                <polygon id="路径" fill="#4F84FA" points="0.0135775862 0.0135775862 7.73771552 0.0135775862 7.73771552 27.8204741 0.0135775862 27.8204741"></polygon>
                <path d="M1.94461207,22.3363362 L1.94461207,0.0135775862 L0.0135775862,0.0135775862 L0.0135775862,27.8204741 L7.73771552,27.8204741 L7.73771552,25.5032328 L5.11150862,25.5032328 C3.37357759,25.5032328 1.94461207,24.0742672 1.94461207,22.3363362 L1.94461207,22.3363362 Z" id="路径" fill="#3771F1"></path>
                <path d="M9.66875,22.3363362 L9.66875,0.0135775862 L7.73771552,0.0135775862 L7.73771552,27.8204741 L15.4618534,27.8204741 L15.4618534,25.5032328 L12.8356466,25.5032328 C11.0977155,25.5032328 9.66875,24.0742672 9.66875,22.3363362 L9.66875,22.3363362 Z" id="路径" fill="#F99B06"></path>
                <polygon id="路径" fill="#44D7B6" points="18.2425431 0.824612069 18.0494397 0.0135775862 15.4618534 0.824612069 22.4521983 27.8204741 25.0397845 27.0094397 18.2425431 0.824612069"></polygon>
                <polygon id="路径" fill="#FA6400" points="27.8204741 27.0094397 20.8301293 0.0135775862 18.2425431 0.824612069 25.0397845 27.0094397 25.2328879 27.8204741"></polygon>
                <path d="M5.80668103,4.64806034 L3.48943966,4.64806034 C3.25771552,4.64806034 3.10323276,4.49357759 3.10323276,4.26185345 C3.10323276,4.03012931 3.25771552,3.87564655 3.48943966,3.87564655 L5.80668103,3.87564655 C6.03840517,3.87564655 6.19288793,4.03012931 6.19288793,4.26185345 C6.19288793,4.49357759 6.03840517,4.64806034 5.80668103,4.64806034 Z M5.80668103,6.19288793 L3.48943966,6.19288793 C3.25771552,6.19288793 3.10323276,6.03840517 3.10323276,5.80668103 C3.10323276,5.5749569 3.25771552,5.42047414 3.48943966,5.42047414 L5.80668103,5.42047414 C6.03840517,5.42047414 6.19288793,5.5749569 6.19288793,5.80668103 C6.19288793,6.03840517 6.03840517,6.19288793 5.80668103,6.19288793 Z" id="形状" fill="#2156CC"></path>
                <path d="M13.530819,5.42047414 C13.7625431,5.42047414 13.9170259,5.5749569 13.9170259,5.80668103 C13.9170259,6.03840517 13.7625431,6.19288793 13.530819,6.19288793 L11.2135776,6.19288793 C10.9818534,6.19288793 10.8273707,6.03840517 10.8273707,5.80668103 C10.8273707,5.5749569 10.9818534,5.42047414 11.2135776,5.42047414 L13.530819,5.42047414 Z M13.530819,3.87564655 C13.7625431,3.87564655 13.9170259,4.03012931 13.9170259,4.26185345 C13.9170259,4.49357759 13.7625431,4.64806034 13.530819,4.64806034 L11.2135776,4.64806034 C10.9818534,4.64806034 10.8273707,4.49357759 10.8273707,4.26185345 C10.8273707,4.03012931 10.9818534,3.87564655 11.2135776,3.87564655 L13.530819,3.87564655 Z" id="形状结合" fill="#C68804"></path>
            </g>
        </g>
    </g>
</svg>