<?xml version="1.0" standalone="no"?><!DOCTYPE svg PUBLIC "-//W3C//DTD SVG 1.1//EN"
        "http://www.w3.org/Graphics/SVG/1.1/DTD/svg11.dtd">
<svg t="1649838478713" class="icon" viewBox="0 0 1024 1024" version="1.1" xmlns="http://www.w3.org/2000/svg" p-id="8288"
     xmlns:xlink="http://www.w3.org/1999/xlink" width="200" height="200">
    <defs>
        <style type="text/css"></style>
    </defs>
    <path d="M385.629624 20.084337a150.94574 150.94574 0 0 1 150.46387 0l310.324203 179.195362a150.825273 150.825273 0 0 1 75.231936 130.285569v196.361976a36.140241 36.140241 0 1 1-72.220249 0V340.949444L496.941566 530.384541v405.674206c1.023973-0.48187 2.108181-0.602337 3.011687-1.204675l86.134241-49.753065a36.019774 36.019774 0 1 1 36.080008 62.643084l-86.074008 49.692832a150.584338 150.584338 0 0 1-150.46387 0l-310.384437-179.195362A151.005974 151.005974 0 0 1 0.013251 687.895758V329.565268c0-53.547791 28.851959-103.481557 75.171702-130.285569zM72.293734 341.009677v346.946315c0 27.767752 14.9982 53.788725 39.151927 67.702718l310.26397 179.195362 3.011687 1.204675V530.384541L72.293734 341.009677z m834.297465 297.373951a36.140241 36.140241 0 1 1 58.125554 42.946653l-156.607711 212.263682a36.080007 36.080007 0 0 1-53.547791 5.059634l-88.844759-82.038347a36.140241 36.140241 0 1 1 49.090494-53.065921l59.149528 54.631998zM149.874784 500.207439a30.056634 30.056634 0 0 1 40.778239-12.287682l139.621798 74.991001a30.116868 30.116868 0 1 1-28.490557 53.06592L162.162466 540.985678a30.116868 30.116868 0 0 1-12.287682-40.778239zM499.953253 82.667187c-24.093494-13.853759-54.089894-13.853759-78.243622 0.060234L111.385428 261.862549a77.099181 77.099181 0 0 0-13.853759 10.661372l363.32989 195.217535 363.269656-195.157302a75.593338 75.593338 0 0 0-13.853759-10.721605z"
          fill="#E0E7FA" p-id="8289"></path>
</svg>