<?xml version="1.0" standalone="no"?><!DOCTYPE svg PUBLIC "-//W3C//DTD SVG 1.1//EN"
        "http://www.w3.org/Graphics/SVG/1.1/DTD/svg11.dtd">
<svg t="1649838430027" class="icon" viewBox="0 0 1024 1024" version="1.1" xmlns="http://www.w3.org/2000/svg" p-id="6585"
     xmlns:xlink="http://www.w3.org/1999/xlink" width="200" height="200">
    <defs>
        <style type="text/css"></style>
    </defs>
    <path d="M818.048 936.768H205.888A122.88 122.88 0 0 1 83.2 814.016V368.832h857.536v445.184a122.816 122.816 0 0 1-122.688 122.752M205.888 150.784h66.496v37.568a41.6 41.6 0 1 0 83.2 0v-37.568h312.704v37.568a41.6 41.6 0 0 0 83.264 0v-37.568h66.496c67.712 0 122.688 54.976 122.688 122.688v12.096H83.2v-12.096c0-67.712 55.04-122.688 122.688-122.688m612.16-83.264h-66.496V41.664a41.6 41.6 0 1 0-83.264 0v25.856H355.584V41.664a41.6 41.6 0 1 0-83.2 0v25.856H205.888A205.888 205.888 0 0 0 0 273.472v540.544a205.888 205.888 0 0 0 205.888 205.952h612.16A206.016 206.016 0 0 0 1024 814.016V273.472a205.952 205.952 0 0 0-205.952-205.952m-126.08 368.576l-224.448 274.752L378.24 603.136a44.8 44.8 0 0 0-68.992 57.28l113.28 136.448a58.688 58.688 0 0 0 45.248 21.12c18.944 2.496 34.368-7.936 45.632-21.632l247.936-303.616a44.8 44.8 0 1 0-69.376-56.64"
          fill="#E0E7FA" p-id="6586"></path>
</svg>