<?xml version="1.0" encoding="UTF-8"?>
<svg width="13px" height="13px" viewBox="0 0 13 13" version="1.1" xmlns="http://www.w3.org/2000/svg" xmlns:xlink="http://www.w3.org/1999/xlink">
    <title>关闭</title>
    <defs>
        <polygon id="path-1" points="0 0 12.5998 0 12.5998 12.6 0 12.6"></polygon>
    </defs>
    <g id="2.2" stroke="none" stroke-width="1" fill="none" fill-rule="evenodd">
        <g id="打标签-选中标签" transform="translate(-968.000000, -251.000000)">
            <g id="*right" transform="translate(921.000000, 14.100505)">
                <g id="编组-5" transform="translate(12.000000, 236.899495)">
                    <g id="关闭" transform="translate(35.000000, 0.000000)">
                        <path d="M6.2998,0.3002 C2.9768,0.3002 0.2998,2.9772 0.2998,6.3002 C0.2998,9.6232 2.9768,12.3002 6.2998,12.3002 C9.6228,12.3002 12.2998,9.6232 12.2998,6.3002 C12.2998,2.9772 9.6228,0.3002 6.2998,0.3002" id="Fill-1" fill="#F7BB00"></path>
                        <g id="编组">
                            <mask id="mask-2" fill="white">
                                <use xlink:href="#path-1"></use>
                            </mask>
                            <g id="Clip-4"></g>
                            <path d="M6.2998,0.6 C3.1568,0.6 0.5998,3.157 0.5998,6.3 C0.5998,9.443 3.1568,12 6.2998,12 C9.4428,12 11.9998,9.443 11.9998,6.3 C11.9998,3.157 9.4428,0.6 6.2998,0.6 M6.2998,12.6 C2.8258,12.6 -0.0002,9.774 -0.0002,6.3 C-0.0002,2.827 2.8258,0 6.2998,0 C9.7738,0 12.5998,2.827 12.5998,6.3 C12.5998,9.774 9.7738,12.6 6.2998,12.6" id="Fill-3" fill="#FFF6D9" mask="url(#mask-2)"></path>
                        </g>
                        <path d="M3.959,8.641 L3.959,8.641 C3.799,8.481 3.799,8.221 3.959,8.061 L8.06,3.96 C8.221,3.799 8.48,3.799 8.641,3.96 C8.801,4.12 8.801,4.38 8.641,4.54 L4.54,8.641 C4.379,8.801 4.12,8.801 3.959,8.641" id="Fill-5" fill="#FFFFFF"></path>
                        <path d="M3.959,3.9599 L3.959,3.9599 C4.12,3.7989 4.379,3.7989 4.54,3.9599 L8.641,8.0609 C8.801,8.2209 8.801,8.4809 8.641,8.6409 C8.48,8.8009 8.221,8.8009 8.06,8.6409 L3.959,4.5409 C3.799,4.3799 3.799,4.1199 3.959,3.9599" id="Fill-7" fill="#FFFFFF"></path>
                    </g>
                </g>
            </g>
        </g>
    </g>
</svg>