<?xml version="1.0" standalone="no"?><!DOCTYPE svg PUBLIC "-//W3C//DTD SVG 1.1//EN" "http://www.w3.org/Graphics/SVG/1.1/DTD/svg11.dtd"><svg t="1648109632983" class="icon" viewBox="0 0 1024 1024" version="1.1" xmlns="http://www.w3.org/2000/svg" p-id="2270" xmlns:xlink="http://www.w3.org/1999/xlink" width="200" height="200"><defs><style type="text/css"></style></defs><path d="M830.08 768H193.728a116.928 116.928 0 0 1-116.672-113.664h869.632A116.864 116.864 0 0 1 830.08 768M193.728 76.8h636.352a117.12 117.12 0 0 1 116.928 116.928v383.808H76.736V193.728A117.12 117.12 0 0 1 193.728 76.8M830.08 0H193.728A193.92 193.92 0 0 0 0 193.728v457.408A193.92 193.92 0 0 0 193.728 844.8h270.08v102.144H275.52a38.4 38.4 0 1 0 0 76.8h472.896a38.336 38.336 0 1 0 0-76.8H559.872V844.8h270.208a193.92 193.92 0 0 0 193.664-193.728V193.728A193.92 193.92 0 0 0 830.08 0" fill="#4F84FA" p-id="2271"></path></svg>