<?xml version="1.0" encoding="UTF-8"?>
<svg width="14px" height="16px" viewBox="0 0 14 16" version="1.1" xmlns="http://www.w3.org/2000/svg" xmlns:xlink="http://www.w3.org/1999/xlink">
    <!-- Generator: Sketch 61 (89581) - https://sketch.com -->
    <title>dropbox_setting_normal</title>
    <desc>Created with Sketch.</desc>
    <g id="图标" stroke="none" stroke-width="1" fill="none" fill-rule="evenodd">
        <g id="切图" transform="translate(-568.000000, -426.000000)" fill="#A2ABC3" fill-rule="nonzero">
            <path d="M575.007167,426 C575.82251,426.000165 576.580071,426.420986 577.011022,427.113132 L577.011022,427.113132 L577.251238,427.498712 C577.638377,428.1207 578.309936,428.508945 579.042133,428.534074 L579.042133,428.534074 L579.646851,428.554425 C580.480871,428.58294 581.242831,429.034608 581.668151,429.752595 C582.095209,430.47325 582.111089,431.365572 581.709943,432.100966 L581.709943,432.100966 L581.470454,432.539968 C581.099266,433.220433 581.099266,434.042883 581.470454,434.723349 L581.470454,434.723349 L581.709943,435.162351 C582.111089,435.897745 582.095209,436.790066 581.668151,437.510721 C581.242792,438.228618 580.480819,438.680158 579.646851,438.708528 L579.646851,438.708528 L579.042497,438.729243 C578.31009,438.753989 577.638194,439.142136 577.250874,439.764241 L577.250874,439.764241 L577.011022,440.150185 C576.579959,440.842371 575.82224,441.263135 575.006803,441.263135 C574.191367,441.263135 573.433647,440.842371 573.002584,440.150185 L573.002584,440.150185 L572.764186,439.767875 C572.377946,439.147424 571.708397,438.759726 570.978014,438.733604 L570.978014,438.733604 L570.308246,438.709982 C569.479624,438.680669 568.72562,438.223314 568.316746,437.501999 C567.909085,436.782575 567.894034,435.905515 568.276771,435.172526 L568.276771,435.172526 L568.506811,434.732434 C568.866589,434.042678 568.866589,433.220639 568.506811,432.530882 L568.506811,432.530882 L568.277134,432.09079 C567.894641,431.357837 567.909829,430.480949 568.317473,429.761681 C568.726174,429.040492 569.479833,428.583042 570.308246,428.553335 L570.308246,428.553335 L570.979105,428.52935 C571.709305,428.503252 572.378705,428.115697 572.764913,427.495442 L572.764913,427.495442 L573.002948,427.113132 C573.433967,426.420876 574.191694,426 575.007167,426 Z M575.007167,427.090237 C574.568272,427.090237 574.160494,427.316899 573.928559,427.689504 L573.928559,427.689504 L573.69016,428.071814 C573.112228,428.999883 572.110598,429.579774 571.01799,429.61886 L571.01799,429.61886 L570.347494,429.642845 C569.897461,429.658914 569.488012,429.90739 569.265979,430.299168 C569.040474,430.69673 569.031991,431.181529 569.243448,431.586737 L569.243448,431.586737 L569.473124,432.026466 C569.998005,433.032233 569.998005,434.231084 569.473124,435.23685 L569.473124,435.23685 L569.243448,435.676943 C569.032123,436.082055 569.040606,436.566681 569.265979,436.964149 C569.487892,437.35587 569.897208,437.604348 570.347131,437.620472 L570.347131,437.620472 L571.017263,437.644093 C572.110184,437.683084 573.112124,438.263133 573.69016,439.191503 L573.69016,439.191503 L573.928196,439.573813 C574.160046,439.946744 574.56804,440.173508 575.007167,440.173508 C575.446293,440.173508 575.854287,439.946744 576.086138,439.573813 L576.086138,439.573813 L576.32599,439.187869 C576.905319,438.257532 577.910092,437.67699 579.005429,437.639733 L579.005429,437.639733 L579.610147,437.619018 C580.072415,437.603288 580.494774,437.352996 580.730547,436.955064 C580.961681,436.565234 580.970381,436.082478 580.753442,435.684574 L580.753442,435.684574 L580.51359,435.245572 C579.964787,434.239611 579.964787,433.023705 580.51359,432.017744 L580.51359,432.017744 L580.753079,431.578742 C580.970129,431.180902 580.961567,430.698147 580.730547,430.308253 C580.494724,429.91037 580.072395,429.660096 579.610147,429.644299 L579.610147,429.644299 L579.005429,429.623584 C577.90997,429.586103 576.905195,429.005288 576.32599,428.074721 L576.32599,428.074721 L576.085774,427.689504 C575.853917,427.316643 575.446169,427.090237 575.007167,427.090237 Z M574.825461,430.906066 C576.330764,430.906066 577.551053,432.126355 577.551053,433.631658 C577.551053,435.136961 576.330764,436.357251 574.825461,436.357251 C573.320157,436.357251 572.099868,435.136961 572.099868,433.631658 C572.099868,432.126355 573.320157,430.906066 574.825461,430.906066 Z M574.825461,431.996303 C573.922279,431.996303 573.190105,432.728476 573.190105,433.631658 C573.190105,434.53484 573.922279,435.267014 574.825461,435.267014 C575.728642,435.267014 576.460816,434.53484 576.460816,433.631658 C576.460816,432.728476 575.728642,431.996303 574.825461,431.996303 Z" id="dropbox_setting_normal"></path>
        </g>
    </g>
</svg>