<?xml version="1.0" encoding="UTF-8"?>
<svg width="14px" height="14px" viewBox="0 0 14 14" version="1.1" xmlns="http://www.w3.org/2000/svg" xmlns:xlink="http://www.w3.org/1999/xlink">
    <!-- Generator: Sketch 61 (89581) - https://sketch.com -->
    <title>dropbox_lose_normal</title>
    <desc>Created with Sketch.</desc>
    <g id="图标" stroke="none" stroke-width="1" fill="none" fill-rule="evenodd">
        <g id="切图" transform="translate(-568.000000, -599.000000)" fill="#A2ABC3" fill-rule="nonzero">
            <path d="M575.785702,608.461386 C575.554643,608.313447 575.249691,608.35936 575.072493,608.568766 L572.697718,611.26363 C571.943095,612.109743 570.6535,612.206427 569.781021,611.482302 C569.358378,611.111166 569.101805,610.586507 569.068461,610.025206 C569.035117,609.463905 569.227772,608.912589 569.603506,608.494079 L571.94479,605.843603 C572.041282,605.733994 572.086202,605.58834 572.068194,605.443459 C572.050187,605.298578 571.970977,605.168335 571.850586,605.085652 C571.619361,604.937248 571.313883,604.983191 571.136597,605.193032 L568.763368,607.887103 C568.22176,608.503547 567.949626,609.311043 568.007703,610.129361 C568.06578,610.947679 568.449234,611.708699 569.072479,612.242565 C570.381024,613.360825 572.344651,613.225494 573.487229,611.938304 L575.87602,609.219337 C575.972907,609.110242 576.01847,608.964933 576.00121,608.820086 C575.98395,608.675238 575.905515,608.544689 575.785702,608.461386 Z M581.529558,600.51383 C581.117672,599.797956 580.430321,599.281989 579.627639,599.086137 C578.824958,598.890284 577.97704,599.031647 577.281429,599.477294 L574.242483,601.449184 C574.00112,601.612606 573.931045,601.936332 574.08209,602.185344 C574.150816,602.304498 574.265322,602.390366 574.399004,602.422998 C574.532686,602.455629 574.673905,602.432184 574.789851,602.358109 L577.828797,600.386192 C578.292071,600.088698 578.857071,599.993898 579.392151,600.123881 C579.92723,600.253864 580.385659,600.597278 580.660623,601.074107 C581.262761,602.070245 580.981085,603.363026 580.019036,604.018735 L576.970756,605.990652 C576.729393,606.154075 576.659318,606.477787 576.811143,606.726033 C576.879744,606.845092 576.994046,606.930962 577.127546,606.96373 C577.261045,606.996498 577.402145,606.973317 577.518125,606.899564 L580.557836,604.92766 C582.002542,603.947334 582.429126,602.009666 581.529558,600.513817 L581.529558,600.51383 Z M572.707832,607.867637 C572.939874,608.042492 573.266136,608.016073 573.466987,607.806164 L577.349944,603.924596 C577.460624,603.814021 577.519226,603.661743 577.511212,603.505541 C577.503197,603.349339 577.429316,603.203851 577.307898,603.105172 C577.075713,602.929848 576.748915,602.956284 576.547964,603.166645 L572.666581,607.047434 C572.555807,607.1579 572.497066,607.310112 572.504929,607.466312 C572.512793,607.622511 572.586524,607.768062 572.707832,607.866858 L572.707832,607.867637 Z M568.390421,604.884093 C568.408759,604.953177 568.45972,605.008945 568.526901,605.033445 C568.594083,605.057946 568.669004,605.048086 568.72755,605.007039 L570.741054,603.934705 C570.795009,603.903318 570.821117,603.839606 570.804691,603.779411 C570.788265,603.719216 570.733406,603.677573 570.670979,603.67791 L568.417671,603.565865 C568.341596,603.55991 568.267912,603.593999 568.223228,603.655822 C568.178544,603.717645 568.169316,603.79827 568.198877,603.868581 L568.391188,604.884106 L568.390421,604.884093 Z M568.476058,601.330915 L571.166954,602.320766 C571.225566,602.341302 571.29068,602.32012 571.325968,602.269037 C571.361256,602.217955 571.357999,602.149593 571.318013,602.102094 L569.457114,599.95432 C569.414471,599.892177 569.34282,599.856355 569.267491,599.859519 C569.192162,599.862683 569.12377,599.904387 569.086494,599.969886 L568.358504,600.987738 C568.314612,601.045972 568.302522,601.12219 568.326243,601.191136 C568.349963,601.260082 568.406395,601.312753 568.476839,601.331695 L568.476058,601.330915 Z M572.450113,601.699002 C572.468053,601.756572 572.521372,601.79579 572.581703,601.79579 C572.642034,601.79579 572.695353,601.756572 572.713293,601.699002 L573.488789,599.508413 C573.513937,599.443361 573.50665,599.370235 573.469159,599.311417 C573.431668,599.252599 573.368438,599.215092 573.298819,599.210376 L572.347327,599.135675 C572.271558,599.121796 572.194068,599.148762 572.143309,599.206672 C572.09255,599.264582 572.076,599.344903 572.099736,599.418146 L572.450113,601.698223 L572.450113,601.699002 Z" id="dropbox_lose_normal"></path>
        </g>
    </g>
</svg>