<?xml version="1.0" encoding="UTF-8"?>
<svg width="14px" height="10px" viewBox="0 0 14 10" version="1.1" xmlns="http://www.w3.org/2000/svg" xmlns:xlink="http://www.w3.org/1999/xlink">
    <!-- Generator: Sketch 61 (89581) - https://sketch.com -->
    <title>dropbox_select</title>
    <desc>Created with Sketch.</desc>
    <g id="图标" stroke="none" stroke-width="1" fill="none" fill-rule="evenodd">
        <g id="切图" transform="translate(-355.000000, -447.000000)" fill="#4F84FA" fill-rule="nonzero">
            <path d="M368.676889,447.324024 C368.470036,447.116587 368.189132,447 367.896184,447 C367.603236,447 367.322332,447.116587 367.115479,447.324024 L360.167401,454.272336 L356.887809,450.992977 C356.609324,450.712152 356.201886,450.60176 355.819724,450.703589 C355.437562,450.805418 355.139073,451.103907 355.037244,451.48607 C354.935415,451.868232 355.045806,452.275669 355.326632,452.554155 L359.385879,456.613402 C359.592692,456.820825 359.873558,456.937406 360.166468,456.937406 C360.459378,456.937406 360.740243,456.820825 360.947056,456.613402 L368.67619,448.884502 C368.883498,448.677627 369,448.396785 369,448.103913 C369,447.811041 368.883498,447.530199 368.67619,447.323324 L368.676889,447.324024 Z" id="dropbox_select"></path>
        </g>
    </g>
</svg>