<?xml version="1.0" encoding="UTF-8"?>
<svg width="305px" height="220px" viewBox="0 0 305 220" version="1.1" xmlns="http://www.w3.org/2000/svg" xmlns:xlink="http://www.w3.org/1999/xlink">
    <!-- Generator: Sketch 61 (89581) - https://sketch.com -->
    <title>default_recycle_pic</title>
    <desc>Created with Sketch.</desc>
    <defs>
        <linearGradient x1="32.0960876%" y1="15.0387564%" x2="78.9894574%" y2="100%" id="linearGradient-1">
            <stop stop-color="#184293" offset="0%"></stop>
            <stop stop-color="#102B5E" offset="100%"></stop>
        </linearGradient>
        <linearGradient x1="50.2388322%" y1="0%" x2="49.3372308%" y2="100%" id="linearGradient-2">
            <stop stop-color="#2251A9" offset="0%"></stop>
            <stop stop-color="#102B5E" offset="100%"></stop>
        </linearGradient>
        <linearGradient x1="32.5615191%" y1="0%" x2="29.04573%" y2="100%" id="linearGradient-3">
            <stop stop-color="#79EDDC" offset="0%"></stop>
            <stop stop-color="#31CDAA" offset="100%"></stop>
        </linearGradient>
        <linearGradient x1="50.2249924%" y1="0%" x2="49.3756367%" y2="100%" id="linearGradient-4">
            <stop stop-color="#164193" offset="0%"></stop>
            <stop stop-color="#102B5E" offset="100%"></stop>
        </linearGradient>
        <linearGradient x1="50.2638957%" y1="0%" x2="49.2676783%" y2="100%" id="linearGradient-5">
            <stop stop-color="#19479F" offset="0%"></stop>
            <stop stop-color="#102B5E" offset="100%"></stop>
        </linearGradient>
        <linearGradient x1="37.3126402%" y1="12.3053663%" x2="53.3366375%" y2="100%" id="linearGradient-6">
            <stop stop-color="#75F4FF" offset="0%"></stop>
            <stop stop-color="#53E9FE" offset="100%"></stop>
        </linearGradient>
    </defs>
    <g id="图标" stroke="none" stroke-width="1" fill="none" fill-rule="evenodd">
        <g id="切图" transform="translate(-562.000000, -1749.000000)" fill-rule="nonzero">
            <g id="default_recycle_pic" transform="translate(562.000000, 1749.000000)">
                <g id="plant_30_" transform="translate(262.208434, 109.100671)">
                    <path d="M3.54157562,68.6226434 C0.75978826,62.115208 -3.38995366,52.8953621 5.09136463,47.4509589 C13.5726829,42.0065556 5.82989225,38.7827707 5.55462286,30.8911555 C5.27935348,23.0000998 13.9363518,20.9719463 13.6773077,17.2300731 C13.4182635,13.4881998 12.9885747,6.87166378 13.7875273,4.04847412 C15.1247099,-0.675864667 25.1323186,-2.8209517 26.153389,10.4814972 C26.7951247,18.8402871 27.6578592,23.887452 32.1158805,29.8499435 C36.5739017,35.812435 26.7537224,42.1167753 26.9355569,46.9166453 C27.1173913,51.7165153 31.9558662,51.0054028 31.426588,61.1786207 C30.8973099,71.3518386 24.2108375,79.0442751 17.8533456,78.5905282 C13.5357565,78.2816894 6.08110353,74.5627553 3.54157562,68.6226434 Z" id="Path" fill="#FF8FF5"></path>
                    <path d="M19.9234609,82.030836 C20.1192826,82.030836 20.2949627,81.8943203 20.3369245,81.6951417 C20.4885465,80.9739583 20.0431919,79.5897785 19.1021287,76.7772191 C17.5154133,72.0366551 15.119115,64.8723777 15.6455957,58.2922086 C15.9756951,54.1682032 16.995087,49.7717259 17.981469,45.5212757 C19.3919448,39.4401722 20.724092,33.6964415 19.9464,29.283739 C19.0735947,24.3288901 19.6599408,17.9120922 20.0107415,14.0779029 C20.2160745,11.8343456 20.30895,10.735506 20.1897785,10.2660934 C20.1321509,10.0389402 19.9016408,9.9001865 19.6756066,9.96061148 C19.4490129,10.018239 19.3124972,10.2481897 19.3701247,10.4747834 C19.4590837,10.824465 19.3242465,12.2964848 19.1687081,14.0006932 C18.813991,17.8768442 18.2203715,24.3646975 19.113878,29.4314445 C19.861917,33.6740619 18.548233,39.3361069 17.1578988,45.3304894 C16.164803,49.6111521 15.1375782,54.0384014 14.8024433,58.2250697 C14.2625349,64.9781215 16.6924026,72.2408692 18.2998192,77.0463341 C19.0086938,79.1640061 19.6207765,80.9935404 19.5094379,81.5205806 C19.4613217,81.7494123 19.6079082,81.9743275 19.8361804,82.0218842 C19.8647144,82.0274791 19.8943674,82.030836 19.9234609,82.030836 Z" id="Path" fill="#FD55EE"></path>
                    <path d="M20.8634052,37.8780744 C22.9978619,37.8780744 24.57059,35.9853176 25.1849107,34.767866 C25.2900949,34.5597355 25.2067308,34.3051673 24.9980408,34.199983 C24.7904698,34.0925608 24.5347826,34.1776034 24.4301579,34.3857339 C24.3551861,34.531761 22.5664946,37.9731878 19.6772851,36.7842702 C19.4596432,36.6936327 19.2140268,36.797698 19.1250678,37.0142209 C19.0361088,37.2307437 19.1390551,37.4774791 19.3550185,37.5664381 C19.8826181,37.7835205 20.3872787,37.8780744 20.8634052,37.8780744 Z" id="Path" fill="#FD55EE"></path>
                    <path d="M19.7058191,30.8782872 C19.9027598,30.8782872 20.0795588,30.7395336 20.1198421,30.5397954 C20.1662799,30.3109638 20.0180148,30.087727 19.7891832,30.0407298 C19.7444239,30.0317779 15.2998305,29.0856793 14.0594398,25.2565255 C13.987825,25.0349672 13.7506009,24.9135578 13.5262452,24.9846131 C13.3041274,25.0562279 13.182718,25.2951304 13.2543328,25.5178076 C14.6497024,29.8236474 19.4193599,30.8296116 19.621336,30.8704544 C19.64987,30.8760493 19.678404,30.8782872 19.7058191,30.8782872 Z" id="Path" fill="#FD55EE"></path>
                    <path d="M15.2265372,58.681614 C15.478308,58.681614 21.1940641,58.6195106 22.5888742,53.8688757 C22.6543346,53.6450795 22.5262113,53.4095339 22.3018555,53.3440735 C22.0752618,53.2786131 21.8425138,53.4078555 21.7770533,53.6305327 C20.5400196,57.8462946 15.4313108,57.8446161 15.2287751,57.8356642 C14.9965865,57.8379022 14.8035623,58.0191772 14.8012933,58.2536037 C14.7985269,58.4863518 14.9853967,58.6782571 15.2187043,58.681614 C15.2187043,58.681614 15.2215018,58.681614 15.2265372,58.681614 Z" id="Path" fill="#FD55EE"></path>
                    <path d="M15.5756593,65.6489507 C15.7407091,65.6489507 15.8984854,65.5515994 15.9661838,65.3887876 C16.0562618,65.1739432 15.9544345,64.9260888 15.7390306,64.8360109 C15.652869,64.799644 7.12735099,61.1730258 6.9421596,55.8752091 C6.93376724,55.642461 6.73235061,55.4695784 6.50463793,55.466781 C6.27133034,55.4751733 6.08837691,55.670995 6.09676927,55.9048621 C6.30042386,61.7448252 15.0407863,65.4604024 15.4122881,65.6159408 C15.4659992,65.6377609 15.5213887,65.6489507 15.5756593,65.6489507 Z" id="Path" fill="#FD55EE"></path>
                </g>
                <g id="plant_29_" transform="translate(239.269318, 137.075202)">
                    <path d="M20.1455787,45.1900573 C21.9851839,40.8870149 24.7289259,34.7902456 19.1205919,31.1899235 C13.5122579,27.5896014 18.6321566,25.4579421 18.8145505,20.2395731 C18.9969445,15.0212041 13.271677,13.6806646 13.4434406,11.2060376 C13.6146447,8.73197009 13.8988659,4.35675345 13.3707068,2.48973325 C12.4861521,-0.634462362 5.86905659,-2.05277108 5.19375141,6.74354043 C4.76965752,12.2707482 4.19897709,15.6081098 1.25102102,19.5508402 C-1.69693505,23.4935706 4.79651307,27.6623352 4.67678208,30.8363254 C4.5564916,34.0103157 1.35732424,33.5403436 1.70700588,40.2670993 C2.05668751,46.993855 6.47834187,52.0807437 10.6823544,51.7808568 C13.536316,51.5772022 18.4659879,49.1182409 20.1455787,45.1900573 Z" id="Path" fill="#44D7B6"></path>
                    <path d="M9.4766521,6.3994537 C9.62659558,6.43749906 9.71667357,6.58968051 9.67862821,6.7390645 C9.6198817,6.97013413 9.70884071,7.9436478 9.81178698,9.07046191 C10.0462135,11.6334884 10.438976,15.9236625 9.84815387,19.2738923 L9.80223102,19.5657138 C10.6404757,19.2957777 12.5538625,18.4791466 13.1905508,16.5139251 C13.2381075,16.3673386 13.3947649,16.2873314 13.5430299,16.3343286 C13.6901759,16.3818853 13.7701831,16.5396617 13.7226264,16.6868077 C12.9314551,19.1284516 10.4994595,19.9654779 9.73829045,20.1713413 C9.53309805,22.8537307 10.3166922,26.2318345 11.1416962,29.7872805 C11.7985382,32.6183031 12.4777598,35.545558 12.6993181,38.3139176 C12.8090384,39.6864534 12.7332146,41.0908648 12.5446726,42.4701682 C13.9038669,41.8092297 17.7954111,39.6646022 17.8969859,36.7602121 C17.9025808,36.6063522 18.0357396,36.4922161 18.1862426,36.4905376 C18.340662,36.4961325 18.4615119,36.6253749 18.455917,36.7803538 C18.3312947,40.3494123 13.3848332,42.7188656 12.4421679,43.1386672 C11.977944,46.0022682 11.0697844,48.7167783 10.3863838,50.7597864 C9.91753071,52.1601914 9.51301899,53.3698101 9.58631226,53.7183728 C9.61820323,53.8699947 9.52141135,54.0182597 9.37034888,54.0501507 C9.3513262,54.0540671 9.33174403,54.0563051 9.31272135,54.0563051 C9.18347901,54.0563051 9.06710497,53.9662271 9.03913043,53.8347468 C8.93898161,53.3575013 9.23327368,52.4427342 9.85542725,50.5829873 L10.0875265,49.8874371 C10.7354011,47.9353443 11.5051158,45.48843 11.909597,42.9387586 C11.908429,42.9118967 11.9128037,42.8854394 11.9207372,42.8601564 C12.141227,41.4506351 12.2475487,40.0104395 12.1586458,38.6062418 C11.2562078,38.5452539 8.3446012,38.1388014 7.5503259,35.4342194 C7.50668563,35.2859543 7.5917282,35.1304159 7.73999322,35.0873352 C7.8899367,35.0442544 8.04379662,35.129297 8.08743689,35.2770025 C8.77028355,37.6039122 11.2373356,37.9875354 12.1116017,38.0475258 L12.1409464,38.3592363 C11.9227451,35.632279 11.2485589,32.7251658 10.5961928,29.9142849 C10.1801497,28.120333 9.77434898,26.3709131 9.49812795,24.7242785 L9.68869904,24.6533946 C9.3395769,24.7977432 9.00612049,24.8598467 8.69112727,24.8598467 C7.28009193,24.8598467 6.23999887,23.6082661 5.83324919,22.8031591 C5.76331286,22.6655245 5.81870243,22.4971178 5.95689662,22.4277409 C6.09453131,22.3566856 6.26293799,22.4131942 6.33231482,22.5508289 C6.38152987,22.6464941 7.53749094,24.8703909 9.40910816,24.1631991 C9.18407678,22.6758204 9.08000258,21.2826175 9.18751925,20.0258239 C9.18589636,20.0207674 9.18429118,20.0141285 9.18291952,20.0073845 C9.16995891,19.943524 9.17982592,19.8804576 9.20691902,19.8265038 C9.22967696,19.6053757 9.25968782,19.388919 9.29705561,19.1771004 C9.84934583,16.0431746 9.518102,12.0246908 9.28554299,9.46213091 L9.25453432,9.12193505 C9.1185781,7.63872542 9.05703413,6.9119471 9.1364818,6.60142981 C9.17452716,6.45092683 9.32670861,6.35917037 9.4766521,6.3994537 Z" id="形状结合" fill="#24BB99"></path>
                </g>
                <g id="rocket" transform="translate(59.113339, 0.000000)">
                    <path d="M22.8479184,36.4765504 C15.2931166,36.4765504 9.16949175,48.724919 9.16949175,63.8339632 L9.16949175,184.662117 L22.8479184,184.662117 L36.526345,184.662117 L36.526345,63.8339632 C36.5269045,48.724919 30.4027202,36.4765504 22.8479184,36.4765504 Z" id="Path" fill="#4F84FA"></path>
                    <polygon id="Path" fill="#4F84FA" points="114.039294 67.1920258 100.360868 67.1920258 100.360868 184.663236 114.039294 184.663236 127.717161 184.663236 127.717161 67.1920258"></polygon>
                    <rect id="Rectangle" fill="#326DF0" x="9.16949175" y="104.869803" width="27.3574128" height="4.55928905"></rect>
                    <rect id="Rectangle" fill="#326DF0" x="9.16949175" y="113.98894" width="27.3574128" height="4.55928905"></rect>
                    <rect id="Rectangle" fill="#326DF0" x="100.360308" y="104.869803" width="27.3574128" height="4.55928905"></rect>
                    <rect id="Rectangle" fill="#326DF0" x="100.360308" y="113.98894" width="27.3574128" height="4.55928905"></rect>
                    <path d="M68.4436064,0 C68.4430469,0 68.4419279,0 68.4413684,0 L68.4413684,0 C50.0492333,0.00447592495 36.5269045,36.3551409 36.5269045,54.7148256 L36.5269045,164.143917 C44.3122165,164.143917 92.6522059,164.143917 100.360868,164.143917 L100.360868,54.7148256 C100.360868,34.5692469 86.0709178,0 68.4436064,0 Z" id="Path" fill="#4F84FA"></path>
                    <polygon id="Path" fill="#739DF9" points="95.8010191 218.858743 41.0861936 218.858743 50.2053312 196.061179 86.6818815 196.061179"></polygon>
                    <polygon id="Path" points="88.505821 200.620468 86.6818815 196.061179 50.2053312 196.061179 48.3813918 200.620468"></polygon>
                    <path d="M126.153385,165.708812 C110.565417,150.120844 100.360868,129.990372 100.360868,107.945882 L100.360868,100.310514 L36.5269045,100.310514 L36.5269045,107.945882 C36.5269045,129.990372 26.3217956,150.121404 10.734387,165.708812 C4.13351669,172.309123 0.0509136463,181.428261 0.0509136463,191.50133 L36.527464,191.50133 L100.361427,191.50133 L136.837978,191.50133 C136.837978,181.428261 132.754256,172.309123 126.153385,165.708812 Z" id="Path" fill="#739DF9"></path>
                    <path d="M68.4436064,18.2382752 C50.8162949,18.2382752 36.5269045,54.9828216 36.5269045,100.310514 L36.5269045,177.822903 C36.5269045,187.895413 44.6926701,196.061179 54.7651797,196.061179 L82.1225925,196.061179 C92.1951021,196.061179 100.360868,187.895413 100.360868,177.822903 L100.360868,100.310514 C100.360868,54.9828216 86.0709178,18.2382752 68.4436064,18.2382752 Z" id="Path" fill="#DCEEFD"></path>
                    <path d="M36.5269045,100.310514 L36.5269045,177.822903 C36.5269045,187.895413 44.6926701,196.061179 54.7651797,196.061179 L68.4436064,196.061179 L68.4436064,18.2382752 C50.8162949,18.2382752 36.5269045,54.9828216 36.5269045,100.310514 Z" id="Path" fill="#F3F9FF"></path>
                    <path d="M100.080563,196.061179 L36.8066498,196.061179 C36.6522304,196.061179 36.5269045,195.935853 36.5269045,195.781433 L36.5269045,164.144477 L100.360868,164.144477 L100.360868,195.781433 C100.360868,195.935853 100.234982,196.061179 100.080563,196.061179 Z" id="Path" fill="#4F84FA"></path>
                    <polygon id="Path" fill="#326DF0" points="68.4436064 155.02478 63.8837578 164.143917 63.8837578 200.620468 68.4436064 209.739605 73.0028954 200.620468 73.0028954 164.143917"></polygon>
                    <rect id="Rectangle" fill="#4F84FA" x="41.0861936" y="209.739605" width="54.7148256" height="9.11913759"></rect>
                    <rect id="Rectangle" fill="#4F84FA" x="36.5269045" y="127.667367" width="63.8339632" height="4.55928905"></rect>
                    <rect id="Rectangle" fill="#326DF0" x="9.16949175" y="63.8339632" width="27.3574128" height="4.55928905"></rect>
                    <rect id="Rectangle" fill="#326DF0" x="100.360868" y="63.8350821" width="27.3562938" height="4.55537262"></rect>
                    <path d="M78.0970575,56.5135879 C76.4320134,52.6531026 72.6470594,50.154977 68.4436064,50.154977 C64.2401533,50.154977 60.4512829,52.6486267 58.7946312,56.5135879 L50.4145807,52.9160632 C53.5091233,45.6980747 60.5844416,41.0363989 68.4436064,41.0363989 C76.2938192,41.0363989 83.3691376,45.6986342 86.4681561,52.9160632 L78.0970575,56.5135879 Z" id="Path" fill="#4F84FA"></path>
                </g>
                <g id="plant_28_" transform="translate(0.366824, 115.255067)">
                    <g id="Group" transform="translate(17.344209, 0.000000)">
                        <path d="M2.3795136,61.0460214 C2.3795136,56.2634956 8.79519253,54.8636501 8.79519253,51.5979033 C8.79519253,48.3315971 0.2803048,46.5820699 0.2803048,40.6330062 C0.2803048,34.6839424 8.79519253,35.5007987 8.79519253,30.9515805 C8.79519253,26.4023623 4.53746892,26.4023623 4.53746892,20.8035397 C4.53746892,15.2047171 15.5605531,0.274150403 20.4594529,0.274150403 C25.3583528,0.274150403 30.2578121,14.2714867 30.2578121,18.937079 C30.2578121,23.6026712 21.976232,25.7024395 21.976232,29.6686685 C21.976232,33.6348975 30.2578121,33.8805139 30.2578121,37.781842 C30.2578121,41.6831701 20.2261454,45.2029256 20.2261454,48.0982895 C20.2261454,50.9936535 27.4581211,52.8808153 27.4581211,58.3632639 C27.4581211,63.8457125 20.4767972,74.8100501 16.9598391,74.8100501 C13.4434406,74.8100501 2.3795136,65.8285472 2.3795136,61.0460214 Z" id="Path" fill="#FFF36A"></path>
                        <path d="M17.4258948,79.2658334 C17.2485363,79.2658334 17.0902004,79.1382695 17.058869,78.9569946 C13.3763017,57.9470029 13.5738019,43.2021871 14.3873013,34.5323205 C15.2712964,25.10882 17.0073958,20.7285679 17.0806891,20.5467335 C17.1578988,20.3553877 17.3766596,20.2636312 17.5657675,20.3408409 C17.7571133,20.4180506 17.8494292,20.635133 17.772779,20.8264788 C17.7548753,20.8701191 15.9958368,25.3214264 15.1252694,34.6559679 C14.3207219,43.2732424 14.131614,57.9318966 17.7945991,78.8283117 C17.829847,79.0314068 17.6944503,79.2249906 17.4913552,79.2602385 C17.4689756,79.2641549 17.4471555,79.2658334 17.4258948,79.2658334 Z" id="Path" fill="#EDDE26"></path>
                    </g>
                    <path d="M2.58540615,67.7845264 C0.745800995,63.4814841 -1.997941,57.3847148 3.61039296,53.7843927 C9.21872692,50.1840705 4.09882827,48.0524113 3.91643433,42.8340423 C3.73404039,37.6156733 9.45930789,36.2751338 9.28754427,33.8005067 C9.11634014,31.3264392 8.83211891,26.9512226 9.36027805,25.0842024 C10.2448327,21.9600068 16.8619283,20.5416981 17.5372334,29.3380096 C17.9613273,34.8652174 18.5320078,38.2025789 21.4799638,42.1453093 C24.4279199,46.0880397 17.9344718,50.2568043 18.0542028,53.4307946 C18.1744933,56.6047849 21.3736606,56.1348127 21.023979,62.8615685 C20.6742973,69.5883242 16.252643,74.6752129 12.0486305,74.3753259 C9.19410934,74.1722308 4.2644375,71.71271 2.58540615,67.7845264 Z" id="Path" fill="#FCBA41"></path>
                    <path d="M16.7746477,45.0227696 C16.6358941,44.9517143 16.4680469,45.0076633 16.39867,45.1458575 C16.3494349,45.2415304 15.1918488,47.4582322 13.3220311,46.7532741 C13.5458274,45.2700644 13.6459762,43.8808492 13.5391135,42.6247928 C13.5413514,42.6164004 13.5463869,42.610246 13.5480653,42.6012942 C13.5603741,42.5397502 13.5469463,42.4810037 13.5217693,42.4284116 C13.4982707,42.2051748 13.4702961,41.985295 13.4328103,41.7715696 C12.8554159,38.494633 13.2437024,34.2508967 13.4753315,31.7147257 C13.6107283,30.2326351 13.6728317,29.5064162 13.5933841,29.195899 C13.5553387,29.045396 13.4009193,28.954199 13.2537733,28.9939228 C13.1038298,29.0314087 13.0131923,29.1841496 13.0517972,29.3335336 C13.1099842,29.5646033 13.0215847,30.536998 12.9180789,31.6638121 C12.6836523,34.2268386 12.2908899,38.5175721 12.8822715,41.8683615 C12.8990562,41.9629154 12.910246,42.0613857 12.9236738,42.1581776 C12.0861163,41.8901816 10.1793723,41.0789202 9.54043403,39.1078348 C9.49287733,38.9612482 9.33677944,38.8812411 9.18795494,38.9282383 C9.04080891,38.975795 8.96080175,39.1335713 9.00835845,39.2807174 C9.80003768,41.7245724 12.2304649,42.5587729 12.9891342,42.7641059 C13.1939078,45.4479824 12.4134184,48.8250678 11.5881697,52.3817497 C10.9313277,55.2127722 10.2521061,58.1400271 10.0305478,60.9083867 C9.92088765,62.2813767 9.99753786,63.6856981 10.1860862,65.065402 C8.82708349,64.4052031 4.93470726,62.263473 4.83343945,59.3546813 C4.82840404,59.2008213 4.69300731,59.0833283 4.5441828,59.0850068 C4.38976339,59.0906017 4.26891342,59.219844 4.27450833,59.3748229 C4.39927473,62.9471705 9.3513262,65.3160538 10.2879135,65.7323148 C10.7545287,68.5969068 11.660344,71.3126743 12.3440415,73.3553745 C12.8123352,74.7557795 13.2174064,75.9648387 13.1435536,76.3139609 C13.1116626,76.4650234 13.2084545,76.6132884 13.359517,76.6451793 C13.3790992,76.6496553 13.3981218,76.6513337 13.417704,76.6513337 C13.5469463,76.6513337 13.6633204,76.5612557 13.6912949,76.429216 C13.7914437,75.95253 13.4965922,75.0383223 12.8749981,73.178016 C11.8455354,70.102496 10.3046982,65.483901 10.5760512,61.1998813 C11.4740336,61.1400158 14.3861823,60.7360636 15.180659,58.0286885 C15.2242992,57.8804235 15.1392566,57.7248851 14.9909916,57.6818043 C14.8432861,57.638164 14.6871882,57.7232066 14.643548,57.8714716 C13.9576125,60.207345 11.4902588,60.5810847 10.6202509,60.6398312 C10.8630699,58.0035114 11.5064841,55.2127722 12.133673,52.5087541 C12.551053,50.7105512 12.9566837,48.9576671 13.2330721,47.3071698 C13.5122579,47.4000452 13.7836109,47.4548753 14.0398576,47.4548753 C15.4503334,47.4548753 16.490986,46.2032948 16.8977357,45.3981878 C16.9671125,45.2605531 16.9122824,45.0921464 16.7746477,45.0227696 Z" id="Path" fill="#FAA60C"></path>
                </g>
                <g id="paperplane_4_" transform="translate(200.664466, 11.189812)">
                    <path d="M18.341781,38.3704261 C17.5730408,38.3704261 16.7847186,38.3536414 15.9986342,38.320072 C15.8442148,38.3133581 15.7244838,38.1829968 15.7306382,38.0285773 C15.7367926,37.8741579 15.8805817,37.749951 16.0221328,37.7605813 C16.8009438,37.7935913 17.5814332,37.810376 18.341781,37.810376 L18.8044797,37.808138 C18.8050392,37.808138 18.8061582,37.808138 18.8067177,37.808138 C18.9600181,37.808138 19.085344,37.9317855 19.0864705,38.0856454 C19.0875819,38.2400648 18.9639345,38.3665097 18.8089556,38.3676287 L18.341781,38.3704261 Z M21.6008138,38.2663609 C21.4542273,38.2663609 21.3316988,38.1527843 21.321628,38.0045193 C21.3115572,37.8500998 21.4284907,37.7169411 21.5829101,37.7074297 C22.513343,37.6475642 23.4437759,37.5591647 24.3490317,37.4455881 C24.5040106,37.4276844 24.6422048,37.5351066 24.661787,37.6884071 C24.6813692,37.8417075 24.5722685,37.9815801 24.4189681,38.0011623 C23.5025224,38.1164174 22.5603402,38.2059359 21.6187175,38.2663609 C21.6125631,38.2663609 21.6069682,38.2663609 21.6008138,38.2663609 Z M13.2196443,38.1348806 C13.211252,38.1348806 13.2028596,38.1348806 13.1944673,38.1337616 C12.2757837,38.050957 11.3369584,37.9457727 10.4031686,37.8204468 C10.2498681,37.7997457 10.1424459,37.6587541 10.1631471,37.5060131 C10.1838482,37.3532722 10.3242804,37.244731 10.4775808,37.2659916 C11.4035378,37.3901986 12.3345302,37.4948233 13.2448214,37.5765089 C13.3986813,37.5904962 13.5122579,37.7264524 13.4982707,37.8803123 C13.4848429,38.0252204 13.3628739,38.1348806 13.2196443,38.1348806 Z M27.1448063,37.5630812 C27.013326,37.5630812 26.8963925,37.4702057 26.8706559,37.3364875 C26.8410029,37.1848655 26.9405923,37.038279 27.0922142,37.008626 C28.0108978,36.8301484 28.9206296,36.61978 29.7962324,36.3831154 C29.9444974,36.3433916 30.0994763,36.4306721 30.1392001,36.5806156 C30.1794835,36.7299996 30.0910839,36.8833001 29.9416999,36.9235834 C29.0532288,37.1636049 28.1300693,37.3773303 27.1985174,37.5580457 C27.1806137,37.5614027 27.16271,37.5630812 27.1448063,37.5630812 Z M7.6756518,37.3946745 C7.65942657,37.3946745 7.64320134,37.3935555 7.62697611,37.390758 C6.7211608,37.2318627 5.79408485,37.0517067 4.87148482,36.8542065 C4.72042235,36.8217561 4.62418996,36.6734911 4.65664042,36.5224286 C4.68909087,36.3713661 4.83791538,36.2734553 4.98841836,36.3075842 C5.90486399,36.5034059 6.82522606,36.6824429 7.72376799,36.8396598 C7.87594944,36.8665153 7.97777673,37.0114234 7.95092118,37.1636049 C7.92686308,37.2990016 7.80937006,37.3946745 7.6756518,37.3946745 Z M2.20551202,36.227577 C2.1825729,36.227577 2.16019328,36.2247796 2.13725416,36.2191847 C1.66224663,36.1005727 1.18332266,35.9763658 0.700482255,35.8465639 C0.551098259,35.8062806 0.462698742,35.6529802 0.502422576,35.5041557 C0.5427059,35.3547717 0.69656582,35.2669317 0.844830834,35.306096 C1.32487378,35.4347788 1.80044081,35.5584263 2.27265089,35.6764788 C2.42259438,35.7139647 2.51379135,35.8655866 2.47574599,36.0155301 C2.444974,36.143094 2.33083792,36.227577 2.20551202,36.227577 Z M32.5371769,36.0988942 C32.4219219,36.0988942 32.3144997,36.0278389 32.2736568,35.9131433 C32.2216242,35.7676758 32.2971555,35.6076614 32.4431825,35.5556288 C33.3221423,35.2417546 34.1859958,34.890954 35.0112444,34.5132978 C35.1511171,34.4478374 35.3172858,34.5110598 35.3821867,34.651492 C35.4465281,34.7919241 35.3849842,34.9575333 35.2439925,35.0224343 C34.4047566,35.4073638 33.5252374,35.7637593 32.6311714,36.082669 C32.5998399,36.0938588 32.5679489,36.0988942 32.5371769,36.0988942 Z M37.6123163,33.7658183 C37.5155245,33.7658183 37.42153,33.7160237 37.3700569,33.6259457 C37.2922877,33.4922274 37.3381659,33.3210233 37.4718842,33.2438136 C38.2803481,32.7760794 39.0608375,32.2691809 39.7915323,31.7371053 C39.9168582,31.6464679 40.0914193,31.6738829 40.1826162,31.7986493 C40.2738132,31.9234157 40.2458387,32.0985363 40.1210723,32.1897333 C39.3747118,32.7329986 38.5779971,33.2505275 37.752189,33.7283325 C37.7079892,33.754069 37.659873,33.7658183 37.6123163,33.7658183 Z M42.1173348,30.4704186 C42.042363,30.4704186 41.9668318,30.4402061 41.9120017,30.3809001 C41.8566122,30.3210346 41.8319946,30.2432654 41.838149,30.1682936 C41.5237152,30.1330457 41.2165549,30.088846 40.9172274,30.0356944 C40.765046,30.0088388 40.6632187,29.8639308 40.6906337,29.7117493 C40.7169298,29.5595679 40.8629568,29.4571811 41.0145788,29.4851556 C41.4224474,29.5567704 41.8454223,29.61216 42.2812655,29.6507648 C42.8368397,29.1130943 43.3538091,28.5541632 43.8243407,27.9840423 C43.922811,27.8654303 44.0984911,27.8480861 44.2182221,27.9465564 C44.3373936,28.0450268 44.3541783,28.2212663 44.2557079,28.3404378 C43.8741353,28.802577 43.4629097,29.2574429 43.0259476,29.7005595 C43.2642906,29.7111898 43.505431,29.7167847 43.7493689,29.7179037 C43.9037883,29.7184632 44.0285547,29.8443486 44.0279953,29.998768 C44.0274358,30.1526279 43.9021099,30.2773943 43.7482499,30.2773943 C43.7476905,30.2773943 43.7476905,30.2773943 43.747131,30.2773943 C43.3185611,30.2757158 42.8972647,30.2589311 42.4865986,30.2287186 C42.4272926,30.2852272 42.3674271,30.3406168 42.3075616,30.3960063 C42.253291,30.445801 42.1850332,30.4704186 42.1173348,30.4704186 Z M46.5384297,30.1056307 C46.398557,30.1056307 46.2782665,30.0015654 46.2609223,29.8594548 C46.2424591,29.7061544 46.3515598,29.5668412 46.5054197,29.5478186 C47.3782251,29.4420748 48.2963492,29.2831795 49.2340555,29.0767275 C49.3856774,29.0425985 49.5345019,29.1382714 49.5675119,29.2893339 C49.6005218,29.4403964 49.5054084,29.5897803 49.3549054,29.6227903 C48.3992955,29.8331588 47.4638271,29.995411 46.5725586,30.1033927 C46.5613688,30.1050712 46.5496195,30.1056307 46.5384297,30.1056307 Z M38.2887405,29.2568834 C38.2518141,29.2568834 38.2137687,29.2496101 38.1779613,29.2339443 C37.2570398,28.836706 36.437386,28.3264505 35.7402607,27.7177247 C35.6238867,27.6158974 35.6121374,27.4390984 35.7139647,27.3227244 C35.8152325,27.2057908 35.992591,27.194601 36.108965,27.2964283 C36.7618906,27.8671087 37.5328687,28.3460327 38.4000791,28.7203319 C38.5416302,28.7813164 38.6070906,28.9463661 38.5461062,29.0879173 C38.4996685,29.193661 38.3967222,29.2568834 38.2887405,29.2568834 Z M51.9996176,28.9217485 C51.8787676,28.9217485 51.767429,28.8428604 51.7316216,28.7214509 C51.6879813,28.5731859 51.7724644,28.4176475 51.9201699,28.3734477 C52.8226283,28.1060112 53.7150158,27.8368962 54.596773,27.5661028 C54.7444786,27.5196651 54.9011359,27.6035887 54.9464547,27.7512942 C54.9917734,27.8989997 54.9089688,28.0556571 54.7612633,28.1009758 C53.8778276,28.3723288 52.9832021,28.6425627 52.0796247,28.9099992 C52.0527692,28.9183916 52.0259136,28.9217485 51.9996176,28.9217485 Z M57.3500264,27.2785246 C57.2314144,27.2785246 57.1211947,27.2024339 57.0831493,27.0832624 C57.0367116,26.9361163 57.1178378,26.7788995 57.2649838,26.7319023 C58.1674422,26.4448836 59.0547943,26.1584244 59.9259212,25.8725247 C60.0736267,25.824968 60.2302841,25.9038562 60.2789598,26.0510022 C60.327076,26.1975887 60.2470688,26.3559246 60.1004823,26.4040408 C59.2276769,26.6905 58.3386463,26.9775186 57.4345095,27.2650968 C57.4065349,27.2746082 57.3780009,27.2785246 57.3500264,27.2785246 Z M45.6466016,26.1556269 C45.5984854,26.1556269 45.5498097,26.1433181 45.50561,26.1170221 C45.3724512,26.0386934 45.327692,25.8674893 45.4060206,25.7343305 C45.8894205,24.9096413 46.2771475,24.0743218 46.5568928,23.2524301 C46.6066875,23.1064031 46.7661423,23.0269554 46.9116099,23.077869 C47.0581964,23.1276637 47.1359656,23.286559 47.086171,23.4325861 C46.7941169,24.2902852 46.3907241,25.1597336 45.8883016,26.0174327 C45.8362689,26.1063918 45.7422745,26.1556269 45.6466016,26.1556269 Z M34.1988641,25.6073261 C34.0975963,25.6073261 34.0008044,25.552496 33.9504502,25.4568231 C33.4995008,24.5929696 33.2259099,23.6608583 33.1352724,22.6867851 C33.1212851,22.5329252 33.2343022,22.396969 33.3881622,22.3824222 C33.5437006,22.3684349 33.6779783,22.481452 33.6925251,22.635312 C33.7758892,23.5360919 34.0298979,24.3988264 34.4467184,25.1983385 C34.5177737,25.3354137 34.4651816,25.5043799 34.3281064,25.5754352 C34.2861446,25.5972553 34.2419448,25.6073261 34.1988641,25.6073261 Z M62.6691037,25.5334734 C62.5527296,25.5334734 62.443629,25.4601801 62.4039051,25.3432466 C62.35467,25.19666 62.4329986,25.0383242 62.5790257,24.9885295 C63.483722,24.6830476 64.3665982,24.3798037 65.2242973,24.0815952 C65.3692054,24.0306816 65.5297792,24.1078913 65.5801334,24.2539183 C65.631047,24.3999454 65.5538373,24.5588407 65.4078103,24.6097544 C64.5489922,24.9085223 63.6644375,25.2123257 62.7580627,25.5183671 C62.7289692,25.5289974 62.6987567,25.5334734 62.6691037,25.5334734 Z M67.95629,23.6955467 C67.841035,23.6955467 67.7336128,23.6244914 67.6927699,23.5097958 C67.6407373,23.3643282 67.7162686,23.2043139 67.8622956,23.1522813 C68.7765033,22.8260983 69.6543441,22.5077481 70.4919015,22.2000283 C70.6379286,22.1463172 70.7973834,22.2212889 70.8510945,22.366197 C70.9042461,22.511105 70.8298338,22.6722383 70.6849258,22.7253899 C69.8456899,23.0331098 68.9661706,23.3520194 68.0508439,23.6793215 C68.0195125,23.6905113 67.9876215,23.6955467 67.95629,23.6955467 Z M73.2115854,21.767542 C73.0985683,21.767542 72.9917056,21.6981652 72.9497438,21.586267 C72.8949137,21.4419185 72.968207,21.2802257 73.1131151,21.2259551 C74.0580947,20.8695596 74.9320191,20.5355437 75.7259363,20.2283833 C75.8702848,20.1724343 76.0319776,20.2440491 76.0879267,20.3883976 C76.1438757,20.5327462 76.0722609,20.694439 75.9279124,20.7503881 C75.1323167,21.0581079 74.2567139,21.3926833 73.3100558,21.7496383 C73.2776053,21.7619471 73.2445954,21.767542 73.2115854,21.767542 Z M47.3653568,20.8891417 C47.3608809,20.8891417 47.3569644,20.8891417 47.3524885,20.8891417 C47.1980691,20.8818684 47.0788976,20.751507 47.0856115,20.5970876 C47.0906469,20.4801541 47.0934444,20.364899 47.0934444,20.2502035 C47.0934444,19.4160029 46.9524527,18.6511793 46.6738264,17.9764336 C46.6150799,17.8337635 46.6827782,17.6698327 46.8254483,17.6110862 C46.967559,17.5528992 47.1320492,17.6200381 47.1907957,17.7627082 C47.4979561,18.5057117 47.6534945,19.3427097 47.6534945,20.2502035 C47.6534945,20.3727319 47.650697,20.4969388 47.6451021,20.6222647 C47.6378287,20.7716487 47.5136218,20.8891417 47.3653568,20.8891417 Z M33.6891681,20.1741127 C33.6628721,20.1741127 33.635457,20.1701963 33.6086015,20.1623634 C33.4608959,20.1181637 33.3764129,19.9620658 33.4211721,19.8138008 C33.7031554,18.8704996 34.1574618,18.0116815 34.770104,17.2602856 C34.8674554,17.1405546 35.0436949,17.1220914 35.1639854,17.2205618 C35.2837164,17.3179131 35.3016201,17.4941527 35.2042687,17.6138837 C34.6380642,18.3082115 34.2184462,19.1021287 33.9571641,19.9743746 C33.9207972,20.095784 33.8100181,20.1741127 33.6891681,20.1741127 Z M78.4338708,19.7455429 C78.3230917,19.7455429 78.2179075,19.6789635 78.1742672,19.5693034 C78.1166397,19.4260738 78.186576,19.263262 78.3303651,19.206194 C79.9931712,18.5426381 80.9196877,18.1515541 80.9213661,18.1509946 C81.0634768,18.0905697 81.2274075,18.157149 81.2878325,18.2998192 C81.347698,18.4419298 81.2811186,18.60642 81.139008,18.6662855 C81.139008,18.6662855 80.2080156,19.0590479 78.5373766,19.7259607 C78.5032477,19.7393885 78.4685593,19.7455429 78.4338708,19.7455429 Z M45.1962117,16.0092646 C45.1425006,16.0092646 45.08823,15.9935988 45.0401138,15.9617079 C44.3547378,15.4995686 43.5171803,15.2030386 42.55094,15.0799506 C42.3976396,15.0603685 42.2896579,14.9199363 42.3086806,14.7666359 C42.3282628,14.613895 42.4703734,14.5103892 42.6219953,14.5243765 C43.6760757,14.6586542 44.5947592,14.9865157 45.352869,15.4973306 C45.4809924,15.5834922 45.5145618,15.7574938 45.4284003,15.8856171 C45.3746892,15.9661838 45.2862897,16.0092646 45.1962117,16.0092646 Z M37.1395468,15.9611484 C37.0388384,15.9611484 36.9414871,15.9068778 36.8916924,15.8112049 C36.8200776,15.6741297 36.8726697,15.5051635 37.0091854,15.4335487 C37.6682654,15.0877835 38.3894488,14.8382507 39.1531535,14.6911047 C39.3584865,14.6519403 39.5604627,14.6172519 39.7579629,14.5881584 C39.9095848,14.5663383 40.0528144,14.670963 40.0757535,14.8237039 C40.0986926,14.9764449 39.9929489,15.1185555 39.840208,15.1414946 C39.6499812,15.1694691 39.4563974,15.2024791 39.2588972,15.2405245 C38.5489036,15.3770402 37.8797528,15.6086693 37.2693486,15.9286979 C37.2279463,15.9510775 37.183187,15.9611484 37.1395468,15.9611484 Z" id="Shape" fill="#DAE7FF"></path>
                    <g id="Group" transform="translate(71.055309, 0.000000)">
                        <polygon id="Path" fill="#FFF68E" points="0.335134881 7.39254954 8.59769234 11.5238283 33.3853647 0.5068985"></polygon>
                        <polygon id="Path" fill="#F7E943" points="9.97459875 18.4089198 8.59769234 11.5238283 33.3853647 0.5068985"></polygon>
                        <polygon id="Path" fill="#EEDD1B" points="9.97459875 18.4089198 12.7289711 12.9007347 19.6146221 11.5238283"></polygon>
                        <polygon id="Path" fill="#FFF68E" points="12.7289711 12.9007347 19.6146221 15.6545475 33.3853647 0.5068985"></polygon>
                    </g>
                </g>
                <g id="woman_on_ladder" transform="translate(163.738085, 26.855550)">
                    <path d="M31.4741448,14.0303462 C31.4741448,14.0303462 30.206339,10.9805629 29.880156,10.3830269 C29.5539729,9.78549092 30.9370338,5.04156996 30.2639665,4.94365911 C29.5908993,4.84574825 29.0140645,7.84517745 29.0140645,7.84517745 C29.0140645,7.84517745 27.4301466,2.89760191 26.7816969,2.69003089 C26.1332473,2.48245987 24.1727922,5.86905659 24.4228845,7.55088539 C24.6729768,9.23271419 26.6960949,11.9870865 27.3272003,12.7709329 C27.9583057,13.5547792 29.0051127,16.4277635 29.0051127,16.4277635 L31.4741448,14.0303462 Z" id="Path" fill="#FECFCE"></path>
                    <path d="M30.5907091,11.5014486 C30.5907091,11.5014486 38.6563258,29.938343 44.8689097,35.3458198 L37.21284,36.7020251 C37.21284,36.7020251 30.2080175,23.587565 27.2690133,13.1888724 L30.5907091,11.5014486 Z" id="Path" fill="#4178F3"></path>
                    <path d="M25.5099748,0.817415794 C16.9341026,-2.64695012 5.40411989,8.95520684 0.254008741,16.7416378 C6.85711702,21.1090216 16.4691659,27.4670729 23.0705957,31.8333377 C31.3476999,19.3192111 33.6628721,4.11113707 25.5099748,0.817415794 Z" id="Path" fill="#4F84FA"></path>
                    <path d="M41.2926456,111.085743 C41.2926456,111.085743 37.9468917,111.646912 36.6248154,112.648401 C35.9864366,113.131801 36.4871807,114.584798 41.1947348,114.364358 C45.9028483,114.143919 46.2586843,113.470852 45.7137405,111.587606 C45.1693561,109.704361 41.953404,111.145609 41.2926456,111.085743 Z" id="Path" fill="#102B5E"></path>
                    <g id="Group" transform="translate(8.951850, 116.374049)" fill="#C3D3F3">
                        <path d="M1.00596413,75.7309717 L1.00596413,75.7309717 C1.73162346,75.9872184 2.52721912,75.6067648 2.78346583,74.8816649 L28.5715074,1.89499473 C28.8277541,1.16933539 28.4473005,0.373739733 27.7222007,0.11749303 L27.7222007,0.11749303 C26.9965413,-0.138753673 26.2009457,0.241699947 25.944699,0.966799789 L0.156657373,73.95347 C-0.0995893301,74.6791293 0.280864291,75.474725 1.00596413,75.7309717 Z" id="Path"></path>
                        <path d="M20.1041764,75.7309717 L20.1041764,75.7309717 C20.8298357,75.9872184 21.6254314,75.6067648 21.8816781,74.8816649 L47.6691602,1.89499473 C47.9254069,1.16933539 47.5449533,0.373739733 46.8198534,0.11749303 L46.8198534,0.11749303 C46.0941941,-0.138753673 45.2985984,0.241699947 45.0423517,0.966799789 L19.2548696,73.95347 C18.9986229,74.6791293 19.3785171,75.474725 20.1041764,75.7309717 Z" id="Path"></path>
                        <polygon id="Rectangle" transform="translate(34.213523, 8.532232) rotate(-180.000000) translate(-34.213523, -8.532232) " points="24.0727553 7.27337803 44.3542902 7.27337803 44.3542902 9.79108582 24.0727553 9.79108582"></polygon>
                        <polygon id="Rectangle" transform="translate(28.898362, 23.778351) rotate(-180.000000) translate(-28.898362, -23.778351) " points="18.7575944 22.5194974 39.0391293 22.5194974 39.0391293 25.0372052 18.7575944 25.0372052"></polygon>
                        <polygon id="Rectangle" transform="translate(23.583201, 39.024471) rotate(-180.000000) translate(-23.583201, -39.024471) " points="13.4424335 37.7656167 33.7239684 37.7656167 33.7239684 40.2833245 13.4424335 40.2833245"></polygon>
                        <polygon id="Rectangle" transform="translate(18.268040, 54.270590) rotate(-180.000000) translate(-18.268040, -54.270590) " points="8.12727263 53.0117361 28.4088076 53.0117361 28.4088076 55.5294439 8.12727263 55.5294439"></polygon>
                        <polygon id="Rectangle" transform="translate(12.952879, 69.516709) rotate(-180.000000) translate(-12.952879, -69.516709) " points="2.81211176 68.2578555 23.0936467 68.2578555 23.0936467 70.7755632 2.81211176 70.7755632"></polygon>
                    </g>
                    <g id="Group" transform="translate(45.878231, 116.374049)" fill="#DAE7FF">
                        <path d="M47.1191809,75.7309717 L47.1191809,75.7309717 C46.3935216,75.9872184 45.5979259,75.6067648 45.3416792,74.8816649 L19.5541971,1.89499473 C19.2979504,1.16933539 19.678404,0.373739733 20.4035039,0.11749303 L20.4035039,0.11749303 C21.1291632,-0.138753673 21.9247589,0.241699947 22.1810056,0.966799789 L47.9690472,73.95347 C48.2247344,74.6791293 47.8448403,75.474725 47.1191809,75.7309717 Z" id="Path"></path>
                        <path d="M28.0209687,75.7309717 L28.0209687,75.7309717 C27.2953093,75.9872184 26.4997137,75.6067648 26.243467,74.8816649 L0.455425364,1.89499473 C0.19917866,1.16933539 0.579632281,0.373739733 1.30473212,0.11749303 L1.30473212,0.11749303 C2.03039146,-0.138753673 2.82598711,0.241699947 3.08223382,0.966799789 L28.8702754,73.95347 C29.1270816,74.6791293 28.746628,75.474725 28.0209687,75.7309717 Z" id="Path"></path>
                        <rect id="Rectangle" x="3.77096677" y="7.27337804" width="20.2815349" height="2.51770778"></rect>
                        <rect id="Rectangle" x="9.08612765" y="22.5194974" width="20.2815349" height="2.51770778"></rect>
                        <rect id="Rectangle" x="14.4012885" y="37.7656168" width="20.2815349" height="2.51770778"></rect>
                        <rect id="Rectangle" x="19.7164494" y="53.0117361" width="20.2815349" height="2.51770778"></rect>
                        <rect id="Rectangle" x="25.0316103" y="68.2578555" width="20.2815349" height="2.51770778"></rect>
                    </g>
                    <path d="M69.6135012,118.510743 L34.2548131,118.510743 C32.9724606,118.510743 31.9323676,117.47121 31.9323676,116.188298 L31.9323676,116.188298 C31.9323676,114.905945 32.9719011,113.865852 34.2548131,113.865852 L69.6135012,113.865852 C70.8958537,113.865852 71.9359468,114.905386 71.9359468,116.188298 L71.9359468,116.188298 C71.9359468,117.47121 70.8964132,118.510743 69.6135012,118.510743 Z" id="Path" fill="#AEC1E8"></path>
                    <g id="Group" transform="translate(39.723834, 12.868284)">
                        <path d="M4.4787224,3.20308379 C2.03095095,3.2562354 2.36608583,6.92817233 1.84799751,7.46416434 C0.923719011,8.42033381 0.320588124,9.46993821 0.23498606,10.1077575 C0.104624746,11.0818307 1.34333698,10.1077575 0.824129681,12.9723495 C0.304922387,15.8369415 4.01882111,15.4139665 4.15589632,16.5855399 C4.29297152,17.7571133 2.74709894,23.2188607 2.74709894,23.2188607 L9.66799789,23.0795475 C9.66799789,23.0795475 9.1487906,18.4212286 9.51693542,13.1194955 C9.88508025,7.81776241 12.9460534,3.01957087 4.4787224,3.20308379 Z" id="Path" fill="#FECFCE"></path>
                        <path d="M17.5137348,0.311636275 C17.5137348,0.311636275 16.0193354,3.87335355 15.9180676,5.3850972 C15.8167998,6.89684086 12.671903,4.9498135 12.671903,4.9498135 C12.671903,4.9498135 13.3516841,0.26184161 17.5137348,0.311636275 Z" id="Path" fill="#301F4F"></path>
                        <path d="M9.57232499,16.6856887 C8.92555384,17.2474173 8.84218974,13.7914437 7.89665059,13.2576897 C6.95111145,12.7239356 5.59322771,12.2366193 5.71687514,11.6944729 C5.84052257,11.1523265 7.1625989,10.7696349 7.35674214,10.0842589 C7.5503259,9.39832341 2.48637631,8.10925703 3.15608658,3.87726999 C3.82579685,-0.354717052 15.0536546,0.0839235928 14.7022945,6.49400761 C14.3503749,12.9035321 11.7017463,14.8360127 9.57232499,16.6856887 Z" id="Path" fill="#423160"></path>
                        <path d="M22.869179,8.14842137 C22.2531799,13.659404 13.5491843,15.3636124 14.0269893,7.49605531 C14.5042348,-0.371501771 23.6300863,1.33550411 22.869179,8.14842137 Z" id="Path" fill="#423160"></path>
                    </g>
                    <path d="M21.8665718,21.6125631 C21.8665718,21.6125631 20.0582982,18.8995931 19.6056703,18.3910161 C19.1530423,17.8824392 18.8710591,13.0786527 18.1929564,13.1351613 C17.5148538,13.1916698 17.6278709,16.2436911 17.6278709,16.2436911 C17.6278709,16.2436911 14.9714095,11.778956 14.2933068,11.7224474 C13.6152042,11.6659389 12.1454223,16.0741655 12.7675759,17.6564049 C13.3897295,19.2386444 16.2201925,20.7593399 17.0113123,21.3814935 C17.802432,22.0030876 19.7807908,24.3770063 19.7807908,24.3770063 L21.8665718,21.6125631 Z" id="Path" fill="#FECFCE"></path>
                    <polygon id="Path" fill="#FECFCE" points="78.2246214 95.868158 80.8184199 98.3550938 78.4394658 101.419424 75.2671539 98.5856039"></polygon>
                    <path d="M78.5843738,95.9873295 C76.8063126,94.2299695 67.5003052,85.10188 61.6519497,80.7322583 C58.6788166,73.1237454 52.3285981,58.4052257 52.3285981,58.4052257 C39.4429696,53.5449307 42.9470594,66.317542 43.5121449,68.0127986 C44.0772304,69.7080552 54.331015,85.5494725 55.5574184,86.775876 C57.6141059,88.8325635 73.2848787,97.9735212 75.8037054,99.4371487 C76.0006461,99.5512848 76.250179,99.5065255 76.3939681,99.330286 L78.6173838,96.6083641 C78.7690057,96.4242917 78.7538995,96.1551767 78.5843738,95.9873295 Z" id="Path" fill="url(#linearGradient-1)"></path>
                    <rect id="Rectangle" fill="#FECFCE" x="44.5388102" y="104.945893" width="4.16372918" height="4.57775224"></rect>
                    <path d="M54.3634655,57.2744951 C50.1812731,53.7704054 43.3991278,56.9354438 41.9299054,60.3880604 C40.4606831,63.840677 41.6115553,79.9937307 41.4985382,82.2971536 C41.3855211,84.600017 44.3245253,107.482064 44.3245253,107.482064 L48.9168243,107.482064 C48.9168243,107.482064 50.3558341,93.9726038 49.8069739,84.4097901 C51.6779105,80.2001827 54.9072903,72.5435536 55.3940472,68.8044778 C56.0855776,63.4909954 54.3634655,57.2744951 54.3634655,57.2744951 Z" id="Path" fill="url(#linearGradient-2)"></path>
                    <path d="M51.9895468,47.8929564 C51.9895468,45.2834922 52.360489,34.4232198 49.7286452,32.0683238 C47.5807607,30.147033 41.0252091,33.5375462 37.2950851,32.6334093 C33.5649612,31.7292725 21.233788,20.1998493 21.233788,20.1998493 L18.1778502,23.020801 C24.0497042,30.7658296 33.0765259,37.0304461 38.1522248,40.1932466 C37.1059773,41.4655282 35.9965074,43.1093117 36.0854664,44.2881584 C36.2516351,46.4808021 40.0684801,47.6182466 40.1496063,50.6232707 C40.2307324,53.6282948 38.077253,60.8496402 40.1205128,62.7261717 C42.1637725,64.6027033 54.3461212,65.1202321 56.833057,63.0853647 C59.3205523,61.0510568 51.9895468,53.6489959 51.9895468,47.8929564 Z" id="Path" fill="url(#linearGradient-3)"></path>
                    <path d="M50.1986173,52.7935348 C51.2415078,55.9512998 54.5894997,58.4024282 56.7675966,59.7183502 C55.3834168,56.4872918 51.9917847,51.8093908 51.9917847,47.891278 C51.9917847,47.0727432 52.0259136,45.4401496 51.9968201,43.5155018 C51.1777259,44.7771532 48.8877308,48.8071641 50.1986173,52.7935348 Z" id="Path" fill="#19BA98"></path>
                    <path d="M48.8026882,109.019544 C49.2200682,108.982618 49.6402456,109.659042 49.5675119,111.295552 C49.4947781,112.932062 49.7627741,113.808225 48.4709103,113.931872 C47.6999322,114.005725 40.3527014,113.86809 37.9692713,113.807106 C37.812614,113.803189 37.6660274,113.720385 37.5681166,113.579953 C37.4702057,113.44008 37.4293629,113.255448 37.4573374,113.075292 C37.5815443,112.279696 38.1432729,111.077351 40.3678076,110.841805 C42.0015202,110.531848 43.5949495,108.897576 44.3172519,108.877993 C45.0395543,108.857852 45.3450362,109.600855 46.5233234,109.524205 C47.7016107,109.446995 48.0809453,109.083326 48.8026882,109.019544 Z" id="Path" fill="#FFFFFF"></path>
                    <path d="M79.6406921,97.4134711 C79.886868,97.0738603 80.6729523,97.2008647 81.8601914,98.3293572 C83.0474305,99.4578498 83.8844285,99.8304706 83.1302351,100.886789 C82.6798452,101.517335 77.7563277,106.971809 76.1461137,108.730847 C76.04037,108.846662 75.8814746,108.902611 75.7113895,108.884707 C75.5413043,108.866804 75.3756951,108.776726 75.2582021,108.637412 C74.7389948,108.021973 74.2002053,106.808997 75.4819983,104.975546 C76.3201153,103.538774 76.1321264,101.264445 76.5909087,100.706633 C77.0496911,100.148261 77.8105983,100.405067 78.5256273,99.4656827 C79.2412158,98.525179 79.2154792,98.0003768 79.6406921,97.4134711 Z" id="Path" fill="#FFFFFF"></path>
                </g>
                <g id="man_10_" transform="translate(59.113339, 90.077990)">
                    <path d="M25.3365327,23.4890946 C26.032539,24.9840536 25.6912497,25.7981124 25.8618944,26.4280989 C26.032539,27.0580853 26.686024,28.330367 26.7139986,28.9334979 C26.7414136,29.5366287 26.1007969,29.6188739 25.9626027,30.4077556 C25.8244085,31.1960779 26.1875179,32.2233027 25.7069155,33.0496703 C25.226313,33.876038 23.3604118,33.6852517 23.470072,34.4825258 C23.5802916,35.2797999 24.7557814,38.2395053 24.7557814,38.2395053 L17.0834865,38.3625932 C17.0834865,38.3625932 17.3895279,34.0545155 16.999563,32.2736568 C16.609598,30.4927982 15.7446255,23.9512339 17.3374953,23.1578762 C18.9303651,22.3645185 24.598005,21.9018198 25.3365327,23.4890946 Z" id="Path" fill="#FECFCE"></path>
                    <path d="M21.1246873,20.096903 C14.7420183,20.2960817 12.5023774,21.9040577 12.5751111,26.8919166 C12.6187514,29.8644902 14.2591779,33.9795437 16.4126573,33.965592 C17.9658033,33.9554856 21.0273359,33.7831625 21.5638874,32.9344153 C22.8372881,30.920249 21.7468409,28.1395807 22.600064,27.1800543 C23.8130397,25.8160161 26.5690905,26.5181769 26.1903153,21.8190151 C25.8109807,17.1198534 23.2490732,20.0308831 21.1246873,20.096903 Z" id="Path" fill="#423160"></path>
                    <polygon id="Path" fill="#FECFCE" points="28.057895 122.784692 28.057895 125.619072 32.3385578 125.619072 32.3396767 121.57843"></polygon>
                    <polygon id="Path" fill="#FECFCE" points="13.2985325 122.903304 13.2985325 126.252975 8.94513601 126.252975 8.94513601 122.141278"></polygon>
                    <path d="M10.7539692,71.2628796 C10.7539692,71.2628796 9.4408447,89.0904887 9.19914475,94.2366834 C8.9580043,99.3828781 8.94457652,122.141278 8.94457652,122.141278 L13.4876403,122.181561 C13.4876403,122.181561 16.727091,107.504444 16.55253,99.0852291 C17.5976584,95.7081437 23.1164739,76.00736 23.1970405,71.9868604 C23.2776072,67.9663609 12.764219,69.2526298 10.7539692,71.2628796 Z" id="Path" fill="url(#linearGradient-4)"></path>
                    <path d="M31.0069701,71.2628796 C31.0069701,71.2628796 32.889656,89.3321886 33.131356,94.4778238 C33.3724964,99.6240185 32.4543723,122.141278 32.4543723,122.141278 L27.7540916,122.460188 C27.7540916,122.460188 25.3919222,110.238115 25.1888271,98.9649386 C24.1436987,95.5878532 17.6927718,75.742721 17.6122052,71.7222214 C17.5316385,67.7022813 28.9967203,69.2526298 31.0069701,71.2628796 Z" id="Path" fill="url(#linearGradient-5)"></path>
                    <path d="M9.57232499,49.6329723 C9.57232499,49.6329723 6.00389383,54.0619 6.72787469,57.5598354 C7.45129606,61.0577707 11.9244236,68.1470763 13.0098354,69.714769 C14.0952472,71.2824618 11.2194654,72.9715639 11.2194654,72.9715639 C11.2194654,72.9715639 2.0578065,61.0711985 0.610404265,57.4529726 C-0.836997965,53.8347468 5.65253372,44.3866287 5.65253372,44.3866287 L9.57232499,49.6329723 Z" id="Path" fill="#FECFCE"></path>
                    <path d="M32.6233385,34.6973702 C32.6233385,34.6973702 36.6399216,34.1983046 38.8359223,27.3719595 C41.031923,20.5456145 41.6708613,11.3794797 40.8713492,9.35636162 C39.6046624,6.15215884 40.9675816,3.00166717 41.3234176,1.68630472 C41.5936516,0.688732952 42.3959611,-0.682578555 42.6197574,0.392202924 C42.7540351,1.03729561 42.6510888,2.71017256 42.3987586,3.94273039 C42.1738433,5.03989149 45.6152701,5.14899216 45.1324297,6.83753485 C44.6501488,8.52607754 44.1673084,8.41753636 44.0873013,9.61708424 C44.0072941,10.8166321 44.6501488,24.4861069 43.7655942,27.702059 C42.8810395,30.9185706 39.5039541,39.2807174 37.0114234,40.8086862 C34.5188927,42.3366551 32.6233385,34.6973702 32.6233385,34.6973702 Z" id="Path" fill="#FECFCE"></path>
                    <path d="M22.2968201,37.2704676 C20.427562,37.2508854 12.526995,36.6673367 8.60720368,40.2855625 C4.6874124,43.9037883 3.30043516,46.6777428 3.0592947,47.4017237 C2.81815425,48.1257045 7.88378231,52.0454958 8.90876912,51.26109 C9.93375593,50.4772436 10.6577368,49.0298414 11.8639986,49.0298414 C13.0702603,49.0298414 12.4671295,55.6032967 11.9848485,58.980382 C11.5025676,62.3574674 8.60776317,71.8861521 10.6582963,72.790289 C12.7088294,73.6944258 18.0155979,72.4887235 21.0911179,73.2725699 C24.1666378,74.0564162 29.2926908,74.6595471 30.9812335,72.729864 C32.6697762,70.8001808 29.7749717,63.5027447 29.7145468,58.7991071 C29.6541218,54.0954694 29.8353967,46.7376083 32.6697762,44.8683502 C35.5041557,42.999092 38.941666,42.3959611 39.0619565,40.6469934 C39.1828065,38.8980258 34.1166189,33.3501168 32.9109167,33.9532477 C31.7046549,34.5563786 29.5159276,37.0891926 27.2427172,37.1496176 C24.9695068,37.2100426 23.6239319,37.2844548 22.2968201,37.2704676 Z" id="Path" fill="url(#linearGradient-6)"></path>
                    <path d="M33.5073337,122.351646 C33.1425458,123.482936 31.7538901,123.306137 30.8738113,123.49021 C29.9937326,123.674282 26.9271645,124.101174 26.8163854,123.264176 C26.7056062,122.427178 27.137533,121.815654 27.0804649,121.175038 C27.0233969,120.534421 26.3195577,119.719243 27.0312297,119.238081 C27.7429018,118.756919 28.926784,119.20675 29.7872805,119.230248 C30.416148,119.247592 32.7369151,118.258973 33.0188983,118.656211 C33.3008816,119.053449 32.9159521,119.814356 33.0133034,120.307268 C33.158771,121.038522 33.7904359,121.473806 33.5073337,122.351646 Z" id="Path" fill="#355AA2"></path>
                    <path d="M8.13723156,122.953658 C8.56076596,124.064247 9.93823186,123.814714 10.826703,123.952909 C11.7151741,124.091103 14.8002053,124.356301 14.8667847,123.514827 C14.9333641,122.673354 14.4706654,122.084769 14.494164,121.441915 C14.5176626,120.79906 15.1778615,119.948075 14.4415718,119.505518 C13.7052822,119.062961 12.5465771,119.573216 11.688878,119.642033 C11.061689,119.692388 8.69224625,118.826296 8.43152362,119.238081 C8.17080099,119.649307 8.59489488,120.389513 8.52328008,120.8869 C8.41697687,121.623749 7.80881056,122.091483 8.13723156,122.953658 Z" id="Path" fill="#355AA2"></path>
                    <path d="M27.4620375,125.073568 C28.057895,124.470437 29.0929527,125.435559 30.147033,125.435559 C31.2011133,125.435559 31.788019,124.712137 32.3385578,124.671854 C32.889656,124.631571 33.1710798,125.91784 34.3370582,126.508102 C35.0291481,126.858343 36.6690151,127.031785 36.6690151,129.039238 C36.6690151,129.536065 27.7535321,129.41018 27.4620375,129.247928 C26.9070228,128.937411 26.86618,125.676699 27.4620375,125.073568 Z" id="Path" fill="#FFFFFF"></path>
                    <path d="M8.40522756,125.073568 C9.00108507,124.470437 10.0361427,125.435559 11.090223,125.435559 C12.1443034,125.435559 12.731209,124.712137 13.2817478,124.671854 C13.8328461,124.631571 14.1142698,125.91784 15.2802483,126.508102 C15.9723382,126.858343 17.6122052,127.031785 17.6122052,129.039238 C17.6122052,129.536065 8.69672218,129.41018 8.40522756,129.247928 C7.84965338,128.937411 7.80937006,125.676699 8.40522756,125.073568 Z" id="Path" fill="#FFFFFF"></path>
                </g>
            </g>
        </g>
    </g>
</svg>