<?xml version="1.0" encoding="UTF-8"?>
<svg width="293px" height="230px" viewBox="0 0 293 230" version="1.1" xmlns="http://www.w3.org/2000/svg" xmlns:xlink="http://www.w3.org/1999/xlink">
    <!-- Generator: Sketch 61 (89581) - https://sketch.com -->
    <title>13-collaboration-develope-website</title>
    <desc>Created with Sketch.</desc>
    <defs>
        <filter x="-28.2%" y="-64.5%" width="156.3%" height="229.0%" filterUnits="objectBoundingBox" id="filter-1">
            <feOffset dx="0" dy="0" in="SourceAlpha" result="shadowOffsetOuter1"></feOffset>
            <feGaussianBlur stdDeviation="5" in="shadowOffsetOuter1" result="shadowBlurOuter1"></feGaussianBlur>
            <feColorMatrix values="0 0 0 0 0   0 0 0 0 0   0 0 0 0 0  0 0 0 0.2 0" type="matrix" in="shadowBlurOuter1" result="shadowMatrixOuter1"></feColorMatrix>
            <feMerge>
                <feMergeNode in="shadowMatrixOuter1"></feMergeNode>
                <feMergeNode in="SourceGraphic"></feMergeNode>
            </feMerge>
        </filter>
        <rect id="path-2" x="1.13686838e-13" y="0" width="41.958042" height="33.5664336" rx="4"></rect>
        <filter x="-35.8%" y="-44.7%" width="171.5%" height="189.4%" filterUnits="objectBoundingBox" id="filter-3">
            <feOffset dx="0" dy="0" in="SourceAlpha" result="shadowOffsetOuter1"></feOffset>
            <feGaussianBlur stdDeviation="5" in="shadowOffsetOuter1" result="shadowBlurOuter1"></feGaussianBlur>
            <feColorMatrix values="0 0 0 0 0   0 0 0 0 0   0 0 0 0 0  0 0 0 0.2 0" type="matrix" in="shadowBlurOuter1"></feColorMatrix>
        </filter>
        <filter x="-0.0%" y="0.0%" width="100.0%" height="100.0%" filterUnits="objectBoundingBox" id="filter-4">
            <feGaussianBlur stdDeviation="0" in="SourceGraphic"></feGaussianBlur>
        </filter>
        <rect id="path-5" x="1.13686838e-13" y="0" width="41.958042" height="33.5664336" rx="4"></rect>
        <filter x="-35.8%" y="-44.7%" width="171.5%" height="189.4%" filterUnits="objectBoundingBox" id="filter-6">
            <feOffset dx="0" dy="0" in="SourceAlpha" result="shadowOffsetOuter1"></feOffset>
            <feGaussianBlur stdDeviation="5" in="shadowOffsetOuter1" result="shadowBlurOuter1"></feGaussianBlur>
            <feColorMatrix values="0 0 0 0 0   0 0 0 0 0   0 0 0 0 0  0 0 0 0.2 0" type="matrix" in="shadowBlurOuter1"></feColorMatrix>
        </filter>
        <filter x="-0.0%" y="0.0%" width="100.0%" height="100.0%" filterUnits="objectBoundingBox" id="filter-7">
            <feGaussianBlur stdDeviation="0" in="SourceGraphic"></feGaussianBlur>
        </filter>
        <rect id="path-8" x="1.13686838e-13" y="0" width="41.958042" height="33.5664336" rx="4"></rect>
        <filter x="-35.8%" y="-44.7%" width="171.5%" height="189.4%" filterUnits="objectBoundingBox" id="filter-9">
            <feOffset dx="0" dy="0" in="SourceAlpha" result="shadowOffsetOuter1"></feOffset>
            <feGaussianBlur stdDeviation="5" in="shadowOffsetOuter1" result="shadowBlurOuter1"></feGaussianBlur>
            <feColorMatrix values="0 0 0 0 0   0 0 0 0 0   0 0 0 0 0  0 0 0 0.2 0" type="matrix" in="shadowBlurOuter1"></feColorMatrix>
        </filter>
        <filter x="-0.0%" y="0.0%" width="100.0%" height="100.0%" filterUnits="objectBoundingBox" id="filter-10">
            <feGaussianBlur stdDeviation="0" in="SourceGraphic"></feGaussianBlur>
        </filter>
        <rect id="path-11" x="1.13686838e-13" y="0" width="41.958042" height="33.5664336" rx="4"></rect>
        <filter x="-35.8%" y="-44.7%" width="171.5%" height="189.4%" filterUnits="objectBoundingBox" id="filter-12">
            <feOffset dx="0" dy="0" in="SourceAlpha" result="shadowOffsetOuter1"></feOffset>
            <feGaussianBlur stdDeviation="5" in="shadowOffsetOuter1" result="shadowBlurOuter1"></feGaussianBlur>
            <feColorMatrix values="0 0 0 0 0   0 0 0 0 0   0 0 0 0 0  0 0 0 0.2 0" type="matrix" in="shadowBlurOuter1"></feColorMatrix>
        </filter>
        <filter x="-0.0%" y="0.0%" width="100.0%" height="100.0%" filterUnits="objectBoundingBox" id="filter-13">
            <feGaussianBlur stdDeviation="0" in="SourceGraphic"></feGaussianBlur>
        </filter>
        <rect id="path-14" x="1.13686838e-13" y="0" width="41.958042" height="33.5664336" rx="4"></rect>
        <filter x="-35.8%" y="-44.7%" width="171.5%" height="189.4%" filterUnits="objectBoundingBox" id="filter-15">
            <feOffset dx="0" dy="0" in="SourceAlpha" result="shadowOffsetOuter1"></feOffset>
            <feGaussianBlur stdDeviation="5" in="shadowOffsetOuter1" result="shadowBlurOuter1"></feGaussianBlur>
            <feColorMatrix values="0 0 0 0 0   0 0 0 0 0   0 0 0 0 0  0 0 0 0.2 0" type="matrix" in="shadowBlurOuter1"></feColorMatrix>
        </filter>
        <filter x="-0.0%" y="0.0%" width="100.0%" height="100.0%" filterUnits="objectBoundingBox" id="filter-16">
            <feGaussianBlur stdDeviation="0" in="SourceGraphic"></feGaussianBlur>
        </filter>
        <rect id="path-17" x="1.13686838e-13" y="0" width="41.958042" height="33.5664336" rx="4"></rect>
        <filter x="-35.8%" y="-44.7%" width="171.5%" height="189.4%" filterUnits="objectBoundingBox" id="filter-18">
            <feOffset dx="0" dy="0" in="SourceAlpha" result="shadowOffsetOuter1"></feOffset>
            <feGaussianBlur stdDeviation="5" in="shadowOffsetOuter1" result="shadowBlurOuter1"></feGaussianBlur>
            <feColorMatrix values="0 0 0 0 0   0 0 0 0 0   0 0 0 0 0  0 0 0 0.2 0" type="matrix" in="shadowBlurOuter1"></feColorMatrix>
        </filter>
        <filter x="-0.0%" y="0.0%" width="100.0%" height="100.0%" filterUnits="objectBoundingBox" id="filter-19">
            <feGaussianBlur stdDeviation="0" in="SourceGraphic"></feGaussianBlur>
        </filter>
        <filter x="-28.2%" y="-64.5%" width="156.3%" height="229.0%" filterUnits="objectBoundingBox" id="filter-20">
            <feOffset dx="0" dy="0" in="SourceAlpha" result="shadowOffsetOuter1"></feOffset>
            <feGaussianBlur stdDeviation="5" in="shadowOffsetOuter1" result="shadowBlurOuter1"></feGaussianBlur>
            <feColorMatrix values="0 0 0 0 0   0 0 0 0 0   0 0 0 0 0  0 0 0 0.2 0" type="matrix" in="shadowBlurOuter1" result="shadowMatrixOuter1"></feColorMatrix>
            <feMerge>
                <feMergeNode in="shadowMatrixOuter1"></feMergeNode>
                <feMergeNode in="SourceGraphic"></feMergeNode>
            </feMerge>
        </filter>
        <linearGradient x1="50.5688536%" y1="0%" x2="48.4214074%" y2="100%" id="linearGradient-21">
            <stop stop-color="#113883" offset="0%"></stop>
            <stop stop-color="#102B5E" offset="100%"></stop>
        </linearGradient>
        <linearGradient x1="53.0903475%" y1="10.1643808%" x2="41.4241567%" y2="89.8356192%" id="linearGradient-22">
            <stop stop-color="#1C489C" offset="0%"></stop>
            <stop stop-color="#102B5E" offset="100%"></stop>
        </linearGradient>
        <linearGradient x1="50%" y1="24.8539492%" x2="32.2953551%" y2="75.1460508%" id="linearGradient-23">
            <stop stop-color="#4E9AFE" offset="0%"></stop>
            <stop stop-color="#447AF3" offset="100%"></stop>
        </linearGradient>
        <linearGradient x1="50.2142464%" y1="0%" x2="49.4054574%" y2="100%" id="linearGradient-24">
            <stop stop-color="#1D499C" offset="0%"></stop>
            <stop stop-color="#102B5E" offset="100%"></stop>
        </linearGradient>
        <linearGradient x1="50.7843956%" y1="0%" x2="47.8232694%" y2="100%" id="linearGradient-25">
            <stop stop-color="#2551A4" offset="0%"></stop>
            <stop stop-color="#102B5E" offset="100%"></stop>
        </linearGradient>
        <linearGradient x1="50%" y1="0%" x2="50%" y2="100%" id="linearGradient-26">
            <stop stop-color="#FFFA80" offset="0%"></stop>
            <stop stop-color="#FFF369" offset="100%"></stop>
        </linearGradient>
        <linearGradient x1="78.0910501%" y1="4.33421562%" x2="50%" y2="100%" id="linearGradient-27">
            <stop stop-color="#FFFFFF" offset="0%"></stop>
            <stop stop-color="#F3F3F3" offset="100%"></stop>
        </linearGradient>
        <linearGradient x1="50.2210224%" y1="0%" x2="49.3866536%" y2="100%" id="linearGradient-28">
            <stop stop-color="#133D8C" offset="0%"></stop>
            <stop stop-color="#102B5E" offset="100%"></stop>
        </linearGradient>
        <linearGradient x1="50.3148795%" y1="0%" x2="49.1261963%" y2="100%" id="linearGradient-29">
            <stop stop-color="#1F4B9E" offset="0%"></stop>
            <stop stop-color="#102B5E" offset="100%"></stop>
        </linearGradient>
        <linearGradient x1="27.8046531%" y1="3.45315072%" x2="23.3298276%" y2="96.5468493%" id="linearGradient-30">
            <stop stop-color="#79EDDC" offset="0%"></stop>
            <stop stop-color="#31CDAA" offset="100%"></stop>
        </linearGradient>
    </defs>
    <g id="界面" stroke="none" stroke-width="1" fill="none" fill-rule="evenodd">
        <g id="搜索/筛选内容空界面（A17）" transform="translate(-421.000000, -191.000000)">
            <g id="13-collaboration-develope-website" transform="translate(421.000000, 191.000000)">
                <g id="window" transform="translate(27.392405, 0.329114)">
                    <g id="Group" fill-rule="nonzero">
                        <path d="M239.992709,0.303797468 L6.69083544,0.303797468 C3.05134177,0.303797468 0.101468354,3.25367089 0.101468354,6.89316456 L0.101468354,145.613165 C0.101468354,149.252658 3.05134177,152.202532 6.69083544,152.202532 L239.993316,152.202532 C243.63281,152.202532 246.582684,149.252658 246.582684,145.613165 L246.582684,6.89316456 C246.582684,3.25367089 243.632203,0.303797468 239.992709,0.303797468 Z" id="Shape" fill="#4F84FA"></path>
                        <polygon id="Path" fill="#326DF0" points="238.987139 144.607595 7.69640506 144.607595 7.69640506 7.89873418 238.987747 7.89873418 238.987747 144.607595"></polygon>
                    </g>
                    <g id="Group" transform="translate(17.012658, 14.797468)">
                        <g id="编组-7" filter="url(#filter-1)" transform="translate(0.476962, 1.000000)" fill-rule="nonzero">
                            <path d="M67.8416203,30.1798481 L3.03797468,30.1798481 C1.36040506,30.1798481 -1.3500312e-13,28.819443 -1.3500312e-13,27.1418734 L-1.3500312e-13,6.07594937 C-1.3500312e-13,4.39837975 1.36040506,3.03797468 3.03797468,3.03797468 L67.8416203,3.03797468 C69.5191899,3.03797468 70.8795949,4.39837975 70.8795949,6.07594937 L70.8795949,27.1418734 C70.8795949,28.8200506 69.5197975,30.1798481 67.8416203,30.1798481 Z" id="Path" fill="#24CBA5"></path>
                            <path d="M67.8416203,27.1418734 L3.03797468,27.1418734 C1.36040506,27.1418734 -1.3500312e-13,25.7814684 -1.3500312e-13,24.1038987 L-1.3500312e-13,3.03797468 C-1.3500312e-13,1.36040506 1.36040506,-3.55271368e-15 3.03797468,-3.55271368e-15 L67.8416203,-3.55271368e-15 C69.5191899,-3.55271368e-15 70.8795949,1.36040506 70.8795949,3.03797468 L70.8795949,24.1038987 C70.8795949,25.7820759 69.5197975,27.1418734 67.8416203,27.1418734 Z" id="Path" fill="#44D7B6"></path>
                        </g>
                        <g id="编组-6" transform="translate(87.594937, 0.873418)">
                            <g id="矩形">
                                <use fill="black" fill-opacity="1" filter="url(#filter-3)" xlink:href="#path-2"></use>
                                <use fill="#13DCFF" fill-rule="evenodd" xlink:href="#path-2"></use>
                            </g>
                            <path d="M14.1857005,9.79763599 C14.1857005,11.2086144 15.2996308,12.3225447 16.7106092,12.3225447 C18.1215876,12.3225447 19.2355179,11.2086144 19.2355179,9.79763599 C19.2355179,8.38665759 18.1215876,7.27272727 16.7106092,7.27272727 C15.2996308,7.34698929 14.1857005,8.46091961 14.1857005,9.79763599 Z M25.4735277,11.7284485 L22.1317368,18.1149824 C21.9832127,18.4120304 21.5376406,18.5605545 21.2405925,18.3377684 L16.116513,14.7731914 C15.819465,14.5504053 15.4481549,14.6246674 15.2996308,14.9217155 L10.1755513,23.0162758 C9.87850326,23.4618479 10.2498134,24.0559441 10.7696475,24.0559441 L32.0828476,24.0559441 C32.6026817,24.0559441 32.9739918,23.4618479 32.6769438,23.0162758 L26.438934,11.7284485 C26.2904099,11.2828764 25.6963138,11.2828764 25.4735277,11.7284485 L25.4735277,11.7284485 Z" id="形状" fill="#EAFCFF" fill-rule="nonzero" filter="url(#filter-4)"></path>
                        </g>
                        <g id="编组-6备份-2" transform="translate(87.594937, 42.873418)">
                            <g id="矩形">
                                <use fill="black" fill-opacity="1" filter="url(#filter-6)" xlink:href="#path-5"></use>
                                <use fill="#FF8FF5" fill-rule="evenodd" xlink:href="#path-5"></use>
                            </g>
                            <path d="M14.1857005,9.79763599 C14.1857005,11.2086144 15.2996308,12.3225447 16.7106092,12.3225447 C18.1215876,12.3225447 19.2355179,11.2086144 19.2355179,9.79763599 C19.2355179,8.38665759 18.1215876,7.27272727 16.7106092,7.27272727 C15.2996308,7.34698929 14.1857005,8.46091961 14.1857005,9.79763599 Z M25.4735277,11.7284485 L22.1317368,18.1149824 C21.9832127,18.4120304 21.5376406,18.5605545 21.2405925,18.3377684 L16.116513,14.7731914 C15.819465,14.5504053 15.4481549,14.6246674 15.2996308,14.9217155 L10.1755513,23.0162758 C9.87850326,23.4618479 10.2498134,24.0559441 10.7696475,24.0559441 L32.0828476,24.0559441 C32.6026817,24.0559441 32.9739918,23.4618479 32.6769438,23.0162758 L26.438934,11.7284485 C26.2904099,11.2828764 25.6963138,11.2828764 25.4735277,11.7284485 L25.4735277,11.7284485 Z" id="形状" fill="#FFF2FE" fill-rule="nonzero" filter="url(#filter-7)"></path>
                        </g>
                        <g id="编组-6备份-4" transform="translate(87.594937, 84.873418)">
                            <g id="矩形">
                                <use fill="black" fill-opacity="1" filter="url(#filter-9)" xlink:href="#path-8"></use>
                                <use fill="#13DCFF" fill-rule="evenodd" xlink:href="#path-8"></use>
                            </g>
                            <path d="M14.1857005,9.79763599 C14.1857005,11.2086144 15.2996308,12.3225447 16.7106092,12.3225447 C18.1215876,12.3225447 19.2355179,11.2086144 19.2355179,9.79763599 C19.2355179,8.38665759 18.1215876,7.27272727 16.7106092,7.27272727 C15.2996308,7.34698929 14.1857005,8.46091961 14.1857005,9.79763599 Z M25.4735277,11.7284485 L22.1317368,18.1149824 C21.9832127,18.4120304 21.5376406,18.5605545 21.2405925,18.3377684 L16.116513,14.7731914 C15.819465,14.5504053 15.4481549,14.6246674 15.2996308,14.9217155 L10.1755513,23.0162758 C9.87850326,23.4618479 10.2498134,24.0559441 10.7696475,24.0559441 L32.0828476,24.0559441 C32.6026817,24.0559441 32.9739918,23.4618479 32.6769438,23.0162758 L26.438934,11.7284485 C26.2904099,11.2828764 25.6963138,11.2828764 25.4735277,11.7284485 L25.4735277,11.7284485 Z" id="形状" fill="#EAFCFF" fill-rule="nonzero" filter="url(#filter-10)"></path>
                        </g>
                        <g id="编组-6备份-5" transform="translate(145.594937, 84.873418)">
                            <g id="矩形">
                                <use fill="black" fill-opacity="1" filter="url(#filter-12)" xlink:href="#path-11"></use>
                                <use fill="#FCBA41" fill-rule="evenodd" xlink:href="#path-11"></use>
                            </g>
                            <path d="M14.1857005,9.79763599 C14.1857005,11.2086144 15.2996308,12.3225447 16.7106092,12.3225447 C18.1215876,12.3225447 19.2355179,11.2086144 19.2355179,9.79763599 C19.2355179,8.38665759 18.1215876,7.27272727 16.7106092,7.27272727 C15.2996308,7.34698929 14.1857005,8.46091961 14.1857005,9.79763599 Z M25.4735277,11.7284485 L22.1317368,18.1149824 C21.9832127,18.4120304 21.5376406,18.5605545 21.2405925,18.3377684 L16.116513,14.7731914 C15.819465,14.5504053 15.4481549,14.6246674 15.2996308,14.9217155 L10.1755513,23.0162758 C9.87850326,23.4618479 10.2498134,24.0559441 10.7696475,24.0559441 L32.0828476,24.0559441 C32.6026817,24.0559441 32.9739918,23.4618479 32.6769438,23.0162758 L26.438934,11.7284485 C26.2904099,11.2828764 25.6963138,11.2828764 25.4735277,11.7284485 L25.4735277,11.7284485 Z" id="形状" fill="#FEF8EC" fill-rule="nonzero" filter="url(#filter-13)"></path>
                        </g>
                        <g id="编组-6备份-3" transform="translate(145.594937, 42.873418)">
                            <g id="矩形">
                                <use fill="black" fill-opacity="1" filter="url(#filter-15)" xlink:href="#path-14"></use>
                                <use fill="#4F84FA" fill-rule="evenodd" xlink:href="#path-14"></use>
                            </g>
                            <path d="M14.1857005,9.79763599 C14.1857005,11.2086144 15.2996308,12.3225447 16.7106092,12.3225447 C18.1215876,12.3225447 19.2355179,11.2086144 19.2355179,9.79763599 C19.2355179,8.38665759 18.1215876,7.27272727 16.7106092,7.27272727 C15.2996308,7.34698929 14.1857005,8.46091961 14.1857005,9.79763599 Z M25.4735277,11.7284485 L22.1317368,18.1149824 C21.9832127,18.4120304 21.5376406,18.5605545 21.2405925,18.3377684 L16.116513,14.7731914 C15.819465,14.5504053 15.4481549,14.6246674 15.2996308,14.9217155 L10.1755513,23.0162758 C9.87850326,23.4618479 10.2498134,24.0559441 10.7696475,24.0559441 L32.0828476,24.0559441 C32.6026817,24.0559441 32.9739918,23.4618479 32.6769438,23.0162758 L26.438934,11.7284485 C26.2904099,11.2828764 25.6963138,11.2828764 25.4735277,11.7284485 L25.4735277,11.7284485 Z" id="形状" fill="#EAF0FF" fill-rule="nonzero" filter="url(#filter-16)"></path>
                        </g>
                        <g id="编组-6备份" transform="translate(145.594937, 0.873418)">
                            <g id="矩形">
                                <use fill="black" fill-opacity="1" filter="url(#filter-18)" xlink:href="#path-17"></use>
                                <use fill="#FCBA41" fill-rule="evenodd" xlink:href="#path-17"></use>
                            </g>
                            <path d="M14.1857005,9.79763599 C14.1857005,11.2086144 15.2996308,12.3225447 16.7106092,12.3225447 C18.1215876,12.3225447 19.2355179,11.2086144 19.2355179,9.79763599 C19.2355179,8.38665759 18.1215876,7.27272727 16.7106092,7.27272727 C15.2996308,7.34698929 14.1857005,8.46091961 14.1857005,9.79763599 Z M25.4735277,11.7284485 L22.1317368,18.1149824 C21.9832127,18.4120304 21.5376406,18.5605545 21.2405925,18.3377684 L16.116513,14.7731914 C15.819465,14.5504053 15.4481549,14.6246674 15.2996308,14.9217155 L10.1755513,23.0162758 C9.87850326,23.4618479 10.2498134,24.0559441 10.7696475,24.0559441 L32.0828476,24.0559441 C32.6026817,24.0559441 32.9739918,23.4618479 32.6769438,23.0162758 L26.438934,11.7284485 C26.2904099,11.2828764 25.6963138,11.2828764 25.4735277,11.7284485 L25.4735277,11.7284485 Z" id="形状" fill="#FEF8EC" fill-rule="nonzero" filter="url(#filter-19)"></path>
                        </g>
                        <g id="编组-8" filter="url(#filter-20)" transform="translate(0.476962, 42.468962)" fill-rule="nonzero">
                            <path d="M67.8416203,30.1798481 L3.03797468,30.1798481 C1.36040506,30.1798481 -1.3500312e-13,28.819443 -1.3500312e-13,27.1418734 L-1.3500312e-13,6.07594937 C-1.3500312e-13,4.39837975 1.36040506,3.03797468 3.03797468,3.03797468 L67.8416203,3.03797468 C69.5191899,3.03797468 70.8795949,4.39837975 70.8795949,6.07594937 L70.8795949,27.1418734 C70.8795949,28.819443 69.5197975,30.1798481 67.8416203,30.1798481 Z" id="Path" fill="#52ECF9"></path>
                            <path d="M67.8416203,27.1418734 L3.03797468,27.1418734 C1.36040506,27.1418734 -1.3500312e-13,25.7814684 -1.3500312e-13,24.1038987 L-1.3500312e-13,3.03797468 C-1.3500312e-13,1.36040506 1.36040506,-3.55271368e-15 3.03797468,-3.55271368e-15 L67.8416203,-3.55271368e-15 C69.5191899,-3.55271368e-15 70.8795949,1.36040506 70.8795949,3.03797468 L70.8795949,24.1038987 C70.8795949,25.7814684 69.5197975,27.1418734 67.8416203,27.1418734 Z" id="Path" fill="#75F4FF"></path>
                        </g>
                    </g>
                </g>
                <g id="woman_7_" transform="translate(42.582278, 0.329114)">
                    <path d="M7.24131646,0.303797468 L7.24056962,105.153797 L44.0455696,105.153797 L44.0457722,0.303797468 L45.7792405,0.303797468 L45.7785696,105.153797 L47.5193924,105.154633 C48.668962,105.154633 49.6100657,106.045755 49.6897277,107.175024 L49.6951899,107.33043 L49.6951899,107.535797 C49.6951899,108.73762 48.7212152,109.711595 47.5193924,109.711595 L47.5193924,109.711595 L2.74936709,109.711595 C1.5475443,109.711595 0.57356962,108.73762 0.57356962,107.535797 L0.57356962,107.535797 L0.57356962,107.33043 C0.57356962,106.128608 1.5475443,105.154633 2.74936709,105.154633 L2.74936709,105.154633 L5.50756962,105.153797 L5.5078481,0.303797468 L7.24131646,0.303797468 Z" id="形状结合" fill="#4F84FA" fill-rule="nonzero"></path>
                    <g id="Group" transform="translate(6.075949, 48.607595)">
                        <polygon id="Path" fill="#FECFCE" fill-rule="nonzero" points="16.1152405 75.3083544 16.5636456 77.5278987 13.6556962 77.9374177 12.7752911 75.8436456"></polygon>
                        <g id="编组" transform="translate(41.000000, 7.000000)">
                            <path d="M7.5,4 C9.43299662,4 11,5.56700338 11,7.5 C11,9.43299662 9.43299662,11 7.5,11 C5.73709322,11 4.27860392,9.69663386 4.03558044,8.00094991 L-0.5,8 C-0.776142375,8 -1,7.77614237 -1,7.5 C-1,7.22385763 -0.776142375,7 -0.5,7 L4.03543731,7.00004975 C4.27803074,5.30387842 5.73674681,4 7.5,4 Z M7.5,5 C6.11928813,5 5,6.11928813 5,7.5 C5,8.88071187 6.11928813,10 7.5,10 C8.88071187,10 10,8.88071187 10,7.5 C10,6.11928813 8.88071187,5 7.5,5 Z" id="形状结合" fill="#2E6CF6" transform="translate(5.000000, 7.500000) rotate(-105.000000) translate(-5.000000, -7.500000) "></path>
                            <circle id="椭圆形备份-3" fill="#DAE7FF" opacity="0.200000003" cx="4.34177215" cy="5.06329114" r="2.5"></circle>
                        </g>
                        <path d="M16.6268354,77.2617722 C16.6268354,77.2617722 13.868962,77.9835949 12.9636456,78.0716962 C12.0583291,78.1597975 10.5223291,80.1016709 9.59392405,80.396962 C8.46744304,80.7548354 8.59989873,82.0508354 9.45296203,82.2805063 C10.6578228,82.6043544 17.6658228,82.4907342 17.6840506,80.1162532 C17.7028861,77.6014177 16.6268354,77.2617722 16.6268354,77.2617722 Z" id="Path" fill="#FFFFFF" fill-rule="nonzero"></path>
                        <polygon id="Path" fill="#FECFCE" fill-rule="nonzero" points="20.9523038 74.5798481 19.7213165 76.5065316 22.3971646 77.8979241 24.003038 76.2385823"></polygon>
                        <path d="M8.64607595,55.4211646 C7.74379747,56.5239494 10.1784304,75.9937215 11.6463797,76.9427848 C13.1143291,77.8918481 16.8170127,75.8491139 16.8170127,75.8491139 C16.8170127,75.8491139 19.1787342,57.8466835 18.0935696,55.420557 C17.0090127,52.9956456 9.54835443,54.3183797 8.64607595,55.4211646 Z" id="Path" fill="url(#linearGradient-21)" fill-rule="nonzero"></path>
                        <path d="M39.9268861,56.5063291 C38.8417215,50.4419241 25.9977722,45.4620759 22.3971646,45.2706835 C18.796557,45.0792911 5.84688608,49.4041519 4.95189873,50.2341266 C4.05691139,51.0641013 3.66683544,57.4001013 11.5831899,57.2087089 C19.4995443,57.0173165 23.2016203,55.8683544 23.2016203,55.8683544 C23.2016203,55.8683544 27.9080506,57.7762025 30.8372658,58.9841013 C28.0824304,62.0427342 20.4680506,70.8650127 20.5203038,74.8921519 C20.7754937,76.0411139 23.7757975,77.254481 24.6057722,76.8710886 C25.4357468,76.4876962 41.0126582,62.5713418 39.9268861,56.5063291 Z" id="Path" fill="url(#linearGradient-22)" fill-rule="nonzero"></path>
                        <path d="M19.6903291,16.1924051 C19.6903291,16.1924051 18.4775696,20.6612658 17.7113924,21.6826329 C16.9452152,22.704 22.9464304,24.2363544 23.5844051,23.5977722 C24.2223797,22.9591899 24.3505823,18.6185316 24.3505823,18.6185316 C24.3505823,18.6185316 27.5422785,19.3798481 28.3722532,18.6963038 C29.2022278,18.0127595 29.4574177,16.7671899 29.5212152,16.3844051 C29.5850127,16.0016203 30.7339747,15.5866329 30.7339747,15.0118481 C30.7339747,14.4370633 30.1591899,10.4737215 29.0424304,9.55382278 C28.4214684,9.04283544 21.2220759,6.80870886 20.5203038,10.8941772 C19.8179241,14.9796456 19.6903291,16.1924051 19.6903291,16.1924051 Z" id="Path" fill="#FECFCE" fill-rule="nonzero"></path>
                        <path d="M20.3927089,17.3419747 C22.3716456,17.3419747 25.6277468,16.7671899 25.6277468,14.7882532 C25.6277468,12.8093165 23.0740253,9.93660759 25.6277468,10.2555949 C28.1814684,10.5745823 30.1591899,10.5776203 30.1604051,7.89387342 C30.1616203,4.19118987 20.4486076,0.14764557 16.9458228,8.59017722 C14.5196962,14.4370633 17.8541772,17.3419747 20.3927089,17.3419747 Z" id="Path" fill="#423160" fill-rule="nonzero"></path>
                        <path d="M41.923443,22.6389873 C41.923443,22.6389873 44.4516456,20.1545316 44.7481519,19.7966582 C46.0860759,18.1810633 45.526481,16.2039494 47.3930127,16.2039494 C48.4186329,16.2039494 50.2511392,16.9737722 50.304,18.2667342 C50.3270886,18.8238987 50.5124051,20.8690633 48.8488101,21.1309367 C47.4568101,21.3496709 43.7261772,25.2085063 43.7261772,25.2085063 L41.923443,22.6389873 Z" id="Path" fill="#FECFCE" fill-rule="nonzero"></path>
                        <path d="M45.5422785,23.1007595 C45.2232911,21.0580253 42.8524557,20.7287089 41.4568101,22.0155949 C41.0102278,22.4275443 35.6785823,25.1410633 33.3521013,26.8326076 C31.3239494,24.2515443 26.1521013,20.0548861 19.6046582,20.0548861 C10.3060253,20.0548861 0.0917468354,29.184 0.0917468354,35.5035949 C0.0917468354,39.907443 2.58896203,40.2027342 4.88506329,39.5453165 C4.12860759,42.5304304 3.13032911,47.6238987 3.98460759,51.2081013 C4.64020253,53.9592911 12.284962,50.6971139 15.3490633,50.2505316 C18.4131646,49.8039494 24.7333671,49.9953418 24.4781772,46.867443 C24.2229873,43.7395443 23.6014177,33.8485063 28.940962,34.0891139 C31.3670886,34.0891139 31.8154937,35.7593924 33.9262785,35.7593924 C37.9479494,35.7587848 45.9912911,25.9734684 45.5422785,23.1007595 Z" id="Path" fill="url(#linearGradient-23)" fill-rule="nonzero"></path>
                        <path d="M17.9349873,4.57397468 C17.9349873,4.57397468 18.0565063,0.0413164557 11.5831899,0.0413164557 C-1.56759494,0.0413164557 3.66744304,12.2983291 3.47544304,18.6823291 C3.28344304,25.0663291 0.219949367,24.6191392 0.0917468354,26.8538734 C-0.0358481013,29.088 12.5401519,27.3004557 13.4339241,18.6185316 C14.3276962,9.93660759 14.9656709,5.93741772 16.8176203,6.68050633 C18.6695696,7.42420253 17.9349873,4.57397468 17.9349873,4.57397468 Z" id="Path" fill="#423160" fill-rule="nonzero"></path>
                        <path d="M19.6617722,3.43473418 C20.9286076,4.03746835 17.9981772,9.30774684 16.2215696,8.61934177 C14.444962,7.93093671 18.0103291,2.64911392 19.6617722,3.43473418 Z" id="Path" fill="#4F84FA" fill-rule="nonzero"></path>
                        <path d="M4.86987342,39.6048608 C4.86987342,39.6048608 7.05053165,31.3543291 10.2106329,29.2477975 C10.2106329,29.2477975 6.28435443,39.6048608 3.71726582,49.4843544 C3.71726582,49.4843544 3.55139241,43.5736709 4.86987342,39.6048608 Z" id="Path" fill="#3772F6" fill-rule="nonzero"></path>
                        <path d="M30.7345823,59.0983291 L32.5537215,59.6986329 C32.5537215,59.6986329 28.0939747,63.9858228 25.3288101,65.6245063 C25.3288101,65.6245063 29.3924051,59.6603544 30.7345823,59.0983291 Z" id="Path" fill="#0B224E" fill-rule="nonzero"></path>
                        <path d="M19.7115949,75.9797468 C19.7115949,75.9797468 22.7088608,77.8626835 23.76,78.3195949 C24.8105316,78.7771139 25.7936203,81.4912405 26.7797468,82.1820759 C27.9761013,83.0199494 27.2390886,84.3688101 26.1101772,84.2764557 C24.5152405,84.1458228 16.1316456,81.2214684 17.1682025,78.6452658 C18.2649114,75.9171646 19.7115949,75.9797468 19.7115949,75.9797468 Z" id="Path" fill="#FFFFFF" fill-rule="nonzero"></path>
                    </g>
                </g>
                <g id="man_on_ladder_1_" transform="translate(229.594937, 56.227848)">
                    <path d="M35.1078481,0.602126582 L35.1074684,9.86612658 L60.1554684,9.86612658 L60.1559494,0.602126582 L62.5863291,0.602126582 L62.5863291,173.772152 L60.1559494,173.772152 L60.1554684,163.716127 L35.1074684,163.716127 L35.1078481,173.772152 L32.6774684,173.772152 L32.6774684,0.602126582 L35.1078481,0.602126582 Z M60.1554684,141.905127 L35.1074684,141.905127 L35.1074684,161.285127 L60.1554684,161.285127 L60.1554684,141.905127 Z M60.1554684,120.094127 L35.1074684,120.094127 L35.1074684,139.475127 L60.1554684,139.475127 L60.1554684,120.094127 Z M60.1554684,96.0891266 L35.1074684,96.0891266 L35.1074684,117.663127 L60.1554684,117.663127 L60.1554684,96.0891266 Z M60.1554684,53.8221266 L35.1074684,53.8221266 L35.1074684,93.6591266 L60.1554684,93.6591266 L60.1554684,75.1181266 L37.0776709,75.1181772 L37.0776709,72.6877975 L60.1554684,72.6871266 L60.1554684,53.8221266 Z M60.1554684,30.4231266 L35.1074684,30.4231266 L35.1074684,51.3921266 L60.1554684,51.3921266 L60.1554684,30.4231266 Z M60.1554684,12.2961266 L35.1074684,12.2961266 L35.1074684,27.9921266 L60.1554684,27.9921266 L60.1554684,12.2961266 Z" id="形状结合" fill="#4F84FA" fill-rule="nonzero"></path>
                    <g id="编组-3" transform="translate(0.063291, 9.708861)">
                        <path d="M14.3571429,6 C17.394709,6 19.8571429,8.46243388 19.8571429,11.5 C19.8571429,14.5375661 17.394709,17 14.3571429,17 C11.5864976,17 9.29434806,14.9513161 8.91290486,12.2861589 L1.5,12.2857143 C1.22385763,12.2857143 1,12.0618567 1,11.7857143 L1,11.2142857 C1,10.9381433 1.22385763,10.7142857 1.5,10.7142857 L8.91290486,10.7138411 C9.29434806,8.04868388 11.5864976,6 14.3571429,6 Z M14.3571429,7.57142857 C12.1874528,7.57142857 10.4285714,9.33030991 10.4285714,11.5 C10.4285714,13.6696901 12.1874528,15.4285714 14.3571429,15.4285714 C16.5268329,15.4285714 18.2857143,13.6696901 18.2857143,11.5 C18.2857143,9.33030991 16.5268329,7.57142857 14.3571429,7.57142857 Z" id="形状结合" fill="#E5DB4E" transform="translate(10.428571, 11.500000) rotate(-60.000000) translate(-10.428571, -11.500000) "></path>
                        <circle id="椭圆形备份-4" fill="#DAE7FF" opacity="0.200000003" cx="12.3503436" cy="8.06428557" r="3.92857143"></circle>
                    </g>
                    <path d="M44.1780253,111.862481 L45.2972152,115.118582 C45.2972152,115.118582 47.5720506,117.176506 48.7507848,114.243038 C48.7507848,114.243038 48.3844051,112.264101 48.2507342,111.541671 C48.1170633,110.818633 44.1780253,111.862481 44.1780253,111.862481 Z" id="Path" fill="#FECFCE" fill-rule="nonzero"></path>
                    <path d="M49.107443,112.066633 L43.3990886,112.066633 C43.3990886,112.066633 38.0558987,91.0869873 36.5697215,85.5293165 C35.3988861,81.1522025 34.0378734,66.6847595 34.5780253,59.9459241 C35.0932658,53.5212152 46.0226835,57.0009114 46.5926076,61.5129114 C48.2641013,74.7396456 45.1532152,84.5498734 45.3130127,86.8629873 C48.0247089,93.7227342 49.107443,112.066633 49.107443,112.066633 Z" id="Path" fill="url(#linearGradient-24)" fill-rule="nonzero"></path>
                    <path d="M33.4478987,18.6470886 C32.7576709,20.1302278 33.0961013,20.9377215 32.9265823,21.5623291 C32.7570633,22.1875443 32.1087595,23.4489114 32.0814177,24.0473924 C32.0540759,24.6458734 32.6896203,24.7272911 32.8269367,25.5092658 C32.9642532,26.2912405 32.6039494,27.3101772 33.0809114,28.1298228 C33.5578734,28.9494684 35.4086076,28.7598987 35.2992405,29.5509873 C35.190481,30.3420759 34.0238987,33.2779747 34.0238987,33.2779747 L41.6340253,33.4001013 C41.6340253,33.4001013 41.3302278,29.1268861 41.7172658,27.3606076 C42.1043038,25.5943291 42.9622278,19.1052152 41.3818734,18.3183797 C39.801519,17.5315443 34.1806582,17.0728101 33.4478987,18.6470886 Z" id="Path" fill="#FECFCE" fill-rule="nonzero"></path>
                    <path d="M37.6257215,15.2828354 C43.9568608,15.4803038 46.1782278,17.0758481 46.1059241,22.0228861 C46.0627848,24.9715443 44.4356456,29.0527595 42.2993418,29.0394252 C40.7590886,29.0296709 37.7223291,28.8583291 37.1900759,28.0168101 C35.9268861,26.019038 37.0084051,23.2611646 36.1620253,22.3090633 C34.9589873,20.9559494 32.2254177,21.6528608 32.6009114,16.9913924 C32.9764051,12.3299241 35.5185823,15.2166076 37.6257215,15.2828354 Z" id="Path" fill="#423160" fill-rule="nonzero"></path>
                    <path d="M52.0032405,13.872 C52.0032405,13.872 53.0823291,10.8662278 52.8897215,9.25913924 C52.5792405,6.66956962 46.4164051,6.65802532 46.1508861,8.90065823 C45.8695696,11.2818228 46.9796456,11.9046076 47.7045063,12.5261772 C48.4293671,13.1477468 49.2581266,14.2353418 49.4653165,14.6497215 C49.6725063,15.0641013 51.6921519,15.0634937 52.0032405,13.872 Z" id="Path" fill="#FECFCE" fill-rule="nonzero"></path>
                    <path d="M8.72060759,31.1939241 C8.72060759,31.1939241 5.68688608,30.1956456 4.53853165,29.0551899 C2.68840506,27.2172152 6.47007595,22.3515949 8.40101266,23.5218228 C10.4516456,24.7643544 10.2596456,26.0226835 10.3033924,26.9766076 C10.3471392,27.9305316 10.6952911,29.2526582 10.8945823,29.6712911 C11.0938734,30.0893165 9.85134177,31.6812152 8.72060759,31.1939241 Z" id="Path" fill="#FECFCE" fill-rule="nonzero"></path>
                    <path d="M29.1357975,106.89843 L30.7750886,109.926076 C30.7750886,109.926076 33.3573671,111.58238 34.0378734,108.49519 C34.0378734,108.49519 33.3512911,106.603747 33.1003544,105.912304 C32.8494177,105.221468 29.1357975,106.89843 29.1357975,106.89843 Z" id="Path" fill="#FECFCE" fill-rule="nonzero"></path>
                    <path d="M29.3010633,60.2248101 C29.3010633,60.2248101 18.3078481,75.7883544 18.0405063,78.9126076 C17.5574684,84.550481 28.3149367,106.939139 28.3149367,106.939139 L33.8786835,105.745215 C33.8786835,105.745215 30.1523038,88.8686582 27.2078987,83.1147342 C32.8706835,75.4578228 41.8412152,71.1821772 41.8412152,61.1811646 C41.8418228,58.4694684 29.3010633,60.2248101 29.3010633,60.2248101 Z" id="Path" fill="url(#linearGradient-25)" fill-rule="nonzero"></path>
                    <path d="M40.8848608,32.131443 C39.2552911,32.0214684 36.2221772,32.1879494 34.4558987,32.1545316 C29.932962,32.0694684 23.8217722,36.0905316 18.9233418,37.5274937 C15.7225316,34.0629873 11.0294684,28.5660759 11.0294684,28.5660759 L7.08253165,31.0037468 C7.08253165,31.0037468 14.1282025,43.1556456 18.4591392,43.852557 C21.0803038,44.2742278 25.2939747,44.1126076 28.5640506,42.7570633 C28.5640506,46.8267342 23.3502785,62.7754937 27.1811646,63.5878481 C31.0120506,64.4002025 37.0491139,63.0075949 40.7639494,63.5878481 C44.4787848,64.1681013 48.5417722,66.9545316 47.6133671,59.9890633 C46.6843544,53.0235949 42.6207595,53.7727595 51.3275949,40.4840506 C53.6078987,37.0037468 56.262481,31.9339747 55.8602532,27.6826329 C55.0734177,19.3731646 53.0543797,13.1270886 53.0543797,13.1270886 L48.7343797,13.8233924 C48.7343797,13.8233924 49.107443,22.5715443 50.0358481,27.6795949 C49.1068354,30.1379241 47.7057215,31.8294684 46.1059241,33.5781266 C45.2297722,34.5363038 43.4361519,32.0396962 40.8848608,32.131443 Z" id="Path" fill="url(#linearGradient-26)" fill-rule="nonzero"></path>
                    <path d="M48.848,113.467139 C49.2982278,113.408203 49.7739747,113.891848 49.7551392,115.687291 C49.7363038,117.482734 49.8189367,118.43362 48.4263291,118.626228 C47.5513924,118.747139 44.2539747,117.874633 41.0416203,117.932354 C39.8811139,117.953013 37.7484557,117.408608 37.0005063,116.411544 C36.848,116.208 36.8139747,115.914532 36.9142278,115.666025 C37.014481,115.417519 37.2301772,115.260152 37.4622785,115.266835 C40.0500253,115.339139 40.0949873,115.590684 42.1893671,114.103291 C42.9494684,113.563139 43.5844051,113.058228 43.9854177,113.030886 C44.7655696,112.977418 45.126481,114.016405 46.3975696,113.880911 C47.6698734,113.74481 48.0696709,113.569215 48.848,113.467139 Z" id="Path" fill="#FFFFFF" fill-rule="nonzero"></path>
                    <path d="M34.0779747,107.622076 C34.5488608,107.529722 35.1625316,108.156152 35.3988861,109.814886 C35.6352405,111.474228 36.1134177,112.8 34.6570127,113.095899 C33.7425823,113.281823 28.9826835,112.79757 25.5698228,113.123848 C24.3370127,113.241722 22.8921519,112.643848 21.9534177,111.787139 C21.7614177,111.612152 21.6836456,111.344203 21.7553418,111.106025 C21.827038,110.867848 22.0342278,110.704405 22.2821266,110.69043 C25.0485063,110.537316 25.132962,110.765772 27.1513924,109.21519 C27.8841519,108.651949 28.4881013,108.131848 28.9115949,108.072911 C29.7348861,107.957468 30.2300759,108.665316 31.564962,108.432 C32.8998481,108.198684 33.2631899,107.782481 34.0779747,107.622076 Z" id="Path" fill="#FFFFFF" fill-rule="nonzero"></path>
                </g>
                <g id="man_with_paper" transform="translate(106.936709, 118.202532)">
                    <path d="M16.5290127,3.03129114 C18.6003038,2.75848101 20.4455696,4.07574684 20.4455696,5.68587342 C20.4455696,6.0364557 20.3082532,6.66896203 20.5762025,7.47037975 C20.755443,8.00627848 21.507038,8.69832911 21.5003987,9.42865823 C21.4936709,10.1589873 20.4018228,9.99432911 20.4887089,10.6474937 C20.5755949,11.3000506 21.0112405,12.649519 20.7062278,13.171443 C20.4018228,13.6939747 17.0071899,13.084557 16.9203038,14.3027848 C16.8334177,15.5210127 17.7034937,17.8645063 17.7034937,17.8645063 L10.3923038,17.305519 C10.3923038,17.305519 9.78167089,6.02065823 10.3923038,5.16334177 C11.4154937,3.72759494 14.8751392,3.24881013 16.5290127,3.03129114 Z" id="Path" fill="#FECFCE" fill-rule="nonzero"></path>
                    <path d="M3.24455696,103.150177 C3.24455696,103.150177 1.88840506,108.956962 3.23422785,110.121722 L6.20597468,110.393316 C6.47696203,110.418228 6.71635443,110.218329 6.74126582,109.947342 L6.78379747,109.483139 C6.78379747,109.483139 8.02875949,110.701367 9.01002532,110.790684 C9.99129114,110.88 15.2251139,110.920101 15.2251139,110.920101 C15.2251139,110.920101 16.4317975,111.244557 16.5387342,110.071899 C16.6918481,108.392506 12.412557,108.173772 10.7787342,106.645671 C9.14491139,105.11757 8.38481013,103.619241 8.38481013,103.619241 L3.24455696,103.150177 Z" id="Path" fill="#FFFFFF"></path>
                    <path d="M18.9211139,104.709266 C18.9211139,104.709266 18.099038,110.615696 19.5451139,111.652861 L22.5296203,111.652861 C22.8018228,111.652861 23.0223797,111.432304 23.0223797,111.160101 L23.0223797,110.694076 C23.0223797,110.694076 24.3730633,111.793823 25.3579747,111.793823 C26.3428861,111.793823 32.6466835,111.782278 32.6466835,111.782278 C32.6466835,111.782278 33.8776709,111.995544 33.8776709,110.818025 C33.8776709,109.131949 28.5083544,108.877975 26.7420759,107.50481 C24.9757975,106.131646 24.0826329,104.708658 24.0826329,104.708658 L18.9211139,104.708658 L18.9211139,104.709266 Z" id="Path" fill="#FFFFFF"></path>
                    <path d="M44.5834937,36.5182785 C44.5834937,36.9484557 44.4066835,37.3597975 44.0943797,37.6556962 C33.4930633,47.7022785 15.456,47.6245155 15.456,47.6245155 L15.456,24.748557 C15.456,24.748557 31.7444051,26.2535696 43.7061266,15.1491646 C43.8580253,15.0075949 44.0797975,14.9699241 44.2699747,15.0531646 C44.4601519,15.1364051 44.5834937,15.3241519 44.5834937,15.5319494 L44.5834937,36.5182785 Z" id="Path" fill="url(#linearGradient-27)" fill-rule="nonzero"></path>
                    <path d="M38.9693165,28.2361519 C38.9693165,28.2361519 40.6013165,26.3428861 40.9275949,25.9515949 C41.2538734,25.5596962 41.5206076,23.2751392 42.1051139,22.6875949 C42.6896203,22.1000506 44.5361013,21.0835443 45.024,21.1382278 C45.7136203,21.216 46.4488101,24.1719494 46.1978734,26.2930633 C45.9669873,28.243443 44.8842532,28.9038987 43.2601519,29.1651646 C42.4149873,29.3012658 40.8121519,31.1890633 40.681519,31.7109873 L38.9693165,28.2361519 Z" id="Path" fill="#FECFCE" fill-rule="nonzero"></path>
                    <path d="M18.5529114,21.526481 C18.5529114,21.526481 18.7771139,18.1579747 17.6117468,17.7891646 C16.4463797,17.4203544 10.9172658,15.7658734 10.1723544,16.8759494 C9.42805063,17.9860253 9.31746835,20.8988354 9.31746835,20.8988354 L18.5529114,21.526481 Z" id="Path" fill="#3FE0BC" fill-rule="nonzero"></path>
                    <path d="M22.3181772,2.88 C22.2221772,-0.535898734 7.99594937,-1.30207595 7.68789873,6.18470886 C7.51048101,10.5065316 8.64425316,14.0846582 9.64131646,14.0718987 C12.2564051,14.0378734 10.6572152,9.47422785 12.1701266,9.27250633 C13.852557,9.0476962 12.1555443,16.7137215 16.4269367,16.2628861 C23.5910886,15.5058228 21.7209114,10.1589873 17.283038,11.0138734 C12.8451646,11.8687595 13.9576709,6.92536709 17.6561013,6.00060759 C21.3539241,5.07463291 22.3880506,5.36992405 22.3181772,2.88 Z" id="Path" fill="#423160" fill-rule="nonzero"></path>
                    <path d="M4.95675949,53.6299747 C4.95675949,53.6299747 4.6438481,65.1062278 6.19868354,76.7392405 L2.52759494,103.703696 C2.49782278,103.921215 2.56101266,104.140557 2.70075949,104.309468 C2.84050633,104.47838 3.04526582,104.580456 3.264,104.592 L9.49488608,104.908557 C9.85944304,104.926785 10.1869367,104.691646 10.2871899,104.341063 C11.2714937,100.892354 16.1608101,83.5218228 16.5126076,77.6530633 C16.9045063,71.1250633 18.3402532,53.7606076 15.2068861,51.932962 C12.073519,50.1053165 5.35837975,48.268557 4.95675949,53.6299747 Z" id="Path" fill="url(#linearGradient-28)" fill-rule="nonzero"></path>
                    <path d="M8.81012658,52.9774177 C9.6844557,59.8468861 15.7300253,79.2200506 17.1657722,81.8308861 L18.044962,105.066532 C18.0650127,105.591494 18.4708861,106.019848 18.9940253,106.067241 L24.1865316,106.539342 C24.4678481,106.564861 24.7479494,106.475544 24.9624304,106.290835 C25.1769114,106.106127 25.3069367,105.843038 25.3239494,105.560506 L26.8271392,80.1211139 C26.8271392,80.1211139 25.1301266,54.412557 21.9961519,51.8017215 C18.8621772,49.1908861 8.36111392,49.4503291 8.81012658,52.9774177 Z" id="Path" fill="url(#linearGradient-29)" fill-rule="nonzero"></path>
                    <path d="M8.74025316,35.4009114 C10.608,34.0058734 12.7667848,32.1703291 13.4873924,30.6835443 C14.8453671,27.8807089 14.0597468,15.8740253 9.05863291,19.5293165 C4.05751899,23.1846076 0.244253165,34.1960506 0.449012658,37.9181772 C0.653772152,41.6403038 17.3875443,49.1422785 17.3875443,49.1422785 L18.819038,43.084557 C18.819038,43.0839494 12.0407089,37.8586329 8.74025316,35.4009114 Z" id="Path" fill="#34D0AD" fill-rule="nonzero"></path>
                    <path d="M42.5061266,30.4526582 L39.7974684,26.876962 C39.6267342,26.6515443 39.3077468,26.6029367 39.0774684,26.7675949 C37.7650633,27.7063291 33.625519,30.7272911 30.7983797,33.4225823 C28.4342278,29.2307848 22.3850127,19.1283038 18.8633924,18.9010633 C16.9330633,18.313519 10.7684051,17.4647089 8.28820253,19.8148861 C5.80739241,22.1650633 6.72121519,27.9098734 6.32992405,36.787443 C5.93802532,45.6656203 2.15210127,53.8906329 5.15483544,55.1963544 C8.15756962,56.5020759 11.1603038,53.2380759 15.2081013,53.3687089 C19.2552911,53.4993418 24.2266329,55.849519 24.6136709,52.585519 C24.9618228,49.6459747 21.8321013,42.3706329 22.1571646,36.5656709 C25.0888101,39.7300253 28.6657215,43.0219747 30.4836456,42.5328608 C33.5301266,41.7126076 40.992,32.9018734 42.4915443,31.1021772 C42.6458734,30.9156456 42.652557,30.646481 42.5061266,30.4526582 Z" id="Path" fill="url(#linearGradient-30)" fill-rule="nonzero"></path>
                    <path d="M22.8637975,43.3367089 C20.5294177,41.4932658 16.0957975,36.8664304 17.2970127,28.9543291 C17.2970127,28.9543291 17.7514937,29.6542785 18.5243544,30.8706835 C19.3859241,32.2128608 20.6448608,34.1924051 22.1431899,36.5529114 C22.1431899,36.5529114 22.1431899,36.5583797 22.1486582,36.5583797 L22.1486582,36.5638481 C22.0228861,38.7147342 22.3831899,41.0752405 22.8637975,43.3367089 Z" id="Path" fill="#31CAA8" fill-rule="nonzero"></path>
                </g>
                <g id="plant_13_" transform="translate(0.000000, 132.784810)" fill-rule="nonzero">
                    <path d="M46.896,35.7660759 C46.6572152,35.7660759 46.4506329,35.5880506 46.4178228,35.3444051 C44.3507848,18.6798987 45.9675949,8.67827848 51.2226835,5.62207595 C56.2711899,2.68739241 62.6515443,7.34703797 62.9140253,7.54875949 C63.1297215,7.70551899 63.1716456,8.00810127 63.0124557,8.21893671 C62.8532658,8.43220253 62.5433924,8.47655696 62.3422785,8.31736709 C62.281519,8.27058228 56.2201519,3.82663291 51.7014684,6.45387342 C48.3402532,8.41093671 44.8623797,14.9924051 47.3747848,35.2271392 C47.4075949,35.4896203 47.2198481,35.7290127 46.9573671,35.7618228 C46.9336709,35.7636456 46.9148354,35.7660759 46.896,35.7660759 Z" id="Path" fill="#24BB99"></path>
                    <path d="M36.5371139,76.8935696 L41.350481,93.7853165 C41.6974177,95.0029367 44.7742785,95.9556456 48.5182785,95.9556456 C52.2622785,95.9556456 55.3391392,95.0029367 55.6860759,93.7853165 L60.499443,76.8935696 L36.5371139,76.8935696 Z" id="Path" fill="#C3D3F3"></path>
                    <path d="M60.5188861,76.755038 C60.5188861,76.8018228 60.5122025,76.848 60.499443,76.8935696 C60.1403544,78.1543291 54.9138228,79.155038 48.5188861,79.155038 C42.1239494,79.155038 36.8974177,78.1549367 36.5383291,76.8935696 C36.5255696,76.8473924 36.5188861,76.8012152 36.5188861,76.755038 C36.5188861,75.4292658 41.8918481,74.355038 48.5194937,74.355038 C55.1471392,74.355038 60.5188861,75.4298734 60.5188861,76.755038 Z" id="Path" fill="#DAE7FF"></path>
                    <path d="M47.5163544,76.7368101 C47.7253671,65.1110886 47.6293671,53.4355443 46.8066835,41.8389873 C46.3212152,36.0698734 45.836962,30.2023291 44.1830886,24.7309367 C43.7219241,23.4252152 43.2145823,22.0010127 42.3062278,21.1728608 C41.4701772,20.2262278 40.2379747,20.7688101 39.334481,21.8636962 C37.4746329,23.9021772 36.2643038,26.6302785 35.0357468,29.2216709 L35.0229873,29.2484051 C34.9093671,29.4877975 34.6231899,29.5898734 34.3837975,29.4762532 C34.1462278,29.3632405 34.0441519,29.0807089 34.153519,28.8419241 C35.3820759,26.1751899 36.5036962,23.4325063 38.5494684,21.1072405 C39.0312911,20.5063291 39.7172658,20.0257215 40.512,19.6635949 C41.4337215,19.4229873 42.4556962,19.683038 43.0675443,20.304 C44.3380253,21.478481 44.8016203,22.9488608 45.3399494,24.3420759 C47.1493671,30.0388861 47.6998481,35.8973165 48.2831392,41.7180759 C49.2850633,53.3881519 49.5542278,65.0709873 49.5189873,76.7738734 C49.5171646,77.3273924 49.0675443,77.7739747 48.5140253,77.772762 C47.9605063,77.7709367 47.5139241,77.3213165 47.5151392,76.7677975 C47.5163544,76.7641519 47.5163544,76.7404557 47.5163544,76.7368101 Z" id="Path" fill="#24BB99"></path>
                    <path d="M48.4429367,60.8828354 C48.1755949,60.8828354 47.9647595,60.6671392 47.9647595,60.4022278 C47.9647595,47.4969114 49.7176709,40.3856203 53.1730633,39.2652152 C56.3653671,38.2201519 59.5625316,42.6003038 59.6986329,42.7856203 C59.8535696,43.0013165 59.8061772,43.299038 59.5910886,43.4557975 C59.3753924,43.6107342 59.0752405,43.5633418 58.9209114,43.3482532 C58.8881013,43.3081519 56.0147848,39.3660759 53.468962,40.1772152 C51.3970633,40.8522532 48.9217215,44.9073418 48.9217215,60.4022278 C48.9211139,60.6671392 48.7102785,60.8828354 48.4429367,60.8828354 Z" id="Path" fill="#2CCD7F"></path>
                    <path d="M46.0921519,27.3982785 C46.0921519,27.3982785 47.6986329,17.4154937 39.4444557,7.62288608 C39.4444557,7.62288608 43.849519,18.1063291 46.0921519,27.3982785 Z" id="Path" fill="#24BB99"></path>
                    <path d="M59.3103797,43.0663291 C56.2383797,37.5463291 62.185519,31.0967089 66.7327595,31.0967089 C71.28,31.0967089 77.4987342,37.9127089 77.4987342,37.9127089 C77.4987342,37.9127089 66.7327595,36.7807595 66.7327595,38.3191899 C66.7327595,39.8576203 75.8940759,37.1823797 79.5718481,38.9881519 C83.2496203,40.7939241 83.8517468,46.0763544 83.8517468,46.0763544 C83.8517468,46.0763544 68.8058734,42.5990886 68.739038,43.8027342 C68.6722025,45.0063797 83.7849114,45.1400506 84.7880506,48.1494684 C85.7911899,51.1588861 85.4570127,53.9671899 85.4570127,53.9671899 C85.4570127,53.9671899 71.347443,47.6816203 70.9458228,49.820962 C70.5448101,51.9609114 85.510481,52.3619241 85.510481,56.4413165 C85.510481,60.5207089 82.9828861,68.4109367 83.5844051,69.7488608 C83.5844051,69.7488608 74.8909367,72.691443 72.7515949,69.7488608 C70.6116456,66.8062785 70.2106329,58.3807595 68.4716962,58.3807595 C66.7327595,58.3807595 67.468557,68.8866835 71.4811139,71.0564051 C71.4811139,71.0564051 63.5902785,72.6908354 62.7876456,67.7425823 C61.9850127,62.7943291 63.9244557,54.2345316 62.5203038,53.6330127 C61.1161519,53.0314937 57.8393924,62.665519 62.0524557,69.5483544 C62.0524557,69.5483544 56.0342278,70.6851646 55.3652658,65.3352911 C54.6963038,59.9854177 58.1735696,51.2062785 57.171038,51.2062785 C56.1685063,51.2062785 50.6843544,59.3838987 51.0859747,64.0648101 C51.0859747,64.0648101 44.5324557,59.3170633 45.8697722,56.1071392 C47.2070886,52.8972152 52.2896203,49.1526076 51.4201519,48.4168101 C50.5506835,47.6810127 44.6661266,52.0277468 44.3319494,54.5687089 C44.3319494,54.5687089 41.1888608,47.3468354 47.3413671,41.5959494 C51.9651646,37.2723038 59.3103797,43.0663291 59.3103797,43.0663291 Z" id="Path" fill="#44D7B6"></path>
                    <path d="M79.7292152,24.6835443 C79.7292152,24.6835443 83.379038,18.6331139 80.9292152,15.4329114 C75.5289114,8.33255696 70.1784304,10.2325063 70.2288608,8.98268354 C70.2786835,7.73286076 78.7789367,8.48263291 80.5294177,11.132962 C80.5294177,11.132962 80.4297722,4.23250633 77.3292152,4.23250633 C74.2286582,4.23250633 70.2786835,5.73265823 69.9791392,4.78237975 C69.6789873,3.83210127 76.8795949,3.1321519 76.8795949,3.1321519 C76.8795949,3.1321519 71.5844051,-0.267949367 67.0566076,0.131848101 C61.4861772,0.624 62.6290633,7.9321519 62.6290633,7.9321519 C62.6290633,7.9321519 58.3291139,0.432 54.3785316,4.18207595 C50.428557,7.9321519 51.8284557,12.0826329 53.4282532,14.5828861 C54.4283544,11.7326582 57.4280506,7.83250633 58.1286076,8.85751899 C58.828557,9.88253165 50.9286076,16.8826329 56.4783797,20.883038 C57.3782278,16.6827342 60.7285063,10.3327595 61.6787848,11.6324051 C62.7627342,11.9246582 56.428557,20.1636456 58.2288608,23.132962 C60.0291646,25.1331646 62.6290633,26.1830886 62.6290633,26.1830886 C62.6290633,26.1830886 63.6291646,14.0324051 65.6293671,15.2828354 C67.6295696,16.5332658 61.3792405,23.6330127 64.579443,27.1333671 C67.7796456,30.6337215 73.7298228,30.3335696 74.2796962,32.083443 C74.2796962,32.083443 79.68,27.9833924 78.7801519,24.9332658 C77.5625316,20.8070886 71.3796456,18.6331139 71.8298734,17.6081013 C72.2788861,16.5830886 79.2291646,18.2333165 79.7292152,24.6835443 Z M70.2288608,12.3827848 C70.0787848,11.5825823 70.8291646,10.8826329 74.2790886,11.932557 C77.7290127,12.982481 79.9291139,18.2327089 79.9291139,18.2327089 C77.379038,13.5827848 70.3789367,13.1829873 70.2288608,12.3827848 Z" id="Shape" fill="#84F7DD"></path>
                    <path d="M17.0886076,43.2279494 C17.619038,45.0422278 6.79594937,47.3371139 3.86005063,53.9793418 C1.68972152,58.8893165 9.83817722,66.9277975 9.83817722,66.9277975 C11.1396456,64.1176709 21.0355443,65.9143291 27.1540253,60.7509873 C33.2725063,55.5876456 24.3536203,42.3420759 27.9736709,40.6839494 C31.5937215,39.0264304 30.6252152,59.5844051 30.6252152,59.5844051 C30.6252152,59.5844051 35.206481,58.3923038 38.6545823,55.4357468 C42.3141266,50.8563038 33.5027848,35.686481 35.3802532,35.4325063 C37.2534684,33.4626835 41.4805063,44.8222785 42.073519,52.0496203 C52.2349367,46.5606076 40.5320506,33.123038 41.9270886,31.5590886 C43.3221266,29.9951392 47.4963038,37.1769114 48.5498734,42.1658734 C51.772557,38.3283038 55.0189367,31.6854684 49.2218734,24.5480506 C43.4248101,17.4106329 34.5946329,29.0314937 34.5946329,29.0314937 C34.5946329,29.0314937 38.0974177,17.0460759 28.8789873,15.0100253 C21.3861266,13.3555443 11.782481,17.8954937 11.782481,17.8954937 C11.782481,17.8954937 23.6840506,20.6339241 22.9749873,22.1589873 C22.2659241,23.6840506 15.9797468,20.3137215 10.7896709,19.6392911 C5.59959494,18.9648608 3.93235443,30.4951899 3.93235443,30.4951899 C7.43817722,26.4394937 21.8314937,27.0325063 21.6431392,29.136 C21.4547848,31.2394937 12.912,26.8951899 2.32708861,37.606481 C-2.47048101,42.4307848 2.32405063,53.353519 2.32405063,53.353519 C4.56364557,42.6641013 16.5581772,41.4136709 17.0886076,43.2279494 Z M3.39220253,42.5122025 C3.39220253,42.5122025 8.21711392,34.201519 14.2213671,33.1941266 C20.2256203,32.1867342 21.3290127,33.5216203 20.9036962,34.828557 C20.4783797,36.1348861 8.67281013,35.2818228 3.39220253,42.5122025 Z" id="Shape" fill="#84F7DD"></path>
                </g>
            </g>
        </g>
    </g>
</svg>