<?xml version="1.0" encoding="utf-8"?>
<!-- Generator: Adobe Illustrator 25.0.0, SVG Export Plug-In . SVG Version: 6.00 Build 0)  -->
<svg version="1.1" id="图层_1" xmlns="http://www.w3.org/2000/svg" xmlns:xlink="http://www.w3.org/1999/xlink" x="0px" y="0px"
	 viewBox="0 0 347 295" style="enable-background:new 0 0 347 295;" xml:space="preserve">
<style type="text/css">
	.st0{fill:#B5B5B5;}
	.st1{fill:#2C9E75;}
	.st2{fill:#79C7AF;}
	.st3{fill:#F3CD41;}
	.st4{fill:#F3D75F;}
	.st5{fill:#FFFFFF;}
	.st6{fill:#E5E5E5;}
	.st7{fill:#FFCACA;}
	.st8{fill:#FFC0DA;}
	.st9{fill:#B6D4FF;}
	.st10{fill:#1769FF;}
	.st11{fill:#A4DEF7;}
	.st12{fill:#008DED;}
	.st13{fill:#FFBFAE;}
	.st14{fill:#FD3D00;}
	.st15{fill:#E0E0E0;}
	.st16{fill:#AAAAAA;}
	.st17{fill:#FFD4CF;}
	.st18{fill:#E23C1B;}
	.st19{fill:#F2F2F2;}
	.st20{fill:#FFC2CC;}
	.st21{fill:#5C97FF;}
	.st22{fill:#1E48A5;}
	.st23{fill:#3A6BC1;}
	.st24{fill:#13DCFF;}
	.st25{fill:#FEC1C0;}
	.st26{fill:#1D5CCC;}
	.st27{fill:#FECFCE;}
	.st28{fill:#423160;}
	.st29{fill:#FF3E87;}
	.st30{fill:#C1CBD3;}
	.st31{fill:#DDE3E9;}
	.st32{fill:#F95A6D;}
	.st33{fill:#326DF0;}
	.st34{fill:#FFBA3B;}
	.st35{fill:#CC2127;}
	.st36{fill:#EA4C89;}
	.st37{fill:#C32361;}
</style>
<g>
	<g>
		<path class="st0" d="M286.5,210.7H60.8c-9.5,0-17.2-7.7-17.2-17.2V42c0-9.5,7.7-17.2,17.2-17.2h225.7c9.5,0,17.2,7.7,17.2,17.2
			v151.6C303.8,203,296.1,210.7,286.5,210.7z"/>
	</g>
	<path class="st1" d="M223.6,255.4c0,0-12.5-15.7-24.5-8.4c-7.9-11.2-18.2-2.1-18.2-2.1s-12.7-10.2-18.1,1
		c-5,10.6,5.8,18.1,12.3,16.1c0.6,2.6,1.5,4.5,2.6,6H222C222.8,263.8,223.6,258.7,223.6,255.4z"/>
	<g>
		<path class="st2" d="M222.2,267.3c-1.4-0.6-47.1-12.5-53.2-17c30.5,8.9,53.6,15.1,53.6,15.1L222.2,267.3z"/>
	</g>
	<path class="st3" d="M273.3,264c0,0,10.5-4.7,4.9-14.5c4.6-2.2,6.8-11.7-1.3-15.1c-8.6-3.5-10.5,8.5-10.5,8.5s-10.3,0.1-9,10.3
		c-7.9,1.5-9.1,10.7-9.3,14.9H274C274,266.8,273.8,265.5,273.3,264z"/>
	<path class="st4" d="M275.7,240c-7.2,11.8-13.5,21.8-17.5,28.1h1.6C265.7,258.6,274.9,243.7,275.7,240z"/>
	<path class="st3" d="M220.3,247.4c4.3-12.2-8.4-15.1-8.4-15.1s0.9-15.4-10.7-13.3c-10.9,1.9-10.8,14.3-5.7,18.2
		c-9.5,10.5,2.2,19.2,2.2,19.2c-2.8,4.3-2.6,8.3-1,11.7h31C228.7,262.8,229.6,251.4,220.3,247.4z"/>
	<path class="st4" d="M201.2,226.1c0,5.3,8.5,29.2,13.2,42h1.8C213.1,259.6,207.5,244.3,201.2,226.1z"/>
	<path class="st1" d="M265.8,249.6c13.3-10.4,1.3-22.5,1.3-22.5s11.8-16.3-2.5-22.2c-13.4-5.5-21.9,8.3-19,16.2
		c-17.9,5-11,22.7-11,22.7c-11.3,5.2-10.3,16.2-7.8,24.3h39.3C268.9,262.6,270.1,255.9,265.8,249.6z"/>
	<path class="st2" d="M259.6,212.8c-3.7,5.7-10.9,37.9-14.8,55.3h2.3C249.6,256.3,254,236.3,259.6,212.8z"/>
	<g>
		<path class="st5" d="M303.8,51.7H43.6V41.2c0-9.3,7.5-16.8,16.8-16.8h226.5c9.3,0,16.8,7.5,16.8,16.8L303.8,51.7L303.8,51.7z"/>
	</g>
	<g>
		<path class="st5" d="M126.2,99.5H74.5c-3.1,0-5.6-2.5-5.6-5.6V68.1c0-3.1,2.5-5.6,5.6-5.6h51.8c3.1,0,5.6,2.5,5.6,5.6v25.8
			C131.8,96.9,129.3,99.5,126.2,99.5z"/>
	</g>
	<g>
		<path class="st5" d="M199.2,99.5h-51.8c-3.1,0-5.6-2.5-5.6-5.6V68.1c0-3.1,2.5-5.6,5.6-5.6h51.8c3.1,0,5.6,2.5,5.6,5.6v25.8
			C204.8,96.9,202.3,99.5,199.2,99.5z"/>
		<g>
			<g>
				<path class="st6" d="M147.9,98.2c-2.7,0-4.8-2.2-4.8-4.8V64.6c-0.8,1-1.2,2.2-1.2,3.5v25.8c0,3.1,2.5,5.6,5.6,5.6h51.8
					c1.3,0,2.5-0.4,3.5-1.2L147.9,98.2L147.9,98.2z"/>
			</g>
		</g>
	</g>
	<g>
		<path class="st5" d="M272.2,99.5h-51.8c-3.1,0-5.6-2.5-5.6-5.6V68.1c0-3.1,2.5-5.6,5.6-5.6h51.8c3.1,0,5.6,2.5,5.6,5.6v25.8
			C277.8,96.9,275.3,99.5,272.2,99.5z"/>
	</g>
	<g>
		<path class="st5" d="M202.8,189.1h-59c-1.1,0-2-0.9-2-2v-1.5c0-1.1,0.9-2,2-2h59c1.1,0,2,0.9,2,2v1.5
			C204.8,188.2,203.9,189.1,202.8,189.1z"/>
	</g>
	<g>
		<path class="st5" d="M173.5,176.9h-30c-0.9,0-1.6-0.7-1.6-1.6v-1c0-0.9,0.7-1.6,1.6-1.6h30c0.9,0,1.6,0.7,1.6,1.6v1
			C175.1,176.2,174.4,176.9,173.5,176.9z"/>
	</g>
	<g>
		<path class="st5" d="M173.5,167.6h-30c-0.9,0-1.6-0.7-1.6-1.6v-1c0-0.9,0.7-1.6,1.6-1.6h30c0.9,0,1.6,0.7,1.6,1.6v1
			C175.1,166.9,174.4,167.6,173.5,167.6z"/>
	</g>
	<g>
		<g>
			<g>
				<path class="st7" d="M100.3,70.1c6,0,10.9,4.9,10.9,10.9s-4.9,10.9-10.9,10.9S89.5,87,89.5,81S94.3,70.1,100.3,70.1 M100.3,68.7
					c-6.8,0-12.2,5.5-12.2,12.2s5.5,12.2,12.2,12.2s12.2-5.5,12.2-12.2S107.1,68.7,100.3,68.7L100.3,68.7z"/>
			</g>
		</g>
	</g>
	<g>
		<path class="st6" d="M74.9,98.2c-2.7,0-4.8-2.2-4.8-4.8V64.6c-0.8,1-1.2,2.2-1.2,3.5v25.8c0,3.1,2.5,5.6,5.6,5.6h51.8
			c1.3,0,2.5-0.4,3.5-1.2L74.9,98.2L74.9,98.2z"/>
	</g>
	<g>
		<g>
			<path class="st8" d="M173.3,70.1c6,0,10.9,4.9,10.9,10.9s-4.9,10.9-10.9,10.9S162.4,87,162.4,81S167.3,70.1,173.3,70.1
				 M173.3,68.7c-6.8,0-12.2,5.5-12.2,12.2s5.5,12.2,12.2,12.2s12.2-5.5,12.2-12.2S180.1,68.7,173.3,68.7L173.3,68.7z"/>
		</g>
	</g>
	<g>
		<path class="st5" d="M272.2,99.5h-51.8c-3.1,0-5.6-2.5-5.6-5.6V68.1c0-3.1,2.5-5.6,5.6-5.6h51.8c3.1,0,5.6,2.5,5.6,5.6v25.8
			C277.8,96.9,275.3,99.5,272.2,99.5z"/>
	</g>
	<g>
		<g>
			<g>
				<path class="st9" d="M246.3,70.1c6,0,10.9,4.9,10.9,10.9s-4.9,10.9-10.9,10.9S235.4,87,235.4,81S240.3,70.1,246.3,70.1
					 M246.3,68.7c-6.8,0-12.2,5.5-12.2,12.2s5.5,12.2,12.2,12.2s12.2-5.5,12.2-12.2S253,68.7,246.3,68.7L246.3,68.7z"/>
			</g>
		</g>
	</g>
	<g>
		<path class="st6" d="M220.9,98.2c-2.7,0-4.9-2.2-4.9-4.8V64.6c-0.8,1-1.2,2.2-1.2,3.5v25.8c0,3.1,2.5,5.6,5.6,5.6h51.8
			c1.3,0,2.5-0.4,3.5-1.2L220.9,98.2L220.9,98.2z"/>
	</g>
	<g>
		<circle class="st10" cx="246.3" cy="81" r="10.9"/>
	</g>
	<path class="st5" d="M248.7,78.3h3.6v-1.2h-3.6V78.3z M249.1,80.4c-0.2,0.2-0.4,0.5-0.5,0.9h3c0-0.4-0.2-0.7-0.5-0.9
		c-0.3-0.2-0.6-0.3-1-0.3C249.7,80.1,249.4,80.2,249.1,80.4L249.1,80.4z M251.7,79.2c0.5,0.2,0.9,0.5,1.1,0.9
		c0.3,0.4,0.4,0.8,0.5,1.3c0.1,0.3,0.1,0.7,0.1,1.2h-4.8c0,0.6,0.3,1.1,0.7,1.3c0.3,0.2,0.6,0.2,0.9,0.2c0.4,0,0.7-0.1,1-0.3
		c0.1-0.1,0.2-0.2,0.4-0.4h1.8c-0.1,0.4-0.3,0.7-0.6,1.1c-0.6,0.6-1.4,0.9-2.5,0.9c-0.9,0-1.6-0.2-2.3-0.8c-0.7-0.5-1-1.3-1-2.5
		c0-1.1,0.3-1.9,0.9-2.5s1.4-0.9,2.4-0.9C250.7,78.9,251.2,79,251.7,79.2L251.7,79.2z M240.9,81.2v2.4h2.1c0.4,0,0.7-0.1,0.9-0.2
		c0.4-0.2,0.6-0.6,0.6-1.1s-0.2-0.8-0.6-1c-0.2-0.1-0.5-0.2-0.9-0.2C243.1,81.2,240.9,81.2,240.9,81.2z M240.9,78.3v1.8h2.2
		c0.4,0,0.7-0.1,1-0.2s0.4-0.4,0.4-0.7c0-0.4-0.2-0.6-0.5-0.8c-0.3-0.1-0.6-0.1-1.1-0.1C242.9,78.3,240.9,78.3,240.9,78.3z
		 M245.6,77.4c0.3,0.4,0.4,0.8,0.4,1.4c0,0.5-0.1,1-0.4,1.3c-0.1,0.2-0.4,0.3-0.7,0.5c0.4,0.2,0.8,0.4,1,0.8s0.3,0.8,0.3,1.3
		s-0.1,1-0.4,1.4c-0.2,0.3-0.4,0.5-0.6,0.7c-0.3,0.2-0.6,0.4-1,0.4c-0.4,0.1-0.8,0.1-1.2,0.1h-3.9v-8.9h4.2
		C244.4,76.5,245.2,76.8,245.6,77.4L245.6,77.4z"/>
	<g>
		<g>
			<path class="st5" d="M126.2,146.9H74.5c-3.1,0-5.6-2.5-5.6-5.6v-25.8c0-3.1,2.5-5.6,5.6-5.6h51.8c3.1,0,5.6,2.5,5.6,5.6v25.8
				C131.8,144.4,129.3,146.9,126.2,146.9z"/>
		</g>
		<g>
			<g>
				<g>
					<path class="st11" d="M100.3,117.5c6,0,10.9,4.9,10.9,10.9c0,6-4.9,10.9-10.9,10.9s-10.9-4.9-10.9-10.9
						C89.5,122.4,94.3,117.5,100.3,117.5 M100.3,116.1c-6.8,0-12.2,5.5-12.2,12.2c0,6.8,5.5,12.2,12.2,12.2s12.2-5.5,12.2-12.2
						C112.6,121.6,107.1,116.1,100.3,116.1L100.3,116.1z"/>
				</g>
			</g>
		</g>
		<g>
			<path class="st6" d="M74.9,145.7c-2.7,0-4.8-2.2-4.8-4.9V112c-0.8,0.9-1.2,2.2-1.2,3.4v25.8c0,3.1,2.5,5.6,5.6,5.6h51.8
				c1.3,0,2.5-0.4,3.5-1.2L74.9,145.7L74.9,145.7z"/>
		</g>
		<g>
			<g>
				<circle class="st12" cx="100.3" cy="128.4" r="10.9"/>
			</g>
		</g>
		<g>
			<g>
				<polygon class="st5" points="108.3,131.5 102.4,121.4 98.7,121.4 106.3,134.2 				"/>
			</g>
			<g>
				<polygon class="st5" points="96.8,123.6 93.6,129 100,129 				"/>
			</g>
			<g>
				<polygon class="st5" points="92.3,131.8 95,135.4 103.8,135.4 101.7,131.8 				"/>
			</g>
		</g>
	</g>
	<g>
		<path class="st5" d="M126.2,195H74.5c-3.1,0-5.6-2.5-5.6-5.6v-25.8c0-3.1,2.5-5.6,5.6-5.6h51.8c3.1,0,5.6,2.5,5.6,5.6v25.8
			C131.8,192.5,129.3,195,126.2,195z"/>
	</g>
	<g>
		<g>
			<g>
				<path class="st13" d="M100.3,165.6c6,0,10.9,4.9,10.9,10.9s-4.9,10.9-10.9,10.9s-10.9-4.9-10.9-10.9S94.3,165.6,100.3,165.6
					 M100.3,164.3c-6.8,0-12.2,5.5-12.2,12.2s5.5,12.2,12.2,12.2s12.2-5.5,12.2-12.2S107.1,164.3,100.3,164.3L100.3,164.3z"/>
			</g>
		</g>
	</g>
	<g>
		<path class="st6" d="M74.9,193.8c-2.7,0-4.8-2.2-4.8-4.9v-28.8c-0.8,0.9-1.2,2.1-1.2,3.4v25.8c0,3.1,2.5,5.6,5.6,5.6h51.8
			c1.3,0,2.5-0.4,3.5-1.2L74.9,193.8L74.9,193.8z"/>
	</g>
	<g>
		<circle class="st14" cx="100.3" cy="176.5" r="10.9"/>
	</g>
	<g>
		<g>
			<path class="st5" d="M272.2,195h-51.8c-3.1,0-5.6-2.5-5.6-5.6v-25.8c0-3.1,2.5-5.6,5.6-5.6h51.8c3.1,0,5.6,2.5,5.6,5.6v25.8
				C277.8,192.5,275.3,195,272.2,195z"/>
		</g>
		<g>
			<g>
				<g>
					<path class="st15" d="M246.3,165.6c6,0,10.9,4.9,10.9,10.9s-4.9,10.9-10.9,10.9s-10.9-4.9-10.9-10.9
						C235.4,170.5,240.3,165.6,246.3,165.6 M246.3,164.3c-6.8,0-12.2,5.5-12.2,12.2s5.5,12.2,12.2,12.2s12.2-5.5,12.2-12.2
						S253,164.3,246.3,164.3L246.3,164.3z"/>
				</g>
			</g>
		</g>
		<g>
			<path class="st6" d="M220.9,193.8c-2.7,0-4.9-2.2-4.9-4.9v-28.8c-0.8,0.9-1.2,2.1-1.2,3.4v25.8c0,3.1,2.5,5.6,5.6,5.6h51.8
				c1.3,0,2.5-0.4,3.5-1.2L220.9,193.8L220.9,193.8z"/>
		</g>
		<g>
			
				<ellipse transform="matrix(0.1602 -0.9871 0.9871 0.1602 32.6262 391.3475)" class="st16" cx="246.3" cy="176.5" rx="10.9" ry="10.9"/>
		</g>
		<g>
			<g>
				<path class="st5" d="M242.2,174.9v3.5c0,0.1,0,0.1-0.1,0.2c-0.1,0-0.1,0.1-0.2,0.1c-0.1,0-0.1,0-0.2,0c-0.1,0-0.2,0-0.3-0.1
					s-0.1-0.1-0.1-0.2v-2.7l-0.9,2.7c0,0.1-0.1,0.2-0.2,0.2s-0.2,0.1-0.3,0.1h-0.1c-0.1,0-0.2,0-0.3-0.1s-0.1-0.1-0.2-0.2l-0.9-2.7
					v2.7c0,0.1-0.1,0.2-0.1,0.2c-0.1,0.1-0.2,0.1-0.3,0.1s-0.1,0-0.2,0c-0.1,0-0.1-0.1-0.2-0.1c-0.1,0-0.1-0.1-0.1-0.2v-3.5
					c0-0.2,0.1-0.3,0.1-0.4c0.1-0.1,0.3-0.1,0.5-0.1h0.1c0.2,0,0.4,0,0.5,0.1s0.2,0.2,0.2,0.3l0.9,2.8l0.9-2.8
					c0-0.1,0.1-0.2,0.2-0.3s0.2-0.1,0.5-0.1h0.1c0.2,0,0.4,0.1,0.5,0.1C242.2,174.6,242.2,174.7,242.2,174.9z"/>
			</g>
			<g>
				<path class="st5" d="M245,178.7c-0.4,0-0.7-0.1-1.1-0.2c-0.3-0.2-0.6-0.4-0.8-0.7s-0.3-0.7-0.3-1.2s0.1-0.9,0.3-1.2
					s0.4-0.6,0.8-0.7c0.3-0.2,0.7-0.2,1.1-0.2s0.7,0.1,1.1,0.2s0.6,0.4,0.8,0.7s0.3,0.7,0.3,1.2s-0.1,0.9-0.3,1.2s-0.4,0.6-0.8,0.7
					C245.7,178.6,245.3,178.7,245,178.7z M245,177.9c0.4,0,0.6-0.1,0.8-0.4c0.2-0.2,0.3-0.6,0.3-1s-0.1-0.8-0.3-1s-0.4-0.4-0.8-0.4
					c-0.4,0-0.6,0.1-0.8,0.4c-0.2,0.2-0.3,0.6-0.3,1s0.1,0.8,0.3,1C244.3,177.7,244.6,177.9,245,177.9z"/>
			</g>
			<g>
				<path class="st5" d="M250.9,178c0,0.1,0.1,0.1,0.1,0.2c0,0.1,0.1,0.1,0.1,0.2c0,0.1,0,0.2-0.1,0.2s-0.2,0.1-0.3,0.1h-0.2
					c-0.2,0-0.4-0.1-0.4-0.2l-0.8-1.4h-0.6v1.3c0,0.1-0.1,0.2-0.2,0.2c-0.1,0.1-0.2,0.1-0.3,0.1s-0.2,0-0.3-0.1s-0.2-0.1-0.2-0.2
					v-3.3c0-0.3,0.1-0.5,0.2-0.6s0.3-0.2,0.6-0.2h0.9c0.5,0,0.9,0.1,1.2,0.4c0.3,0.2,0.4,0.6,0.4,1c0,0.3-0.1,0.5-0.2,0.7
					c-0.1,0.2-0.4,0.4-0.6,0.5L250.9,178z M248.7,175.2v1.1h0.6c0.5,0,0.7-0.2,0.7-0.5s-0.2-0.5-0.7-0.5L248.7,175.2L248.7,175.2z"
					/>
			</g>
			<g>
				<path class="st5" d="M254.7,177.8c0.1,0,0.1,0,0.2,0.1c0,0.1,0.1,0.2,0.1,0.3s0,0.2-0.1,0.3s-0.1,0.1-0.2,0.1h-2.2
					c-0.3,0-0.5-0.1-0.6-0.2s-0.2-0.3-0.2-0.6V175c0-0.3,0.1-0.5,0.2-0.6s0.3-0.2,0.6-0.2h2.2c0.1,0,0.1,0,0.2,0.1
					c0,0.1,0.1,0.2,0.1,0.3s0,0.2-0.1,0.3s-0.1,0.1-0.2,0.1h-2v0.9h1.8c0.1,0,0.1,0,0.2,0.1c0,0.1,0.1,0.2,0.1,0.3s0,0.2-0.1,0.3
					s-0.1,0.1-0.2,0.1h-1.8v0.9L254.7,177.8L254.7,177.8L254.7,177.8z"/>
			</g>
		</g>
	</g>
	<g>
		<g>
			<path class="st5" d="M272.2,146.9h-51.8c-3.1,0-5.6-2.5-5.6-5.6v-25.8c0-3.1,2.5-5.6,5.6-5.6h51.8c3.1,0,5.6,2.5,5.6,5.6v25.8
				C277.8,144.4,275.3,146.9,272.2,146.9z"/>
		</g>
		<g>
			<g>
				<g>
					<path class="st17" d="M246.3,117.5c6,0,10.9,4.9,10.9,10.9c0,6-4.9,10.9-10.9,10.9s-10.9-4.9-10.9-10.9
						C235.4,122.4,240.3,117.5,246.3,117.5 M246.3,116.1c-6.8,0-12.2,5.5-12.2,12.2c0,6.8,5.5,12.2,12.2,12.2s12.2-5.5,12.2-12.2
						C258.5,121.6,253,116.1,246.3,116.1L246.3,116.1z"/>
				</g>
			</g>
		</g>
		<g>
			<path class="st6" d="M220.9,145.7c-2.7,0-4.9-2.2-4.9-4.9V112c-0.8,0.9-1.2,2.2-1.2,3.4v25.8c0,3.1,2.5,5.6,5.6,5.6h51.8
				c1.3,0,2.5-0.4,3.5-1.2L220.9,145.7L220.9,145.7z"/>
		</g>
		<g>
			
				<ellipse transform="matrix(0.1891 -0.982 0.982 0.1891 73.6396 345.9745)" class="st18" cx="246.3" cy="128.4" rx="10.9" ry="10.9"/>
		</g>
		<g>
			<g>
				<path class="st5" d="M252,129.8c-0.4-1.1-1.5-1.5-1.8-1.5s-0.5-0.2-0.3-0.5s0.5-1.2-0.1-1.8s-1.9-0.4-2.9,0s-0.9,0.1-0.9-0.2
					c0-0.3,0.5-1.8-1-2c-2-0.2-4.6,2.3-5.6,3.7c-1.4,2.2-1.2,3.6-1.2,3.6l0,0c0.2,2,3.2,3.7,6.9,3.7c3.2,0,5.9-1.2,6.7-2.8l0,0
					c0.1-0.2,0.1-0.4,0.2-0.5C252.1,131.1,252.2,130.4,252,129.8L252,129.8z M244.7,134c-2.6,0-4.8-1.4-4.8-3.1
					c0-1.7,2.1-3.1,4.8-3.1s4.8,1.4,4.8,3.1S247.3,134,244.7,134L244.7,134z"/>
			</g>
			<g>
				<path class="st5" d="M251.2,127.1c0.1,0,0.1,0,0.1,0c0.1,0,0.3-0.1,0.4-0.2c0.1-0.2,0.1-0.5,0.1-0.7c0-1-0.9-1.9-1.9-1.9
					c-0.3,0-0.5,0.1-0.7,0.2s-0.3,0.3-0.2,0.5s0.3,0.3,0.5,0.2c0.1-0.1,0.3-0.1,0.4-0.1c0.6,0,1.1,0.5,1.1,1.1c0,0.2,0,0.3-0.1,0.4
					c0,0.1,0,0.2,0,0.3C251,126.9,251.1,127,251.2,127.1L251.2,127.1z"/>
			</g>
			<g>
				<path class="st5" d="M249.9,121.9c-0.4,0-0.9,0.1-1.3,0.2c-0.3,0.1-0.5,0.4-0.4,0.7s0.4,0.5,0.7,0.4s0.6-0.1,0.9-0.1
					c1.8,0,3.3,1.5,3.3,3.3c0,0.3-0.1,0.7-0.1,0.9c-0.1,0.3,0.1,0.6,0.4,0.7c0.1,0,0.1,0,0.2,0c0.2,0,0.5-0.2,0.6-0.4
					c0.1-0.4,0.2-0.8,0.2-1.3C254.4,123.9,252.3,121.9,249.9,121.9L249.9,121.9z"/>
			</g>
			<g>
				<path class="st5" d="M244.2,128.9c-1.4,0-2.5,1-2.5,2.2s1.1,2.2,2.5,2.2s2.5-1,2.5-2.2S245.6,128.9,244.2,128.9L244.2,128.9z
					 M243.4,132.5c-0.5,0-0.9-0.4-0.9-0.9s0.4-0.9,0.9-0.9s0.9,0.4,0.9,0.9C244.3,132.1,243.9,132.5,243.4,132.5L243.4,132.5z
					 M245.1,130.9c-0.1,0.2-0.3,0.3-0.5,0.2s-0.2-0.3-0.1-0.5s0.3-0.3,0.5-0.2C245.1,130.5,245.2,130.8,245.1,130.9L245.1,130.9z"/>
			</g>
		</g>
	</g>
	<g>
		<g>
			<path class="st5" d="M199.2,146.9h-51.8c-3.1,0-5.6-2.5-5.6-5.6v-25.8c0-3.1,2.5-5.6,5.6-5.6h51.8c3.1,0,5.6,2.5,5.6,5.6v25.8
				C204.8,144.4,202.3,146.9,199.2,146.9z"/>
		</g>
		<g>
			<circle class="st19" cx="173.3" cy="128.4" r="10.9"/>
			<path class="st20" d="M173.3,139.6c-0.3,0-0.6,0-0.9,0l0.1-0.7c0.4,0,0.9,0,1.3,0v0.7C173.7,139.6,173.5,139.6,173.3,139.6z
				 M175.9,139.3l-0.2-0.7c0.4-0.1,0.8-0.2,1.2-0.4l0.2,0.6C176.8,139,176.4,139.2,175.9,139.3z M170.4,139.2
				c-0.4-0.1-0.9-0.3-1.3-0.4l0.2-0.6c0.4,0.2,0.8,0.3,1.2,0.4L170.4,139.2z M179.1,138l-0.4-0.6c0.4-0.2,0.7-0.5,1.1-0.7l0.4,0.5
				C179.9,137.5,179.5,137.7,179.1,138z M167.3,137.8c-0.4-0.2-0.8-0.5-1.1-0.8l0.4-0.5c0.3,0.3,0.7,0.5,1.1,0.8L167.3,137.8z
				 M181.7,135.8l-0.5-0.4c0.3-0.3,0.6-0.7,0.8-1l0.6,0.4C182.3,135.1,182,135.4,181.7,135.8z M164.7,135.5
				c-0.3-0.4-0.6-0.7-0.8-1.1l0.6-0.4c0.2,0.4,0.5,0.7,0.8,1.1L164.7,135.5z M183.6,132.9l-0.6-0.3c0.2-0.4,0.3-0.8,0.4-1.2l0.6,0.2
				C183.9,132,183.8,132.4,183.6,132.9z M162.9,132.5c-0.2-0.4-0.3-0.9-0.4-1.3l0.6-0.2c0.1,0.4,0.2,0.8,0.4,1.2L162.9,132.5z
				 M184.5,129.5l-0.7-0.1c0-0.3,0.1-0.7,0.1-1.1v-0.2h0.7v0.3C184.5,128.8,184.5,129.1,184.5,129.5z M162.1,129.2
				c0-0.3,0-0.5,0-0.8c0-0.2,0-0.4,0-0.6h0.7c0,0.2,0,0.4,0,0.6s0,0.5,0,0.7L162.1,129.2z M183.6,126.2c-0.1-0.4-0.2-0.8-0.4-1.3
				l0.6-0.2c0.1,0.4,0.3,0.9,0.4,1.3L183.6,126.2z M163.1,125.9l-0.6-0.2c0.1-0.4,0.2-0.9,0.4-1.3l0.6,0.2
				C163.3,125.1,163.2,125.5,163.1,125.9z M182.5,123.2c-0.2-0.4-0.4-0.7-0.7-1.1l0.5-0.4c0.3,0.4,0.5,0.8,0.8,1.2L182.5,123.2z
				 M164.3,122.9l-0.6-0.3c0.2-0.4,0.5-0.8,0.8-1.1l0.5,0.4C164.8,122.2,164.5,122.5,164.3,122.9z M180.4,120.6
				c-0.3-0.3-0.7-0.6-1-0.8l0.4-0.6c0.4,0.3,0.7,0.6,1.1,0.9L180.4,120.6z M166.4,120.4l-0.4-0.5c0.4-0.3,0.7-0.6,1.1-0.8l0.4,0.6
				C167.1,119.9,166.8,120.1,166.4,120.4z M177.7,118.8c-0.4-0.2-0.8-0.3-1.2-0.5l0.2-0.6c0.4,0.1,0.9,0.3,1.3,0.5L177.7,118.8z
				 M169.2,118.7l-0.3-0.6c0.4-0.2,0.9-0.3,1.3-0.5l0.2,0.7C170,118.4,169.6,118.5,169.2,118.7z M174.6,117.9
				c-0.8-0.1-1.5-0.1-2.3,0l-0.1-0.7c0.8-0.1,1.6-0.1,2.4,0L174.6,117.9z"/>
		</g>
		<g>
			<path class="st6" d="M147.9,145.7c-2.7,0-4.9-2.2-4.9-4.9V112c-0.8,0.9-1.2,2.2-1.2,3.4v25.8c0,3.1,2.5,5.6,5.6,5.6h51.8
				c1.3,0,2.5-0.4,3.5-1.2L147.9,145.7L147.9,145.7z"/>
		</g>
	</g>
	<g>
		<rect x="175.1" y="216.7" class="st3" width="69.5" height="8.7"/>
	</g>
	<g>
		<path class="st21" d="M175.1,264.5v-39.1h69.5v39.1c0,2.4-1.9,4.4-4.4,4.4h-60.8C177.1,268.9,175.1,266.9,175.1,264.5L175.1,264.5
			z"/>
	</g>
	<g>
		<g>
			<polygon class="st22" points="244.6,216.7 236,202.8 235.9,202.8 235.9,216.7 			"/>
		</g>
		<g>
			<polygon class="st22" points="175.1,216.7 183.8,216.7 183.8,202.8 			"/>
		</g>
		<g>
			<polygon class="st23" points="235.9,202.8 183.8,202.8 183.8,202.8 183.8,216.7 235.9,216.7 			"/>
		</g>
	</g>
	<g>
		<path class="st24" d="M212.2,236.7c-1.3-2.6-3.9-4.3-6.9-4.3c-1,0-2.2,0.3-3.1,0.7c1.9,2,2.6,4.9,1.6,7.5
			c-1.8,2.1-2.8,4.8-2.7,7.7c0.3,6,5.2,10.8,11.2,10.8h0.1c-2.7-1.5-4.4-4.3-4.4-7.3c0-4.6,3.7-8.4,8.4-8.4c2.9,0,5.7,1.6,7.2,4.1
			C223.3,241.4,218.3,236.6,212.2,236.7z"/>
	</g>
	<g>
		<path class="st5" d="M210.9,236c-1.3-2.6-3.9-4.3-6.9-4.3c-1,0-2.2,0.3-3.1,0.7c1.9,2,2.6,4.9,1.6,7.5c-1.8,2.1-2.8,4.8-2.7,7.7
			c0.3,6,5.2,10.8,11.2,10.8h0.1c-2.7-1.5-4.4-4.3-4.4-7.3c0-4.6,3.7-8.4,8.4-8.4c2.9,0,5.7,1.6,7.2,4.1
			C222,240.7,217,235.9,210.9,236z"/>
	</g>
	<g>
		<g>
			<path class="st25" d="M135.5,155l0.7-5.5c16.4,4.2,26.8,7.4,26.8,7.4l-1.4,4.3C161.7,161.2,150.6,156.9,135.5,155z"/>
		</g>
		<g>
			<path class="st26" d="M140.1,147.4c5.6,2,16.2,6.8,16.2,6.8l-0.5,6.1c0,0-22.5-0.5-26.2-10.4
				C121.6,128.6,138.1,146.7,140.1,147.4z"/>
		</g>
		
			<g id="Head_x2F_Front_x2F_Airy" transform="translate(132.804269, 62.826718) rotate(-7.000000) translate(-132.804269, -62.826718) translate(61.952002, 8.590719)">
			<g id="Head" transform="translate(56.316359, 32.329762)">
				<g>
					<g>
						<path class="st27" d="M2.4,88c-1-2.6-1.3-5.4-0.2-8c3.3-7.7,12.6-2.5,13.3,2.2c0.8,4.7-3.1,10-6,11.4
							c-0.7,0.3-1.7,0.5-3.6-1.1l-2.7,11.7l-8.8-3L2.4,88z"/>
					</g>
				</g>
			</g>
			<g>
				<path class="st28" d="M55.8,107.7c0.2-0.2,0.4-0.3,0.6-0.4c-0.5-0.2-0.9-0.3-1.4-0.4c-2.1-0.4-4.2-0.2-6.1,0.8
					c-2.1,1-3.9,2.8-5.2,4.7c-1.5,2-2.3,4.3-3.3,6.6c-0.9,2.2-2.2,4.2-4,5.7c-1.8,1.6-4,2.1-6.2,2.8c-2.3,0.7-4.4,2-5.8,3.9
					c-1.3,1.8-2,4-2.2,6.2c-0.2,2.1-0.1,4.1,0.8,6c1,2,2.8,3.6,5.2,3.7c3.4,0.2,6.5-2.3,8.5-4.8c1.2-1.4,2.1-3.1,2.8-4.8
					c0.9-2.3,1.2-4.8,1.7-7.2c0.3-1.1,0.6-2.2,1.1-3.3c0.5-1,1.1-1.9,2.2-2.2c1.2-0.3,2.3-0.6,3.4-1.2c1-0.6,2-1.4,2.8-2.3
					c1.5-1.8,2.5-4,3.6-6.1c0.7-1.3,1.4-2.6,2.4-3.7C55.2,111.2,54.2,109.1,55.8,107.7z"/>
			</g>
			<g>
				<path class="st28" d="M73.5,113c0-0.3-0.2-0.7-0.5-1.1s-0.6-0.8-1.1-1.3c-3.4-5.3-10.7-7.5-15.2-2c-0.3,0.3-0.6,0.7-0.8,1.1
					c-1,1.6-1.6,3.4-1.7,5.2c-0.1,2.5,3.2,6.5,5.2,5.9c1.3-0.4,1-1.6,0.8-2.4c-0.3-1.5-0.1-3.2,1.7-3.6c2.3-0.4,2.3,2.8,2.3,2.8
					c0.4-1.6,3.7-1.4,6.6-3.2C72.9,115.5,73.6,114.2,73.5,113z"/>
			</g>
		</g>
		<g>
			<ellipse transform="matrix(0.327 -0.945 0.945 0.327 -28.2448 198.3716)" class="st29" cx="125.2" cy="119" rx="2.5" ry="1.7"/>
		</g>
		<g id="Leg">
			<polygon class="st27" points="116.4,176.1 130.6,225 137.3,261.7 144,261.7 137.3,176.1 			"/>
		</g>
		<g id="Leg_1_">
			<path class="st27" d="M112.9,176.1c1,25.4,0.6,39.3,0.4,41.6s-1.5,17.8-10.1,44.8h7c11.4-26,15.3-41.4,16.6-44.8
				c1.3-3.4,5.1-17.3,10.8-41.6H112.9L112.9,176.1z"/>
		</g>
		<g id="Pant">
			<path class="st30" d="M116.1,176.1c3.7,16.8,10.1,43.7,19.2,80.6h9.8c0.7-37.9-5.4-62.1-7.7-80.6H116.1z"/>
		</g>
		<g id="Pant_1_">
			<path class="st31" d="M112.8,176.1c1,25.4-1.5,50.4-9.3,81l10,1.4c11.4-25.6,16.7-48.2,22.2-78.7L112.8,176.1z"/>
		</g>
		<g>
			<g>
				<circle class="st32" cx="168.6" cy="155.3" r="10.9"/>
			</g>
			<g>
				<g>
					<path class="st5" d="M174.6,158.1c-0.1-0.9-0.3-1.8-0.5-2.6l0,0c-0.6,1.3-1.7,2.2-3,2.8c-1.6,0.7-3.4,0.8-4.5,0.7
						c3.1,2.6,7.8,2.3,7.8,2.3S174.8,159.5,174.6,158.1z"/>
				</g>
				<g>
					<path class="st5" d="M165.4,152.7c0.6-1.5,1.8-2.6,2.9-2.9c-0.9-0.3-1.8-0.4-2.8-0.5c-1.2-0.1-2.9,0.2-2.9,0.2
						s-0.4,4.6,2.2,7.7C164.7,156.3,164.7,154.2,165.4,152.7L165.4,152.7z"/>
				</g>
				<g>
					<path class="st5" d="M172.5,156.1c2.5-2.5,1.9-6.6,1.9-6.6s-4.5-0.6-6.8,1.7s-1.9,6.8-1.9,6.8S170,158.6,172.5,156.1z"/>
				</g>
			</g>
		</g>
		<g>
			<path class="st27" d="M131.4,154.1l1.4-8c15.1,7.6,23.7,12.4,24.6,12.9c4.6,1.7,5,0.7,6.4,0.9c0.3,0.1,0.5,0.3,0.5,0.6
				c-0.2,1.3-3,0.3-2.6,2.1c1.1,2.7,8.3,1.1,6.8,3c-1.1,1.1-3.4,1.8-5.9,1.2c-4.6-0.9-5.3-3.3-7.4-3.9
				C153.5,162.2,145.7,159.2,131.4,154.1z"/>
		</g>
		<g id="Shirt">
			<path class="st5" d="M115.1,178.8c13.3,1.8,14.9,2.6,21.1,3.4c1.3,0.2,3.4,0.1,3.4-0.9c-0.8-11.6-4.6-31.6-6.8-44l-4.6-1.4
				C119.7,146.3,119,160.3,115.1,178.8z"/>
		</g>
		<g id="Coat-Front">
			<path class="st33" d="M118.3,144.2c-1.7-2-1.7-2.3-1.7-4c0.2-4.3,4.2-6.2,7.7-6.8c3.4-0.6-0.3,1.8,5,2.5c0.3,0,1.8,0.6,1.8,0.6
				c4.2,26.8,4.1,44.3-0.5,52.5l-17.1-2.2C111.7,189.8,112.4,160.4,118.3,144.2z"/>
		</g>
		<g id="Shade">
			<path class="st26" d="M129.5,144.6c-0.1,6.2,2.5,6.6,3.8,9.5l0.3,3.1C128.5,158.4,127.4,152.6,129.5,144.6z"/>
		</g>
		<g>
			<path class="st33" d="M140.7,148c5.2,2.9,15,9.2,15,9.2l-1.4,6c0,0-22.2-4.1-24.3-14.4C125.4,126.5,138.9,147,140.7,148z"/>
		</g>
		<g>
			<g>
				<path class="st34" d="M122.9,268.8L122.9,268.8c0.2-0.5,0-1-0.4-1.2c-5.7-2.1-6.8-4-10.2-7.5c-3.8,0.6-6.9,0.3-9.2-0.9l-1.5,6
					c0,0.1,0,0.1,0,0.2l21,4.2L122.9,268.8z"/>
			</g>
			<g>
				<path class="st5" d="M101.5,265.4c0,0.3,0,0.6,0.1,0.9c0.2,0.5,0.7,0.9,1.3,1l7.7,1.5l10.4,1.7c0.6,0.1,1.1-0.2,1.4-0.7l0.1-0.2
					L101.5,265.4z"/>
			</g>
		</g>
		<g>
			<g>
				<path class="st34" d="M156.9,266.7L156.9,266.7c0.1-0.5-0.2-1-0.6-1.1c-6-1.1-7.4-2.8-11.3-5.6c-3.7,1.2-6.8,1.5-9.2,0.7
					l-0.5,6.1c0,0.1,0,0.1,0,0.2l21.4,0.5L156.9,266.7z"/>
			</g>
			<g>
				<path class="st5" d="M135.3,267.1c0,0.3,0.1,0.6,0.3,0.9c0.3,0.5,0.9,0.8,1.4,0.8l7.8,0.1l10.5-0.1c0.6,0,1.1-0.4,1.2-0.9
					l0.1-0.3L135.3,267.1z"/>
			</g>
		</g>
	</g>
	<g>
		<path class="st0" d="M126.8,40.5h-35c-1.4,0-2.5-1.1-2.5-2.5l0,0c0-1.4,1.1-2.5,2.5-2.5h35c1.4,0,2.5,1.1,2.5,2.5l0,0
			C129.3,39.3,128.2,40.5,126.8,40.5z"/>
	</g>
	<g>
		<path class="st0" d="M76.8,40.5h-7c-1.4,0-2.5-1.1-2.5-2.5l0,0c0-1.4,1.1-2.5,2.5-2.5h7c1.4,0,2.5,1.1,2.5,2.5l0,0
			C79.3,39.3,78.2,40.5,76.8,40.5z"/>
	</g>
	<path class="st35" d="M100.3,70.1c-6,0-10.9,4.9-10.9,10.9c0,4.4,2.7,8.3,6.5,9.9c0-0.8,0-1.7,0.2-2.5l1.4-5.9c0,0-0.3-0.7-0.3-1.7
		c0-1.6,0.9-2.8,2.1-2.8c1,0,1.5,0.7,1.5,1.6c0,1-0.6,2.5-1,3.9c-0.3,1.2,0.6,2.1,1.7,2.1c2.1,0,3.4-2.6,3.4-5.8
		c0-2.4-1.6-4.2-4.5-4.2c-3.3,0-5.3,2.5-5.3,5.2c0,0.9,0.3,1.6,0.7,2.1c0.2,0.2,0.2,0.3,0.2,0.6c-0.1,0.2-0.2,0.7-0.2,0.9
		c-0.1,0.3-0.3,0.4-0.5,0.3c-1.5-0.6-2.2-2.3-2.2-4.2c0-3.1,2.6-6.8,7.8-6.8c4.2,0,6.9,3,6.9,6.2c0,4.3-2.4,7.4-5.9,7.4
		c-1.2,0-2.3-0.6-2.7-1.3c0,0-0.6,2.5-0.8,3c-0.2,0.8-0.7,1.7-1.1,2.3c1,0.3,2,0.4,3.1,0.4c6,0,10.9-4.9,10.9-10.9
		C111.2,75,106.3,70.1,100.3,70.1"/>
	<path class="st36" d="M163.2,81c0,5.6,4.6,10.2,10.2,10.2s10.2-4.6,10.2-10.2s-4.6-10.2-10.2-10.2S163.2,75.3,163.2,81L163.2,81z"
		/>
	<g>
		<path class="st37" d="M173.3,70.1c-6,0-10.9,4.9-10.9,10.9s4.9,10.9,10.9,10.9S184.2,87,184.2,81S179.3,70.1,173.3,70.1
			L173.3,70.1z M179,76.7c0.8-0.7,1.3-1.2,1.5-1.4l0,0c1.2,1.5,2,3.5,2,5.6c-0.4-0.1-2.2-0.4-4.3-0.4c-0.7,0-1.4,0-2.1,0.1
			c-0.1-0.1-0.1-0.3-0.2-0.4c-0.2-0.4-0.4-0.9-0.6-1.3C177,78.1,178.2,77.3,179,76.7 M173.3,71.8c2.3,0,4.4,0.9,6.1,2.3
			c-0.3,0.3-1.6,2.1-4.8,3.3c-1.4-2.6-3-4.8-3.4-5.3C171.9,71.9,172.6,71.8,173.3,71.8L173.3,71.8z M169.4,72.7
			c0.3,0.4,1.9,2.6,3.4,5.2c-4,1-7.5,1.1-8.3,1.1h-0.1C165,76.2,166.8,73.9,169.4,72.7L169.4,72.7z M164.1,81c0-0.1,0-0.2,0-0.2h0.2
			c1.1,0,5.1-0.1,9.2-1.3c0.2,0.5,0.5,1,0.7,1.5c-0.1,0-0.2,0.1-0.3,0.1c-4.6,1.5-7.1,5.4-7.5,6.1C165,85.4,164.1,83.3,164.1,81
			L164.1,81z M173.3,90.2c-2.1,0-4.1-0.7-5.6-1.9c0.3-0.5,2.2-3.9,7.2-5.7l0,0c1.3,3.3,1.8,6.1,1.9,6.9
			C175.8,89.9,174.6,90.2,173.3,90.2L173.3,90.2z M178.6,88.5c-0.1-0.7-0.6-3.3-1.8-6.4c0.6-0.1,1.3-0.1,1.9-0.1
			c1.9,0,3.4,0.4,3.8,0.5C182,85,180.6,87.1,178.6,88.5L178.6,88.5z"/>
	</g>
	<g>
		<path class="st5" d="M98,171.1c-0.3,0.9-0.8,1.8-1.2,2.4c-0.2,0.3-0.3,0.4-0.6,0.7l-0.2,0.2l0.7,0.4l0.6,0.4l0.1-0.1
			c0.2-0.2,0.6-0.6,0.8-0.8l0.1-0.2l0.4-0.2c0.2-0.1,0.4-0.2,0.4-0.2h0.1l-0.1,0.1c-0.4,0.7-0.9,1.4-1.2,1.8
			c-0.1,0.1-0.2,0.2-0.2,0.2s0.2,0.2,0.4,0.4l0.4,0.3h-0.4h-0.4v0.9h2.6v2.2h-0.2c-0.4,0-0.7-0.1-0.8-0.3c-0.2-0.2-0.2-0.5-0.1-1
			c0-0.1,0-0.3,0-0.4v0.1h-0.9c-0.7,0-0.9,0-0.9,0c-0.1,0-0.1,0.3-0.1,0.7s0,0.6,0.1,0.9c0.2,0.7,0.6,1.1,1.3,1.3c0.2,0,0.2,0,0.9,0
			c0.5,0,0.8,0,1,0c1.2-0.1,2.2-0.5,3-1c0.1-0.1,0.2-0.1,0.2-0.1s0.1,0.2,0.1,0.5c0.1,0.2,0.1,0.5,0.1,0.5s0.3-0.1,0.8-0.3
			s0.7-0.3,0.7-0.3l-1-2.4l-1.2,0.4c0,0,0,0.2,0.1,0.4s0.1,0.4,0.1,0.4s-0.3,0.2-0.5,0.3c-0.1,0.1-0.5,0.2-0.6,0.2c0,0,0-0.4,0-1v-1
			h2.6v-0.9h-2.6v-1.1h2.6v-0.9h-4.6l0.1-0.1c0.3-0.3,0.6-0.8,0.6-0.9c0,0-0.2-0.1-0.3-0.1c-0.2-0.1-0.4-0.1-0.4-0.1
			c-0.1,0,0.9-0.4,1.6-0.5c1.1-0.3,2-0.3,2.7-0.1c0.2,0.1,0.4,0.2,0.6,0.4c0.1,0.1,0.2,0.2,0.2,0.3c0.1,0.2,0.2,0.4,0.2,0.6
			c0,0.1,0,1.1,0,3.1v2.9l-0.1,0.2c-0.1,0.3-0.2,0.5-0.4,0.7c-0.3,0.3-0.7,0.4-1.2,0.4c-0.2,0-0.3,0-0.8-0.1
			c-0.3-0.1-0.6-0.1-0.6-0.1l-0.3,1c0,0,0.1,0.1,0.4,0.1c0.6,0.1,0.8,0.1,1.5,0.1s0.8,0,1.2-0.1c1.2-0.3,1.9-1.1,2.1-2.4
			c0.1-0.5,0.1-1.4,0.2-2.2c0.1-1.3,0-2.8-0.2-3.9c-0.1-0.4-0.2-0.6-0.3-0.9c-0.7-1.1-2.4-1.5-4.6-1.2c-0.8,0.1-1.9,0.3-2.8,0.6
			c-0.1,0-0.2,0-0.2,0s0.1-0.1,0.1-0.2c0.2-0.4,0.3-0.7,0.3-0.7s-1.8-0.5-1.9-0.5C98.2,170.8,98.1,170.9,98,171.1L98,171.1z
			 M100.4,175.9v0.6h-1.8l0.6-0.6l0.6-0.6h0.3h0.3V175.9z M95.2,171c-0.5,0.1-0.9,0.5-1,0.9c-0.1,0.2,0,0.4,0,0.6
			c0.3,0.8,1.4,1.1,2.1,0.6c0.3-0.2,0.5-0.6,0.5-0.9c0-0.3-0.1-0.6-0.3-0.8c-0.2-0.2-0.4-0.3-0.7-0.4C95.6,171,95.3,171,95.2,171
			L95.2,171z M93.9,174.5c-0.2,0.4-0.4,0.6-0.4,0.7c0,0,0.3,0.2,0.8,0.5c1,0.6,1,0.6,1.1,0.8c0.4,0.4,0.4,0.9,0,1.6
			c-0.3,0.5-1.2,1.5-2.2,2.4c-0.2,0.2-0.4,0.4-0.4,0.4l2,1.3c0,0,0,0,0.1-0.1c0.1-0.2,0.6-1.2,0.9-2c0.2-0.4,0.4-0.9,0.5-1
			c0.2-0.5,0.4-1.3,0.5-1.7c0-0.1,0-0.3,0-0.4c0-0.2,0-0.3,0-0.4c-0.1-0.2-0.2-0.4-0.2-0.5c-0.1-0.1-0.8-0.8-1.1-1.1
			c-0.2-0.2-1.1-0.9-1.1-0.9C94.3,173.9,94.2,174.1,93.9,174.5L93.9,174.5z"/>
	</g>
</g>
</svg>
