<?xml version="1.0" encoding="UTF-8"?>
<svg width="336px" height="189px" viewBox="0 0 336 189" version="1.1" xmlns="http://www.w3.org/2000/svg" xmlns:xlink="http://www.w3.org/1999/xlink">
    <!-- Generator: Sketch 61 (89581) - https://sketch.com -->
    <title>default_unfiled_pic</title>
    <desc>Created with Sketch.</desc>
    <defs>
        <linearGradient x1="52.2901393%" y1="0%" x2="43.6447676%" y2="100%" id="linearGradient-1">
            <stop stop-color="#183E87" offset="0%"></stop>
            <stop stop-color="#102B5E" offset="100%"></stop>
        </linearGradient>
        <linearGradient x1="50.5666108%" y1="0%" x2="48.4276313%" y2="100%" id="linearGradient-2">
            <stop stop-color="#204FA6" offset="0%"></stop>
            <stop stop-color="#102B5E" offset="100%"></stop>
        </linearGradient>
        <linearGradient x1="50%" y1="0%" x2="50%" y2="100%" id="linearGradient-3">
            <stop stop-color="#FFFB9F" offset="0%"></stop>
            <stop stop-color="#FDF653" offset="100%"></stop>
        </linearGradient>
        <linearGradient x1="84.9754539%" y1="0%" x2="29.8204931%" y2="91.4931718%" id="linearGradient-4">
            <stop stop-color="#FEFA89" offset="0%"></stop>
            <stop stop-color="#F7E837" offset="100%"></stop>
        </linearGradient>
        <linearGradient x1="53.0903475%" y1="3.29487812%" x2="41.4241567%" y2="96.7051219%" id="linearGradient-5">
            <stop stop-color="#113883" offset="0%"></stop>
            <stop stop-color="#102B5E" offset="100%"></stop>
        </linearGradient>
        <linearGradient x1="52.8309557%" y1="0%" x2="42.1439795%" y2="100%" id="linearGradient-6">
            <stop stop-color="#1F4CA2" offset="0%"></stop>
            <stop stop-color="#102B5E" offset="100%"></stop>
        </linearGradient>
        <linearGradient x1="50%" y1="0%" x2="15.6237544%" y2="92.3062602%" id="linearGradient-7">
            <stop stop-color="#79EDDC" offset="0%"></stop>
            <stop stop-color="#20BA97" offset="100%"></stop>
        </linearGradient>
    </defs>
    <g id="图标" stroke="none" stroke-width="1" fill="none" fill-rule="evenodd">
        <g id="切图" transform="translate(-571.000000, -940.000000)">
            <g id="default_unfiled_pic" transform="translate(570.000000, 940.000000)">
                <g id="puzzle" transform="translate(128.718112, 33.328797)" fill-rule="nonzero">
                    <path d="M75.4495002,126.676435 C74.1634684,126.015031 72.6159779,126.129383 71.4402758,126.971223 C68.0907318,129.371471 64.0952986,131.76195 61.4720924,131.76195 C54.3724841,131.76195 48.6175203,124.568102 48.6175203,115.693448 C48.6175203,106.818794 54.3724841,99.6249452 61.4720924,99.6249452 C64.0952986,99.6249452 68.0907318,102.015424 71.4402758,104.415672 C72.6154032,105.256937 74.1623191,105.368991 75.4477763,104.708161 C76.7326589,104.047332 77.5405949,102.723374 77.5405949,101.278743 L77.5405949,77.128582 L53.3904338,77.128582 C51.9458029,77.128582 50.6218452,76.320646 49.9610156,75.0357634 C49.300186,73.7503062 49.4122397,72.2028157 50.2535045,71.0282629 C52.6537525,67.6781442 55.0442317,63.6832857 55.0442317,61.0600795 C55.0442317,53.9604712 47.8503833,48.2055074 38.9757293,48.2055074 C30.1010752,48.2055074 22.9072268,53.9604712 22.9072268,61.0600795 C22.9072268,63.6832857 25.297706,67.6787189 27.697954,71.0282629 C28.5403681,72.2033903 28.6541457,73.7514555 27.9927415,75.0374873 C27.3313372,76.3235192 26.0068049,77.128582 24.5610247,77.128582 L0.410863615,77.128582 L0.410863615,141.402592 C0.410863615,148.5022 6.16640203,154.257164 13.2654357,154.257164 L77.5394456,154.257164 L77.5394456,130.107003 C77.5405949,128.662372 76.7355321,127.337265 75.4495002,126.676435 Z" id="Path" fill="#4F84FA"></path>
                    <path d="M79.6311149,27.5818778 C80.9171468,28.2432821 82.4646373,28.1289298 83.6403393,27.2870904 C86.9898834,24.8868424 90.9853166,22.4963632 93.6085227,22.4963632 C100.708131,22.4963632 106.463095,29.6902116 106.463095,38.5648656 C106.463095,47.4395197 100.708131,54.6333681 93.6085227,54.6333681 C90.9853166,54.6333681 86.9898834,52.2428889 83.6403393,49.8426409 C82.4652119,49.0013761 80.9182961,48.8893224 79.6328388,49.550152 C78.3479563,50.2109816 77.5400203,51.5349393 77.5400203,52.9795702 L77.5400203,77.1297313 L101.690181,77.1297313 C103.134812,77.1297313 104.45877,77.9376673 105.1196,79.2225499 C105.780429,80.5074324 105.668375,82.0554976 104.827111,83.2300504 C102.426863,86.5795944 100.036383,90.5750276 100.036383,93.1982338 C100.036383,100.297842 107.230232,106.052806 116.104886,106.052806 C124.97954,106.052806 132.173388,100.297842 132.173388,93.1982338 C132.173388,90.5750276 129.782909,86.5795944 127.382661,83.2300504 C126.540247,82.054923 126.426469,80.5068578 127.087874,79.220826 C127.749278,77.9347941 129.07381,77.1297313 130.51959,77.1297313 L154.669752,77.1297313 L154.669752,12.8545721 C154.669752,5.75496378 148.914213,0 141.815179,0 L77.5400203,0 L77.5400203,24.150161 C77.5400203,25.5959413 78.3456577,26.9204736 79.6311149,27.5818778 Z" id="Path" fill="#44D7B6"></path>
                    <path d="M127.087874,79.2196767 C126.426469,80.5057085 126.540822,82.0531991 127.382661,83.2289011 C129.782909,86.5784452 132.173388,90.5738783 132.173388,93.1970845 C132.173388,100.296693 124.97954,106.051657 116.104886,106.051657 C107.230232,106.051657 100.036383,100.296693 100.036383,93.1970845 C100.036383,90.5738783 102.426863,86.5784452 104.827111,83.2289011 C105.668375,82.0537737 105.780429,80.5068578 105.1196,79.2214006 C104.45877,77.936518 103.134812,77.128582 101.690181,77.128582 L77.5400203,77.128582 L77.5400203,101.278743 C77.5400203,102.723374 76.7320843,104.047332 75.4472017,104.708161 C74.1617445,105.368991 72.614254,105.256937 71.4397012,104.415672 C68.0901571,102.015424 64.0947239,99.6249452 61.4715178,99.6249452 C54.3719094,99.6249452 48.6169457,106.818794 48.6169457,115.693448 C48.6169457,124.568102 54.3719094,131.76195 61.4715178,131.76195 C64.0947239,131.76195 68.0901571,129.371471 71.4397012,126.971223 C72.6148286,126.128809 74.1628937,126.015031 75.4489256,126.676435 C76.7349574,127.33784 77.5400203,128.662372 77.5400203,130.108152 L77.5400203,154.258313 L141.81403,154.258313 C148.913638,154.258313 154.668602,148.502775 154.668602,141.403741 L154.668602,77.128582 L130.518441,77.128582 C129.073236,77.128582 127.748703,77.9342195 127.087874,79.2196767 Z" id="Path" fill="#13DCFF"></path>
                </g>
                <g id="paperplane" transform="translate(66.657593, 0.000000)" fill-rule="nonzero">
                    <polygon id="Path" fill="#4F84FA" points="48.6801555 10.5979827 36.5410032 16.6678462 0.121822498 0.48154365"></polygon>
                    <polygon id="Path" fill="#2A69F6" points="34.5177154 26.7842853 36.5410032 16.6678462 0.121822498 0.48154365"></polygon>
                    <polygon id="Path" fill="#074DE8" points="34.5177154 26.7842853 30.4711397 18.691134 20.3547007 16.6678462"></polygon>
                    <polygon id="Path" fill="#4F84FA" points="30.4711397 18.691134 20.3547007 22.7377096 0.121822498 0.48154365"></polygon>
                </g>
                <g id="plant" transform="translate(276.973794, 102.284928)" fill-rule="nonzero">
                    <path d="M36.6559301,44.4152187 C43.4435119,52.5014744 55.419468,41.719034 55.419468,41.719034 C55.419468,41.719034 50.5080676,41.2282962 49.3909782,39.5423188 C49.3909782,39.5423188 57.1663567,39.6400067 59.2999743,35.0521254 C59.2999743,35.0521254 55.8538916,35.2750835 54.1794069,34.0896127 C54.1794069,34.0896127 59.3108923,32.7495652 59.1091957,29.8786916 C58.907499,27.0078181 57.4887266,24.9494775 54.7810492,24.3771416 C54.7810492,24.3771416 53.9145004,26.9038092 51.1711957,27.9640097 C51.1711957,27.9640097 50.405208,25.4017148 51.8107638,24.4863222 C51.8107638,24.4863222 45.9845454,22.5900286 42.8918629,29.8039892 C42.8918629,29.8039892 42.4097446,28.5995554 43.5297071,24.4978149 C43.5291325,24.4978149 27.2152611,33.1678991 36.6559301,44.4152187 Z" id="Path" fill="#FFF582"></path>
                    <path d="M15.4749051,43.8854058 C19.819716,48.1704547 17.0746874,57.8518955 2.59677297,57.91568 C2.59677297,57.91568 0.487289994,52.3549426 4.99357317,50.9005429 C4.99357317,50.9005429 3.52768075,49.5421071 2.103162,50.1173162 C2.103162,50.1173162 1.63770812,46.3781699 6.71920035,46.6654872 C6.71920035,46.6654872 5.37685433,44.5560042 4.13047226,44.5560042 C4.13104689,44.5565788 10.7111857,39.1871947 15.4749051,43.8854058 Z" id="Path" fill="#FFF582"></path>
                    <path d="M23.3111948,36.8421116 C31.6341998,32.5898169 30.6147983,23.9421434 30.6147983,23.9421434 L27.2618065,26.4349075 C27.2618065,26.4349075 30.6239925,21.4493792 27.5405042,16.8471321 C27.5405042,16.8471321 26.0872537,20.2029972 24.4570158,20.4903144 C24.4570158,20.4903144 26.6624628,11.3817841 22.1561796,7.35474603 C22.1561796,7.35474603 18.7043506,12.0529571 17.2666153,12.8200941 C17.2666153,12.8200941 21.1976894,2.84846285 14.6778872,1.12283567 C8.15808496,-0.602791514 7.29498405,1.12283567 7.29498405,1.12283567 C7.29498405,1.12283567 5.95263803,7.64263787 7.29498405,9.56019296 C7.29498405,9.56019296 4.32297479,6.68357302 4.61029201,4.38273677 C4.61029201,4.38273677 0.583253943,8.793056 5.47339291,16.1759591 C5.47339291,16.1759591 1.83021065,15.2168943 0.29593673,12.8200941 C0.29593673,12.8200941 0.583828577,24.4213885 9.21253913,27.9691814 C9.21253913,27.9691814 5.37742896,29.5034554 3.45987388,28.1611093 C3.45987388,28.1611093 9.50905049,43.8934507 23.3111948,36.8421116 Z" id="Path" fill="#FFF582"></path>
                    <path d="M9.31195088,50.2718928 C10.3123894,49.0370034 11.430628,47.8946302 12.6948238,46.9028112 C13.9561463,45.9512166 15.4174417,45.0116893 17.1959352,45.0323761 C19.0399371,45.1225937 20.3524021,46.4505739 21.3706543,47.6682242 C22.4015485,48.9439127 23.2060367,50.3707299 23.8490526,51.8567346 C26.3671007,57.7404165 26.5251251,65.0308034 22.98078,70.4645466 L22.880219,70.408807 C24.1967064,67.5252915 24.7075564,64.402728 24.6592872,61.3152172 C24.5420617,58.230005 24.0030546,55.1430689 22.8468902,52.2716206 C22.2877709,50.8356092 21.5740749,49.449591 20.6558091,48.2319406 C19.7501852,47.0527908 18.5595427,45.8868575 17.1528376,45.794916 C14.2020899,45.7989384 11.5432564,48.1922908 9.39929532,50.3460207 L9.31195088,50.2718928 Z" id="Path" fill="#F2E223"></path>
                    <path d="M11.6650789,11.6846164 C10.5974081,17.188465 12.5707027,22.9531975 16.1788323,27.0825205 C19.8386789,31.2262094 23.7312526,35.5170046 25.7045472,40.9065009 C27.7904701,46.2247425 28.1708781,51.9854527 28.0777874,57.5829666 C27.8622994,63.203466 27.1440064,68.7728228 26.0447308,74.2582831 L25.9309531,74.2416187 C26.3785934,68.6670901 26.9221975,63.1149723 26.9273692,57.5628544 C26.9813849,52.0388937 26.6808511,46.4264392 24.8420209,41.2265723 C23.045139,35.9784361 19.3433441,31.7037306 15.737513,27.4508612 C12.150645,23.1077742 10.319285,17.1792708 11.5541744,11.6541608 L11.6650789,11.6846164 Z" id="Path" fill="#F2E223"></path>
                    <path d="M49.6311754,32.3047982 C48.3974353,35.8445463 45.0760483,38.0775756 41.868439,39.6428798 C38.6688745,41.2581772 35.195784,42.7275174 33.2334074,45.6426379 C31.3198748,48.5439671 31.1578279,52.2813894 31.2198884,55.7878087 C31.2744787,59.3551392 31.7807316,62.9270668 32.3749036,66.4972705 L32.2639992,66.5288754 C31.0279605,63.1017557 30.3378246,59.4947754 30.0700449,55.8320555 C29.9723571,52.2210528 30.1872703,48.2566499 32.4800617,45.1133996 C34.7659574,41.9810673 38.4074158,40.6369974 41.6167491,39.1257088 C44.8640082,37.6983169 48.1451708,35.7037608 49.5237188,32.2634245 L49.6311754,32.3047982 Z" id="Path" fill="#F2E223"></path>
                    <rect id="Rectangle" fill="#FFC628" x="17.4102739" y="55.7740175" width="22.0044761" height="30.489528"></rect>
                </g>
                <g id="man" transform="translate(21.064949, 38.878616)" fill-rule="nonzero">
                    <path d="M85.1045079,28.4673895 C85.1045079,28.4673895 84.3982821,27.5261383 84.2810567,26.7021125 C84.1632567,25.8786614 84.2810567,22.2303074 82.8691799,19.7593794 C81.4573031,17.2884514 74.7484462,17.7154047 74.7444073,18.3475026 C74.734655,19.7593794 79.0725703,18.827897 79.9247531,22.113082 C80.1517337,22.9882502 79.351268,23.835836 78.9720093,23.6433335 C77.9635258,23.1313342 77.6038047,20.6127115 76.7504726,20.7012052 C76.1040088,20.7678628 75.662115,24.8489165 77.3388982,26.5262744 C78.5214959,27.7088721 81.3395031,30.1740537 82.1049161,32.2335435 C82.8703292,34.2930333 85.8205024,29.7999667 85.1045079,28.4673895 Z" id="Path" fill="#FECFCE"></path>
                    <path d="M87.0025254,28.2185728 C86.7910599,27.9128673 86.372726,27.8352916 86.0658713,28.0444586 L80.4505436,31.8738224 C80.1040391,32.1099971 80.0126722,32.581772 80.2459738,32.9305751 C83.0421449,37.1081674 94.3900256,56.1360371 99.6576993,57.2347382 L105.210392,48.753134 C90.5957144,33.5230232 90.6979994,33.5580759 87.0025254,28.2185728 Z" id="Path" fill="#FFF25B"></path>
                    <path d="M109.628181,45.188102 C107.115305,46.3793192 102.20333,45.8966263 97.9004673,45.1145488 C96.3926265,44.8398736 94.8583526,45.431747 93.9280195,46.6465242 C92.9976863,47.8670477 92.8235721,49.4995841 93.4798046,50.886177 L104.421993,74.0341756 L81.2739948,84.9763644 C79.8874019,85.6325969 78.2548655,85.457908 77.0337673,84.5224032 C75.8189902,83.59207 75.2271167,82.0577961 75.501792,80.5499554 C76.284444,76.2528391 76.767137,71.3408641 75.5753452,68.8222414 C72.3608402,62.0214429 62.8546629,59.7631296 54.3512226,63.7809736 C45.842036,67.8051384 41.5581364,76.5798061 44.7726414,83.3863509 C45.9581122,85.8992273 50.0633005,88.6477037 53.8794477,90.7686794 C55.2194952,91.5185773 56.0326029,92.9465439 55.9831844,94.4785193 C55.9280195,96.0110693 55.0252688,97.3844456 53.6386759,98.0406781 L52.57905,98.5429086 L31.493989,108.507644 L30.4901027,108.982867 L1.36762994,47.3763099 C-1.85262139,40.5703398 1.05560344,32.4455836 7.86157359,29.2247577 L68.0476342,0.772308669 L69.2675831,0.196524974 L69.4675558,0.102859562 L80.4149163,23.2508582 C81.0654025,24.6380257 82.4387788,25.5402017 83.9713288,25.5959413 C85.5038788,25.6459345 86.937017,24.8316775 87.6811686,23.4922046 C89.8021443,19.6760574 92.5506208,15.5708691 95.0634971,14.3853982 C101.869467,11.1651469 110.644135,15.4547929 114.668874,23.9639795 C118.687293,32.4674197 116.434726,41.9730224 109.628181,45.188102 Z" id="Path" fill="#AD6DFD"></path>
                    <path d="M94.0739766,139.672368 L93.282705,143.359222 C93.282705,143.359222 93.4074007,145.202649 96.6236296,145.477325 C99.8398585,145.752 100.977635,144.104523 100.977635,144.104523 C100.977635,144.104523 101.918886,139.672368 101.879811,139.358617 C101.840736,139.044867 94.0739766,139.672368 94.0739766,139.672368 Z" id="Path" fill="#FECFCE"></path>
                    <path d="M94.5624159,142.366254 C94.2371728,142.00998 93.7073599,141.934129 93.2947723,142.182945 C91.8484175,143.054666 88.7735487,144.903265 88.5873671,144.972796 C86.9508083,145.584207 82.5812881,146.544421 82.5835857,148.189599 C82.5858852,149.914077 95.2508279,149.444026 99.8858292,149.214747 C100.825931,149.168202 101.568359,148.399341 101.580426,147.458089 L101.628159,143.644815 C101.630419,143.450589 101.529284,143.270154 101.36264,143.170742 C101.195996,143.07133 100.988553,143.068457 100.819036,143.163272 C100.043854,143.597695 98.8382707,144.161412 97.7332487,144.211405 C96.5052549,144.26657 95.2485294,143.117301 94.5624159,142.366254 Z" id="Path" fill="#FFFFFF"></path>
                    <path d="M123.055664,127.217741 L125.808163,129.794976 C125.808163,129.794976 127.452192,130.637965 129.344463,128.022229 C131.236734,125.406493 130.41041,123.583178 130.41041,123.583178 C130.41041,123.583178 127.096493,120.493369 126.806877,120.365226 C126.517836,120.237657 123.055664,127.217741 123.055664,127.217741 Z" id="Path" fill="#FECFCE"></path>
                    <path d="M125.61566,128.186575 C125.142736,128.281964 124.804851,128.69685 124.805426,129.178968 C124.807724,130.867244 124.808299,134.455836 124.772097,134.650637 C124.453175,136.36822 123.025208,140.608447 124.437085,141.453734 C125.916194,142.339821 132.0372,131.242481 134.228281,127.151658 C134.672473,126.321886 134.396074,125.289268 133.595609,124.794508 L130.351797,122.789608 C130.186877,122.687323 129.979434,122.681002 129.808768,122.772944 C129.637527,122.864885 129.528346,123.040723 129.5226,123.23495 C129.495592,124.123335 129.35768,125.446718 128.831315,126.419574 C128.245762,127.500461 126.613226,127.985453 125.61566,128.186575 Z" id="Path" fill="#FFFFFF"></path>
                    <path d="M99.7622828,85.9492205 C99.7622828,85.9492205 93.4079753,98.7756355 92.231124,105.247743 C91.0818552,111.569296 108.793812,123.729135 122.009255,128.238292 C122.547687,128.422175 123.141859,128.196918 123.421706,127.701583 L128.470444,118.768891 C128.803732,118.178742 128.623297,117.431142 128.056707,117.058779 L106.705016,103.01184 L112.470898,85.9492205 L99.7622828,85.9492205 L99.7622828,85.9492205 Z" id="Path" fill="url(#linearGradient-1)"></path>
                    <path d="M118.943005,82.6548413 C119.178605,90.5388256 111.439429,107.719246 110.660799,115.36763 C109.989052,121.967881 105.515523,137.351994 104.301895,141.445115 C104.131228,142.020324 103.550848,142.372 102.962997,142.255349 L94.0400732,140.485475 C93.6654115,140.411348 93.3390192,140.183218 93.1401957,139.8574 C92.9413722,139.531582 92.8885058,139.137383 92.9936639,138.770192 C94.1762615,134.635122 97.5556866,122.711458 98.232606,119.133209 C99.0560571,114.779204 97.8797804,96.0616371 100.350708,87.1260718 C102.821636,78.1905064 118.943005,82.6548413 118.943005,82.6548413 Z" id="Path" fill="url(#linearGradient-2)"></path>
                    <path d="M83.5828759,81.0487381 C83.5828759,81.0487381 79.2897821,80.3149299 77.3170621,80.5821349 C75.3443421,80.8493399 73.2216425,81.2670992 73.302666,81.7635833 C73.3836895,82.2594928 77.8037775,82.6588637 77.8037775,82.6588637 C77.8037775,82.6588637 76.9056239,84.1598089 74.9668073,84.2540489 C73.0285654,84.348289 71.7821833,84.5804413 71.7023091,84.9844093 C71.6224349,85.3883773 77.2917782,87.2685811 79.3259841,86.396286 C81.3596153,85.5234164 85.5211178,84.4316109 85.5211178,84.4316109 L83.5828759,81.0487381 Z" id="Path" fill="#F1B282"></path>
                    <path d="M101.428723,47.0872688 C101.428723,47.0872688 101.037971,45.4420905 100.738587,44.3014411 C100.130623,41.9850897 98.4865944,44.6795506 96.8506102,43.7233589 C96.2811475,43.3906456 95.6415793,41.0271742 95.2376113,40.7909994 C94.8175536,40.5456305 93.9090565,41.6155998 93.7016135,40.2175143 C93.4734836,38.6786433 93.3148845,33.3402894 94.6526335,31.1986269 C96.0984137,28.8834248 102.434908,27.0365498 104.262245,29.7833023 C106.089582,32.5300549 107.378488,44.820336 107.378488,44.820336 L101.428723,47.0872688 Z" id="Path" fill="#FECFCE"></path>
                    <path d="M101.818325,36.2783953 C100.698362,36.9237097 101.725234,32.9380453 100.423112,32.5426969 C99.1209908,32.1467737 92.5144188,35.723873 91.3766426,31.4135402 C90.2388665,27.1032074 94.7698589,24.3472607 97.0120824,23.758835 C99.254306,23.1704094 107.970936,21.4361627 110.120643,29.6293003 C112.27035,37.822438 106.913608,40.2416489 106.149344,39.6124242 C105.385655,38.9831995 106.662493,33.4862466 101.818325,36.2783953 Z" id="Path" fill="#423160"></path>
                    <path d="M107.410667,42.9205946 C106.770524,42.4407748 100.820759,44.4491222 100.585734,45.0973098 C100.350134,45.7449228 99.8404331,49.8633277 100.938559,49.5495773 C102.036686,49.2358269 108.901269,45.2346474 108.744394,44.8036716 C108.587518,44.3721212 107.881867,43.2734201 107.410667,42.9205946 Z" id="Path" fill="#EEDE20"></path>
                    <path d="M97.1735547,89.7147999 C97.9797668,93.4229158 107.710052,88.0581288 112.588698,87.3610972 C117.531129,86.6548715 123.06141,89.3613997 124.238262,84.0661434 C125.415113,78.7708872 118.35458,70.7691028 117.531129,65.3560465 C116.001452,51.7061803 110.470595,45.4690983 108.588093,45.1162727 C106.705591,44.7634472 100.704109,49.1737664 100.704109,49.1737664 C95.879478,59.3499675 99.8806575,67.7097491 99.8806575,73.1274025 C99.8806575,74.7668345 99.5255334,76.4361475 99.0629527,78.1181025 C98.6699028,79.5431959 98.2004264,80.9774834 97.8027794,82.4083231 C97.1206884,84.8717809 96.6546598,87.3260445 97.1735547,89.7147999 Z" id="Path" fill="url(#linearGradient-3)"></path>
                    <path d="M97.8016301,82.4088978 C102.14012,81.3509958 111.259568,78.720894 113.215624,74.9271575 C115.804352,69.9071512 109.175944,58.1788625 109.175944,58.1788625 C111.176246,67.4747236 110.234995,77.7124106 102.821636,78.1905064 C101.696502,78.263485 100.421388,78.2295816 99.0618034,78.1186771 C98.6687535,79.5431959 98.1992772,80.978058 97.8016301,82.4088978 Z" id="Path" fill="#EEDE20"></path>
                    <path d="M83.2329235,85.6360447 C83.59207,85.9348546 99.6870057,80.8286531 105.966036,77.241785 C112.245066,73.6549169 109.175944,58.1788625 109.175944,58.1788625 L99.1198415,59.9585053 L99.5542651,68.2045094 C99.5542651,68.2045094 83.6305706,77.7704487 83.3001558,78.3129036 C82.0704381,80.3241241 82.8697546,85.333787 83.2329235,85.6360447 Z" id="Path" fill="url(#linearGradient-4)"></path>
                </g>
                <g id="woman" transform="translate(1.149269, 104.008831)">
                    <path d="M35.8416731,4.15977861 C37.3736485,4.32297479 37.8040497,6.79447746 38.4056919,7.40876166 C39.0067595,8.02304586 39.9520331,8.8482209 40.0313327,9.41423581 C40.1106322,9.98025072 38.6763447,10.2738889 39.087783,11.6116379 C39.4997959,12.9493868 39.8865248,14.6411106 37.8971404,15.5248983 C35.9077561,16.4086861 36.6461613,18.1986723 36.9553146,19.9783151 C37.2638933,21.7579579 36.2243796,22.3716675 35.5026388,22.4957885 C34.7808979,22.6199096 26.9164512,21.6039559 26.6722315,16.5994647 C26.4653632,12.3598119 26.9997732,7.19499766 30.1229113,5.53430416 C33.2460494,3.87361067 34.5470217,4.02129172 35.8416731,4.15977861 Z" id="Path" fill="#FECFCE" fill-rule="nonzero"></path>
                    <path d="M53.1709235,84.1448684 L49.5082037,84.1448684 C48.9990776,83.0840932 48.6611925,82.1750215 48.4951232,81.4176534 C48.2457318,80.2816011 47.8710702,78.1657972 48.2457318,76.6320979 C48.6203935,75.0983986 52.9347487,75.2449304 53.4789276,75.7362428 C54.0231064,76.2275552 53.9346127,77.5066915 56.090641,78.6519379 C57.3933373,79.3437977 59.8045033,79.6966233 63.3235645,81.2349196 C64.0091034,81.5348788 64.4521466,82.2117982 64.4521466,82.9599722 C64.4521466,83.6449364 63.9033707,84.2040557 63.2184064,84.216123 C59.3878934,84.2850792 57.0037351,84.3195572 56.0653571,84.3195572 C55.0476795,83.9506419 54.0828683,83.4961061 53.1697742,82.9565244 L53.1697742,84.1448684 L53.1709235,84.1448684 Z" id="Path" fill="#FFFFFF"></path>
                    <path d="M54.2558333,50.2494821 C52.4980266,46.5206793 27.7312828,42.0373815 24.5374647,43.080343 C21.3436465,44.1233045 19.7145579,46.0132771 19.7145579,48.8157692 C19.7145579,52.7255818 30.7642033,58.503531 44.2353582,57.4910251 C44.8048209,63.9843941 46.0764869,76.8177048 47.3286153,78.0698332 C48.2509035,78.9921215 56.4486383,77.9911083 56.4486383,76.7826521 C56.4486383,73.0883274 56.2705016,54.5236129 54.2558333,50.2494821 Z" id="Path" fill="url(#linearGradient-5)" fill-rule="nonzero"></path>
                    <path d="M14.2595533,74.7639613 C14.2595533,74.7639613 6.95594973,74.9110678 6.03768392,80.2413767 L4.98725219,80.1770176 L7.5144944,70.6800345 L13.4918417,70.118042 L14.2595533,74.7639613 Z" id="Path" fill="#FECFCE" fill-rule="nonzero"></path>
                    <path d="M6.67208033,70.3013504 C7.7782516,70.3588138 8.42988704,70.4093817 9.77912867,70.349045 C10.2859562,70.3260597 9.37458604,71.4322309 9.05279076,73.6738798 C8.77466769,75.6138457 10.7933584,75.9931044 10.4003085,76.2442196 C9.81188284,76.6200305 9.59294712,76.4729241 7.99833658,78.1640733 C7.04099563,79.1800269 5.44753436,80.9947224 3.21795279,83.6093091 C2.75307354,84.1540625 2.01581757,84.3810431 1.32510699,84.1919884 C0.696456925,84.0195981 0.321795279,83.3748582 0.483267553,82.7427604 C1.32625626,79.4512544 1.86526335,77.3779734 2.10028883,76.5217681 C2.69503546,75.6805033 3.35529042,74.9087692 4.0810537,74.206566 L2.99039756,73.9071814 L3.91268581,70.5444208 C5.01540928,70.3438733 5.93482436,70.2628499 6.67208033,70.3013504 Z" id="Path" fill="#FFFFFF"></path>
                    <path d="M36.627773,49.6627803 C36.627773,49.6627803 22.1061864,47.0447459 21.3769753,48.7502609 C20.153004,51.6119403 22.6549623,61.2709704 25.0230307,67.1609732 C18.0619093,67.497709 9.14070982,68.3452948 8.83270577,68.8492492 C8.35288603,69.6347745 12.6459798,77.5641549 13.4136914,78.0054741 C14.181403,78.4467934 32.4725915,77.7198808 35.8123667,75.7960048 C38.9797517,73.9726897 36.627773,49.6627803 36.627773,49.6627803 Z" id="Path" fill="url(#linearGradient-6)" fill-rule="nonzero"></path>
                    <path d="M53.655915,38.9820502 C53.655915,38.9820502 56.8566287,37.1409215 58.6977574,37.2144747 C60.5388861,37.2880279 61.2749928,37.0236961 61.2014396,37.6713091 C61.1278864,38.3189221 58.918417,39.1291566 58.40297,38.9820502 C57.8875229,38.8349438 63.6315686,38.6137096 63.7051218,39.865838 C63.778675,41.1179664 61.8639931,43.9681532 59.5809705,43.6842837 C57.297948,43.4004143 52.9531371,41.4121792 52.9531371,41.4121792 L53.655915,38.9820502 Z" id="Path" fill="#FECFCE" fill-rule="nonzero"></path>
                    <path d="M36.6628257,22.5498042 C36.6628257,22.5498042 37.5075383,18.8347926 37.0512786,18.2480909 C36.5950188,17.6613891 31.380786,16.0972342 30.7946589,16.3581182 C30.2079572,16.6190023 29.8493853,20.2685055 29.8493853,20.2685055 L36.6628257,22.5498042 Z" id="Path" fill="#22BC99" fill-rule="nonzero"></path>
                    <path d="M54.1920489,38.0614859 C53.2145957,37.4747841 45.4587549,38.4528119 39.6578203,27.1773352 C37.9540292,23.4215246 37.2397587,21.9200048 36.3525231,21.0327693 C36.1037064,20.7839526 31.7818809,17.8688321 30.7940843,18.2486655 C29.9470731,18.5744832 26.4550197,21.7683014 25.8545268,27.1779098 C25.2540338,32.5875183 17.586112,40.8409926 18.8669721,49.0766532 C19.7139833,54.5242 24.2765806,51.5533276 27.6657745,51.4228856 C30.0976274,51.3292202 34.804458,55.9199746 36.645012,54.0949357 C37.655794,53.0921986 37.9138048,46.1684284 37.8661102,39.7963072 C40.9260385,42.5625973 45.6535559,44.7249467 52.9537117,44.5789896 C54.2569826,44.2531718 55.169502,38.6481876 54.1920489,38.0614859 Z" id="Path" fill="url(#linearGradient-7)" fill-rule="nonzero"></path>
                    <path d="M37.2081538,52.638812 C34.6935535,50.197765 27.5347578,41.8264906 32.3777768,29.491388 C32.3777768,29.491388 32.4237475,34.9630571 37.8310575,39.7664262 C37.8425502,39.7773443 37.8546175,39.7876877 37.8661102,39.7986058 C37.9040361,44.7645965 37.7546311,50.067323 37.2081538,52.638812 Z" id="Path" fill="#22BC99" fill-rule="nonzero"></path>
                    <polygon id="Path" fill="#052254" fill-rule="nonzero" points="44.2382313 57.5088388 44.2382313 57.49907 44.4157934 57.4783832 48.0693191 57.0215488 48.0894313 57.0215488 45.1220191 66.4311875"></polygon>
                    <path d="M12.3494685,36.0410712 C17.0540005,40.7456033 26.8687565,36.3019553 28.4731358,30.2407113 C30.0775152,24.1794674 28.94606,19.4663158 30.7291506,17.4987676 C32.5122412,15.5312193 33.1081371,15.4783529 33.1081371,14.2400157 C33.1081371,13.0016785 30.4682666,9.93830241 31.5112281,8.69996522 C32.5541895,7.46162803 39.0061849,5.99516097 37.8982897,2.86685115 C36.7903945,-0.261458664 29.1925781,-1.49979585 24.8770736,3.84430431 C20.5615691,9.18840448 22.4187875,12.8384824 20.3334392,17.2051294 C18.2480909,21.572351 4.26033964,27.9519424 12.3494685,36.0410712 Z" id="Path" fill="#423160" fill-rule="nonzero"></path>
                </g>
            </g>
        </g>
    </g>
</svg>