<?xml version="1.0" encoding="UTF-8"?>
<svg width="288px" height="218px" viewBox="0 0 288 218" version="1.1" xmlns="http://www.w3.org/2000/svg" xmlns:xlink="http://www.w3.org/1999/xlink">
    <!-- Generator: Sketch 61 (89581) - https://sketch.com -->
    <title>default_all_pic</title>
    <desc>Created with Sketch.</desc>
    <defs>
        <rect id="path-1" x="38.6013986" y="11.6171033" width="62.9370629" height="50.3496503" rx="4"></rect>
        <filter x="-23.8%" y="-29.8%" width="147.7%" height="159.6%" filterUnits="objectBoundingBox" id="filter-2">
            <feOffset dx="0" dy="0" in="SourceAlpha" result="shadowOffsetOuter1"></feOffset>
            <feGaussianBlur stdDeviation="5" in="shadowOffsetOuter1" result="shadowBlurOuter1"></feGaussianBlur>
            <feColorMatrix values="0 0 0 0 0   0 0 0 0 0   0 0 0 0 0  0 0 0 0.2 0" type="matrix" in="shadowBlurOuter1"></feColorMatrix>
        </filter>
        <filter x="0.0%" y="0.0%" width="100.0%" height="100.0%" filterUnits="objectBoundingBox" id="filter-3">
            <feGaussianBlur stdDeviation="0" in="SourceGraphic"></feGaussianBlur>
        </filter>
        <rect id="path-4" x="120.321678" y="14.6171033" width="32" height="36" rx="2"></rect>
        <filter x="-46.9%" y="-41.7%" width="193.8%" height="183.3%" filterUnits="objectBoundingBox" id="filter-5">
            <feOffset dx="0" dy="0" in="SourceAlpha" result="shadowOffsetOuter1"></feOffset>
            <feGaussianBlur stdDeviation="5" in="shadowOffsetOuter1" result="shadowBlurOuter1"></feGaussianBlur>
            <feColorMatrix values="0 0 0 0 0   0 0 0 0 0   0 0 0 0 0  0 0 0 0.2 0" type="matrix" in="shadowBlurOuter1"></feColorMatrix>
        </filter>
        <rect id="path-6" x="118.321678" y="60.8688515" width="32" height="36" rx="2"></rect>
        <filter x="-46.9%" y="-41.7%" width="193.8%" height="183.3%" filterUnits="objectBoundingBox" id="filter-7">
            <feOffset dx="0" dy="0" in="SourceAlpha" result="shadowOffsetOuter1"></feOffset>
            <feGaussianBlur stdDeviation="5" in="shadowOffsetOuter1" result="shadowBlurOuter1"></feGaussianBlur>
            <feColorMatrix values="0 0 0 0 0   0 0 0 0 0   0 0 0 0 0  0 0 0 0.2 0" type="matrix" in="shadowBlurOuter1"></feColorMatrix>
        </filter>
        <path d="M211.755245,6.58213822 C212.592964,15.0592242 214.010006,20.2436422 216.006373,22.1353924 C218.00274,24.0271426 223.037411,26.5106055 231.110386,29.5857811 C227.239181,23.5471258 225.626572,16.8985678 226.272559,9.64010717 C220.747744,11.8626187 215.908639,10.8432957 211.755245,6.58213822 Z" id="path-8"></path>
        <filter x="-77.5%" y="-65.2%" width="255.0%" height="230.4%" filterUnits="objectBoundingBox" id="filter-9">
            <feOffset dx="0" dy="0" in="SourceAlpha" result="shadowOffsetOuter1"></feOffset>
            <feGaussianBlur stdDeviation="5" in="shadowOffsetOuter1" result="shadowBlurOuter1"></feGaussianBlur>
            <feColorMatrix values="0 0 0 0 0   0 0 0 0 0   0 0 0 0 0  0 0 0 0.2 0" type="matrix" in="shadowBlurOuter1"></feColorMatrix>
        </filter>
        <linearGradient x1="50%" y1="0%" x2="50%" y2="100%" id="linearGradient-10">
            <stop stop-color="#6A548E" offset="0%"></stop>
            <stop stop-color="#423262" offset="100%"></stop>
        </linearGradient>
        <linearGradient x1="27.5616813%" y1="66.2297764%" x2="79.4332847%" y2="32.0683214%" id="linearGradient-11">
            <stop stop-color="#FC9AB1" offset="0%"></stop>
            <stop stop-color="#F47D93" offset="100%"></stop>
            <stop stop-color="#F47D93" offset="100%"></stop>
        </linearGradient>
        <linearGradient x1="58.848736%" y1="2.24001293%" x2="41.0860561%" y2="97.4464267%" id="linearGradient-12">
            <stop stop-color="#255697" offset="0%"></stop>
            <stop stop-color="#102B5E" offset="100%"></stop>
        </linearGradient>
        <linearGradient x1="51.4399482%" y1="0%" x2="46.0040837%" y2="100%" id="linearGradient-13">
            <stop stop-color="#113883" offset="0%"></stop>
            <stop stop-color="#102B5E" offset="100%"></stop>
        </linearGradient>
        <linearGradient x1="64.9373145%" y1="10.8254815%" x2="42.4382459%" y2="94.2802768%" id="linearGradient-14">
            <stop stop-color="#79EDDC" offset="0%"></stop>
            <stop stop-color="#20BA97" offset="99.9408368%"></stop>
        </linearGradient>
        <linearGradient x1="50%" y1="0%" x2="50%" y2="100%" id="linearGradient-15">
            <stop stop-color="#B57AFF" offset="0%"></stop>
            <stop stop-color="#9F56F9" offset="100%"></stop>
        </linearGradient>
        <linearGradient x1="45.9148563%" y1="0%" x2="50%" y2="118.861135%" id="linearGradient-16">
            <stop stop-color="#113883" offset="0%"></stop>
            <stop stop-color="#102C61" offset="100%"></stop>
        </linearGradient>
        <linearGradient x1="50%" y1="0%" x2="50%" y2="100%" id="linearGradient-17">
            <stop stop-color="#2562AE" offset="0%"></stop>
            <stop stop-color="#08255C" offset="100%"></stop>
        </linearGradient>
        <linearGradient x1="50%" y1="0%" x2="53.9946846%" y2="100%" id="linearGradient-18">
            <stop stop-color="#68EFFF" offset="0%"></stop>
            <stop stop-color="#1AD6FB" offset="100%"></stop>
        </linearGradient>
        <linearGradient x1="47.256601%" y1="0%" x2="50%" y2="100%" id="linearGradient-19">
            <stop stop-color="#87F1FD" offset="0%"></stop>
            <stop stop-color="#20D5F9" offset="100%"></stop>
        </linearGradient>
        <linearGradient x1="34.2608009%" y1="14.6221304%" x2="54.1392381%" y2="96.9269311%" id="linearGradient-20">
            <stop stop-color="#75F4FF" offset="0%"></stop>
            <stop stop-color="#53E9FE" offset="100%"></stop>
        </linearGradient>
    </defs>
    <g id="图标" stroke="none" stroke-width="1" fill="none" fill-rule="evenodd">
        <g id="切图" transform="translate(-602.000000, -688.000000)">
            <g id="default_all_pic" transform="translate(602.000000, 690.000000)">
                <g id="编组-4" transform="translate(47.832168, 0.131148)">
                    <rect id="矩形" fill="#4F84FA" x="0" y="0.708012349" width="214.825175" height="135.944056" rx="4"></rect>
                    <rect id="矩形备份-2" fill="#326DF0" x="45.3146853" y="26.7219984" width="62.9370629" height="62.9370629" rx="4"></rect>
                    <rect id="矩形备份-11" fill="#326DF0" x="124.195804" y="20.8478725" width="34.4055944" height="34.4055944" rx="4"></rect>
                    <rect id="矩形备份-16" fill="#326DF0" x="165.314685" y="20.8478725" width="34.4055944" height="34.4055944" rx="4"></rect>
                    <g id="矩形">
                        <use fill="black" fill-opacity="1" filter="url(#filter-2)" xlink:href="#path-1"></use>
                        <use fill="#13DCFF" fill-rule="evenodd" xlink:href="#path-1"></use>
                    </g>
                    <path d="M59.8799493,26.3135572 C59.8799493,28.4300248 61.5508448,30.1009203 63.6673124,30.1009203 C65.78378,30.1009203 67.4546755,28.4300248 67.4546755,26.3135572 C67.4546755,24.1970896 65.78378,22.5261942 63.6673124,22.5261942 C61.5508448,22.6375872 59.8799493,24.3084827 59.8799493,26.3135572 Z M76.8116902,29.2097761 L71.7990037,38.7895768 C71.5762177,39.2351489 70.9078595,39.457935 70.4622874,39.1237559 L62.7761682,33.7768904 C62.330596,33.4427113 61.7736309,33.5541043 61.5508448,33.9996764 L53.8647256,46.1415169 C53.4191535,46.8098751 53.9761187,47.7010193 54.7558699,47.7010193 L86.72567,47.7010193 C87.5054212,47.7010193 88.0623864,46.8098751 87.6168142,46.1415169 L78.2597996,29.2097761 C78.0370135,28.5414179 77.1458693,28.5414179 76.8116902,29.2097761 L76.8116902,29.2097761 Z" id="形状" fill="#EAFCFF" fill-rule="nonzero" filter="url(#filter-3)"></path>
                    <circle id="椭圆形" fill="#FA6400" cx="5.87412587" cy="5.74297738" r="1.67832168"></circle>
                    <circle id="椭圆形备份-2" fill="#F7B500" cx="10.9090909" cy="5.74297738" r="1.67832168"></circle>
                    <circle id="椭圆形备份-3" fill="#44D7B6" cx="15.9440559" cy="5.74297738" r="1.67832168"></circle>
                    <rect id="矩形" fill="#326DF0" x="45.3146853" y="98.0506697" width="25.1748252" height="10.0699301" rx="5.03496503"></rect>
                    <g id="矩形">
                        <use fill="black" fill-opacity="1" filter="url(#filter-5)" xlink:href="#path-4"></use>
                        <use fill="#FF5562" fill-rule="evenodd" xlink:href="#path-4"></use>
                    </g>
                    <g id="矩形备份-17">
                        <use fill="black" fill-opacity="1" filter="url(#filter-7)" xlink:href="#path-6"></use>
                        <use fill="#FF7440" fill-rule="evenodd" xlink:href="#path-6"></use>
                    </g>
                    <path d="M125.411422,83.8688515 L125.411422,80.7021848 L126.206294,80.7021848 C128.488345,80.7021848 130.10373,79.6252618 130.10373,77.1637233 C130.10373,74.9201336 128.821678,73.8688515 126.449883,73.8688515 L123.167832,73.8688515 L123.167832,83.8688515 L125.411422,83.8688515 Z M126.334499,79.0355182 L125.411422,79.0355182 L125.411422,75.5355182 L126.334499,75.5355182 C127.155012,75.5355182 127.731935,76.0868002 127.731935,77.2919284 C127.731935,78.5226977 127.155012,79.0355182 126.334499,79.0355182 Z M133.757576,83.8688515 L133.757576,80.7021848 L134.552448,80.7021848 C136.834499,80.7021848 138.449883,79.6252618 138.449883,77.1637233 C138.449883,74.9201336 137.167832,73.8688515 134.796037,73.8688515 L131.513986,73.8688515 L131.513986,83.8688515 L133.757576,83.8688515 Z M134.680653,79.0355182 L133.757576,79.0355182 L133.757576,75.5355182 L134.680653,75.5355182 C135.501166,75.5355182 136.078089,76.0868002 136.078089,77.2919284 C136.078089,78.5226977 135.501166,79.0355182 134.680653,79.0355182 Z M144.090909,83.8688515 L144.090909,75.7278259 L146.783217,75.7278259 L146.783217,73.8688515 L139.090909,73.8688515 L139.090909,75.7278259 L141.783217,75.7278259 L141.783217,83.8688515 L144.090909,83.8688515 Z" id="PPT" fill="#FDEFE9" fill-rule="nonzero"></path>
                    <path d="M142.277365,40.6310893 C140.582433,40.6310893 139.075827,37.7254914 138.268716,35.8422335 C136.923532,35.2772562 135.443829,34.7660862 134.017934,34.4163383 C132.753461,35.2503525 130.62807,36.4879219 128.986945,36.4879219 C127.964605,36.4879219 127.238206,35.976752 126.969169,35.0889304 C126.75394,34.3625309 126.942265,33.8513609 127.157495,33.5823241 C127.587954,32.990443 128.475775,32.6945025 129.82096,32.6945025 C130.897107,32.6945025 132.269195,32.8828283 133.802705,33.2594799 C134.798141,32.5599841 135.793577,31.7528736 136.681399,30.8919557 C136.277844,29.0086978 135.847385,25.9685815 136.950436,24.56959 C137.488509,23.8969979 138.322524,23.6817684 139.31796,23.9777089 C140.421011,24.3005531 140.824566,24.9731452 140.959085,25.4843152 C141.416447,27.3137657 139.31796,29.7889047 137.892065,31.2417036 C138.214909,32.5061767 138.618464,33.8244572 139.129634,35.035123 C141.174314,35.9498483 143.595646,37.2950325 143.864683,38.7747351 C143.972297,39.2859051 143.810875,39.7701714 143.40732,40.1737266 C143.057572,40.4696672 142.68092,40.6310893 142.277365,40.6310893 Z M139.775323,36.5417293 C140.797663,38.613313 141.766195,39.5818456 142.277365,39.5818456 C142.358076,39.5818456 142.465691,39.5549419 142.627113,39.4204235 C142.815439,39.2320977 142.815439,39.0975793 142.788535,38.9899646 C142.68092,38.4518909 141.820003,37.5640693 139.775323,36.5417293 L139.775323,36.5417293 Z M129.82096,33.7706499 C128.502679,33.7706499 128.126027,34.0934941 128.018413,34.2280125 C127.991509,34.2818199 127.883894,34.4163383 127.991509,34.7929899 C128.07222,35.1158341 128.28745,35.4386783 128.986945,35.4386783 C129.847863,35.4386783 131.085433,34.954412 132.538232,34.0934941 C131.488988,33.8782646 130.574263,33.7706499 129.82096,33.7706499 L129.82096,33.7706499 Z M135.147889,33.6092278 C136.008807,33.8513609 136.896628,34.1473014 137.730643,34.4701457 C137.434702,33.6899388 137.192569,32.8828283 136.977339,32.1026215 C136.385458,32.6137915 135.766674,33.1249615 135.147889,33.6092278 Z M138.483946,24.9193379 C138.188005,24.9193379 137.972776,25.0269526 137.78445,25.2421821 C137.219473,25.9416779 137.165665,27.717321 137.596124,29.9772304 C139.237249,28.228491 140.12507,26.6142699 139.909841,25.7533521 C139.882937,25.6188336 139.775323,25.2421821 139.022019,25.0269526 C138.80679,24.9462415 138.645368,24.9193379 138.483946,24.9193379 L138.483946,24.9193379 Z" id="形状" fill="#FFE8EA" fill-rule="nonzero"></path>
                    <g id="路径-3">
                        <use fill="black" fill-opacity="1" filter="url(#filter-9)" xlink:href="#path-8"></use>
                        <use fill="#FFFFFF" fill-rule="evenodd" xlink:href="#path-8"></use>
                    </g>
                    <path d="M108.812649,147.221083 C106.951645,155.53708 104.403373,161.583388 101.167832,165.360006 C106.247625,165.178909 114.655352,162.810479 115.233179,162.355965 C115.811007,161.901451 122.661255,156.116753 123.836393,146.868852 C117.330185,150.256856 112.32227,150.374266 108.812649,147.221083 Z" id="路径-5" fill="#4F84FA"></path>
                </g>
                <g id="中人" transform="translate(180.000000, 31.000000)">
                    <g id="编组-3" transform="translate(36.440559, 0.517195)">
                        <path d="M4.79113734,2.24108272 L0.277510973,20.8573941 C-0.581648225,24.0620111 0.55412593,26.0973297 3.68483344,26.9633497 C6.81554095,27.8293696 13.1976437,29.4257529 22.8311416,31.7524995 C25.8473985,32.456667 27.8373422,30.4185418 28.8009726,25.6381239 C29.7646031,20.857706 30.9292238,15.1512361 32.2948347,8.51871417 C32.8043009,6.405871 31.6396802,5.06721227 28.8009726,4.50273796 C24.5429112,3.65602651 12.5532009,0.790137167 9.13495892,0.127644655 C6.85613093,-0.31401702 5.4081904,0.390462337 4.79113734,2.24108272 Z" id="中人右手文件" fill="url(#linearGradient-10)"></path>
                        <path d="M21.7110962,10.3147321 L19.008196,10.3147321 L20.0308852,8.91143048 C20.2239495,8.59039213 20.1599625,8.19102482 19.8654015,7.97258635 C19.5520857,7.78503817 19.140583,7.85123165 18.9364864,8.1226249 L17.3544624,10.309216 L15.6554965,10.3158354 L15.647774,10.309216 L14.0646467,8.11931522 C13.8660663,7.85454132 13.3872668,7.7861414 13.1191832,7.98472183 C12.8422739,8.19102482 12.7782868,8.59039213 12.9823834,8.92797883 L13.9951435,10.3158354 L11.4775851,10.3158354 C10.0544254,10.3147321 8.94016854,11.428989 8.94016854,12.8521487 L8.94016854,20.4357144 C8.94016854,21.8577709 10.0544254,22.9709245 11.4775851,22.9709245 L21.7110962,22.9709245 C23.1342559,22.9709245 24.2485128,21.8566676 24.2485128,20.4357144 L24.2485128,12.8521487 C24.2485128,11.4289889 23.1342559,10.3147321 21.7110962,10.3147321 Z M18.8272672,17.0377827 C18.7456286,17.078602 18.551461,17.1745825 18.153197,17.4239113 C17.9049714,17.589395 17.5872428,17.7725303 17.219869,17.9854526 C16.9771596,18.1244589 16.7167986,18.2767039 16.4476118,18.4377747 C16.2435152,18.5503036 16.0636896,18.6628325 15.8982059,18.7654324 C15.7249997,18.8713419 15.5716515,18.9684257 15.4304387,19.0390321 C15.3407406,19.0851376 15.253132,19.1351996 15.1678713,19.1890706 C15.1193294,19.2188577 15.0796133,19.2442319 15.0531359,19.2574705 C15.058652,19.2552641 15.0696843,19.2486447 15.0597553,19.2486447 L14.9714973,19.2486447 L14.8887555,19.3324898 C14.8273267,19.3680802 14.7578474,19.3874433 14.6868654,19.3887543 C14.4220915,19.3887543 14.1992401,19.1438384 14.1992401,18.8536903 L14.1992401,14.4341727 C14.1992401,14.1296827 14.4309172,13.8527733 14.6868654,13.8527733 C14.7398201,13.8527733 14.8611748,13.890283 14.9560521,13.9222765 C15.0034908,13.9575797 15.0696843,13.9950893 15.1800067,14.0579731 C15.2495099,14.096586 15.3300453,14.1429214 15.407271,14.1892568 C15.6830771,14.3734953 16.0052187,14.5577338 16.3538377,14.7563143 C17.6909459,15.4998876 18.5867642,16.0161967 18.7809318,16.1563063 C18.8835316,16.2081578 19.0004735,16.4133576 19.0357941,16.5733251 C19.0371252,16.7510187 18.9605126,16.9203727 18.826164,17.0366795 L18.8272672,17.0377827 Z" id="形状" fill="#FFFFFF" fill-rule="nonzero" transform="translate(16.594341, 15.418477) rotate(14.000000) translate(-16.594341, -15.418477) "></path>
                    </g>
                    <g id="编组-6" transform="translate(0.000000, 28.000000)">
                        <path d="M60.4034442,4.54897911 C60.6344791,2.32630502 61.1302309,1.7706365 61.8906996,2.88197354 C63.0314026,4.54897911 63.7516096,-0.885790883 64.5399842,0.126819045 C65.3283588,1.13942897 66.3898233,3.40927125 64.5399842,6.28478738 C63.3067582,8.20179814 62.8040934,9.45023281 63.0319899,10.0300914 C63.7340155,15.31495 63.189747,18.9881503 61.3991843,21.0496923 C59.6086216,23.1112344 57.3946399,22.3502809 54.7572391,18.7668317 C58.5213758,13.1619161 60.4034442,9.39104506 60.4034442,7.45421868 C60.4034442,5.5173923 60.4034442,4.54897911 60.4034442,4.54897911 Z" id="中人手" fill="#FECFCE"></path>
                        <path d="M43.0137556,18.7668317 C43.8207641,20.0725279 44.4060557,20.975691 44.7696304,21.4763212 C45.3149925,22.2272665 44.98784,23.2413847 45.4334861,24.4995274 C45.8791322,25.7576701 46.8309662,27.0707743 45.8002983,28.0041544 C45.1131864,28.6264078 44.0484165,29.2750471 42.6059886,29.9500723 L42.2019448,33.7533615 C40.5897624,33.9350949 39.54663,33.158735 39.0725476,31.4242819 C38.3614239,28.8226022 35.1133712,23.5412221 37.0929594,21.6916189 C38.4126849,20.4585501 40.3862836,19.483621 43.0137556,18.7668317 Z" id="中人脸" fill="#FFCBC3"></path>
                        <path d="M9.4606195,61.2766094 C10.8822587,60.3494179 12.4565836,59.3535551 14.1835942,58.2890211 L19.1610053,59.7296038 L29.5044136,54.748523 L29.5044136,72.2010624 L19.1610053,79.0647275 C17.6944624,79.9337798 16.4982582,79.0070987 15.5723926,76.2846842 C14.1835942,72.2010624 9.77659343,63.8091046 9.4606195,63.0331988 C9.14464557,62.257293 8.80475161,61.7867843 9.4606195,61.2766094 Z" id="中人文件" fill="url(#linearGradient-11)"></path>
                        <path d="M27.9370131,80.4372988 C26.1900662,98.4988607 23.175109,111.168036 18.8921415,118.444825 C14.6091741,125.721614 10.8024114,130.899765 7.47185352,133.979281 L15.0980317,140.912719 C29.2826655,127.978985 37.8754876,116.58616 40.8764979,106.734242 C42.2464494,101.818347 43.0949048,98.54674 43.4218643,96.9194194 L28.9890634,77.5718745 L27.9370131,80.4372988 Z" id="中人左腿" fill="url(#linearGradient-12)"></path>
                        <path d="M31.6438777,80.70183 C37.9164633,93.5966955 44.152375,101.372297 50.351613,104.028635 C46.0773679,109.044878 40.6237794,114.696748 33.9908473,120.984247 L38.9194378,127.837982 C54.395772,119.095014 62.5244159,113.999185 63.3053695,112.550495 C64.4768,110.37746 67.2213986,107.615513 64.4074089,102.782335 C61.5934193,97.9491577 54.6602493,82.8926698 52.5059311,82.2868677 C50.351613,81.6810655 34.8933875,76.1471294 32.810743,78.015666 C31.4223133,79.2613571 31.0333582,80.1567451 31.6438777,80.70183 Z" id="中人右腿" fill="url(#linearGradient-13)"></path>
                        <path d="M28.0349615,80.2709873 C27.573389,83.9677234 27.3426027,86.1247615 27.3426027,86.7421016 C27.3426027,87.3594416 27.573389,87.4794366 28.0349615,87.1020863 C31.0298971,85.8848889 33.7155828,85.2762902 36.0920188,85.2762902 C39.6566727,85.2762902 45.7938895,84.9311256 47.6792369,84.3088312 C48.9361351,83.8939683 50.468167,83.4474999 52.2753326,82.9694261 C48.9984277,79.3832627 44.7922077,77.5901809 39.6566727,77.5901809 C34.5211376,77.5901809 30.6472339,78.483783 28.0349615,80.2709873 Z" id="中人腿阴影" fill="#000000" opacity="0.2"></path>
                        <path d="M55.193897,17.7056013 C54.0424265,18.1858024 53.3074678,19.1952372 52.9890208,20.7339055 C52.8863164,21.7830933 52.3565556,22.9404688 51.3997384,24.2060319 C49.9645127,26.1043766 44.9477075,32.679463 43.459337,32.679463 C41.9709664,32.679463 37.5289475,31.648201 36.3882325,32.163832 C35.2475175,32.679463 33.3944092,35.2769148 33.3944092,36.3072278 C33.3944092,37.3375408 31.8275868,35.8134241 30.3515534,37.1012363 C28.8755201,38.3890485 24.6818265,40.4487256 18.7561821,53.1819649 C16.7888758,57.4076086 19.0155903,60.7734455 21.9806159,58.6815019 C24.9456414,56.5895584 27.3200526,56.0210923 27.3200526,55.48743 C27.3200526,54.9537677 27.5345631,75.6587325 26.6431224,77.657989 C25.7516818,79.6572455 25.1104646,80.4480906 28.6974218,79.7749233 C32.2843789,79.1017559 40.1871362,79.0318452 44.2536618,81.5511614 C48.3201875,84.0704777 54.7130632,82.4271015 54.7130632,82.4271015 C54.7130632,82.4271015 50.4893175,81.1105025 50.4893175,78.2707358 C50.4893175,75.4309691 49.7965372,73.6493532 49.1771473,72.6484596 C48.5577574,71.647566 49.1771473,70.3097724 49.1771473,68.5806686 C49.1771473,66.8515648 47.971583,63.5165784 47.971583,61.4029582 C47.971583,59.2893379 48.6286171,57.3478207 49.1771473,56.5895584 C49.7256775,55.8312961 49.713973,47.9348656 49.1771473,46.6616049 C48.6403216,45.3883443 50.4035899,44.1375436 51.3997384,42.108235 C52.395887,40.0789264 58.2054353,28.7635143 58.2054353,28.1950548 C58.2054353,27.6265953 61.8300367,23.3753282 61.7721468,21.417512 C59.7323991,18.1291779 56.3736791,17.7974259 55.193897,17.7056013 Z" id="中人衣服" fill="url(#linearGradient-14)"></path>
                        <path d="M55.193897,17.7056013 C55.8426613,17.7418034 59.4023416,17.7676013 61.772833,21.417512 C61.772833,22.3474019 61.0263075,23.8634999 59.5332564,25.9658061 C55.5309524,23.4921809 53.5298004,21.6566457 53.5298004,20.4592008 C53.5298004,18.6630333 54.3117699,18.0012673 55.193897,17.7056013 Z" id="中人袖子" fill="#34B39B" opacity="0.171130952"></path>
                        <path d="M27.2419601,47.7523929 C27.9878478,52.1936828 28.1539041,54.67565 27.740129,55.1982946 C27.3263538,55.7209391 26.2835763,56.3567323 24.6117963,57.105674 L27.2419601,47.7523929 Z" id="中人手臂阴影" fill="#34B39B"></path>
                        <path d="M32.3398417,22.273029 C32.7831816,21.1340261 36.3337731,18.4920556 36.7960427,17.4038185 C37.2583122,16.3155813 36.5494189,14.4529513 38.1030458,13.569498 C39.6566727,12.6860448 43.4450662,11.4283016 43.4450662,18.0134378 C42.2902169,19.3332041 41.2783435,20.3734002 40.409446,21.1340261 C39.6829507,21.7551179 39.6829507,22.5347451 40.409446,23.4729078 C38.5128287,24.4619796 38.020231,25.5792565 39.6566727,26.658244 C41.2931144,27.7372314 41.1622194,30.3908178 40.409446,31.0004371 C39.6566727,31.6100564 35.1302166,33.2016958 34.3382056,33.0661302 C33.5461946,32.9305645 35.3528754,31.1826345 34.3382056,29.9612448 C33.3235358,28.7398551 31.7529087,25.2717502 32.3398417,22.273029 Z" id="中人头发" fill="#423160"></path>
                        <polygon id="中人右脚" fill="#F5CBC6" points="31.8607257 123.474019 35.1982113 120.944045 39.6566727 127.263964 34.4263369 130.708097"></polygon>
                        <polygon id="中人左腿" fill="#FCCCCB" points="9.41002734 134.758016 6.55455188 135.297942 9.41002734 142.005949 14.7476487 140.300524"></polygon>
                        <path d="M32.5877631,122.95532 C29.0162797,123.400968 26.7347247,124.208922 25.7430982,125.379182 C25.0566897,126.04497 25.8517876,132.823278 28.1283917,145.714105 C30.7454898,144.143293 32.0540388,142.342456 32.0540388,140.311594 C32.0540388,137.265301 33.4558438,131.844099 34.3598225,131.076295 C34.962475,130.564426 34.3717886,127.857435 32.5877631,122.95532 Z" id="中人右鞋" fill="#FFFFFF"></path>
                        <path d="M6.70660696,135.02486 C3.29395804,134.239172 1.39175572,134.42776 1,135.590625 C0.184600144,137.044016 2.44333989,156.552858 2.88005034,156.588328 C3.31676079,156.623799 6.70660696,154.305092 6.70660696,149.635079 C6.70660696,146.521737 7.77049532,143.99117 9.89827203,142.043378 C8.4595801,137.364366 7.56796294,135.02486 7.22342055,135.02486 C6.87887815,135.02486 6.70660696,135.02486 6.70660696,135.02486 Z" id="中人左鞋" fill="#FFFFFF"></path>
                    </g>
                </g>
                <g id="左人" transform="translate(0.395191, 21.835936)">
                    <path d="M37.8001477,17.9931809 C36.8452887,16.230172 37.7624035,14.6513954 40.551492,13.2568511 C43.3405804,11.8623069 51.3192045,7.82792887 64.4873641,1.15371702 C66.0855681,0.409192722 67.2954938,0.909127606 68.1171411,2.65352167 C68.9387884,4.39791573 72.3901208,11.0335042 78.4711385,22.5602871 C79.0169042,24.0919153 78.7188893,25.140608 77.5770937,25.7063651 C76.4352981,26.2721223 67.6956211,30.3542272 51.3580627,37.9526797 C50.206557,38.6415269 49.1844244,38.05535 48.2916647,36.1941489 C47.3989051,34.3329478 43.9017328,28.2659585 37.8001477,17.9931809 Z" id="左人文件" fill="url(#linearGradient-15)"></path>
                    <path d="M65.0019576,16.124117 C64.917264,15.7629357 64.7275644,15.4349013 64.4567607,15.1813459 C64.2177127,14.9166086 63.9420462,14.6874044 63.6381267,14.5006887 C63.3971095,14.3635544 63.1465063,14.2439993 62.8882714,14.1429557 C62.6349646,14.0445406 62.3622264,13.9368992 62.0700568,13.8200314 C61.7093408,13.6656214 61.3665038,13.4724065 61.0476031,13.2438003 C60.6472812,12.9993023 60.2833289,12.6997263 59.9664359,12.3538713 C59.7005476,12.0519162 59.4768771,11.7815545 59.2954244,11.5427862 C59.1422806,11.3339372 58.9622042,11.146246 58.7598734,10.9845886 C58.565537,10.8462741 58.323408,10.792703 58.0888619,10.8361273 C57.4617942,10.8748279 56.9835557,11.412448 57.0181792,12.0397541 C57.0055978,13.7622964 56.9991672,15.3100962 56.9988876,16.6831535 L56.9988876,20.7863886 C56.7022884,20.6907889 56.3996673,20.6149935 56.0930222,20.5595028 C55.0894022,20.3757426 54.0559788,20.4418529 53.0839551,20.7519993 C52.5016528,20.939633 51.9689282,21.255656 51.5251116,21.6767369 C51.0902138,22.0254181 50.8242524,22.5427008 50.7936206,23.0992813 C50.7890933,23.6087752 50.9651692,24.1034222 51.2906769,24.4954045 C51.6771502,24.9558887 52.1678296,25.3176084 52.7220283,25.55057 C53.3745167,25.8363029 54.0857991,25.9621109 54.7967119,25.9175294 C55.444023,25.9035336 56.0838254,25.7757719 56.6868673,25.5400855 C57.1378114,25.3601876 57.5505164,25.0963411 57.9030756,24.7625509 C58.1861542,24.494658 58.4000056,24.1620802 58.5262775,23.7933587 C58.6306384,23.4936134 58.6802163,23.1775363 58.6726419,22.8602334 L58.6726419,20.0847622 C58.6726419,19.4101161 58.6758571,18.6949297 58.6822877,17.9392031 C58.6885784,17.1843151 58.6919334,17.3176787 58.6919334,16.6659588 L58.6919334,14.2754804 C58.6789999,14.110171 58.7732481,13.9551174 58.9259487,13.8904876 C59.1780381,13.8507334 59.4317846,13.9513321 59.5881531,14.1530208 C59.9416374,14.4761683 60.3156696,14.7760945 60.7079035,15.0509181 C61.1693632,15.3769373 61.6982651,15.5949481 62.2554237,15.6887983 C62.6999202,15.7366302 63.1253054,15.8952484 63.4926011,16.1501187 C63.7807886,16.4085654 63.9586958,16.767833 63.989569,17.1537003 C64.004553,17.3550755 64.0607972,17.5512166 64.1548056,17.7299313 C64.2064498,17.8210594 64.2955591,17.8848623 64.3984666,17.9043943 C64.5409426,17.8842631 64.6647834,17.7962297 64.7306173,17.6682822 C64.8713401,17.4731169 64.9676726,17.249534 65.0128615,17.0132072 C65.0709236,16.7194519 65.0673534,16.4168401 65.0023769,16.1245364 L65.0019576,16.124117 Z" id="路径" fill="#F2E8FF" fill-rule="nonzero" transform="translate(57.923765, 18.373854) rotate(-28.000000) translate(-57.923765, -18.373854) "></path>
                    <path d="M43.2167832,30.6293706 C42.0990322,31.4092607 41.7327431,32.3975482 42.1179161,33.5942332 C42.2034432,33.8599557 42.4149489,34.3048499 42.3856559,34.7745704 C42.3419913,35.4747408 42.0566835,36.2404726 42.3856559,36.6339677 C43.3268515,37.7597637 45.3715329,38.0781566 45.5736474,37.7226244 C45.8937991,37.1594575 46.189667,33.5629545 46.189667,32.7107048 C46.189667,31.8584551 45.8068421,31.6319478 46.189667,31.1306592 C46.572492,30.6293706 47.1824406,29.8879066 45.5736474,29.8484457 C44.2604246,29.7802371 43.4748032,30.0405455 43.2167832,30.6293706 Z" id="左人左手" fill="#FECFCE"></path>
                    <polygon id="左人左脚" fill="#FECFCE" points="33.17682 119.992996 29.2862546 121.287774 30.5818451 127.152211 35.9772033 124.438543"></polygon>
                    <path d="M33.8233517,79.4821453 C40.680824,84.0820864 45.8555926,87.6406622 49.3476575,90.1578726 C54.5857549,93.9336882 60.6398955,102.565206 56.2637466,107.361633 C53.346314,110.559251 47.0094626,116.574766 37.2531925,125.408178 C35.6882554,126.169402 34.4908571,125.755809 33.6609978,124.1674 C32.4162087,121.784785 32.2811671,118.74791 34.7671798,116.977662 C37.2531925,115.207414 38.6437195,108.280183 40.2397057,105.967541 C41.835692,103.654898 42.4498414,104.384936 43.3180294,102.717189 C43.8968214,101.605358 42.3479289,100.703445 38.6713517,100.01145 C28.3321299,90.665207 23.5315435,84.7691348 24.2695924,82.3232335 C25.3766658,78.6543815 29.5584975,75.07734 30.3616159,75.9410712 C30.8970282,76.516892 31.9110958,77.5616757 33.4038185,79.0754223 L33.8233517,79.4821453 Z" id="左人左腿" fill="url(#linearGradient-16)"></path>
                    <path d="M32.3079261,92.0398051 C36.1673168,92.5153699 38.8888403,93.5810305 40.4724964,95.236787 C42.8479805,97.7204217 42.253631,99.8974703 45.4327472,101.078194 C48.6118635,102.258917 52.8507915,103.742398 51.0773136,108.086606 C49.3038357,112.430813 46.6909945,117.473054 46.0618709,117.473054 C45.4327472,117.473054 36.979185,109.584124 39.4405594,106.479661 C41.0814757,104.410018 42.4401772,103.042238 43.5166637,102.37632 C44.0810935,102.028153 43.5428502,101.595445 41.9019339,101.078194 C39.4405594,100.302317 33.720583,99.4039336 33.0142546,97.3203603 C32.5433689,95.9313114 32.3079261,94.1711264 32.3079261,92.0398051 Z" id="左人左腿阴影" fill="#08255C"></path>
                    <polygon id="左人右脚" fill="#FECFCE" points="45.7745774 139.601438 45.7745774 144.12671 50.7420741 146.463753 50.7420741 138.777237"></polygon>
                    <path d="M24.7176849,80.5959862 L39.4405594,101.296947 C44.5430486,107.646929 48.0732149,114.341168 50.0310586,121.379664 C51.9889022,128.418161 52.6767218,134.717352 52.0945172,140.277239 C48.7994399,141.852141 46.4832845,141.852141 45.1460508,140.277239 C43.1402004,137.914885 38.9192323,118.897318 34.280103,115.54185 C30.5831599,111.736369 15.7128648,94.4481082 13.9005114,93.3656226 C12.6922759,92.6439656 16.2980003,88.3874201 24.7176849,80.5959862 Z" id="左人右腿" fill="url(#linearGradient-17)"></path>
                    <path d="M8.01751089,46.9373007 C16.8181824,67.6152825 21.8619112,77.9542734 23.1486972,77.9542734 C24.4354833,77.9542734 26.0906754,76.9690176 28.1142737,74.9985059 L15.3355613,46.9373007 C15.6065497,49.1824516 14.9207182,50.0747505 13.2780668,49.6141974 C11.6354153,49.1536443 9.88189667,48.2613454 8.01751089,46.9373007 Z" id="左人衬衫" fill="#FFFFFF"></path>
                    <path d="M41.2065836,36.8848169 C39.5646474,41.3965851 36.3304257,47.9310453 32.5105313,48.8276233 C27.7331609,49.8301167 16.377574,48.2827488 15.4895893,47.5161647 C14.5894875,47.5161647 21.0609451,60.0536206 21.9804802,61.6549194 C22.9000153,63.2562181 27.6533851,82.7578146 35.3350008,87.804512 C36.7399096,87.8356052 40.5701432,85.1085505 41.5384615,83.9270096 C40.1306665,82.1828194 31.711045,76.4360682 28.5363399,68.1860875 C25.3616349,59.9361067 24.7795522,58.0908637 24.7795522,58.0908637 C24.7795522,58.0908637 32.5665647,60.1425563 36.5945032,57.2925006 C40.4956651,54.5321484 46.2140097,48.1704696 46.2140097,38.0010132 C46.2140097,37.1289333 43.0330446,35.98547 42.14589,35.4057754 C41.8747105,35.2285781 41.5001083,36.2020125 41.2065836,36.8848169 Z" id="左人左衣服" fill="url(#linearGradient-18)"></path>
                    <path d="M7.83391079,46.4505425 C1.99305762,47.1926256 -0.349762327,52.5213433 0.805450937,62.4366957 C1.66878123,66.1996934 6.59075623,73.6001073 6.59075623,76.3913024 C6.59075623,79.1824975 7.0947933,82.2570209 8.61237944,83.3362693 C10.1299656,84.4155177 12.0023966,85.6251383 11.0661811,89.1359464 C10.4420374,91.4764851 12.9667852,95.5375251 18.6404244,101.319066 C21.7403836,97.1204684 24.1591684,94.3682823 25.8967789,93.062508 C27.6343893,91.7567338 29.2327309,90.8400228 30.6918036,90.312375 C32.2868374,89.1580743 32.2868374,87.625432 30.6918036,85.7144483 C29.0967698,83.8034646 21.4774722,70.715496 7.83391079,46.4505425 Z" id="左人右衣服" fill="url(#linearGradient-19)"></path>
                    <path d="M1.84147234,64.7709905 C4.89248737,72.2135523 13.0016778,76.8708544 19.02244,75.4903726 C23.0362815,74.5700514 25.6103185,71.6449945 26.744551,66.7152018 C28.8336708,61.2914182 30.1342031,58.2367001 30.6461482,57.5510477 C31.4140658,56.5225691 28.3609483,57.5526329 27.3691777,55.6625003 C25.5570495,57.8839879 20.4596924,67.1586472 16.0191405,62.3122122 C11.5785886,57.4657772 8.41809808,46.0253457 7.05367602,46.2941004 C-0.370885643,49.6677898 -0.771699272,57.8600614 1.84147234,64.7709905 Z" id="左人左袖子" fill="url(#linearGradient-20)"></path>
                    <path d="M23.9160839,52.027972 L38.1818182,52.027972 C38.413546,52.027972 38.6013986,52.2158246 38.6013986,52.4475524 C38.6013986,52.6792803 38.413546,52.8671329 38.1818182,52.8671329 L23.9160839,52.8671329 C23.684356,52.8671329 23.4965035,52.6792803 23.4965035,52.4475524 C23.4965035,52.2158246 23.684356,52.027972 23.9160839,52.027972 Z" id="左人笔" fill="#FFFFFF" transform="translate(31.048951, 52.447552) rotate(7.000000) translate(-31.048951, -52.447552) "></path>
                    <path d="M28.1136258,52.0403768 C26.7094735,53.165956 26.5582509,54.5461864 27.6599582,56.181068 C29.312519,58.6333904 31.9575153,56.7573452 32.4320085,55.7139162 C32.9065018,54.6704872 33.0074833,51.4969644 31.8953383,51.1225538 C31.1539083,50.8729467 29.8933375,51.1788877 28.1136258,52.0403768 Z" id="左人右手" fill="#FECFCE"></path>
                    <path d="M9.31679092,42.2940774 C8.312684,44.9596562 7.93743793,46.7093085 8.19105274,47.5430344 C8.57147494,48.7936233 12.0212348,51.1687452 14.1698222,50.2423534 C15.6022138,49.6247588 15.8686351,48.2189403 14.9690861,46.0248979 L9.31679092,42.2940774 Z" id="左人脖子" fill="#F9B3A9"></path>
                    <path d="M8.83222358,42.2969831 C8.59254396,42.0434436 5.53347994,37.7916217 7.99641778,38.1837442 C10.4593556,38.5758668 11.7545079,34.8205413 12.0116167,34.8205413 C12.2687254,34.8205413 18.2378859,34.2434602 19.6710532,35.2410073 C21.1042204,36.2385543 19.6710532,40.62617 19.6710532,40.972752 C19.6710532,41.3193339 18.4484576,45.8773842 15.5729313,45.8773842 C13.6559137,45.8773842 11.9237523,44.9795588 10.376447,43.1839081 C9.50675115,42.7616511 8.99200999,42.4660095 8.83222358,42.2969831 Z" id="左人脸" fill="#FECFCE"></path>
                    <path d="M9.51297084,39.0295039 C7.94249491,38.8579044 7.15725694,38.1323863 7.15725694,36.8529497 C7.15725694,34.9337948 8.61258233,33.2868267 10.2193874,33.2868267 C11.8261926,33.2868267 13.2633726,31.5091576 14.2712029,30.8649743 C15.2790332,30.220791 19.5197233,30.888348 20.1275352,31.9291789 C20.7353471,32.9700097 21.0114607,37.0499654 20.1275352,36.498939 C19.2436097,35.9479127 19.3383221,35.2591508 17.1322377,35.0425706 C14.9261534,34.8259903 13.3828618,34.7643093 11.8019657,35.8870796 C10.2210696,37.0098499 11.2305901,39.0295039 10.5191268,39.0295039 C10.0448179,39.0295039 9.70943255,39.0295039 9.51297084,39.0295039 Z" id="左人头发" fill="#423160"></path>
                    <path d="M44.7426576,143.597095 C44.5694241,142.830668 45.3101659,142.830668 46.9648831,143.597095 C48.6196002,144.363522 49.966003,144.609712 51.0040914,144.335664 L59.8173443,153.907018 C60.5046537,155.64104 59.6858256,156.508051 57.3608599,156.508051 C53.8734114,156.508051 46.1493359,151.70504 44.7426576,149.765163 C43.804872,148.471911 43.804872,146.415889 44.7426576,143.597095 Z" id="左人右鞋" fill="#FFFFFF"></path>
                    <path d="M30.3366016,120.406794 C28.4817432,120.406794 26.3996974,122.306686 26.3996974,126.222182 C26.3996974,128.832513 26.0128178,133.164697 25.2390586,139.218735 C26.5448563,140.495267 27.835569,140.094296 29.1111968,138.015823 C31.0246385,134.898113 33.0773677,126.222182 32.6288836,126.222182 C32.1803995,126.222182 29.2957392,124.880795 30.3366016,120.406794 Z" id="左人左鞋" fill="#FFFFFF"></path>
                    <path d="M3.37471572,68.5063975 C3.37471572,68.5063975 16.8353139,77.679732 20.6042671,74.6870842 C23.1169026,72.6919857 25.3652739,69.5134688 27.3493808,65.1515336 L29.6285218,70.5878679 C27.4077678,75.5541566 24.3996829,78.0096251 20.6042671,77.9542734 C12.8460929,77.9542734 3.37471572,68.5063975 3.37471572,68.5063975 Z" id="左人右手阴影" fill="#000000" opacity="0.100000001"></path>
                </g>
            </g>
        </g>
    </g>
</svg>