<?xml version="1.0" standalone="no"?><!DOCTYPE svg PUBLIC "-//W3C//DTD SVG 1.1//EN" "http://www.w3.org/Graphics/SVG/1.1/DTD/svg11.dtd"><svg t="1637138347382" class="icon" viewBox="0 0 1024 1024" version="1.1" xmlns="http://www.w3.org/2000/svg" p-id="995" xmlns:xlink="http://www.w3.org/1999/xlink" width="200" height="200"><defs><style type="text/css"></style></defs><path d="M491.52 603.477333l-67.925333 8.874667c-7.168 0.682667-13.653333-4.437333-14.336-11.946667l-8.533334-64.853333c-1.365333-7.509333 3.754667-14.677333 10.922667-16.042667l53.930667-9.557333c3.754667-0.682667 6.826667 0.341333 9.557333 2.389333l14.336 11.264c2.730667 2.048 4.778667 5.461333 5.12 9.216l8.533333 54.272c1.365333 7.850667-4.096 15.36-11.605333 16.384z" fill="#5D5E6B" p-id="996"></path><path d="M498.688 537.258667l55.978667-6.826667 31.744 25.941333 7.850666 68.949334c0.341333 4.096-2.389333 7.509333-6.144 7.850666l-76.8 9.216c-4.096 0.341333-7.168-2.389333-7.850666-6.485333l-10.922667-90.794667c-0.341333-3.754667 2.730667-7.509333 6.144-7.850666z" fill="#3F1D06" p-id="997"></path><path d="M588.8 635.221333l-76.8 9.216c-4.778667 0.341333-9.216-2.730667-9.557333-7.850666l-10.922667-90.794667c-0.341333-4.778667 2.730667-9.557333 7.509333-9.898667l56.661334-6.826666 32.426666 26.965333 8.533334 69.632c0 4.437333-3.072 8.874667-7.850667 9.557333z m-89.770667-96.256c-2.730667 0.341333-5.12 3.072-4.778666 6.485334l10.922666 90.794666c0.341333 3.072 3.072 5.461333 6.144 5.12l77.141334-9.216c2.730667-0.341333 5.12-3.072 4.778666-6.485333l-7.850666-68.266667-30.378667-25.258666-55.978667 6.826666z" fill="#EFAB60" p-id="998"></path><path d="M520.874667 604.842667c-0.341333 0-0.682667 0-1.365334-0.341334s-0.341333-0.682667-0.682666-1.365333l-2.389334-21.504-7.509333 0.682667c-0.341333 0-0.682667 0-1.365333-0.341334s-0.341333-0.682667-0.682667-1.365333c0-0.341333 0-0.682667 0.341333-1.365333s0.682667-0.341333 1.365334-0.682667l18.773333-2.389333c0.341333 0 0.682667 0 1.365333 0.341333s0.341333 0.682667 0.682667 1.365333c0 0.341333 0 0.682667-0.341333 1.365334s-0.682667 0.341333-1.365334 0.682666l-7.509333 0.682667 2.389333 21.504c0 0.341333 0 0.682667-0.341333 1.365333s-1.024 1.365333-1.365333 1.365334z" fill="#FFBB33" p-id="999"></path><path d="M520.874667 605.184c-0.341333 0-1.365333 0-1.706667-0.341333-0.341333-0.341333-0.682667-0.682667-0.682667-1.706667l-2.389333-20.821333-6.826667 0.682666c-0.682667 0-1.365333 0-1.706666-0.341333-0.341333-0.341333-0.682667-0.682667-0.682667-1.706667s0-1.365333 0.341333-1.706666c0.341333-0.341333 0.682667-0.682667 1.706667-0.682667l18.773333-2.389333c0.682667 0 1.365333 0 1.706667 0.341333 0.341333 0.341333 0.682667 0.682667 0.682667 1.706667s0 1.365333-0.341334 1.706666c-0.341333 0.341333-0.682667 0.682667-1.706666 0.682667l-6.826667 0.682667 2.389333 20.821333c0 0.682667 0 1.365333-0.341333 2.048-1.365333 0.682667-1.706667 1.024-2.389333 1.024z m-4.096-24.234667l2.730666 22.528c0 0.341333 0 0.341333 0.341334 0.682667 0.341333 0 0.341333 0.341333 0.682666 0.341333s0.341333 0 0.682667-0.341333c0-0.341333 0.341333-0.341333 0.341333-0.682667l-2.730666-22.528 8.533333-0.682666c0.341333 0 0.341333 0 0.682667-0.341334 0-0.341333 0.341333-0.341333 0.341333-0.682666s0-0.341333-0.341333-0.682667c-0.341333 0-0.341333-0.341333-0.682667-0.341333l-19.114667 2.389333c-0.341333 0-0.341333 0-0.682666 0.341333 0 0.341333-0.341333 0.341333 0 0.682667 0 0.341333 0 0.341333 0.341333 0.682667 0.341333 0 0.341333 0.341333 0.682667 0l8.192-1.365334zM546.133333 601.770667c-0.341333 0-0.682667 0-1.365333-0.341334s-0.341333-0.682667-0.682667-1.365333l-2.389333-21.504-7.509333 0.682667c-0.341333 0-0.682667 0-1.365334-0.341334s-0.341333-0.682667-0.682666-1.365333c0-0.341333 0-0.682667 0.341333-1.365333s0.682667-0.341333 1.365333-0.682667l18.773334-2.389333c0.341333 0 0.682667 0 1.365333 0.341333s0.341333 0.682667 0.682667 1.365333c0 0.341333 0 0.682667-0.341334 1.365334s-0.682667 0.341333-1.365333 0.682666l-7.509333 0.682667 2.389333 21.504c0 0.341333 0 0.682667-0.341333 1.365333-0.682667 0.682667-1.024 1.365333-1.365334 1.365334z" fill="#FFBB33" p-id="1000"></path><path d="M546.133333 602.453333c-0.341333 0-1.365333 0-1.706666-0.341333-0.341333-0.341333-0.682667-0.682667-0.682667-1.706667l-2.389333-20.821333-6.826667 0.682667c-0.682667 0-1.365333 0-1.706667-0.341334-0.341333-0.341333-0.682667-0.682667-0.682666-1.706666s0-1.365333 0.341333-1.706667c0.341333-0.341333 0.682667-0.682667 1.706667-0.682667l18.773333-2.389333c0.682667 0 1.365333 0 1.706667 0.341333 0.341333 0.341333 0.682667 0.682667 0.682666 1.706667 0 0.682667 0 1.365333-0.341333 1.706667-0.341333 0.341333-0.682667 0.682667-1.706667 0.682666l-6.826666 0.682667 2.389333 20.821333c0 0.682667 0 1.365333-0.341333 2.048-1.365333 0.682667-1.706667 1.024-2.389334 1.024z m-4.096-24.576l2.730667 22.528c0 0.341333 0 0.341333 0.341333 0.682667 0.341333 0 0.341333 0.341333 0.682667 0.341333s0.341333 0 0.682667-0.341333c0-0.341333 0.341333-0.341333 0.341333-0.682667l-2.730667-22.528 8.533334-0.682666c0.341333 0 0.341333 0 0.682666-0.341334 0-0.341333 0.341333-0.341333 0.341334-0.682666s0-0.341333-0.341334-0.682667c-0.341333 0-0.341333-0.341333-0.682666-0.341333l-18.773334 2.389333c-0.341333 0-0.341333 0-0.682666 0.341333 0 0.341333-0.341333 0.341333 0 0.682667 0 0.341333 0 0.341333 0.341333 0.682667 0.341333 0 0.341333 0.341333 0.682667 0l7.850666-1.365334zM561.834667 599.722667c-0.341333 0-0.682667 0-1.365334-0.341334s-0.341333-0.682667-0.682666-1.365333l-2.730667-23.210667c0-0.341333 0-0.682667 0.341333-1.365333s0.682667-0.682667 1.365334-0.682667l14.677333-1.706666c0.341333 0 0.682667 0 1.365333 0.341333s0.341333 0.682667 0.682667 1.365333c0 0.341333 0 0.682667-0.341333 1.365334s-0.682667 0.341333-1.365334 0.682666l-12.288 1.706667c-0.341333 0-0.341333 0.341333-0.341333 0.341333l0.682667 7.509334 11.605333-1.365334c0.341333 0 0.682667 0 1.365333 0.341334s0.341333 0.682667 0.682667 1.365333c0 0.341333 0 0.682667-0.341333 1.365333s-0.682667 0.341333-1.365334 0.682667l-11.605333 1.365333 1.365333 9.898667c0 0.341333 0 0.682667-0.341333 1.365333-0.341333 0.341333-0.682667 0.341333-1.365333 0.341334z" fill="#FFBB33" p-id="1001"></path><path d="M561.834667 600.405333c-0.341333 0-1.365333 0-1.706667-0.341333-0.341333-0.341333-0.682667-0.682667-0.682667-1.706667l-2.730666-23.210666c0-0.682667 0-1.365333 0.341333-2.048 0.341333-0.341333 0.682667-0.682667 1.706667-0.682667l14.677333-1.706667c0.682667 0 1.365333 0 1.706667 0.341334 0.341333 0.341333 0.682667 0.682667 0.682666 1.706666s0 1.365333-0.341333 1.706667c-0.341333 0.341333-0.682667 0.682667-1.706667 0.682667l-11.946666 1.706666 0.682666 6.826667 10.922667-1.365333c0.682667 0 1.365333 0 1.706667 0.341333 0.341333 0.341333 0.682667 0.682667 0.682666 1.706667 0 0.682667 0 1.365333-0.341333 1.706666-0.341333 0.341333-0.682667 0.682667-1.706667 0.682667l-10.922666 1.365333 1.365333 9.216c0 0.682667 0 1.365333-0.341333 2.048-0.341333 0.682667-1.024 1.024-2.048 1.024z m12.288-28.330666c-0.682667 0-0.682667 0 0 0l-14.677334 1.706666c-0.341333 0-0.341333 0-0.682666 0.341334 0 0.341333-0.341333 0.341333-0.341334 0.682666l2.730667 23.210667c0 0.341333 0 0.341333 0.341333 0.682667 0.341333 0 0.341333 0.341333 0.682667 0.341333s0.341333 0 0.682667-0.341333c0-0.341333 0.341333-0.341333 0.341333-0.682667l-1.365333-10.922667 12.288-1.706666c0.341333 0 0.341333 0 0.682666-0.341334 0-0.341333 0.341333-0.341333 0-0.682666 0-0.341333 0-0.341333-0.341333-0.682667-0.341333 0-0.341333-0.341333-0.682667-0.341333l-12.288 1.706666-1.365333-8.533333c0-0.341333 0-0.682667 0.341333-0.682667 0 0 0.341333-0.341333 0.682667-0.341333l12.288-1.706667c0.341333 0 0.341333 0 0.682667-0.341333 0-0.341333 0.341333-0.341333 0-0.682667 0-0.341333 0-0.341333-0.341334-0.682666 0.682667 0.341333 0.341333 0 0.341334 0z" fill="#FFBB33" p-id="1002"></path><path d="M555.349333 531.114667l31.061334 25.6-20.821334 2.389333c-4.096 0.341333-7.509333-2.389333-7.850666-6.485333l-2.389334-21.504z" fill="#3F1D06" p-id="1003"></path><path d="M586.410667 558.762667l-20.821334 2.389333c-4.778667 0.341333-9.216-3.072-9.557333-7.850667l-2.730667-22.869333 2.048-1.365333 0.682667 0.682666 32.085333 26.282667-0.341333 2.048-1.365333 0.682667z m-29.354667-23.552l2.048 18.090666c0.341333 3.072 3.072 5.461333 6.144 5.12l17.066667-2.048-25.258667-21.162666z" fill="#EFAB60" p-id="1004"></path><path d="M582.157653 614.877867l20.67456-48.698027 56.869547 24.142507-20.67456 48.70144z" fill="#FFFFFF" p-id="1005"></path><path d="M633.514667 622.592c-0.682667 2.389333-4.096 2.389333-5.12 0l-7.850667-18.773333-18.090667 9.557333c-2.389333 1.365333-4.778667-0.682667-4.096-3.072l9.557334-27.648 5.12 2.048-7.168 20.821333 14.336-7.509333c1.706667-0.682667 3.072 0 4.096 1.365333l6.485333 14.677334 7.168-20.821334 5.12 2.048-9.557333 27.306667z m25.258666-43.008l-53.248-18.432c-3.754667-1.365333-7.850667 0.682667-9.216 4.437333l-18.432 53.248c-1.365333 3.754667 0.682667 7.850667 4.437334 9.216l53.248 18.432c3.754667 1.365333 7.850667-0.682667 9.216-4.437333l18.432-53.248c1.365333-3.413333-0.682667-7.509333-4.437334-9.216" fill="#4A8DFF" p-id="1006"></path><path d="M636.928 647.509333c-1.365333 0-2.048 0-3.072-0.341333l-50.858667-17.066667c-5.12-1.706667-7.850667-7.168-6.144-12.288l17.066667-50.858666c1.706667-5.12 7.168-7.850667 12.288-6.144l50.858667 17.066666c2.389333 0.682667 4.437333 2.730667 5.461333 4.778667 1.365333 2.389333 1.365333 5.12 0.341333 7.509333l-17.066666 50.858667c-0.682667 2.389333-2.730667 4.437333-4.778667 5.461333-1.365333 1.024-3.072 1.024-4.096 1.024z m-33.450667-85.333333c-3.072 0-6.485333 2.048-7.509333 5.12l-17.066667 50.858667c-1.706667 4.096 0.682667 8.533333 4.778667 9.898666l50.858667 17.066667c2.048 0.682667 4.096 0.341333 6.144-0.341333 2.048-0.682667 3.072-2.389333 4.096-4.437334l17.066666-50.858666c0.682667-2.048 0.341333-4.096-0.341333-6.144-0.682667-2.048-2.389333-3.072-4.437333-4.096l-50.858667-17.066667c-1.024 0.341333-1.706667 0-2.730667 0z" fill="#9FC2FF" p-id="1007"></path><path d="M400.384 637.952l-64.512 7.509333c-9.557333 1.365333-18.090667-5.461333-19.114667-15.36l-7.509333-64.512c-1.365333-9.557333 5.461333-18.090667 15.36-19.114666l64.512-7.509334c9.557333-1.365333 18.090667 5.461333 19.114667 15.36l7.509333 64.512c1.024 9.557333-5.802667 18.090667-15.36 19.114667z" fill="#5D497E" p-id="1008"></path><path d="M333.824 647.509333c-4.437333 0-8.533333-1.706667-11.605333-4.096-4.096-3.072-6.485333-7.509333-7.168-12.970666l-7.509334-64.512c-0.682667-5.12 0.682667-9.898667 4.096-13.994667 3.072-4.096 7.509333-6.485333 12.970667-7.168l64.512-7.509333c5.12-0.682667 9.898667 0.682667 13.994667 4.096s6.485333 7.509333 7.168 12.970666l7.509333 64.512c0.682667 5.12-0.682667 9.898667-4.096 13.994667-3.072 4.096-7.509333 6.485333-12.970667 7.168l-64.512 7.509333h-2.389333z m57.002667-106.154666h-2.048L324.266667 548.864c-4.096 0.341333-7.509333 2.389333-10.24 5.461333-2.389333 3.072-3.754667 7.168-3.072 11.264l7.509333 64.512c0.341333 4.096 2.389333 7.509333 5.461333 10.24 3.072 2.389333 7.168 3.754667 11.264 3.072l64.512-7.509333c8.533333-1.365333 14.336-8.874667 13.653334-17.066667l-7.509334-64.512c-0.682667-7.509333-7.509333-12.970667-15.018666-12.970666z" fill="#947FE2" p-id="1009"></path><path d="M373.077333 596.992c-0.341333 0-0.682667 0.682667-2.389333 1.706667-0.682667 0.682667-2.048 1.706667-3.072 2.389333-0.682667 0.682667-1.706667 1.365333-2.389333 2.048-0.682667 0.341333-1.365333 0.682667-2.048 1.706667-0.341333 0.341333-1.365333 0.682667-1.706667 1.365333s-0.341333 0.341333-0.682667 0.682667l-0.341333 0.341333h-0.341333l-0.341334 0.341333c-0.341333 0-0.341333 0.341333-0.682666 0.341334-0.682667 0-2.048-0.682667-2.048-1.706667l-2.048-16.042667c0-1.365333 0.341333-2.389333 1.706666-2.389333h1.365334s0.341333 0.341333 0.682666 0.341333 0.341333 0.341333 0.682667 0.341334c1.365333 0.341333 2.389333 1.365333 3.754667 1.706666 5.12 2.048 8.874667 3.754667 9.216 4.096 0.341333 0 0.682667 0.682667 1.365333 1.365334l-0.682667 1.365333z m7.509334-25.6l-9.557334 1.365333 3.072-5.461333c0.341333-1.365333 0-2.730667-1.365333-3.072s-2.730667 0-3.072 0.682667l-4.778667 8.874666-6.144 0.682667-6.826666-7.168c-0.682667-0.682667-2.389333-0.682667-3.754667 0-0.682667 0.682667-0.682667 2.389333 0 3.754667l4.437333 4.437333-9.216 1.365333c-5.12 0.682667-8.874667 5.12-7.850666 10.24l3.754666 27.306667c0.682667 5.12 5.12 8.874667 10.24 7.850667l36.864-4.778667c5.12-0.682667 8.874667-5.12 7.850667-10.24l-3.754667-27.306667c0-5.802667-5.12-9.216-9.898666-8.533333z" fill="#FFFFFF" p-id="1010"></path><path d="M278.528 593.92m-41.642667 0a41.642667 41.642667 0 1 0 83.285334 0 41.642667 41.642667 0 1 0-83.285334 0Z" fill="#326DF0" p-id="1011"></path><path d="M278.528 637.610667c-4.096 0-7.850667-0.341333-11.605333-1.706667-22.869333-6.485333-36.522667-30.378667-30.037334-53.589333 3.072-11.264 10.24-20.48 20.48-25.941334s21.504-7.168 32.768-4.096c22.869333 6.485333 36.522667 30.378667 30.037334 53.589334-5.12 19.114667-22.528 31.744-41.642667 31.744z m0-83.626667c-6.826667 0-13.312 1.706667-19.456 5.12-9.216 5.12-16.042667 13.653333-18.773333 23.893333-6.144 21.162667 6.485333 43.349333 27.648 49.152 21.162667 6.144 43.349333-6.485333 49.152-27.648 6.144-21.162667-6.485333-43.349333-27.648-49.152-3.413333-0.682667-7.168-1.365333-10.922667-1.365333z" fill="#9FC2FF" p-id="1012"></path><path d="M284.672 573.781333c-9.898667-2.730667-20.138667 2.389333-22.869333 11.605334l-3.072 11.946666c-0.341333 1.365333-1.706667 2.048-3.072 1.706667-1.365333-0.341333-2.048-1.706667-1.706667-3.072l3.072-11.946667c3.754667-11.946667 16.384-18.773333 29.354667-15.36" fill="#FFFFFF" p-id="1013"></path><path d="M286.037333 568.661333c12.288 3.754667 20.138667 16.042667 16.725334 27.989334l-3.072 11.946666c-0.341333 1.365333-1.706667 2.048-3.072 1.706667-1.365333-0.341333-2.048-1.706667-1.706667-3.072l3.072-11.946667c2.389333-9.216-3.072-19.114667-13.312-21.845333M254.293333 592.554667c0.341333-0.682667 0.682667-1.706667 1.706667-2.048 0.682667-0.341333 1.706667-0.341333 2.389333-0.341334l4.778667 1.365334c2.048 0.341333 2.730667 2.389333 2.389333 4.096l-2.730666 9.898666c-0.341333 2.048-2.389333 2.730667-4.096 2.389334l-4.778667-1.365334c-2.048-0.341333-2.730667-2.389333-2.389333-4.096l2.730666-9.898666z" fill="#FFFFFF" p-id="1014"></path><path d="M288.768 602.453333c0.341333-2.048 2.389333-2.730667 4.096-2.389333l4.778667 1.365333c2.048 0.341333 2.730667 2.389333 2.389333 4.096l-2.730667 9.898667c-0.341333 2.048-2.389333 2.730667-4.096 2.389333l-4.778666-1.365333c-2.048-0.341333-2.730667-2.389333-2.389334-4.096l2.730667-9.898667z" fill="#FFFFFF" p-id="1015"></path><path d="M139.946667 568.32l62.805333-23.893333c9.557333-3.754667 20.48 1.365333 23.893333 11.264l23.552 62.122666c3.754667 9.557333-0.682667 20.48-10.24 24.576l-62.805333 23.893334c-9.557333 3.754667-20.48-1.365333-23.893333-11.264L129.706667 592.896c-4.437333-9.898667 0.341333-20.821333 10.24-24.576z" fill="#E8582D" p-id="1016"></path><path d="M170.666667 668.330667c-8.533333 0-16.042667-5.12-19.114667-13.653334l-23.552-62.122666c-2.048-5.12-2.048-10.922667 0.341333-16.042667 2.048-5.12 6.144-8.874667 11.264-10.922667l62.805334-23.893333c10.24-4.096 22.528 1.706667 26.282666 11.946667l23.552 62.122666c4.096 10.922667-1.365333 22.869333-11.605333 26.965334l-62.805333 23.893333c-2.389333 1.365333-4.778667 1.706667-7.168 1.706667z m37.888-123.221334c-2.048 0-4.096 0.341333-5.461334 1.365334l-62.805333 23.893333c-4.096 1.706667-7.168 4.778667-9.216 8.874667-1.706667 4.096-2.048 8.874667-0.341333 12.970666l23.552 62.122667c3.072 8.874667 12.970667 13.312 21.162666 9.898667l62.805334-23.893334c8.533333-3.072 12.970667-12.970667 9.216-21.504L224.597333 556.373333c-2.730667-7.168-9.216-11.264-16.042666-11.264z" fill="#FFAF97" p-id="1017"></path><path d="M775.850667 128.682667l-94.208 37.546666c-14.677333 6.144-31.744-2.048-37.888-17.066666l-33.450667-83.626667c-6.144-15.36 0.682667-32.768 15.701333-38.912l18.773334-6.826667c3.072-1.365333 6.826667-1.365333 10.24 0l19.456 7.509334c3.072 1.365333 7.168 1.365333 10.24 0l43.349333-17.066667c14.677333-6.144 31.744 2.048 37.888 17.066667l25.6 63.146666c5.802667 15.018667-1.365333 32.426667-15.701333 38.229334z" fill="#5A9DFF" p-id="1018"></path><path d="M648.874667 1002.496H169.301333c-18.090667 0-32.426667-14.336-32.426666-32.426667v-348.16h544.085333v348.16c0.682667 18.090667-13.994667 32.426667-32.085333 32.426667z" fill="#4F84FA" p-id="1019"></path><path d="M164.522667 598.016c3.072-1.365333 5.461333-1.365333 7.850666-0.341333s4.096 2.389333 4.778667 5.12c1.365333 2.730667 0.682667 4.778667-0.341333 7.168-1.365333 2.048-3.754667 3.754667-6.826667 5.12l-4.437333 1.706666 3.072 8.533334c0.341333 0.341333 0 1.365333-0.341334 1.706666-0.341333 0.341333-0.682667 0.682667-1.706666 0.682667-0.341333 0.341333-1.365333 0.341333-1.706667 0.341333-0.682667 0-0.682667-0.341333-1.365333-0.682666l-8.533334-21.162667c-0.341333-1.706667-0.682667-2.389333-0.341333-3.072 0.341333-0.682667 1.365333-1.706667 2.730667-2.048l7.168-3.072z m4.096 12.970667c1.706667-0.682667 2.730667-1.706667 3.754666-2.730667 0.341333-1.365333 0.341333-2.389333 0-3.754667-0.341333-1.365333-1.365333-2.389333-2.389333-2.389333-1.365333-0.341333-2.389333-0.341333-4.437333 0.341333l-4.437334 1.706667 3.072 8.533333 4.437334-1.706666zM187.733333 588.8c3.072-1.365333 5.461333-1.365333 7.850667-0.341333s4.096 2.389333 4.778667 5.12c1.365333 2.730667 0.682667 4.778667-0.341334 7.168-1.365333 2.048-3.754667 3.754667-6.826666 5.12l-4.437334 1.706666 3.072 8.533334c0.341333 0.341333 0 1.365333-0.341333 1.706666-0.341333 0.341333-0.682667 0.682667-1.706667 0.682667-0.341333 0.341333-1.365333 0.341333-1.706666 0.341333-0.682667 0-0.682667-0.341333-1.365334-0.682666l-8.533333-21.162667c-0.341333-1.706667-0.682667-2.389333-0.341333-3.072 0.341333-0.682667 1.365333-1.706667 2.730666-2.048l7.168-3.072z m4.437334 12.970667c1.706667-0.682667 2.730667-1.706667 3.754666-2.389334 0.341333-1.365333 0.341333-2.389333 0-3.754666-0.341333-1.365333-1.365333-2.389333-2.389333-2.389334-1.365333-0.341333-2.389333-0.341333-4.437333 0.341334l-4.437334 1.706666 3.072 8.533334 4.437334-2.048zM218.112 577.194667c0.341333 0 0.682667 0 1.365333 0.341333 0.341333 0.341333 0.682667 0.682667 0.682667 1.365333s0.341333 0.682667 0.341333 1.706667c0 0.341333-0.341333 0.682667-0.682666 1.365333l-6.826667 2.730667 7.850667 20.821333c0 0.341333 0 0.682667-0.341334 1.706667-0.341333 0.682667-0.682667 0.682667-1.706666 1.365333-0.341333 0.341333-1.365333 0.341333-1.706667 0.341334-0.682667 0-1.365333-0.341333-1.365333-0.682667l-7.850667-20.821333-6.826667 2.730666c-0.341333 0-0.682667 0-1.365333-0.341333-0.341333-0.341333-0.682667-0.682667-0.682667-1.365333s-0.341333-0.682667-0.341333-1.706667c0-0.341333 0.341333-0.682667 0.682667-1.365333l18.773333-8.192z" fill="#FFFFFF" p-id="1020"></path><path d="M288.768 1002.496h-119.466667c-18.090667 0-32.426667-14.336-32.426666-32.426667v-348.16h151.210666v380.586667h0.682667z" fill="#326DF0" p-id="1021"></path><path d="M449.194667 680.96l-64.853334-63.488c-4.437333-4.096-4.437333-10.922667 0-15.36l55.296-55.637333c4.096-4.437333 10.922667-4.437333 15.36 0l64.853334 63.488c4.437333 4.096 4.437333 10.922667 0 15.36L464.213333 680.96c-4.096 3.754667-10.922667 3.754667-15.018666 0z" fill="#EC6C00" p-id="1022"></path><path d="M456.704 686.08c-3.072 0-6.485333-1.365333-9.216-3.754667l-64.853333-63.488c-5.12-4.778667-5.12-13.312 0-18.090666l55.296-55.637334c2.389333-2.389333 5.461333-4.096 9.216-4.096 3.072 0 6.826667 1.365333 9.216 3.754667l64.853333 63.488c5.12 4.778667 5.12 13.312 0 18.090667l-55.296 55.637333c-2.730667 2.730667-5.802667 4.096-9.216 4.096z m-9.557333-141.312c-0.341333 0-0.341333 0 0 0-2.389333 0-4.437333 0.682667-6.144 2.389333L385.706667 602.794667c-3.072 3.754667-3.072 8.874667 0 12.288l64.853333 63.488c3.754667 3.072 8.874667 3.072 12.288 0l55.296-55.637334c3.072-3.754667 3.072-8.874667 0-12.288l-64.853333-63.488c-1.706667-1.024-4.096-2.389333-6.144-2.389333z" fill="#FFEACC" p-id="1023"></path><path d="M474.794667 612.352l-27.306667 9.216c-1.365333 0.341333-2.730667-0.341333-3.072-1.706667l-4.096-23.893333c0-1.706667-1.365333-2.389333-2.730667-1.706667l-36.864 9.557334c-2.048 0.341333-2.730667 3.072-1.365333 4.437333l57.685333 56.661333c1.706667 1.365333 4.096 0.682667 4.437334-1.365333l14.677333-48.810667c1.706667-1.365333 0.341333-3.072-1.365333-2.389333z" fill="#FFFFFF" p-id="1024"></path><path d="M449.536 576.853333c-4.096 4.096-4.096 9.898667-0.341333 13.994667 4.096 3.754667 9.898667 3.754667 13.994666-0.341333 4.096-4.096 4.096-9.898667 0.341334-13.994667-4.096-3.754667-10.24-3.754667-13.994667 0.341333z" fill="#FFFFFF" p-id="1025"></path><path d="M226.304 746.496H73.045333l62.464-124.586667h153.258667z" fill="#9FC2FF" p-id="1026"></path><path d="M335.530667 746.496h392.874666l-46.762666-124.586667H288.768z" fill="#9FC2FF" p-id="1027"></path><path d="M490.496 456.704l-2.730667-3.754667c2.389333-2.048 4.778667-3.754667 6.826667-5.461333l2.730667 3.754667c-2.048 1.365333-4.437333 3.413333-6.826667 5.461333zM509.952 437.930667l-3.754667-2.730667c3.754667-4.437333 6.826667-9.216 9.557334-14.336l4.096 2.389333c-2.389333 5.12-5.802667 9.898667-9.898667 14.677334z m17.749333-31.744l-4.437333-1.706667c1.706667-5.12 3.072-10.922667 4.096-16.725333l4.437333 0.682666c-1.024 6.826667-2.048 12.288-4.096 17.749334z m6.144-35.498667l-4.437333-0.341333c0.341333-4.437333 0.341333-9.216 0.341333-14.336v-3.072h4.437334v3.072c0.341333 5.461333-0.341333 10.24-0.341334 14.677333zM529.066667 334.848v-8.533333-9.557334h4.437333v18.090667H529.066667z m26.965333-16.042667c-4.437333 0-8.874667-0.682667-12.970667-2.048l1.706667-4.437333c4.778667 1.706667 10.24 2.048 16.384 1.706667l0.341333 4.437333c-2.048 0-3.413333 0.341333-5.461333 0.341333z m22.869333-4.778666l-1.706666-4.437334c0.682667-0.341333 1.706667-0.682667 2.389333-1.365333 4.437333-2.048 7.509333-4.778667 9.898667-8.874667l4.096 2.389334c-2.730667 4.778667-6.826667 8.533333-11.946667 10.922666-0.682667 0.341333-1.706667 0.682667-2.730667 1.365334z m-50.858666-8.192c-3.754667-4.437333-6.485333-10.24-7.850667-16.725334l4.437333-1.365333c1.706667 6.144 3.754667 11.264 7.168 15.36l-3.754666 2.730667z m7.850666-6.485334l-4.437333-0.682666c0.682667-4.437333 2.048-8.533333 3.754667-11.946667 0.682667-2.048 1.706667-3.754667 2.389333-5.12l4.096 2.389333c-0.682667 1.706667-1.706667 3.072-2.389333 4.778667-1.365333 3.072-2.389333 6.826667-3.413334 10.581333z m55.637334-15.018666c-1.365333-5.12-4.437333-9.898667-8.874667-13.312l2.730667-3.754667c5.12 4.096 8.874667 9.557333 10.24 15.701333l-4.096 1.365334zM552.96 271.36l-2.389333-4.096c5.461333-3.754667 11.605333-5.461333 17.749333-6.144V266.24c-5.461333 0-11.264 2.048-15.36 5.12z m-30.037333-0.682667h-4.437334c0-5.461333 0.682667-11.605333 2.048-18.090666l4.437334 0.682666c-1.365333 6.144-2.048 12.288-2.048 17.408z m6.144-34.133333l-4.096-2.048c2.389333-5.12 5.12-10.922667 9.216-16.042667l3.754666 2.730667c-3.413333 5.461333-6.485333 10.581333-8.874666 15.36z m20.138666-27.648l-3.072-3.072c4.096-4.096 8.874667-7.850667 13.653334-11.605333l2.730666 3.754666c-4.778667 3.413333-9.216 7.168-13.312 10.922667z m27.648-21.504l-2.389333-4.096c4.778667-3.072 9.898667-6.144 15.36-8.874667l2.048 4.096c-5.12 3.072-10.24 6.144-15.018667 8.874667zM607.573333 171.008l-2.048-4.437333c5.12-2.389333 8.533333-3.754667 8.533334-3.754667l1.706666 4.437333c0.341333 0.341333-3.072 1.365333-8.192 3.754667z" fill="#FFFFFF" p-id="1028"></path><path d="M485.717333 472.746667l-27.989333 3.754666c-3.754667 0.341333-6.144-4.096-3.754667-6.826666l16.384-19.114667c1.706667-2.048 4.778667-2.048 6.485334 0.341333l11.605333 15.701334c1.365333 2.048 0.341333 5.802667-2.730667 6.144z" fill="#FFFFFF" p-id="1029"></path><path d="M716.578133 66.239147l54.514347-9.250134 12.8512 75.71456-54.51776 9.250134z" fill="#FECFCE" p-id="1030"></path><path d="M759.125333 104.106667s35.498667 54.272 58.368 68.266666l-23.552 8.533334s-29.696-37.888-44.373333-69.632l9.557333-7.168z" fill="#11A581" p-id="1031"></path><path d="M805.205333 111.274667c-7.509333 1.706667-4.778667 13.312-6.144 14.677333-2.389333 3.754667-3.754667 7.168-3.754666 9.216 0 3.072 3.754667-0.341333 3.754666 8.874667 0 9.557333 11.605333 6.144 12.288 9.557333 1.365333 3.754667-0.682667 21.845333-0.682666 21.845333l21.845333-4.096s-4.096-14.336-6.144-31.744c-1.365333-16.725333 5.802667-33.450667-21.162667-28.330666z" fill="#FECFCE" p-id="1032"></path><path d="M765.269333 126.293333l-78.165333 31.744c-18.773333 7.509333-40.96-1.706667-48.469333-20.821333l-19.456-48.810667c-1.706667-4.096 0.341333-8.874667 4.437333-10.24l132.096-53.248c4.096-1.706667 8.874667 0.341333 10.24 4.437334l19.456 48.810666c8.192 18.432-1.365333 39.936-20.138667 48.128z" fill="#326DF0" p-id="1033"></path><path d="M766.634667 96.938667l-100.352 40.277333c-5.12 2.048-11.264-0.341333-13.312-5.461333l-20.821334-51.882667c-2.048-5.12 0.341333-11.264 5.461334-13.312l100.352-40.277333c5.12-2.048 11.264 0.341333 13.312 5.461333l20.821333 51.882667c2.048 5.461333-0.341333 11.264-5.461333 13.312z" fill="#FFFFFF" p-id="1034"></path><path d="M765.610667 93.866667l-101.376 40.96c-5.12 2.048-11.264-0.341333-13.312-5.461334l-21.162667-52.565333c-2.048-5.12 0.341333-11.264 5.461333-13.312l101.376-40.96c5.12-2.048 11.264 0.341333 13.312 5.461333l21.162667 52.565334c2.389333 5.12-0.682667 11.264-5.461333 13.312z" fill="#FFFFFF" p-id="1035"></path><path d="M775.168 129.024l-93.184 37.546667c-14.677333 6.144-32.085333-1.365333-37.888-16.042667l-23.552-58.709333 147.114667-59.392 23.552 58.368c6.144 15.018667-1.024 32.085333-16.042667 38.229333z" fill="#80BAFF" p-id="1036"></path><path d="M774.826667 129.024l-93.184 37.546667c-14.677333 6.144-32.085333-1.365333-37.888-16.042667l-1.365334-2.730667L789.845333 88.746667l1.365334 2.730666c5.802667 14.677333-1.365333 31.402667-16.384 37.546667zM734.890667 101.376l-46.762667 18.773333c-10.24 4.096-22.528-1.706667-26.965333-12.288-4.437333-11.264 0.341333-23.210667 10.24-27.648l46.762666-18.773333c10.24-4.096 22.528 1.706667 26.965334 12.288 5.12 10.922667 0 23.210667-10.24 27.648z" fill="#326DF0" p-id="1037"></path><path d="M704.853333 98.304c0.341333 0.682667 0 1.706667-0.682666 2.048s-2.730667-0.341333-6.144-1.706667c-1.706667-0.682667-3.072-1.706667-4.437334-2.389333-1.706667-0.682667-2.730667-2.048-4.778666-3.072l3.754666 9.216 4.437334-2.048h1.365333c0.682667 0 0.341333 0.341333 0.682667 0.682667 0.341333 0.682667 0 1.365333-0.682667 1.706666l-4.437333 2.048 1.365333 3.072c0.341333 0.682667 0 1.706667-0.682667 2.048s-1.365333 0-1.706666-0.682666l-1.365334-3.072-4.437333 1.706666c-0.682667 0.341333-1.365333 0-1.706667-0.682666-0.341333-0.682667 0-1.365333 0.682667-1.706667l4.437333-1.706667-3.754666-9.216c-0.341333 3.754667-1.706667 7.168-2.730667 10.24-1.365333 3.754667-2.389333 5.12-3.072 5.461334-0.682667 0.341333-1.706667 0-1.706667-0.682667-0.341333-0.341333 0-1.365333 0.341334-1.706667 1.706667-2.389333 2.730667-4.778667 3.754666-7.509333 0.682667-2.730667 1.706667-5.461333 1.706667-7.509333l-8.874667 3.754666c-0.682667 0.341333-1.706667 0-2.048-0.341333-0.341333-0.682667 0-1.365333 0.682667-1.706667l9.898667-4.096-1.706667-3.754666c-0.341333-1.365333-0.341333-1.706667 0.341333-2.048 0.682667-0.341333 1.365333 0 1.706667 1.365333l1.706667 3.754667 10.24-4.096c0.682667-0.341333 1.706667 0 2.048 0.341333 0.341333 0.682667 0 1.365333-0.682667 1.706667l-9.557333 4.096c2.048 1.706667 4.096 3.072 6.826666 4.437333s5.461333 2.048 7.509334 2.389333c1.024-1.365333 1.365333-0.682667 1.706666-0.341333z" fill="#FFFFFF" opacity=".8" p-id="1038"></path><path d="M679.936 110.250667c-0.682667 0-1.365333-0.341333-1.706667-1.365334-0.341333-0.682667 0-1.706667 0.341334-2.048 1.706667-2.048 2.730667-4.778667 3.754666-7.509333 0.682667-2.389333 1.365333-4.778667 1.706667-6.826667l-7.850667 3.072c-0.682667 0.341333-1.365333 0.341333-1.706666 0-0.341333 0-0.682667-0.341333-0.682667-0.682666-0.341333-0.682667 0-1.365333 0-1.365334 0.341333-0.341333 0.682667-0.682667 1.365333-0.682666l9.557334-3.754667-1.365334-3.072c-0.341333-0.682667-0.341333-1.365333 0-1.706667 0-0.341333 0.341333-0.682667 1.365334-1.365333 0.682667-0.341333 1.365333 0 1.706666 0 0.341333 0.341333 0.682667 0.682667 0.682667 1.365333l1.365333 3.072 9.557334-4.096c1.706667-0.682667 2.389333 0.341333 2.389333 0.682667 0.341333 0.682667 0 1.365333 0 1.365333-0.341333 0.341333-0.682667 0.682667-1.365333 0.682667l-8.874667 3.754667c1.706667 1.706667 3.754667 2.730667 6.144 4.096 2.730667 1.365333 5.12 2.048 7.509333 2.389333 1.365333 0 1.706667 0.341333 2.048 1.365333 0.341333 1.365333 0 2.048-1.365333 2.389334-0.682667 0.341333-2.048 0.341333-6.485333-1.706667-1.706667-0.682667-3.072-1.706667-4.437334-2.389333-1.365333-0.682667-2.048-1.365333-3.072-2.048l2.730667 6.826666 4.096-1.706666c0.341333-0.341333 1.365333-0.341333 1.365333 0 0.341333 0 0.682667 0.341333 0.682667 1.365333 0.341333 0.682667 0 1.706667-1.365333 2.389333l-4.096 1.706667 1.365333 2.730667c0.341333 1.365333 0 2.048-0.682667 2.389333-0.341333 0-1.706667 0.341333-2.389333-1.365333l-1.365333-2.730667-4.096 1.706667c-1.365333 0.341333-2.048 0-2.389334-0.682667-0.341333-1.365333 0-2.048 1.365334-2.389333l4.096-1.706667-2.730667-7.168c-0.341333 3.072-1.365333 6.144-2.389333 8.874667-1.706667 4.778667-2.730667 5.461333-3.072 6.144h-1.706667z m4.778667-19.114667v0.682667c0 2.048-0.682667 4.778667-1.706667 7.509333s-2.048 5.461333-3.754667 7.509333c-0.341333 0.341333-0.341333 0.682667-0.341333 1.365334 0.341333 0.682667 0.682667 0.682667 1.365333 0.341333 0.341333 0 1.365333-0.682667 2.730667-5.12 1.365333-3.072 2.048-6.485333 2.730667-10.24l0.341333-2.048 4.778667 11.605333-4.778667 2.048c-0.682667 0.341333-0.682667 0.341333-0.341333 0.682667 0 0.341333 0.341333 0.341333 1.365333 0.341333l4.778667-2.048 1.706666 3.754667c0.341333 0.682667 0.682667 0.682667 1.365334 0.682667s0.682667-0.341333 0.341333-1.365334l-1.706667-3.754666 4.778667-2.048c0.682667-0.341333 0.682667-0.341333 0.341333-0.682667 0-0.341333-0.341333-0.341333-0.341333-0.341333h-0.682667l-4.778666 2.048-4.778667-11.605334 1.706667 1.365334c1.706667 1.365333 3.072 2.389333 4.437333 3.072 1.706667 0.682667 2.730667 1.706667 4.437333 2.389333 4.096 1.706667 5.12 1.706667 5.461334 1.706667 0.341333-0.341333 0.682667-0.341333 0.341333-1.365334 0-0.341333-0.341333-0.341333-1.365333-0.682666-2.389333-0.341333-4.778667-1.365333-7.850667-2.389334-2.730667-1.365333-4.778667-2.730667-6.826667-4.778666l-0.341333-0.341334 9.898667-4.096c0.341333 0 0.341333-0.341333 0.682666-0.341333v-0.341333c0-0.341333-0.341333-0.682667-1.365333-0.341334l-10.922667 4.437334-1.706666-4.096c0-0.341333-0.341333-0.682667-0.341334-0.682667h-0.341333c-0.341333 0-0.341333 0.341333-0.341333 0.341333v0.682667l1.706666 4.096-10.24 4.096c-0.341333 0-0.341333 0.341333-0.682666 0.341333v0.341334c0 0.341333 0.341333 0.341333 0.341333 0.341333h0.682667l9.216-3.072z" fill="#FFFFFF" opacity=".8" p-id="1039"></path><path d="M708.608 97.962667v-1.365334c0-0.341333 0.341333-0.341333 0.682667-0.682666l2.048-1.706667-4.096-9.898667-2.389334 0.682667c-0.682667 0.341333-1.365333 0-1.706666-0.682667-0.341333-0.682667 0-1.365333 0.682666-1.706666l2.730667-0.682667-2.389333-5.461333c-0.341333-0.682667 0-1.365333 0.682666-1.706667 0.682667-0.341333 1.365333 0 1.706667 0.682667l2.389333 5.461333 2.048-0.682667c0.682667-0.341333 1.365333 0 1.706667 0.341334 0.341333 0.682667 0 1.365333-0.682667 1.706666l-2.048 0.682667 4.096 9.557333c0.341333 0 0.682667-0.341333 1.706667-1.365333 0.341333 0 0.341333-0.341333 0.341333-0.341333h0.682667l0.341333 0.341333V92.16c0 0.341333-0.341333 0.341333-0.682666 0.682667-3.072 2.730667-5.12 4.437333-6.144 4.437333-1.024 1.706667-1.706667 1.365333-1.706667 0.682667z m13.994667-1.365334c-1.706667 0.341333-2.730667 0-3.072-1.706666l-4.096-9.898667c-1.365333 1.365333-2.048 1.706667-2.048 2.048h-0.682667c-0.341333 0-0.341333-0.341333-0.341333-0.682667-0.341333-0.341333 0-1.365333 0.341333-1.706666l2.048-2.048-2.389333-6.485334c-0.341333-0.682667 0-1.365333 0.341333-1.706666 0.682667-0.341333 1.365333 0 1.706667 0.682666l2.048 5.461334 2.730666-2.730667-2.389333-6.485333c-0.341333-0.682667 0-1.365333 0.341333-1.706667 0.682667-0.341333 1.365333 0 1.706667 0.682667l2.389333 5.461333 2.730667-2.389333c0.341333-0.341333 0.682667-0.682667 1.365333-0.682667 1.365333-0.341333 2.048 0 2.730667 1.706667l2.730667 6.485333c1.365333 2.730667 0.341333 4.778667-2.389334 6.144-0.682667 0.341333-1.365333 0-1.706666-0.682667-0.341333-0.341333 0-1.365333 0.682666-1.706666 0.682667-0.341333 1.365333-0.682667 1.365334-1.365334 0-0.341333 0-0.682667-0.341334-1.365333l-2.048-5.12c-0.341333-0.341333-0.341333-0.682667-1.365333-0.341333l-0.341333 0.341333-2.389334 2.389333 4.096 10.24c0.341333 0.682667 0 1.365333-0.341333 1.706667-0.682667 0.341333-1.365333 0-1.706667-0.682667l-4.096-9.557333-2.730666 2.730667 4.096 10.24c0 0.341333 0.341333 0.682667 1.365333 0.682666 0.341333 0 2.389333-0.341333 5.12-2.048 2.389333-0.682667 3.754667-1.706667 4.096-2.048s0.341333-1.365333 0-1.706666c-0.341333-0.682667-0.341333-1.365333 0-1.706667 0-0.341333 0.341333-0.682667 0.682667-0.682667 0.682667-0.341333 1.706667 0 1.706666 0.682667 0.682667 2.389333 0.682667 4.096 0 4.778667-0.682667 0.682667-2.730667 2.048-6.485333 3.072-2.730667 1.024-4.437333 1.706667-5.461333 1.706666z" fill="#FFFFFF" opacity=".8" p-id="1040"></path><path d="M709.290667 99.328h-0.341334c-0.341333 0-0.682667-0.341333-0.682666-1.365333-0.341333-0.341333-0.341333-0.682667 0-1.365334 0-0.341333 0.341333-0.682667 0.682666-1.365333l2.048-1.365333-3.754666-9.216-2.048 0.682666c-1.365333 0.341333-2.048 0-2.389334-0.682666-0.341333-0.682667 0-1.706667 1.365334-2.389334l2.048-0.682666-2.048-5.12c-0.341333-1.365333 0-2.048 0.682666-2.389334 0.682667-0.341333 1.706667 0 2.389334 1.365334l2.048 5.12 1.706666-0.682667c0.341333-0.341333 0.682667-0.341333 1.365334 0 0.341333 0 0.682667 0.341333 0.682666 0.682667 0.341333 1.365333 0 2.048-1.365333 2.389333l-1.706667 0.682667 3.072 8.533333c0.341333-0.341333 0.682667-0.341333 1.365334-0.682667 0.341333 0 0.341333-0.341333 0.682666-0.341333h1.365334c0.682667 0 0.341333 0.341333 0.682666 0.682667v1.706666c0 0.341333-0.341333 0.682667-0.682666 1.365334-4.437333 3.754667-5.461333 4.437333-6.144 4.437333-0.341333-0.341333-0.682667 0-1.024 0z m-2.048-15.36l4.437333 10.922667-2.389333 1.706666c-0.341333 0.341333-0.341333 0.341333-0.341334 0.682667v0.682667c0 0.341333 0.341333 0.341333 0.341334 0.341333h0.682666c0.341333 0 2.048-1.365333 5.461334-4.437333l0.682666-0.682667v-0.341333c0-0.341333-0.341333-0.341333-0.341333-0.341334h-0.341333s-0.341333 0-0.341334 0.341334c-0.682667 0.341333-1.365333 0.682667-1.706666 1.365333l-0.341334 0.341333-4.437333-10.24 2.389333-0.682666c0.682667-0.341333 0.682667-0.341333 0.341334-0.682667 0-0.341333-0.341333-0.341333-0.341334-0.341333h-0.682666l-2.389334 0.682666-2.389333-6.144c-0.341333-0.682667-0.341333-0.682667-0.682667-0.341333-0.341333 0-0.341333 0.341333-0.341333 1.365333l2.389333 6.144-2.730666 1.365334c-0.682667 0.341333-0.682667 0.341333-0.341334 0.682666 0 0.341333 0.341333 0.341333 0.682667 0.341334l2.730667-2.730667z m14.336 13.312c-1.365333 0-2.389333-0.682667-2.730667-2.048l-3.754667-9.557333c-1.365333 1.365333-1.706667 1.365333-1.706666 1.706666h-1.365334c-0.682667 0-0.341333-0.341333-0.682666-1.365333-0.341333-0.682667-0.341333-1.365333 0.341333-2.048l1.706667-1.706667-2.389334-6.144c-0.341333-1.365333 0-2.048 0.682667-2.389333 0.341333-0.341333 0.682667-0.341333 1.365333 0 0.341333 0 0.682667 0.341333 0.682667 1.365333l2.389333 4.437334 2.048-2.048-2.389333-6.144c-0.341333-1.365333 0-2.048 0.682667-2.389334 1.365333-0.341333 2.048 0 2.389333 1.365334l2.048 4.778666 2.048-2.048c0.341333-0.341333 1.365333-0.682667 1.706667-1.365333 0.682667-0.341333 1.706667-0.341333 2.048 0 0.341333 0.341333 1.365333 0.682667 1.365333 2.048l2.730667 6.485333c1.365333 3.072 0.341333 5.461333-2.730667 6.826667-1.365333 0.341333-2.048 0-2.389333-1.365333 0-0.341333-0.341333-1.365333 0.682666-2.389334 0.682667-0.682667 1.365333-0.682667 1.365334-0.682666 0-0.341333 0-0.682667-0.341334-1.365334l-2.048-5.12c0-0.341333-0.341333-0.341333-0.341333-0.341333l-0.341333 0.341333-2.048 2.048 4.096 9.898667c0.341333 0.341333 0.341333 1.365333 0 1.706667 0 0.341333-0.341333 0.682667-0.682667 0.682666-0.682667 0.341333-2.048 0-2.389333-1.365333l-3.754667-8.874667-2.048 2.048 4.096 9.898667c0 0.341333 0.341333 0.341333 0.682667 0.341333s1.365333 0 5.12-1.706666c3.072-1.365333 3.754667-1.706667 3.754666-2.048 0.341333-0.341333 0.341333-0.682667 0-1.365334s-0.341333-1.706667 0-2.048c0-0.341333 0.341333-0.682667 0.682667-1.365333 0.341333-0.341333 1.365333-0.341333 1.706667 0 0.341333 0 0.682667 0.341333 0.682666 1.365333 0.682667 2.389333 0.682667 4.437333 0 5.12-0.682667 0.682667-2.730667 2.048-6.485333 3.072-2.389333 0.682667-4.096 1.706667-5.12 2.048-0.341333 1.706667-1.024 1.706667-1.365333 1.706667z m-6.144-12.970667l4.437333 10.922667c0.341333 1.365333 1.365333 1.706667 2.730667 1.365333 1.365333-0.341333 2.730667-0.682667 5.12-1.706666 4.437333-1.706667 5.461333-2.730667 6.144-3.072 0.682667-0.682667 0.682667-2.048 0-4.437334 0-0.341333-0.341333-0.341333-0.341334-0.341333h-0.682666c-0.341333 0-0.341333 0.341333-0.341334 0.341333v1.365334c0.341333 0.682667 0.341333 1.706667 0 2.389333-0.341333 0.341333-0.682667 1.365333-4.096 2.389333-4.096 1.706667-5.12 2.048-5.461333 2.048-0.682667 0-1.365333-0.341333-1.706667-1.365333l-4.437333-10.24 3.754667-3.754667 4.096 9.898667c0.341333 0.682667 0.682667 0.682667 0.682666 0.341333 0.341333 0 0.341333 0 0.341334-0.341333v-0.682667l-4.437334-10.922666 2.730667-2.389334h0.682667c0.682667-0.341333 1.706667 0 2.048 0.682667l2.048 5.12c0.341333 0.341333 0.341333 1.365333 0.341333 1.706667 0 0.341333-0.341333 1.365333-1.706667 1.706666-0.682667 0.341333-0.682667 0.682667-0.341333 1.365334s0.682667 0.682667 0.682667 0.341333c2.389333-1.365333 3.072-2.730667 2.048-5.12l-2.730667-6.826667c-0.341333-0.682667-0.341333-1.365333-0.682667-1.365333h-1.365333s-0.341333 0.341333-1.365333 0.682667l-3.072 2.730666-2.389334-6.144c-0.341333-0.682667-0.341333-0.682667-0.682666-0.341333-0.341333 0-0.341333 0.341333-0.341334 1.365333l2.730667 6.826667-3.754667 3.754667-2.389333-6.144c0-0.341333-0.341333-0.341333-0.341333-0.341334h-0.341334c-0.341333 0-0.341333 0.341333-0.341333 1.365334l2.730667 6.826666-2.389334 2.048c-0.341333 0.341333-0.341333 0.682667-0.341333 0.682667 0 0.341333 0.341333 0.341333 0.341333 0.341333h0.341334s0.341333-0.341333 2.048-1.706666v-1.365334z" fill="#FFFFFF" opacity=".8" p-id="1041"></path><path d="M845.482667 94.890667s-2.730667 11.946667-2.389334 17.066666c0.341333 4.778667-10.24 0.341333-10.24 0.341334s-1.024-15.36 12.629334-17.408z" fill="#301F4F" p-id="1042"></path><path d="M828.757333 151.552c-1.706667 2.048-4.096-8.874667-7.168-9.898667-3.072-1.365333-7.850667-2.048-7.509333-4.096 0-1.706667 4.096-3.754667 4.437333-6.144 0.341333-2.389333-16.384-3.754667-16.725333-17.749333 0-13.994667 36.181333-18.432 37.888 2.048 2.389333 21.162667-5.12 28.672-10.922667 35.84z" fill="#423160" p-id="1043"></path><path d="M866.645333 117.077333c1.365333 18.090667-25.6 27.989333-28.330666 2.730667-3.072-25.258667 26.965333-24.917333 28.330666-2.730667z" fill="#423160" p-id="1044"></path><path d="M736.938667 140.970667s-7.168-7.509333-8.874667-9.216c-1.706667-1.365333-5.12-16.384-7.168-16.042667-2.048 0.341333 0 10.24 0 10.24s-10.922667-12.970667-13.312-12.288c-2.048 0-4.437333 15.36-1.706667 19.456 2.730667 4.778667 12.970667 7.850667 15.701334 9.557333 2.730667 1.706667 10.24 7.850667 10.24 7.850667l5.12-9.557333z" fill="#FECFCE" p-id="1045"></path><path d="M957.098667 347.136l9.557333 6.485333-6.144 11.264-11.605333-7.509333z" fill="#FECFCE" p-id="1046"></path><path d="M958.122667 347.477333c-6.826667-4.778667-41.301333-28.672-62.122667-39.594666-13.653333-22.869333-41.642667-65.877333-41.642667-65.877334-43.690667-8.533333-25.6 30.378667-22.869333 35.157334 2.730667 5.12 44.032 50.176 48.469333 53.248 7.509333 5.461333 62.464 25.941333 71.338667 29.354666 0.682667 0.341333 1.706667 0 2.048-0.682666l5.461333-9.898667c0.341333-0.341333-0.341333-1.365333-0.682666-1.706667z" fill="#163A7F" p-id="1047"></path><path d="M854.234453 394.448213l13.462187-2.286933 2.454187 14.472533-13.462187 2.286934z" fill="#FECFCE" p-id="1048"></path><path d="M859.818667 237.226667c-15.36-8.874667-35.157333 4.778667-37.888 16.725333-2.730667 11.605333 9.557333 62.805333 10.24 69.973333 0.682667 7.168 22.869333 78.848 22.869333 78.848l14.677333-2.389333s-2.730667-44.032-9.557333-74.069333c3.754667-14.336 9.898667-40.277333 9.216-52.906667-0.341333-17.408-9.557333-36.181333-9.557333-36.181333z" fill="#163A7F" p-id="1049"></path><path d="M870.058667 405.162667c1.365333-0.341333 3.072 1.706667 3.754666 6.826666 0.682667 5.12 2.048 7.850667-2.048 8.874667-2.389333 0.682667-25.941333 4.096-33.450666 5.12-0.341333 0-1.365333 0-1.706667-0.341333-0.341333-0.341333-0.682667-0.682667-0.682667-1.706667 0-2.730667 1.365333-6.826667 7.850667-8.874667 5.12-2.048 9.216-7.850667 11.605333-8.533333 2.389333-0.341333 3.754667 1.706667 7.168 0.682667 4.437333 0 5.12-1.706667 7.509334-2.048z" fill="#FFFFFF" p-id="1050"></path><path d="M962.218667 351.914667c0.682667-1.365333 3.072-1.365333 7.509333 1.706666 4.437333 2.730667 7.168 3.754667 5.461333 7.168-1.365333 2.389333-13.994667 21.845333-18.090666 28.330667-0.341333 0.341333-0.682667 0.682667-1.365334 0.682667-0.341333 0-1.365333 0-1.706666-0.341334-2.048-1.706667-4.437333-5.12-1.365334-11.605333 2.048-4.778667 0-11.946667 1.365334-13.994667s3.754667-1.706667 5.461333-4.778666c2.389333-3.413333 2.048-5.12 2.730667-7.168z" fill="#FFFFFF" p-id="1051"></path><path d="M846.848 207.872c-1.706667-8.533333-6.144-43.690667-16.042667-50.176-7.850667-5.12-27.306667 9.557333-39.594666 8.874667-12.288-0.682667-58.368-31.061333-58.368-31.061334l-8.533334 10.922667c23.210667 21.504 55.637333 37.205333 73.728 44.373333-2.730667 4.778667-5.12 10.24-4.437333 14.336 1.706667 6.826667 14.677333 8.533333 16.384 18.432 2.048 9.557333-1.365333 34.133333 6.485333 39.253334 7.509333 4.778667 47.104 0 53.930667-7.850667 7.509333-8.533333-20.138667-28.672-23.552-47.104z" fill="#30CDAA" p-id="1052"></path><path d="M892.586667 291.157333c-4.437333 0-8.533333-2.048-11.264-6.144l-40.96-60.074666c-2.730667-4.437333-3.072-9.557333-0.682667-13.994667 2.389333-4.437333 6.826667-7.168 11.946667-7.168 0.682667 0 1.706667 0 2.730666 0.341333l71.338667 13.653334c5.461333 1.365333 9.898667 5.461333 10.922667 11.264 0.682667 5.461333-1.706667 11.264-6.826667 13.994666l-8.533333 4.778667c-7.850667 4.437333-13.312 12.288-13.994667 21.504l-1.365333 9.557333c-0.682667 8.192-7.509333 12.288-13.312 12.288z" fill="#326DF0" p-id="1053"></path><path d="M851.626667 206.506667c0.682667 0 1.706667 0 2.048 0.341333l71.338666 13.653333c9.898667 2.048 12.288 15.36 3.072 20.48l-8.533333 4.778667c-8.533333 4.778667-14.336 13.653333-15.36 23.552l-1.365333 9.557333c-0.682667 6.144-6.144 9.898667-11.264 9.898667-3.072 0-6.826667-1.706667-9.216-4.778667l-40.96-60.074666c-4.096-7.509333 1.365333-17.408 10.24-17.408m0-4.778667c-6.144 0-11.264 3.072-13.994667 8.533333-2.730667 5.12-2.389333 11.605333 0.682667 16.384l40.96 60.074667c3.072 4.437333 7.850667 7.168 13.312 7.168 8.533333 0 15.36-6.144 16.042666-14.336l1.365334-9.557333c0.682667-7.850667 5.461333-15.701333 12.970666-19.456l8.533334-4.778667c6.144-3.072 8.874667-9.898667 7.850666-16.384-1.365333-6.826667-6.144-11.946667-12.970666-13.312l-71.338667-13.653333c-1.365333-0.682667-2.730667-0.682667-3.413333-0.682667z" fill="#DCE9F4" p-id="1054"></path><path d="M768 959.146667s21.845333 12.970667 47.786667-5.12c0 0 2.389333 44.714667 34.133333 59.392 0 0-40.96 5.12-57.685333-10.922667-18.090667-17.749333-24.234667-43.349333-24.234667-43.349333z" fill="#EAEAEA" p-id="1055"></path><path d="M347.136 298.325333s-10.24 10.922667-26.965333 1.706667c0 0 4.778667 30.037333-10.922667 43.349333 0 0 22.869333-0.682667 30.037333-13.312 8.192-13.653333 7.850667-31.744 7.850667-31.744z" fill="#FFFFFF" p-id="1056"></path><path d="M463.189333 768.682667c-6.485333 0-12.288 1.365333-17.749333 4.096 7.168 7.509333 11.605333 17.749333 11.605333 28.672 0 6.826667-1.706667 13.312-4.778666 19.114666 11.946667 3.072 20.821333 13.994667 20.821333 26.965334 0 2.389333-0.341333 4.778667-0.682667 7.168 19.456-4.437333 34.133333-21.504 34.133334-42.325334 0-24.576-19.456-43.690667-43.349334-43.690666z" fill="#FFFFFF" opacity=".8" p-id="1057"></path><path d="M478.890667 878.933333c0-26.282667 21.162667-47.786667 47.786666-47.786666 17.066667 0 32.426667 9.216 40.96 23.210666-1.365333-34.474667-29.354667-61.781333-64.170666-61.781333-35.157333 0-64.170667 28.672-64.170667 64.170667s28.672 64.170667 64.170667 64.170666h0.341333c-14.677333-8.192-24.917333-23.893333-24.917333-41.984z" fill="#FFFFFF" p-id="1058"></path></svg>