<?xml version="1.0" encoding="UTF-8"?>
<svg width="351px" height="220px" viewBox="0 0 351 220" version="1.1" xmlns="http://www.w3.org/2000/svg" xmlns:xlink="http://www.w3.org/1999/xlink">
    <!-- Generator: Sketch 61 (89581) - https://sketch.com -->
    <title>default_unlabel_pic</title>
    <desc>Created with Sketch.</desc>
    <defs>
        <linearGradient x1="50%" y1="17.9438689%" x2="57.7852461%" y2="86.772974%" id="linearGradient-1">
            <stop stop-color="#79EDDC" offset="0%"></stop>
            <stop stop-color="#44D7B6" offset="100%"></stop>
        </linearGradient>
        <path d="M116.713355,72.3678541 L46.7149903,82.9451687 C43.476807,83.434365 40.4550559,81.2060015 39.9658596,77.9678182 L30.8697722,17.7735412 C30.3805759,14.5353578 32.6089394,11.5136068 35.8471228,11.0244104 L105.845488,0.447095818 C109.083671,-0.0421005346 112.105422,2.18626297 112.594618,5.42444634 L121.690706,65.6187233 C122.179902,68.8569067 119.951539,71.8786577 116.713355,72.3678541 Z" id="path-2"></path>
        <filter x="-33.0%" y="-36.3%" width="166.0%" height="172.6%" filterUnits="objectBoundingBox" id="filter-3">
            <feOffset dx="0" dy="0" in="SourceAlpha" result="shadowOffsetOuter1"></feOffset>
            <feGaussianBlur stdDeviation="10" in="shadowOffsetOuter1" result="shadowBlurOuter1"></feGaussianBlur>
            <feColorMatrix values="0 0 0 0 0   0 0 0 0 0   0 0 0 0 0  0 0 0 0.2 0" type="matrix" in="shadowBlurOuter1"></feColorMatrix>
        </filter>
        <linearGradient x1="52.3881971%" y1="0%" x2="43.3726533%" y2="100%" id="linearGradient-4">
            <stop stop-color="#0E3784" offset="0%"></stop>
            <stop stop-color="#102B5E" offset="100%"></stop>
        </linearGradient>
        <linearGradient x1="50.5007447%" y1="0%" x2="48.6104124%" y2="100%" id="linearGradient-5">
            <stop stop-color="#1C489B" offset="0%"></stop>
            <stop stop-color="#102B5E" offset="100%"></stop>
        </linearGradient>
        <linearGradient x1="45.174936%" y1="12.3053663%" x2="51.2689393%" y2="100%" id="linearGradient-6">
            <stop stop-color="#75F4FF" offset="0%"></stop>
            <stop stop-color="#53E9FE" offset="100%"></stop>
        </linearGradient>
        <linearGradient x1="34.2608009%" y1="31.8270591%" x2="54.1392381%" y2="74.1054749%" id="linearGradient-7">
            <stop stop-color="#75F4FF" offset="0%"></stop>
            <stop stop-color="#53E9FE" offset="100%"></stop>
        </linearGradient>
    </defs>
    <g id="图标" stroke="none" stroke-width="1" fill="none" fill-rule="evenodd">
        <g id="切图" transform="translate(-543.000000, -1183.000000)" fill-rule="nonzero">
            <g id="default_unlabel_pic" transform="translate(543.000000, 1183.000000)">
                <g id="plant_4_" transform="translate(284.030367, 107.326715)">
                    <g id="Group" transform="translate(5.929653, 22.532680)">
                        <path d="M42.8263241,43.3789677 C39.8650555,44.5927676 36.7170028,45.5154216 33.5096537,46.1285477 C33.2001258,46.1884372 32.8905979,46.2489196 32.5751404,46.294578 C31.3939536,46.5116033 30.2098019,46.6794124 29.0220924,46.7985984 L29.0078613,46.8045281 C28.6722429,46.8418849 28.3164638,46.8709402 27.9749158,46.8934729 C15.915781,47.9264184 4.36541036,44.6568079 1.12248327,36.7454652 L1.11655361,36.731234 L0.860392615,35.9840977 C-1.09579983,30.1516913 1.6923229,23.0936256 6.96497013,16.7548268 L6.97920129,16.7488972 C7.26916131,16.3960828 7.5733525,16.0373388 7.87754369,15.6785949 L7.89177485,15.6726652 C10.7812946,12.449306 14.293428,9.43882126 18.168456,6.9483671 L18.9624365,6.43900993 L18.9766677,6.43308027 C21.2815237,5.003441 23.7055658,3.74279682 26.1663717,2.73416289 C27.8972373,2.02438345 29.5753291,1.47055388 31.1881946,1.04361889 C31.4431697,0.972463052 31.7040744,0.915538386 31.9649791,0.859206684 C33.1941961,0.555608463 34.3955438,0.347477651 35.5773236,0.214060464 C35.8352635,0.191527784 36.0878667,0.155356902 36.3517362,0.147055388 C41.0426845,-0.272171061 45.1697228,0.542563227 48.633826,2.34814249 C48.8816855,2.46377072 49.1212434,2.59955977 49.3667311,2.74957998 C53.3567944,5.02419478 56.3939625,8.64187593 58.264175,13.1223215 L58.5487983,13.8575985 C60.4225686,18.7543057 60.6176542,23.837797 58.8719644,28.5471273 C58.7824267,28.8175194 58.6869593,29.0742734 58.571331,29.3221329 C57.4263151,32.1144064 55.5798212,34.7430214 53.0099097,37.1160685 C52.8302412,37.2898073 52.6369345,37.4694758 52.4228741,37.6408427 C51.0720992,38.8297381 49.504892,39.9397691 47.7509007,40.9596694 C47.5255739,41.102574 47.2937245,41.2306545 47.062468,41.358735 C45.7526077,42.0791878 44.3431292,42.7569471 42.8263241,43.3789677 Z" id="Path" fill="#F8E71C"></path>
                        <path d="M47.2373927,19.5299043 L58.5707381,29.3221329 C58.6863663,29.0742734 58.7818337,28.8181124 58.8713715,28.5471273 L48.0070617,19.1646377 C52.8397287,16.8491083 56.504847,14.9462827 58.5482054,13.8575985 L58.263582,13.1223215 C56.3056107,14.1754279 52.7555276,16.0320022 48.0657652,18.288235 L48.0657652,18.288235 L49.3661381,2.74957998 C49.1206505,2.59955977 48.8810925,2.46377072 48.633233,2.34814249 L47.2534028,18.6718836 L47.2534028,18.6718836 C44.1480437,20.1454023 40.5783927,21.7920668 36.6535555,23.4683797 L36.3517362,0.147648354 C36.0878667,0.155949867 35.8352635,0.192120749 35.5773236,0.21465343 L35.8868514,23.7998473 C34.8971924,24.2386416 33.8814429,24.6554962 32.8573919,25.0919186 L31.9649791,0.860392615 C31.7040744,0.917317281 31.4431697,0.974241948 31.1881946,1.04539778 L32.0847581,25.409155 C27.6410763,27.2473474 22.8505099,29.0944342 17.8263151,30.8193702 L18.9624365,6.44138179 L18.168456,6.95073896 L17.0358924,31.0933202 L17.0358924,31.0933202 C13.3346031,32.376497 9.5200575,33.589111 5.65333094,34.6730515 C5.39005436,34.7643682 5.12084812,34.8414537 4.84571223,34.903715 C3.52814339,35.2766902 2.19041373,35.6413638 0.86098558,35.9858766 L1.11714658,36.7330129 C5.18251651,35.6846503 9.2093437,34.5022775 13.1466331,33.2220655 L27.9755087,46.8952518 C28.3170567,46.8721261 28.6728359,46.8436638 29.0084542,46.806307 L13.985679,32.9451507 L13.985679,32.9451507 L13.985679,32.9451507 C15.1081623,32.5852208 16.1962535,32.222919 17.2867167,31.8262252 L17.3009478,31.8202956 L17.3009478,31.8202956 L32.5757333,46.2963569 C32.8911909,46.2506985 33.2007187,46.190809 33.5102466,46.1303266 L18.1251696,31.5487175 L18.1251696,31.5487175 C23.1292035,29.814887 27.920363,27.9678002 32.3634518,26.1302008 L32.3776829,26.1242711 L47.061875,41.3605139 C47.2931315,41.2324334 47.5249809,41.1037599 47.7503077,40.9614483 L33.1497237,25.8076277 L33.1354926,25.8135573 L33.1354926,25.8135573 L33.1497237,25.8076277 C34.1880059,25.3652756 35.2037554,24.949014 36.1940075,24.5096267 L52.4222811,37.6426216 C52.6363416,37.4712547 52.8302412,37.2915862 53.0093167,37.1178474 L36.9891739,24.1668928 C40.7711064,22.5480976 44.2174206,20.9678451 47.2373927,19.5299043 L47.2373927,19.5299043 Z" id="Path" fill="#FFFFFF" opacity="0.300000012"></path>
                    </g>
                    <g id="Group">
                        <path d="M43.9766767,32.8105476 L43.6410584,33.4444275 C42.8162437,34.9742779 41.8983334,36.5017564 40.9199407,37.9966219 C40.7977899,38.1976371 40.6637797,38.3915368 40.5297696,38.5860294 C38.4081398,41.7702529 35.98054,44.8234311 33.3946184,47.5279457 C33.2107992,47.7271821 33.0216432,47.9080365 32.8449396,48.0954135 C25.5354566,55.5092583 16.9973496,60.0258748 10.2322088,56.6803648 C10.1402992,56.6471587 10.0430529,56.5955707 9.95766587,56.5505054 C9.83551503,56.4858722 9.70150487,56.4153093 9.58646961,56.3382238 C2.77982121,52.3926329 -0.382462603,41.0290463 0.34391986,29.6014195 C0.351035443,29.2930776 0.37653295,28.978806 0.40796011,28.6835093 C0.798131261,23.8182292 1.90282557,18.988527 3.74694758,14.736966 C3.83292754,14.4861417 3.93669646,14.2602219 4.05944028,14.0283725 C4.31382238,13.4294776 4.59844571,12.8626028 4.89492835,12.3016576 C5.15286824,11.8142402 5.42326041,11.3327523 5.70491892,10.8892143 C5.81461749,10.6822694 5.93676834,10.4812542 6.07077849,10.2867616 C9.14471048,5.42207448 13.079628,2.52662504 17.3507569,1.11951844 C17.5873501,1.02642289 17.8298729,0.951709267 18.084255,0.883518261 C24.0411841,-0.848533309 30.550164,0.208723777 36.2343291,2.8260725 C36.4477966,2.92331881 36.6618571,3.02115808 36.8753246,3.11840438 C37.2287319,3.30518845 37.5886618,3.4801132 37.9420691,3.66749023 C44.0982346,6.92524145 47.694569,11.2467724 48.1831724,17.076214 C48.2145995,17.3116212 48.2276448,17.5523651 48.2282377,17.7865864 C48.3023584,19.3864067 48.1523382,21.0858452 47.7645389,22.9092134 C47.7224383,23.1363191 47.6678855,23.3574952 47.6068101,23.5905305 C46.9385383,26.3881407 45.7389695,29.4513993 43.9766767,32.8105476 Z" id="Path" fill="#4F84FA"></path>
                        <path d="M29.5901532,14.5863528 L48.2294237,17.7865864 C48.2288307,17.5517722 48.2157855,17.3110283 48.1837653,17.076214 L29.9874399,13.9542518 C32.8407888,9.26923319 35.3229415,5.46417501 36.8759175,3.11840438 C36.66245,3.02115808 36.4483896,2.92331881 36.2349221,2.8260725 C34.6689008,5.19615471 32.1932707,8.98876061 29.3594897,13.6370154 L18.0854409,0.882925295 C17.8310588,0.951116302 17.588536,1.02582993 17.3519429,1.11892548 L28.9877005,14.2513274 C26.5120704,18.340416 23.7743498,23.0710929 21.1356543,28.056745 L6.07196442,10.2855757 C5.93795427,10.4800683 5.81580342,10.6804905 5.70669781,10.8880284 L20.7941063,28.7024842 C20.2782265,29.677912 19.7676834,30.6717218 19.2571403,31.6655316 L4.06062621,14.0271866 C3.9378824,14.259036 3.83411347,14.4849558 3.74813351,14.7357801 L18.920929,32.3302457 C17.2001437,35.7890122 15.5576299,39.3047033 14.1078298,42.7818517 L0.40914604,28.6823233 C0.377718881,28.9776201 0.351628408,29.2918916 0.34510579,29.6002336 L13.8202417,43.4720632 C11.9897579,47.933534 10.5008221,52.3108036 9.58706258,56.3370379 C9.7026908,56.4135304 9.83670096,56.4846862 9.95825884,56.5493194 C10.0436458,56.5943848 10.1414851,56.6459728 10.2328018,56.6791788 C11.1157271,52.6523516 12.5987332,48.2567001 14.4357396,43.7827771 L32.8455325,48.0942276 C33.0228292,47.9068505 33.2119851,47.7259961 33.3952114,47.5267598 L14.6972373,43.1405957 C16.1470374,39.6634473 17.7836216,36.1287813 19.5293114,32.6522259 L40.5297696,38.5848434 C40.6637797,38.3903508 40.7977899,38.1958582 40.9193477,37.995436 L19.8453618,32.0242756 C20.3559049,31.0304658 20.8658551,30.036656 21.3888505,29.0487759 L43.6404654,33.4426486 L43.9760837,32.8087687 L21.7309914,28.4024437 C23.4666008,25.1233458 25.2543911,21.9497956 26.9763622,18.9908989 L47.6068101,23.5881587 C47.6678855,23.3551233 47.7224383,23.1339473 47.7645389,22.9068416 L27.3428148,18.357612 C28.1142626,17.0507165 28.8708863,15.7971879 29.5901532,14.5863528 Z" id="Path" fill="#FFFFFF" opacity="0.300000012"></path>
                    </g>
                    <g id="Group" transform="translate(0.000000, 49.809083)">
                        <path d="M37.5459683,44.4658731 C33.7296438,46.0135124 29.644706,46.7256637 25.6255874,46.6936436 C25.2976776,46.704317 24.9573155,46.6847491 24.6228831,46.6805984 C22.5996855,46.6088496 20.6049504,46.3509097 18.6825569,45.9233817 L18.6677328,45.9293114 C18.2609586,45.832065 17.8690086,45.7282961 17.4622344,45.6310498 C10.1314047,43.6884956 3.9770181,39.2560801 1.48537802,33.111774 C1.36322717,32.8111406 1.26301604,32.5199946 1.16221194,32.2282557 C1.07386011,31.966758 0.984915323,31.7052603 0.932734379,31.4467275 C-0.904272045,25.0189839 1.57669467,18.2396119 6.57717084,12.6248237 L6.59199497,12.618894 C6.85527155,12.3194466 7.11024662,12.0413459 7.37945285,11.7573155 L7.39427699,11.7513858 C10.4527919,8.5517452 14.3052873,5.7992004 18.6398634,3.76177171 C18.904326,3.637249 19.1681955,3.51213333 19.4391806,3.40243475 C19.8477337,3.20201249 20.253322,3.03716814 20.6737343,2.86639414 C23.0473743,1.90341853 25.392552,1.21498585 27.6784331,0.812955393 C27.936966,0.760774449 28.1954989,0.708000539 28.4605543,0.670643727 C31.369642,0.208130812 34.1631014,0.19449261 36.7543596,0.630915053 C37.0283096,0.659970352 37.3087822,0.703256817 37.5951844,0.762553344 C39.4215175,1.12426216 41.1642424,1.71189075 42.7664346,2.51417277 C43.0469071,2.64521809 43.3184852,2.79761017 43.5906563,2.95000225 C47.2824581,5.02182292 50.2034051,8.29795607 51.9645119,12.6396478 C52.0190647,12.7748439 52.0742105,12.91004 52.1139392,13.0511657 C52.2177081,13.3067337 52.3208841,13.5617088 52.4033062,13.8083824 C53.6734379,17.5446566 53.9485737,21.5442074 53.2720004,25.4399892 C53.2192264,25.7412156 53.1664525,26.0424419 53.0988545,26.3501909 C52.6689547,28.3965141 51.9502808,30.4197116 50.9784107,32.3361754 C50.8562598,32.5958942 50.7281793,32.8401959 50.5846817,33.0910202 C48.9730021,36.0190827 46.7280356,38.6791249 43.8663852,40.8547145 C43.6564755,41.0272674 43.4465657,41.1998203 43.2242038,41.3427249 C41.5348457,42.5677912 39.634392,43.6191186 37.5459683,44.4658731 Z" id="Path" fill="#44D7B6"></path>
                        <path d="M43.3309375,17.9241544 L43.3309375,17.9241544 L53.0988545,26.349005 C53.1664525,26.041849 53.2192264,25.7400296 53.2720004,25.4388033 L44.1302547,17.5648174 C47.1585284,16.2318315 49.949023,14.9599209 52.4033062,13.8071964 C52.3208841,13.5605229 52.2171151,13.3055478 52.1133462,13.0499798 C49.6442388,14.2086339 46.8383271,15.4870671 43.7952293,16.8259827 L43.5900633,2.94822335 C43.3184852,2.79583127 43.0469071,2.6434392 42.7664346,2.51239387 L43.0113292,17.178797 C41.752464,17.741521 40.4277795,18.3143255 39.087678,18.8924666 L39.087678,18.8924666 L37.5945914,0.760774449 C37.3081892,0.702070886 37.0283096,0.658191456 36.7537667,0.629136157 L38.2913256,19.2150398 L38.2913256,19.2150398 L38.2913256,19.2150398 C35.2956651,20.4999955 32.1559139,21.773092 28.9675396,23.0141683 L28.4599614,0.669457796 C28.1949059,0.706814609 27.936373,0.758995553 27.6778402,0.811769462 L28.1652576,23.3225102 L28.1652576,23.3225102 L28.1652576,23.3225102 C25.4577782,24.367908 22.7016756,25.3806927 19.9817439,26.3092763 L19.9817439,26.3092763 L19.4379947,3.40124882 C19.1676025,3.5109474 18.90314,3.6354701 18.6386775,3.76058578 L19.1818337,26.5808544 C15.1840618,27.9399308 11.2277975,29.1418714 7.49626701,30.0781636 C7.22883967,30.1516913 6.95488972,30.2103949 6.68093976,30.2685055 C4.69332016,30.7594807 2.7715197,31.1543956 0.930362517,31.4461345 L1.15984008,32.2276627 C3.01582139,31.9299942 4.96786308,31.52322 6.97682943,31.0405462 L6.99165356,31.0346166 C7.274498,30.9551592 7.54785499,30.8964557 7.83662908,30.8318225 C9.2621176,30.463591 10.7113247,30.0686762 12.1990746,29.6399623 L24.6211042,46.6805984 C24.9549436,46.6847491 25.2953057,46.704317 25.6238085,46.6936436 L13.0108441,29.3986254 L13.0108441,29.3986254 C18.0433404,27.9173981 23.2940479,26.0679394 28.4386146,24.0862495 L28.4386146,24.0862495 L43.2224249,41.340946 C43.4447868,41.1986344 43.6546966,41.0260815 43.8646063,40.8529356 L29.2426755,23.7779076 C32.4458739,22.5309016 35.6010422,21.2518755 38.6115269,19.9603971 L38.6115269,19.9603971 L50.5840888,33.0892413 C50.7275864,32.8390099 50.8556669,32.5941153 50.9778177,32.3343965 L39.4072863,19.637231 L39.4072863,19.637231 C40.7473878,19.0590899 42.0572481,18.492808 43.3309375,17.9241544 Z" id="Path" fill="#DBFEED" opacity="0.300000012"></path>
                    </g>
                </g>
                <g id="Group" transform="translate(81.829208, 0.000000)">
                    <g>
                        <path d="M219.493805,17.7142446 L219.493805,208.649063 C219.493805,210.286241 218.166156,211.61389 216.528979,211.61389 L3.39354027,211.61389 C1.75636315,211.61389 0.428713894,210.286241 0.428713894,208.649063 L0.428713894,17.7142446 L219.493805,17.7142446 Z" id="Path" fill="#4F84FA"></path>
                        <path d="M219.493805,5.54422533 L219.493805,17.7148376 L0.428713894,17.7148376 L0.428713894,5.54422533 C0.428713894,2.72289655 2.71578096,0.435829362 5.53710974,0.435829362 L214.384816,0.435829362 C217.206738,0.435236512 219.493805,2.72289655 219.493805,5.54422533 Z" id="Path" fill="#4F84FA"></path>
                        <circle id="Oval" fill="#F8E71C" cx="16.1256907" cy="9.38367549" r="3.23166075"></circle>
                        <circle id="Oval" fill="#44D7B6" cx="27.6309959" cy="9.38367549" r="3.23166075"></circle>
                        <rect id="Rectangle" fill="#F3F9FF" opacity="0.0765811012" x="0.428713894" y="17.7142446" width="218.642307" height="4.8735816"></rect>
                    </g>
                    <g transform="translate(18.381924, 35.577917)">
                        <g transform="translate(99.025201, 86.572930)">
                            <path d="M82.700867,9.41273078 L82.700867,70.286546 C82.700867,73.565644 80.0443826,76.2161987 76.7712142,76.2161987 L5.97708998,76.2161987 C2.70392166,76.2161987 0.047437222,73.565644 0.047437222,70.286546 L0.047437222,9.41273078 C0.047437222,6.13363281 2.70392166,3.48307803 5.97708998,3.48307803 L76.7712142,3.48307803 C80.0443826,3.48307803 82.700867,6.13363281 82.700867,9.41273078 Z" id="Path" fill="#2360E8"></path>
                            <path d="M82.700867,6.44790441 L82.700867,67.3217196 C82.700867,70.6008176 80.0443826,73.2513724 76.7712142,73.2513724 L5.97708998,73.2513724 C2.70392166,73.2513724 0.047437222,70.6008176 0.047437222,67.3217196 L0.047437222,6.44790441 C0.047437222,3.16880643 2.70392166,0.518251651 5.97708998,0.518251651 L76.7712142,0.518251651 C80.0443826,0.518251651 82.700867,3.16880643 82.700867,6.44790441 Z" id="Path" fill="#326DF0"></path>
                            <path d="M26.9317581,10.8491532 C27.4806287,10.8491532 27.9255762,11.2941008 27.9255762,11.8429714 L27.9255762,27.4792095 C27.9255762,27.888629 27.6744238,28.2561271 27.293011,28.4049511 L21.2058747,30.7811703 C20.9735684,30.8718142 20.7156752,30.8718142 20.4833689,30.7811703 L14.3962327,28.4049511 C14.0148198,28.2561271 13.7636674,27.888629 13.7636674,27.4792095 L13.7636674,11.8429714 C13.7636674,11.2941008 14.208615,10.8491532 14.7574856,10.8491532 L26.9317581,10.8491532 Z M20.8446218,24.224455 C20.2758129,24.2143462 19.745832,24.5120159 19.4584693,25.0030031 C19.1711066,25.4939903 19.1711066,26.1018448 19.4584693,26.592832 C19.745832,27.0838193 20.2758129,27.381489 20.8446218,27.3713802 C21.7027219,27.3561301 22.3903694,26.6561532 22.3903694,25.7979176 C22.3903694,24.939682 21.7027219,24.2397051 20.8446218,24.224455 L20.8446218,24.224455 Z" id="形状" fill="#44D7B6"></path>
                            <path d="M49.9317581,10.8491532 C50.4806287,10.8491532 50.9255762,11.2941008 50.9255762,11.8429714 L50.9255762,27.4792095 C50.9255762,27.888629 50.6744238,28.2561271 50.293011,28.4049511 L44.2058747,30.7811703 C43.9735684,30.8718142 43.7156752,30.8718142 43.4833689,30.7811703 L37.3962327,28.4049511 C37.0148198,28.2561271 36.7636674,27.888629 36.7636674,27.4792095 L36.7636674,11.8429714 C36.7636674,11.2941008 37.208615,10.8491532 37.7574856,10.8491532 L49.9317581,10.8491532 Z M43.8446218,24.224455 C43.2758129,24.2143462 42.745832,24.5120159 42.4584693,25.0030031 C42.1711066,25.4939903 42.1711066,26.1018448 42.4584693,26.592832 C42.745832,27.0838193 43.2758129,27.381489 43.8446218,27.3713802 C44.7027219,27.3561301 45.3903694,26.6561532 45.3903694,25.7979176 C45.3903694,24.939682 44.7027219,24.2397051 43.8446218,24.224455 L43.8446218,24.224455 Z" id="形状备份-2" fill="#F8E71C"></path>
                            <path d="M72.9317581,10.8491532 C73.4806287,10.8491532 73.9255762,11.2941008 73.9255762,11.8429714 L73.9255762,27.4792095 C73.9255762,27.888629 73.6744238,28.2561271 73.293011,28.4049511 L67.2058747,30.7811703 C66.9735684,30.8718142 66.7156752,30.8718142 66.4833689,30.7811703 L60.3962327,28.4049511 C60.0148198,28.2561271 59.7636674,27.888629 59.7636674,27.4792095 L59.7636674,11.8429714 C59.7636674,11.2941008 60.208615,10.8491532 60.7574856,10.8491532 L72.9317581,10.8491532 Z M66.8446218,24.224455 C66.2758129,24.2143462 65.745832,24.5120159 65.4584693,25.0030031 C65.1711066,25.4939903 65.1711066,26.1018448 65.4584693,26.592832 C65.745832,27.0838193 66.2758129,27.381489 66.8446218,27.3713802 C67.7027219,27.3561301 68.3903694,26.6561532 68.3903694,25.7979176 C68.3903694,24.939682 67.7027219,24.2397051 66.8446218,24.224455 L66.8446218,24.224455 Z" id="形状备份-3" fill="#4F84FA"></path>
                            <path d="M26.9317581,42.8491532 C27.4806287,42.8491532 27.9255762,43.2941008 27.9255762,43.8429714 L27.9255762,59.4792095 C27.9255762,59.888629 27.6744238,60.2561271 27.293011,60.4049511 L21.2058747,62.7811703 C20.9735684,62.8718142 20.7156752,62.8718142 20.4833689,62.7811703 L14.3962327,60.4049511 C14.0148198,60.2561271 13.7636674,59.888629 13.7636674,59.4792095 L13.7636674,43.8429714 C13.7636674,43.2941008 14.208615,42.8491532 14.7574856,42.8491532 L26.9317581,42.8491532 Z M20.8446218,56.224455 C20.2758129,56.2143462 19.745832,56.5120159 19.4584693,57.0030031 C19.1711066,57.4939903 19.1711066,58.1018448 19.4584693,58.592832 C19.745832,59.0838193 20.2758129,59.381489 20.8446218,59.3713802 C21.7027219,59.3561301 22.3903694,58.6561532 22.3903694,57.7979176 C22.3903694,56.939682 21.7027219,56.2397051 20.8446218,56.224455 L20.8446218,56.224455 Z" id="形状备份-4" fill="#4F84FA"></path>
                            <path d="M49.9317581,42.8491532 C50.4806287,42.8491532 50.9255762,43.2941008 50.9255762,43.8429714 L50.9255762,59.4792095 C50.9255762,59.888629 50.6744238,60.2561271 50.293011,60.4049511 L44.2058747,62.7811703 C43.9735684,62.8718142 43.7156752,62.8718142 43.4833689,62.7811703 L37.3962327,60.4049511 C37.0148198,60.2561271 36.7636674,59.888629 36.7636674,59.4792095 L36.7636674,43.8429714 C36.7636674,43.2941008 37.208615,42.8491532 37.7574856,42.8491532 L49.9317581,42.8491532 Z M43.8446218,56.224455 C43.2758129,56.2143462 42.745832,56.5120159 42.4584693,57.0030031 C42.1711066,57.4939903 42.1711066,58.1018448 42.4584693,58.592832 C42.745832,59.0838193 43.2758129,59.381489 43.8446218,59.3713802 C44.7027219,59.3561301 45.3903694,58.6561532 45.3903694,57.7979176 C45.3903694,56.939682 44.7027219,56.2397051 43.8446218,56.224455 L43.8446218,56.224455 Z" id="形状备份-5" fill="#44D7B6"></path>
                        </g>
                        <path d="M77.1910336,160.713751 L71.2613809,160.713751 L71.2613809,158.934855 L77.1910336,158.934855 L77.1910336,160.713751 Z M65.3317281,160.713751 L59.4020754,160.713751 L59.4020754,158.934855 L65.3317281,158.934855 L65.3317281,160.713751 Z M53.4724226,160.713751 L47.5427699,160.713751 L47.5427699,158.934855 L53.4724226,158.934855 L53.4724226,160.713751 Z M41.6131171,160.713751 L35.6834644,160.713751 L35.6834644,158.934855 L41.6131171,158.934855 L41.6131171,160.713751 Z M29.7538116,160.713751 L23.8241588,160.713751 L23.8241588,158.934855 L29.7538116,158.934855 L29.7538116,160.713751 Z M17.8945061,160.713751 L11.9648533,160.713751 L11.9648533,158.934855 L17.8945061,158.934855 L17.8945061,160.713751 Z M5.85019541,160.545941 C3.57558061,160.03184 1.74272494,158.414824 0.94755851,156.219667 L2.61972059,155.614249 C3.19904766,157.211698 4.58658641,158.437357 6.24214546,158.811518 L5.85019541,160.545941 Z M83.2197116,158.461075 L81.8991779,157.269215 C82.734073,156.343003 83.1948071,155.144621 83.1948071,153.89465 L83.1948071,152.317362 L84.9737029,152.317362 L84.9737029,153.89465 C84.9737029,155.58638 84.3504964,157.20814 83.2197116,158.461075 Z M2.32027312,150.029109 L0.541377297,150.029109 L0.541377297,144.099456 L2.32027312,144.099456 L2.32027312,150.029109 Z M84.9737029,146.387709 L83.1948071,146.387709 L83.1948071,140.458057 L84.9737029,140.458057 L84.9737029,146.387709 Z M2.32027312,138.169804 L0.541377297,138.169804 L0.541377297,132.240151 L2.32027312,132.240151 L2.32027312,138.169804 Z M84.9737029,134.528404 L83.1948071,134.528404 L83.1948071,128.598751 L84.9737029,128.598751 L84.9737029,134.528404 Z M2.32027312,126.310498 L0.541377297,126.310498 L0.541377297,120.380845 L2.32027312,120.380845 L2.32027312,126.310498 Z M84.9737029,122.669098 L83.1948071,122.669098 L83.1948071,116.739446 L84.9737029,116.739446 L84.9737029,122.669098 Z M2.32027312,114.451193 L0.541377297,114.451193 L0.541377297,108.52154 L2.32027312,108.52154 L2.32027312,114.451193 Z M84.9737029,110.809793 L83.1948071,110.809793 L83.1948071,104.88014 L84.9737029,104.88014 L84.9737029,110.809793 Z M2.32027312,102.591887 L0.541377297,102.591887 L0.541377297,96.6622344 L2.32027312,96.6622344 L2.32027312,102.591887 Z M84.9737029,98.9504874 L83.1948071,98.9504874 L83.1948071,93.0208346 C83.1948071,91.8408337 82.7791384,90.6934459 82.0242936,89.7909528 L83.3898926,88.6500876 C84.4115718,89.872782 84.9737029,91.4251651 84.9737029,93.0208346 L84.9737029,98.9504874 Z M2.68909752,91.1233458 L1.04124702,90.453888 C1.92002156,88.2913436 3.81276672,86.7442972 6.10398455,86.3161763 L6.43070841,88.0648309 C4.76269709,88.3767306 3.32890706,89.54843 2.68909752,91.1233458 Z M77.4169534,87.9806298 L71.4873007,87.9806298 L71.4873007,86.201734 L77.4169534,86.201734 L77.4169534,87.9806298 Z M65.5576479,87.9806298 L59.6279951,87.9806298 L59.6279951,86.201734 L65.5576479,86.201734 L65.5576479,87.9806298 Z M53.6983424,87.9806298 L47.7686896,87.9806298 L47.7686896,86.201734 L53.6983424,86.201734 L53.6983424,87.9806298 Z M41.8390369,87.9806298 L35.9093841,87.9806298 L35.9093841,86.201734 L41.8390369,86.201734 L41.8390369,87.9806298 Z M29.9797314,87.9806298 L24.0500786,87.9806298 L24.0500786,86.201734 L29.9797314,86.201734 L29.9797314,87.9806298 Z M18.1204259,87.9806298 L12.1907731,87.9806298 L12.1907731,86.201734 L18.1204259,86.201734 L18.1204259,87.9806298 Z" id="Shape" fill="#326DF0"></path>
                        <g transform="translate(1.185931, 0.000000)">
                            <path d="M82.8983244,6.25222587 L82.8983244,67.1260411 C82.8983244,70.405139 80.24184,73.0556938 76.9686717,73.0556938 L6.17454741,73.0556938 C2.90137909,73.0556938 0.244894659,70.405139 0.244894659,67.1260411 L0.244894659,6.25222587 C0.244894659,2.97312789 2.90137909,0.32257311 6.17454741,0.32257311 L76.9686717,0.32257311 C80.24184,0.32257311 82.8983244,2.97312789 82.8983244,6.25222587 Z" id="Path" fill="#326DF0"></path>
                            <path d="M82.3699924,69.5666861 C81.4390369,71.6242756 79.3755177,73.0592516 76.9680787,73.0592516 L6.17395445,73.0592516 C2.90078613,73.0592516 0.244301694,70.4027672 0.244301694,67.1295989 L0.244301694,6.249854 C0.244301694,3.84241499 1.67927766,1.77889583 3.73686717,0.847940344 C3.40480661,1.59507659 3.20912807,2.41336867 3.20912807,3.28502763 L3.20912807,65.9436683 C3.20912807,68.2325143 5.07103904,70.0944252 7.359885,70.0944252 L35.6621176,70.0944252 C35.9586002,70.9779435 36.201716,71.9800548 36.4389021,73.053322 L59.1494722,73.053322 C57.9813306,72.2053816 56.1016307,71.3633709 54.2100714,70.0944252 L79.9329051,70.0944252 C80.804564,70.0944252 81.6287858,69.8987467 82.3699924,69.5666861 Z" id="Path" fill="#2360E8"></path>
                            <path d="M26.7710285,10.4220835 C27.3198991,10.4220835 27.7648467,10.867031 27.7648467,11.4159016 L27.7648467,27.0521397 C27.7648467,27.4615592 27.5136943,27.8290573 27.1322814,27.9778813 L21.0451452,30.3541005 C20.8128389,30.4447444 20.5549457,30.4447444 20.3226394,30.3541005 L14.2355031,27.9778813 C13.8540903,27.8290573 13.6029379,27.4615593 13.6029379,27.0521397 L13.6029379,11.4159016 C13.6029379,10.867031 14.0478854,10.4220835 14.596756,10.4220835 L26.7710285,10.4220835 Z M20.6838923,23.7973852 C20.1150834,23.7872764 19.5851025,24.0849461 19.2977398,24.5759334 C19.0103771,25.0669206 19.0103771,25.6747751 19.2977398,26.1657623 C19.5851025,26.6567495 20.1150834,26.9544193 20.6838923,26.9443104 C21.5419924,26.9290603 22.2296399,26.2290835 22.2296399,25.3708478 C22.2296399,24.5126122 21.5419924,23.8126353 20.6838923,23.7973852 L20.6838923,23.7973852 Z" id="形状" fill="#FFAC64"></path>
                            <path d="M49.7710285,10.4220835 C50.3198991,10.4220835 50.7648467,10.867031 50.7648467,11.4159016 L50.7648467,27.0521397 C50.7648467,27.4615592 50.5136943,27.8290573 50.1322814,27.9778813 L44.0451452,30.3541005 C43.8128389,30.4447444 43.5549457,30.4447444 43.3226394,30.3541005 L37.2355031,27.9778813 C36.8540903,27.8290573 36.6029379,27.4615593 36.6029379,27.0521397 L36.6029379,11.4159016 C36.6029379,10.867031 37.0478854,10.4220835 37.596756,10.4220835 L49.7710285,10.4220835 Z M43.6838923,23.7973852 C43.1150834,23.7872764 42.5851025,24.0849461 42.2977398,24.5759334 C42.0103771,25.0669206 42.0103771,25.6747751 42.2977398,26.1657623 C42.5851025,26.6567495 43.1150834,26.9544193 43.6838923,26.9443104 C44.5419924,26.9290603 45.2296399,26.2290835 45.2296399,25.3708478 C45.2296399,24.5126122 44.5419924,23.8126353 43.6838923,23.7973852 L43.6838923,23.7973852 Z" id="形状备份-2" fill="#FF8FF5"></path>
                            <path d="M72.7710285,10.4220835 C73.3198991,10.4220835 73.7648467,10.867031 73.7648467,11.4159016 L73.7648467,27.0521397 C73.7648467,27.4615592 73.5136943,27.8290573 73.1322814,27.9778813 L67.0451452,30.3541005 C66.8128389,30.4447444 66.5549457,30.4447444 66.3226394,30.3541005 L60.2355031,27.9778813 C59.8540903,27.8290573 59.6029379,27.4615593 59.6029379,27.0521397 L59.6029379,11.4159016 C59.6029379,10.867031 60.0478854,10.4220835 60.596756,10.4220835 L72.7710285,10.4220835 Z M66.6838923,23.7973852 C66.1150834,23.7872764 65.5851025,24.0849461 65.2977398,24.5759334 C65.0103771,25.0669206 65.0103771,25.6747751 65.2977398,26.1657623 C65.5851025,26.6567495 66.1150834,26.9544193 66.6838923,26.9443104 C67.5419924,26.9290603 68.2296399,26.2290835 68.2296399,25.3708478 C68.2296399,24.5126122 67.5419924,23.8126353 66.6838923,23.7973852 L66.6838923,23.7973852 Z" id="形状备份-3" fill="#F8E71C"></path>
                        </g>
                        <g id="Group备份" transform="translate(98.788868, 0.000000)">
                            <path d="M82.8983244,6.25222587 L82.8983244,67.1260411 C82.8983244,70.405139 80.24184,73.0556938 76.9686717,73.0556938 L6.17454741,73.0556938 C2.90137909,73.0556938 0.244894659,70.405139 0.244894659,67.1260411 L0.244894659,6.25222587 C0.244894659,2.97312789 2.90137909,0.32257311 6.17454741,0.32257311 L76.9686717,0.32257311 C80.24184,0.32257311 82.8983244,2.97312789 82.8983244,6.25222587 Z" id="Path" fill="#326DF0"></path>
                            <path d="M82.3699924,69.5666861 C81.4390369,71.6242756 79.3755177,73.0592516 76.9680787,73.0592516 L6.17395445,73.0592516 C2.90078613,73.0592516 0.244301694,70.4027672 0.244301694,67.1295989 L0.244301694,6.249854 C0.244301694,3.84241499 1.67927766,1.77889583 3.73686717,0.847940344 C3.40480661,1.59507659 3.20912807,2.41336867 3.20912807,3.28502763 L3.20912807,65.9436683 C3.20912807,68.2325143 5.07103904,70.0944252 7.359885,70.0944252 L35.6621176,70.0944252 C35.9586002,70.9779435 36.201716,71.9800548 36.4389021,73.053322 L35.6621176,73.053322 C34.493976,72.2053816 36.8595077,71.3633709 34.9679484,70.0944252 L79.9329051,70.0944252 C80.804564,70.0944252 81.6287858,69.8987467 82.3699924,69.5666861 Z" id="Path" fill="#2360E8"></path>
                            <path d="M27.1680907,10.4220835 C27.7169613,10.4220835 28.1619088,10.867031 28.1619088,11.4159016 L28.1619088,27.0521397 C28.1619088,27.4615592 27.9107564,27.8290573 27.5293436,27.9778813 L21.4422073,30.3541005 C21.209901,30.4447444 20.9520078,30.4447444 20.7197015,30.3541005 L14.6325653,27.9778813 C14.2511524,27.8290573 14,27.4615593 14,27.0521397 L14,11.4159016 C14,10.867031 14.4449476,10.4220835 14.9938182,10.4220835 L27.1680907,10.4220835 Z M21.0809544,23.7973852 C20.5121455,23.7872764 19.9821646,24.0849461 19.6948019,24.5759334 C19.4074392,25.0669206 19.4074392,25.6747751 19.6948019,26.1657623 C19.9821646,26.6567495 20.5121455,26.9544193 21.0809544,26.9443104 C21.9390545,26.9290603 22.626702,26.2290835 22.626702,25.3708478 C22.626702,24.5126122 21.9390545,23.8126353 21.0809544,23.7973852 L21.0809544,23.7973852 Z" id="形状" fill="#44D7B6"></path>
                            <path d="M50.1680907,10.4220835 C50.7169613,10.4220835 51.1619088,10.867031 51.1619088,11.4159016 L51.1619088,27.0521397 C51.1619088,27.4615592 50.9107564,27.8290573 50.5293436,27.9778813 L44.4422073,30.3541005 C44.209901,30.4447444 43.9520078,30.4447444 43.7197015,30.3541005 L37.6325653,27.9778813 C37.2511524,27.8290573 37,27.4615593 37,27.0521397 L37,11.4159016 C37,10.867031 37.4449476,10.4220835 37.9938182,10.4220835 L50.1680907,10.4220835 Z M44.0809544,23.7973852 C43.5121455,23.7872764 42.9821646,24.0849461 42.6948019,24.5759334 C42.4074392,25.0669206 42.4074392,25.6747751 42.6948019,26.1657623 C42.9821646,26.6567495 43.5121455,26.9544193 44.0809544,26.9443104 C44.9390545,26.9290603 45.626702,26.2290835 45.626702,25.3708478 C45.626702,24.5126122 44.9390545,23.8126353 44.0809544,23.7973852 L44.0809544,23.7973852 Z" id="形状备份-2" fill="#75F4FF"></path>
                            <path d="M73.1680907,10.4220835 C73.7169613,10.4220835 74.1619088,10.867031 74.1619088,11.4159016 L74.1619088,27.0521397 C74.1619088,27.4615592 73.9107564,27.8290573 73.5293436,27.9778813 L67.4422073,30.3541005 C67.209901,30.4447444 66.9520078,30.4447444 66.7197015,30.3541005 L60.6325653,27.9778813 C60.2511524,27.8290573 60,27.4615593 60,27.0521397 L60,11.4159016 C60,10.867031 60.4449476,10.4220835 60.9938182,10.4220835 L73.1680907,10.4220835 Z M67.0809544,23.7973852 C66.5121455,23.7872764 65.9821646,24.0849461 65.6948019,24.5759334 C65.4074392,25.0669206 65.4074392,25.6747751 65.6948019,26.1657623 C65.9821646,26.6567495 66.5121455,26.9544193 67.0809544,26.9443104 C67.9390545,26.9290603 68.626702,26.2290835 68.626702,25.3708478 C68.626702,24.5126122 67.9390545,23.8126353 67.0809544,23.7973852 L67.0809544,23.7973852 Z" id="形状备份-3" fill="#4F84FA"></path>
                        </g>
                    </g>
                </g>
                <g id="Group" transform="translate(0.000000, 57.517632)">
                    <path d="M49.5695252,58.3371097 C49.5695252,58.3371097 50.2698172,57.7305063 50.4981088,57.1161942 C50.7264004,56.5018822 51.245245,53.6752167 52.7442613,52.0089843 C54.2438704,50.3433449 59.3350703,51.792552 59.2324873,52.2793765 C59.0041957,53.3674678 55.8211581,51.9259692 54.6168456,54.3120615 C54.2960514,54.9477202 54.7704236,55.7333992 55.0947756,55.6486052 C55.9563542,55.4232784 56.6542743,53.5447644 57.2958627,53.7552671 C57.7820942,53.9147747 57.4405462,57.1292395 55.8703742,58.1396523 C54.7627151,58.8523966 52.1821302,60.2784781 51.2493958,61.7353937 C50.3172544,63.1934954 48.7962985,59.2437536 49.5695252,58.3371097 Z" id="Path" fill="#F1B282"></path>
                    <path d="M48.7298863,57.4547774 C48.9635147,57.2780738 49.2961682,57.3231391 49.4740578,57.5561745 L52.7282512,61.8136652 C52.9274875,62.0739769 52.8812362,62.4451732 52.6250752,62.6497462 C50.033817,64.7156372 37.2844706,74.7509815 34.5176946,74.4343381 L32.4660348,66.7192669 C32.4654418,66.7186739 44.5975113,60.5802974 48.7298863,57.4547774 Z" id="Path" fill="#4EE5F2"></path>
                    <path d="M125.168447,15.2107452 C128.907093,15.5196802 131.255236,19.4196128 132.528332,20.6049504 C133.801429,21.7902879 134.498163,25.3717982 137.643843,28.226333 C140.749203,31.04529 131.895045,29.9210278 131.895045,29.9210278 L128.800359,26.0293967 C128.800359,26.0293967 128.23052,24.8843808 125.664759,26.4326131 C123.912547,27.4898702 122.320435,25.5823009 121.149921,23.3539374 C120.90562,23.4535555 120.638192,23.5027717 120.370172,23.4446611 C119.711981,23.3011635 119.774835,21.5068505 119.870895,20.4484075 C119.416091,19.2340146 119.15993,18.3303356 119.15993,18.3303356 C119.085809,16.0723238 121.429801,14.9018103 125.168447,15.2107452 Z" id="Path" fill="#FECFCE"></path>
                    <path d="M136.227842,41.6907956 C136.227842,41.6907956 132.361709,44.551853 128.37046,47.6483177 C123.590566,51.3561296 119.538242,53.2933471 117.093446,55.9670275 C116.516491,56.5979426 117.47413,59.6113921 116.320219,60.6235838 C115.166309,61.6357756 110.652657,62.2933741 110.548888,59.5188895 C110.477732,57.6190288 110.112466,55.2898612 112.407834,53.9871165 C113.253996,53.5068146 117.920632,49.4432236 120.418202,47.4425587 C122.915772,45.4418939 129.673797,38.3049638 129.673797,38.3049638 C129.673797,38.3049638 134.756103,38.0393154 136.227842,41.6907956 Z" id="Path" fill="#FEC1C0"></path>
                    <path d="M133.383388,23.1523292 C132.246081,22.967917 132.614312,20.2106285 130.49031,20.252136 C128.835937,20.2847491 129.424159,21.4024887 127.593082,21.0164683 C125.762005,20.6304479 126.357935,16.9677014 120.135951,18.03326 C117.380441,18.5052603 117.061426,15.4591977 118.066502,13.3096986 C120.228453,8.68694129 129.122932,6.23087912 132.243709,11.0338978 C135.586847,16.1784646 134.520695,23.3367414 133.383388,23.1523292 Z" id="Path" fill="#423160"></path>
                    <path d="M155.607134,48.15471 L137.05918,48.15471 C136.519581,46.5359148 135.813953,45.320336 134.711037,44.8163155 C134.14772,44.5613405 133.572544,44.347873 133.009227,44.1403351 C132.291739,43.88536 131.58611,43.6481739 130.933848,43.3516913 C130.7441,43.2686762 130.56028,43.1797314 130.382391,43.0848569 C130.068119,42.912897 129.771636,42.7231481 129.498872,42.5096806 C128.787314,41.9522932 128.218067,40.9679709 127.850429,39.7405328 C127.785203,39.5329949 127.725906,39.3135978 127.678469,39.0942006 C127.66068,39.0171151 127.642891,38.9459593 127.636962,38.8688738 C127.263393,37.1077669 127.269323,35.0027402 127.797062,32.9807286 C128.253645,31.1959031 129.107515,29.4822335 130.465406,28.1184134 C131.402291,27.1696689 132.582292,26.3928844 134.035057,25.8888639 C134.48571,25.7287633 134.948223,25.6279592 135.422596,25.5864516 C136.122295,25.5093662 136.845712,25.5568034 137.57506,25.7109743 C139.626719,26.1319797 141.767324,27.4009254 143.71225,29.3695701 C146.309438,31.9904766 148.568636,35.8447509 149.85537,40.5766138 C150.875271,44.3241544 153.247132,46.5714927 155.607134,48.15471 Z" id="Path" fill="url(#linearGradient-1)"></path>
                    <path d="M131.648965,8.62112214 C131.648965,8.62112214 131.538673,4.49586272 137.430376,4.49586272 C149.399973,4.49586272 144.635497,15.6519114 144.809236,21.4623782 C144.983568,27.2728449 147.772283,26.8660707 147.888505,28.8993486 C148.004726,30.9332195 136.558124,29.3061228 135.745169,21.4042676 C134.93162,13.5024123 134.351107,9.86219846 132.6659,10.5387718 C130.980693,11.2153452 131.648965,8.62112214 131.648965,8.62112214 Z" id="Path" fill="#423160"></path>
                    <path d="M129.12649,7.1173622 C127.450177,7.9149005 131.327577,14.8881721 133.678092,13.9773775 C136.028013,13.0665828 131.31216,6.07730111 129.12649,7.1173622 Z" id="Path" fill="#44D7B6"></path>
                    <g id="Path">
                        <use fill="black" fill-opacity="1" filter="url(#filter-3)" xlink:href="#path-2"></use>
                        <use fill="#FF8FF5" xlink:href="#path-2"></use>
                    </g>
                    <path d="M40.9116392,153.328368 L41.6291272,156.671506 C41.6291272,156.671506 42.6306455,158.312834 39.7144423,158.56188 C36.7982391,158.810925 36.5373344,157.488019 36.5373344,157.488019 C36.5373344,157.488019 35.6840573,153.469494 35.7196352,153.18487 C35.7552132,152.900247 40.9116392,153.328368 40.9116392,153.328368 Z" id="Path" fill="#FECFCE"></path>
                    <path d="M41.5828759,155.740551 C41.8775796,155.417385 42.3578815,155.348601 42.7326356,155.57452 C44.0436818,156.364943 46.8318045,158.041256 47.0002066,158.10411 C48.4838058,158.658533 52.4454068,159.529006 52.4436285,161.020907 C52.441256,162.584556 40.9590764,162.158214 36.7567315,161.950083 C35.9046404,161.907983 35.2310318,161.210655 35.2203585,160.357378 L35.1770272,156.900391 C35.1747001,156.72428 35.2666098,156.560622 35.4178159,156.470491 C35.5690221,156.38036 35.756992,156.377988 35.9105701,156.463968 C36.6138269,156.857697 37.7066619,157.368833 38.7081802,157.414492 C39.821769,157.463708 40.9608553,156.421868 41.5828759,155.740551 Z" id="Path" fill="#FFFFFF"></path>
                    <path d="M10.2719375,138.911603 L7.77614662,141.248479 C7.77614662,141.248479 6.62460806,142.758169 4.90915952,140.386901 C3.19371097,138.015633 4.49289789,137.308818 4.49289789,137.308818 C4.49289789,137.308818 7.49745294,134.507057 7.76013656,134.391429 C8.02222721,134.274615 10.2719375,138.911603 10.2719375,138.911603 Z" id="Path" fill="#FECFCE"></path>
                    <path d="M8.29024752,141.013072 C8.71896141,141.099645 9.02552446,141.475585 9.02493149,141.912601 C9.0231526,143.443637 9.02255963,146.696644 9.05517272,146.873348 C9.34453978,148.430475 10.638983,152.274669 9.35936391,153.041373 C8.01807646,153.844841 2.46851444,143.783406 0.482673734,140.074408 C0.0800503122,139.322528 0.330874624,138.385643 1.05666412,137.937361 L3.99777189,136.11933 C4.14719914,136.026827 4.33516913,136.020898 4.49052603,136.104506 C4.64588293,136.187521 4.74490814,136.347621 4.75024482,136.523139 C4.7745564,137.328386 4.89967207,138.528548 5.37700912,139.41088 C5.90593414,140.391052 7.38597547,140.830439 8.29024752,141.013072 Z" id="Path" fill="#FFFFFF"></path>
                    <path d="M35.4954944,99.8743273 C35.4954944,99.8743273 41.256745,111.502969 42.3234895,117.370954 C43.3653295,123.102556 22.8937963,136.085531 10.91234,140.173433 C10.4243295,140.340057 9.88591707,140.136077 9.63212794,139.687202 L7.03553299,134.920354 C6.7331207,134.385499 6.89677912,133.70774 7.41028705,133.36975 L29.201168,115.343605 L23.9735861,99.8737343 L35.4954944,99.8737343 L35.4954944,99.8743273 Z" id="Path" fill="url(#linearGradient-4)"></path>
                    <path d="M18.1056017,96.8875612 C17.8921342,104.035758 24.9086923,119.611769 25.614321,126.546498 C26.2232963,132.530704 34.0101163,150.870527 35.1106599,154.581304 C35.2654238,155.10252 35.791384,155.421535 36.3250528,155.315395 L41.0385338,154.2866 C41.3783029,154.219002 41.6741925,154.01265 41.854454,153.717353 C42.0347154,153.422057 42.0827456,153.064498 41.9872782,152.731252 C40.915197,148.982525 37.4961592,133.204312 36.8824401,129.960199 C36.1358969,126.01283 37.2026414,109.042756 34.9618256,100.941072 C32.7216028,92.8399802 18.1056017,96.8875612 18.1056017,96.8875612 Z" id="Path" fill="url(#linearGradient-5)"></path>
                    <path d="M47.8831319,82.5834599 C47.8831319,82.5834599 50.8633754,79.8552266 52.5367234,79.0731054 C54.2100714,78.2909842 56.0755402,77.5509636 56.2611383,77.9790845 C56.4467364,78.4072054 53.1996586,80.9373883 53.1996586,80.9373883 C53.1996586,80.9373883 54.6542024,81.6572481 56.2137011,80.7571268 C57.7731998,79.8575985 58.861884,79.4128745 59.1269395,79.6874175 C59.391995,79.9619604 55.9136607,84.2763757 53.8886842,84.6167378 C51.8637078,84.9570999 48.069916,86.1946184 48.069916,86.1946184 L47.8831319,82.5834599 Z" id="Path" fill="#FECFCE"></path>
                    <path d="M38.5047931,52.2965725 C39.1469745,53.9456089 38.4668434,54.6708054 38.5629037,55.3367054 C38.6589641,56.0026055 39.292844,57.4203854 39.189668,58.024617 C39.087085,58.6288487 38.1507929,58.5570999 37.7671443,59.305422 C37.3829028,60.0537442 37.6604106,61.1596245 36.7780783,61.8628813 C35.8957459,62.5661381 33.2730605,61.9292934 33.2416333,62.7458066 C33.2107992,63.5629127 34.1933426,66.7791564 34.1933426,66.7791564 L26.6431158,65.6376982 C26.6431158,65.6376982 28.0976596,61.44069 27.9600916,59.5811509 C27.8225237,57.7222048 28.1290867,51.0294057 30.5940434,50.6255963 C33.059,50.2223799 37.8228831,50.546139 38.5047931,52.2965725 Z" id="Path" fill="#FECFCE"></path>
                    <path d="M32.2365572,47.0873725 C35.9016756,47.4621266 37.6574458,47.3399757 37.7914559,46.0259647 C38.9483312,46.1457437 40.7829657,48.2833835 40.5410359,50.6499079 C40.0061812,55.8798616 33.2950002,52.9316383 32.9979246,55.8353892 C32.9937739,55.8442837 33.2588293,59.6060554 34.1085486,60.2345986 C34.9588608,60.8637348 36.9571538,59.2052109 37.7315664,59.2502763 C38.3589237,59.2870401 40.3370558,65.5410449 35.7220071,65.0690445 C31.1069584,64.5970442 32.7856431,55.6960424 29.9619424,55.4072683 C28.5275594,55.2602129 29.3428867,61.3031221 27.3718701,61.1015139 C25.5621401,60.9165087 23.7447015,58.298567 24.2291541,53.5607744 C24.7574862,48.4043484 28.9853286,46.754719 32.2365572,47.0873725 Z" id="Path" fill="#423160"></path>
                    <path d="M23.8668523,101.155132 C19.3858138,100.51473 17.1159427,101.465846 16.0491981,96.6646063 C14.9824536,91.8633664 18.6392705,86.1121962 19.3858138,81.2048156 C20.7727595,68.8290373 25.7868739,63.1745205 27.4940209,62.8543192 C28.6058308,62.6455954 31.301451,64.2691344 33.0459548,65.4266026 C34.1381968,66.1512061 34.989102,67.2037195 35.4427205,68.4335295 C38.5296977,76.8002695 35.3893536,83.6798527 35.3893536,88.250429 C35.3893536,89.7364 36.9411437,98.5775122 37.3016666,99.8749203 C37.9189434,102.107435 28.2897803,101.78664 23.8668523,101.155132 Z" id="Path" fill="url(#linearGradient-6)"></path>
                    <path d="M36.3369121,94.8447958 C32.547864,93.8960514 25.3255469,91.7257985 23.7364,88.6364494 C21.5542878,84.4026773 27.1459503,74.5179462 27.1459503,74.5179462 C25.4559993,82.3569471 26.2505728,90.9845919 32.5004268,91.3878083 C33.4491712,91.4471048 34.5224383,91.4233862 35.672791,91.3285117 C35.7320875,91.5479089 35.791384,91.7673061 35.8566102,91.9867032 L36.3369121,94.8447958 Z" id="Path" fill="#30DCEC"></path>
                    <path d="M50.6564305,87.976479 C50.3540182,88.2284893 34.8461974,93.612614 29.5527964,90.5884911 C24.2593954,87.5643682 26.8465029,74.5167603 26.8465029,74.5167603 L34.1880059,75.819505 L33.9893626,82.9694803 C33.9893626,82.9694803 42.9852388,82.6261534 46.3497237,81.7461929 C46.8673824,81.6104038 47.4140964,81.829801 47.6927901,82.2869772 C48.7298863,83.9828579 50.9629936,87.721504 50.6564305,87.976479 Z" id="Path" fill="url(#linearGradient-7)"></path>
                    <path d="M160.546534,51.1136068 L137.835964,51.1136068 C137.598778,50.0403396 137.355662,49.0382283 137.05918,48.15471 L155.607134,48.15471 C157.498693,49.4236557 159.378393,50.2656664 160.546534,51.1136068 Z" id="Path" fill="#2DD1AD"></path>
                    <path d="M127.676097,39.0942006 C128.028912,40.6222721 128.669314,41.8597907 129.498872,42.5114595 C130.9042,43.613782 132.863357,43.9760837 134.709258,44.8198733 C137.220466,42.4124343 136.703994,35.4883788 136.703994,35.4883788 C133.376865,33.9069404 130.027205,36.4596559 127.676097,39.0942006 Z" id="Path" fill="#36D4B0"></path>
                    <path d="M133.151539,41.1523831 C133.151539,41.1523831 128.949194,43.4916311 124.591492,46.0473114 C119.373397,49.1081982 115.105233,50.5064103 112.336678,52.8432865 C111.683231,53.3947442 111.100939,57.3278828 109.826064,58.1829388 C108.551188,59.0379947 103.504461,58.0329186 105.144603,55.7921028 C108.43556,51.298019 104.554009,54.5059611 104.399245,54.1128251 C103.869727,52.765608 106.198895,50.9873052 107.944585,50.2757468 C108.845299,49.9087013 113.996981,46.4801761 116.731144,44.8180944 C119.4659,43.1554198 127.087283,36.9494452 127.087283,36.9494452 C127.087283,36.9494452 132.163065,37.3413953 133.151539,41.1523831 Z" id="Path" fill="#FECFCE"></path>
                    <path d="M131.994663,28.8548762 C128.623063,28.9924442 126.662127,36.4228921 125.082467,37.6823503 C123.502808,38.9412156 129.635254,44.0590989 130.451175,43.6363146 C132.363488,42.6460626 136.236144,38.9886528 137.007592,35.9402183 C137.77904,32.8917838 134.445982,28.7546651 131.994663,28.8548762 Z" id="Path" fill="#45E7C8"></path>
                </g>
                <g id="plant_3_" transform="translate(76.492521, 160.100624)">
                    <path d="M36.1999371,39.4659898 L0.452432505,39.4659898 C0.452432505,39.4659898 0.133417187,59.5805579 18.3261848,59.5805579 C36.5189524,59.5805579 36.1999371,39.4659898 36.1999371,39.4659898 Z" id="Path" fill="#C3D3F3"></path>
                    <ellipse id="Oval" fill="#DAE7FF" cx="18.3261848" cy="39.4659898" rx="17.8737523" ry="5.74524056"></ellipse>
                    <path d="M18.3261848,41.5372176 C18.3261848,41.5372176 4.73957145,19.2494317 9.78689187,0.337990207 C9.78689187,0.337990207 19.2701855,17.6869682 18.3261848,41.5372176 Z" id="Path" fill="#84F7DD"></path>
                    <path d="M18.3261848,41.5372176 C18.3261848,41.5372176 19.5251606,15.4621625 34.2852522,2.60667535 C34.2846593,2.60608239 32.4458739,22.2925295 18.3261848,41.5372176 Z" id="Path" fill="#84F7DD"></path>
                    <path d="M18.3261848,43.9915008 C18.3261848,43.9915008 12.2915772,18.595984 22.9358969,2.16965994 C22.9358969,2.17025291 26.5938996,21.6005391 18.3261848,43.9915008 Z" id="Path" fill="#44D7B6"></path>
                </g>
            </g>
        </g>
    </g>
</svg>