<?xml version="1.0" encoding="UTF-8"?>
<svg width="309px" height="230px" viewBox="0 0 309 230" version="1.1" xmlns="http://www.w3.org/2000/svg" xmlns:xlink="http://www.w3.org/1999/xlink">
    <!-- Generator: Sketch 61 (89581) - https://sketch.com -->
    <title>default_sort_pic</title>
    <desc>Created with Sketch.</desc>
    <defs>
        <linearGradient x1="50.2142433%" y1="0%" x2="49.4054658%" y2="100%" id="linearGradient-1">
            <stop stop-color="#1D50B0" offset="0%"></stop>
            <stop stop-color="#102B5E" offset="100%"></stop>
        </linearGradient>
        <linearGradient x1="50.7844194%" y1="0%" x2="47.8232033%" y2="100%" id="linearGradient-2">
            <stop stop-color="#204B9D" offset="0%"></stop>
            <stop stop-color="#102B5E" offset="100%"></stop>
        </linearGradient>
        <linearGradient x1="35.8572288%" y1="12.3053663%" x2="53.7193949%" y2="100%" id="linearGradient-3">
            <stop stop-color="#75F4FF" offset="0%"></stop>
            <stop stop-color="#53E9FE" offset="100%"></stop>
        </linearGradient>
        <linearGradient x1="52.7984134%" y1="0%" x2="42.2342858%" y2="100%" id="linearGradient-4">
            <stop stop-color="#1D4BA1" offset="0%"></stop>
            <stop stop-color="#102B5E" offset="100%"></stop>
        </linearGradient>
        <linearGradient x1="50%" y1="0%" x2="50%" y2="100%" id="linearGradient-5">
            <stop stop-color="#79EDDC" offset="0%"></stop>
            <stop stop-color="#44D7B6" offset="100%"></stop>
        </linearGradient>
        <linearGradient x1="50.2250008%" y1="0%" x2="49.3756133%" y2="100%" id="linearGradient-6">
            <stop stop-color="#18479E" offset="0%"></stop>
            <stop stop-color="#102B5E" offset="100%"></stop>
        </linearGradient>
        <linearGradient x1="50.2638541%" y1="0%" x2="49.2677939%" y2="100%" id="linearGradient-7">
            <stop stop-color="#164398" offset="0%"></stop>
            <stop stop-color="#102B5E" offset="100%"></stop>
        </linearGradient>
        <linearGradient x1="50%" y1="0%" x2="50%" y2="100%" id="linearGradient-8">
            <stop stop-color="#FFF96A" offset="0%"></stop>
            <stop stop-color="#FFF043" offset="100%"></stop>
        </linearGradient>
    </defs>
    <g id="图标" stroke="none" stroke-width="1" fill="none" fill-rule="evenodd">
        <g id="切图" transform="translate(-553.000000, -2042.000000)" fill-rule="nonzero">
            <g id="default_sort_pic" transform="translate(553.000000, 2042.000000)">
                <g id="plant_16_" transform="translate(229.450128, 48.641652)">
                    <path d="M46.4375404,29.9362996 C42.3610184,36.9998879 21.4122896,59.0351423 18.1867034,54.4399713 C16.5932498,52.1702228 24.2669099,43.6092921 31.8714169,14.118386 C34.5385031,3.77529544 41.5927147,-3.48461762 48.0796357,2.16719071 C54.2711906,7.56055363 50.5140625,22.8721252 46.4375404,29.9362996 Z" id="Path" fill="#95B6FF"></path>
                    <path d="M17.5977292,55.2598468 C17.5625666,55.2504701 17.5309202,55.2282004 17.5104087,55.1947959 C17.4676274,55.1262288 17.4893111,55.035978 17.5584643,54.9931968 C17.7073194,54.9017739 32.5541581,45.4529865 43.1351825,11.641178 C43.1592103,11.5644062 43.2359821,11.5239692 43.3186143,11.5450668 C43.3959721,11.5696806 43.4387533,11.6511407 43.4147255,11.7290846 C37.8684051,29.4528133 31.1822291,40.3350643 26.5495513,46.3431874 C21.5218798,52.8635129 17.7501006,55.2199958 17.7120078,55.2434376 C17.6762591,55.2647121 17.63465,55.2698096 17.5977292,55.2598468 Z" id="Path" fill="#F3F9FF"></path>
                    <path d="M48.2267328,18.8401425 C40.0613817,25.4261049 15.2224929,55.848235 19.3757867,62.374421 C23.5290805,68.901193 63.4814581,42.1992702 71.6462231,35.6133078 C79.8109881,29.0273453 81.8943745,18.527195 76.1581758,14.092014 C67.1155169,7.09933701 56.3914978,12.25418 48.2267328,18.8401425 Z" id="Path" fill="#F8E71C"></path>
                    <path d="M18.5529809,63.4111328 C18.5336415,63.4058584 18.5154741,63.3970677 18.4990649,63.3841748 C18.4357721,63.333775 18.4252233,63.2417661 18.4756231,63.1784733 C18.5353996,63.1034597 24.5370762,55.5851012 33.4941727,46.6602372 C41.7626675,38.4210446 54.3139718,27.2627668 67.1495075,20.8959848 C67.2215909,20.8608222 67.3094975,20.8895384 67.3458322,20.9627939 C67.3815809,21.0348773 67.3522787,21.1227839 67.2796092,21.1591186 C54.4804083,27.5077332 41.956648,38.6419832 33.7039764,46.8653526 C24.7586008,55.7784958 18.7651289,63.2857194 18.7053524,63.360733 C18.6672595,63.4076165 18.607483,63.4257839 18.5529809,63.4111328 Z" id="Path" fill="#F3F9FF"></path>
                    <path d="M50.0844923,43.7393939 C42.6399753,45.1693412 18.6561247,56.6669385 20.1335416,62.1534824 C21.6109585,67.6400263 56.368056,67.9435971 63.8125729,66.5136497 C71.2570899,65.0837024 76.9622282,61.1648261 73.8685019,51.9574889 C71.006263,43.4387533 57.5290092,42.3094465 50.0844923,43.7393939 Z" id="Path" fill="#4F84FA"></path>
                    <path d="M0.100213524,71.9169754 C0.0849763799,71.9040824 0.0726694559,71.8882592 0.0638787959,71.8689198 C0.028716156,71.7956643 0.0591904439,71.7083437 0.132445944,71.6737671 C0.218594412,71.632158 8.89790604,67.4817944 20.8491013,63.3531144 C31.8825517,59.5420703 48.0421289,54.9703411 62.3691466,54.8343749 C62.4494346,54.8337928 62.5156576,54.8982577 62.5168451,54.9797178 C62.5180017,55.0605919 62.4523648,55.1268148 62.3714907,55.1274009 C48.0849101,55.262191 31.9599095,59.8245435 20.9481428,63.6285551 C9.01218462,67.7513747 0.34576596,71.8958778 0.259617492,71.9374869 C0.2051154,71.9638589 0.142994736,71.9533101 0.100213524,71.9169754 Z" id="Path" fill="#F3F9FF"></path>
                </g>
                <g id="plant_15_" transform="translate(0.306924, 16.409232)">
                    <path d="M39.3540266,59.0421748 C47.6576841,58.3371639 81.5890456,66.3237715 81.9178162,74.0531058 C82.0801504,77.8711824 69.3512748,75.3435747 43.8636352,89.9319679 C34.9247061,95.0487181 23.5970616,92.2286744 20.7348227,79.6047006 C18.0038577,67.5579801 31.0503692,59.7465997 39.3540266,59.0421748 Z" id="Path" fill="#44D7B6"></path>
                    <path d="M82.9416351,74.3074489 C82.900612,74.3303046 82.8496262,74.3326488 82.8045008,74.3080349 C82.754101,74.2804909 77.6754437,71.5577304 68.8291096,70.6517064 C60.6637585,69.8154216 47.5269962,70.3997075 31.3129169,77.9333031 C31.2425916,77.9667076 31.1582013,77.9356473 31.1253828,77.865322 C31.0925644,77.7938246 31.1171782,77.7047459 31.19395,77.6777879 C47.4742523,70.113132 60.6707911,69.5294321 68.874235,70.3727495 C77.771555,71.2869781 82.8883051,74.0325942 82.9392909,74.0601383 C83.0078581,74.0976451 83.033058,74.1832075 82.9955512,74.2517747 C82.9832442,74.2758025 82.9639048,74.295142 82.9416351,74.3074489 Z" id="Path" fill="#F3F9FF"></path>
                    <path d="M30.8100912,65.8572805 C42.8075839,70.5995485 85.6720141,76.5748531 85.6216587,66.1268607 C85.5712145,55.6788683 30.2504191,27.9800847 18.2523404,23.2378167 C6.25426156,18.4955486 -2.21114401,24.4620626 0.663987851,35.1673283 C5.19703818,52.0430513 18.8120124,61.1150124 30.8100912,65.8572805 Z" id="Path" fill="#84F7DD"></path>
                    <path d="M87.0046782,66.4931382 C86.9788922,66.5072032 86.94959,66.5142358 86.9185297,66.5101335 C86.5030245,66.4591476 44.9607096,61.1701005 13.558714,40.7077883 C13.4936631,40.6650071 13.4749097,40.5776865 13.5171048,40.5120496 C13.5593,40.4458266 13.6472066,40.4282453 13.7128435,40.4704405 C45.059165,60.897004 86.5376011,66.1790186 86.9531063,66.2300044 C87.0304641,66.2393811 87.0855522,66.3097064 87.0761755,66.3870642 C87.0703151,66.4333617 87.042771,66.4714546 87.0046782,66.4931382 Z" id="Path" fill="#F3F9FF"></path>
                    <path d="M44.2574568,43.2998609 C52.3929196,51.346245 82.8255984,71.6602881 84.7472367,65.3691058 C86.6688749,59.0779235 52.9631404,15.8325647 44.8276776,7.78676662 C36.6922148,-0.259031448 28.7272908,-4.12867997 26.1018137,7.19075987 C23.6720753,17.6627801 36.121994,35.2540628 44.2574568,43.2998609 Z" id="Path" fill="#F8E71C"></path>
                    <path d="M85.7593347,66.2077348 C85.7112791,66.2346928 85.6497444,66.2317626 85.603447,66.1960139 C85.3139412,65.9703869 56.3961861,43.3338514 36.6183732,17.4512182 C36.5709037,17.3890975 36.5832106,17.3006049 36.6453313,17.2531353 C36.7045217,17.2039076 36.7953585,17.2173867 36.8434141,17.2795073 C56.5989574,43.1334244 85.4879963,65.7476902 85.777502,65.9733172 C85.8390366,66.0207867 85.8501715,66.1098654 85.8021159,66.1714 C85.7898089,66.1866372 85.7751578,66.1989441 85.7593347,66.2077348 Z" id="Path" fill="#CFBF01"></path>
                </g>
                <g id="presentation" transform="translate(41.330004, 0.000000)">
                    <path d="M115.450668,228.087152 C113.8326,228.087152 112.520448,226.775586 112.520448,225.156932 L112.520448,2.93022 C112.520448,1.31156647 113.8326,0 115.450668,0 C117.068735,0 118.380888,1.31156647 118.380888,2.93022 L118.380888,225.156932 C118.380888,226.775586 117.068735,228.087152 115.450668,228.087152 Z" id="Path" fill="#DAE7FF"></path>
                    <path d="M173.466094,228.087738 C172.963854,228.087738 172.455168,227.958223 171.990435,227.686298 L113.972079,193.774862 C112.57495,192.957917 112.104357,191.164036 112.920716,189.766321 C113.737661,188.368606 115.532128,187.898013 116.929257,188.715544 L174.947613,222.62698 C176.344742,223.443926 176.815335,225.237806 175.998976,226.635521 C175.453955,227.567917 174.473503,228.087738 173.466094,228.087738 Z" id="Path" fill="#DAE7FF"></path>
                    <path d="M57.1422201,228.087738 C56.1348105,228.087738 55.1543589,227.567917 54.609338,226.635521 C53.7929787,225.237806 54.263572,223.443926 55.6607009,222.62698 L113.679057,188.715544 C115.0756,187.898599 116.870652,188.369192 117.687598,189.766321 C118.503957,191.164036 118.033364,192.957917 116.636235,193.774862 L58.6178789,227.686298 C58.153146,227.958809 57.6444598,228.087738 57.1422201,228.087738 Z" id="Path" fill="#DAE7FF"></path>
                    <path d="M221.034699,28.1594142 L9.86663677,28.1594142 C4.56528275,28.1594142 0.267822108,23.8619535 0.267822108,18.5605995 L0.267822108,18.5605995 C0.267822108,13.2592455 4.56528275,8.96178484 9.86663677,8.96178484 L221.035285,8.96178484 C226.336639,8.96178484 230.6341,13.2592455 230.6341,18.5605995 L230.6341,18.5605995 C230.6341,23.8619535 226.336053,28.1594142 221.034699,28.1594142 Z" id="Path" fill="#4F84FA"></path>
                    <path d="M212.719321,162.539303 L18.1820151,162.539303 C13.5891883,162.539303 9.86663677,158.816166 9.86663677,154.223925 L9.86663677,28.1594142 L221.035285,28.1594142 L221.035285,154.223339 C221.035285,158.816166 217.312147,162.539303 212.719321,162.539303 Z" id="Path" fill="#4F84FA"></path>
                    <rect id="Rectangle" fill="#326DF0" x="9.86663677" y="28.1594142" width="211.168648" height="4.79911431"></rect>
                </g>
                <g id="man_on_ladder_2_" transform="translate(30.781212, 87.906600)">
                    <path d="M4.72878903,0.350454312 L4.72861303,10.0694543 L30.941613,10.0694543 L30.9425371,0.350454312 L33.2867131,0.350454312 L33.2867131,141.222539 L30.9425371,141.222539 L30.941613,124.444454 L4.72861303,124.444454 L4.72878903,141.222539 L2.38461303,141.222539 L2.38461303,0.350454312 L4.72878903,0.350454312 Z M30.941613,122.100454 L30.941613,99.4964543 L4.72861303,99.4964543 L4.72861303,122.100454 L30.941613,122.100454 Z M30.941613,97.1524543 L30.941613,55.5694543 L4.72861303,55.5694543 L4.72861303,75.3564543 L28.8040626,75.3570537 L28.8040626,77.7012297 L4.72861303,77.7004543 L4.72861303,97.1524543 L30.941613,97.1524543 Z M30.941613,53.2254543 L30.941613,31.2514543 L4.72861303,31.2514543 L4.72861303,53.2254543 L30.941613,53.2254543 Z M30.941613,28.9074543 L30.941613,12.4134543 L4.72861303,12.4134543 L4.72861303,28.9074543 L30.941613,28.9074543 Z" id="形状结合" fill="#DAE7FF"></path>
                    <path d="M12.6345226,115.980452 L11.4712252,119.36427 C11.4712252,119.36427 9.10712375,121.50333 7.88170574,118.454729 C7.88170574,118.454729 8.26263434,116.398301 8.40152677,115.646993 C8.54100524,114.895098 12.6345226,115.980452 12.6345226,115.980452 Z" id="Path" fill="#FECFCE"></path>
                    <path d="M7.51191198,116.1926 L13.4444354,116.1926 C13.4444354,116.1926 18.9972023,94.3888325 20.5420143,88.6127829 C21.7586416,84.0639094 23.1733518,69.0277785 22.6119217,62.0245527 C22.0762774,55.3477534 10.7175727,58.9636449 10.1250822,63.653169 C8.38804776,77.399417 11.6206665,87.5948245 11.454816,89.998777 C8.63653042,97.1274162 7.51191198,116.1926 7.51191198,116.1926 Z" id="Path" fill="url(#linearGradient-1)"></path>
                    <path d="M23.7863538,19.1032762 C24.5036717,20.644572 24.1520453,21.483787 24.3278585,22.1331237 C24.5042577,22.7830465 25.1776223,24.0940269 25.2057524,24.7158196 C25.2344686,25.3376123 24.5734109,25.4225887 24.4310022,26.2354317 C24.2880075,27.0482747 24.6624896,28.1072562 24.1672824,28.9587782 C23.6720753,29.8103001 21.7480928,29.6139754 21.8617853,30.4356091 C21.9748918,31.2578288 23.1874169,34.3087738 23.1874169,34.3087738 L15.2781671,34.4359454 C15.2781671,34.4359454 15.5940448,29.994904 15.1914325,28.1588281 C14.7894064,26.3227523 13.8974474,19.57973 15.5395427,18.7616126 C17.181638,17.9434952 23.0250827,17.4670414 23.7863538,19.1032762 Z" id="Path" fill="#FECFCE"></path>
                    <path d="M19.4437678,15.6069377 C12.8636658,15.8120531 10.5552385,17.4699716 10.6302521,22.6113356 C10.6747914,25.6757597 12.3661144,29.9175462 14.5860491,29.903516 C16.1871213,29.8935184 19.3429682,29.715361 19.8961938,28.8403973 C21.2089323,26.7640434 20.0848999,23.8977022 20.964552,22.9084599 C22.2145838,21.5019543 25.0563112,22.2263047 24.6654198,17.382065 C24.2757006,12.5378253 21.6338142,15.5383706 19.4437678,15.6069377 Z" id="Path" fill="#423160"></path>
                    <path d="M4.50199,14.1412417 C4.50199,14.1412417 3.38030179,11.0176272 3.58072883,9.34681574 C3.90363908,6.6557017 10.3085139,6.64339477 10.5839546,8.97409176 C10.8763906,11.4483695 9.72305599,12.0959481 8.96940341,12.7417686 C8.21575082,13.3875891 7.35485219,14.518068 7.139188,14.9488103 C6.92352381,15.3795527 4.82490025,15.3789666 4.50199,14.1412417 Z" id="Path" fill="#FECFCE"></path>
                    <path d="M50.5767692,31.6973618 C50.5767692,31.6973618 52.9291498,29.35553 53.464208,27.7609042 C54.3256927,25.1911013 48.5449547,22.4349364 47.296681,24.4222116 C45.9716355,26.532556 46.7364229,27.6120491 47.1407932,28.5180731 C47.5445776,29.4246832 47.8381856,30.8147795 47.8481484,31.2965077 C47.8581111,31.7776498 49.7545495,32.6778134 50.5767692,31.6973618 Z" id="Path" fill="#FECFCE"></path>
                    <path d="M28.2678323,110.82092 L26.5642024,113.96739 C26.5642024,113.96739 23.8807069,115.688602 23.1733518,112.480011 C23.1733518,112.480011 23.8865674,110.514419 24.1473569,109.795929 C24.4081465,109.078025 28.2678323,110.82092 28.2678323,110.82092 Z" id="Path" fill="#FECFCE"></path>
                    <path d="M28.0955354,62.3140584 C28.0955354,62.3140584 39.5204631,78.4888728 39.798834,81.7355566 C40.3010737,87.5948245 29.1211124,110.863115 29.1211124,110.863115 L23.3386162,109.62246 C23.3386162,109.62246 27.211781,92.0833355 30.2715167,86.1027564 C24.3864629,78.145451 15.0630889,73.7014794 15.0630889,63.3079891 C15.0625029,60.4902895 28.0955354,62.3140584 28.0955354,62.3140584 Z" id="Path" fill="url(#linearGradient-2)"></path>
                    <path d="M16.0570195,33.1173464 C17.7506867,33.0030678 20.9030174,33.1759508 22.7385072,33.1413742 C27.4391661,33.0528816 33.7901249,37.2319613 38.8810891,38.7257875 C42.2074749,35.1257192 47.0851191,29.4123762 47.0851191,29.4123762 L51.1874271,31.9458444 C51.1874271,31.9458444 43.8653933,44.5750926 39.3639894,45.298857 C36.6400569,45.7372179 32.2611361,45.5696093 28.862667,44.1601735 C28.862667,48.389653 34.2812298,64.9647354 30.2996468,65.8092248 C26.3180639,66.6537142 20.0444629,65.2061856 16.183605,65.8092248 C12.3227472,66.4122641 8.10030016,69.3079075 9.06551462,62.069092 C10.0307291,54.8302766 14.2537621,55.608543 5.2052428,41.7978301 C2.83528087,38.1807665 0.0761857199,32.912231 0.494621135,28.4940453 C1.31215251,19.8581009 3.41019003,13.3664915 3.41019003,13.3664915 L7.89987311,14.0902559 C7.89987311,14.0902559 7.51249803,23.1821425 6.54728356,28.4911151 C7.51249803,31.0456809 8.96881736,32.8043989 10.6314242,34.6211353 C11.5409645,35.616824 13.4057565,33.0224073 16.0570195,33.1173464 Z" id="Path" fill="url(#linearGradient-3)"></path>
                    <path d="M7.78090618,117.647747 C7.31324307,117.586798 6.81862193,118.089038 6.83796138,119.955002 C6.85730083,121.820966 6.77173841,122.809036 8.21926709,123.008877 C9.12880737,123.134291 12.5559927,122.228267 15.8940993,122.288043 C17.0995918,122.309727 19.3171823,121.743608 20.0942766,120.707483 C20.2530946,120.495921 20.2882572,120.191178 20.1839414,119.932146 C20.0796255,119.673115 19.8557567,119.510195 19.6143066,119.517227 C16.9249507,119.592827 16.8780672,119.854202 14.7014998,118.308218 C13.9115125,117.746788 13.2516269,117.222279 12.8349496,117.193563 C12.0238647,117.137889 11.6493826,118.217968 10.3278534,118.076731 C9.00573814,117.936666 8.59023294,117.753821 7.78090618,117.647747 Z" id="Path" fill="#FFFFFF"></path>
                    <path d="M23.1317427,111.573401 C22.642396,111.47729 22.0047801,112.128384 21.7592276,113.852526 C21.5136752,115.576667 21.0167099,116.955043 22.5298755,117.262716 C23.4804389,117.45611 28.4272363,116.952699 31.9739746,117.292018 C33.2550667,117.414501 34.7565115,116.793295 35.7322747,115.903094 C35.9315297,115.72142 36.0124037,115.443049 35.9379762,115.195153 C35.8635486,114.947256 35.6484704,114.777889 35.390025,114.763238 C32.5148932,114.60442 32.4275726,114.841768 30.3295351,113.229561 C29.5676779,112.644103 28.9406108,112.103771 28.5004918,112.042236 C27.6448675,111.922097 27.1303209,112.657582 25.7431548,112.415546 C24.3559886,112.172924 23.9779902,111.739837 23.1317427,111.573401 Z" id="Path" fill="#FFFFFF"></path>
                </g>
                <path d="M235.495172,136.513217 C236.630313,136.513217 237.560094,137.393643 237.638798,138.508782 L237.644195,138.66224 C237.644195,139.849565 236.681911,140.811263 235.495172,140.811263 L168.527924,140.811263 C167.392782,140.811263 166.463002,139.930837 166.384297,138.815699 L166.3789,138.66224 C166.3789,137.475501 167.341185,136.513217 168.527924,136.513217 L235.495172,136.513217 Z M235.495172,123.62517 C236.630313,123.62517 237.560094,124.505596 237.638798,125.620735 L237.644195,125.774193 C237.644195,126.961519 236.681911,127.923217 235.495172,127.923217 L168.527924,127.923217 C167.392782,127.923217 166.463002,127.04279 166.384297,125.927652 L166.3789,125.774193 C166.3789,124.587454 167.341185,123.62517 168.527924,123.62517 L235.495172,123.62517 Z M235.495172,110.737123 C236.630313,110.737123 237.560094,111.61755 237.638798,112.732688 L237.644195,112.886147 C237.644195,114.073472 236.681911,115.03517 235.495172,115.03517 L168.527924,115.03517 C167.392782,115.03517 166.463002,114.154744 166.384297,113.039605 L166.3789,112.886147 C166.3789,111.699408 167.341185,110.737123 168.527924,110.737123 L235.495172,110.737123 Z M235.495172,97.8490766 C236.630313,97.8490766 237.560094,98.7295031 237.638798,99.8446415 L237.644195,99.9981 C237.644195,101.185425 236.681911,102.147123 235.495172,102.147123 L168.527924,102.147123 C167.392782,102.147123 166.463002,101.266697 166.384297,100.151559 L166.3789,99.9981 C166.3789,98.8113609 167.341185,97.8490766 168.527924,97.8490766 L235.495172,97.8490766 Z M235.495172,84.96103 C236.630313,84.96103 237.560094,85.8414564 237.638798,86.9565948 L237.644195,87.1100533 C237.644195,88.2973784 236.681911,89.2590766 235.495172,89.2590766 L168.527924,89.2590766 C167.392782,89.2590766 166.463002,88.3786502 166.384297,87.2635118 L166.3789,87.1100533 C166.3789,85.9233142 167.341185,84.96103 168.527924,84.96103 L235.495172,84.96103 Z M235.495172,72.0729833 C236.630313,72.0729833 237.560094,72.9534097 237.638798,74.0685481 L237.644195,74.2220066 C237.644195,75.4093318 236.681911,76.37103 235.495172,76.37103 L168.527924,76.37103 C167.392782,76.37103 166.463002,75.4906035 166.384297,74.3754651 L166.3789,74.2220066 C166.3789,73.0352675 167.341185,72.0729833 168.527924,72.0729833 L235.495172,72.0729833 Z M235.495172,59.1849366 C236.630313,59.1849366 237.560094,60.065363 237.638798,61.1805014 L237.644195,61.3339599 C237.644195,62.5212851 236.681911,63.4829833 235.495172,63.4829833 L168.527924,63.4829833 C167.392782,63.4829833 166.463002,62.6025569 166.384297,61.4874184 L166.3789,61.3339599 C166.3789,60.1472208 167.341185,59.1849366 168.527924,59.1849366 L235.495172,59.1849366 Z M235.495172,46.2968899 C236.630313,46.2968899 237.560094,47.1773163 237.638798,48.2924547 L237.644195,48.4459132 C237.644195,49.6332384 236.681911,50.5949366 235.495172,50.5949366 L168.527924,50.5949366 C167.392782,50.5949366 166.463002,49.7145102 166.384297,48.5993717 L166.3789,48.4459132 C166.3789,47.2591741 167.341185,46.2968899 168.527924,46.2968899 L235.495172,46.2968899 Z" id="形状结合" fill="#326DF0"></path>
                <g id="piece_of_chart" transform="translate(227.691996, 141.822648)">
                    <path d="M23.0174641,0.530955863 C29.0033175,3.42191091 32.7411061,7.44627505 32.7411061,11.9248233 C32.7411061,16.3840321 29.0027315,20.4277357 23.0174641,23.2993513 L0.209803752,11.9248233 L23.0174641,0.530955863 Z" id="Path" fill="#64EFFF"></path>
                    <path d="M23.0174641,23.2993513 L23.0174641,23.2993513 L23.0174641,31.2097732 C27.7134347,28.956434 32.7411061,25.0651018 32.7411061,19.8352452 L32.7411061,11.9248233 C32.7411061,17.1652287 27.7228114,21.0413237 23.0174641,23.2993513 Z" id="Path" fill="#27D7EB"></path>
                    <polygon id="Path" fill="#3FE3F6" points="23.0174641 23.2993513 23.0174641 31.2091871 0.209803752 19.8346592 0.209803752 11.9242373"></polygon>
                </g>
                <g id="woman_8_" transform="translate(238.240788, 128.929680)">
                    <path d="M17.608864,43.3168562 C17.608864,43.3168562 11.3446397,56.8656074 10.0975381,66.0090658 C9.20733727,72.5387681 9.10946792,94.5523388 7.29155944,95.8855889 C5.06986664,97.5147912 2.40219435,99.2781976 2.40219435,99.2781976 L3.60710081,100.122101 C3.60710081,100.122101 10.7474609,99.3004673 11.0592363,98.5849076 C11.3710117,97.8699339 11.8632887,95.0598529 12.2166732,93.3445021 C13.8910009,85.2184161 16.5903196,80.0659172 16.3488694,70.5069535 C18.1345455,67.2426885 20.5174004,63.3490121 20.5174004,63.3490121 C20.5174004,63.3490121 21.0999281,43.0677875 17.608864,43.3168562 Z" id="Path" fill="#FECFCE"></path>
                    <path d="M11.202231,97.5013122 C11.9066559,97.5816003 11.3194398,100.034194 10.4808109,100.766163 C10.5071829,100.767921 7.37946604,100.731587 7.37946604,100.731587 L7.43396813,99.9281204 C7.43396813,99.9281204 4.61040814,100.893921 3.11482386,100.791949 C1.5770444,100.687633 0.319980024,100.503616 0.3369753,100.253375 C0.361003103,99.9017484 2.43266864,98.8287019 2.87747604,98.8591762 C3.49282224,98.9007853 4.06362909,99.6884284 4.58872451,99.6978051 C5.11499202,99.7071818 10.6279079,97.4362613 11.202231,97.5013122 Z" id="Path" fill="#FFFFFF"></path>
                    <path d="M36.0452222,87.7501261 C33.1472346,81.6540964 31.8432867,72.7520881 26.8759778,66.810774 C27.731602,60.5799542 31.6364132,57.1211226 31.6364132,49.8916838 C31.6364132,46.2628993 30.1607544,43.7329474 30.1607544,43.7329474 L17.6094501,43.3174422 C17.6094501,43.3174422 16.289093,56.7683241 19.7467526,68.847863 C21.0952398,73.5590707 34.3386621,88.6848663 33.5070657,92.5005988 C32.9204356,95.1922989 31.4154746,97.8341852 31.4154746,97.8341852 L32.9989655,97.8939617 C32.9989655,97.8939617 38.5288767,93.223191 38.4046354,92.4531292 C38.279808,91.6818953 36.7971167,89.3318589 36.0452222,87.7501261 Z" id="Path" fill="#FECFCE"></path>
                    <path d="M26.7962758,5.84520285 C25.6558342,6.22671749 25.7419827,8.18234632 25.386254,8.750809 C25.0311113,9.31985772 24.4491696,10.1069148 24.4831602,10.5517222 C24.5177367,10.9965296 25.6599365,10.9801204 25.5702718,12.0684041 C25.480607,13.1566878 25.4688862,14.5110355 27.1332511,14.851527 C28.7976161,15.1920186 28.5344823,16.6799843 28.597189,18.087662 C28.6598957,19.4953397 28.8702855,19.9014682 29.4410924,19.8750962 C29.7610724,19.8604451 31.3873445,19.5457395 33.1314114,18.2570287 C34.5004102,17.2449307 36.0991383,14.2854085 35.8125627,12.5899832 C35.2599233,9.32454607 34.043882,6.67738533 31.3850003,5.93486758 C28.7261187,5.19234983 27.7597322,5.52346469 26.7962758,5.84520285 Z" id="Path" fill="#FECFCE"></path>
                    <path d="M37.9744791,91.5851981 C38.6103368,91.2722506 39.4413472,93.6533473 39.1307439,94.7228776 C39.1535996,94.7099847 36.5023365,96.3684892 36.5023365,96.3684892 L36.1143754,95.6628922 C36.1143754,95.6628922 34.2595461,98.0000357 32.9456355,98.7226279 C31.5948041,99.4651457 30.4379532,99.989069 30.3172282,99.7693025 C30.1472754,99.4604573 31.3117448,97.4386055 31.7026362,97.2235274 C32.2429687,96.9264031 33.1489928,97.2809597 33.5961443,97.004933 C34.0421238,96.7294923 37.4558301,91.8407132 37.9744791,91.5851981 Z" id="Path" fill="#FFFFFF"></path>
                    <path d="M30.7532449,42.3487115 C30.7532449,44.9273051 32.6678506,46.0460631 32.340252,51.2624407 C32.0126535,56.4788183 29.009764,64.1014926 27.7755553,64.9172659 C26.5407606,65.7324531 10.6912007,65.4640449 10.1332868,64.3915844 C8.6523536,61.5445827 16.6143474,43.528418 18.1550571,42.3492975 C19.6963528,41.170177 30.7532449,42.3487115 30.7532449,42.3487115 Z" id="Path" fill="url(#linearGradient-4)"></path>
                    <path d="M30.7532449,42.3487115 C30.7532449,36.7473029 36.2263098,33.5721165 36.2743654,23.7060658 C36.2743654,19.0938995 33.4625263,17.4576647 29.1082194,17.4564926 C26.2073016,17.4553205 20.1054115,23.6650427 20.1007231,25.627118 C20.0960348,27.5891933 21.2399927,30.1408289 21.2399927,32.1697132 C21.2399927,35.8319022 18.0419506,39.5673466 18.0419506,42.3487115 L30.7532449,42.3487115 L30.7532449,42.3487115 Z" id="Path" fill="url(#linearGradient-5)"></path>
                    <path d="M32.112867,25.1348411 C32.112867,25.1348411 31.3961352,36.1981797 20.2150017,40.6527001 C19.1988014,41.0564844 18.8629982,41.4057667 18.0964527,41.7052352 C18.3232517,40.1809347 19.3031172,38.4122539 20.1059975,36.5521503 L29.1099775,30.7186683 C29.1099775,30.7186683 31.114834,27.3348503 32.112867,25.1348411 Z" id="Path" fill="#2ECEAA"></path>
                    <path d="M29.1082194,30.7174962 C29.1082194,30.7174962 25.1354271,35.9121902 21.6402607,37.8308983 C14.5620213,41.716956 8.7256091,42.529213 8.7256091,42.529213 C8.7256091,42.529213 2.25333918,43.9550581 1.26819921,41.1367725 C0.915986771,40.1293628 2.43911512,41.4467898 5.6395014,40.9064572 C6.67855741,40.6984116 5.51467403,39.9090103 5.14077796,39.2854595 C4.76688189,38.6619087 5.76432878,38.41284 7.21888998,39.451896 C8.67345119,40.490952 13.9138566,38.1637713 18.9010911,34.1323746 C23.7939724,30.1771636 24.893391,26.6480067 24.893391,26.6480067 C24.893391,26.6480067 27.5288308,29.595808 29.1082194,30.7174962 Z" id="Path" fill="#FECFCE"></path>
                    <path d="M26.5132166,6.39960047 C26.5132166,6.39960047 24.5230111,6.26715453 24.5230111,4.29277229 C24.5230111,0.749550275 32.5969393,-1.80501552 35.8149069,2.49947766 C39.0328745,6.80397083 38.9561028,12.5366532 42.8796673,15.50438 C46.8032319,18.4721069 42.4436506,25.9846049 38.3026637,26.0936091 C34.1616768,26.2026132 29.9110997,22.0792077 31.2191499,18.4832417 C32.5272001,14.8866897 33.9800032,10.0553429 31.6188319,10.9273764 C29.2564885,11.7994099 30.2363541,6.2308198 26.5132166,6.39960047 Z" id="Path" fill="#423160"></path>
                    <path d="M29.7745514,14.5485423 C29.7745514,14.5485423 29.3860043,15.4047526 28.4741198,16.1068333 C28.3551529,15.5993192 28.0937772,15.1867442 27.5188681,14.9652196 C27.9384756,15.0367169 28.703849,15.0443355 29.7745514,14.5485423 Z" id="Path" fill="#CD916A"></path>
                </g>
                <g id="pie_chart" transform="translate(73.562424, 56.260224)">
                    <g id="Group" transform="translate(30.474288, 0.000000)">
                        <path d="M1.51550978,0.308259144 C10.0090455,0.308259144 17.6985288,1.99020542 23.3526813,4.67311485 L0.521579159,16.0476428 L0.521579159,0.327012552 C0.876721823,0.308259144 1.18439492,0.308259144 1.51550978,0.308259144 Z" id="Path" fill="#FFC65E"></path>
                        <polygon id="Path" fill="#F0AF37" points="23.3532673 4.67252881 23.3532673 12.5829507 0.522165203 23.9580647 0.522165203 16.0476428"></polygon>
                    </g>
                    <g id="Group" transform="translate(0.000000, 7.618572)">
                        <path d="M30.9964532,0.577839383 L30.9964532,16.3172231 L9.18272342,27.2006462 C3.78818841,24.3852908 0.452425967,20.5496328 0.452425967,16.3172231 C0.452425967,12.0660599 3.78818841,8.24915533 9.20616518,5.41504655 C14.7190811,2.54284491 22.4314201,0.709699283 30.9964532,0.577839383 Z" id="Path" fill="#FFF68E"></path>
                        <polygon id="Path" fill="#E7D82E" points="30.9964532 16.3172231 30.9964532 24.227645 9.18272342 35.1110681 9.18272342 27.2006462"></polygon>
                        <path d="M1.05780942,19.4074331 C0.661057631,18.4088141 0.452425967,17.3750325 0.452425967,16.3172231 L0.452425967,16.3172231 L0.452425967,24.227645 C0.452425967,28.4600547 3.78818841,32.2957127 9.18272342,35.1110681 L9.18272342,27.2006462 C5.13667565,25.0891296 2.24923687,22.403876 1.05780942,19.4074331 Z" id="Path" fill="#EDE03C"></path>
                    </g>
                    <g id="Group" transform="translate(32.818464, 13.479012)">
                        <path d="M22.9805433,0.329942772 C28.9663967,3.22089782 32.7041854,7.24526196 32.7041854,11.7238102 C32.7041854,16.183019 28.9658107,20.2267226 22.9805433,23.0983382 L0.17288298,11.7238102 L22.9805433,0.329942772 Z" id="Path" fill="#FF8FF5"></path>
                        <path d="M22.9805433,23.0983382 L22.9805433,23.0983382 L22.9805433,31.0087601 C27.6923371,28.7478023 32.7041854,24.8582283 32.7041854,19.6342321 L32.7041854,11.7238102 C32.7041854,16.9648017 27.6858906,20.8408967 22.9805433,23.0983382 Z" id="Path" fill="#FC6FEF"></path>
                        <polygon id="Path" fill="#F254E3" points="22.9805433 23.0983382 22.9805433 31.0087601 0.17288298 19.6342321 0.17288298 11.7238102"></polygon>
                    </g>
                    <g id="Group" transform="translate(9.376704, 29.888244)">
                        <path d="M22.2767045,0.23148738 L45.1078066,11.6060154 C39.4530681,14.3082642 31.7641708,15.9708711 23.2706351,15.9708711 C22.962962,15.9708711 22.6318472,15.9708711 22.3007323,15.9521177 C13.7362853,15.8390112 6.04680198,14.0058655 0.463560803,11.1149105 L22.2767045,0.23148738 Z" id="Path" fill="#6AFBDA"></path>
                        <path d="M23.2706351,15.9708711 C22.962962,15.9708711 22.6318472,15.9708711 22.3007323,15.9521177 C13.7362853,15.8384251 6.04680198,14.0058655 0.463560803,11.1149105 L0.463560803,19.0253324 C6.04738803,21.9162874 13.7362853,23.748847 22.3007323,23.8625396 C22.6318472,23.881293 22.962962,23.881293 23.2706351,23.881293 C29.6409334,23.881293 35.5588057,22.9459667 40.505017,21.3384481 C42.1535588,20.8028038 43.6948545,20.192146 45.1083927,19.5164373 L45.1083927,11.6060154 C39.4536541,14.3082642 31.7641708,15.9708711 23.2706351,15.9708711 Z" id="Path" fill="#3BDEB9"></path>
                    </g>
                </g>
                <g id="man_hand_up" transform="translate(112.241328, 104.315832)">
                    <path d="M19.5146791,22.8504416 C18.8407285,24.2979702 19.1712573,25.0867855 19.0059929,25.6968573 C18.8401425,26.3069291 18.207801,27.5387936 18.180843,28.1230794 C18.153885,28.7073653 18.7745056,28.7870673 18.9087096,29.5506826 C19.0429137,30.3142979 18.6907013,31.3094007 19.1566062,32.1093507 C19.6219252,32.9093008 21.4292849,32.7246969 21.3226249,33.4971029 C21.2159649,34.2695089 20.0772814,37.1358501 20.0772814,37.1358501 L27.5077332,37.254817 C27.5077332,37.254817 27.211195,33.0827698 27.5891933,31.3580423 C27.9671917,29.6333148 28.8046486,23.2981792 27.2621808,22.5298755 C25.719713,21.7615718 20.2302389,21.3132482 19.5146791,22.8504416 Z" id="Path" fill="#FECFCE"></path>
                    <path d="M23.5941314,19.565665 C29.7757235,19.7584734 31.9446724,21.3161784 31.873761,26.146353 C31.8315659,29.0250011 30.2428006,33.0101003 28.15707,32.9972386 C26.652695,32.9878307 23.6878984,32.8208081 23.1680774,31.9985884 C21.9350408,30.048234 22.9905061,27.3553618 22.164184,26.425896 C20.9897519,25.1043668 18.3203215,25.7847639 18.687185,21.2341322 C19.0552206,16.6823285 21.537117,19.5012001 23.5941314,19.565665 Z" id="Path" fill="#423160"></path>
                    <polygon id="Path" fill="#FECFCE" points="16.8792393 119.014401 16.8792393 121.759431 12.733564 121.759431 12.7323919 117.846416"></polygon>
                    <polygon id="Path" fill="#FECFCE" points="31.1734384 119.129266 31.1734384 122.373606 35.389439 122.373606 35.389439 118.391437"></polygon>
                    <path d="M33.6371674,69.1180293 C33.6371674,69.1180293 34.9088829,86.3834715 35.1427145,91.3671897 C35.376546,96.3509079 35.389439,118.391437 35.389439,118.391437 L30.9894206,118.430116 C30.9894206,118.430116 27.8517411,104.215618 28.0211078,96.0619882 C27.0090098,92.7912766 21.6642885,73.7120282 21.5863447,69.8183518 C21.5089869,65.9252616 31.6903293,67.1711911 33.6371674,69.1180293 Z" id="Path" fill="url(#linearGradient-6)"></path>
                    <path d="M14.0234469,69.1180293 C14.0234469,69.1180293 12.1996779,86.6173031 11.9664324,91.6010212 C11.7326009,96.5847394 12.6216296,118.392023 12.6216296,118.392023 L17.1734334,118.700868 C17.1734334,118.700868 19.4613491,106.864537 19.6576739,95.9465375 C20.6697719,92.6758259 26.9170009,73.456513 26.9949447,69.5634227 C27.0734746,65.6691603 15.970285,67.1711911 14.0234469,69.1180293 Z" id="Path" fill="url(#linearGradient-7)"></path>
                    <path d="M34.7822974,48.1704726 C34.7822974,48.1704726 38.2381989,52.4597286 37.5372902,55.8476489 C36.8363816,59.2349833 32.5049304,66.1010748 31.4535675,67.6195148 C30.4022045,69.1379548 33.1876717,70.7736036 33.1876717,70.7736036 C33.1876717,70.7736036 42.0603778,59.2484623 43.4621951,55.7445052 C44.8640123,52.2405481 38.5786904,43.0900571 38.5786904,43.0900571 L34.7822974,48.1704726 Z" id="Path" fill="#FECFCE"></path>
                    <path d="M12.4581233,33.7051485 C12.4581233,33.7051485 8.56796327,33.2216622 6.44120959,26.6104999 C4.31445592,19.9993375 3.69559346,11.1225291 4.47034363,9.16338397 C5.69693372,6.060281 4.37716263,3.00933594 4.03256876,1.73527628 C3.77119313,0.769475771 2.99351275,-0.559085975 2.77667647,0.481728167 C2.6465747,1.10645107 2.74620218,2.72686273 2.99058253,3.92063435 C3.20800485,4.98313212 -0.124241328,5.08862004 0.34283574,6.72426885 C0.809912807,8.3593316 1.27757592,8.25442973 1.35493373,9.41596893 C1.43229153,10.5775081 0.809912807,23.815656 1.66670913,26.9310659 C2.52350546,30.0458898 5.79421702,38.1444318 8.20813225,39.6241929 C10.6226335,41.103368 12.4581233,33.7051485 12.4581233,33.7051485 Z" id="Path" fill="#FECFCE"></path>
                    <path d="M22.4589642,36.1975937 C24.2692541,36.1788402 31.9206445,35.6133078 35.7164515,39.1178509 C39.5122585,42.622394 40.8560574,45.3088197 41.089889,46.0097283 C41.3237205,46.710637 36.4173602,50.50703 35.4246016,49.747517 C34.4318431,48.9880039 33.7309345,47.5867727 32.5629488,47.5867727 C31.3949631,47.5867727 31.9786629,53.9529687 32.446326,57.2236803 C32.9139891,60.4943918 35.7170376,69.7222406 33.7309345,70.5983764 C31.7454174,71.4745122 26.6058115,70.3065265 23.6269499,71.0654535 C20.6480882,71.8243804 15.6837095,72.4086663 14.0486467,70.539772 C12.413584,68.6708777 15.2166324,61.6037731 15.2752368,57.0484531 C15.3338412,52.4931331 15.1586141,45.3674241 12.413584,43.5571342 C9.6685539,41.7468443 6.33982398,41.1625584 6.22261518,39.4688913 C6.10599243,37.7752241 11.0117667,32.4017867 12.1797524,32.9860725 C13.3477381,33.5703584 15.4674593,36.0229525 17.6692266,36.0815569 C19.8709939,36.1389893 21.1737697,36.2104866 22.4589642,36.1975937 Z" id="Path" fill="url(#linearGradient-8)"></path>
                    <path d="M11.6019131,118.59538 C11.9552976,119.691282 13.3002686,119.519571 14.1523765,119.697729 C15.0044845,119.875886 17.9745555,120.289633 18.0818016,119.478548 C18.1890476,118.668049 17.7711982,118.075559 17.8262864,117.454938 C17.8813745,116.834318 18.5629437,116.044916 17.8737559,115.579598 C17.1845682,115.113693 16.0376801,115.549123 15.2043255,115.571979 C14.5948398,115.588388 12.347361,114.631378 12.0742645,115.015823 C11.801168,115.400268 12.173892,116.137511 12.0795389,116.615137 C11.9394744,117.323664 11.3276445,117.74503 11.6019131,118.59538 Z" id="Path" fill="#355AA2"></path>
                    <path d="M36.1718077,119.177908 C35.7615769,120.253298 34.4271547,120.011848 33.5674282,120.145466 C32.7071156,120.279084 29.7194633,120.536358 29.6544124,119.72117 C29.5893615,118.905983 30.0382712,118.336348 30.0154155,117.71397 C29.9925598,117.091591 29.3531858,116.267613 30.0664013,115.838629 C30.7790308,115.409645 31.9013051,115.904266 32.7323155,115.970489 C33.3400431,116.019131 35.6344054,115.180502 35.8869903,115.579011 C36.1395753,115.977521 35.7287585,116.694253 35.7979116,117.175981 C35.9010554,117.890369 36.4900296,118.343381 36.1718077,119.177908 Z" id="Path" fill="#355AA2"></path>
                    <path d="M17.4564926,121.231406 C16.8792393,120.64712 15.877104,121.58186 14.8562154,121.58186 C13.8353267,121.58186 13.2674501,120.881538 12.733564,120.842273 C12.200264,120.803008 11.9271675,122.048937 10.7984467,122.62033 C10.1280124,122.95965 8.5404192,123.127258 8.5404192,125.071752 C8.5404192,125.552894 17.1746054,125.430997 17.4570786,125.273937 C17.994481,124.973297 18.0331599,121.815106 17.4564926,121.231406 Z" id="Path" fill="#FFFFFF"></path>
                    <path d="M35.9121902,121.231406 C35.3349369,120.64712 34.3328016,121.58186 33.311913,121.58186 C32.2910244,121.58186 31.7231477,120.881538 31.1892616,120.842273 C30.6553756,120.803008 30.3828651,122.048937 29.2541444,122.62033 C28.58371,122.95965 26.9961168,123.127258 26.9961168,125.071752 C26.9961168,125.552894 35.6303031,125.430997 35.9127763,125.273937 C36.4501786,124.973297 36.4894436,121.815106 35.9121902,121.231406 Z" id="Path" fill="#FFFFFF"></path>
                </g>
            </g>
        </g>
    </g>
</svg>