<?xml version="1.0" encoding="UTF-8"?>
<svg width="46px" height="40px" viewBox="0 0 46 40" version="1.1" xmlns="http://www.w3.org/2000/svg" xmlns:xlink="http://www.w3.org/1999/xlink">
    <!-- Generator: Sketch 61 (89581) - https://sketch.com -->
    <title>file_index_lose</title>
    <desc>Created with Sketch.</desc>
    <g id="图标" stroke="none" stroke-width="1" fill="none" fill-rule="evenodd">
        <g id="切图" transform="translate(-286.000000, -559.000000)" fill="#E0E7FA" fill-rule="nonzero">
            <path d="M303.214475,599 L291.699686,599 C288.552402,598.986272 286.00661,596.434379 286,593.287094 L286,564.7246 C286,561.576807 288.541216,559.019829 291.6885,559.000508 L303.546491,559.000508 L305.298598,561.868656 L291.355468,561.868656 C289.873854,561.964752 288.749679,563.242987 288.84425,564.725108 L288.84425,590.143878 L298.531174,578.425201 C299.233847,577.482033 300.56852,577.287298 301.511688,577.989971 C301.676933,578.113015 301.823874,578.259956 301.946918,578.425201 L308.740781,587.172007 L310.122231,588.944961 L310.118163,588.950045 L311.216408,591.13484 L303.214475,599 Z M325.868312,599 L310.429332,599 L316.048684,588.681077 L313.426116,585.733104 L318.132806,581.005059 C318.560621,580.462341 319.21419,580.14643 319.905251,580.148327 C319.964739,580.148327 320.022194,580.148327 320.077106,580.154936 C320.82629,580.211825 321.498116,580.637601 321.86938,581.290806 L328.712562,590.037612 L328.712562,564.7246 C328.604263,563.198752 327.393652,561.983056 325.868312,561.868147 L308.911619,561.868147 L308.169796,559 L325.867804,559 C329.015597,559.020338 331.556813,561.577316 331.556813,564.7246 L331.556813,593.286586 C331.550203,596.429803 329.011021,598.979662 325.868312,599 L325.868312,599 Z M315.882422,576.168207 C313.509502,576.166681 311.587065,574.242211 311.58859,571.8698 C311.590116,569.496879 313.514586,567.574443 315.886998,567.575967 C318.259918,567.577494 320.182354,569.501964 320.18083,571.874376 C320.180226,573.015118 319.726033,574.108802 318.918356,574.914378 C318.114175,575.719921 317.021681,576.171085 315.883439,576.167698 L315.882422,576.168207 Z" id="file_index_lose"></path>
        </g>
    </g>
</svg>