<?xml version="1.0" encoding="UTF-8"?>
<svg width="16px" height="16px" viewBox="0 0 16 16" version="1.1" xmlns="http://www.w3.org/2000/svg" xmlns:xlink="http://www.w3.org/1999/xlink">
    <!-- Generator: Sketch 61 (89581) - https://sketch.com -->
    <title>file_queation_icon</title>
    <desc>Created with Sketch.</desc>
    <g id="图标" stroke="none" stroke-width="1" fill="none" fill-rule="evenodd">
        <g id="切图" transform="translate(-490.000000, -443.000000)" fill="#E0E7FA" fill-rule="nonzero">
            <path d="M498,443 C502.411071,443 506,446.58875 506,451 C506,455.41125 502.411071,459 498,459 C493.588929,459 490,455.41125 490,451 C490,446.58875 493.588929,443 498,443 Z M498,444.11625 C494.204286,444.11625 491.11625,447.204107 491.11625,451 C491.11625,454.795893 494.204286,457.88375 498,457.88375 C501.795714,457.88375 504.88375,454.795714 504.88375,451 C504.88375,447.204286 501.795714,444.11625 498,444.11625 Z M497.907143,454.510714 C498.287923,454.510714 498.596607,454.819398 498.596607,455.200179 C498.596607,455.580959 498.287923,455.889643 497.907143,455.889643 C497.526362,455.889643 497.217679,455.580959 497.217679,455.200179 C497.217679,454.819398 497.526362,454.510714 497.907143,454.510714 Z M497.894107,446.597857 C499.709643,446.597857 500.536786,447.954286 500.536786,449.214821 C500.536786,450.443036 499.726071,451.039286 499.133929,451.474643 C498.643571,451.835536 498.444464,452.009107 498.451786,452.276607 L498.451964,453.174821 C498.451964,453.483214 498.202143,453.733214 497.893929,453.733214 C497.585536,453.733214 497.335714,453.483214 497.335714,453.175 L497.335714,452.291964 C497.312143,451.428929 497.955714,450.955893 498.472679,450.575357 C499.060357,450.143393 499.420536,449.846429 499.420536,449.214821 C499.420536,448.489107 499.019643,447.714107 497.894107,447.714107 C496.240179,447.714107 496.1925,449.163214 496.1925,449.328571 C496.1925,449.636786 495.942679,449.886786 495.634286,449.886786 C495.325893,449.886786 495.076071,449.636786 495.076071,449.328571 C495.076071,448.384107 495.665179,446.597857 497.894107,446.597857 Z" id="file_queation_icon"></path>
        </g>
    </g>
</svg>