<?xml version="1.0" encoding="utf-8"?>
<!-- Generator: Adobe Illustrator 25.0.0, SVG Export Plug-In . SVG Version: 6.00 Build 0)  -->
<svg version="1.1" id="图层_1" xmlns="http://www.w3.org/2000/svg" xmlns:xlink="http://www.w3.org/1999/xlink" x="0px" y="0px"
	 viewBox="0 0 12 12" style="enable-background:new 0 0 12 12;" xml:space="preserve">
<style type="text/css">
	.st0{fill-rule:evenodd;clip-rule:evenodd;fill:#4F84FA;}
	.st1{fill:#B2CAFF;}
	.st2{fill-rule:evenodd;clip-rule:evenodd;fill:#FFFFFF;}
</style>
<g id="_x32_.5">
	<g id="颜色筛选-下拉" transform="translate(-268.000000, -57.000000)">
		<g id="编组-14" transform="translate(251.000000, 57.000000)">
			<g id="关闭筛选" transform="translate(17.000000, 0.000000)">
				<g id="矩形">
					<path class="st0" d="M3.3,0.3h5.4c1.7,0,3,1.3,3,3v5.4c0,1.7-1.3,3-3,3H3.3c-1.7,0-3-1.3-3-3V3.3C0.3,1.6,1.6,0.3,3.3,0.3z"/>
					<path class="st1" d="M8.7,12H3.3C1.5,12,0,10.5,0,8.7V3.3C0,1.5,1.5,0,3.3,0h5.4C10.5,0,12,1.5,12,3.3v5.4
						C12,10.5,10.5,12,8.7,12z M3.3,0.6c-1.5,0-2.7,1.2-2.7,2.7v5.4c0,1.5,1.2,2.7,2.7,2.7h5.4c1.5,0,2.7-1.2,2.7-2.7V3.3
						c0-1.5-1.2-2.7-2.7-2.7H3.3z"/>
				</g>
				<g id="矩形备份-10">
					<path class="st2" d="M8.8,3.2C9,3.4,9,3.7,8.8,3.9L6.7,6l2.1,2.1C9,8.3,9,8.6,8.8,8.8C8.6,9,8.3,9,8.1,8.8L6,6.7L3.9,8.8
						C3.7,9,3.4,9,3.2,8.8C3,8.6,3,8.3,3.2,8.1L5.3,6L3.2,3.9C3,3.7,3,3.4,3.2,3.2C3.4,3,3.7,3,3.9,3.2L6,5.3l2.1-2.1
						C8.3,3,8.6,3,8.8,3.2z"/>
				</g>
			</g>
		</g>
	</g>
</g>
</svg>
