<?xml version="1.0" encoding="UTF-8"?>
<svg width="16px" height="16px" viewBox="0 0 16 16" version="1.1" xmlns="http://www.w3.org/2000/svg" xmlns:xlink="http://www.w3.org/1999/xlink">
    <!-- Generator: Sketch 61 (89581) - https://sketch.com -->
    <title>形状结合</title>
    <desc>Created with Sketch.</desc>
    <g id="2.0正式2" stroke="none" stroke-width="1" fill="none" fill-rule="evenodd">
        <g id="首次启动界面" transform="translate(-216.000000, -614.000000)" fill="#A2ABC3" fill-rule="nonzero">
            <g id="编组-3" transform="translate(216.000000, 614.000000)">
                <path d="M14.7523859,3.71168438 C17.1206747,7.44091492 16.0175462,12.3840556 12.2883156,14.7523443 C11.0045379,15.5676969 9.5149,16.0001217 7.99408329,15.9989133 L7.99158328,15.9614106 C6.63642275,15.9615669 5.30407478,15.6140658 4.12172729,14.9518762 L1.2779683,15.0662515 C1.09939691,15.0687948 0.929218847,14.9905956 0.814841831,14.8534384 C0.713575401,14.7219466 0.674716763,14.5528174 0.708435245,14.3903119 L1.24749945,12.2881178 C-1.12063304,8.55904346 -0.0175045516,3.61590282 3.71172599,1.24761408 C7.44095654,-1.12067466 12.3840972,-0.01754617 14.7523859,3.71168438 Z M2.08859586,4.5559058 C1.48128093,5.59945369 1.16155957,6.78538809 1.16195646,7.99279167 C1.15557882,9.36925564 1.57129094,10.7146076 2.35312795,11.8474914 C2.44281035,11.9867954 2.47170834,12.1566839 2.4331282,12.3178053 L2.01562688,13.9264042 L4.29219658,13.8464039 L4.265634,13.8135913 C4.36691708,13.812836 4.46657704,13.8390453 4.55438491,13.8895291 C7.81267647,15.7860976 11.9915959,14.6820316 13.8881644,11.42374 C15.7847329,8.16544846 14.6806669,3.986529 11.4223754,2.0899605 C8.16408383,0.193391997 3.98516436,1.29761424 2.08859586,4.5559058 Z M11.3344064,8.70388767 C11.6505011,8.7157627 11.8972206,8.9815448 11.8853456,9.29763955 C11.8740956,9.59717174 11.6339386,9.83732875 11.3344064,9.84857879 L4.77516686,9.84857879 C4.45907211,9.86045383 4.19329002,9.6137343 4.18141498,9.29763955 C4.16953994,8.9815448 4.41625947,8.7157627 4.73235422,8.70388767 L11.3344064,8.70388767 Z M8.47955358,5.94091018 C8.79564833,5.95278522 9.04236786,6.21856731 9.03049282,6.53466206 C9.01924278,6.83419425 8.77908577,7.07450751 8.47955358,7.0856013 L4.77766687,7.0856013 C4.46157212,7.07372626 4.21485259,6.80794417 4.22672762,6.49184942 C4.23797766,6.19231722 4.47813467,5.95216021 4.77766687,5.94091018 L8.47955358,5.94091018 Z" id="形状结合"></path>
            </g>
        </g>
    </g>
</svg>