<?xml version="1.0" encoding="UTF-8"?>
<svg width="15px" height="16px" viewBox="0 0 15 16" version="1.1" xmlns="http://www.w3.org/2000/svg" xmlns:xlink="http://www.w3.org/1999/xlink">
    <!-- Generator: Sketch 61 (89581) - https://sketch.com -->
    <title>形状结合</title>
    <desc>Created with Sketch.</desc>
    <g id="2.0正式2" stroke="none" stroke-width="1" fill="none" fill-rule="evenodd">
        <g id="首次启动界面" transform="translate(-100.000000, -614.000000)" fill="#A2ABC3" fill-rule="nonzero">
            <g id="编组-2" transform="translate(100.000000, 614.000000)">
                <path d="M10.5036806,-1.24344979e-14 C11.5387018,-1.24344979e-14 12.3809949,0.842293107 12.3809949,1.8773143 L12.38,2.38 L12.391702,2.38054874 C13.3482043,2.38054874 14.1226857,3.15859915 14.1226857,4.11153246 L14.1226857,14.1298238 C14.1226857,15.1612759 13.2839616,16 12.2560785,16 L1.87017622,16 C0.842293107,16 0.00356903859,15.1648171 0.00356903859,14.136934 L0.003,3.451 L-3.8191672e-14,3.45126032 L-3.8191672e-14,2.04505911 C-3.8191672e-14,0.917242918 0.917242918,-1.24344979e-14 2.04505911,-1.24344979e-14 L10.5036806,-1.24344979e-14 Z M12.3881329,3.45126032 L1.07071158,3.45126032 L1.07071158,14.1333928 C1.07071158,14.5723846 1.42761544,14.9292884 1.86660718,14.9292884 L12.2525095,14.9292884 C12.6915012,14.9292884 13.0484051,14.5723846 13.0484051,14.1333928 L13.0484051,4.11153246 C13.0484051,3.74749052 12.7521749,3.45126032 12.3881329,3.45126032 Z M6.91322775,8.6548907 C7.20945795,8.6548907 7.44858354,8.89401628 7.44858354,9.19024649 C7.44858354,9.48647669 7.20945795,9.72560228 6.91322775,9.72560228 L2.81597145,9.72560228 C2.51974124,9.72560228 2.28061566,9.48647669 2.28061566,9.19024649 C2.28061566,8.89401628 2.51974124,8.6548907 2.81597145,8.6548907 L6.91322775,8.6548907 Z M9.29020745,5.94242137 C9.58643765,5.94242137 9.82556324,6.18154696 9.82556324,6.47777716 C9.82556324,6.77400736 9.58643765,7.01313295 9.29020745,7.01313295 L2.81597145,7.01313295 C2.51974124,7.01313295 2.28061566,6.77400736 2.28061566,6.47777716 C2.28061566,6.18154696 2.51974124,5.94242137 2.81597145,5.94242137 L9.29020745,5.94242137 Z M10.5036806,1.06714254 L2.04505911,1.06714254 C1.50613429,1.06714254 1.07071158,1.50613429 1.07071158,2.04149007 L1.07071158,2.38054874 L11.3102833,2.38054874 L11.3102833,1.87374526 C11.3102833,1.42761544 10.9498104,1.06714254 10.5036806,1.06714254 Z" id="形状结合"></path>
            </g>
        </g>
    </g>
</svg>