<?xml version="1.0" standalone="no"?><!DOCTYPE svg PUBLIC "-//W3C//DTD SVG 1.1//EN"
        "http://www.w3.org/Graphics/SVG/1.1/DTD/svg11.dtd">
<svg t="1649838403955" class="icon" viewBox="0 0 1024 1024" version="1.1" xmlns="http://www.w3.org/2000/svg" p-id="5799"
     xmlns:xlink="http://www.w3.org/1999/xlink" width="200" height="200">
    <defs>
        <style type="text/css"></style>
    </defs>
    <path d="M908.769581 561.814588c-28.732235 153.359059-149.985882 279.792941-301.959529 314.608941-31.322353 7.228235-63.066353 10.842353-94.208 10.842353a402.311529 402.311529 0 0 1-208.655059-58.789647l-23.612235-14.396235-27.346824 3.614118-142.637176 18.793411-2.590118-4.517647 44.574118-107.580235 13.492706-32.587294-15.480471-31.683765a404.239059 404.239059 0 0 1-33.551059-256.662588c33.731765-173.176471 179.742118-306.115765 355.147294-323.162353a402.432 402.432 0 0 1 351.051294 143.962353c78.366118 94.388706 108.845176 214.256941 85.775059 337.558588M512.602052 0c-15.962353 0-31.924706 0.783059-48.188236 2.349176C255.457581 22.708706 79.871699 182.573176 39.815228 388.517647a481.581176 481.581176 0 0 0 40.116706 305.935059l-44.513882 107.580235a81.498353 81.498353 0 0 0 85.955764 112.037647l141.793883-18.733176a478.388706 478.388706 0 0 0 249.374117 70.234353c36.382118 0 73.728-4.096 111.676236-12.830118 182.693647-41.863529 326.957176-192.331294 361.411764-376.530823C1043.274993 268.589176 809.260875 0 512.602052 0m0.481882 422.430118a38.972235 38.972235 0 0 0-38.972235 37.225411l-10.24 218.654118a49.152 49.152 0 1 0 98.364235 0l-10.24-218.654118a39.032471 39.032471 0 0 0-38.912-37.225411m-1.204706-186.729412a72.342588 72.342588 0 1 0 0 144.745412 72.342588 72.342588 0 0 0 0-144.745412"
          fill="#E0E7FA" p-id="5800"></path>
</svg>