<?xml version="1.0" encoding="UTF-8"?>
<svg width="84px" height="30px" viewBox="0 0 84 30" version="1.1" xmlns="http://www.w3.org/2000/svg" xmlns:xlink="http://www.w3.org/1999/xlink">
    <title>编组 9</title>
    <g id="2.2" stroke="none" stroke-width="1" fill="none" fill-rule="evenodd">
        <g id="交互状态" transform="translate(-187.000000, -300.000000)">
            <g id="编组-9" transform="translate(187.000000, 300.000000)">
                <rect id="矩形" stroke="#29292E" stroke-width="1.5" fill="#454758" x="0.75" y="0.75" width="82.5" height="28.5" rx="6"></rect>
                <path d="M17.346,21.26 C18.284,21.26 18.76,20.798 18.76,19.902 L18.76,16.976 C19.6,16.752 20.398,16.528 21.154,16.276 L21.154,14.918 C20.398,15.17 19.6,15.408 18.76,15.632 L18.76,13.434 L21.896,13.434 C22.008,14.456 22.162,15.352 22.358,16.108 C22.484,16.612 22.624,17.088 22.792,17.55 C21.812,18.446 20.664,19.132 19.348,19.608 L20.09,20.756 C21.294,20.294 22.372,19.65 23.338,18.838 C23.548,19.286 23.786,19.664 24.052,20 C24.71,20.826 25.34,21.246 25.942,21.246 C26.614,21.246 27.132,20.238 27.482,18.25 L26.306,17.634 C26.124,19.09 25.942,19.818 25.76,19.818 C25.536,19.818 25.214,19.496 24.794,18.866 C24.626,18.614 24.472,18.292 24.304,17.914 C25.172,16.99 25.914,15.884 26.544,14.596 L25.396,13.994 C24.948,14.918 24.416,15.744 23.814,16.472 C23.744,16.248 23.674,16.01 23.618,15.744 C23.45,15.128 23.324,14.358 23.24,13.434 L27.356,13.434 L27.356,12.16 L23.128,12.16 C23.044,11.124 23.002,9.92 23.002,8.548 L21.658,8.548 C21.658,9.864 21.7,11.068 21.784,12.16 L18.76,12.16 L18.76,10.382 C19.418,10.2 20.048,10.004 20.65,9.794 L20.188,8.548 C18.676,9.164 16.94,9.57 14.98,9.78 L15.26,11.04 C16.002,10.928 16.716,10.816 17.416,10.676 L17.416,12.16 L14.644,12.16 L14.644,13.434 L17.416,13.434 L17.416,15.94 C16.534,16.122 15.61,16.29 14.644,16.444 L14.826,17.774 C15.722,17.634 16.576,17.466 17.416,17.284 L17.416,19.566 C17.416,19.902 17.234,20.07 16.884,20.07 C16.436,20.07 15.974,20.042 15.484,19.986 L15.778,21.26 L17.346,21.26 Z M26.11,11.516 L27.076,10.564 C26.376,9.934 25.536,9.304 24.542,8.674 L23.646,9.528 C24.71,10.242 25.522,10.9 26.11,11.516 Z M29.4,21.106 C30.828,20.098 31.822,18.852 32.41,17.382 C32.998,18.082 33.726,19.048 34.594,20.28 L35.406,19.048 C34.51,17.984 33.642,17.018 32.788,16.15 C32.844,15.87 32.914,15.562 32.97,15.254 L35.336,15.254 L35.336,13.98 L33.152,13.98 C33.236,13.238 33.278,12.426 33.306,11.558 L35.21,11.558 L35.21,10.284 L31.388,10.284 C31.556,9.808 31.724,9.318 31.864,8.786 L30.548,8.506 C30.17,10.018 29.526,11.432 28.63,12.748 L29.792,13.49 C30.184,12.902 30.548,12.258 30.87,11.558 L31.934,11.558 C31.906,12.426 31.864,13.238 31.78,13.98 L28.826,13.98 L28.826,15.254 L31.584,15.254 C31.528,15.534 31.458,15.814 31.402,16.08 C30.94,17.648 29.988,18.964 28.532,20.042 L29.4,21.106 Z M37.184,20.826 L37.184,20.014 L39.634,20.014 L39.634,20.812 L40.922,20.812 L40.922,9.892 L35.896,9.892 L35.896,20.826 L37.184,20.826 Z M39.634,18.768 L37.184,18.768 L37.184,11.138 L39.634,11.138 L39.634,18.768 Z M54.306,19.02 L54.306,12.062 L51.1,12.062 C51.212,11.782 51.296,11.502 51.38,11.208 L55.202,11.208 L55.202,9.962 L53.102,9.962 C53.34,9.64 53.564,9.29 53.788,8.912 L52.5,8.464 C52.248,8.982 51.968,9.486 51.632,9.962 L50.092,9.962 C49.84,9.402 49.56,8.898 49.266,8.478 L48.02,8.94 C48.272,9.248 48.496,9.598 48.692,9.962 L46.648,9.962 L46.648,11.208 L49.952,11.208 C49.882,11.488 49.798,11.782 49.686,12.062 L47.474,12.062 L47.474,19.02 L54.306,19.02 Z M45.346,11.796 L46.284,10.872 C45.64,10.144 44.842,9.402 43.89,8.66 L42.98,9.528 C44.002,10.34 44.786,11.096 45.346,11.796 Z M53.046,14.064 L48.72,14.064 L48.72,13.238 L53.046,13.238 L53.046,14.064 Z M43.68,21.498 C44.436,20.238 44.954,19.608 45.248,19.608 C45.416,19.608 45.584,19.72 45.78,19.958 C46.186,20.434 46.676,20.77 47.236,20.938 C47.81,21.078 48.552,21.162 49.448,21.176 C50.344,21.19 51.17,21.204 51.926,21.204 L55.132,21.204 L55.454,19.888 C55.076,19.916 54.53,19.944 53.83,19.958 C53.116,19.972 52.416,19.986 51.744,19.986 C50.652,19.986 49.728,19.972 48.944,19.958 C48.132,19.93 47.516,19.804 47.096,19.608 C46.76,19.426 46.424,19.146 46.102,18.768 C46.032,18.684 45.962,18.628 45.906,18.572 L45.906,13.266 L42.714,13.266 L42.714,14.498 L44.66,14.498 L44.66,18.446 C44.072,18.74 43.428,19.454 42.7,20.588 L43.68,21.498 Z M53.046,15.912 L48.72,15.912 L48.72,15.128 L53.046,15.128 L53.046,15.912 Z M53.046,17.844 L48.72,17.844 L48.72,16.962 L53.046,16.962 L53.046,17.844 Z M69.244,11.908 L69.244,10.69 L66.724,10.69 L67.368,10.242 C67.088,9.738 66.682,9.164 66.15,8.506 L65.156,9.108 C65.59,9.668 65.954,10.186 66.248,10.69 L64.176,10.69 L64.176,11.908 L69.244,11.908 Z M61.614,21.232 C62.51,21.232 62.958,20.798 62.958,19.958 L62.958,16.01 C63.294,15.87 63.616,15.716 63.952,15.548 L63.952,14.288 C63.616,14.456 63.294,14.624 62.958,14.764 L62.958,12.258 L63.896,12.258 L63.896,11.026 L62.958,11.026 L62.958,8.646 L61.726,8.646 L61.726,11.026 L60.648,11.026 L60.648,12.258 L61.726,12.258 L61.726,15.226 C61.32,15.366 60.9,15.478 60.48,15.562 L60.788,16.808 C61.096,16.71 61.418,16.612 61.726,16.5 L61.726,19.65 C61.726,19.986 61.544,20.154 61.194,20.154 C60.97,20.154 60.718,20.126 60.452,20.07 L60.718,21.232 L61.614,21.232 Z M58.17,20.42 L58.17,19.258 L59.094,19.258 L59.094,20.084 L60.284,20.084 L60.284,9.57 L56.98,9.57 L56.98,20.42 L58.17,20.42 Z M59.094,18.11 L58.17,18.11 L58.17,10.718 L59.094,10.718 L59.094,18.11 Z M69.426,20.91 L69.426,19.636 L67.606,19.636 C68.138,17.704 68.586,15.492 68.95,13 L67.774,12.692 C67.382,15.464 66.92,17.774 66.388,19.636 L63.616,19.636 L63.616,20.91 L69.426,20.91 Z M65.1,18.642 L66.22,18.502 C66.024,16.402 65.772,14.54 65.478,12.888 L64.33,13.028 C64.61,14.652 64.862,16.528 65.1,18.642 Z" id="我知道啦" fill="#E1E6F9" fill-rule="nonzero"></path>
            </g>
        </g>
    </g>
</svg>