<?xml version="1.0" encoding="utf-8"?>
<!-- Generator: Adobe Illustrator 25.0.0, SVG Export Plug-In . SVG Version: 6.00 Build 0)  -->
<svg version="1.1" id="图层_1" xmlns="http://www.w3.org/2000/svg" xmlns:xlink="http://www.w3.org/1999/xlink" x="0px" y="0px"
	 viewBox="0 0 213 256" style="enable-background:new 0 0 213 256;" xml:space="preserve">
<style type="text/css">
	.st0{fill-rule:evenodd;clip-rule:evenodd;fill:#FFFFFF;}
	.st1{fill:#979797;}
	.st2{fill-rule:evenodd;clip-rule:evenodd;fill:#D8D8D8;}
	.st3{fill-rule:evenodd;clip-rule:evenodd;fill:#5A9DFF;}
	.st4{fill-rule:evenodd;clip-rule:evenodd;fill:#326DF0;}
	.st5{fill-rule:evenodd;clip-rule:evenodd;fill:#80BAFF;}
	.st6{fill:none;stroke:#FFFFFF;stroke-width:0.682;}
	.st7{fill:none;stroke:#D3D3D3;stroke-dasharray:3;}
	.st8{fill:#E0E7FA;}
	.st9{fill:#326DF0;}
</style>
<g id="_x32_.2">
	<g id="新手引导1" transform="translate(-716.000000, -370.000000)">
		<g id="编组-23" transform="translate(716.304000, 370.710174)">
			<g id="编组-16" transform="translate(31.696000, 72.289826)">
				
					<g id="编组" transform="translate(103.500000, 140.000000) scale(-1, 1) translate(-103.500000, -140.000000) translate(96.000000, 134.000000)">
					<path id="Fill-1" class="st0" d="M13.5,10.4L2,12c-1.6,0.2-2.6-1.7-1.5-3l6.8-8.4C8-0.3,9.3-0.2,9.9,0.7l4.7,6.8
						C15.4,8.7,14.8,10.2,13.5,10.4"/>
				</g>
				<path id="路径-2" class="st1" d="M97.8,137c-0.9-0.4-1.8-0.8-2.8-1.2l-0.4,0.9c0.9,0.4,1.8,0.8,2.8,1.2L97.8,137z M92.3,134.6
					c-0.9-0.4-1.8-0.8-2.7-1.3l-0.4,0.9c0.9,0.4,1.8,0.9,2.7,1.3L92.3,134.6z M86.9,132.1c-0.9-0.4-1.8-0.9-2.7-1.4l-0.5,0.9
					c0.9,0.5,1.8,0.9,2.7,1.4L86.9,132.1z M81.6,129.3c-0.9-0.5-1.8-1-2.6-1.4l-0.5,0.9c0.9,0.5,1.7,1,2.6,1.5L81.6,129.3z
					 M76.4,126.4c-0.9-0.5-1.7-1-2.6-1.5l-0.5,0.9c0.9,0.5,1.7,1,2.6,1.6L76.4,126.4z M71.3,123.2c-0.8-0.5-1.7-1.1-2.5-1.6
					l-0.6,0.8c0.8,0.6,1.7,1.1,2.5,1.7L71.3,123.2z M66.4,119.9c-0.8-0.6-1.6-1.2-2.4-1.7l-0.6,0.8c0.8,0.6,1.6,1.2,2.4,1.8
					L66.4,119.9z M61.5,116.4c-0.8-0.6-1.6-1.2-2.4-1.8l-0.6,0.8c0.8,0.6,1.6,1.2,2.4,1.9L61.5,116.4z M56.8,112.6
					c-0.8-0.6-1.5-1.3-2.3-1.9l-0.7,0.8c0.8,0.7,1.5,1.3,2.3,1.9L56.8,112.6z M52.3,108.7c-0.7-0.7-1.5-1.3-2.2-2l-0.7,0.7
					c0.7,0.7,1.5,1.4,2.2,2L52.3,108.7z M48,104.6c-0.7-0.7-1.4-1.4-2.1-2.1l-0.7,0.7c0.7,0.7,1.4,1.4,2.1,2.1L48,104.6z
					 M43.8,100.3c-0.7-0.7-1.3-1.5-2-2.2l-0.7,0.7c0.7,0.8,1.3,1.5,2,2.2L43.8,100.3z M39.9,95.8c-0.6-0.8-1.3-1.5-1.9-2.3l-0.8,0.6
					c0.6,0.8,1.3,1.6,1.9,2.3L39.9,95.8z M36.1,91.2c-0.6-0.8-1.2-1.6-1.8-2.4l-0.8,0.6c0.6,0.8,1.2,1.6,1.8,2.4L36.1,91.2z
					 M32.5,86.3c-0.6-0.8-1.1-1.6-1.7-2.5L30,84.4c0.6,0.8,1.1,1.7,1.7,2.5L32.5,86.3z M29.2,81.4c-0.5-0.8-1.1-1.7-1.6-2.5
					l-0.9,0.5c0.5,0.9,1.1,1.7,1.6,2.5L29.2,81.4z M26,76.3c-0.5-0.9-1-1.7-1.5-2.6l-0.9,0.5c0.5,0.9,1,1.8,1.5,2.6L26,76.3z
					 M23.2,71.1c-0.5-0.9-0.9-1.8-1.4-2.7l-0.9,0.5c0.5,0.9,0.9,1.8,1.4,2.7L23.2,71.1z M20.5,65.8C20,64.9,19.6,64,19.2,63
					l-0.9,0.4c0.4,0.9,0.8,1.8,1.3,2.7L20.5,65.8z M18,60.3c-0.4-0.9-0.8-1.8-1.2-2.8l-0.9,0.4c0.4,0.9,0.8,1.9,1.2,2.8L18,60.3z
					 M15.7,54.8c-0.4-0.9-0.7-1.9-1.1-2.8l-0.9,0.3c0.3,0.9,0.7,1.9,1.1,2.8L15.7,54.8z M13.6,49.1c-0.3-0.9-0.6-1.9-1-2.8l-0.9,0.3
					c0.3,1,0.6,1.9,1,2.8L13.6,49.1z M11.8,43.5c-0.3-0.9-0.6-1.9-0.9-2.9l-1,0.3c0.3,1,0.6,1.9,0.9,2.9L11.8,43.5z M10.1,37.7
					c-0.3-1-0.5-1.9-0.8-2.9l-1,0.2C8.6,36,8.9,37,9.1,38L10.1,37.7z M8.6,31.9c-0.2-1-0.5-1.9-0.7-2.9l-1,0.2c0.2,1,0.4,2,0.7,2.9
					L8.6,31.9z M7.3,26.1c-0.2-1-0.4-2-0.6-2.9l-1,0.2c0.2,1,0.4,2,0.6,2.9L7.3,26.1z M6.1,20.2c-0.2-1-0.3-2-0.5-2.9l-1,0.2
					c0.2,1,0.3,2,0.5,3L6.1,20.2z M5.2,14.3c-0.1-1-0.3-2-0.4-3l-1,0.1c0.1,1,0.3,2,0.4,3L5.2,14.3z"/>
				<circle id="椭圆形" class="st2" cx="4" cy="4" r="4"/>
			</g>
			<g id="编组-20" transform="translate(0.696000, 0.289826)">
				<path id="Fill-1_1_" class="st3" d="M55.7,64H12.3C5.5,64,0,58.2,0,51.2V12.8C0,5.8,5.5,0,12.3,0L21,0.2c1.5,0,3,0.6,4.1,1.6
					l6.5,6.1c1.1,1,2.6,1.6,4.1,1.6h19.9c6.8,0,12.3,5.8,12.3,12.8v29C68,58.2,62.4,64,55.7,64"/>
				<path id="Fill-3" class="st4" d="M52.1,61H16C7.2,61,0,54,0,45.4v-22C0,21.5,1.6,20,3.5,20h61c1.9,0,3.5,1.5,3.5,3.4v22
					C68,54,60.8,61,52.1,61"/>
				<path id="Fill-5" class="st0" d="M56.8,49H11.2C8.9,49,7,47.1,7,44.8V21.2c0-2.3,1.9-4.2,4.2-4.2h45.5c2.3,0,4.2,1.9,4.2,4.2
					v23.5C61,47.1,59.1,49,56.8,49"/>
				<path id="Fill-7" class="st0" d="M57.7,48H11.3C8.9,48,7,46.1,7,43.8V20.2c0-2.3,1.9-4.2,4.3-4.2h46.4c2.4,0,4.3,1.9,4.3,4.2
					v23.5C62,46.1,60.1,48,57.7,48"/>
				<path id="Fill-9" class="st5" d="M55.5,64H12.5C5.6,64,0,58.5,0,51.7V25h68v26.7C68,58.5,62.4,64,55.5,64"/>
				<g id="编组-10" transform="translate(15.000000, 28.000000)">
					<path id="Fill-11" class="st4" d="M30.4,18H8.6C3.9,18,0,14,0,9c0-5,3.9-9,8.6-9h21.7C35.1,0,39,4,39,9C39,14,35.1,18,30.4,18"
						/>
					<g id="编组_1_" transform="translate(7.000000, 3.000000)">
						<path id="Fill-13" class="st0" d="M11.8,9.2c0,0.4-0.2,0.6-0.6,0.6c-0.4,0-1.1-0.5-2.1-1.6c-0.5-0.5-1-1.1-1.4-1.6
							C7.2,6,6.8,5.3,6.4,4.5v4.3h2.1c0.2,0,0.3,0,0.4,0.1C8.9,9,9,9.2,9,9.3c0,0.3-0.2,0.5-0.5,0.5H6.4v1.5c0,0.4-0.2,0.7-0.5,0.7
							c-0.4,0-0.5-0.2-0.5-0.7V9.8h-2C3,9.8,2.8,9.7,2.8,9.3C2.8,9,3,8.8,3.3,8.8h2V4.5C4.5,5.9,3.6,7.1,2.6,8.2
							c-1,1.2-1.7,1.7-2.1,1.7C0.2,9.9,0,9.7,0,9.3c0-0.2,0.1-0.4,0.4-0.6C1.3,8,2.2,7.2,3,6.2c0.8-1,1.4-2,1.8-2.8h-4
							c-0.4,0-0.6-0.2-0.6-0.5s0.2-0.5,0.6-0.5h4.5V0.7C5.3,0.2,5.5,0,5.8,0c0.4,0,0.5,0.2,0.5,0.7v1.7H11c0.4,0,0.6,0.2,0.6,0.5
							S11.4,3.5,11,3.5H6.7c0.4,1,1.1,2,1.9,2.9c0.9,1,1.8,1.7,2.6,2.2C11.6,8.8,11.8,9,11.8,9.2"/>
						<path id="Stroke-15" class="st6" d="M11.8,9.2c0,0.4-0.2,0.6-0.6,0.6c-0.4,0-1.1-0.5-2.1-1.6c-0.5-0.5-1-1.1-1.4-1.6
							C7.2,6,6.8,5.3,6.4,4.5v4.3h2.1c0.2,0,0.3,0,0.4,0.1C8.9,9,9,9.2,9,9.3c0,0.3-0.2,0.5-0.5,0.5H6.4v1.5c0,0.4-0.2,0.7-0.5,0.7
							c-0.4,0-0.5-0.2-0.5-0.7V9.8h-2C3,9.8,2.8,9.7,2.8,9.3C2.8,9,3,8.8,3.3,8.8h2V4.5C4.5,5.9,3.6,7.1,2.6,8.2
							c-1,1.2-1.7,1.7-2.1,1.7C0.2,9.9,0,9.7,0,9.3c0-0.2,0.1-0.4,0.4-0.6C1.3,8,2.2,7.2,3,6.2c0.8-1,1.4-2,1.8-2.8h-4
							c-0.4,0-0.6-0.2-0.6-0.5s0.2-0.5,0.6-0.5h4.5V0.7C5.3,0.2,5.5,0,5.8,0c0.4,0,0.5,0.2,0.5,0.7v1.7H11c0.4,0,0.6,0.2,0.6,0.5
							S11.4,3.5,11,3.5H6.7c0.4,1,1.1,2,1.9,2.9c0.9,1,1.8,1.7,2.6,2.2C11.6,8.8,11.8,9,11.8,9.2z"/>
						<path id="Fill-17" class="st0" d="M19,11.5c-0.7-0.1-1-0.5-1-1.2V5.7c-0.6,0.3-1,0.4-1.1,0.4c-0.1,0-0.2,0-0.3-0.1
							c-0.1-0.1-0.1-0.2-0.1-0.4c0-0.3,0.1-0.4,0.4-0.5L18,4.6V1.7c0-0.4,0.2-0.6,0.5-0.6c0.3,0,0.5,0.2,0.5,0.6v2.5l1.6-0.6v-3
							c0-0.4,0.2-0.6,0.5-0.6c0.3,0,0.5,0.2,0.5,0.6v2.5L23,2.5c0.3-0.1,0.5-0.2,0.6-0.2c0.6,0,0.8,0.4,0.8,1.1v3c0,1.3-0.6,2-1.9,2
							c-0.3,0-0.5-0.2-0.5-0.6c0-0.3,0.2-0.4,0.6-0.5C23,7.3,23.2,7.2,23.3,7c0.1-0.1,0.1-0.3,0.1-0.5V4c0-0.3-0.1-0.4-0.3-0.4
							l-0.2,0l-1.3,0.5V9c0,0.4-0.2,0.6-0.5,0.6c-0.3,0-0.5-0.2-0.5-0.6V4.6L19,5.3V10c0,0.2,0.1,0.4,0.3,0.5c0.2,0.1,1,0.1,2.4,0.1
							c1.1,0,1.7-0.1,1.9-0.2c0.2-0.1,0.3-0.4,0.3-0.7c0-0.3,0.1-0.5,0.2-0.7c0.1-0.1,0.2-0.2,0.4-0.2c0.4,0,0.6,0.2,0.6,0.6
							c0,1-0.2,1.7-0.7,1.9c-0.4,0.2-1.4,0.3-3,0.3C20.2,11.6,19.5,11.6,19,11.5 M13.2,9.7c0-0.2,0-0.3,0.1-0.4
							c0.1-0.1,0.2-0.2,0.4-0.2l1.1-0.3V4.2h-1.1c-0.4,0-0.5-0.2-0.5-0.5c0-0.3,0.2-0.5,0.5-0.5h1.1V0.6c0-0.4,0.2-0.6,0.5-0.6
							c0.3,0,0.5,0.2,0.5,0.6v2.5h0.9c0.4,0,0.6,0.2,0.6,0.5c0,0.3-0.2,0.5-0.6,0.5h-0.9v4.4c0.1,0,0.4-0.1,0.8-0.2
							c0.1,0,0.2,0,0.3,0c0.1,0,0.2,0,0.3,0.1c0.1,0.1,0.1,0.2,0.1,0.3c0,0,0,0.1,0,0.1c0,0.1,0,0.3-0.1,0.3
							c-0.1,0.1-0.2,0.2-0.4,0.2c-1.7,0.6-2.7,0.8-3,0.8C13.4,10.3,13.2,10.1,13.2,9.7"/>
						<path id="Stroke-19" class="st6" d="M19,11.5c-0.7-0.1-1-0.5-1-1.2V5.7c-0.6,0.3-1,0.4-1.1,0.4c-0.1,0-0.2,0-0.3-0.1
							c-0.1-0.1-0.1-0.2-0.1-0.4c0-0.3,0.1-0.4,0.4-0.5L18,4.6V1.7c0-0.4,0.2-0.6,0.5-0.6c0.3,0,0.5,0.2,0.5,0.6v2.5l1.6-0.6v-3
							c0-0.4,0.2-0.6,0.5-0.6c0.3,0,0.5,0.2,0.5,0.6v2.5L23,2.5c0.3-0.1,0.5-0.2,0.6-0.2c0.6,0,0.8,0.4,0.8,1.1v3c0,1.3-0.6,2-1.9,2
							c-0.3,0-0.5-0.2-0.5-0.6c0-0.3,0.2-0.4,0.6-0.5C23,7.3,23.2,7.2,23.3,7c0.1-0.1,0.1-0.3,0.1-0.5V4c0-0.3-0.1-0.4-0.3-0.4
							l-0.2,0l-1.3,0.5V9c0,0.4-0.2,0.6-0.5,0.6c-0.3,0-0.5-0.2-0.5-0.6V4.6L19,5.3V10c0,0.2,0.1,0.4,0.3,0.5c0.2,0.1,1,0.1,2.4,0.1
							c1.1,0,1.7-0.1,1.9-0.2c0.2-0.1,0.3-0.4,0.3-0.7c0-0.3,0.1-0.5,0.2-0.7c0.1-0.1,0.2-0.2,0.4-0.2c0.4,0,0.6,0.2,0.6,0.6
							c0,1-0.2,1.7-0.7,1.9c-0.4,0.2-1.4,0.3-3,0.3C20.2,11.6,19.5,11.6,19,11.5z M13.2,9.7c0-0.2,0-0.3,0.1-0.4
							c0.1-0.1,0.2-0.2,0.4-0.2l1.1-0.3V4.2h-1.1c-0.4,0-0.5-0.2-0.5-0.5c0-0.3,0.2-0.5,0.5-0.5h1.1V0.6c0-0.4,0.2-0.6,0.5-0.6
							c0.3,0,0.5,0.2,0.5,0.6v2.5h0.9c0.4,0,0.6,0.2,0.6,0.5c0,0.3-0.2,0.5-0.6,0.5h-0.9v4.4c0.1,0,0.4-0.1,0.8-0.2
							c0.1,0,0.2,0,0.3,0c0.1,0,0.2,0,0.3,0.1c0.1,0.1,0.1,0.2,0.1,0.3c0,0,0,0.1,0,0.1c0,0.1,0,0.3-0.1,0.3
							c-0.1,0.1-0.2,0.2-0.4,0.2c-1.7,0.6-2.7,0.8-3,0.8C13.4,10.3,13.2,10.1,13.2,9.7z"/>
					</g>
				</g>
				<path id="Fill-21" class="st4" d="M55.5,64H12.5C5.6,64,0,58.3,0,51.3V50h68v1.3C68,58.3,62.4,64,55.5,64"/>
			</g>
			<path id="矩形" class="st7" d="M161.7,212.3h14c7.7,0,14,6.3,14,14v14c0,7.7-6.3,14-14,14h-14c-7.7,0-14-6.3-14-14v-14
				C147.7,218.6,154,212.3,161.7,212.3z"/>
			<path id="开启素材管理之旅" class="st8" d="M88.6,60.9c1.4-0.7,2.4-1.8,3.1-3.1c0.5-1.1,0.8-2.4,0.9-4h4.3v6.9h1.5v-6.9
				h3.4v-1.5h-3.4v-3.8h2.6V47H88.4v1.5h2.8V52c0,0.1,0,0.2,0,0.4h-3.6v1.5h3.5c-0.1,1.1-0.3,2.1-0.6,3c-0.5,1.2-1.3,2.1-2.6,2.9
				L88.6,60.9z M96.9,52.3h-4.2c0-0.1,0-0.2,0-0.4v-3.5h4.2V52.3z M104,61c1.4-2.1,2.1-4.6,2.1-7.6v-0.7h10.4v-4.9h-5.2
				c-0.2-0.7-0.4-1.2-0.6-1.8l-1.6,0.3c0.3,0.5,0.5,1,0.7,1.5h-5.2v5.6c0,2.7-0.6,4.8-1.8,6.5L104,61z M115.1,51.3h-8.9v-2.1h8.9
				V51.3z M108.3,61v-0.8h6.6V61h1.5v-6.4h-9.5V61H108.3z M114.9,58.8h-6.6v-2.8h6.6V58.8z M125.3,61c0.9,0,1.4-0.5,1.4-1.4v-2.4
				c1.1-0.1,2.3-0.1,3.7-0.2c0.3,0.4,0.6,0.7,0.8,1.1l1.1-0.7c-0.6-0.8-1.5-1.8-2.7-2.9l-1,0.6c0.3,0.3,0.6,0.6,0.9,1
				c-2.4,0.2-4.4,0.3-6.1,0.4c2.2-0.7,4.3-1.6,6.5-2.8l-1.2-0.8c-0.6,0.4-1.3,0.8-1.9,1.1c-1.3,0.1-2.5,0.1-3.8,0.2
				c0.8-0.4,1.7-0.9,2.5-1.5h7.3v-1.3h-6.2v-0.8h4.8v-1.2h-4.8v-0.8h5.5v-1.2h-5.5v-1h-1.5v1h-5.5v1.2h5.5v0.8h-4.8v1.2h4.8v0.8H119
				v1.3h4.8c-0.8,0.6-1.5,1-2.1,1.2c-0.3,0.1-0.6,0.2-0.8,0.2l0.3,1.1c1.3-0.1,2.6-0.1,3.8-0.2c-1.4,0.6-2.8,1.1-4.1,1.5
				c-0.3,0-0.5,0-0.8-0.1l0.3,1.2l1.7-0.1c0.8,0,1.9,0,3.3-0.1v2c0,0.3-0.2,0.5-0.4,0.5c-0.4,0-0.9,0-1.3-0.1l0.3,1.3H125.3z
				 M132.2,60.7l0.8-1.2c-1.4-0.8-2.9-1.5-4.5-2l-0.7,1.1C129.3,59.2,130.8,59.9,132.2,60.7z M119.4,60.7c1.8-0.6,3.4-1.3,4.6-2.1
				l-0.8-1c-1.1,0.7-2.6,1.3-4.4,1.8L119.4,60.7z M145.4,60.8c1,0,1.5-0.6,1.5-1.6v-8.4h1.7v-1.5h-1.7v-3h-1.5v3H141v1.5h3.9
				c-1.1,2.8-2.8,5.1-5.2,6.9l0.8,1.4c2.2-1.8,3.8-4.1,4.9-6.8v6.6c0,0.4-0.2,0.6-0.5,0.6c-0.5,0-1.1,0-1.6-0.1l0.4,1.5H145.4z
				 M138.3,60.9V53c0.4,0.5,0.9,1.3,1.5,2.1l0.9-1.3c-0.8-0.9-1.6-1.7-2.4-2.4v-0.8h2v-1.5h-2v-3h-1.5v3h-2.4v1.5h2.4
				c-0.6,1.9-1.5,3.5-2.7,5l0.7,1.7c0.9-1.3,1.6-2.7,2.1-4.3v7.8H138.3z M154,50.2l1.4-0.5c-0.2-0.4-0.4-0.8-0.7-1.2h2.4v-1.3h-4
				c0.1-0.3,0.2-0.5,0.3-0.8l-1.5-0.3c-0.4,1.2-1.1,2.2-2,3.2l1.3,0.8c0.4-0.5,0.8-1,1.2-1.6h0.7C153.4,49.1,153.7,49.6,154,50.2z
				 M151.7,53.5v-1.8h10.8v1.8h1.5v-3.1h-6c-0.1-0.3-0.2-0.7-0.4-0.9l0.8,0.5c0.3-0.4,0.6-0.9,0.9-1.5h0.8c0.4,0.5,0.7,1,0.9,1.5
				l1.3-0.5c-0.2-0.3-0.4-0.7-0.6-1h2.6v-1.3h-4.4c0.1-0.3,0.2-0.5,0.3-0.8l-1.5-0.3c-0.3,1.1-0.9,2.1-1.6,3.1l0.3,0.2l-1.3,0.2
				c0.1,0.3,0.3,0.5,0.4,0.9h-6.2v3.1H151.7z M162.5,60.9v-4.3H154v-0.8h7.8v-3.4h-9.3v8.5h1.5v-0.6h7v0.6H162.5z M160.3,54.6H154
				v-0.9h6.3V54.6z M161,59h-7v-1.2h7V59z M180.1,60.5V59h-4v-1.7h3.5V56H176v-1.6h3.3v-7.6h-8.1v7.6h3.3V56H171v1.4h3.5V59h-4.1
				v1.5H180.1z M165.7,59c1.7-0.4,3.2-0.9,4.7-1.5V56c-0.5,0.2-1,0.4-1.6,0.6v-3.2h1.6V52h-1.6v-3.4h1.8v-1.4h-5.2v1.4h1.8V52h-1.6
				v1.5h1.6v3.7c-0.6,0.2-1.3,0.3-2,0.4L165.7,59z M174.5,49.9h-1.9v-1.8h1.9V49.9z M177.8,49.9H176v-1.8h1.8V49.9z M177.8,53H176
				v-1.8h1.8V53z M174.5,53h-1.9v-1.8h1.9V53z M182.5,60.9c0.9-1.7,1.5-2.5,1.8-2.5c0.2,0,0.5,0.2,0.8,0.5c0.9,1,2.2,1.5,4,1.6
				c0.6,0,1.5,0,2.7,0l3.2,0l0.4-1.5c-1.4,0.1-2.5,0.1-3.3,0.1l-0.2,0c-1.4,0-2.5,0-3.2,0c-1-0.1-1.8-0.4-2.4-1.1
				c3.5-1.9,6.1-4.5,7.9-8v-1.2h-5c-0.4-1-0.9-1.9-1.3-2.7l-1.8,0.3c0.5,0.8,1,1.6,1.4,2.4h-5.3v1.5h10c-1.7,2.8-4.1,5-7.3,6.7
				c0,0-0.1,0-0.1-0.1c-0.2-0.1-0.4-0.1-0.6-0.1c-1,0-2,1.1-3.1,3.2L182.5,60.9z M203.1,51.5c0.6-0.6,1.2-1.3,1.8-2.2h5.9v-1.4h-5.1
				c0.2-0.4,0.4-0.8,0.5-1.3l-1.4-0.6c-0.6,1.9-1.5,3.4-2.7,4.5L203.1,51.5z M197.6,60.9c1.1-1.7,1.8-4.3,1.9-7.9h1.6
				c0,3.2-0.1,5.1-0.2,5.6c-0.1,0.5-0.5,0.8-1.2,0.8c-0.2,0-0.4,0-0.7-0.1l0.4,1.4c0.3,0,0.5,0.1,0.6,0.1c1.4,0,2.1-0.5,2.3-1.5
				c0.2-1,0.3-3.6,0.3-7.7h-3.1v-1.9h3.2v-1.5h-2c-0.2-0.7-0.5-1.4-0.8-2.3l-1.4,0.4c0.3,0.6,0.5,1.2,0.8,1.9h-2.3v1.5h1.2v2.5
				c0,3.5-0.6,6-1.6,7.6L197.6,60.9z M210.4,60.9l1-1.3c-1.1-1-2-2.1-2.6-3.5c0.9-0.5,1.8-1.1,2.4-1.7l-1-1.1
				c-0.5,0.6-1.2,1.1-2,1.5c-0.3-0.8-0.5-1.7-0.6-2.6c0.9-0.2,1.8-0.5,2.7-0.8l-0.8-1.3c-1.8,0.6-3.7,1.1-5.8,1.3v7.4
				c0,0.4-0.1,0.6-0.3,0.7l0.3,1.4c1.6-0.4,2.9-0.7,4-1.1l-0.3-1.4c-0.8,0.2-1.5,0.4-2.3,0.6v-6.4c0.4,0,0.7-0.1,1.1-0.2
				C206.8,56.1,208.2,58.9,210.4,60.9z"/>
			<path id="本地素材" class="st9" d="M137.8,35.4v-3.9h4.1v-2h-4.1v-7.1c1.3,3.5,3.6,6.7,6.9,9.6l1.4-1.8
				c-3.2-2.3-5.4-4.9-6.7-7.9h6v-2h-7.6v-3.4h-2.1v3.4H128v2h6c-1.4,3.2-3.7,5.9-6.8,8l1.2,2c3.3-2.6,5.7-5.8,7.1-9.9v7.1h-3.9v2
				h3.9v3.9H137.8z M163.5,35c0.8,0,1.3-0.2,1.7-0.6c0.4-0.4,0.7-1.6,0.8-3.8l-1.9-0.6c-0.1,1.4-0.2,2.3-0.3,2.6
				c-0.1,0.3-0.4,0.4-0.7,0.4h-5.3c-0.6,0-0.9-0.3-0.9-0.8v-7.1l2.3-0.7v6.6h2v-7.2l2.2-0.7c0,2.2-0.1,3.4-0.1,3.8
				c-0.1,0.4-0.3,0.6-0.6,0.6c-0.3,0-0.7,0-1.1,0l0.6,2h0.1c1.6,0,2.5-0.5,2.8-1.4c0.2-0.9,0.3-3.5,0.3-7.8l-4.2,1.3v-4.9h-2v5.5
				l-2.3,0.7v-4.1h-2v4.8l-1.3,0.4v2l1.3-0.4v6.9c0,1.6,0.8,2.3,2.3,2.3H163.5z M147.8,33.1c2.1-0.6,4.1-1.3,6-2.2v-2.1
				c-0.7,0.3-1.4,0.6-2.1,0.9V24h1.9v-2h-1.9v-5h-2.1v5h-2.1v2h2.1v6.4c-0.8,0.2-1.5,0.4-2.3,0.6L147.8,33.1z M176,35.4
				c1.2,0,1.9-0.6,1.9-1.9v-2.9c1.3-0.1,2.8-0.2,4.5-0.3c0.4,0.4,0.7,0.9,1,1.3l1.5-1c-0.8-1-1.9-2.2-3.3-3.6l-1.4,0.9l1.1,1.1l0,0
				c-2.7,0.2-5.1,0.4-7.1,0.4c2.6-0.9,5.2-2,7.8-3.4l-1.6-1.1c-0.8,0.5-1.6,0.9-2.4,1.4c-1.5,0.1-3,0.1-4.5,0.2c1-0.5,2-1.1,2.9-1.7
				h9.1v-1.7h-7.6v-0.9h5.9v-1.6h-5.9v-0.9h6.7v-1.7h-6.7v-1.2h-2.1v1.2h-6.8v1.7h6.8v0.9h-6v1.6h6v0.9H168v1.7h5.9
				c-0.9,0.7-1.7,1.1-2.4,1.3c-0.4,0.2-0.7,0.3-1.2,0.3l0.4,1.5c1.5-0.1,3-0.1,4.4-0.2c-1.6,0.7-3.1,1.2-4.7,1.7
				c-0.4,0-0.8-0.1-1.1-0.1l0.4,1.7l2.4-0.1c0.9,0,2.2,0,3.8-0.1v2.3c0,0.4-0.2,0.6-0.5,0.6c-0.5,0-1.1,0-1.7-0.1l0.4,1.8H176z
				 M184.6,35.1l1-1.6c-1.7-0.9-3.6-1.7-5.6-2.4l-1,1.5C180.9,33.2,182.8,34.1,184.6,35.1z M168.6,35.1c2.3-0.7,4.2-1.5,5.8-2.6
				l-1.2-1.3c-1.4,0.9-3.2,1.6-5.4,2.2L168.6,35.1z M201.6,35.2c1.3,0,2-0.7,2-2.1V22.6h2.1v-2h-2.1v-3.7h-2.1v3.7H196v2h4.8
				c-1.4,3.4-3.5,6.3-6.4,8.5l1.1,1.9c2.6-2.2,4.6-5,6-8.2v7.7c0,0.5-0.2,0.8-0.6,0.8c-0.6,0-1.3,0-2-0.1l0.5,2H201.6z M192.8,35.3
				v-9.6c0.5,0.7,1.1,1.5,1.7,2.5l1.2-1.8c-1-1.1-2-2-2.9-2.9v-0.9h2.4v-2h-2.4v-3.7h-2.1v3.7h-3v2h2.9c-0.7,2.2-1.8,4.2-3.3,6
				l0.9,2.4c1-1.5,1.8-3.2,2.5-5v9.4H192.8z"/>
			<path id="添加" class="st8" d="M93.2,23.4l1-1c-0.7-0.7-1.5-1.4-2.5-2.1l-1,1C91.7,22.1,92.6,22.8,93.2,23.4z M94.6,29.4
				c1.6-1,2.8-2.1,3.7-3.4c0.1-0.3,0.3-0.5,0.4-0.8h1.4c0.9,1.6,2.4,3,4.5,4l0.7-1.3c-1.6-0.7-2.8-1.6-3.6-2.7h3.1v-1.5h-5.4
				c0.2-0.5,0.3-1.1,0.4-1.7h4.3v-1.4h-9v1.4h3.3c-0.1,0.6-0.2,1.1-0.4,1.7h-3.6v1.5H97c0,0.1-0.1,0.1-0.1,0.2
				c-0.8,1.1-1.9,2-3.3,2.8L94.6,29.4z M92.8,27.5l1.1-1c-0.7-0.8-1.6-1.6-2.6-2.4l-1,1C91.4,26,92.2,26.8,92.8,27.5z M98,35
				c0.9,0,1.4-0.5,1.4-1.6v-5.9H98V33c0,0.4-0.2,0.7-0.5,0.7c-0.4,0-0.8,0-1.3-0.1l0.3,1.4H98z M91.7,34.8c0.7-1.8,1.4-3.7,2-5.7
				l-1.3-0.5c-0.6,1.9-1.3,3.8-2.1,5.6L91.7,34.8z M103.7,34l1.3-0.6c-0.5-1.6-1.1-3.1-1.8-4.6l-1.3,0.4
				C102.5,30.6,103.1,32.2,103.7,34z M95.1,34.2c0.7-1.2,1.4-2.7,1.9-4.3l-1.3-0.6c-0.5,1.6-1.2,2.9-1.9,4L95.1,34.2z M101.4,34.6
				l1.3-0.6c-0.5-1.6-1-3.1-1.7-4.5l-1.3,0.4C100.4,31.2,100.9,32.8,101.4,34.6z M107.3,35c2-2.2,3-5.6,3.1-10.2h1.7
				c0,4.3-0.1,6.8-0.2,7.5c-0.1,0.7-0.5,1.1-1.2,1.1c-0.4,0-0.8,0-1.4-0.1l0.4,1.4c0.6,0,1,0.1,1.2,0.1c1.4,0,2.2-0.6,2.4-1.8
				c0.2-1.2,0.2-4.4,0.2-9.7h-3.2v-3.1H109v3.1h-2.4v1.5h2.4c-0.1,4.2-1,7.3-2.8,9.2L107.3,35z M116.4,34.7v-1h2.5v1h1.5V22.4h-5.5
				v12.3H116.4z M118.9,32.2h-2.5v-8.4h2.5V32.2z"/>
		</g>
	</g>
</g>
</svg>
