<?xml version="1.0" encoding="UTF-8"?>
<svg width="32px" height="32px" viewBox="0 0 32 32" version="1.1" xmlns="http://www.w3.org/2000/svg" xmlns:xlink="http://www.w3.org/1999/xlink">
    <title>导入备份 2</title>
    <defs>
        <polygon id="path-1" points="0 0 18.0228 0 18.0228 15.66 0 15.66"></polygon>
    </defs>
    <g id="2.2" stroke="none" stroke-width="1" fill="none" fill-rule="evenodd">
        <g id="交互状态" transform="translate(-375.000000, -138.000000)">
            <g id="导入备份-2" transform="translate(375.000000, 138.000000)">
                <path d="M11.5374834,-4.66128138e-16 L32,0 L32,0 L32,32 L11.5374834,32 C7.52564907,32 6.070861,31.5822847 4.60419433,30.7979028 C3.13752767,30.0135209 1.98647908,28.8624723 1.20209717,27.3958057 C0.41771525,25.929139 1.80555915e-16,24.4743509 -3.10752092e-16,20.4625166 L3.10752092e-16,11.5374834 C-1.80555915e-16,7.52564907 0.41771525,6.070861 1.20209717,4.60419433 C1.98647908,3.13752767 3.13752767,1.98647908 4.60419433,1.20209717 C6.070861,0.41771525 7.52564907,2.70833872e-16 11.5374834,-4.66128138e-16 Z" id="矩形" fill-opacity="0.7" fill="#6B6D82"></path>
                <g id="编组" transform="translate(7.000000, 7.000000)">
                    <path d="M12.353,0.0400698081 C7.291,2.26806981 7.561,8.47806981 7.561,8.47806981 L10.531,8.54506981 C10.395,5.50806981 11.071,3.01006981 12.893,0.850069808 C13.231,0.445069808 12.826,-0.161930192 12.353,0.0400698081" id="Fill-1" fill="#EBF0FF"></path>
                    <path d="M10.0581,11.1782698 L12.6221,8.61326981 C13.1621,8.07326981 13.1621,7.19526981 12.6221,6.65526981 C12.0821,6.11526981 11.2051,6.11526981 10.6651,6.65526981 L8.1001,9.22026981 C7.5601,9.76126981 7.5601,10.6382698 8.1001,11.1782698 C8.6401,11.7182698 9.4501,11.7182698 10.0581,11.1782698" id="Fill-3" fill="#EBF0FF"></path>
                    <path d="M9.9907,9.22076981 L7.4257,6.65576981 C6.8857,6.11576981 6.0077,6.11576981 5.4677,6.65576981 C4.9277,7.19576981 4.9277,8.07376981 5.4677,8.61376981 L8.0327,11.1787698 C8.5727,11.7187698 9.4497,11.7187698 9.9907,11.1787698 C10.5307,10.6377698 10.5307,9.76076981 9.9907,9.22076981" id="Fill-5" fill="#EBF0FF"></path>
                    <g transform="translate(0.000000, 2.335670)">
                        <mask id="mask-2" fill="white">
                            <use xlink:href="#path-1"></use>
                        </mask>
                        <g id="Clip-8"></g>
                        <path d="M14.9858,15.66 L3.0378,15.66 C1.3498,15.66 -0.0002,14.31 -0.0002,12.623 L-0.0002,3.037 C-0.0002,1.35 1.3498,0 3.0378,0 L5.1308,0 C5.5348,0 5.8728,0.337 5.8728,0.742 C5.8728,1.147 5.5348,1.485 5.1308,1.485 L3.0378,1.485 C2.1598,1.485 1.4848,2.16 1.4848,3.037 L1.4848,12.623 C1.4848,13.5 2.1598,14.176 3.0378,14.176 L14.9858,14.176 C15.8628,14.176 16.5388,13.5 16.5388,12.623 L16.5388,3.037 C16.5388,2.16 15.8628,1.485 14.9858,1.485 L14.5808,1.485 C14.1748,1.485 13.8388,1.147 13.8388,0.742 C13.8388,0.337 14.1748,0 14.5808,0 L14.9858,0 C16.6728,0 18.0228,1.35 18.0228,3.037 L18.0228,12.623 C18.0228,14.31 16.6728,15.66 14.9858,15.66" id="Fill-7" fill="#EBF0FF" mask="url(#mask-2)"></path>
                    </g>
                </g>
            </g>
        </g>
    </g>
</svg>