<?xml version="1.0" encoding="UTF-8"?>
<svg width="94px" height="35px" viewBox="0 0 94 35" version="1.1" xmlns="http://www.w3.org/2000/svg" xmlns:xlink="http://www.w3.org/1999/xlink">
    <title>编组 10</title>
    <g id="2.2" stroke="none" stroke-width="1" fill="none" fill-rule="evenodd">
        <g id="导入hover" transform="translate(-819.000000, -622.000000)">
            <g id="编组-10" transform="translate(819.000000, 622.000000)">
                <path d="M19.069186,1 C19.6832092,1 20.2552964,1.22272287 20.588457,1.59147697 L24.258,5.658 L87,5.658455 C90.3137085,5.658455 93,8.3447465 93,11.658455 L93,27.658455 C93,30.9721635 90.3137085,33.658455 87,33.658455 L7,33.658455 C3.6862915,33.658455 1,30.9721635 1,27.658455 L1,11.658455 C1,8.3447465 3.6862915,5.658455 7,5.658455 L13.879,5.658 L17.5499151,1.59147697 C17.8830757,1.22272287 18.4551629,1 19.069186,1 Z" id="形状结合" fill="#1C1D31"></path>
                <path d="M18.8664738,0.00580452171 C18.059288,0.052122597 17.3019845,0.374223354 16.8079049,0.921088315 L13.433,4.658 L6.99993386,4.658455 C3.13400675,4.658455 0,7.79246175 0,11.658455 L0,27.658455 C0,31.5244482 3.13400675,34.658455 7,34.658455 L87,34.658455 C90.8659932,34.658455 94,31.5244482 94,27.658455 L94,11.658455 L93.995941,11.4178052 C93.8690987,7.66323838 90.7854517,4.658455 87,4.658455 L24.702,4.658 L21.3308725,0.921537207 C20.7952143,0.328651274 19.9510388,0 19.069186,0 L18.8664738,0.00580452171 Z M19.069186,1 C19.6832092,1 20.2552964,1.22272287 20.588457,1.59147697 L24.258,5.658 L87,5.658455 C90.3137085,5.658455 93,8.3447465 93,11.658455 L93,27.658455 C93,30.9721635 90.3137085,33.658455 87,33.658455 L7,33.658455 C3.6862915,33.658455 1,30.9721635 1,27.658455 L1,11.658455 C1,8.3447465 3.6862915,5.658455 7,5.658455 L13.879,5.658 L17.5499151,1.59147697 C17.8830757,1.22272287 18.4551629,1 19.069186,1 Z" id="形状结合" fill="#303642" fill-rule="nonzero"></path>
            </g>
        </g>
    </g>
</svg>