<?xml version="1.0" encoding="UTF-8"?>
<svg width="16px" height="16px" viewBox="0 0 16 16" version="1.1" xmlns="http://www.w3.org/2000/svg" xmlns:xlink="http://www.w3.org/1999/xlink">
    <title>Fill 8</title>
    <g id="2.6.3" stroke="none" stroke-width="1" fill="none" fill-rule="evenodd">
        <g id="主菜单优化交互规范" transform="translate(-354.000000, -231.000000)" fill="#E0E7FA">
            <path d="M362.802,231 C363.161,231 363.452,231.291 363.452,231.65 C363.452,232.009 363.161,232.3 362.802,232.3 L362.802,232.3 L357.578,232.3 C356.322,232.3 355.301,233.322 355.301,234.578 L355.301,234.578 L355.301,243.415 C355.301,244.671 356.322,245.693 357.578,245.693 L357.578,245.693 L366.415,245.693 C367.671,245.693 368.693,244.671 368.693,243.415 L368.693,243.415 L368.693,238.191 C368.693,237.832 368.984,237.541 369.343,237.541 C369.702,237.541 369.993,237.832 369.993,238.191 L369.993,238.191 L369.993,243.415 C369.993,245.388 368.388,246.993 366.415,246.993 L366.415,246.993 L357.578,246.993 C355.606,246.993 354,245.388 354,243.415 L354,243.415 L354,234.578 C354,232.605 355.606,231 357.578,231 L357.578,231 Z M368.0337,231.8459 C368.3457,231.5329 368.8517,231.5339 369.1647,231.8449 C369.4767,232.1579 369.4767,232.6649 369.1647,232.9769 L369.1647,232.9769 L363.0257,239.1159 L364.6087,239.1159 C365.0497,239.1159 365.4087,239.4739 365.4087,239.9159 C365.4087,240.3579 365.0497,240.7149 364.6087,240.7149 L364.6087,240.7149 L361.0947,240.7149 C360.9907,240.7149 360.8867,240.6939 360.7897,240.6539 C360.7027,240.6179 360.6257,240.5629 360.5577,240.4999 L360.5577,240.4999 L360.5297,240.4819 L360.5297,240.4819 L360.5157,240.4619 C360.4507,240.3919 360.3947,240.3119 360.3567,240.2219 C360.3167,240.1239 360.2947,240.0199 360.2947,239.9159 L360.2947,239.9159 L360.2947,236.4019 C360.2947,235.9599 360.6537,235.6019 361.0947,235.6019 C361.5367,235.6019 361.8947,235.9599 361.8947,236.4019 L361.8947,236.4019 L361.8947,237.9849 Z" id="Fill-8"></path>
        </g>
    </g>
</svg>