<?xml version="1.0" encoding="UTF-8"?>
<svg width="25px" height="30px" viewBox="0 0 25 30" version="1.1" xmlns="http://www.w3.org/2000/svg" xmlns:xlink="http://www.w3.org/1999/xlink">
    <!-- Generator: Sketch 61 (89581) - https://sketch.com -->
    <title>import_shear_select</title>
    <desc>Created with Sketch.</desc>
    <g id="图标" stroke="none" stroke-width="1" fill="none" fill-rule="evenodd">
        <g id="切图" transform="translate(-288.000000, -472.000000)" fill="#FFFFFF" fill-rule="nonzero">
            <path d="M307.635248,491.233303 C310.438482,491.233303 312.696643,493.569332 312.696643,496.450434 C312.696643,499.331536 310.438482,501.589697 307.635248,501.589697 C304.832013,501.589697 302.573852,499.253669 302.573852,496.372567 C302.573852,493.491465 304.832013,491.233303 307.635248,491.233303 Z M293.307605,491.233303 C296.110839,491.233303 298.369,493.569332 298.369,496.450434 C298.369,499.331536 296.110839,501.589697 293.307605,501.589697 C290.50437,501.589697 288.246209,499.253669 288.246209,496.372567 C288.246209,493.491465 290.50437,491.233303 293.307605,491.233303 Z M307.635248,493.802935 C306.233631,493.802935 305.065616,494.970949 305.065616,496.372567 C305.065616,497.852051 306.233631,499.020066 307.635248,499.020066 C309.036865,499.020066 310.204879,497.852051 310.204879,496.372567 C310.204879,494.893082 309.036865,493.802935 307.635248,493.802935 Z M293.307605,493.802935 C291.905988,493.802935 290.737973,494.970949 290.737973,496.372567 C290.815841,497.852051 291.905988,499.020066 293.307605,499.020066 C294.709222,499.020066 295.877236,497.852051 295.877236,496.372567 C295.877236,494.893082 294.709222,493.802935 293.307605,493.802935 Z M311.372894,472 C311.372894,472 314.721202,475.971249 311.528629,480.253968 C308.336056,484.45882 300.471426,493.102126 300.471426,493.102126 C300.471426,493.102126 292.606796,484.536688 289.414224,480.253968 C286.143783,475.971249 289.569959,472 289.569959,472 L289.569959,472 L300.471426,485.237496 Z M300.471426,486.872716 C299.614882,486.872716 298.836206,487.651393 298.836206,488.585804 C298.836206,489.520216 299.537015,490.298892 300.471426,490.298892 C301.405838,490.298892 302.106646,489.520216 302.106646,488.585804 C302.106646,487.651393 301.405838,486.872716 300.471426,486.872716 Z" id="import_shear_select"></path>
        </g>
    </g>
</svg>