<?xml version="1.0" encoding="UTF-8"?>
<svg width="28px" height="28px" viewBox="0 0 28 28" version="1.1" xmlns="http://www.w3.org/2000/svg" xmlns:xlink="http://www.w3.org/1999/xlink">
    <!-- Generator: Sketch 61 (89581) - https://sketch.com -->
    <title>import_copy_normal</title>
    <desc>Created with Sketch.</desc>
    <g id="图标" stroke="none" stroke-width="1" fill="none" fill-rule="evenodd">
        <g id="切图" transform="translate(-341.000000, -517.000000)" fill="#A2ABC3" fill-rule="nonzero">
            <g id="import_copy_normal" transform="translate(341.000000, 517.000000)">
                <path d="M22.7794471,-5.32907052e-14 C25.567399,-5.32907052e-14 27.827524,2.260125 27.827524,5.04807692 L27.827524,18.2992788 C27.827524,20.9051842 25.8529238,23.0499438 23.3183528,23.3189281 C23.3377554,23.1406125 23.3473558,22.9611508 23.3473558,22.7794471 L23.3473558,22.7794471 L23.3473558,9.52824519 C23.3473558,6.74029327 21.0872308,4.48016827 18.2992788,4.48016827 L18.2992788,4.48016827 L5.04807692,4.48016827 C4.86620904,4.48016827 4.68658728,4.48978603 4.50969252,4.50854067 C4.77758023,1.97460023 6.92233981,-5.32907052e-14 9.52824519,-5.32907052e-14 L22.7794471,-5.32907052e-14 Z" id="形状结合" opacity="0.600000024"></path>
                <path d="M18.2992788,4.48016827 C21.0872308,4.48016827 23.3473558,6.74029327 23.3473558,9.52824519 L23.3473558,22.7794471 C23.3473558,25.567399 21.0872308,27.827524 18.2992788,27.827524 L5.04807692,27.827524 C2.260125,27.827524 -2.9096725e-12,25.567399 -2.9096725e-12,22.7794471 L-2.9096725e-12,9.52824519 C-2.9096725e-12,6.74029327 2.260125,4.48016827 5.04807692,4.48016827 L18.2992788,4.48016827 Z M11.67,8.93 C10.9796441,8.93 10.42,9.48964406 10.42,10.18 L10.42,10.18 L10.42,14.679 L5.92,14.68 C5.22964406,14.68 4.67,15.2396441 4.67,15.93 C4.67,16.6203559 5.22964406,17.18 5.92,17.18 L5.92,17.18 L10.419,17.179 L10.42,21.68 C10.42,22.3703559 10.9796441,22.93 11.67,22.93 C12.3603559,22.93 12.92,22.3703559 12.92,21.68 L12.92,21.68 L12.919,17.179 L17.42,17.18 C18.1103559,17.18 18.67,16.6203559 18.67,15.93 C18.67,15.2396441 18.1103559,14.68 17.42,14.68 L17.42,14.68 L12.92,14.679 L12.92,10.18 C12.92,9.48964406 12.3603559,8.93 11.67,8.93 Z" id="路径-2"></path>
            </g>
        </g>
    </g>
</svg>