<?xml version="1.0" encoding="UTF-8"?>
<svg width="28px" height="28px" viewBox="0 0 28 28" version="1.1" xmlns="http://www.w3.org/2000/svg" xmlns:xlink="http://www.w3.org/1999/xlink">
    <!-- Generator: Sketch 61 (89581) - https://sketch.com -->
    <title>import_index_normal</title>
    <desc>Created with Sketch.</desc>
    <g id="图标" stroke="none" stroke-width="1" fill="none" fill-rule="evenodd">
        <g id="切图" transform="translate(-397.000000, -514.000000)" fill="#A2ABC3" fill-rule="nonzero">
            <path d="M405.024904,525.89777 C405.726529,525.89777 406.399383,526.17665 406.895286,526.672993 L408.495923,528.272144 L405.181698,531.586369 C404.78558,531.979864 404.630135,532.55515 404.774169,533.094597 C404.918203,533.634043 405.339722,534.055278 405.879266,534.198949 C406.418809,534.342619 406.99399,534.186787 407.387218,533.790403 L410.701443,530.476178 L412.276815,532.053036 C412.772704,532.548879 413.051295,533.221414 413.051295,533.922675 C413.051295,534.623935 412.772704,535.29647 412.276815,535.792314 L406.895286,541.173843 C406.399443,541.669731 405.726908,541.948322 405.025647,541.948322 C404.324387,541.948322 403.651852,541.669731 403.156008,541.173843 L397.77448,535.792314 C397.278591,535.29647 397,534.623935 397,533.922675 C397,533.221414 397.278591,532.548879 397.77448,532.053036 L403.154522,526.672993 C403.650426,526.17665 404.323279,525.89777 405.024904,525.89777 Z M416.922675,514 C417.623935,514 418.29647,514.278591 418.792314,514.77448 L418.792314,514.77448 L424.173843,520.156008 C424.669731,520.651852 424.948322,521.324387 424.948322,522.025647 C424.948322,522.726908 424.669731,523.399443 424.173843,523.895286 L424.173843,523.895286 L418.792314,529.276815 C418.29647,529.772703 417.623935,530.051294 416.922675,530.051294 C416.221414,530.051294 415.548879,529.772703 415.053036,529.276815 L415.053036,529.276815 L413.476178,527.701443 L416.790403,524.387218 C417.395644,523.777943 417.394175,522.793933 416.787118,522.186466 C416.180061,521.579 415.196053,521.576868 414.586369,522.181698 L414.586369,522.181698 L411.272144,525.495923 L409.672993,523.895286 C409.177105,523.399443 408.898514,522.726908 408.898514,522.025647 C408.898514,521.324387 409.177105,520.651852 409.672993,520.156008 L409.672993,520.156008 L415.053036,514.77448 C415.548879,514.278591 416.221414,514 416.922675,514 Z" id="import_index_normal"></path>
        </g>
    </g>
</svg>