<?xml version="1.0" encoding="UTF-8"?>
<svg width="82px" height="32px" viewBox="0 0 82 32" version="1.1" xmlns="http://www.w3.org/2000/svg" xmlns:xlink="http://www.w3.org/1999/xlink">
    <title>导入-悬浮状态备份</title>
    <defs>
        <polygon id="path-1" points="0 0 18.0228 0 18.0228 15.66 0 15.66"></polygon>
    </defs>
    <g id="2.2" stroke="none" stroke-width="1" fill="none" fill-rule="evenodd">
        <g id="交互状态" transform="translate(-350.000000, -211.000000)">
            <g id="导入-悬浮状态备份" transform="translate(350.000000, 211.000000)">
                <path d="M11.5374834,-4.66128138e-16 L82,0 L82,0 L82,32 L11.5374834,32 C7.52564907,32 6.070861,31.5822847 4.60419433,30.7979028 C3.13752767,30.0135209 1.98647908,28.8624723 1.20209717,27.3958057 C0.41771525,25.929139 1.80555915e-16,24.4743509 -3.10752092e-16,20.4625166 L3.10752092e-16,11.5374834 C-1.80555915e-16,7.52564907 0.41771525,6.070861 1.20209717,4.60419433 C1.98647908,3.13752767 3.13752767,1.98647908 4.60419433,1.20209717 C6.070861,0.41771525 7.52564907,2.70833872e-16 11.5374834,-4.66128138e-16 Z" id="矩形" fill-opacity="0.7" fill="#454758"></path>
                <path d="M39.02,16.2599 C39.56,16.2359 39.908,16.0439 40.064,15.6599 C40.148,15.4199 40.232,15.0359 40.304,14.4839 L39.224,14.1359 C39.176,14.6159 39.116,14.9039 39.056,14.9999 C38.984,15.1199 38.852,15.1919 38.66,15.2039 L32.384,15.2039 C32.036,15.2039 31.868,15.0359 31.868,14.7119 L31.868,14.0999 L38.72,14.0999 L38.72,11.0519 L30.716,11.0519 L30.716,15.1559 C30.716,15.8879 31.124,16.2599 31.94,16.2599 L39.02,16.2599 Z M37.58,13.0679 L31.868,13.0679 L31.868,12.0839 L37.58,12.0839 L37.58,13.0679 Z M36.656,21.7679 C37.472,21.7679 37.892,21.3839 37.892,20.6279 L37.892,18.3119 L40.484,18.3119 L40.484,17.2079 L37.892,17.2079 L37.892,16.5959 L36.74,16.5959 L36.74,17.2079 L29.504,17.2079 L29.504,18.3119 L36.74,18.3119 L36.74,20.3519 C36.74,20.5919 36.572,20.7239 36.26,20.7239 C35.828,20.7239 35.36,20.6999 34.88,20.6519 L35.144,21.7679 L36.656,21.7679 Z M33.62,21.1439 L34.484,20.2919 C33.944,19.6799 33.284,19.0679 32.504,18.4559 L31.688,19.2479 C32.516,19.9199 33.164,20.5559 33.62,21.1439 Z M42.092,21.5759 C44.516,19.9919 46.136,17.7479 46.952,14.8439 C46.976,14.9159 47,14.9879 47.036,15.0719 C48.308,18.2759 49.88,20.4359 51.764,21.5639 L52.472,20.6639 C50.648,19.4879 49.172,17.5079 48.032,14.6999 C47.252,12.7079 46.364,11.3639 45.356,10.6559 L44.408,11.2559 C45.164,11.7959 45.812,12.5519 46.34,13.5239 C45.548,16.5959 43.904,18.9599 41.408,20.6039 L42.092,21.5759 Z M58.556,21.7439 C59.264,21.7439 59.624,21.3839 59.624,20.6639 L59.624,18.8879 C60.44,18.8399 61.364,18.7799 62.408,18.7079 C62.636,18.9719 62.84,19.2359 63.032,19.4999 L63.836,18.9479 C63.368,18.3239 62.696,17.5919 61.82,16.7639 L61.04,17.2439 C61.28,17.4839 61.508,17.7239 61.748,17.9639 C59.984,18.1079 58.472,18.2039 57.2,18.2519 C58.832,17.7239 60.452,17.0159 62.06,16.1279 L61.184,15.5519 C60.704,15.8399 60.224,16.1159 59.744,16.3799 C58.796,16.4279 57.848,16.4639 56.912,16.4999 C57.536,16.1879 58.16,15.8159 58.76,15.3719 L64.208,15.3719 L64.208,14.4239 L59.588,14.4239 L59.588,13.8239 L63.176,13.8239 L63.176,12.9359 L59.588,12.9359 L59.588,12.3239 L63.68,12.3239 L63.68,11.3999 L59.588,11.3999 L59.588,10.6319 L58.46,10.6319 L58.46,11.3999 L54.32,11.3999 L54.32,12.3239 L58.46,12.3239 L58.46,12.9359 L54.824,12.9359 L54.824,13.8239 L58.46,13.8239 L58.46,14.4239 L53.804,14.4239 L53.804,15.3719 L57.44,15.3719 C56.816,15.8159 56.288,16.1159 55.856,16.2599 C55.652,16.3559 55.436,16.4039 55.22,16.4279 L55.412,17.2439 C56.396,17.1959 57.344,17.1599 58.244,17.1119 C57.212,17.5559 56.18,17.9159 55.136,18.2039 C54.92,18.1799 54.728,18.1679 54.536,18.1439 L54.764,19.0799 L56.06,19.0319 C56.66,19.0319 57.476,18.9959 58.52,18.9479 L58.52,20.4239 C58.52,20.6639 58.4,20.7959 58.184,20.7959 C57.872,20.7959 57.536,20.7719 57.188,20.7359 L57.416,21.7439 L58.556,21.7439 Z M63.752,21.5879 L64.316,20.7239 C63.284,20.1359 62.156,19.6319 60.92,19.2239 L60.38,20.0159 C61.532,20.3999 62.66,20.9279 63.752,21.5879 Z M54.116,21.5519 C55.484,21.1319 56.648,20.6039 57.584,19.9799 L56.948,19.2599 C56.096,19.8119 55.004,20.2679 53.672,20.6159 L54.116,21.5519 Z M73.916,21.5999 C74.684,21.5999 75.068,21.1799 75.068,20.3639 L75.068,14.0279 L76.352,14.0279 L76.352,12.9359 L75.068,12.9359 L75.068,10.6559 L73.94,10.6559 L73.94,12.9359 L70.592,12.9359 L70.592,14.0279 L73.52,14.0279 C72.704,16.1399 71.408,17.8679 69.632,19.2359 L70.244,20.2679 C71.876,18.8879 73.112,17.1839 73.94,15.1559 L73.94,20.0759 C73.94,20.3879 73.796,20.5559 73.532,20.5559 C73.148,20.5559 72.74,20.5319 72.32,20.4959 L72.584,21.5999 L73.916,21.5999 Z M68.624,21.6839 L68.624,15.7919 C68.936,16.1999 69.32,16.7399 69.764,17.3879 L70.424,16.3919 C69.812,15.7199 69.212,15.1079 68.624,14.5799 L68.624,14.0039 L70.124,14.0039 L70.124,12.9119 L68.624,12.9119 L68.624,10.6679 L67.496,10.6679 L67.496,12.9119 L65.66,12.9119 L65.66,14.0039 L67.424,14.0039 C67.004,15.3959 66.332,16.6439 65.408,17.7239 L65.924,19.0319 C66.572,18.0719 67.088,17.0039 67.496,15.8399 L67.496,21.6839 L68.624,21.6839 Z" id="导入素材" fill="#EBF0FF" fill-rule="nonzero"></path>
                <g id="编组" transform="translate(7.000000, 7.195900)">
                    <path d="M12.353,0.0400698081 C7.291,2.26806981 7.561,8.47806981 7.561,8.47806981 L10.531,8.54506981 C10.395,5.50806981 11.071,3.01006981 12.893,0.850069808 C13.231,0.445069808 12.826,-0.161930192 12.353,0.0400698081" id="Fill-1" fill="#EBF0FF"></path>
                    <path d="M10.0581,11.1782698 L12.6221,8.61326981 C13.1621,8.07326981 13.1621,7.19526981 12.6221,6.65526981 C12.0821,6.11526981 11.2051,6.11526981 10.6651,6.65526981 L8.1001,9.22026981 C7.5601,9.76126981 7.5601,10.6382698 8.1001,11.1782698 C8.6401,11.7182698 9.4501,11.7182698 10.0581,11.1782698" id="Fill-3" fill="#EBF0FF"></path>
                    <path d="M9.9907,9.22076981 L7.4257,6.65576981 C6.8857,6.11576981 6.0077,6.11576981 5.4677,6.65576981 C4.9277,7.19576981 4.9277,8.07376981 5.4677,8.61376981 L8.0327,11.1787698 C8.5727,11.7187698 9.4497,11.7187698 9.9907,11.1787698 C10.5307,10.6377698 10.5307,9.76076981 9.9907,9.22076981" id="Fill-5" fill="#EBF0FF"></path>
                    <g transform="translate(0.000000, 2.335670)">
                        <mask id="mask-2" fill="white">
                            <use xlink:href="#path-1"></use>
                        </mask>
                        <g id="Clip-8"></g>
                        <path d="M14.9858,15.66 L3.0378,15.66 C1.3498,15.66 -0.0002,14.31 -0.0002,12.623 L-0.0002,3.037 C-0.0002,1.35 1.3498,0 3.0378,0 L5.1308,0 C5.5348,0 5.8728,0.337 5.8728,0.742 C5.8728,1.147 5.5348,1.485 5.1308,1.485 L3.0378,1.485 C2.1598,1.485 1.4848,2.16 1.4848,3.037 L1.4848,12.623 C1.4848,13.5 2.1598,14.176 3.0378,14.176 L14.9858,14.176 C15.8628,14.176 16.5388,13.5 16.5388,12.623 L16.5388,3.037 C16.5388,2.16 15.8628,1.485 14.9858,1.485 L14.5808,1.485 C14.1748,1.485 13.8388,1.147 13.8388,0.742 C13.8388,0.337 14.1748,0 14.5808,0 L14.9858,0 C16.6728,0 18.0228,1.35 18.0228,3.037 L18.0228,12.623 C18.0228,14.31 16.6728,15.66 14.9858,15.66" id="Fill-7" fill="#EBF0FF" mask="url(#mask-2)"></path>
                    </g>
                </g>
            </g>
        </g>
    </g>
</svg>