<?xml version="1.0" encoding="UTF-8"?>
<svg width="28px" height="28px" viewBox="0 0 28 28" version="1.1" xmlns="http://www.w3.org/2000/svg" xmlns:xlink="http://www.w3.org/1999/xlink">
    <!-- Generator: Sketch 61 (89581) - https://sketch.com -->
    <title>import_index_select</title>
    <desc>Created with Sketch.</desc>
    <g id="图标" stroke="none" stroke-width="1" fill="none" fill-rule="evenodd">
        <g id="切图" transform="translate(-395.000000, -474.000000)" fill="#FFFFFF" fill-rule="nonzero">
            <path d="M403.024904,485.89777 C403.726529,485.89777 404.399383,486.17665 404.895286,486.672993 L406.495923,488.272144 L403.181698,491.586369 C402.78558,491.979864 402.630135,492.55515 402.774169,493.094597 C402.918203,493.634043 403.339722,494.055278 403.879266,494.198949 C404.418809,494.342619 404.99399,494.186787 405.387218,493.790403 L408.701443,490.476178 L410.276815,492.053036 C410.772704,492.548879 411.051295,493.221414 411.051295,493.922675 C411.051295,494.623935 410.772704,495.29647 410.276815,495.792314 L404.895286,501.173843 C404.399443,501.669731 403.726908,501.948322 403.025647,501.948322 C402.324387,501.948322 401.651852,501.669731 401.156008,501.173843 L395.77448,495.792314 C395.278591,495.29647 395,494.623935 395,493.922675 C395,493.221414 395.278591,492.548879 395.77448,492.053036 L401.154522,486.672993 C401.650426,486.17665 402.323279,485.89777 403.024904,485.89777 Z M414.922675,474 C415.623935,474 416.29647,474.278591 416.792314,474.77448 L416.792314,474.77448 L422.173843,480.156008 C422.669731,480.651852 422.948322,481.324387 422.948322,482.025647 C422.948322,482.726908 422.669731,483.399443 422.173843,483.895286 L422.173843,483.895286 L416.792314,489.276815 C416.29647,489.772703 415.623935,490.051294 414.922675,490.051294 C414.221414,490.051294 413.548879,489.772703 413.053036,489.276815 L413.053036,489.276815 L411.476178,487.701443 L414.790403,484.387218 C415.395644,483.777943 415.394175,482.793933 414.787118,482.186466 C414.180061,481.579 413.196053,481.576868 412.586369,482.181698 L412.586369,482.181698 L409.272144,485.495923 L407.672993,483.895286 C407.177105,483.399443 406.898514,482.726908 406.898514,482.025647 C406.898514,481.324387 407.177105,480.651852 407.672993,480.156008 L407.672993,480.156008 L413.053036,474.77448 C413.548879,474.278591 414.221414,474 414.922675,474 Z" id="import_index_select"></path>
        </g>
    </g>
</svg>