<?xml version="1.0" standalone="no"?><!DOCTYPE svg PUBLIC "-//W3C//DTD SVG 1.1//EN" "http://www.w3.org/Graphics/SVG/1.1/DTD/svg11.dtd"><svg t="1637319821479" class="icon" viewBox="0 0 1024 1024" version="1.1" xmlns="http://www.w3.org/2000/svg" p-id="1351" xmlns:xlink="http://www.w3.org/1999/xlink" width="200" height="200"><defs><style type="text/css"></style></defs><path d="M512 512m-470.804598 0a470.804598 470.804598 0 1 0 941.609196 0 470.804598 470.804598 0 1 0-941.609196 0Z" fill="#3267EA" p-id="1352"></path><path d="M608.122605 227.555556c-147.126437 64.735632-139.279693 245.210728-139.279693 245.210728l86.314176 1.961685c-3.923372-88.275862 15.693487-160.858238 68.659004-223.632184 9.808429-11.770115-1.961686-29.425287-15.693487-23.540229z" fill="#FFFFFF" p-id="1353"></path><path d="M541.425287 551.233716l74.544062-74.544061c15.693487-15.693487 15.693487-41.195402 0-56.888889-15.693487-15.693487-41.195402-15.693487-56.888889 0l-74.544062 74.544062c-15.693487 15.693487-15.693487 41.195402 0 56.888888 15.693487 15.693487 39.233716 15.693487 56.888889 0z" fill="#FFFFFF" p-id="1354"></path><path d="M539.463602 494.344828l-74.544062-74.544062c-15.693487-15.693487-41.195402-15.693487-56.888889 0-15.693487 15.693487-15.693487 41.195402 0 56.888889l74.544062 74.544061c15.693487 15.693487 41.195402 15.693487 56.888889 0 15.693487-15.693487 15.693487-41.195402 0-56.888888z" fill="#FFFFFF" p-id="1355"></path><path d="M684.628352 749.363985H337.409962c-49.042146 0-88.275862-39.233716-88.275862-88.275862V382.528736c0-49.042146 39.233716-88.275862 88.275862-88.275862h60.81226c11.770115 0 21.578544 9.808429 21.578544 21.578544s-9.808429 21.578544-21.578544 21.578544h-60.81226c-25.501916 0-45.118774 19.616858-45.118774 45.118774v278.559387c0 25.501916 19.616858 45.118774 45.118774 45.118774h347.21839c25.501916 0 45.118774-19.616858 45.118774-45.118774V382.528736c0-25.501916-19.616858-45.118774-45.118774-45.118774h-11.770114c-11.770115 0-21.578544-9.808429-21.578545-21.578544s9.808429-21.578544 21.578545-21.578544h11.770114c49.042146 0 88.275862 39.233716 88.275863 88.275862v278.559387c0 49.042146-39.233716 88.275862-88.275863 88.275862z" fill="#FFFFFF" p-id="1356"></path><path d="M512 1008.306513C237.363985 1008.306513 15.693487 784.67433 15.693487 512S237.363985 15.693487 512 15.693487C784.67433 15.693487 1008.306513 237.363985 1008.306513 512 1008.306513 784.67433 784.67433 1008.306513 512 1008.306513z m0-957.302682c-255.019157 0-460.996169 205.977011-460.996169 460.996169s205.977011 460.996169 460.996169 460.996169S972.996169 765.057471 972.996169 512 765.057471 51.003831 512 51.003831z" fill="#CADCFF" p-id="1357"></path></svg>