<?xml version="1.0" encoding="UTF-8"?>
<svg width="25px" height="30px" viewBox="0 0 25 30" version="1.1" xmlns="http://www.w3.org/2000/svg" xmlns:xlink="http://www.w3.org/1999/xlink">
    <!-- Generator: Sketch 61 (89581) - https://sketch.com -->
    <title>import_shear_normal</title>
    <desc>Created with Sketch.</desc>
    <g id="图标" stroke="none" stroke-width="1" fill="none" fill-rule="evenodd">
        <g id="切图" transform="translate(-288.000000, -513.000000)" fill="#A2ABC3" fill-rule="nonzero">
            <path d="M307.635248,532.233303 C310.438482,532.233303 312.696643,534.569332 312.696643,537.450434 C312.696643,540.331536 310.438482,542.589697 307.635248,542.589697 C304.832013,542.589697 302.573852,540.253669 302.573852,537.372567 C302.573852,534.491465 304.832013,532.233303 307.635248,532.233303 Z M293.307605,532.233303 C296.110839,532.233303 298.369,534.569332 298.369,537.450434 C298.369,540.331536 296.110839,542.589697 293.307605,542.589697 C290.50437,542.589697 288.246209,540.253669 288.246209,537.372567 C288.246209,534.491465 290.50437,532.233303 293.307605,532.233303 Z M307.635248,534.802935 C306.233631,534.802935 305.065616,535.970949 305.065616,537.372567 C305.065616,538.852051 306.233631,540.020066 307.635248,540.020066 C309.036865,540.020066 310.204879,538.852051 310.204879,537.372567 C310.204879,535.893082 309.036865,534.802935 307.635248,534.802935 Z M293.307605,534.802935 C291.905988,534.802935 290.737973,535.970949 290.737973,537.372567 C290.815841,538.852051 291.905988,540.020066 293.307605,540.020066 C294.709222,540.020066 295.877236,538.852051 295.877236,537.372567 C295.877236,535.893082 294.709222,534.802935 293.307605,534.802935 Z M311.372894,513 C311.372894,513 314.721202,516.971249 311.528629,521.253968 C308.336056,525.45882 300.471426,534.102126 300.471426,534.102126 C300.471426,534.102126 292.606796,525.536688 289.414224,521.253968 C286.143783,516.971249 289.569959,513 289.569959,513 L289.569959,513 L300.471426,526.237496 Z M300.471426,527.872716 C299.614882,527.872716 298.836206,528.651393 298.836206,529.585804 C298.836206,530.520216 299.537015,531.298892 300.471426,531.298892 C301.405838,531.298892 302.106646,530.520216 302.106646,529.585804 C302.106646,528.651393 301.405838,527.872716 300.471426,527.872716 Z" id="import_shear_normal"></path>
        </g>
    </g>
</svg>