<?xml version="1.0" encoding="UTF-8"?>
<svg width="82px" height="32px" viewBox="0 0 82 32" version="1.1" xmlns="http://www.w3.org/2000/svg" xmlns:xlink="http://www.w3.org/1999/xlink">
    <title>导入-悬浮状态备份 3</title>
    <defs>
        <polygon id="path-1" points="0 0 18.0225 0 18.0225 15.6608 0 15.6608"></polygon>
    </defs>
    <g id="2.2" stroke="none" stroke-width="1" fill="none" fill-rule="evenodd">
        <g id="交互状态" transform="translate(-439.000000, -252.000000)">
            <g id="导入-悬浮状态备份-3" transform="translate(439.000000, 252.000000)">
                <path d="M11.5374834,-4.66128138e-16 L82,0 L82,0 L82,32 L11.5374834,32 C7.52564907,32 6.070861,31.5822847 4.60419433,30.7979028 C3.13752767,30.0135209 1.98647908,28.8624723 1.20209717,27.3958057 C0.41771525,25.929139 1.80555915e-16,24.4743509 -3.10752092e-16,20.4625166 L3.10752092e-16,11.5374834 C-1.80555915e-16,7.52564907 0.41771525,6.070861 1.20209717,4.60419433 C1.98647908,3.13752767 3.13752767,1.98647908 4.60419433,1.20209717 C6.070861,0.41771525 7.52564907,2.70833872e-16 11.5374834,-4.66128138e-16 Z" id="矩形" fill-opacity="0.7" fill="#454758"></path>
                <g id="编组" transform="translate(7.000000, 7.200000)">
                    <path d="M12.3527,0.0400698081 C7.2897,2.26806981 7.5597,8.47806981 7.5597,8.47806981 L10.5297,8.54606981 C10.3947,5.50806981 11.0697,3.01006981 12.8927,0.850069808 C13.2297,0.445069808 12.8247,-0.161930192 12.3527,0.0400698081" id="Fill-1" fill="#CCD2E5"></path>
                    <path d="M10.0573,11.1777698 L12.6223,8.61376981 C13.1623,8.07376981 13.1623,7.19576981 12.6223,6.65576981 C12.0823,6.11576981 11.2043,6.11576981 10.6643,6.65576981 L8.0993,9.22076981 C7.5593,9.76076981 7.5593,10.6377698 8.0993,11.1777698 C8.6403,11.7177698 9.4503,11.7177698 10.0573,11.1777698" id="Fill-3" fill="#CCD2E5"></path>
                    <path d="M9.9899,9.22076981 L7.4249,6.65576981 C6.8849,6.11576981 6.0069,6.11576981 5.4669,6.65576981 C4.9279,7.19576981 4.9279,8.07376981 5.4669,8.61376981 L8.0319,11.1777698 C8.5729,11.7177698 9.4499,11.7177698 9.9899,11.1777698 C10.5299,10.6377698 10.5299,9.76076981 9.9899,9.22076981" id="Fill-5" fill="#CCD2E5"></path>
                    <g transform="translate(0.000000, 2.335170)">
                        <mask id="mask-2" fill="white">
                            <use xlink:href="#path-1"></use>
                        </mask>
                        <g id="Clip-8"></g>
                        <path d="M14.985,15.661 L3.037,15.661 C1.35,15.661 0,14.31 0,12.623 L0,3.038 C0,1.35 1.35,0 3.037,0 L5.13,0 C5.535,0 5.872,0.338 5.872,0.743 C5.872,1.148 5.535,1.485 5.13,1.485 L3.037,1.485 C2.159,1.485 1.485,2.16 1.485,3.038 L1.485,12.623 C1.485,13.501 2.159,14.176 3.037,14.176 L14.985,14.176 C15.863,14.176 16.538,13.501 16.538,12.623 L16.538,3.038 C16.538,2.16 15.863,1.485 14.985,1.485 L14.58,1.485 C14.175,1.485 13.838,1.148 13.838,0.743 C13.838,0.338 14.175,0 14.58,0 L14.985,0 C16.672,0 18.023,1.35 18.023,3.038 L18.023,12.623 C18.023,14.31 16.672,15.661 14.985,15.661" id="Fill-7" fill="#CCD2E5" mask="url(#mask-2)"></path>
                    </g>
                </g>
            </g>
        </g>
    </g>
</svg>