<?xml version="1.0" encoding="UTF-8"?>
<svg width="305px" height="63px" viewBox="0 0 305 63" version="1.1" xmlns="http://www.w3.org/2000/svg" xmlns:xlink="http://www.w3.org/1999/xlink">
    <!-- Generator: Sketch 61 (89581) - https://sketch.com -->
    <title>import_cut_pic</title>
    <desc>Created with Sketch.</desc>
    <defs>
        <rect id="path-1" x="205" y="15" width="16" height="20" rx="2"></rect>
        <mask id="mask-2" maskContentUnits="userSpaceOnUse" maskUnits="objectBoundingBox" x="0" y="0" width="16" height="20" fill="white">
            <use xlink:href="#path-1"></use>
        </mask>
    </defs>
    <g id="图标" stroke="none" stroke-width="1" fill="none" fill-rule="evenodd">
        <g id="切图" transform="translate(-91.000000, -1828.000000)">
            <g id="import_cut_pic" transform="translate(90.000000, 1828.000000)">
                <use id="矩形备份-4" stroke="#F7B500" mask="url(#mask-2)" stroke-width="2" stroke-dasharray="2" xlink:href="#path-1"></use>
                <path d="M217.193659,29 C217.170326,28.4903546 217.15066,28.1823674 217.135328,28.0753719 C217.135328,27.9667097 216.868672,25.6281405 213.136828,25.6281405 L213.136828,27.6897213 L209,24.2898629 L213.136828,21 L213.136828,22.9632515 C214.683097,23.0179159 215.909379,23.5072289 216.655681,24.3775259 C217.935294,25.8457981 217.649973,27.8693804 217.615308,28.0210408 C217.541977,28.3420274 217.400983,28.6683472 217.193659,29 Z" id="路径" fill="#F7B500"></path>
                <path d="M99,15 C100.104569,15 101,15.8954305 101,17 L101,33 C101,34.1045695 100.104569,35 99,35 L87,35 C85.8954305,35 85,34.1045695 85,33 L85,17 C85,15.8954305 85.8954305,15 87,15 L99,15 Z M94.9615385,27.6666667 L87.9615385,27.6666667 C87.6853961,27.6666667 87.4615385,27.8905243 87.4615385,28.1666667 C87.4615385,28.442809 87.6853961,28.6666667 87.9615385,28.6666667 L87.9615385,28.6666667 L94.9615385,28.6666667 C95.2376808,28.6666667 95.4615385,28.442809 95.4615385,28.1666667 C95.4615385,27.8905243 95.2376808,27.6666667 94.9615385,27.6666667 L94.9615385,27.6666667 Z M93.1153846,23.3333333 L87.9615385,23.3333333 C87.6853961,23.3333333 87.4615385,23.557191 87.4615385,23.8333333 C87.4615385,24.1094757 87.6853961,24.3333333 87.9615385,24.3333333 L87.9615385,24.3333333 L93.1153846,24.3333333 C93.391527,24.3333333 93.6153846,24.1094757 93.6153846,23.8333333 C93.6153846,23.557191 93.391527,23.3333333 93.1153846,23.3333333 L93.1153846,23.3333333 Z M91.8846154,19 L87.9615385,19 C87.6853961,19 87.4615385,19.2238576 87.4615385,19.5 C87.4615385,19.7761424 87.6853961,20 87.9615385,20 L87.9615385,20 L91.8846154,20 C92.1607578,20 92.3846154,19.7761424 92.3846154,19.5 C92.3846154,19.2238576 92.1607578,19 91.8846154,19 L91.8846154,19 Z" id="矩形-2备份" fill="#F7B500"></path>
                <path d="M6.519,62.352 C7.286,62.352 7.676,61.962 7.676,61.182 L7.676,59.258 C8.56,59.206 9.561,59.141 10.692,59.063 C10.939,59.349 11.16,59.635 11.368,59.921 L12.239,59.323 C11.732,58.647 11.004,57.854 10.055,56.957 L9.21,57.477 L9.977,58.257 L9.977,58.257 C8.066,58.413 6.428,58.517 5.05,58.569 C6.818,57.997 8.573,57.23 10.315,56.268 L9.366,55.644 C8.846,55.956 8.326,56.255 7.806,56.541 C6.779,56.593 5.752,56.632 4.738,56.671 C5.414,56.333 6.09,55.93 6.74,55.449 L12.642,55.449 L12.642,54.422 L7.637,54.422 L7.637,53.772 L11.524,53.772 L11.524,52.81 L7.637,52.81 L7.637,52.147 L12.07,52.147 L12.07,51.146 L7.637,51.146 L7.637,50.314 L6.415,50.314 L6.415,51.146 L1.93,51.146 L1.93,52.147 L6.415,52.147 L6.415,52.81 L2.476,52.81 L2.476,53.772 L6.415,53.772 L6.415,54.422 L1.371,54.422 L1.371,55.449 L5.31,55.449 C4.634,55.93 4.062,56.255 3.594,56.411 C3.373,56.515 3.139,56.567 2.905,56.593 L3.113,57.477 C4.179,57.425 5.206,57.386 6.181,57.334 C5.063,57.815 3.945,58.205 2.814,58.517 C2.58,58.491 2.372,58.478 2.164,58.452 L2.411,59.466 L3.815,59.414 C4.465,59.414 5.349,59.375 6.48,59.323 L6.48,60.922 C6.48,61.182 6.35,61.325 6.116,61.325 C5.778,61.325 5.414,61.299 5.037,61.26 L5.284,62.352 L6.519,62.352 Z M12.148,62.183 L12.759,61.247 C11.641,60.61 10.419,60.064 9.08,59.622 L8.495,60.48 C9.743,60.896 10.965,61.468 12.148,62.183 Z M1.709,62.144 C3.191,61.689 4.452,61.117 5.466,60.441 L4.777,59.661 C3.854,60.259 2.671,60.753 1.228,61.13 L1.709,62.144 Z M23.159,62.196 C23.991,62.196 24.407,61.741 24.407,60.857 L24.407,53.993 L25.798,53.993 L25.798,52.81 L24.407,52.81 L24.407,50.34 L23.185,50.34 L23.185,52.81 L19.558,52.81 L19.558,53.993 L22.73,53.993 C21.846,56.281 20.442,58.153 18.518,59.635 L19.181,60.753 C20.949,59.258 22.288,57.412 23.185,55.215 L23.185,60.545 C23.185,60.883 23.029,61.065 22.743,61.065 C22.327,61.065 21.885,61.039 21.43,61 L21.716,62.196 L23.159,62.196 Z M17.426,62.287 L17.426,55.904 C17.764,56.346 18.18,56.931 18.661,57.633 L19.376,56.554 C18.713,55.826 18.063,55.163 17.426,54.591 L17.426,53.967 L19.051,53.967 L19.051,52.784 L17.426,52.784 L17.426,50.353 L16.204,50.353 L16.204,52.784 L14.215,52.784 L14.215,53.967 L16.126,53.967 C15.671,55.475 14.943,56.827 13.942,57.997 L14.501,59.414 C15.203,58.374 15.762,57.217 16.204,55.956 L16.204,62.287 L17.426,62.287 Z M27.891,62.313 C28.697,60.688 29.126,58.53 29.178,55.852 L29.178,51.991 L33.286,51.991 C33.221,52.329 33.143,52.654 33.039,52.979 L30.387,52.979 L30.387,58.153 L33.611,58.153 L33.611,60.818 C33.611,61.052 33.468,61.169 33.195,61.169 C32.831,61.169 32.441,61.143 32.038,61.091 L32.311,62.3 L33.624,62.3 C34.43,62.3 34.846,61.897 34.846,61.117 L34.846,58.153 L37.771,58.153 L37.771,52.979 L34.248,52.979 C34.352,52.667 34.43,52.329 34.508,51.991 L38.668,51.991 L38.668,50.782 L27.93,50.782 L27.93,55.852 C27.904,58.244 27.579,60.129 26.955,61.481 L27.891,62.313 Z M36.575,55.02 L31.583,55.02 L31.583,54.097 L36.575,54.097 L36.575,55.02 Z M36.575,57.035 L31.583,57.035 L31.583,56.073 L36.575,56.073 L36.575,57.035 Z M37.797,62.014 L38.824,61.312 C38.356,60.519 37.68,59.596 36.822,58.543 L35.834,59.167 C36.666,60.207 37.316,61.156 37.797,62.014 Z M30.27,61.975 C31.05,61.156 31.739,60.194 32.311,59.076 L31.232,58.556 C30.686,59.596 30.023,60.493 29.243,61.247 L30.27,61.975 Z M51.33,62.417 L52.019,61.377 C50.017,60.649 48.327,59.726 46.975,58.621 C48.197,57.282 49.12,55.631 49.744,53.655 L51.733,53.655 L51.733,52.433 L46.806,52.433 C46.403,51.575 45.961,50.834 45.493,50.21 L44.258,50.665 C44.752,51.224 45.168,51.809 45.506,52.433 L40.267,52.433 L40.267,53.655 L42.256,53.655 C42.815,55.579 43.816,57.269 45.246,58.699 C43.868,59.882 42.139,60.74 40.033,61.286 L40.696,62.378 C42.841,61.754 44.648,60.792 46.117,59.492 C47.495,60.662 49.237,61.637 51.33,62.417 Z M46.104,57.854 C44.869,56.658 43.985,55.254 43.439,53.655 L48.47,53.655 C47.95,55.293 47.157,56.697 46.104,57.854 Z M55.646,62.339 L55.646,53.681 C56.166,52.771 56.595,51.796 56.92,50.769 L55.763,50.236 C55.139,52.238 54.177,53.993 52.877,55.501 L53.28,56.814 C53.683,56.385 54.073,55.943 54.437,55.475 L54.437,62.339 L55.646,62.339 Z M61.587,62.287 L61.587,58.192 L64.941,58.192 L64.941,56.996 L61.587,56.996 L61.587,54.201 L64.46,54.201 L64.46,52.992 L61.587,52.992 L61.587,50.392 L60.352,50.392 L60.352,52.992 L58.792,52.992 C58.935,52.472 59.052,51.913 59.156,51.328 L57.947,51.172 C57.687,52.836 57.167,54.253 56.413,55.41 L57.206,56.437 C57.674,55.761 58.064,55.02 58.389,54.201 L60.352,54.201 L60.352,56.996 L56.66,56.996 L56.66,58.192 L60.352,58.192 L60.352,62.287 L61.587,62.287 Z M77.2,62.326 L77.85,61.26 C75.25,60.363 73.638,59.128 72.988,57.568 L77.733,57.568 L77.733,56.398 L75.328,56.398 C75.77,55.618 76.134,54.734 76.433,53.759 L75.211,53.421 C74.873,54.591 74.496,55.592 74.054,56.398 L72.429,56.398 C72.533,55.813 72.611,55.176 72.637,54.5 L72.637,53.018 L77.213,53.018 L77.213,51.848 L72.637,51.848 L72.637,50.353 L71.376,50.353 L71.376,51.848 L66.787,51.848 L66.787,53.018 L71.376,53.018 L71.376,54.5 C71.35,55.176 71.272,55.8 71.142,56.398 L66.267,56.398 L66.267,57.568 L70.804,57.568 C70.648,57.984 70.453,58.387 70.219,58.751 C69.491,59.778 68.126,60.623 66.124,61.286 L66.787,62.326 C68.789,61.689 70.245,60.779 71.129,59.596 C71.48,59.102 71.766,58.543 72,57.919 C72.728,59.752 74.47,61.221 77.2,62.326 Z M68.49,56.216 L69.634,55.93 C69.374,54.968 69.062,54.123 68.711,53.395 L67.567,53.772 C67.931,54.552 68.243,55.371 68.49,56.216 Z" id="素材原文件夹" fill="#A2ABC3" fill-rule="nonzero"></path>
                <path d="M234.519,62.352 C235.286,62.352 235.676,61.962 235.676,61.182 L235.676,59.258 C236.56,59.206 237.561,59.141 238.692,59.063 C238.939,59.349 239.16,59.635 239.368,59.921 L240.239,59.323 C239.732,58.647 239.004,57.854 238.055,56.957 L237.21,57.477 L237.977,58.257 L237.977,58.257 C236.066,58.413 234.428,58.517 233.05,58.569 C234.818,57.997 236.573,57.23 238.315,56.268 L237.366,55.644 C236.846,55.956 236.326,56.255 235.806,56.541 C234.779,56.593 233.752,56.632 232.738,56.671 C233.414,56.333 234.09,55.93 234.74,55.449 L240.642,55.449 L240.642,54.422 L235.637,54.422 L235.637,53.772 L239.524,53.772 L239.524,52.81 L235.637,52.81 L235.637,52.147 L240.07,52.147 L240.07,51.146 L235.637,51.146 L235.637,50.314 L234.415,50.314 L234.415,51.146 L229.93,51.146 L229.93,52.147 L234.415,52.147 L234.415,52.81 L230.476,52.81 L230.476,53.772 L234.415,53.772 L234.415,54.422 L229.371,54.422 L229.371,55.449 L233.31,55.449 C232.634,55.93 232.062,56.255 231.594,56.411 C231.373,56.515 231.139,56.567 230.905,56.593 L231.113,57.477 C232.179,57.425 233.206,57.386 234.181,57.334 C233.063,57.815 231.945,58.205 230.814,58.517 C230.58,58.491 230.372,58.478 230.164,58.452 L230.411,59.466 L231.815,59.414 C232.465,59.414 233.349,59.375 234.48,59.323 L234.48,60.922 C234.48,61.182 234.35,61.325 234.116,61.325 C233.778,61.325 233.414,61.299 233.037,61.26 L233.284,62.352 L234.519,62.352 Z M240.148,62.183 L240.759,61.247 C239.641,60.61 238.419,60.064 237.08,59.622 L236.495,60.48 C237.743,60.896 238.965,61.468 240.148,62.183 Z M229.709,62.144 C231.191,61.689 232.452,61.117 233.466,60.441 L232.777,59.661 C231.854,60.259 230.671,60.753 229.228,61.13 L229.709,62.144 Z M251.159,62.196 C251.991,62.196 252.407,61.741 252.407,60.857 L252.407,53.993 L253.798,53.993 L253.798,52.81 L252.407,52.81 L252.407,50.34 L251.185,50.34 L251.185,52.81 L247.558,52.81 L247.558,53.993 L250.73,53.993 C249.846,56.281 248.442,58.153 246.518,59.635 L247.181,60.753 C248.949,59.258 250.288,57.412 251.185,55.215 L251.185,60.545 C251.185,60.883 251.029,61.065 250.743,61.065 C250.327,61.065 249.885,61.039 249.43,61 L249.716,62.196 L251.159,62.196 Z M245.426,62.287 L245.426,55.904 C245.764,56.346 246.18,56.931 246.661,57.633 L247.376,56.554 C246.713,55.826 246.063,55.163 245.426,54.591 L245.426,53.967 L247.051,53.967 L247.051,52.784 L245.426,52.784 L245.426,50.353 L244.204,50.353 L244.204,52.784 L242.215,52.784 L242.215,53.967 L244.126,53.967 C243.671,55.475 242.943,56.827 241.942,57.997 L242.501,59.414 C243.203,58.374 243.762,57.217 244.204,55.956 L244.204,62.287 L245.426,62.287 Z M256.034,62.339 C256.84,60.597 257.256,58.296 257.295,55.41 L257.295,52.615 L266.824,52.615 L266.824,51.406 L262.209,51.406 C262.014,50.977 261.819,50.587 261.611,50.249 L260.233,50.483 C260.441,50.769 260.649,51.068 260.831,51.406 L256.047,51.406 L256.047,55.41 C256.021,57.971 255.67,59.973 255.007,61.416 L256.034,62.339 Z M263.158,62.352 L263.158,60.376 L266.941,60.376 L266.941,59.258 L263.158,59.258 L263.158,58.088 L265.966,58.088 L265.966,56.983 L263.158,56.983 L263.158,55.553 L261.936,55.553 L261.936,56.983 L259.921,56.983 C260.285,56.398 260.623,55.735 260.935,55.007 L266.252,55.007 L266.252,53.928 L261.351,53.928 C261.442,53.655 261.533,53.369 261.637,53.07 L260.454,52.797 C260.324,53.187 260.194,53.564 260.064,53.928 L257.867,53.928 L257.867,55.007 L259.609,55.007 C259.245,55.813 258.842,56.476 258.413,57.009 L258.673,58.088 L261.936,58.088 L261.936,59.258 L257.386,59.258 L257.386,60.376 L261.936,60.376 L261.936,62.352 L263.158,62.352 Z M279.33,62.417 L280.019,61.377 C278.017,60.649 276.327,59.726 274.975,58.621 C276.197,57.282 277.12,55.631 277.744,53.655 L279.733,53.655 L279.733,52.433 L274.806,52.433 C274.403,51.575 273.961,50.834 273.493,50.21 L272.258,50.665 C272.752,51.224 273.168,51.809 273.506,52.433 L268.267,52.433 L268.267,53.655 L270.256,53.655 C270.815,55.579 271.816,57.269 273.246,58.699 C271.868,59.882 270.139,60.74 268.033,61.286 L268.696,62.378 C270.841,61.754 272.648,60.792 274.117,59.492 C275.495,60.662 277.237,61.637 279.33,62.417 Z M274.104,57.854 C272.869,56.658 271.985,55.254 271.439,53.655 L276.47,53.655 C275.95,55.293 275.157,56.697 274.104,57.854 Z M283.646,62.339 L283.646,53.681 C284.166,52.771 284.595,51.796 284.92,50.769 L283.763,50.236 C283.139,52.238 282.177,53.993 280.877,55.501 L281.28,56.814 C281.683,56.385 282.073,55.943 282.437,55.475 L282.437,62.339 L283.646,62.339 Z M289.587,62.287 L289.587,58.192 L292.941,58.192 L292.941,56.996 L289.587,56.996 L289.587,54.201 L292.46,54.201 L292.46,52.992 L289.587,52.992 L289.587,50.392 L288.352,50.392 L288.352,52.992 L286.792,52.992 C286.935,52.472 287.052,51.913 287.156,51.328 L285.947,51.172 C285.687,52.836 285.167,54.253 284.413,55.41 L285.206,56.437 C285.674,55.761 286.064,55.02 286.389,54.201 L288.352,54.201 L288.352,56.996 L284.66,56.996 L284.66,58.192 L288.352,58.192 L288.352,62.287 L289.587,62.287 Z M305.2,62.326 L305.85,61.26 C303.25,60.363 301.638,59.128 300.988,57.568 L305.733,57.568 L305.733,56.398 L303.328,56.398 C303.77,55.618 304.134,54.734 304.433,53.759 L303.211,53.421 C302.873,54.591 302.496,55.592 302.054,56.398 L300.429,56.398 C300.533,55.813 300.611,55.176 300.637,54.5 L300.637,53.018 L305.213,53.018 L305.213,51.848 L300.637,51.848 L300.637,50.353 L299.376,50.353 L299.376,51.848 L294.787,51.848 L294.787,53.018 L299.376,53.018 L299.376,54.5 C299.35,55.176 299.272,55.8 299.142,56.398 L294.267,56.398 L294.267,57.568 L298.804,57.568 C298.648,57.984 298.453,58.387 298.219,58.751 C297.491,59.778 296.126,60.623 294.124,61.286 L294.787,62.326 C296.789,61.689 298.245,60.779 299.129,59.596 C299.48,59.102 299.766,58.543 300,57.919 C300.728,59.752 302.47,61.221 305.2,62.326 Z M296.49,56.216 L297.634,55.93 C297.374,54.968 297.062,54.123 296.711,53.395 L295.567,53.772 C295.931,54.552 296.243,55.371 296.49,56.216 Z" id="素材库文件夹" fill="#A2ABC3" fill-rule="nonzero"></path>
                <g id="文件" transform="translate(247.000000, 0.000000)" fill="#44D7B6" fill-rule="nonzero">
                    <path d="M29.7241766,6.23315868 L23.8499251,6.23315868 C22.3872876,6.24321514 20.9982182,5.59268476 20.069486,4.46269962 L18.1353543,1.78804889 C17.2226876,0.647293696 15.8336218,-0.00707786751 14.3728793,0.0155937968 L10.2211826,0.0155937968 C2.76609281,0.0155937968 0.0155919259,4.39084333 0.0155919259,11.8319611 L0.0155919259,19.8718812 C0.00561377246,20.7561127 39.9277695,20.7561127 39.9301212,19.8718812 L39.9301212,17.5365519 C39.9656936,10.0954341 37.2850549,6.23515466 29.7241766,6.23515471 L29.7241766,6.23315868 Z" id="路径" opacity="0.4"></path>
                    <path d="M29.7062126,6.23315868 C32.311003,6.03156189 34.8958333,6.81599303 36.9477296,8.42876745 C37.1852545,8.62836826 37.4048154,8.84792913 37.6064122,9.08345808 C38.2451347,9.83196108 38.7361527,10.6902445 39.059506,11.6183882 C39.6962326,13.5225799 39.9896457,15.5245759 39.9297655,17.5325599 L39.9297655,28.0175898 C39.9270621,28.9006837 39.8616949,29.7824725 39.7341567,30.6563124 C39.4915759,32.1990905 38.9490902,33.6793984 38.1373503,35.0135978 C37.7638177,35.6581393 37.3104721,36.2529878 36.7880489,36.7840569 C34.4212547,38.9556768 31.2813096,40.0855105 28.0734781,39.9197854 L11.8539172,39.9197854 C8.6411562,40.0848357 5.49613318,38.9562217 3.12138225,36.7860529 C2.60512059,36.2533255 2.15783852,35.6578435 1.79004491,35.0135978 C0.98328994,33.680313 0.45250351,32.1985908 0.229166682,30.6563124 C0.0871480824,29.7845815 0.0155937968,28.9028095 0.0155937968,28.0195858 L0.0155937968,17.5345559 C0.0155937968,16.6583084 0.0634979884,15.7840569 0.157310395,14.9137974 C0.21120261,14.5066118 0.336951113,14.1153942 0.336951113,13.7261727 C0.516591832,12.6762725 0.843937126,11.6563124 1.31100299,10.6982285 C2.69623255,7.74014469 5.5345559,6.23515466 10.1852545,6.23515471 L29.7062126,6.23315868 Z M30.1852545,23.7501248 L9.93575351,23.7501248 C9.32809766,23.7201967 8.75334407,24.0273475 8.44054619,24.5491701 C8.12774832,25.0709927 8.12774832,25.72267 8.44054619,26.2444926 C8.75334407,26.7663152 9.32809766,27.073466 9.93575351,27.0435379 L30.061502,27.0435379 C30.501926,27.0624285 30.931645,26.9045834 31.2551217,26.6050957 C31.5785984,26.3056079 31.7690222,25.8893 31.7840569,25.4487275 C31.8087214,25.0619689 31.6812179,24.680891 31.4287674,24.3868513 C31.1383138,23.9906528 30.6784747,23.7540797 30.1872505,23.748121 L30.1852545,23.7501248 Z" id="形状"></path>
                </g>
                <g id="文件备份-2" transform="translate(19.000000, 0.000000)" fill="#44D7B6" fill-rule="nonzero">
                    <path d="M29.7241766,6.23315868 L23.8499251,6.23315868 C22.3872876,6.24321514 20.9982182,5.59268476 20.069486,4.46269962 L18.1353543,1.78804889 C17.2226876,0.647293696 15.8336218,-0.00707786751 14.3728793,0.0155937968 L10.2211826,0.0155937968 C2.76609281,0.0155937968 0.0155919259,4.39084333 0.0155919259,11.8319611 L0.0155919259,19.8718812 C0.00561377246,20.7561127 39.9277695,20.7561127 39.9301212,19.8718812 L39.9301212,17.5365519 C39.9656936,10.0954341 37.2850549,6.23515466 29.7241766,6.23515471 L29.7241766,6.23315868 Z" id="路径" opacity="0.4"></path>
                    <path d="M29.7062126,6.23315868 C32.311003,6.03156189 34.8958333,6.81599303 36.9477296,8.42876745 C37.1852545,8.62836826 37.4048154,8.84792913 37.6064122,9.08345808 C38.2451347,9.83196108 38.7361527,10.6902445 39.059506,11.6183882 C39.6962326,13.5225799 39.9896457,15.5245759 39.9297655,17.5325599 L39.9297655,28.0175898 C39.9270621,28.9006837 39.8616949,29.7824725 39.7341567,30.6563124 C39.4915759,32.1990905 38.9490902,33.6793984 38.1373503,35.0135978 C37.7638177,35.6581393 37.3104721,36.2529878 36.7880489,36.7840569 C34.4212547,38.9556768 31.2813096,40.0855105 28.0734781,39.9197854 L11.8539172,39.9197854 C8.6411562,40.0848357 5.49613318,38.9562217 3.12138225,36.7860529 C2.60512059,36.2533255 2.15783852,35.6578435 1.79004491,35.0135978 C0.98328994,33.680313 0.45250351,32.1985908 0.229166682,30.6563124 C0.0871480824,29.7845815 0.0155937968,28.9028095 0.0155937968,28.0195858 L0.0155937968,17.5345559 C0.0155937968,16.6583084 0.0634979884,15.7840569 0.157310395,14.9137974 C0.21120261,14.5066118 0.336951113,14.1153942 0.336951113,13.7261727 C0.516591832,12.6762725 0.843937126,11.6563124 1.31100299,10.6982285 C2.69623255,7.74014469 5.5345559,6.23515466 10.1852545,6.23515471 L29.7062126,6.23315868 Z M30.1852545,23.7501248 L9.93575351,23.7501248 C9.32809766,23.7201967 8.75334407,24.0273475 8.44054619,24.5491701 C8.12774832,25.0709927 8.12774832,25.72267 8.44054619,26.2444926 C8.75334407,26.7663152 9.32809766,27.073466 9.93575351,27.0435379 L30.061502,27.0435379 C30.501926,27.0624285 30.931645,26.9045834 31.2551217,26.6050957 C31.5785984,26.3056079 31.7690222,25.8893 31.7840569,25.4487275 C31.8087214,25.0619689 31.6812179,24.680891 31.4287674,24.3868513 C31.1383138,23.9906528 30.6784747,23.7540797 30.1872505,23.748121 L30.1852545,23.7501248 Z" id="形状"></path>
                </g>
                <path d="M178.521769,16.3953791 L188.591692,25.7656248 C188.979659,26.1292048 189.104851,26.689177 188.907961,27.1802682 C188.711071,27.6713593 188.231642,27.9949394 187.696792,27.9977202 C187.588655,27.9993353 187.481645,27.9878625 187.377951,27.9641348 C187.255292,27.9936397 187.126333,28.0053891 186.995634,27.9977202 L118.232355,27.9977202 C117.54023,27.9571091 117,27.3909837 117,26.7062936 C117,26.0216034 117.54023,25.4554781 118.232355,25.4148669 L184.381,25.414 L176.727357,18.2767167 C176.360396,17.9666462 176.195954,17.4823451 176.299453,17.0164949 C176.402953,16.5506447 176.757606,16.1788114 177.222312,16.0489305 C177.687018,15.9190496 178.186397,16.0521892 178.521769,16.3953791 Z" id="形状结合" fill="#44D7B6" fill-rule="nonzero"></path>
            </g>
        </g>
    </g>
</svg>