<?xml version="1.0" encoding="UTF-8"?>
<svg width="20px" height="20px" viewBox="0 0 20 20" version="1.1" xmlns="http://www.w3.org/2000/svg" xmlns:xlink="http://www.w3.org/1999/xlink">
    <!-- Generator: Sketch 61 (89581) - https://sketch.com -->
    <title>import_collect_folder</title>
    <desc>Created with Sketch.</desc>
    <g id="图标" stroke="none" stroke-width="1" fill="none" fill-rule="evenodd">
        <g id="切图" transform="translate(-511.000000, -410.000000)" fill-rule="nonzero">
            <g id="import_collect_folder" transform="translate(511.000000, 410.000000)">
                <path d="M9.95024876,0 C4.47432758,0 0,4.49648437 0,10 C0,15.5703125 4.47411381,20 9.95024876,20 C15.4928483,20 19.9002643,15.5035156 19.9002643,10 C19.9671953,4.49648437 15.4928483,0 9.95024876,0 Z" id="路径" fill="#4F84FA"></path>
                <path d="M13.437053,13.8473633 C14.0049946,13.8473633 14.4655435,14.3102148 14.4655435,14.8812305 C14.4657766,15.4520313 14.0052278,15.9148633 13.437053,15.9148633 L6.57973803,15.9148633 C6.01179649,15.9148633 5.5512671,15.4520313 5.5512671,14.8812305 C5.5512671,14.3102148 6.01179649,13.8473633 6.57975746,13.8473633 L13.437053,13.8473633 Z M10.0768424,4.52212891 C10.6614195,4.52212891 11.1357665,4.99884766 11.1357665,5.58632813 L11.1357665,8.83892578 C12.1441231,8.85162109 12.8859414,8.85726563 12.9715874,8.86054688 C13.3998368,8.87677734 13.6294115,9.23945313 13.4599658,9.45181641 C13.3247046,9.62089844 10.5551734,12.7196875 10.3197489,13.0082617 C10.0541433,13.4278125 9.51638293,13.126543 9.51638293,13.126543 C9.34064055,12.9219336 6.69770289,9.73167969 6.50019434,9.49013672 C6.35603234,9.31304688 6.34573228,8.93818359 6.90877643,8.93181641 C7.02390392,8.93039063 7.78680815,8.89371094 8.75349813,8.86570313 L8.75349813,5.58632813 C8.75349813,4.99765625 9.22784515,4.52212891 9.81242226,4.52212891 L10.0768424,4.52212891 Z" id="形状结合" fill="#E0E7FA"></path>
            </g>
        </g>
    </g>
</svg>