<?xml version="1.0" encoding="UTF-8"?>
<svg width="16px" height="16px" viewBox="0 0 16 16" version="1.1" xmlns="http://www.w3.org/2000/svg" xmlns:xlink="http://www.w3.org/1999/xlink">
    <!-- Generator: Sketch 61 (89581) - https://sketch.com -->
    <title>import_cancel_select</title>
    <desc>Created with Sketch.</desc>
    <g id="图标" stroke="none" stroke-width="1" fill="none" fill-rule="evenodd">
        <g id="画板" transform="translate(-347.000000, -197.000000)">
            <g id="import_cancel_select" transform="translate(347.000000, 197.000000)">
                <circle id="椭圆形" fill="#FA6400" cx="8" cy="8" r="8"></circle>
                <path d="M8,3 C8.24162458,3 8.4375,3.19587542 8.4375,3.4375 L8.437,7.562 L12.5625,7.5625 C12.8041246,7.5625 13,7.75837542 13,8 C13,8.24162458 12.8041246,8.4375 12.5625,8.4375 L8.437,8.437 L8.4375,12.5625 C8.4375,12.8041246 8.24162458,13 8,13 C7.75837542,13 7.5625,12.8041246 7.5625,12.5625 L7.562,8.437 L3.4375,8.4375 C3.19587542,8.4375 3,8.24162458 3,8 C3,7.75837542 3.19587542,7.5625 3.4375,7.5625 L7.562,7.562 L7.5625,3.4375 C7.5625,3.19587542 7.75837542,3 8,3 Z" id="形状结合" fill="#E0E7FA" transform="translate(8.000000, 8.000000) rotate(-315.000000) translate(-8.000000, -8.000000) "></path>
            </g>
        </g>
    </g>
</svg>