<?xml version="1.0" encoding="UTF-8"?>
<svg width="14px" height="14px" viewBox="0 0 14 14" version="1.1" xmlns="http://www.w3.org/2000/svg" xmlns:xlink="http://www.w3.org/1999/xlink">
    <!-- Generator: Sketch 61 (89581) - https://sketch.com -->
    <title>info_url_hover</title>
    <desc>Created with Sketch.</desc>
    <g id="图标" stroke="none" stroke-width="1" fill="none" fill-rule="evenodd">
        <g id="切图" transform="translate(-223.000000, -748.000000)" fill="#E0E7FA" fill-rule="nonzero">
            <path d="M230,748 C226.15,748 223,751.15 223,755 C223,758.85 226.15,762 230,762 C233.85,762 237,758.85 237,755 C237,751.15 233.85,748 230,748 Z M236.195,756.015 L236.16,755.98 L235.845,755.665 L235.775,755.595 C235.775,755.49 235.74,755.455 235.775,755.42 C235.81,755.385 235.67,755.21 235.635,755.14 C235.775,755 235.88,754.825 235.88,754.65 C235.845,754.405 235.775,754.16 235.705,753.95 C235.705,753.81 235.81,753.775 235.845,753.67 C235.88,753.53 235.95,753.355 235.985,753.215 C236.3,754.09 236.37,755.07 236.195,756.015 L236.195,756.015 Z M234.025,750.205 C233.955,750.205 234.025,750.31 233.92,750.275 C233.885,750.275 233.885,750.275 233.885,750.24 L233.815,750.24 C233.745,750.205 233.71,750.135 233.64,750.135 L233.5,750.135 C233.465,750.135 233.5,750.1 233.43,750.065 C233.36,750.03 233.395,750.03 233.395,750.03 C233.29,749.995 233.22,749.89 233.185,749.82 C233.185,749.785 233.185,749.82 233.22,749.785 C233.15,749.75 233.15,749.785 233.115,749.75 C233.08,749.715 233.08,749.715 233.08,749.68 C233.08,749.645 232.94,749.61 232.94,749.575 C232.94,749.54 232.94,749.575 232.975,749.54 L232.905,749.54 L232.905,749.505 C232.94,749.47 232.975,749.47 233.01,749.47 C233.36,749.68 233.71,749.89 234.025,750.205 C234.025,750.17 234.025,750.205 234.025,750.205 L234.025,750.205 Z M231.785,749.26 L231.75,749.26 L231.715,749.225 C231.61,749.19 231.54,749.19 231.435,749.155 C231.33,749.12 231.05,749.12 231.12,749.05 C230.98,749.015 230.91,748.98 230.805,748.945 C230.77,748.945 230.77,748.98 230.735,748.98 L230.665,748.98 C230.63,748.98 230.595,749.015 230.525,748.98 C230.455,748.945 230.35,748.945 230.35,748.91 C230.35,748.875 230.455,748.875 230.525,748.875 L230.875,748.875 L230.805,748.84 L230.91,748.84 C230.945,748.84 230.98,748.805 231.015,748.805 C231.19,748.84 231.4,748.875 231.575,748.91 L231.645,748.91 L231.575,748.91 L231.575,748.945 L231.61,748.945 C231.645,748.98 231.68,749.015 231.715,749.015 C231.785,749.015 231.82,749.015 231.82,749.05 L231.89,749.05 L231.89,749.085 L231.96,749.12 C231.96,749.12 231.925,749.155 231.925,749.19 C231.785,749.155 231.68,749.12 231.54,749.085 L231.47,749.085 C231.54,749.155 231.75,749.19 231.785,749.26 L231.785,749.26 Z M229.685,748.8 L229.545,748.8 C229.51,748.8 229.44,748.75 229.405,748.75 C229.58,748.75 229.755,748.7 229.93,748.7 C229.86,748.75 229.755,748.8 229.72,748.8 L229.685,748.8 L229.685,748.8 Z M229.37,748.77 C229.37,748.805 229.23,748.805 229.16,748.805 C229.09,748.805 229.055,748.805 228.985,748.77 C229.125,748.735 229.23,748.735 229.37,748.7 L229.37,748.77 Z M231.785,748.98 L232.03,749.08 L231.995,749.08 C231.925,749.08 231.855,749.03 231.785,748.98 Z M228.915,748.805 C229.02,748.84 229.125,748.84 229.23,748.84 L229.23,748.875 C229.16,748.91 229.09,748.945 229.02,748.945 L228.915,748.945 C228.88,748.945 228.915,749.015 228.81,748.98 C228.46,748.945 228.6,748.98 228.565,748.98 C228.635,748.98 228.775,748.98 228.775,749.015 C228.775,749.05 228.705,749.015 228.635,749.05 C228.6,749.085 228.53,749.12 228.495,749.155 C228.39,749.19 228.355,749.295 228.32,749.4 L228.32,749.505 C228.355,749.505 228.39,749.47 228.425,749.47 C228.46,749.47 228.565,749.61 228.6,749.645 C228.67,749.645 228.705,749.61 228.775,749.61 C228.845,749.61 228.915,749.645 228.95,749.645 C229.125,749.68 229.3,749.715 229.475,749.785 C229.58,749.785 229.65,749.82 229.755,749.82 C229.86,749.82 229.895,749.925 229.895,749.995 C229.895,750.065 230.07,750.17 230.175,750.24 L230.315,750.24 C230.315,750.205 230.35,750.17 230.385,750.135 C230.315,750.065 230.385,749.96 230.21,749.89 C230.315,749.89 230.56,749.785 230.56,749.715 C230.56,749.645 230.595,749.575 230.525,749.54 C230.455,749.505 230.385,749.54 230.35,749.47 C230.42,749.47 230.525,749.435 230.49,749.365 C230.455,749.295 230.35,749.295 230.385,749.26 C230.525,749.225 230.385,749.19 230.385,749.155 C230.385,749.12 230.455,749.085 230.525,749.085 C230.63,749.085 230.7,749.12 230.84,749.155 L230.945,749.155 C231.05,749.155 231.05,749.19 231.155,749.225 C231.155,749.295 231.365,749.295 231.4,749.33 C231.435,749.4 231.4,749.505 231.47,749.505 C231.54,749.505 231.575,749.61 231.645,749.61 C231.715,749.61 231.715,749.575 231.785,749.575 C231.855,749.575 231.925,749.54 231.89,749.505 C231.855,749.47 231.96,749.47 231.96,749.435 C231.995,749.435 231.995,749.47 232.03,749.47 C232.065,749.54 232.205,749.575 232.17,749.61 C232.135,749.645 232.275,749.715 232.31,749.715 C232.345,749.715 232.345,749.75 232.345,749.785 C232.345,749.82 232.31,749.82 232.31,749.82 C232.38,749.855 232.45,749.89 232.52,749.89 C232.52,749.995 232.73,750.03 232.835,750.03 L232.87,750.065 C232.87,750.065 232.66,750.1 232.555,750.135 L232.59,750.135 C232.695,750.135 232.835,750.135 232.94,750.1 L232.94,750.135 C232.94,750.135 232.94,750.17 232.975,750.17 C233.01,750.205 233.045,750.24 233.045,750.31 C233.045,750.38 232.765,750.345 232.695,750.415 C232.59,750.52 232.415,750.45 232.205,750.415 C232.065,750.38 231.925,750.38 231.82,750.415 C231.715,750.45 231.75,750.485 231.715,750.52 C231.68,750.555 231.54,750.555 231.505,750.66 C231.645,750.66 231.715,750.555 231.89,750.555 C231.995,750.555 232.1,750.555 232.1,750.625 C232.1,750.695 231.96,750.695 231.925,750.73 L232.03,750.73 C232.03,750.835 232.24,750.94 232.345,750.94 C232.38,750.94 232.485,750.94 232.485,751.01 C232.38,751.045 232.31,751.08 232.205,751.115 C232.135,751.15 232.03,751.22 232.03,751.22 C231.995,751.22 231.995,751.185 231.96,751.15 C231.96,751.08 232.1,751.01 232.205,751.01 C232.135,751.01 232.135,751.01 232.135,750.94 C232.065,750.94 232.065,750.975 232.03,751.01 L231.82,751.01 C231.82,751.01 231.82,751.045 231.855,751.045 C231.785,751.115 231.75,751.15 231.68,751.15 C231.645,751.15 231.61,751.15 231.575,751.185 C231.505,751.255 231.365,751.185 231.365,751.325 L231.365,751.36 L231.4,751.43 L231.435,751.395 L231.435,751.43 L231.295,751.43 C231.19,751.465 231.05,751.465 230.98,751.5 L231.155,751.5 L230.945,751.5 L230.91,751.535 L230.945,751.57 C230.945,751.57 230.84,751.745 230.805,751.745 C230.77,751.745 230.77,751.71 230.77,751.71 L230.735,751.745 C230.735,751.78 230.77,751.78 230.77,751.815 C230.735,751.885 230.7,751.92 230.665,751.99 L230.665,751.92 C230.665,751.92 230.63,751.815 230.63,751.78 L230.63,751.815 C230.63,751.85 230.665,751.92 230.665,751.955 L230.665,752.025 C230.665,752.06 230.7,752.025 230.7,752.025 L230.7,752.06 C230.7,752.06 230.665,752.095 230.63,752.095 C230.63,752.13 230.665,752.13 230.7,752.13 C230.7,752.165 230.665,752.165 230.63,752.165 C230.595,752.165 230.63,752.2 230.63,752.2 L230.665,752.235 L230.63,752.27 C230.63,752.27 230.56,752.305 230.525,752.305 C230.49,752.305 230.455,752.34 230.455,752.34 C230.245,752.445 230,752.445 230,752.76 C230,752.9 230.14,752.935 230.14,753.075 L230.14,753.11 C230.14,753.145 230.21,753.215 230.21,753.285 C230.21,753.355 230.175,753.46 230.105,753.46 C230.035,753.46 230.035,753.39 230,753.355 C229.93,753.32 229.895,753.25 229.86,753.215 C229.79,753.075 229.86,752.83 229.65,752.83 C229.615,752.83 229.58,752.9 229.545,752.9 C229.44,752.9 229.405,752.795 229.3,752.795 C229.195,752.795 229.195,752.83 229.195,752.83 L229.16,752.795 C229.09,752.795 228.985,752.795 228.915,752.83 L228.985,752.83 C228.985,752.9 228.95,752.935 228.985,752.97 C228.845,753.04 228.74,752.9 228.635,752.9 C228.6,752.9 228.6,752.935 228.565,752.935 L228.46,752.935 C228.32,752.935 228.25,753.04 228.215,753.075 C228.18,753.11 228.145,753.075 228.075,753.11 C227.97,753.145 227.9,753.25 227.9,753.355 L227.935,753.39 C227.935,753.425 227.935,753.425 227.97,753.46 C227.97,753.53 227.935,753.565 227.935,753.635 L227.935,754.055 C227.97,754.09 228.005,754.125 228.04,754.195 C228.11,754.265 228.11,754.335 228.25,754.37 C228.285,754.37 228.285,754.405 228.32,754.405 C228.425,754.405 228.495,754.335 228.565,754.335 C228.6,754.335 228.635,754.335 228.67,754.37 C228.705,754.37 228.74,754.3 228.74,754.3 C228.74,754.3 228.845,754.195 228.845,754.125 C228.845,753.985 229.02,753.985 229.16,753.985 L229.3,753.985 L229.3,754.02 C229.3,754.02 229.23,754.16 229.23,754.23 C229.23,754.3 229.195,754.335 229.16,754.37 L229.16,754.335 L229.16,754.545 C229.16,754.615 229.09,754.615 229.09,754.65 L229.09,754.685 C229.09,754.72 229.125,754.72 229.16,754.72 C229.335,754.72 229.44,754.685 229.615,754.685 C229.79,754.685 229.755,754.755 229.825,754.79 L229.825,754.86 C229.825,754.93 229.825,755.035 229.79,755.105 L229.79,755.385 C229.79,755.49 229.895,755.525 229.965,755.56 C230.035,755.595 230,755.665 230.105,755.665 C230.21,755.665 230.28,755.595 230.385,755.56 C230.49,755.525 230.525,755.7 230.595,755.735 L230.56,755.77 L230.595,755.735 L230.665,755.735 L230.665,755.7 L230.7,755.665 C230.7,755.63 230.735,755.595 230.77,755.595 C230.805,755.595 230.805,755.525 230.805,755.49 C230.805,755.455 230.875,755.42 230.945,755.385 L231.26,755.28 C231.33,755.245 231.33,755.21 231.4,755.21 C231.47,755.21 231.435,755.245 231.435,755.245 C231.435,755.28 231.4,755.28 231.4,755.28 C231.365,755.35 231.365,755.385 231.365,755.455 C231.365,755.49 231.365,755.595 231.435,755.595 C231.505,755.595 231.47,755.525 231.47,755.525 C231.47,755.525 231.4,755.455 231.435,755.385 C231.47,755.315 231.505,755.35 231.54,755.315 L231.645,755.315 C231.645,755.28 231.54,755.28 231.575,755.245 L231.645,755.245 C231.645,755.315 231.785,755.35 231.82,755.35 C231.82,755.385 231.855,755.42 231.855,755.42 L232.1,755.42 C232.1,755.455 232.17,755.455 232.205,755.455 C232.24,755.455 232.31,755.455 232.345,755.385 C232.38,755.385 232.415,755.385 232.45,755.35 L232.555,755.35 L232.485,755.35 L232.485,755.385 C232.485,755.385 232.59,755.455 232.66,755.49 C232.73,755.525 232.695,755.56 232.73,755.63 L232.8,755.63 C232.87,755.7 232.905,755.7 232.975,755.805 C232.975,755.805 233.01,755.84 233.045,755.84 C233.08,755.945 233.22,755.945 233.36,755.945 L233.465,755.945 C233.5,755.98 233.535,755.98 233.605,755.98 L233.64,755.98 C233.71,755.98 233.78,756.12 233.85,756.12 C233.85,756.19 233.885,756.295 233.92,756.365 C233.92,756.4 233.99,756.4 233.99,756.435 C233.885,756.54 233.815,756.645 233.78,756.785 C233.78,756.82 233.815,756.82 233.815,756.82 C233.85,756.82 233.885,756.855 233.885,756.89 L233.99,756.89 L233.99,756.925 L234.025,756.89 C234.025,756.89 234.095,756.75 234.165,756.75 C234.235,756.75 234.34,756.785 234.41,756.82 C234.445,756.82 234.48,756.82 234.48,756.855 L234.48,756.96 L234.515,756.96 C234.55,756.96 234.55,756.925 234.585,756.925 C234.62,756.925 234.655,756.96 234.725,756.96 L234.865,756.925 C234.9,756.925 234.97,756.96 235.005,756.96 C235.04,757.03 235.075,757.065 235.145,757.1 L235.25,757.1 C235.285,757.1 235.32,757.17 235.32,757.24 C235.285,757.45 235.18,757.66 235.04,757.8 L234.97,757.87 L234.865,757.975 C234.795,758.045 234.865,758.045 234.865,758.15 C234.865,758.255 234.795,758.395 234.795,758.43 C234.795,758.465 234.795,758.465 234.76,758.465 L234.69,758.535 C234.69,758.57 234.655,758.605 234.655,758.64 C234.585,758.71 234.585,758.745 234.515,758.815 C234.445,758.885 234.48,758.885 234.48,758.885 C234.445,758.955 234.375,758.99 234.34,758.99 C234.27,758.99 234.235,759.025 234.165,759.025 C234.13,759.025 234.13,759.06 234.13,759.06 C234.025,759.165 233.955,759.13 233.885,759.235 C233.815,759.34 233.815,759.305 233.78,759.305 C233.745,759.305 233.745,759.305 233.745,759.34 C233.745,759.375 233.71,759.515 233.71,759.585 C233.64,759.62 233.605,759.69 233.535,759.76 C233.5,759.795 233.535,759.725 233.5,759.795 C233.465,759.865 233.325,759.97 233.255,760.04 C233.185,760.11 233.115,760.285 232.94,760.32 L232.625,760.32 C232.625,760.32 232.66,760.355 232.695,760.355 C232.73,760.355 232.695,760.39 232.73,760.425 C232.765,760.46 232.8,760.425 232.765,760.46 C232.73,760.495 232.765,760.495 232.73,760.53 L232.625,760.635 C232.555,760.67 232.485,760.705 232.38,760.74 C232.31,760.775 232.205,760.74 232.17,760.775 C232.135,760.81 232.17,760.845 232.135,760.88 L231.995,760.95 L231.89,760.95 C231.855,760.95 231.855,760.95 231.855,760.985 C231.575,761.055 231.295,761.125 230.98,761.16 L231.015,761.09 L231.015,761.055 L230.98,761.055 C230.945,761.055 230.945,761.09 230.91,761.09 C230.875,761.09 230.91,761.02 230.91,760.985 C230.91,760.95 230.945,760.915 230.945,760.88 C230.945,760.845 230.98,760.88 230.98,760.88 C230.98,760.88 230.98,760.845 230.945,760.845 L230.945,760.74 C230.98,760.67 231.015,760.635 231.05,760.565 C231.05,760.53 231.085,760.495 231.085,760.495 C231.085,760.495 231.12,760.495 231.12,760.46 C231.155,760.39 231.155,760.355 231.19,760.285 C231.225,760.215 231.19,760.145 231.19,760.075 C231.19,760.005 231.225,759.97 231.225,759.935 C231.225,759.83 231.295,759.76 231.33,759.655 L231.33,759.62 C231.33,759.585 231.365,759.55 231.365,759.515 L231.365,759.375 C231.365,759.34 231.4,759.235 231.4,759.165 L231.4,758.885 C231.365,758.815 231.295,758.745 231.225,758.71 C231.155,758.71 231.12,758.71 231.05,758.675 C231.015,758.64 230.98,758.605 230.91,758.605 C230.805,758.57 230.735,758.535 230.665,758.465 C230.63,758.43 230.665,758.395 230.665,758.36 C230.665,758.325 230.595,758.29 230.595,758.22 C230.595,758.15 230.525,758.045 230.525,757.975 L230.42,757.765 C230.42,757.8 230.35,757.8 230.35,757.8 C230.315,757.765 230.315,757.73 230.315,757.695 C230.315,757.66 230.28,757.66 230.245,757.66 C230.175,757.625 230.14,757.555 230.14,757.485 C230.14,757.45 230.175,757.38 230.175,757.345 C230.21,757.275 230.315,757.275 230.315,757.205 C230.28,757.17 230.28,757.205 230.245,757.205 C230.21,757.205 230.175,757.135 230.175,757.065 C230.21,756.96 230.21,756.82 230.21,756.715 C230.35,756.715 230.385,756.61 230.42,756.54 C230.455,756.47 230.595,756.47 230.63,756.365 L230.595,756.33 L230.595,756.26 C230.595,756.225 230.56,756.19 230.56,756.155 C230.56,756.12 230.595,756.085 230.595,756.05 C230.595,756.015 230.525,755.98 230.525,755.91 L230.525,755.875 L230.49,755.84 L230.525,755.805 C230.49,755.77 230.49,755.7 230.455,755.7 C230.385,755.735 230.35,755.77 230.28,755.805 L230.315,755.84 C230.315,755.875 230.28,755.91 230.245,755.91 C230.175,755.91 230.105,755.84 230.07,755.805 C230.035,755.77 229.965,755.805 229.93,755.805 C229.895,755.805 229.895,755.805 229.895,755.77 C229.825,755.77 229.825,755.7 229.825,755.665 C229.755,755.63 229.72,755.595 229.65,755.56 L229.65,755.595 L229.615,755.595 C229.545,755.56 229.58,755.49 229.58,755.42 C229.545,755.385 229.51,755.35 229.475,755.35 C229.405,755.28 229.335,755.245 229.3,755.14 L229.265,755.14 C229.23,755.14 229.195,755.175 229.16,755.175 C229.09,755.175 229.02,755.14 228.95,755.105 C228.845,755.07 228.81,755.105 228.705,755.035 C228.565,754.965 228.53,754.79 228.39,754.72 L228.355,754.72 C228.32,754.685 228.285,754.685 228.25,754.685 C228.18,754.685 228.145,754.755 228.075,754.755 C228.04,754.755 228.005,754.72 227.97,754.72 L227.865,754.72 C227.76,754.685 227.69,754.65 227.62,754.58 C227.585,754.545 227.55,754.58 227.48,754.58 C227.41,754.58 227.41,754.51 227.34,754.475 C227.27,754.44 227.235,754.475 227.2,754.44 L227.165,754.405 C227.095,754.37 226.99,754.335 226.955,754.265 C226.92,754.265 226.885,754.195 226.885,754.195 C226.885,754.195 226.92,754.125 226.92,754.09 C226.92,754.055 226.885,754.02 226.885,753.985 C226.85,753.845 226.745,753.705 226.64,753.6 C226.605,753.565 226.535,753.53 226.5,753.495 C226.465,753.46 226.5,753.425 226.465,753.39 C226.43,753.355 226.29,753.32 226.29,753.25 L226.255,753.25 L226.115,753.11 C226.08,753.075 226.08,753.005 226.045,752.97 C226.01,752.935 226.01,752.83 225.975,752.83 C225.94,752.83 225.835,752.795 225.8,752.76 L225.8,752.795 C225.8,752.865 225.835,752.935 225.87,753.005 C225.905,753.075 225.94,753.075 226.01,753.11 C226.045,753.145 226.08,753.215 226.08,753.25 C226.115,753.355 226.185,753.39 226.22,753.46 C226.22,753.565 226.29,753.635 226.36,753.705 C226.395,753.67 226.43,753.74 226.43,753.775 C226.43,753.81 226.395,753.845 226.395,753.845 C226.36,753.81 226.36,753.775 226.325,753.74 C226.255,753.74 226.22,753.635 226.15,753.6 C226.08,753.565 226.115,753.6 226.115,753.565 L226.115,753.46 C226.115,753.425 226.045,753.355 226.01,753.32 C225.975,753.285 225.835,753.32 225.8,753.25 C225.835,753.25 225.905,753.25 225.87,753.215 C225.835,753.145 225.765,753.075 225.66,753.005 C225.625,752.97 225.625,752.865 225.59,752.83 C225.555,752.76 225.52,752.725 225.485,752.655 L225.485,752.62 C225.38,752.515 225.24,752.41 225.1,752.41 C225.065,752.41 225.065,752.34 225.065,752.34 C225.03,752.2 224.925,752.27 224.96,752.13 C224.89,752.13 224.82,751.955 224.75,751.85 C224.75,751.815 224.785,751.78 224.785,751.78 C224.75,751.71 224.75,751.64 224.75,751.57 L224.75,751.43 C225.8,750.03 227.27,749.085 228.915,748.805 L228.915,748.805 Z" id="info_url_hover"></path>
        </g>
    </g>
</svg>