<?xml version="1.0" encoding="UTF-8"?>
<svg width="12px" height="12px" viewBox="0 0 12 12" version="1.1" xmlns="http://www.w3.org/2000/svg" xmlns:xlink="http://www.w3.org/1999/xlink">
    <title>路径备份 5</title>
    <g id="2.2" stroke="none" stroke-width="1" fill="none" fill-rule="evenodd">
        <g id="打标签-已选择，未点击" transform="translate(-1106.000000, -354.000000)" fill="#6A748B" fill-rule="nonzero">
            <g id="*right" transform="translate(921.000000, 14.100505)">
                <g id="素材信息" transform="translate(0.000000, 311.899495)">
                    <g id="编组-27" transform="translate(125.003844, 28.000000)">
                        <path d="M65.8527833,0 C66.1565023,0 66.4324741,0.183731251 66.5667104,0.476201395 L67.9435699,3.46089677 L71.0212558,3.93934794 C71.4577112,4.0053412 71.7614302,4.43729712 71.7006864,4.90374951 C71.6820995,5.0504792 71.6268139,5.18951249 71.5407174,5.30832615 L71.46971,5.39344954 L69.2424373,7.71671242 L69.7688836,10.9998773 C69.8438759,11.46408 69.5544055,11.9057849 69.1209497,11.9875265 C68.9460287,12.0197997 68.7653306,11.9889747 68.6110018,11.9005354 L65.8527833,10.3496937 L63.1005642,11.8975357 C62.9117932,12.0020935 62.6878656,12.0228321 62.4831032,11.9547204 C62.2783408,11.8866088 62.1114529,11.7358704 62.0229241,11.5390723 C61.9412435,11.371101 61.913479,11.1819883 61.9434323,10.9976276 L62.4691286,7.71296281 L60.2418559,5.39344954 C59.9252245,5.05490804 59.9187227,4.53086585 60.2268575,4.18457291 C60.3475951,4.05108653 60.5088287,3.96334549 60.6835608,3.93559833 L63.7634965,3.45864701 L65.1373563,0.476201395 C65.2648433,0.187480863 65.5438148,0.00149984738 65.8527833,0 Z M67.2601317,4.36666225 L65.851,1.314 L64.4471218,4.36470186 L61.133,4.878 L63.5352359,7.37942718 L62.985,10.814 L65.8527241,9.20242957 L68.726,10.818 L68.1762827,7.38380619 L70.574,4.881 L67.2601317,4.36666225 Z" id="路径备份-5"></path>
                    </g>
                </g>
            </g>
        </g>
    </g>
</svg>