<?xml version="1.0" encoding="UTF-8"?>
<svg width="14px" height="14px" viewBox="0 0 14 14" version="1.1" xmlns="http://www.w3.org/2000/svg" xmlns:xlink="http://www.w3.org/1999/xlink">
    <!-- Generator: Sketch 61 (89581) - https://sketch.com -->
    <title>info_index_normal</title>
    <desc>Created with Sketch.</desc>
    <g id="图标" stroke="none" stroke-width="1" fill="none" fill-rule="evenodd">
        <g id="切图" transform="translate(-516.000000, -444.000000)" fill="#A2ABC3" fill-rule="nonzero">
            <path d="M521.834446,448.29202 L522.043297,448.30016 C523.159062,448.372601 524.167558,448.948878 524.851807,449.850734 C525.031403,450.103058 524.995646,450.427824 524.743725,450.607707 C524.491804,450.788403 524.166745,450.75259 523.987963,450.499451 C523.519065,449.850734 522.763303,449.45434 521.970971,449.381899 C521.166699,449.342755 520.38298,449.643691 519.810953,450.211313 L517.831343,452.229908 C516.77868,453.33396 516.79453,455.076623 517.867099,456.161284 C518.935926,457.235033 520.667259,457.250979 521.755619,456.197098 L522.871385,455.042917 C523.087549,454.827221 523.410983,454.827221 523.663716,455.007104 C523.767164,455.105737 523.825718,455.242536 523.825718,455.38559 C523.825718,455.528644 523.767164,455.665443 523.663716,455.764077 L522.547138,456.918257 C521.8199,457.613552 520.85289,458.001034 519.847522,457.999998 C518.839839,457.999998 517.867099,457.639416 517.111337,456.882443 C515.635569,455.403497 515.635569,452.951067 517.07558,451.437121 L519.055191,449.418526 C519.842779,448.6303 520.932629,448.222399 522.043297,448.30016 L521.834446,448.29202 Z M523.484121,445.090757 C524.995646,443.612625 527.407585,443.648438 528.883353,445.127385 C530.359934,446.605517 530.359934,449.057133 528.955679,450.571893 L526.975256,452.590488 C526.25525,453.348275 525.247567,453.745482 524.239071,453.745482 L523.951394,453.745482 C522.835628,453.672226 521.827132,453.09595 521.143695,452.194908 C520.963288,451.942584 520.999044,451.617004 521.250965,451.437935 C521.502886,451.257238 521.827945,451.293052 522.006727,451.545376 C522.475625,452.194908 523.231388,452.591301 524.023719,452.662929 C524.815238,452.699557 525.60757,452.410605 526.183737,451.834328 L528.163347,449.81492 C529.21601,448.710868 529.20016,446.968204 528.127591,445.883544 C527.058541,444.810023 525.32721,444.79444 524.239071,445.848544 L523.087549,447.00191 C522.989073,447.105524 522.852493,447.164171 522.709668,447.164171 C522.566843,447.164171 522.430262,447.105524 522.331787,447.00191 C522.228339,446.903277 522.169785,446.766478 522.169785,446.623424 C522.169785,446.48037 522.228339,446.343571 522.331787,446.244937 L523.484121,445.090757 Z" id="info_index_normal"></path>
        </g>
    </g>
</svg>