<?xml version="1.0" encoding="UTF-8"?>
<svg width="14px" height="14px" viewBox="0 0 14 14" version="1.1" xmlns="http://www.w3.org/2000/svg" xmlns:xlink="http://www.w3.org/1999/xlink">
    <!-- Generator: Sketch 61 (89581) - https://sketch.com -->
    <title>info_url_normal</title>
    <desc>Created with Sketch.</desc>
    <g id="图标" stroke="none" stroke-width="1" fill="none" fill-rule="evenodd">
        <g id="切图" transform="translate(-189.000000, -748.000000)" fill="#A2ABC3" fill-rule="nonzero">
            <path d="M196,748 C192.15,748 189,751.15 189,755 C189,758.85 192.15,762 196,762 C199.85,762 203,758.85 203,755 C203,751.15 199.85,748 196,748 Z M202.195,756.015 L202.16,755.98 L201.845,755.665 L201.775,755.595 C201.775,755.49 201.74,755.455 201.775,755.42 C201.81,755.385 201.67,755.21 201.635,755.14 C201.775,755 201.88,754.825 201.88,754.65 C201.845,754.405 201.775,754.16 201.705,753.95 C201.705,753.81 201.81,753.775 201.845,753.67 C201.88,753.53 201.95,753.355 201.985,753.215 C202.3,754.09 202.37,755.07 202.195,756.015 L202.195,756.015 Z M200.025,750.205 C199.955,750.205 200.025,750.31 199.92,750.275 C199.885,750.275 199.885,750.275 199.885,750.24 L199.815,750.24 C199.745,750.205 199.71,750.135 199.64,750.135 L199.5,750.135 C199.465,750.135 199.5,750.1 199.43,750.065 C199.36,750.03 199.395,750.03 199.395,750.03 C199.29,749.995 199.22,749.89 199.185,749.82 C199.185,749.785 199.185,749.82 199.22,749.785 C199.15,749.75 199.15,749.785 199.115,749.75 C199.08,749.715 199.08,749.715 199.08,749.68 C199.08,749.645 198.94,749.61 198.94,749.575 C198.94,749.54 198.94,749.575 198.975,749.54 L198.905,749.54 L198.905,749.505 C198.94,749.47 198.975,749.47 199.01,749.47 C199.36,749.68 199.71,749.89 200.025,750.205 C200.025,750.17 200.025,750.205 200.025,750.205 L200.025,750.205 Z M197.785,749.26 L197.75,749.26 L197.715,749.225 C197.61,749.19 197.54,749.19 197.435,749.155 C197.33,749.12 197.05,749.12 197.12,749.05 C196.98,749.015 196.91,748.98 196.805,748.945 C196.77,748.945 196.77,748.98 196.735,748.98 L196.665,748.98 C196.63,748.98 196.595,749.015 196.525,748.98 C196.455,748.945 196.35,748.945 196.35,748.91 C196.35,748.875 196.455,748.875 196.525,748.875 L196.875,748.875 L196.805,748.84 L196.91,748.84 C196.945,748.84 196.98,748.805 197.015,748.805 C197.19,748.84 197.4,748.875 197.575,748.91 L197.645,748.91 L197.575,748.91 L197.575,748.945 L197.61,748.945 C197.645,748.98 197.68,749.015 197.715,749.015 C197.785,749.015 197.82,749.015 197.82,749.05 L197.89,749.05 L197.89,749.085 L197.96,749.12 C197.96,749.12 197.925,749.155 197.925,749.19 C197.785,749.155 197.68,749.12 197.54,749.085 L197.47,749.085 C197.54,749.155 197.75,749.19 197.785,749.26 L197.785,749.26 Z M195.685,748.8 L195.545,748.8 C195.51,748.8 195.44,748.75 195.405,748.75 C195.58,748.75 195.755,748.7 195.93,748.7 C195.86,748.75 195.755,748.8 195.72,748.8 L195.685,748.8 L195.685,748.8 Z M195.37,748.77 C195.37,748.805 195.23,748.805 195.16,748.805 C195.09,748.805 195.055,748.805 194.985,748.77 C195.125,748.735 195.23,748.735 195.37,748.7 L195.37,748.77 Z M197.785,748.98 L198.03,749.08 L197.995,749.08 C197.925,749.08 197.855,749.03 197.785,748.98 Z M194.915,748.805 C195.02,748.84 195.125,748.84 195.23,748.84 L195.23,748.875 C195.16,748.91 195.09,748.945 195.02,748.945 L194.915,748.945 C194.88,748.945 194.915,749.015 194.81,748.98 C194.46,748.945 194.6,748.98 194.565,748.98 C194.635,748.98 194.775,748.98 194.775,749.015 C194.775,749.05 194.705,749.015 194.635,749.05 C194.6,749.085 194.53,749.12 194.495,749.155 C194.39,749.19 194.355,749.295 194.32,749.4 L194.32,749.505 C194.355,749.505 194.39,749.47 194.425,749.47 C194.46,749.47 194.565,749.61 194.6,749.645 C194.67,749.645 194.705,749.61 194.775,749.61 C194.845,749.61 194.915,749.645 194.95,749.645 C195.125,749.68 195.3,749.715 195.475,749.785 C195.58,749.785 195.65,749.82 195.755,749.82 C195.86,749.82 195.895,749.925 195.895,749.995 C195.895,750.065 196.07,750.17 196.175,750.24 L196.315,750.24 C196.315,750.205 196.35,750.17 196.385,750.135 C196.315,750.065 196.385,749.96 196.21,749.89 C196.315,749.89 196.56,749.785 196.56,749.715 C196.56,749.645 196.595,749.575 196.525,749.54 C196.455,749.505 196.385,749.54 196.35,749.47 C196.42,749.47 196.525,749.435 196.49,749.365 C196.455,749.295 196.35,749.295 196.385,749.26 C196.525,749.225 196.385,749.19 196.385,749.155 C196.385,749.12 196.455,749.085 196.525,749.085 C196.63,749.085 196.7,749.12 196.84,749.155 L196.945,749.155 C197.05,749.155 197.05,749.19 197.155,749.225 C197.155,749.295 197.365,749.295 197.4,749.33 C197.435,749.4 197.4,749.505 197.47,749.505 C197.54,749.505 197.575,749.61 197.645,749.61 C197.715,749.61 197.715,749.575 197.785,749.575 C197.855,749.575 197.925,749.54 197.89,749.505 C197.855,749.47 197.96,749.47 197.96,749.435 C197.995,749.435 197.995,749.47 198.03,749.47 C198.065,749.54 198.205,749.575 198.17,749.61 C198.135,749.645 198.275,749.715 198.31,749.715 C198.345,749.715 198.345,749.75 198.345,749.785 C198.345,749.82 198.31,749.82 198.31,749.82 C198.38,749.855 198.45,749.89 198.52,749.89 C198.52,749.995 198.73,750.03 198.835,750.03 L198.87,750.065 C198.87,750.065 198.66,750.1 198.555,750.135 L198.59,750.135 C198.695,750.135 198.835,750.135 198.94,750.1 L198.94,750.135 C198.94,750.135 198.94,750.17 198.975,750.17 C199.01,750.205 199.045,750.24 199.045,750.31 C199.045,750.38 198.765,750.345 198.695,750.415 C198.59,750.52 198.415,750.45 198.205,750.415 C198.065,750.38 197.925,750.38 197.82,750.415 C197.715,750.45 197.75,750.485 197.715,750.52 C197.68,750.555 197.54,750.555 197.505,750.66 C197.645,750.66 197.715,750.555 197.89,750.555 C197.995,750.555 198.1,750.555 198.1,750.625 C198.1,750.695 197.96,750.695 197.925,750.73 L198.03,750.73 C198.03,750.835 198.24,750.94 198.345,750.94 C198.38,750.94 198.485,750.94 198.485,751.01 C198.38,751.045 198.31,751.08 198.205,751.115 C198.135,751.15 198.03,751.22 198.03,751.22 C197.995,751.22 197.995,751.185 197.96,751.15 C197.96,751.08 198.1,751.01 198.205,751.01 C198.135,751.01 198.135,751.01 198.135,750.94 C198.065,750.94 198.065,750.975 198.03,751.01 L197.82,751.01 C197.82,751.01 197.82,751.045 197.855,751.045 C197.785,751.115 197.75,751.15 197.68,751.15 C197.645,751.15 197.61,751.15 197.575,751.185 C197.505,751.255 197.365,751.185 197.365,751.325 L197.365,751.36 L197.4,751.43 L197.435,751.395 L197.435,751.43 L197.295,751.43 C197.19,751.465 197.05,751.465 196.98,751.5 L197.155,751.5 L196.945,751.5 L196.91,751.535 L196.945,751.57 C196.945,751.57 196.84,751.745 196.805,751.745 C196.77,751.745 196.77,751.71 196.77,751.71 L196.735,751.745 C196.735,751.78 196.77,751.78 196.77,751.815 C196.735,751.885 196.7,751.92 196.665,751.99 L196.665,751.92 C196.665,751.92 196.63,751.815 196.63,751.78 L196.63,751.815 C196.63,751.85 196.665,751.92 196.665,751.955 L196.665,752.025 C196.665,752.06 196.7,752.025 196.7,752.025 L196.7,752.06 C196.7,752.06 196.665,752.095 196.63,752.095 C196.63,752.13 196.665,752.13 196.7,752.13 C196.7,752.165 196.665,752.165 196.63,752.165 C196.595,752.165 196.63,752.2 196.63,752.2 L196.665,752.235 L196.63,752.27 C196.63,752.27 196.56,752.305 196.525,752.305 C196.49,752.305 196.455,752.34 196.455,752.34 C196.245,752.445 196,752.445 196,752.76 C196,752.9 196.14,752.935 196.14,753.075 L196.14,753.11 C196.14,753.145 196.21,753.215 196.21,753.285 C196.21,753.355 196.175,753.46 196.105,753.46 C196.035,753.46 196.035,753.39 196,753.355 C195.93,753.32 195.895,753.25 195.86,753.215 C195.79,753.075 195.86,752.83 195.65,752.83 C195.615,752.83 195.58,752.9 195.545,752.9 C195.44,752.9 195.405,752.795 195.3,752.795 C195.195,752.795 195.195,752.83 195.195,752.83 L195.16,752.795 C195.09,752.795 194.985,752.795 194.915,752.83 L194.985,752.83 C194.985,752.9 194.95,752.935 194.985,752.97 C194.845,753.04 194.74,752.9 194.635,752.9 C194.6,752.9 194.6,752.935 194.565,752.935 L194.46,752.935 C194.32,752.935 194.25,753.04 194.215,753.075 C194.18,753.11 194.145,753.075 194.075,753.11 C193.97,753.145 193.9,753.25 193.9,753.355 L193.935,753.39 C193.935,753.425 193.935,753.425 193.97,753.46 C193.97,753.53 193.935,753.565 193.935,753.635 L193.935,754.055 C193.97,754.09 194.005,754.125 194.04,754.195 C194.11,754.265 194.11,754.335 194.25,754.37 C194.285,754.37 194.285,754.405 194.32,754.405 C194.425,754.405 194.495,754.335 194.565,754.335 C194.6,754.335 194.635,754.335 194.67,754.37 C194.705,754.37 194.74,754.3 194.74,754.3 C194.74,754.3 194.845,754.195 194.845,754.125 C194.845,753.985 195.02,753.985 195.16,753.985 L195.3,753.985 L195.3,754.02 C195.3,754.02 195.23,754.16 195.23,754.23 C195.23,754.3 195.195,754.335 195.16,754.37 L195.16,754.335 L195.16,754.545 C195.16,754.615 195.09,754.615 195.09,754.65 L195.09,754.685 C195.09,754.72 195.125,754.72 195.16,754.72 C195.335,754.72 195.44,754.685 195.615,754.685 C195.79,754.685 195.755,754.755 195.825,754.79 L195.825,754.86 C195.825,754.93 195.825,755.035 195.79,755.105 L195.79,755.385 C195.79,755.49 195.895,755.525 195.965,755.56 C196.035,755.595 196,755.665 196.105,755.665 C196.21,755.665 196.28,755.595 196.385,755.56 C196.49,755.525 196.525,755.7 196.595,755.735 L196.56,755.77 L196.595,755.735 L196.665,755.735 L196.665,755.7 L196.7,755.665 C196.7,755.63 196.735,755.595 196.77,755.595 C196.805,755.595 196.805,755.525 196.805,755.49 C196.805,755.455 196.875,755.42 196.945,755.385 L197.26,755.28 C197.33,755.245 197.33,755.21 197.4,755.21 C197.47,755.21 197.435,755.245 197.435,755.245 C197.435,755.28 197.4,755.28 197.4,755.28 C197.365,755.35 197.365,755.385 197.365,755.455 C197.365,755.49 197.365,755.595 197.435,755.595 C197.505,755.595 197.47,755.525 197.47,755.525 C197.47,755.525 197.4,755.455 197.435,755.385 C197.47,755.315 197.505,755.35 197.54,755.315 L197.645,755.315 C197.645,755.28 197.54,755.28 197.575,755.245 L197.645,755.245 C197.645,755.315 197.785,755.35 197.82,755.35 C197.82,755.385 197.855,755.42 197.855,755.42 L198.1,755.42 C198.1,755.455 198.17,755.455 198.205,755.455 C198.24,755.455 198.31,755.455 198.345,755.385 C198.38,755.385 198.415,755.385 198.45,755.35 L198.555,755.35 L198.485,755.35 L198.485,755.385 C198.485,755.385 198.59,755.455 198.66,755.49 C198.73,755.525 198.695,755.56 198.73,755.63 L198.8,755.63 C198.87,755.7 198.905,755.7 198.975,755.805 C198.975,755.805 199.01,755.84 199.045,755.84 C199.08,755.945 199.22,755.945 199.36,755.945 L199.465,755.945 C199.5,755.98 199.535,755.98 199.605,755.98 L199.64,755.98 C199.71,755.98 199.78,756.12 199.85,756.12 C199.85,756.19 199.885,756.295 199.92,756.365 C199.92,756.4 199.99,756.4 199.99,756.435 C199.885,756.54 199.815,756.645 199.78,756.785 C199.78,756.82 199.815,756.82 199.815,756.82 C199.85,756.82 199.885,756.855 199.885,756.89 L199.99,756.89 L199.99,756.925 L200.025,756.89 C200.025,756.89 200.095,756.75 200.165,756.75 C200.235,756.75 200.34,756.785 200.41,756.82 C200.445,756.82 200.48,756.82 200.48,756.855 L200.48,756.96 L200.515,756.96 C200.55,756.96 200.55,756.925 200.585,756.925 C200.62,756.925 200.655,756.96 200.725,756.96 L200.865,756.925 C200.9,756.925 200.97,756.96 201.005,756.96 C201.04,757.03 201.075,757.065 201.145,757.1 L201.25,757.1 C201.285,757.1 201.32,757.17 201.32,757.24 C201.285,757.45 201.18,757.66 201.04,757.8 L200.97,757.87 L200.865,757.975 C200.795,758.045 200.865,758.045 200.865,758.15 C200.865,758.255 200.795,758.395 200.795,758.43 C200.795,758.465 200.795,758.465 200.76,758.465 L200.69,758.535 C200.69,758.57 200.655,758.605 200.655,758.64 C200.585,758.71 200.585,758.745 200.515,758.815 C200.445,758.885 200.48,758.885 200.48,758.885 C200.445,758.955 200.375,758.99 200.34,758.99 C200.27,758.99 200.235,759.025 200.165,759.025 C200.13,759.025 200.13,759.06 200.13,759.06 C200.025,759.165 199.955,759.13 199.885,759.235 C199.815,759.34 199.815,759.305 199.78,759.305 C199.745,759.305 199.745,759.305 199.745,759.34 C199.745,759.375 199.71,759.515 199.71,759.585 C199.64,759.62 199.605,759.69 199.535,759.76 C199.5,759.795 199.535,759.725 199.5,759.795 C199.465,759.865 199.325,759.97 199.255,760.04 C199.185,760.11 199.115,760.285 198.94,760.32 L198.625,760.32 C198.625,760.32 198.66,760.355 198.695,760.355 C198.73,760.355 198.695,760.39 198.73,760.425 C198.765,760.46 198.8,760.425 198.765,760.46 C198.73,760.495 198.765,760.495 198.73,760.53 L198.625,760.635 C198.555,760.67 198.485,760.705 198.38,760.74 C198.31,760.775 198.205,760.74 198.17,760.775 C198.135,760.81 198.17,760.845 198.135,760.88 L197.995,760.95 L197.89,760.95 C197.855,760.95 197.855,760.95 197.855,760.985 C197.575,761.055 197.295,761.125 196.98,761.16 L197.015,761.09 L197.015,761.055 L196.98,761.055 C196.945,761.055 196.945,761.09 196.91,761.09 C196.875,761.09 196.91,761.02 196.91,760.985 C196.91,760.95 196.945,760.915 196.945,760.88 C196.945,760.845 196.98,760.88 196.98,760.88 C196.98,760.88 196.98,760.845 196.945,760.845 L196.945,760.74 C196.98,760.67 197.015,760.635 197.05,760.565 C197.05,760.53 197.085,760.495 197.085,760.495 C197.085,760.495 197.12,760.495 197.12,760.46 C197.155,760.39 197.155,760.355 197.19,760.285 C197.225,760.215 197.19,760.145 197.19,760.075 C197.19,760.005 197.225,759.97 197.225,759.935 C197.225,759.83 197.295,759.76 197.33,759.655 L197.33,759.62 C197.33,759.585 197.365,759.55 197.365,759.515 L197.365,759.375 C197.365,759.34 197.4,759.235 197.4,759.165 L197.4,758.885 C197.365,758.815 197.295,758.745 197.225,758.71 C197.155,758.71 197.12,758.71 197.05,758.675 C197.015,758.64 196.98,758.605 196.91,758.605 C196.805,758.57 196.735,758.535 196.665,758.465 C196.63,758.43 196.665,758.395 196.665,758.36 C196.665,758.325 196.595,758.29 196.595,758.22 C196.595,758.15 196.525,758.045 196.525,757.975 L196.42,757.765 C196.42,757.8 196.35,757.8 196.35,757.8 C196.315,757.765 196.315,757.73 196.315,757.695 C196.315,757.66 196.28,757.66 196.245,757.66 C196.175,757.625 196.14,757.555 196.14,757.485 C196.14,757.45 196.175,757.38 196.175,757.345 C196.21,757.275 196.315,757.275 196.315,757.205 C196.28,757.17 196.28,757.205 196.245,757.205 C196.21,757.205 196.175,757.135 196.175,757.065 C196.21,756.96 196.21,756.82 196.21,756.715 C196.35,756.715 196.385,756.61 196.42,756.54 C196.455,756.47 196.595,756.47 196.63,756.365 L196.595,756.33 L196.595,756.26 C196.595,756.225 196.56,756.19 196.56,756.155 C196.56,756.12 196.595,756.085 196.595,756.05 C196.595,756.015 196.525,755.98 196.525,755.91 L196.525,755.875 L196.49,755.84 L196.525,755.805 C196.49,755.77 196.49,755.7 196.455,755.7 C196.385,755.735 196.35,755.77 196.28,755.805 L196.315,755.84 C196.315,755.875 196.28,755.91 196.245,755.91 C196.175,755.91 196.105,755.84 196.07,755.805 C196.035,755.77 195.965,755.805 195.93,755.805 C195.895,755.805 195.895,755.805 195.895,755.77 C195.825,755.77 195.825,755.7 195.825,755.665 C195.755,755.63 195.72,755.595 195.65,755.56 L195.65,755.595 L195.615,755.595 C195.545,755.56 195.58,755.49 195.58,755.42 C195.545,755.385 195.51,755.35 195.475,755.35 C195.405,755.28 195.335,755.245 195.3,755.14 L195.265,755.14 C195.23,755.14 195.195,755.175 195.16,755.175 C195.09,755.175 195.02,755.14 194.95,755.105 C194.845,755.07 194.81,755.105 194.705,755.035 C194.565,754.965 194.53,754.79 194.39,754.72 L194.355,754.72 C194.32,754.685 194.285,754.685 194.25,754.685 C194.18,754.685 194.145,754.755 194.075,754.755 C194.04,754.755 194.005,754.72 193.97,754.72 L193.865,754.72 C193.76,754.685 193.69,754.65 193.62,754.58 C193.585,754.545 193.55,754.58 193.48,754.58 C193.41,754.58 193.41,754.51 193.34,754.475 C193.27,754.44 193.235,754.475 193.2,754.44 L193.165,754.405 C193.095,754.37 192.99,754.335 192.955,754.265 C192.92,754.265 192.885,754.195 192.885,754.195 C192.885,754.195 192.92,754.125 192.92,754.09 C192.92,754.055 192.885,754.02 192.885,753.985 C192.85,753.845 192.745,753.705 192.64,753.6 C192.605,753.565 192.535,753.53 192.5,753.495 C192.465,753.46 192.5,753.425 192.465,753.39 C192.43,753.355 192.29,753.32 192.29,753.25 L192.255,753.25 L192.115,753.11 C192.08,753.075 192.08,753.005 192.045,752.97 C192.01,752.935 192.01,752.83 191.975,752.83 C191.94,752.83 191.835,752.795 191.8,752.76 L191.8,752.795 C191.8,752.865 191.835,752.935 191.87,753.005 C191.905,753.075 191.94,753.075 192.01,753.11 C192.045,753.145 192.08,753.215 192.08,753.25 C192.115,753.355 192.185,753.39 192.22,753.46 C192.22,753.565 192.29,753.635 192.36,753.705 C192.395,753.67 192.43,753.74 192.43,753.775 C192.43,753.81 192.395,753.845 192.395,753.845 C192.36,753.81 192.36,753.775 192.325,753.74 C192.255,753.74 192.22,753.635 192.15,753.6 C192.08,753.565 192.115,753.6 192.115,753.565 L192.115,753.46 C192.115,753.425 192.045,753.355 192.01,753.32 C191.975,753.285 191.835,753.32 191.8,753.25 C191.835,753.25 191.905,753.25 191.87,753.215 C191.835,753.145 191.765,753.075 191.66,753.005 C191.625,752.97 191.625,752.865 191.59,752.83 C191.555,752.76 191.52,752.725 191.485,752.655 L191.485,752.62 C191.38,752.515 191.24,752.41 191.1,752.41 C191.065,752.41 191.065,752.34 191.065,752.34 C191.03,752.2 190.925,752.27 190.96,752.13 C190.89,752.13 190.82,751.955 190.75,751.85 C190.75,751.815 190.785,751.78 190.785,751.78 C190.75,751.71 190.75,751.64 190.75,751.57 L190.75,751.43 C191.8,750.03 193.27,749.085 194.915,748.805 L194.915,748.805 Z" id="info_url_normal"></path>
        </g>
    </g>
</svg>