<?xml version="1.0" encoding="UTF-8"?>
<svg width="12px" height="12px" viewBox="0 0 12 12" version="1.1" xmlns="http://www.w3.org/2000/svg" xmlns:xlink="http://www.w3.org/1999/xlink">
    <title>路径备份 4</title>
    <g id="2.2" stroke="none" stroke-width="1" fill="none" fill-rule="evenodd">
        <g id="打标签-已选择，未点击" transform="translate(-1091.000000, -354.000000)" fill="#FCD30F" fill-rule="nonzero">
            <g id="*right" transform="translate(921.000000, 14.100505)">
                <g id="素材信息" transform="translate(0.000000, 311.899495)">
                    <g id="编组-27" transform="translate(125.003844, 28.000000)">
                        <path d="M56.46971,5.39344954 L54.2424373,7.71671242 L54.7688836,10.9998773 C54.8438759,11.46408 54.5544055,11.9057849 54.1209497,11.9875265 C53.9460287,12.0197997 53.7653306,11.9889747 53.6110018,11.9005354 L50.8527833,10.3496937 L48.1005642,11.8975357 C47.9117932,12.0020935 47.6878656,12.0228321 47.4831032,11.9547204 C47.2783408,11.8866088 47.1114529,11.7358704 47.0229241,11.5390723 C46.9412435,11.371101 46.913479,11.1819883 46.9434323,10.9976276 L47.4691286,7.71296281 L45.2418559,5.39344954 C44.9252245,5.05490804 44.9187227,4.53086585 45.2268575,4.18457291 C45.3475951,4.05108653 45.5088287,3.96334549 45.6835608,3.93559833 L48.7634965,3.45864701 L50.1373563,0.476201395 C50.2648433,0.187480863 50.5438148,0.00149984738 50.8527833,0 C51.1565023,0 51.4324741,0.183731251 51.5667104,0.476201395 L52.9435699,3.46089677 L56.0212558,3.93934794 C56.4577112,4.0053412 56.7614302,4.43729712 56.7006864,4.90374951 C56.6774528,5.08716162 56.5968775,5.25854811 56.4704599,5.39344954 L56.46971,5.39344954 Z" id="路径备份-4"></path>
                    </g>
                </g>
            </g>
        </g>
    </g>
</svg>