<?xml version="1.0" encoding="UTF-8"?>
<svg width="20px" height="20px" viewBox="0 0 20 20" version="1.1" xmlns="http://www.w3.org/2000/svg" xmlns:xlink="http://www.w3.org/1999/xlink">
    <!-- Generator: Sketch 61 (89581) - https://sketch.com -->
    <title>形状</title>
    <desc>Created with Sketch.</desc>
    <g id="2.0正式2" stroke="none" stroke-width="1" fill="none" fill-rule="evenodd">
        <g id="加载素材库" transform="translate(-362.000000, -613.000000)" fill="#F7B500" fill-rule="nonzero">
            <path d="M365.666816,616.057168 C365.405538,615.795891 364.983475,615.795891 364.724431,616.057168 C364.463153,616.318446 364.463153,616.740509 364.724431,616.999553 L365.666816,617.941938 C365.928093,618.203216 366.350156,618.203216 366.609201,617.941938 C366.870478,617.680661 366.870478,617.258598 366.609201,616.999553 L365.666816,616.057168 L365.666816,616.057168 Z M378.333184,616.057168 L377.390799,616.999553 C377.129522,617.260831 377.129522,617.682894 377.390799,617.941938 C377.649844,618.203216 378.07414,618.203216 378.333184,617.941938 L379.275569,616.999553 C379.536847,616.738276 379.536847,616.316213 379.275569,616.057168 C379.014292,615.798124 378.592229,615.798124 378.333184,616.057168 L378.333184,616.057168 Z M364.000893,621.334078 L362.667709,621.334078 C362.299241,621.334078 362,621.633318 362,621.999553 C362,622.368021 362.299241,622.667262 362.667709,622.667262 L364.000893,622.667262 C364.369361,622.667262 364.668602,622.368021 364.668602,621.999553 C364.666369,621.631085 364.369361,621.334078 364.000893,621.334078 Z M381.332291,621.334078 L379.999107,621.334078 C379.630639,621.334078 379.331398,621.633318 379.331398,621.999553 C379.331398,622.368021 379.630639,622.667262 379.999107,622.667262 L381.332291,622.667262 C381.700759,622.667262 382,622.368021 382,621.999553 C382,621.631085 381.700759,621.334078 381.332291,621.334078 Z M371.332291,613.667709 L371.332291,615.000893 C371.332291,615.369361 371.631532,615.666369 372,615.666369 C372.368468,615.666369 372.667709,615.367128 372.667709,615.000893 L372.667709,613.667709 C372.667709,613.299241 372.368468,613 372,613 C371.631532,613 371.332291,613.299241 371.332291,613.667709 Z M365.999553,623 C365.999553,626.313979 368.686021,629.000447 372,629.000447 C375.313979,629.000447 378.000447,626.313979 378.000447,623 C378.000447,619.686021 375.313979,616.999553 372,616.999553 C368.686021,616.999553 365.999553,619.686021 365.999553,623 Z M370.666816,632.332291 C370.666816,632.700759 370.966056,633 371.334524,633 L372.667709,633 C373.036177,633 373.335418,632.700759 373.335418,632.332291 C373.335418,631.963823 373.036177,631.664582 372.667709,631.664582 L371.334524,631.664582 C370.966056,631.666816 370.666816,631.963823 370.666816,632.332291 Z M369.333631,630.333631 C369.333631,630.702099 369.632872,631.00134 369.999107,631.00134 L373.99866,631.00134 C374.367128,631.00134 374.666369,630.702099 374.666369,630.333631 C374.666369,629.965163 374.367128,629.665922 373.99866,629.665922 L369.999107,629.665922 C369.632872,629.665922 369.333631,629.965163 369.333631,630.333631 L369.333631,630.333631 Z" id="形状"></path>
        </g>
    </g>
</svg>