<?xml version="1.0" standalone="no"?><!DOCTYPE svg PUBLIC "-//W3C//DTD SVG 1.1//EN"
        "http://www.w3.org/Graphics/SVG/1.1/DTD/svg11.dtd">
<svg t="1649838419633" class="icon" viewBox="0 0 1024 1024" version="1.1" xmlns="http://www.w3.org/2000/svg" p-id="6192"
     xmlns:xlink="http://www.w3.org/1999/xlink" width="200" height="200">
    <defs>
        <style type="text/css"></style>
    </defs>
    <path d="M615.258348 678.548009a34.868555 34.868555 0 0 0-40.527285 24.2517c-6.574905 22.095993-38.748827 44.946484-81.108462 44.946484-38.694934 0-73.509597-19.724716-81.162356-45.862659a35.030233 35.030233 0 0 0-40.365607-24.628949l-139.47422 27.215797c4.419199-66.395765 26.137943-114.090774 70.114359-156.073161a35.030233 35.030233 0 0 0 10.778533-28.07808C295.620945 288.904033 392.789422 140.699201 493.514815 75.920216c99.970896 64.347843 196.762124 212.337105 180.001506 444.614496a35.138018 35.138018 0 0 0 11.101889 28.29365c44.730913 41.44346 66.719121 89.731289 71.192212 158.06719l-140.552074-28.347543z m129.126829-169.276864c13.688737-263.589031-107.13862-431.195222-226.618662-500.662869L511.19161 4.781896a35.407482 35.407482 0 0 0-35.353589 0l-6.521013 3.772487c-120.396216 70.060466-241.762501 238.097799-226.726446 500.986225C187.512257 567.690795 161.69767 638.667436 161.69767 731.362822v15.844444a35.030233 35.030233 0 0 0 41.766816 34.383521l155.372557-30.341571c25.976265 40.365607 77.120405 66.611335 134.785558 66.611336 57.287904 0 108.216474-25.760694 134.300524-65.317912l156.881551 31.688888a35.245804 35.245804 0 0 0 41.982387-34.329628v-15.844444c-0.107785-96.521765-25.652909-166.636124-82.401886-224.786311zM484.784204 845.615275a43.383596 43.383596 0 0 1 51.790852 51.790852c0 29.263718-24.736734 70.922749-36.37755 88.922899l-4.311413 6.46712-1.61678 2.317385s-42.305743-63.431668-42.305743-97.707404a43.329704 43.329704 0 0 1 32.874526-51.73696z m4.473091-608.232631l10.131821 0.269463a113.767418 113.767418 0 0 1 79.491683 37.18594c20.640891 22.63492 31.257746 51.95253 29.91043 82.563564a113.929096 113.929096 0 0 1-37.18594 79.43779s-0.107785 0-0.161678 0.107786c-21.880422 19.832501-49.581253 29.587074-77.066513 29.587074a114.629701 114.629701 0 0 1-84.611486-36.754799 114.953057 114.953057 0 0 1 7.113832-162.216925c22.63492-20.694784 51.898638-32.120029 82.509672-29.91043z m4.958125 59.443611a55.347768 55.347768 0 0 0-40.850641 92.695385 56.048373 56.048373 0 0 0 78.306044 3.556916 55.293876 55.293876 0 0 0 3.395238-78.198258 54.862734 54.862734 0 0 0-38.263793-18.000151l-2.586848-0.053892z"
          fill="#E0E7FA" p-id="6193"></path>
</svg>