<?xml version="1.0" encoding="UTF-8"?>
<svg width="15px" height="20px" viewBox="0 0 15 20" version="1.1" xmlns="http://www.w3.org/2000/svg" xmlns:xlink="http://www.w3.org/1999/xlink">
    <!-- Generator: Sketch 61 (89581) - https://sketch.com -->
    <title>label_usually_icon</title>
    <desc>Created with Sketch.</desc>
    <g id="图标" stroke="none" stroke-width="1" fill="none" fill-rule="evenodd">
        <g id="切图" transform="translate(-360.000000, -364.000000)" fill="#4F84FA" fill-rule="nonzero">
            <g id="label_usually_icon" transform="translate(360.000000, 364.000000)">
                <path d="M9.34070956,1.78059146 L9.42210707,1.85757826 L10.4361676,2.86161451 C10.5270422,2.94979059 10.5701303,3.07619114 10.5520343,3.20151367 C10.5339383,3.32683619 10.4568526,3.43588422 10.3447458,3.49475078 C9.89335303,3.72730166 9.41422478,3.90151786 8.91888602,4.0132088 C8.79013317,4.0391664 8.65699792,3.99810881 8.56522789,3.90414416 C7.93210985,3.30952194 6.99093648,3.1833338 6.22354591,3.59018234 C5.4591672,3.99143272 5.04322158,4.84198715 5.19585226,5.69168153 C5.35022684,6.53773444 6.03869738,7.19011742 6.90159115,7.30760249 C7.76408395,7.42428562 8.60572616,6.98040857 8.98544753,6.20653079 C9.03757402,6.09305545 9.13942114,6.00885113 9.26171789,5.97717427 C10.2260672,5.77422392 11.1431433,5.39011329 11.9642755,4.84522765 C12.1087703,4.74446032 12.3014699,4.74720395 12.4430372,4.85204419 L12.4831345,4.88612689 L13.7133195,6.09987199 L13.7822868,6.17044323 C14.1087842,6.50306277 14.3039055,6.94258431 14.3316198,7.40784573 L14.3348276,7.50728701 L14.3681083,10.8959093 L14.3681083,16.7645493 C14.3653015,18.5135933 12.9578865,19.9378492 11.1992191,19.9955893 L11.0993769,19.9971932 L8.13738976,19.9971932 C8.74655768,18.6639166 8.85308253,17.1553367 8.43731752,15.7496868 L8.38920077,15.5941093 L8.70957815,15.5941093 C9.02528841,15.5749 9.27200835,15.3141519 9.27374708,14.9978625 C9.27374708,14.7019445 9.05521682,14.4537423 8.76451144,14.4080313 L8.70957815,14.4016158 L7.85309994,14.4016158 C7.24741647,13.3707794 6.35722059,12.5365514 5.28927895,11.9989859 L5.14252286,11.9272118 L11.0247959,11.9272118 C11.3405062,11.9080024 11.5872261,11.6472543 11.5889648,11.330965 C11.5889648,11.0354479 11.3704346,10.7872457 11.0801302,10.7411338 L11.0247959,10.7347182 L2.83251774,10.7347182 C2.51775398,10.7347182 2.25912643,10.9720942 2.2298554,11.2748288 L2.22704859,11.3325689 L2.23506805,11.3377815 L2.22704859,11.3381825 C2.23202951,11.6444862 2.46658007,11.8980357 2.77156985,11.9268108 L2.82930995,11.9300186 L5.14212188,11.9300186 C6.22386625,12.4397819 7.13572933,13.2505744 7.76849465,14.265285 L7.85269897,14.4044226 L3.06708691,14.4044226 C2.84242577,14.3888969 2.62760992,14.4989283 2.50893257,14.6903163 C2.39163838,14.8805946 2.39163838,15.1207441 2.50893257,15.3110224 C2.61599235,15.4842427 2.80324671,15.5909015 3.00613902,15.5977181 L3.06708691,15.5965151 L8.38599298,15.5965151 C8.83940866,16.9906081 8.7733273,18.5016495 8.19994154,19.8508381 L8.13418198,20 L3.27198408,20 C1.49807978,19.9959903 0.0557801113,18.6022083 0.00164876412,16.8635896 L2.21566806e-05,16.7649503 L2.21566806e-05,7.36895135 C-0.0017751392,6.99427123 0.105807854,6.62720698 0.309595984,6.31278862 L0.367336087,6.2285843 L0.442318028,6.12753912 L4.78565694,1.85757826 C6.03949933,0.620576734 8.05519031,0.594513493 9.34070956,1.78059146 Z" id="形状"></path>
                <path d="M12.4791248,0.164670499 C12.6427217,0.0106968889 12.8792958,-0.0398257018 13.0930144,0.0323494277 C13.3067329,0.105326503 13.4615085,0.289373084 13.4947892,0.509908202 C13.7251265,1.68443597 13.4008202,2.89954888 12.6158566,3.80309898 L12.5853826,3.83317195 C10.7012108,5.59544803 8.24485051,5.70451267 7.66183585,5.70451267 L7.53753424,5.70451267 C7.2065006,5.69190231 6.94817247,5.41366138 6.9601332,5.08260363 C6.96053417,4.92141251 7.0282986,4.76783987 7.14658562,4.65757232 C7.26591156,4.54688705 7.42516056,4.48955741 7.58765586,4.49878703 C7.61492202,4.49878703 10.0051217,4.56975924 11.7373248,2.98431223 C12.2541696,2.36873148 12.4662526,1.55309589 12.3147259,0.763724074 C12.2520966,0.549015638 12.3156766,0.317336253 12.4791248,0.164670499 L12.4791248,0.164670499 Z" id="路径" opacity="0.600000024"></path>
            </g>
        </g>
    </g>
</svg>