<?xml version="1.0" encoding="UTF-8"?>
<svg width="18px" height="18px" viewBox="0 0 18 18" version="1.1" xmlns="http://www.w3.org/2000/svg" xmlns:xlink="http://www.w3.org/1999/xlink">
    <!-- Generator: Sketch 61 (89581) - https://sketch.com -->
    <title>label_sort_icon</title>
    <desc>Created with Sketch.</desc>
    <g id="图标" stroke="none" stroke-width="1" fill="none" fill-rule="evenodd">
        <g id="切图" transform="translate(-322.000000, -365.000000)" fill="#4F84FA" fill-rule="nonzero">
            <g id="label_sort_icon" transform="translate(322.000000, 365.000000)">
                <path d="M4.0753125,0.0196875 C6.316875,0.0196875 8.1309375,1.8365625 8.1309375,4.0753125 L8.1309375,7.77375 C8.1309375,7.970625 7.970625,8.1309375 7.77375,8.1309375 L4.0753125,8.1309375 C1.83375,8.1309375 0.0196875,6.3140625 0.0196875,4.0753125 C0.0196875,1.83375 1.8365625,0.0196875 4.0753125,0.0196875 Z" id="路径" opacity="0.5"></path>
                <path d="M13.8121875,0.0196875 C16.05375,0.0196875 17.8678125,1.8365625 17.8678125,4.0753125 C17.8678125,6.316875 16.0509375,8.1309375 13.8121875,8.1309375 L10.11375,8.1309375 C9.916875,8.1309375 9.7565625,7.970625 9.7565625,7.77375 L9.7565625,4.0753125 C9.7565625,1.83375 11.5734375,0.0196875 13.8121875,0.0196875 L13.8121875,0.0196875 Z" id="路径" opacity="0.600000024"></path>
                <path d="M4.0753125,9.75375 L7.77375,9.75375 C7.970625,9.75375 8.1309375,9.9140625 8.1309375,10.1109375 L8.1309375,13.809375 C8.1309375,16.0509375 6.3140625,17.865 4.0753125,17.865 C1.83375,17.865 0.0196875,16.048125 0.0196875,13.809375 C0.0196875,11.570625 1.8365625,9.75375 4.0753125,9.75375 Z" id="路径" opacity="0.699999988"></path>
                <path d="M10.11375,9.75375 L13.8121875,9.75375 C16.05375,9.75375 17.8678125,11.570625 17.8678125,13.809375 C17.8678125,16.048125 16.0509375,17.865 13.8121875,17.865 C11.5734375,17.865 9.7565625,16.048125 9.7565625,13.809375 L9.7565625,10.1109375 C9.7565625,9.9140625 9.9140625,9.75375 10.11375,9.75375 Z" id="路径" opacity="0.800000012"></path>
            </g>
        </g>
    </g>
</svg>