<?xml version="1.0" encoding="UTF-8"?>
<svg width="16px" height="17px" viewBox="0 0 16 17" version="1.1" xmlns="http://www.w3.org/2000/svg" xmlns:xlink="http://www.w3.org/1999/xlink">
    <title>Fill 3</title>
    <g id="2.6.3" stroke="none" stroke-width="1" fill="none" fill-rule="evenodd">
        <g id="主菜单优化交互规范" transform="translate(-426.000000, -142.000000)" fill="#A2ABC3">
            <path d="M439.451,154.545375 L434.299,157.520375 C434.283,157.529375 434.264,157.532375 434.249,157.540375 L434.249,150.805375 L440.1,147.661375 L440.1,153.420375 C440.1,153.882375 439.851,154.314375 439.451,154.545375 L439.451,154.545375 Z M427.848,154.545375 C427.448,154.314375 427.199,153.883375 427.199,153.420375 L427.199,147.661375 L433.05,150.805375 L433.05,157.540375 C433.034,157.532375 433.015,157.529375 433,157.520375 L427.848,154.545375 Z M433,143.373375 C433.2,143.257375 433.425,143.199375 433.649,143.199375 C433.874,143.199375 434.098,143.257375 434.299,143.372375 L439.45,146.347375 C439.536,146.396375 439.61,146.459375 439.68,146.524375 L433.649,149.765375 L427.618,146.524375 C427.689,146.458375 427.763,146.396375 427.848,146.347375 L433,143.373375 Z M440.051,145.308375 L434.898,142.333375 C434.129,141.889375 433.172,141.888375 432.4,142.333375 L427.249,145.308375 C426.478,145.753375 426,146.582375 426,147.471375 L426,153.420375 C426,154.310375 426.478,155.139375 427.249,155.584375 L432.4,158.559375 C432.786,158.781375 433.218,158.892375 433.649,158.892375 C434.082,158.892375 434.514,158.781375 434.898,158.559375 L440.052,155.584375 C440.821,155.139375 441.3,154.310375 441.3,153.420375 L441.3,147.471375 C441.3,146.582375 440.821,145.753375 440.051,145.308375 L440.051,145.308375 Z M431.4812,151.345175 L429.1632,150.100175 C428.9202,149.970175 428.6172,150.059175 428.4862,150.304175 C428.3552,150.547175 428.4472,150.850175 428.6902,150.981175 L431.0082,152.226175 C431.0842,152.266175 431.1652,152.285175 431.2452,152.285175 C431.4222,152.285175 431.5952,152.190175 431.6852,152.022175 C431.8162,151.779175 431.7242,151.475175 431.4812,151.345175" id="Fill-3"></path>
        </g>
    </g>
</svg>