<?xml version="1.0" encoding="UTF-8"?>
<svg width="5px" height="10px" viewBox="0 0 5 10" version="1.1" xmlns="http://www.w3.org/2000/svg" xmlns:xlink="http://www.w3.org/1999/xlink">
    <!-- Generator: Sketch 61 (89581) - https://sketch.com -->
    <title>nav_library</title>
    <desc>Created with Sketch.</desc>
    <g id="图标" stroke="none" stroke-width="1" fill="none" fill-rule="evenodd">
        <g id="画板" transform="translate(-303.000000, -173.000000)" fill="#E0E7FA" fill-rule="nonzero">
            <path d="M307.344587,179 C307.533898,179.000072 307.708045,179.10356 307.798606,179.269804 C307.889167,179.436048 307.881672,179.638485 307.779065,179.797578 L305.865292,182.763409 C305.770016,182.910911 305.606411,183 305.430814,183 C305.255217,183 305.091612,182.910911 304.996336,182.763409 L303.082562,179.797578 C302.979956,179.638485 302.972461,179.436048 303.063022,179.269804 C303.153583,179.10356 303.32773,179.000072 303.517041,179 L307.344587,179 Z M305.430814,173 C305.606411,173 305.770016,173.089089 305.865292,173.236591 L307.779065,176.202422 C307.881672,176.361515 307.889167,176.563952 307.798606,176.730196 C307.708045,176.89644 307.533898,176.999928 307.344587,177 L303.517041,177 C303.32773,176.999928 303.153583,176.89644 303.063022,176.730196 C302.972461,176.563952 302.979956,176.361515 303.082562,176.202422 L304.996336,173.236591 C305.091612,173.089089 305.255217,173 305.430814,173 Z" id="nav_library"></path>
        </g>
    </g>
</svg>