<?xml version="1.0" encoding="UTF-8"?>
<svg width="16px" height="17px" viewBox="0 0 16 17" version="1.1" xmlns="http://www.w3.org/2000/svg" xmlns:xlink="http://www.w3.org/1999/xlink">
    <title>Fill 3备份 3</title>
    <g id="2.6.3" stroke="none" stroke-width="1" fill="none" fill-rule="evenodd">
        <g id="主菜单优化交互规范" transform="translate(-426.000000, -230.000000)" fill="#E0E7FA">
            <path d="M439.451,242.545375 L434.299,245.520375 C434.283,245.529375 434.264,245.532375 434.249,245.540375 L434.249,238.805375 L440.1,235.661375 L440.1,241.420375 C440.1,241.882375 439.851,242.314375 439.451,242.545375 L439.451,242.545375 Z M427.848,242.545375 C427.448,242.314375 427.199,241.883375 427.199,241.420375 L427.199,235.661375 L433.05,238.805375 L433.05,245.540375 C433.034,245.532375 433.015,245.529375 433,245.520375 L427.848,242.545375 Z M433,231.373375 C433.2,231.257375 433.425,231.199375 433.649,231.199375 C433.874,231.199375 434.098,231.257375 434.299,231.372375 L439.45,234.347375 C439.536,234.396375 439.61,234.459375 439.68,234.524375 L433.649,237.765375 L427.618,234.524375 C427.689,234.458375 427.763,234.396375 427.848,234.347375 L433,231.373375 Z M440.051,233.308375 L434.898,230.333375 C434.129,229.889375 433.172,229.888375 432.4,230.333375 L427.249,233.308375 C426.478,233.753375 426,234.582375 426,235.471375 L426,241.420375 C426,242.310375 426.478,243.139375 427.249,243.584375 L432.4,246.559375 C432.786,246.781375 433.218,246.892375 433.649,246.892375 C434.082,246.892375 434.514,246.781375 434.898,246.559375 L440.052,243.584375 C440.821,243.139375 441.3,242.310375 441.3,241.420375 L441.3,235.471375 C441.3,234.582375 440.821,233.753375 440.051,233.308375 L440.051,233.308375 Z M431.4812,239.345175 L429.1632,238.100175 C428.9202,237.970175 428.6172,238.059175 428.4862,238.304175 C428.3552,238.547175 428.4472,238.850175 428.6902,238.981175 L431.0082,240.226175 C431.0842,240.266175 431.1652,240.285175 431.2452,240.285175 C431.4222,240.285175 431.5952,240.190175 431.6852,240.022175 C431.8162,239.779175 431.7242,239.475175 431.4812,239.345175" id="Fill-3备份-3"></path>
        </g>
    </g>
</svg>