<?xml version="1.0" encoding="UTF-8"?>
<svg width="12px" height="14px" viewBox="0 0 12 14" version="1.1" xmlns="http://www.w3.org/2000/svg" xmlns:xlink="http://www.w3.org/1999/xlink">
    <!-- Generator: Sketch 61 (89581) - https://sketch.com -->
    <title>list_labeling_select</title>
    <desc>Created with Sketch.</desc>
    <g id="图标" stroke="none" stroke-width="1" fill="none" fill-rule="evenodd">
        <g id="切图" transform="translate(-145.000000, -370.000000)" fill="#4F84FA" fill-rule="nonzero">
            <path d="M156.340258,371.75 C156.700117,371.75 157,372.03299 157,372.38854 L157,372.38854 L157,383.359827 C157,383.816964 156.512691,384.128978 156.077861,383.947574 L156.077861,383.947574 L152.37431,382.438297 C152.074428,382.314942 151.729562,382.314942 151.42968,382.438297 L151.42968,382.438297 L147.726129,383.947574 C147.283802,384.128978 146.80399,383.816964 146.80399,383.359827 L146.80399,383.359827 L146.80399,372.38854 C146.80399,372.040246 147.096376,371.75 147.463732,371.75 L147.463732,371.75 Z M154.536268,370 C154.863413,370 155.14099,370.233876 155.188755,370.543529 L155.19601,370.63854 L155.196,370.875 L146.561737,370.875 C146.194381,370.875 145.901995,371.165246 145.901995,371.51354 L145.901239,382.20577 C145.496007,382.357458 145.06626,382.101554 145.006935,381.703971 L145,381.609827 L145,370.63854 C145,370.321909 145.241641,370.053252 145.561576,370.007022 L145.659742,370 L154.536268,370 Z M154.14691,377.168258 L149.933953,377.168333 C149.602742,377.175356 149.336604,377.423322 149.336604,377.728187 C149.336604,378.03438 149.605053,378.283171 149.938268,378.288115 L154.151224,378.28804 C154.482435,378.281017 154.748574,378.033051 154.748574,377.728187 C154.748574,377.421993 154.480124,377.173202 154.14691,377.168258 Z M152.543474,374.543258 L149.734836,374.543333 C149.514029,374.550356 149.336604,374.798322 149.336604,375.103187 C149.336604,375.40938 149.51557,375.658171 149.737713,375.663115 L152.546351,375.66304 C152.767158,375.656017 152.944584,375.408051 152.944584,375.103187 C152.944584,374.796993 152.765617,374.548202 152.543474,374.543258 Z" id="list_labeling_select"></path>
        </g>
    </g>
</svg>