<?xml version="1.0" encoding="utf-8"?>
<!-- Generator: Adobe Illustrator 25.0.0, SVG Export Plug-In . SVG Version: 6.00 Build 0)  -->
<svg version="1.1" id="图层_1" xmlns="http://www.w3.org/2000/svg" xmlns:xlink="http://www.w3.org/1999/xlink" x="0px" y="0px"
	 viewBox="0 0 40 40" style="enable-background:new 0 0 40 40;" xml:space="preserve">
<style type="text/css">
	.st0{fill:#AFC8FF;}
</style>
<g id="_x32_.5">
	<g id="快捷预览加载状态-loading" transform="translate(-553.000000, -283.000000)">
		<g id="编组-3" transform="translate(522.000000, 268.000000)">
			<g id="加载loading" transform="translate(9.000000, 0.000000)">
				<path id="Stroke-1" class="st0" d="M33.2,15.5c-1.7,0-3.4,0.4-4.9,1.1c-1.5,0.7-1.9,2.7-0.7,3.9c1.2,1.3,1.9,3,1.9,4.8l0,0.5
					c0,0.5-0.1,1-0.3,1.4l0,0.1l0.3-0.4c-2.5,3-3.8,6.8-3.8,10.8c0,9.1,7,16.5,15.8,16.8l0.7,0c2.4-0.1,3.2-3.1,1.3-4.4L43.3,50
					c-2.6-1.4-4.2-4.2-4.2-7.3c0-4.6,3.6-8.3,8-8.3c2.7,0,5.1,1.4,6.6,3.6l0.2,0.4c1.3,2.2,4.5,1.2,4.4-1.3l0-0.5
					c-0.5-8.3-6.8-14.9-14.8-15.6l-0.4,0l-0.2-0.3C40.7,17.5,37.2,15.5,33.2,15.5z M33.3,18c3.6,0,6.6,2,8.2,5l0.2,0.4l0.3,0
					c7.5,0,13.6,6.1,13.9,13.8C54.1,34.1,50.8,32,47,32c-5.7,0-10.3,4.8-10.3,10.6c0,4,2.2,7.6,5.4,9.3L42,52
					c-7.7,0-13.9-6.4-13.9-14.3c0-3.5,1.2-6.7,3.3-9.2c0.4-1,0.6-2.1,0.6-3.2c0-2.5-1-4.8-2.6-6.4C30.6,18.3,31.9,18,33.3,18z"/>
			</g>
		</g>
	</g>
</g>
</svg>
