<?xml version="1.0" encoding="utf-8"?>
<!-- Generator: Adobe Illustrator 25.0.0, SVG Export Plug-In . SVG Version: 6.00 Build 0)  -->
<svg version="1.1" id="图层_1" xmlns="http://www.w3.org/2000/svg" xmlns:xlink="http://www.w3.org/1999/xlink" x="0px" y="0px"
	 viewBox="0 0 76 76" style="enable-background:new 0 0 76 76;" xml:space="preserve">
<style type="text/css">
	.st0{fill:#4F84FA;}
</style>
<g id="_x32_.5">
	<g id="快捷预览加载状态-loading" transform="translate(-531.000000, -268.000000)">
		<g id="编组-3" transform="translate(522.000000, 268.000000)">
			<g id="编组-2" transform="translate(9.000000, 0.000000)">
				<path id="椭圆形" class="st0" d="M3.8,43.6C5.7,55.8,14.1,66,25.8,70.3c1,0.4,1.5,1.5,1.1,2.4c-0.4,1-1.5,1.5-2.5,1.1
					C11.5,69.1,2.1,57.7,0,44.2c-0.2-1,0.6-2,1.6-2.2C2.7,41.9,3.7,42.6,3.8,43.6z M51.6,2.1c13,4.8,22.4,16.2,24.4,29.7
					c0.1,1-0.6,2-1.6,2.1c-1.1,0.1-2-0.6-2.2-1.6C70.4,20.2,61.9,10,50.2,5.6c-1-0.4-1.5-1.5-1.1-2.4S50.6,1.8,51.6,2.1z"/>
			</g>
		</g>
	</g>
</g>
</svg>
