<?xml version="1.0" encoding="UTF-8"?>
<svg width="12px" height="12px" viewBox="0 0 12 12" version="1.1" xmlns="http://www.w3.org/2000/svg" xmlns:xlink="http://www.w3.org/1999/xlink">
    <!-- Generator: Sketch 61 (89581) - https://sketch.com -->
    <title>形状结合</title>
    <desc>Created with Sketch.</desc>
    <g id="2.0正式2" stroke="none" stroke-width="1" fill="none" fill-rule="evenodd">
        <g id="素材库路径丢失" transform="translate(-1110.000000, -18.000000)" fill="#A2ABC3">
            <g id="编组-18" transform="translate(1044.000000, 14.000000)">
                <path d="M72,3 C72.3382744,3 72.6125,3.27422559 72.6125,3.6125 L72.612,9.387 L78.3875,9.3875 C78.7257744,9.3875 79,9.66172559 79,10 C79,10.3382744 78.7257744,10.6125 78.3875,10.6125 L72.612,10.612 L72.6125,16.3875 C72.6125,16.7257744 72.3382744,17 72,17 C71.6617256,17 71.3875,16.7257744 71.3875,16.3875 L71.387,10.612 L65.6125,10.6125 C65.2742256,10.6125 65,10.3382744 65,10 C65,9.66172559 65.2742256,9.3875 65.6125,9.3875 L71.387,9.387 L71.3875,3.6125 C71.3875,3.27422559 71.6617256,3 72,3 Z" id="形状结合" transform="translate(72.000000, 10.000000) rotate(-315.000000) translate(-72.000000, -10.000000) "></path>
            </g>
        </g>
    </g>
</svg>