<?xml version="1.0" standalone="no"?><!DOCTYPE svg PUBLIC "-//W3C//DTD SVG 1.1//EN" "http://www.w3.org/Graphics/SVG/1.1/DTD/svg11.dtd"><svg t="1648010146793" class="icon" viewBox="0 0 1304 1024" version="1.1" xmlns="http://www.w3.org/2000/svg" p-id="3050" xmlns:xlink="http://www.w3.org/1999/xlink" width="254.6875" height="200"><defs><style type="text/css"></style></defs><path d="M60.509091 106.868364h608.814545c33.512727 0 60.509091-23.924364 60.509091-53.434182C729.832727 23.924364 702.836364 0 669.323636 0H60.509091C26.996364 0 0 23.924364 0 53.434182c0 29.509818 26.996364 53.434182 60.509091 53.434182z m448.698182 331.869091H61.160727c-33.792 0-61.160727 23.924364-61.160727 53.434181 0 29.509818 27.368727 53.341091 61.160727 53.341091H509.207273c33.792 0 61.253818-23.831273 61.253818-53.341091 0-29.509818-27.461818-53.434182-61.253818-53.434181z m0 441.064727H61.160727c-33.792 0-61.160727 23.924364-61.160727 53.434182 0 29.509818 27.368727 53.434182 61.160727 53.434181H509.207273c33.792 0 61.253818-23.924364 61.253818-53.434181 0-29.509818-27.461818-53.434182-61.253818-53.434182z m777.495272-263.074909c-26.810182-26.810182-52.968727-17.408-79.872 9.309091L1036.381091 794.065455V83.037091c0-37.981091-14.615273-68.794182-52.596364-68.794182-37.981091 0-53.434182 30.72-53.434182 68.794182V794.065455L755.991273 630.877091c-26.810182-26.810182-59.298909-31.650909-86.295273-4.747636-26.996364 26.810182-10.705455 62.091636 16.104727 89.088l249.390546 216.901818a68.421818 68.421818 0 0 0 48.593454 20.200727c17.687273 0 35.281455-6.702545 48.686546-20.107636l246.225454-225.466182c26.810182-26.996364 34.909091-63.208727 8.005818-90.018909z" fill="#A0ABC5" p-id="3051"></path></svg>