<?xml version="1.0" standalone="no"?><!DOCTYPE svg PUBLIC "-//W3C//DTD SVG 1.1//EN" "http://www.w3.org/Graphics/SVG/1.1/DTD/svg11.dtd"><svg t="1648010131448" class="icon" viewBox="0 0 1102 1024" version="1.1" xmlns="http://www.w3.org/2000/svg" p-id="2920" xmlns:xlink="http://www.w3.org/1999/xlink" width="215.234375" height="200"><defs><style type="text/css"></style></defs><path d="M945.230769 0a157.538462 157.538462 0 0 1 157.538462 157.538462v551.384615a157.538462 157.538462 0 0 1-157.538462 157.538461H157.538462a157.538462 157.538462 0 0 1-157.538462-157.538461V157.538462a157.538462 157.538462 0 0 1 157.538462-157.538462h787.692307z m0 78.769231H157.538462a78.769231 78.769231 0 0 0-78.217847 69.553231L78.769231 157.538462v551.384615a78.769231 78.769231 0 0 0 69.553231 78.217846L157.538462 787.692308h787.692307a78.769231 78.769231 0 0 0 78.217846-69.553231L1024 708.923077V157.538462a78.769231 78.769231 0 0 0-69.553231-78.217847L945.230769 78.769231z m-118.153846 866.461538a39.384615 39.384615 0 1 1 0 78.769231h-551.384615a39.384615 39.384615 0 1 1 0-78.769231h551.384615z m78.769231-472.615384a39.384615 39.384615 0 0 1 39.384615 39.384615v157.538462a39.384615 39.384615 0 0 1-39.384615 39.384615h-315.076923a39.384615 39.384615 0 0 1 0-78.769231H866.461538V512a39.384615 39.384615 0 0 1 39.384616-39.384615z m-708.923077-315.076923h315.076923a39.384615 39.384615 0 0 1 0 78.76923H236.307692v118.153846a39.384615 39.384615 0 0 1-78.76923 0v-157.538461a39.384615 39.384615 0 0 1 39.384615-39.384615z" fill="#A0ABC5" p-id="2921"></path></svg>