<?xml version="1.0" encoding="UTF-8"?>
<svg width="14px" height="15px" viewBox="0 0 14 15" version="1.1" xmlns="http://www.w3.org/2000/svg" xmlns:xlink="http://www.w3.org/1999/xlink">
    <!-- Generator: Sketch 61 (89581) - https://sketch.com -->
    <title>dropbox_import_normal</title>
    <desc>Created with Sketch.</desc>
    <g id="图标" stroke="none" stroke-width="1" fill="none" fill-rule="evenodd">
        <g id="切图" transform="translate(-568.000000, -451.000000)" fill="#A2ABC3" fill-rule="nonzero">
            <path d="M574.054291,460.013353 C573.874374,460.20742 573.880153,460.509026 574.067373,460.696057 C574.254593,460.883088 574.556204,460.888564 574.75009,460.708452 L576.607187,458.852755 C576.800142,458.659313 576.800142,458.346198 576.607187,458.152756 L574.75009,456.298459 C574.628415,456.162109 574.441277,456.104287 574.263895,456.148234 C574.086512,456.192181 573.948013,456.33068 573.904066,456.508063 C573.860119,456.685446 573.917941,456.872583 574.054291,456.994258 L575.070689,458.009256 L568.492799,458.009256 C568.220634,458.009256 568,458.22989 568,458.502055 C568,458.774221 568.220634,458.994855 568.492799,458.994855 L575.070689,458.994855 L574.054291,460.013353 Z M581.447679,455.78046 C579.948982,452.221665 575.847688,450.551468 572.286793,452.049465 C571.155696,452.525528 570.169762,453.29081 569.427998,454.268462 C569.321461,454.408135 569.297532,454.594034 569.365224,454.756134 C569.432916,454.918233 569.581945,455.031906 569.756174,455.054333 C569.930402,455.07676 570.10336,455.004534 570.209897,454.864861 C570.762892,454.141038 571.471795,453.551043 572.283993,453.138664 C574.60306,451.963414 577.414872,452.412513 579.252483,454.251662 C580.669134,455.666614 581.288752,457.693777 580.905264,459.658955 C580.521777,461.624134 579.185475,463.269616 577.340786,464.048147 C575.71024,464.734837 573.860397,464.670856 572.281193,463.873147 C571.468894,463.45968 570.760025,462.868757 570.207097,462.14415 C570.108224,461.986469 569.928853,461.898061 569.743574,461.915687 C569.558295,461.933314 569.398814,462.053961 569.331448,462.227457 C569.264083,462.400953 569.300361,462.59761 569.425198,462.735649 C570.068128,463.579019 570.892858,464.266653 571.838094,464.747446 C575.294689,466.490443 579.510082,465.103045 581.25448,461.647851 C582.174814,459.814852 582.246436,457.670791 581.450479,455.78046 L581.447679,455.78046 L581.447679,455.78046 Z" id="dropbox_import_normal" transform="translate(575.000000, 458.500023) rotate(-180.000000) translate(-575.000000, -458.500023) "></path>
        </g>
    </g>
</svg>