<?xml version="1.0" encoding="UTF-8"?>
<svg width="14px" height="14px" viewBox="0 0 14 14" version="1.1" xmlns="http://www.w3.org/2000/svg" xmlns:xlink="http://www.w3.org/1999/xlink">
    <!-- Generator: Sketch 61 (89581) - https://sketch.com -->
    <title>dropbox_help_normal</title>
    <desc>Created with Sketch.</desc>
    <g id="图标" stroke="none" stroke-width="1" fill="none" fill-rule="evenodd">
        <g id="切图" transform="translate(-568.000000, -551.000000)" fill="#A2ABC3" fill-rule="nonzero">
            <path d="M574.661287,551.000008 C578.34651,550.994496 581.337736,553.977444 581.343255,557.661287 L581.343255,557.670945 C581.343255,559.378724 580.701519,560.936833 579.646058,562.117126 L581.686804,564.156993 C581.875826,564.350153 581.873066,564.66059 581.679906,564.850991 C581.590224,564.939292 581.468809,564.988962 581.343255,564.991722 L581.333597,565 C581.203903,564.99862 581.081109,564.944811 580.990047,564.85237 L578.93697,562.801567 C577.78305,563.762183 576.300009,564.340832 574.681983,564.343263 C570.99676,564.348774 568.005534,561.365826 568.000008,557.681983 C567.994496,553.99676 570.977444,551.005534 574.661287,551.000008 Z M574.681983,551.990643 C571.538988,551.985133 568.986513,554.52933 568.980985,557.670945 C568.975475,560.81394 571.518293,563.365036 574.661287,563.370564 C577.804282,563.376074 580.355378,560.833256 580.360897,557.690261 L580.360897,557.670945 C580.356757,554.536229 577.816699,551.996171 574.681983,551.990643 Z M573.660993,553.825675 C573.761712,554.078163 573.638917,554.363764 573.386429,554.463104 C572.486854,554.814932 571.7763,555.526866 571.424472,556.425061 C571.363764,556.582349 571.225793,556.696865 571.061606,556.729985 C570.791182,556.731358 570.569048,556.513363 570.567668,556.242938 C570.567668,556.180851 570.578706,556.120144 570.600781,556.062196 C571.032284,554.929883 571.907417,554.022855 573.023564,553.551111 C573.276052,553.450392 573.561653,553.573187 573.660993,553.825675 Z" id="dropbox_help_normal"></path>
        </g>
    </g>
</svg>