<?xml version="1.0" encoding="UTF-8"?>
<svg width="15px" height="14px" viewBox="0 0 15 14" version="1.1" xmlns="http://www.w3.org/2000/svg" xmlns:xlink="http://www.w3.org/1999/xlink">
    <!-- Generator: Sketch 61 (89581) - https://sketch.com -->
    <title>dropbox_quit_select</title>
    <desc>Created with Sketch.</desc>
    <g id="图标" stroke="none" stroke-width="1" fill="none" fill-rule="evenodd">
        <g id="切图" transform="translate(-594.000000, -575.000000)" fill="#E0E7FA" fill-rule="nonzero">
            <path d="M599.199302,575.549464 C602.760185,574.051471 606.861466,575.721663 608.360159,579.280446 L608.360159,579.280446 C609.158913,581.170771 609.087291,583.314825 608.16696,585.147818 C606.422568,588.603002 602.207188,589.990395 598.750604,588.247403 C597.805372,587.766612 596.980644,587.07898 596.337716,586.235613 C596.21288,586.097574 596.176601,585.900918 596.243966,585.727422 C596.311332,585.553927 596.470813,585.433281 596.656091,585.415654 C596.841369,585.398027 597.02074,585.486436 597.119612,585.644116 C597.672539,586.368721 598.381405,586.959642 599.193702,587.373107 C600.772901,588.170813 602.622737,588.234795 604.253278,587.548107 C606.097962,586.769578 607.434259,585.124102 607.817745,583.158929 C608.201231,581.193757 607.581615,579.166601 606.164969,577.751653 C604.327365,575.912511 601.515561,575.463413 599.196502,576.638658 C598.384306,577.051036 597.675405,577.641029 597.122412,578.36485 C597.015876,578.504522 596.842918,578.576749 596.66869,578.554322 C596.494463,578.531895 596.345434,578.418222 596.277742,578.256123 C596.210051,578.094024 596.23398,577.908125 596.340516,577.768453 C597.082277,576.790804 598.068208,576.025525 599.199302,575.549464 Z M601.475,581.474977 C601.764949,581.474977 602,581.710028 602,581.999977 C602,582.289927 601.764949,582.524977 601.475,582.524977 L595.525,582.524977 C595.235051,582.524977 595,582.289927 595,581.999977 C595,581.710028 595.235051,581.474977 595.525,581.474977 L601.475,581.474977 Z" id="dropbox_quit_select" transform="translate(601.956020, 582.000000) rotate(-270.000000) translate(-601.956020, -582.000000) "></path>
        </g>
    </g>
</svg>