<?xml version="1.0" encoding="UTF-8"?>
<svg width="14px" height="14px" viewBox="0 0 14 14" version="1.1" xmlns="http://www.w3.org/2000/svg" xmlns:xlink="http://www.w3.org/1999/xlink">
    <!-- Generator: Sketch 61 (89581) - https://sketch.com -->
    <title>dropbox_help_select</title>
    <desc>Created with Sketch.</desc>
    <g id="图标" stroke="none" stroke-width="1" fill="none" fill-rule="evenodd">
        <g id="切图" transform="translate(-595.000000, -551.000000)" fill="#E0E7FA" fill-rule="nonzero">
            <path d="M601.661287,551.000008 C605.34651,550.994496 608.337736,553.977444 608.343255,557.661287 L608.343255,557.670945 C608.343255,559.378724 607.701519,560.936833 606.646058,562.117126 L608.686804,564.156993 C608.875826,564.350153 608.873066,564.66059 608.679906,564.850991 C608.590224,564.939292 608.468809,564.988962 608.343255,564.991722 L608.333597,565 C608.203903,564.99862 608.081109,564.944811 607.990047,564.85237 L605.93697,562.801567 C604.78305,563.762183 603.300009,564.340832 601.681983,564.343263 C597.99676,564.348774 595.005534,561.365826 595.000008,557.681983 C594.994496,553.99676 597.977444,551.005534 601.661287,551.000008 Z M601.681983,551.990643 C598.538988,551.985133 595.986513,554.52933 595.980985,557.670945 C595.975475,560.81394 598.518293,563.365036 601.661287,563.370564 C604.804282,563.376074 607.355378,560.833256 607.360897,557.690261 L607.360897,557.670945 C607.356757,554.536229 604.816699,551.996171 601.681983,551.990643 Z M600.660993,553.825675 C600.761712,554.078163 600.638917,554.363764 600.386429,554.463104 C599.486854,554.814932 598.7763,555.526866 598.424472,556.425061 C598.363764,556.582349 598.225793,556.696865 598.061606,556.729985 C597.791182,556.731358 597.569048,556.513363 597.567668,556.242938 C597.567668,556.180851 597.578706,556.120144 597.600781,556.062196 C598.032284,554.929883 598.907417,554.022855 600.023564,553.551111 C600.276052,553.450392 600.561653,553.573187 600.660993,553.825675 Z" id="dropbox_help_select"></path>
        </g>
    </g>
</svg>