<?xml version="1.0" encoding="UTF-8"?>
<svg width="15px" height="14px" viewBox="0 0 15 14" version="1.1" xmlns="http://www.w3.org/2000/svg" xmlns:xlink="http://www.w3.org/1999/xlink">
    <!-- Generator: Sketch 61 (89581) - https://sketch.com -->
    <title>dropbox_quit_normal</title>
    <desc>Created with Sketch.</desc>
    <g id="图标" stroke="none" stroke-width="1" fill="none" fill-rule="evenodd">
        <g id="切图" transform="translate(-567.000000, -575.000000)" fill="#A2ABC3" fill-rule="nonzero">
            <path d="M572.199302,575.549464 C575.760185,574.051471 579.861466,575.721663 581.360159,579.280446 L581.360159,579.280446 C582.158913,581.170771 582.087291,583.314825 581.16696,585.147818 C579.422568,588.603002 575.207188,589.990395 571.750604,588.247403 C570.805372,587.766612 569.980644,587.07898 569.337716,586.235613 C569.21288,586.097574 569.176601,585.900918 569.243966,585.727422 C569.311332,585.553927 569.470813,585.433281 569.656091,585.415654 C569.841369,585.398027 570.02074,585.486436 570.119612,585.644116 C570.672539,586.368721 571.381405,586.959642 572.193702,587.373107 C573.772901,588.170813 575.622737,588.234795 577.253278,587.548107 C579.097962,586.769578 580.434259,585.124102 580.817745,583.158929 C581.201231,581.193757 580.581615,579.166601 579.164969,577.751653 C577.327365,575.912511 574.515561,575.463413 572.196502,576.638658 C571.384306,577.051036 570.675405,577.641029 570.122412,578.36485 C570.015876,578.504522 569.842918,578.576749 569.66869,578.554322 C569.494463,578.531895 569.345434,578.418222 569.277742,578.256123 C569.210051,578.094024 569.23398,577.908125 569.340516,577.768453 C570.082277,576.790804 571.068208,576.025525 572.199302,575.549464 Z M574.475,581.474977 C574.764949,581.474977 575,581.710028 575,581.999977 C575,582.289927 574.764949,582.524977 574.475,582.524977 L568.525,582.524977 C568.235051,582.524977 568,582.289927 568,581.999977 C568,581.710028 568.235051,581.474977 568.525,581.474977 L574.475,581.474977 Z" id="dropbox_quit_normal" transform="translate(574.956020, 582.000000) rotate(-270.000000) translate(-574.956020, -582.000000) "></path>
        </g>
    </g>
</svg>