<?xml version="1.0" encoding="UTF-8"?>
<svg width="14px" height="14px" viewBox="0 0 14 14" version="1.1" xmlns="http://www.w3.org/2000/svg" xmlns:xlink="http://www.w3.org/1999/xlink">
    <!-- Generator: Sketch 61 (89581) - https://sketch.com -->
    <title>dropbox_import_select</title>
    <desc>Created with Sketch.</desc>
    <g id="图标" stroke="none" stroke-width="1" fill="none" fill-rule="evenodd">
        <g id="切图" transform="translate(-595.000000, -476.000000)" fill="#E0E7FA" fill-rule="nonzero">
            <path d="M597.697612,481.46042 C597.877529,481.266353 597.87175,480.964747 597.68453,480.777716 C597.49731,480.590685 597.195699,480.585209 597.001813,480.765321 L595.144716,482.621018 C594.951761,482.81446 594.951761,483.127575 595.144716,483.321017 L597.001813,485.175314 C597.123488,485.311664 597.310625,485.369486 597.488008,485.325539 C597.665391,485.281592 597.80389,485.143093 597.847837,484.96571 C597.891784,484.788327 597.833962,484.60119 597.697612,484.479515 L596.681214,483.464517 L603.259104,483.464517 C603.531269,483.464517 603.751903,483.243883 603.751903,482.971718 C603.751903,482.699552 603.531269,482.478918 603.259104,482.478918 L596.681214,482.478918 L597.697612,481.46042 Z M608.447679,480.28046 C606.948982,476.721665 602.847688,475.051468 599.286793,476.549465 C598.155696,477.025528 597.169762,477.79081 596.427998,478.768462 C596.321461,478.908135 596.297532,479.094034 596.365224,479.256134 C596.432916,479.418233 596.581945,479.531906 596.756174,479.554333 C596.930402,479.57676 597.10336,479.504534 597.209897,479.364861 C597.762892,478.641038 598.471795,478.051043 599.283993,477.638664 C601.60306,476.463414 604.414872,476.912513 606.252483,478.751662 C607.669134,480.166614 608.288752,482.193777 607.905264,484.158955 C607.521777,486.124134 606.185475,487.769616 604.340786,488.548147 C602.71024,489.234837 600.860397,489.170856 599.281193,488.373147 C598.468894,487.95968 597.760025,487.368757 597.207097,486.64415 C597.108224,486.486469 596.928853,486.398061 596.743574,486.415687 C596.558295,486.433314 596.398814,486.553961 596.331448,486.727457 C596.264083,486.900953 596.300361,487.09761 596.425198,487.235649 C597.068128,488.079019 597.892858,488.766653 598.838094,489.247446 C602.294689,490.990443 606.510082,489.603045 608.25448,486.147851 C609.174814,484.314852 609.246436,482.170791 608.450479,480.28046 L608.447679,480.28046 L608.447679,480.28046 Z" id="dropbox_import_select" transform="translate(602.000000, 483.000023) rotate(-180.000000) translate(-602.000000, -483.000023) "></path>
        </g>
    </g>
</svg>