<?xml version="1.0" encoding="UTF-8"?>
<svg width="14px" height="15px" viewBox="0 0 14 15" version="1.1" xmlns="http://www.w3.org/2000/svg" xmlns:xlink="http://www.w3.org/1999/xlink">
    <!-- Generator: Sketch 61 (89581) - https://sketch.com -->
    <title>dropbox_import_select</title>
    <desc>Created with Sketch.</desc>
    <g id="图标" stroke="none" stroke-width="1" fill="none" fill-rule="evenodd">
        <g id="切图" transform="translate(-595.000000, -451.000000)" fill="#E0E7FA" fill-rule="nonzero">
            <path d="M601.054291,460.013353 C600.874374,460.20742 600.880153,460.509026 601.067373,460.696057 C601.254593,460.883088 601.556204,460.888564 601.75009,460.708452 L603.607187,458.852755 C603.800142,458.659313 603.800142,458.346198 603.607187,458.152756 L601.75009,456.298459 C601.628415,456.162109 601.441277,456.104287 601.263895,456.148234 C601.086512,456.192181 600.948013,456.33068 600.904066,456.508063 C600.860119,456.685446 600.917941,456.872583 601.054291,456.994258 L602.070689,458.009256 L595.492799,458.009256 C595.220634,458.009256 595,458.22989 595,458.502055 C595,458.774221 595.220634,458.994855 595.492799,458.994855 L602.070689,458.994855 L601.054291,460.013353 Z M608.447679,455.78046 C606.948982,452.221665 602.847688,450.551468 599.286793,452.049465 C598.155696,452.525528 597.169762,453.29081 596.427998,454.268462 C596.321461,454.408135 596.297532,454.594034 596.365224,454.756134 C596.432916,454.918233 596.581945,455.031906 596.756174,455.054333 C596.930402,455.07676 597.10336,455.004534 597.209897,454.864861 C597.762892,454.141038 598.471795,453.551043 599.283993,453.138664 C601.60306,451.963414 604.414872,452.412513 606.252483,454.251662 C607.669134,455.666614 608.288752,457.693777 607.905264,459.658955 C607.521777,461.624134 606.185475,463.269616 604.340786,464.048147 C602.71024,464.734837 600.860397,464.670856 599.281193,463.873147 C598.468894,463.45968 597.760025,462.868757 597.207097,462.14415 C597.108224,461.986469 596.928853,461.898061 596.743574,461.915687 C596.558295,461.933314 596.398814,462.053961 596.331448,462.227457 C596.264083,462.400953 596.300361,462.59761 596.425198,462.735649 C597.068128,463.579019 597.892858,464.266653 598.838094,464.747446 C602.294689,466.490443 606.510082,465.103045 608.25448,461.647851 C609.174814,459.814852 609.246436,457.670791 608.450479,455.78046 L608.447679,455.78046 L608.447679,455.78046 Z" id="dropbox_import_select" transform="translate(602.000000, 458.500023) rotate(-180.000000) translate(-602.000000, -458.500023) "></path>
        </g>
    </g>
</svg>