<?xml version="1.0" encoding="UTF-8"?>
<svg width="14px" height="16px" viewBox="0 0 14 16" version="1.1" xmlns="http://www.w3.org/2000/svg" xmlns:xlink="http://www.w3.org/1999/xlink">
    <!-- Generator: Sketch 61 (89581) - https://sketch.com -->
    <title>dropbox_setting_select</title>
    <desc>Created with Sketch.</desc>
    <g id="图标" stroke="none" stroke-width="1" fill="none" fill-rule="evenodd">
        <g id="切图" transform="translate(-595.000000, -426.000000)" fill="#E0E7FA" fill-rule="nonzero">
            <path d="M602.007167,426 C602.82251,426.000165 603.580071,426.420986 604.011022,427.113132 L604.011022,427.113132 L604.251238,427.498712 C604.638377,428.1207 605.309936,428.508945 606.042133,428.534074 L606.042133,428.534074 L606.646851,428.554425 C607.480871,428.58294 608.242831,429.034608 608.668151,429.752595 C609.095209,430.47325 609.111089,431.365572 608.709943,432.100966 L608.709943,432.100966 L608.470454,432.539968 C608.099266,433.220433 608.099266,434.042883 608.470454,434.723349 L608.470454,434.723349 L608.709943,435.162351 C609.111089,435.897745 609.095209,436.790066 608.668151,437.510721 C608.242792,438.228618 607.480819,438.680158 606.646851,438.708528 L606.646851,438.708528 L606.042497,438.729243 C605.31009,438.753989 604.638194,439.142136 604.250874,439.764241 L604.250874,439.764241 L604.011022,440.150185 C603.579959,440.842371 602.82224,441.263135 602.006803,441.263135 C601.191367,441.263135 600.433647,440.842371 600.002584,440.150185 L600.002584,440.150185 L599.764186,439.767875 C599.377946,439.147424 598.708397,438.759726 597.978014,438.733604 L597.978014,438.733604 L597.308246,438.709982 C596.479624,438.680669 595.72562,438.223314 595.316746,437.501999 C594.909085,436.782575 594.894034,435.905515 595.276771,435.172526 L595.276771,435.172526 L595.506811,434.732434 C595.866589,434.042678 595.866589,433.220639 595.506811,432.530882 L595.506811,432.530882 L595.277134,432.09079 C594.894641,431.357837 594.909829,430.480949 595.317473,429.761681 C595.726174,429.040492 596.479833,428.583042 597.308246,428.553335 L597.308246,428.553335 L597.979105,428.52935 C598.709305,428.503252 599.378705,428.115697 599.764913,427.495442 L599.764913,427.495442 L600.002948,427.113132 C600.433967,426.420876 601.191694,426 602.007167,426 Z M602.007167,427.090237 C601.568272,427.090237 601.160494,427.316899 600.928559,427.689504 L600.928559,427.689504 L600.69016,428.071814 C600.112228,428.999883 599.110598,429.579774 598.01799,429.61886 L598.01799,429.61886 L597.347494,429.642845 C596.897461,429.658914 596.488012,429.90739 596.265979,430.299168 C596.040474,430.69673 596.031991,431.181529 596.243448,431.586737 L596.243448,431.586737 L596.473124,432.026466 C596.998005,433.032233 596.998005,434.231084 596.473124,435.23685 L596.473124,435.23685 L596.243448,435.676943 C596.032123,436.082055 596.040606,436.566681 596.265979,436.964149 C596.487892,437.35587 596.897208,437.604348 597.347131,437.620472 L597.347131,437.620472 L598.017263,437.644093 C599.110184,437.683084 600.112124,438.263133 600.69016,439.191503 L600.69016,439.191503 L600.928196,439.573813 C601.160046,439.946744 601.56804,440.173508 602.007167,440.173508 C602.446293,440.173508 602.854287,439.946744 603.086138,439.573813 L603.086138,439.573813 L603.32599,439.187869 C603.905319,438.257532 604.910092,437.67699 606.005429,437.639733 L606.005429,437.639733 L606.610147,437.619018 C607.072415,437.603288 607.494774,437.352996 607.730547,436.955064 C607.961681,436.565234 607.970381,436.082478 607.753442,435.684574 L607.753442,435.684574 L607.51359,435.245572 C606.964787,434.239611 606.964787,433.023705 607.51359,432.017744 L607.51359,432.017744 L607.753079,431.578742 C607.970129,431.180902 607.961567,430.698147 607.730547,430.308253 C607.494724,429.91037 607.072395,429.660096 606.610147,429.644299 L606.610147,429.644299 L606.005429,429.623584 C604.90997,429.586103 603.905195,429.005288 603.32599,428.074721 L603.32599,428.074721 L603.085774,427.689504 C602.853917,427.316643 602.446169,427.090237 602.007167,427.090237 Z M601.825461,430.906066 C603.330764,430.906066 604.551053,432.126355 604.551053,433.631658 C604.551053,435.136961 603.330764,436.357251 601.825461,436.357251 C600.320157,436.357251 599.099868,435.136961 599.099868,433.631658 C599.099868,432.126355 600.320157,430.906066 601.825461,430.906066 Z M601.825461,431.996303 C600.922279,431.996303 600.190105,432.728476 600.190105,433.631658 C600.190105,434.53484 600.922279,435.267014 601.825461,435.267014 C602.728642,435.267014 603.460816,434.53484 603.460816,433.631658 C603.460816,432.728476 602.728642,431.996303 601.825461,431.996303 Z" id="dropbox_setting_select"></path>
        </g>
    </g>
</svg>