<?xml version="1.0" encoding="UTF-8"?>
<svg width="14px" height="14px" viewBox="0 0 14 14" version="1.1" xmlns="http://www.w3.org/2000/svg" xmlns:xlink="http://www.w3.org/1999/xlink">
    <!-- Generator: Sketch 61 (89581) - https://sketch.com -->
    <title>dropbox_export_normal</title>
    <desc>Created with Sketch.</desc>
    <g id="图标" stroke="none" stroke-width="1" fill="none" fill-rule="evenodd">
        <g id="切图" transform="translate(-568.000000, -476.000000)" fill="#A2ABC3" fill-rule="nonzero">
            <path d="M570.697612,481.46042 C570.877529,481.266353 570.87175,480.964747 570.68453,480.777716 C570.49731,480.590685 570.195699,480.585209 570.001813,480.765321 L568.144716,482.621018 C567.951761,482.81446 567.951761,483.127575 568.144716,483.321017 L570.001813,485.175314 C570.123488,485.311664 570.310625,485.369486 570.488008,485.325539 C570.665391,485.281592 570.80389,485.143093 570.847837,484.96571 C570.891784,484.788327 570.833962,484.60119 570.697612,484.479515 L569.681214,483.464517 L576.259104,483.464517 C576.531269,483.464517 576.751903,483.243883 576.751903,482.971718 C576.751903,482.699552 576.531269,482.478918 576.259104,482.478918 L569.681214,482.478918 L570.697612,481.46042 Z M581.447679,480.28046 C579.948982,476.721665 575.847688,475.051468 572.286793,476.549465 C571.155696,477.025528 570.169762,477.79081 569.427998,478.768462 C569.321461,478.908135 569.297532,479.094034 569.365224,479.256134 C569.432916,479.418233 569.581945,479.531906 569.756174,479.554333 C569.930402,479.57676 570.10336,479.504534 570.209897,479.364861 C570.762892,478.641038 571.471795,478.051043 572.283993,477.638664 C574.60306,476.463414 577.414872,476.912513 579.252483,478.751662 C580.669134,480.166614 581.288752,482.193777 580.905264,484.158955 C580.521777,486.124134 579.185475,487.769616 577.340786,488.548147 C575.71024,489.234837 573.860397,489.170856 572.281193,488.373147 C571.468894,487.95968 570.760025,487.368757 570.207097,486.64415 C570.108224,486.486469 569.928853,486.398061 569.743574,486.415687 C569.558295,486.433314 569.398814,486.553961 569.331448,486.727457 C569.264083,486.900953 569.300361,487.09761 569.425198,487.235649 C570.068128,488.079019 570.892858,488.766653 571.838094,489.247446 C575.294689,490.990443 579.510082,489.603045 581.25448,486.147851 C582.174814,484.314852 582.246436,482.170791 581.450479,480.28046 L581.447679,480.28046 L581.447679,480.28046 Z" id="dropbox_export_normal" transform="translate(575.000000, 483.000023) rotate(-180.000000) translate(-575.000000, -483.000023) "></path>
        </g>
    </g>
</svg>