<?xml version="1.0" encoding="UTF-8"?>
<svg width="14px" height="14px" viewBox="0 0 14 14" version="1.1" xmlns="http://www.w3.org/2000/svg" xmlns:xlink="http://www.w3.org/1999/xlink">
    <!-- Generator: Sketch 61 (89581) - https://sketch.com -->
    <title>dropbox_other_normal</title>
    <desc>Created with Sketch.</desc>
    <g id="图标" stroke="none" stroke-width="1" fill="none" fill-rule="evenodd">
        <g id="切图" transform="translate(-568.000000, -500.000000)" fill="#A2ABC3" fill-rule="nonzero">
            <path d="M574.077888,500.246484 C574.648602,499.917839 575.35111,499.917839 575.921824,500.246484 L575.921824,500.246484 L580.388419,502.824025 C580.957797,503.153831 581.310162,503.762009 581.310162,504.420719 L581.310162,504.420719 L581.310162,509.578959 C581.310671,510.237995 580.958989,510.847072 580.387968,511.176105 L580.387968,511.176105 L575.920922,513.753646 C575.350322,514.082118 574.648036,514.082118 574.077437,513.753646 L574.077437,513.753646 L569.611744,511.175654 C569.040562,510.845397 568.690001,510.237218 568.690001,509.578508 L568.690001,509.578508 L568.690001,504.421171 C568.6894,503.762228 569.040897,503.153173 569.611744,502.824025 L569.611744,502.824025 Z M575.433657,501.017084 C575.169014,500.864185 574.84288,500.864185 574.578237,501.017084 L574.578237,501.017084 L570.021408,503.647412 C569.755217,503.800359 569.592795,504.083243 569.592795,504.389137 L569.592795,504.389137 L569.592795,509.652049 C569.593028,509.958073 569.756383,510.240763 570.021408,510.393775 L570.021408,510.393775 L574.580041,513.024102 C574.844684,513.177002 575.170819,513.177002 575.435462,513.024102 L575.435462,513.024102 L579.992291,510.393775 C580.258482,510.240827 580.420903,509.957492 580.420903,509.652049 L580.420903,509.652049 L580.419099,509.652049 L580.419099,504.389137 C580.418865,504.083114 580.25551,503.800424 579.990486,503.647412 L579.990486,503.647412 Z M570.830777,504.362413 C570.99434,504.288497 571.184912,504.307456 571.330706,504.412147 L571.330706,504.412147 L574.958123,507.0136 L578.447932,504.490651 C578.673362,504.327727 578.987753,504.37757 579.151308,504.60209 C579.313729,504.828578 579.262747,505.142593 579.038064,505.305015 L579.038064,505.305015 L575.43095,507.911882 L575.43095,511.365597 C575.43095,511.642929 575.206128,511.867751 574.928797,511.867751 C574.651465,511.867751 574.426643,511.642929 574.426643,511.365597 L574.426643,511.365597 L574.426643,507.869923 L570.744635,505.228316 C570.598841,505.123624 570.519973,504.949105 570.537742,504.770497 C570.55551,504.59189 570.667214,504.436329 570.830777,504.362413 Z" id="dropbox_other_normal"></path>
        </g>
    </g>
</svg>