<?xml version="1.0" standalone="no"?><!DOCTYPE svg PUBLIC "-//W3C//DTD SVG 1.1//EN" "http://www.w3.org/Graphics/SVG/1.1/DTD/svg11.dtd"><svg t="1637138892320" class="icon" viewBox="0 0 1024 1024" version="1.1" xmlns="http://www.w3.org/2000/svg" p-id="995" xmlns:xlink="http://www.w3.org/1999/xlink" width="200" height="200"><defs><style type="text/css"></style></defs><path d="M284.444444 830.577778c-5.688889 0-17.066667 0-22.755555-5.688889-17.066667-11.377778-28.444444-28.444444-28.444445-45.511111v-51.2h-51.2c-39.822222 0-73.955556-34.133333-73.955555-73.955556v-455.111111c0-39.822222 34.133333-73.955556 73.955555-73.955555h637.155556c39.822222 0 73.955556 34.133333 73.955556 73.955555v449.422222c0 39.822222-34.133333 73.955556-73.955556 73.955556H460.8 455.111111l-142.222222 91.022222c-11.377778 11.377778-17.066667 17.066667-28.444445 17.066667zM182.044444 182.044444c-11.377778 0-17.066667 11.377778-17.066666 17.066667v449.422222c0 11.377778 5.688889 17.066667 17.066666 17.066667h56.888889c28.444444 0 51.2 22.755556 51.2 51.2v45.511111l130.844445-85.333333c11.377778-5.688889 22.755556-11.377778 39.822222-11.377778h358.4c11.377778 0 17.066667-5.688889 17.066667-17.066667V199.111111c0-11.377778-5.688889-17.066667-17.066667-17.066667H182.044444z" fill="#A2ABC3" p-id="996"></path><path d="M728.177778 352.711111H290.133333c-17.066667 0-28.444444-11.377778-28.444444-28.444444s11.377778-28.444444 28.444444-28.444445h438.044445c17.066667 0 28.444444 11.377778 28.444444 28.444445s-11.377778 28.444444-28.444444 28.444444zM494.933333 512H290.133333c-17.066667 0-28.444444-11.377778-28.444444-28.444444s11.377778-28.444444 28.444444-28.444445h204.8c17.066667 0 28.444444 11.377778 28.444445 28.444445S512 512 494.933333 512z" fill="#A2ABC3" p-id="997"></path></svg>