<?xml version="1.0" encoding="UTF-8"?>
<svg width="13px" height="17px" viewBox="0 0 13 17" version="1.1" xmlns="http://www.w3.org/2000/svg" xmlns:xlink="http://www.w3.org/1999/xlink">
    <!-- Generator: Sketch 61 (89581) - https://sketch.com -->
    <title>dropbox_update_select</title>
    <desc>Created with Sketch.</desc>
    <g id="图标" stroke="none" stroke-width="1" fill="none" fill-rule="evenodd">
        <g id="切图" transform="translate(-596.000000, -524.000000)" fill="#E0E7FA" fill-rule="nonzero">
            <path d="M602.225203,524.500232 C602.903876,524.491985 603.566999,524.703563 604.115482,525.103352 C604.634266,525.483498 605.053307,525.983589 605.3368,526.560892 C605.901107,527.707444 606.242233,528.950848 606.342,530.224846 C606.379501,530.626364 606.3981,531.007703 606.40185,531.367835 L606.371653,531.33911 C606.772573,531.69028 607.12182,532.096381 607.40902,532.54535 C608.071321,533.53577 608.426429,534.699704 608.4298,535.891158 C608.4298,536.168737 608.204778,536.393758 607.9272,536.393758 L607.92921,536.395769 L607.778431,536.362094 L605.55172,535.629956 C605.489803,535.679095 605.416369,535.713583 605.3368,535.729321 L605.147741,535.766206 C605.273422,536.017286 605.3612,536.286846 605.407164,536.56615 C605.482879,536.947757 605.482879,537.340523 605.407164,537.72213 C605.318311,538.137996 605.080366,538.506981 604.738203,538.759496 C604.483591,538.923901 604.199611,539.037561 603.901877,539.094228 C603.723104,539.129817 603.549052,539.18598 603.383194,539.261594 C603.073947,539.415387 602.856485,539.707327 602.797665,540.04766 C602.749972,540.274824 602.572489,540.452307 602.345325,540.5 L602.123678,540.444211 C601.268885,540.10313 600.611931,539.396932 600.333417,538.519756 C600.29178,538.393687 600.258205,538.265097 600.232897,538.134764 C599.921564,538.282018 599.561895,538.288061 599.245791,538.15135 C599.016492,538.027549 598.889446,537.773256 598.928147,537.515561 C598.93725,536.850108 599.116273,536.271033 599.480378,535.783222 C599.390978,535.766397 599.301713,535.746772 599.212619,535.726305 C599.130984,535.705795 599.056526,535.665313 598.995477,535.609356 L596.667955,536.362094 L596.5026,536.395769 C596.225022,536.395769 596,536.170747 596,535.893169 C596.000815,534.701405 596.355954,533.536793 597.020278,532.547361 C597.287349,532.129857 597.608075,531.749425 597.974113,531.415762 C597.976547,531.039079 597.996629,530.634734 598.041059,530.205245 C598.156837,528.92795 598.515051,527.684436 599.096518,526.541291 C599.671569,525.32581 600.881053,524.536779 602.225203,524.500232 Z M602.208115,536.097224 L602.20711,536.094209 L602.190524,536.094209 C601.565901,536.081686 600.943115,536.029117 600.325984,535.936973 L600.333417,535.928351 C599.948996,536.248531 599.893483,536.769533 599.802043,537.261401 L600.333417,537.151878 C600.499657,537.053365 600.784614,537.074298 600.890888,537.151878 C600.997163,537.229459 601.047727,537.324219 601.02073,537.515561 C600.998492,537.792794 601.046699,538.107341 601.135262,538.370986 C601.27271,538.777995 601.672958,539.259539 602.025202,539.505451 C602.225056,539.111579 602.703795,538.64685 603.101022,538.453749 C603.331824,538.350514 603.574731,538.25451 603.822065,538.202042 C603.992906,538.177601 604.30317,538.087049 604.452726,538.000927 C604.569832,537.917495 604.574533,537.69586 604.675053,537.310868 C604.767973,536.771792 604.79074,536.358448 604.452726,535.928351 L604.41814,535.898691 C603.686898,536.012845 602.948657,536.079206 602.208115,536.097224 Z M598.045021,532.676189 L598.037784,532.682056 C597.872991,532.832338 597.723,532.989661 597.622602,533.15035 C597.211194,533.769432 596.927667,534.709989 596.821519,535.445688 L598.554883,534.776502 C598.366404,534.301197 598.152559,533.598297 598.045021,532.676189 Z M606.361158,532.542155 L606.347176,532.693922 C606.255876,533.655176 606.068796,534.387187 605.917129,534.856657 L607.594418,535.401322 C607.485395,534.666373 607.119311,533.649813 606.710544,533.029373 C606.603486,532.858025 606.487389,532.695724 606.361158,532.542155 Z M602.190021,525.307294 C601.720648,525.301519 601.207543,525.512013 600.828721,525.789211 C600.430721,526.086829 600.034444,526.584582 599.803802,527.024792 C599.289268,528.049596 598.895112,529.161808 598.790575,530.303754 C598.651657,531.480172 598.952906,532.67226 599.257853,533.816928 C599.365802,534.150633 599.504278,534.776734 599.663954,535.089009 C600.494042,535.272167 601.405194,535.21849 602.255072,535.235885 C603.154426,535.213408 604.100695,535.169672 604.982509,534.991492 C605.101299,534.65837 605.327056,534.058893 605.397676,533.712348 C605.627099,532.573004 605.599089,531.427673 605.48061,530.271515 C605.401953,529.131133 605.111466,527.991296 604.604733,526.96666 C604.378842,526.528599 604.006936,526.089223 603.61589,525.789211 C603.233342,525.519417 602.658131,525.309711 602.190021,525.307294 Z M602.224198,527.022782 C603.056933,527.022782 603.731998,527.697847 603.731998,528.530582 C603.731998,529.363316 603.056933,530.038381 602.224198,530.038381 C601.391463,530.038381 600.716398,529.363316 600.716398,528.530582 C600.716398,527.697847 601.391463,527.022782 602.224198,527.022782 Z M602.22501,527.83 C601.939868,527.830705 601.682804,528.00247 601.573685,528.265907 C601.464566,528.529343 601.524882,528.832572 601.726507,529.034197 C601.928133,529.235823 602.231361,529.296139 602.494798,529.18702 C602.758234,529.077901 602.93,528.820836 602.93,528.535694 C602.930186,528.348597 602.855994,528.169099 602.723762,528.036736 C602.591531,527.904372 602.412107,527.83 602.22501,527.83 Z" id="dropbox_update_select"></path>
        </g>
    </g>
</svg>