<?xml version="1.0" encoding="UTF-8"?>
<svg width="13px" height="17px" viewBox="0 0 13 17" version="1.1" xmlns="http://www.w3.org/2000/svg" xmlns:xlink="http://www.w3.org/1999/xlink">
    <!-- Generator: Sketch 61 (89581) - https://sketch.com -->
    <title>dropbox_update_normal</title>
    <desc>Created with Sketch.</desc>
    <g id="图标" stroke="none" stroke-width="1" fill="none" fill-rule="evenodd">
        <g id="切图" transform="translate(-569.000000, -524.000000)" fill="#A2ABC3" fill-rule="nonzero">
            <path d="M575.225203,524.500232 C575.903876,524.491985 576.566999,524.703563 577.115482,525.103352 C577.634266,525.483498 578.053307,525.983589 578.3368,526.560892 C578.901107,527.707444 579.242233,528.950848 579.342,530.224846 C579.379501,530.626364 579.3981,531.007703 579.40185,531.367835 L579.371653,531.33911 C579.772573,531.69028 580.12182,532.096381 580.40902,532.54535 C581.071321,533.53577 581.426429,534.699704 581.4298,535.891158 C581.4298,536.168737 581.204778,536.393758 580.9272,536.393758 L580.92921,536.395769 L580.778431,536.362094 L578.55172,535.629956 C578.489803,535.679095 578.416369,535.713583 578.3368,535.729321 L578.147741,535.766206 C578.273422,536.017286 578.3612,536.286846 578.407164,536.56615 C578.482879,536.947757 578.482879,537.340523 578.407164,537.72213 C578.318311,538.137996 578.080366,538.506981 577.738203,538.759496 C577.483591,538.923901 577.199611,539.037561 576.901877,539.094228 C576.723104,539.129817 576.549052,539.18598 576.383194,539.261594 C576.073947,539.415387 575.856485,539.707327 575.797665,540.04766 C575.749972,540.274824 575.572489,540.452307 575.345325,540.5 L575.123678,540.444211 C574.268885,540.10313 573.611931,539.396932 573.333417,538.519756 C573.29178,538.393687 573.258205,538.265097 573.232897,538.134764 C572.921564,538.282018 572.561895,538.288061 572.245791,538.15135 C572.016492,538.027549 571.889446,537.773256 571.928147,537.515561 C571.93725,536.850108 572.116273,536.271033 572.480378,535.783222 C572.390978,535.766397 572.301713,535.746772 572.212619,535.726305 C572.130984,535.705795 572.056526,535.665313 571.995477,535.609356 L569.667955,536.362094 L569.5026,536.395769 C569.225022,536.395769 569,536.170747 569,535.893169 C569.000815,534.701405 569.355954,533.536793 570.020278,532.547361 C570.287349,532.129857 570.608075,531.749425 570.974113,531.415762 C570.976547,531.039079 570.996629,530.634734 571.041059,530.205245 C571.156837,528.92795 571.515051,527.684436 572.096518,526.541291 C572.671569,525.32581 573.881053,524.536779 575.225203,524.500232 Z M575.208115,536.097224 L575.20711,536.094209 L575.190524,536.094209 C574.565901,536.081686 573.943115,536.029117 573.325984,535.936973 L573.333417,535.928351 C572.948996,536.248531 572.893483,536.769533 572.802043,537.261401 L573.333417,537.151878 C573.499657,537.053365 573.784614,537.074298 573.890888,537.151878 C573.997163,537.229459 574.047727,537.324219 574.02073,537.515561 C573.998492,537.792794 574.046699,538.107341 574.135262,538.370986 C574.27271,538.777995 574.672958,539.259539 575.025202,539.505451 C575.225056,539.111579 575.703795,538.64685 576.101022,538.453749 C576.331824,538.350514 576.574731,538.25451 576.822065,538.202042 C576.992906,538.177601 577.30317,538.087049 577.452726,538.000927 C577.569832,537.917495 577.574533,537.69586 577.675053,537.310868 C577.767973,536.771792 577.79074,536.358448 577.452726,535.928351 L577.41814,535.898691 C576.686898,536.012845 575.948657,536.079206 575.208115,536.097224 Z M571.045021,532.676189 L571.037784,532.682056 C570.872991,532.832338 570.723,532.989661 570.622602,533.15035 C570.211194,533.769432 569.927667,534.709989 569.821519,535.445688 L571.554883,534.776502 C571.366404,534.301197 571.152559,533.598297 571.045021,532.676189 Z M579.361158,532.542155 L579.347176,532.693922 C579.255876,533.655176 579.068796,534.387187 578.917129,534.856657 L580.594418,535.401322 C580.485395,534.666373 580.119311,533.649813 579.710544,533.029373 C579.603486,532.858025 579.487389,532.695724 579.361158,532.542155 Z M575.190021,525.307294 C574.720648,525.301519 574.207543,525.512013 573.828721,525.789211 C573.430721,526.086829 573.034444,526.584582 572.803802,527.024792 C572.289268,528.049596 571.895112,529.161808 571.790575,530.303754 C571.651657,531.480172 571.952906,532.67226 572.257853,533.816928 C572.365802,534.150633 572.504278,534.776734 572.663954,535.089009 C573.494042,535.272167 574.405194,535.21849 575.255072,535.235885 C576.154426,535.213408 577.100695,535.169672 577.982509,534.991492 C578.101299,534.65837 578.327056,534.058893 578.397676,533.712348 C578.627099,532.573004 578.599089,531.427673 578.48061,530.271515 C578.401953,529.131133 578.111466,527.991296 577.604733,526.96666 C577.378842,526.528599 577.006936,526.089223 576.61589,525.789211 C576.233342,525.519417 575.658131,525.309711 575.190021,525.307294 Z M575.224198,527.022782 C576.056933,527.022782 576.731998,527.697847 576.731998,528.530582 C576.731998,529.363316 576.056933,530.038381 575.224198,530.038381 C574.391463,530.038381 573.716398,529.363316 573.716398,528.530582 C573.716398,527.697847 574.391463,527.022782 575.224198,527.022782 Z M575.22501,527.83 C574.939868,527.830705 574.682804,528.00247 574.573685,528.265907 C574.464566,528.529343 574.524882,528.832572 574.726507,529.034197 C574.928133,529.235823 575.231361,529.296139 575.494798,529.18702 C575.758234,529.077901 575.93,528.820836 575.93,528.535694 C575.930186,528.348597 575.855994,528.169099 575.723762,528.036736 C575.591531,527.904372 575.412107,527.83 575.22501,527.83 Z" id="dropbox_update_normal"></path>
        </g>
    </g>
</svg>