<?xml version="1.0" encoding="UTF-8"?>
<svg width="14px" height="14px" viewBox="0 0 14 14" version="1.1" xmlns="http://www.w3.org/2000/svg" xmlns:xlink="http://www.w3.org/1999/xlink">
    <!-- Generator: Sketch 61 (89581) - https://sketch.com -->
    <title>dropbox_other_select</title>
    <desc>Created with Sketch.</desc>
    <g id="图标" stroke="none" stroke-width="1" fill="none" fill-rule="evenodd">
        <g id="切图" transform="translate(-595.000000, -500.000000)" fill="#E0E7FA" fill-rule="nonzero">
            <path d="M601.077888,500.246484 C601.648602,499.917839 602.35111,499.917839 602.921824,500.246484 L602.921824,500.246484 L607.388419,502.824025 C607.957797,503.153831 608.310162,503.762009 608.310162,504.420719 L608.310162,504.420719 L608.310162,509.578959 C608.310671,510.237995 607.958989,510.847072 607.387968,511.176105 L607.387968,511.176105 L602.920922,513.753646 C602.350322,514.082118 601.648036,514.082118 601.077437,513.753646 L601.077437,513.753646 L596.611744,511.175654 C596.040562,510.845397 595.690001,510.237218 595.690001,509.578508 L595.690001,509.578508 L595.690001,504.421171 C595.6894,503.762228 596.040897,503.153173 596.611744,502.824025 L596.611744,502.824025 Z M602.433657,501.017084 C602.169014,500.864185 601.84288,500.864185 601.578237,501.017084 L601.578237,501.017084 L597.021408,503.647412 C596.755217,503.800359 596.592795,504.083243 596.592795,504.389137 L596.592795,504.389137 L596.592795,509.652049 C596.593028,509.958073 596.756383,510.240763 597.021408,510.393775 L597.021408,510.393775 L601.580041,513.024102 C601.844684,513.177002 602.170819,513.177002 602.435462,513.024102 L602.435462,513.024102 L606.992291,510.393775 C607.258482,510.240827 607.420903,509.957492 607.420903,509.652049 L607.420903,509.652049 L607.419099,509.652049 L607.419099,504.389137 C607.418865,504.083114 607.25551,503.800424 606.990486,503.647412 L606.990486,503.647412 Z M597.830777,504.362413 C597.99434,504.288497 598.184912,504.307456 598.330706,504.412147 L598.330706,504.412147 L601.958123,507.0136 L605.447932,504.490651 C605.673362,504.327727 605.987753,504.37757 606.151308,504.60209 C606.313729,504.828578 606.262747,505.142593 606.038064,505.305015 L606.038064,505.305015 L602.43095,507.911882 L602.43095,511.365597 C602.43095,511.642929 602.206128,511.867751 601.928797,511.867751 C601.651465,511.867751 601.426643,511.642929 601.426643,511.365597 L601.426643,511.365597 L601.426643,507.869923 L597.744635,505.228316 C597.598841,505.123624 597.519973,504.949105 597.537742,504.770497 C597.55551,504.59189 597.667214,504.436329 597.830777,504.362413 Z" id="dropbox_other_select"></path>
        </g>
    </g>
</svg>