<?xml version="1.0" encoding="UTF-8"?>
<svg width="13px" height="13px" viewBox="0 0 13 13" version="1.1" xmlns="http://www.w3.org/2000/svg" xmlns:xlink="http://www.w3.org/1999/xlink">
    <title>矩形</title>
    <g id="2.5" stroke="none" stroke-width="1" fill="none" fill-rule="evenodd">
        <g id="插件交互规范" transform="translate(-1396.000000, -187.000000)" fill="#E0E7FA" fill-rule="nonzero">
            <g id="编组-3备份" transform="translate(1389.000000, 179.000000)">
                <g id="编组" transform="translate(7.000000, 8.000000)">
                    <path d="M10,0 C11.6568542,0 13,1.34314575 13,3 L13,10 C13,11.6568542 11.6568542,13 10,13 L3,13 C1.34314575,13 0,11.6568542 0,10 L0,3 C0,1.34314575 1.34314575,0 3,0 L10,0 Z M10,1 L3,1 C1.9456382,1 1.08183488,1.81587779 1.00548574,2.85073766 L1,3 L1,10 C1,11.0543618 1.81587779,11.9181651 2.85073766,11.9945143 L3,12 L10,12 C11.0543618,12 11.9181651,11.1841222 11.9945143,10.1492623 L12,10 L12,3 C12,1.9456382 11.1841222,1.08183488 10.1492623,1.00548574 L10,1 Z" id="矩形"></path>
                </g>
            </g>
        </g>
    </g>
</svg>