<?xml version="1.0" encoding="UTF-8"?>
<svg width="13px" height="13px" viewBox="0 0 13 13" version="1.1" xmlns="http://www.w3.org/2000/svg" xmlns:xlink="http://www.w3.org/1999/xlink">
    <title>路径 2</title>
    <g id="2.5" stroke="none" stroke-width="1" fill="none" fill-rule="evenodd">
        <g id="插件交互规范" transform="translate(-1396.000000, -283.000000)" fill="#4F84FA" fill-rule="nonzero">
            <g id="编组-3备份-2" transform="translate(1389.000000, 275.000000)">
                <g id="编组" transform="translate(7.000000, 8.000000)">
                    <path d="M10,0 C11.6568542,-3.04359188e-16 13,1.34314575 13,3 L13,10 C13,11.6568542 11.6568542,13 10,13 L3,13 C1.34314575,13 2.02906125e-16,11.6568542 0,10 L0,3 C-2.02906125e-16,1.34314575 1.34314575,3.04359188e-16 3,0 L10,0 Z M9.97825,3.09525 L5.28525,7.78825 L3.44625,5.95025 C3.31925,5.82325 3.11325,5.82325 2.98625,5.95025 L2.29525,6.64125 C2.16825,6.76825 2.16825,6.97425 2.29525,7.10125 L4.36325,9.17025 L5.05525,9.86125 C5.18225,9.98825 5.38825,9.98825 5.51525,9.86125 L6.20625,9.17025 L11.12925,4.24625 C11.25725,4.11925 11.25725,3.91325 11.12925,3.78625 L10.43925,3.09525 C10.31225,2.96825 10.10525,2.96825 9.97825,3.09525 Z" id="路径-2"></path>
                </g>
            </g>
        </g>
    </g>
</svg>