<?xml version="1.0" encoding="UTF-8"?>
<svg width="18px" height="18px" viewBox="0 0 18 18" version="1.1" xmlns="http://www.w3.org/2000/svg" xmlns:xlink="http://www.w3.org/1999/xlink">
    <!-- Generator: Sketch 61 (89581) - https://sketch.com -->
    <title>picview_forward_hover</title>
    <desc>Created with Sketch.</desc>
    <g id="图标" stroke="none" stroke-width="1" fill="none" fill-rule="evenodd">
        <g id="画板" transform="translate(-132.000000, -108.000000)" fill="#E0E7FA">
            <path d="M141,108 C145.970563,108 150,112.029437 150,117 C150,121.970563 145.970563,126 141,126 C136.029437,126 132,121.970563 132,117 C132,112.029437 136.029437,108 141,108 Z M141,109.145455 C136.662054,109.145455 133.145455,112.662054 133.145455,117 C133.145455,121.337946 136.662054,124.854545 141,124.854545 C145.337946,124.854545 148.854545,121.337946 148.854545,117 C148.854545,112.662054 145.337946,109.145455 141,109.145455 Z M139.854304,113.402751 L143.069127,116.617574 C143.172528,116.717841 143.222661,116.852576 143.222661,116.98731 C143.222661,117.122044 143.172528,117.256778 143.069127,117.357046 L139.854304,120.571869 C139.650636,120.775537 139.3185,120.775537 139.114832,120.571869 C138.911164,120.368201 138.911164,120.036065 139.114832,119.832397 L141.959919,116.98731 L139.114832,114.142223 C138.911164,113.938555 138.911164,113.606419 139.114832,113.402751 C139.3185,113.199083 139.650636,113.199083 139.854304,113.402751 Z" id="picview_forward_hover"></path>
        </g>
    </g>
</svg>