<?xml version="1.0" encoding="UTF-8"?>
<svg width="15px" height="11px" viewBox="0 0 15 11" version="1.1" xmlns="http://www.w3.org/2000/svg" xmlns:xlink="http://www.w3.org/1999/xlink">
    <!-- Generator: Sketch 61 (89581) - https://sketch.com -->
    <title>dropbox_array_select</title>
    <desc>Created with Sketch.</desc>
    <g id="图标" stroke="none" stroke-width="1" fill="none" fill-rule="evenodd">
        <g id="切图" transform="translate(-452.000000, -504.000000)" fill="#E0E7FA" fill-rule="nonzero">
            <path d="M453.149141,505.147629 L459.690859,505.147629 C460.049509,505.147629 460.34,504.890847 460.34,504.573815 C460.34,504.256782 460.049509,504 459.690859,504 L453.149141,504 C452.790491,504 452.5,504.256782 452.5,504.573815 C452.5,504.890847 452.790491,505.147629 453.149141,505.147629 Z M457.970215,508.712769 L453.157478,508.712769 C452.794221,508.712769 452.5,508.969551 452.5,509.286584 C452.5,509.603616 452.794221,509.860399 453.157478,509.860399 L457.970215,509.860399 C458.333471,509.860399 458.627692,509.603616 458.627692,509.286584 C458.627692,508.969551 458.333471,508.712769 457.970215,508.712769 L457.970215,508.712769 Z M457.970215,513.451392 L453.157478,513.451392 C452.794221,513.451392 452.5,513.708174 452.5,514.025207 C452.5,514.342239 452.794221,514.599021 453.157478,514.599021 L457.970215,514.599021 C458.333471,514.599021 458.627692,514.342239 458.627692,514.025207 C458.627692,513.708174 458.333471,513.451392 457.970215,513.451392 Z M466.32244,510.624943 C466.034356,510.336858 465.753441,510.437583 465.463509,510.725668 L463.632951,512.530448 L463.632951,504.891954 C463.632951,504.483834 463.476464,504.153276 463.068344,504.153276 C462.660224,504.153276 462.494022,504.483834 462.494022,504.891954 L462.494022,512.530448 L460.621471,510.777376 C460.333387,510.489291 459.984378,510.437583 459.694446,510.725668 C459.404515,511.013753 459.579265,511.392904 459.867349,511.682836 L462.545729,514.01387 C462.689771,514.157913 462.878134,514.229934 463.068344,514.229934 C463.258554,514.229934 463.446917,514.157913 463.590959,514.01387 L466.235805,511.592293 C466.52389,511.302362 466.610525,510.913028 466.32244,510.624943 Z" id="dropbox_array_select"></path>
        </g>
    </g>
</svg>