<?xml version="1.0" encoding="UTF-8"?>
<svg width="18px" height="18px" viewBox="0 0 18 18" version="1.1" xmlns="http://www.w3.org/2000/svg" xmlns:xlink="http://www.w3.org/1999/xlink">
    <!-- Generator: Sketch 61 (89581) - https://sketch.com -->
    <title>picview_forward_disable</title>
    <desc>Created with Sketch.</desc>
    <g id="图标" stroke="none" stroke-width="1" fill="none" fill-rule="evenodd">
        <g id="画板" transform="translate(-132.000000, -168.000000)" fill="#595D6F">
            <path d="M141,168 C145.970563,168 150,172.029437 150,177 C150,181.970563 145.970563,186 141,186 C136.029437,186 132,181.970563 132,177 C132,172.029437 136.029437,168 141,168 Z M141,169.145455 C136.662054,169.145455 133.145455,172.662054 133.145455,177 C133.145455,181.337946 136.662054,184.854545 141,184.854545 C145.337946,184.854545 148.854545,181.337946 148.854545,177 C148.854545,172.662054 145.337946,169.145455 141,169.145455 Z M139.854304,173.402751 L143.069127,176.617574 C143.172528,176.717841 143.222661,176.852576 143.222661,176.98731 C143.222661,177.122044 143.172528,177.256778 143.069127,177.357046 L139.854304,180.571869 C139.650636,180.775537 139.3185,180.775537 139.114832,180.571869 C138.911164,180.368201 138.911164,180.036065 139.114832,179.832397 L141.959919,176.98731 L139.114832,174.142223 C138.911164,173.938555 138.911164,173.606419 139.114832,173.402751 C139.3185,173.199083 139.650636,173.199083 139.854304,173.402751 Z" id="picview_forward_disable"></path>
        </g>
    </g>
</svg>