<?xml version="1.0" encoding="UTF-8"?>
<svg width="16px" height="17px" viewBox="0 0 16 17" version="1.1" xmlns="http://www.w3.org/2000/svg" xmlns:xlink="http://www.w3.org/1999/xlink">
    <!-- Generator: Sketch 61 (89581) - https://sketch.com -->
    <title>picview_display_hover</title>
    <desc>Created with Sketch.</desc>
    <g id="图标" stroke="none" stroke-width="1" fill="none" fill-rule="evenodd">
        <g id="切图" transform="translate(-269.000000, -108.000000)" fill="#E0E7FA" fill-rule="nonzero">
            <path d="M275.422752,108.003856 L269.850325,108.003856 C269.381779,108.003856 269,108.387563 269,108.854182 L269,123.153531 C269,123.622078 269.383707,124.003856 269.850325,124.003856 L275.422752,124.003856 C275.891299,124.003856 276.273078,123.620149 276.273078,123.153531 L276.273078,108.854182 C276.273078,108.387563 275.891299,108.003856 275.422752,108.003856 Z M275.039046,122.769824 L270.234032,122.769824 L270.234032,109.237889 L275.040974,109.237889 L275.040974,122.769824 L275.039046,122.769824 Z M284.151603,108 L278.559894,108 C278.093275,108 277.711497,108.381779 277.711497,108.848397 L277.711497,114.440106 C277.711497,114.906725 278.093275,115.288503 278.559894,115.288503 L284.151603,115.288503 C284.618221,115.288503 285,114.906725 285,114.440106 L285,108.848397 C285,108.381779 284.618221,108 284.151603,108 Z M283.765968,114.054471 L278.945529,114.054471 L278.945529,109.234032 L283.765968,109.234032 L283.765968,114.054471 Z M284.151603,116.715353 L278.559894,116.715353 C278.093275,116.715353 277.711497,117.097132 277.711497,117.56375 L277.711497,123.155459 C277.711497,123.622078 278.093275,124.003856 278.559894,124.003856 L284.151603,124.003856 C284.618221,124.003856 285,123.622078 285,123.155459 L285,117.56375 C285,117.097132 284.618221,116.715353 284.151603,116.715353 Z M283.765968,122.769824 L278.945529,122.769824 L278.945529,117.949385 L283.765968,117.949385 L283.765968,122.769824 Z" id="picview_display_hover"></path>
        </g>
    </g>
</svg>