<?xml version="1.0" encoding="UTF-8"?>
<svg width="18px" height="18px" viewBox="0 0 18 18" version="1.1" xmlns="http://www.w3.org/2000/svg" xmlns:xlink="http://www.w3.org/1999/xlink">
    <!-- Generator: Sketch 61 (89581) - https://sketch.com -->
    <title>picview_forward_normal</title>
    <desc>Created with Sketch.</desc>
    <g id="图标" stroke="none" stroke-width="1" fill="none" fill-rule="evenodd">
        <g id="画板" transform="translate(-132.000000, -138.000000)" fill="#A2ABC3">
            <path d="M141,138 C145.970563,138 150,142.029437 150,147 C150,151.970563 145.970563,156 141,156 C136.029437,156 132,151.970563 132,147 C132,142.029437 136.029437,138 141,138 Z M141,139.145455 C136.662054,139.145455 133.145455,142.662054 133.145455,147 C133.145455,151.337946 136.662054,154.854545 141,154.854545 C145.337946,154.854545 148.854545,151.337946 148.854545,147 C148.854545,142.662054 145.337946,139.145455 141,139.145455 Z M139.854304,143.402751 L143.069127,146.617574 C143.172528,146.717841 143.222661,146.852576 143.222661,146.98731 C143.222661,147.122044 143.172528,147.256778 143.069127,147.357046 L139.854304,150.571869 C139.650636,150.775537 139.3185,150.775537 139.114832,150.571869 C138.911164,150.368201 138.911164,150.036065 139.114832,149.832397 L141.959919,146.98731 L139.114832,144.142223 C138.911164,143.938555 138.911164,143.606419 139.114832,143.402751 C139.3185,143.199083 139.650636,143.199083 139.854304,143.402751 Z" id="picview_forward_normal"></path>
        </g>
    </g>
</svg>