<?xml version="1.0" encoding="UTF-8"?>
<svg width="14px" height="14px" viewBox="0 0 14 14" version="1.1" xmlns="http://www.w3.org/2000/svg" xmlns:xlink="http://www.w3.org/1999/xlink">
    <!-- Generator: Sketch 61 (89581) - https://sketch.com -->
    <title>dropbox_layout_normal</title>
    <desc>Created with Sketch.</desc>
    <g id="图标" stroke="none" stroke-width="1" fill="none" fill-rule="evenodd">
        <g id="切图" transform="translate(-481.000000, -480.000000)" fill="#A2ABC3" fill-rule="nonzero">
            <path d="M486.25,486.475 L482.1375,486.475 C481.525,486.475 481,485.95 481,485.25 L481,481.225 C481,480.525 481.525,480 482.1375,480 L486.25,480 C486.8625,480 487.3875,480.525 487.3875,481.225 L487.3875,485.25 C487.3875,485.95 486.8625,486.475 486.25,486.475 Z M482.1375,481.05 C482.05,481.05 481.9625,481.1375 481.9625,481.225 L481.9625,485.25 C481.9625,485.3375 482.05,485.425 482.1375,485.425 L486.25,485.425 C486.3375,485.425 486.425,485.3375 486.425,485.25 L486.425,481.225 C486.425,481.1375 486.3375,481.05 486.25,481.05 L482.1375,481.05 Z M486.25,494 L482.1375,494 C481.525,494 481,493.475 481,492.775 L481,488.75 C481,488.05 481.525,487.525 482.1375,487.525 L486.25,487.525 C486.8625,487.525 487.3875,488.05 487.3875,488.75 L487.3875,492.8625 C487.3875,493.475 486.8625,494 486.25,494 Z M482.1375,488.575 C482.05,488.575 481.9625,488.6625 481.9625,488.75 L481.9625,492.8625 C481.9625,492.95 482.05,493.0375 482.1375,493.0375 L486.25,493.0375 C486.3375,493.0375 486.425,492.95 486.425,492.8625 L486.425,488.75 C486.425,488.6625 486.3375,488.575 486.25,488.575 L482.1375,488.575 Z M493.6,482.3625 L489.225,482.3625 C488.9625,482.3625 488.7,482.1 488.7,481.8375 C488.7,481.575 488.9625,481.3125 489.225,481.3125 L493.6,481.3125 C493.8625,481.3125 494.125,481.575 494.125,481.8375 C494.125,482.1 493.8625,482.3625 493.6,482.3625 Z M493.6,485.1625 L489.225,485.1625 C488.9625,485.1625 488.7,484.9 488.7,484.6375 C488.7,484.375 488.9625,484.1125 489.225,484.1125 L493.6,484.1125 C493.8625,484.1125 494.125,484.375 494.125,484.6375 C494.125,484.9 493.8625,485.1625 493.6,485.1625 Z M493.6,492.6 L489.225,492.6 C488.9625,492.6 488.7,492.3375 488.7,492.075 C488.7,491.8125 488.9625,491.55 489.225,491.55 L493.6,491.55 C493.8625,491.55 494.125,491.8125 494.125,492.075 C494.125,492.3375 493.8625,492.6 493.6,492.6 Z M493.6,489.8875 L489.225,489.8875 C488.9625,489.8875 488.7,489.625 488.7,489.3625 C488.7,489.1 488.9625,488.8375 489.225,488.8375 L493.6,488.8375 C493.8625,488.8375 494.125,489.1 494.125,489.3625 C494.125,489.7125 493.8625,489.8875 493.6,489.8875 Z" id="dropbox_layout_normal"></path>
        </g>
    </g>
</svg>