<?xml version="1.0" encoding="UTF-8"?>
<svg width="13px" height="13px" viewBox="0 0 13 13" version="1.1" xmlns="http://www.w3.org/2000/svg" xmlns:xlink="http://www.w3.org/1999/xlink">
    <!-- Generator: Sketch 61 (89581) - https://sketch.com -->
    <title>dropbox_window_select</title>
    <desc>Created with Sketch.</desc>
    <g id="图标" stroke="none" stroke-width="1" fill="none" fill-rule="evenodd">
        <g id="切图" transform="translate(-533.000000, -502.000000)" fill="#E0E7FA" fill-rule="nonzero">
            <path d="M534.857143,515 C533.831471,515 533,514.168529 533,513.142857 L533,503.857143 C533,502.831471 533.831471,502 534.857143,502 L544.142857,502 C545.168529,502 546,502.831471 546,503.857143 L546,505.714286 L545.999071,505.714286 L546,513.142857 C546,514.168529 545.168529,515 544.142857,515 L534.857143,515 Z M538.571429,502.928571 L534.857143,502.928571 C534.344307,502.928571 533.928571,503.344307 533.928571,503.857143 L533.928571,513.142857 C533.928571,513.655693 534.344307,514.071429 534.857143,514.071429 L538.571429,514.071429 L538.571429,502.928571 Z M539.5,514.071429 L544.142857,514.071429 C544.655693,514.071429 545.071429,513.655693 545.071429,513.142857 L545.0705,505.714286 L539.5,505.714286 L539.5,514.071429 Z M544.142857,502.928571 L539.5,502.928571 L539.5,504.785714 L545.0705,504.785714 L545.071429,503.857143 C545.071429,503.344307 544.655693,502.928571 544.142857,502.928571 Z" id="dropbox_window_select"></path>
        </g>
    </g>
</svg>