<?xml version="1.0" standalone="no"?><!DOCTYPE svg PUBLIC "-//W3C//DTD SVG 1.1//EN" "http://www.w3.org/Graphics/SVG/1.1/DTD/svg11.dtd"><svg t="1650033380854" class="icon" viewBox="0 0 1194 1024" version="1.1" xmlns="http://www.w3.org/2000/svg" p-id="3939" xmlns:xlink="http://www.w3.org/1999/xlink" width="233.203125" height="200"><defs><style type="text/css"></style></defs><path d="M442.453333 142.506667h668.672c41.557333 0 75.264-30.549333 75.264-68.266667 0-37.632-33.706667-68.266667-75.264-68.266667H76.373333C34.730667 5.973333 1.024 36.608 1.024 74.24c0 37.717333 33.706667 68.266667 75.349333 68.266667h366.08z m0 426.666666h668.672c41.557333 0 75.264-30.549333 75.264-68.266666 0-37.632-33.706667-68.266667-75.264-68.266667H76.373333c-41.642667 0-75.349333 30.634667-75.349333 68.266667 0 37.717333 33.706667 68.266667 75.349333 68.266666h366.08z m0 426.666667h668.672c41.557333 0 75.264-30.549333 75.264-68.266667 0-37.632-33.706667-68.266667-75.264-68.266666H76.373333c-41.642667 0-75.349333 30.634667-75.349333 68.266666 0 37.717333 33.706667 68.266667 75.349333 68.266667h366.08z" fill="#6C99FF" p-id="3940"></path></svg>