<?xml version="1.0" encoding="UTF-8"?>
<svg width="14px" height="13px" viewBox="0 0 14 13" version="1.1" xmlns="http://www.w3.org/2000/svg" xmlns:xlink="http://www.w3.org/1999/xlink">
    <!-- Generator: Sketch 61 (89581) - https://sketch.com -->
    <title>dropbox_show_select</title>
    <desc>Created with Sketch.</desc>
    <g id="图标" stroke="none" stroke-width="1" fill="none" fill-rule="evenodd">
        <g id="切图" transform="translate(-505.000000, -503.000000)" fill="#E0E7FA" fill-rule="nonzero">
            <path d="M507.999998,507.117652 C507.999998,507.686171 508.447712,508.147069 508.999998,508.147069 C509.552292,508.147069 509.999998,507.686186 509.999998,507.117652 C509.999998,506.549133 509.552292,506.088235 508.999998,506.088235 C508.447727,506.088235 507.999998,506.549118 507.999998,507.117652 Z M517.166998,515.352941 L506.833002,515.352941 C505.822509,515.352941 505,514.506255 505,513.466026 L505,504.886915 C505,503.846701 505.822495,503 506.833002,503 L517.166998,503 C518.177491,503 519,503.846686 519,504.886915 L519,513.466026 C519,514.50624 518.177505,515.352941 517.166998,515.352941 Z M506.833002,504.029417 C506.374008,504.029417 506.000004,504.414421 506.000004,504.886915 L506.000004,513.466026 C506.000004,513.939048 506.374008,514.323524 506.833002,514.323524 L517.166998,514.323524 C517.626505,514.323524 518.000004,513.939033 518.000004,513.466026 L518.000004,504.886915 C518.000004,504.414421 517.62649,504.029417 517.166998,504.029417 L506.833002,504.029417 Z M507.500003,513.310077 C507.451004,513.310077 507.401009,513.302356 507.351497,513.286402 C507.088001,513.201988 506.940492,512.914276 507.022494,512.643015 C507.059496,512.520511 507.962498,509.63764 509.884489,509.689121 C510.43149,509.703024 510.889488,509.845071 511.332486,509.982503 C511.901489,510.158538 512.393486,510.310372 513.045488,510.203309 C513.364984,510.15029 513.496981,509.819858 513.722494,509.077641 C514.019989,508.099192 514.46949,506.620956 516.451496,506.620956 C516.728,506.620956 516.951491,506.851548 516.951491,507.135657 C516.951491,507.419765 516.727985,507.650358 516.451496,507.650358 C515.26449,507.650358 515.003499,508.309699 514.676502,509.385424 C514.450008,510.131743 514.167,511.060792 513.2035,511.21932 C512.323994,511.363433 511.644497,511.152926 511.044,510.968145 C510.646998,510.845128 510.2715,510.728806 509.858502,510.718507 C509.851002,510.717995 509.843502,510.717995 509.836002,510.717995 C508.867009,510.717995 508.166009,512.32439 507.976502,512.948219 C507.910496,513.168512 507.713006,513.310077 507.500003,513.310077 L507.500003,513.310077 Z" id="dropbox_show_select"></path>
        </g>
    </g>
</svg>