<?xml version="1.0" encoding="UTF-8"?>
<svg width="22px" height="14px" viewBox="0 0 22 14" version="1.1" xmlns="http://www.w3.org/2000/svg"
     xmlns:xlink="http://www.w3.org/1999/xlink">
    <title>Fill 4</title>
    <g id="2.5" stroke="none" stroke-width="1" fill="none" fill-rule="evenodd">
        <g id="插件交互规范" transform="translate(-184.000000, -412.000000)" fill="#4F84FA">
            <g id="编组-4" transform="translate(176.000000, 405.000000)">
                <path d="M13.42,7.8 C16.409,7.8 18.84,10.231 18.84,13.22 C18.84,14.4472656 18.4301639,15.5804594 17.7401425,16.4899304 L20.1697,18.9204 C20.4627,19.2134 20.4627,19.6874 20.1697,19.9804 C20.0237,20.1274 19.8317,20.2004 19.6397,20.2004 C19.4477,20.2004 19.2557,20.1274 19.1097,19.9804 L16.6769892,17.5499308 C15.76972,18.234038 14.6414513,18.64 13.42,18.64 C10.431,18.64 8,16.209 8,13.22 C8,10.231 10.431,7.8 13.42,7.8 Z M13.42,9.3 C11.258,9.3 9.5,11.058 9.5,13.22 C9.5,15.382 11.258,17.14 13.42,17.14 C15.582,17.14 17.34,15.382 17.34,13.22 C17.34,11.058 15.582,9.3 13.42,9.3 Z M23.2104301,11.9696699 L25.5081,14.2684271 L27.8066242,11.9696699 C28.0995174,11.6767767 28.5743911,11.6767767 28.8672843,11.9696699 C29.1601776,12.2625631 29.1601776,12.7374369 28.8672843,13.0303301 L26.0388572,15.8587572 C25.745964,16.1516504 25.2710903,16.1516504 24.978197,15.8587572 L22.1497699,13.0303301 C21.8568767,12.7374369 21.8568767,12.2625631 22.1497699,11.9696699 C22.4426631,11.6767767 22.9175369,11.6767767 23.2104301,11.9696699 Z"
                      id="Fill-4"></path>
            </g>
        </g>
    </g>
</svg>