<?xml version="1.0" encoding="UTF-8"?>
<svg width="19px" height="17px" viewBox="0 0 19 17" version="1.1" xmlns="http://www.w3.org/2000/svg" xmlns:xlink="http://www.w3.org/1999/xlink">
    <!-- Generator: Sketch 61 (89581) - https://sketch.com -->
    <title>picview_skin_hover</title>
    <desc>Created with Sketch.</desc>
    <g id="图标" stroke="none" stroke-width="1" fill="none" fill-rule="evenodd">
        <g id="画板" transform="translate(-310.000000, -108.000000)" fill="#E0E7FA" fill-rule="nonzero">
            <path d="M324.770774,108.960938 L324.770774,110.141265 L327.78061,113.121593 L326.098642,114.80356 C325.862577,114.597003 325.597003,114.508478 325.301921,114.508478 C324.623233,114.508478 324.092085,115.039626 324.092085,115.718315 L324.092085,121.944544 C324.092085,122.593724 323.560938,123.124872 322.911757,123.124872 L317.010118,123.124872 C316.360937,123.124872 315.82979,122.593724 315.82979,121.944544 L315.82979,115.718315 C315.82979,115.039626 315.298642,114.508478 314.619954,114.508478 C314.324872,114.508478 314.02979,114.626511 313.823233,114.80356 L312.141265,113.121593 L315.121593,110.141265 L315.859298,110.141265 L315.888806,110.170774 C316.715036,111.410118 318.27897,112.206839 319.960938,112.206839 C321.642905,112.206839 323.206839,111.439626 324.033069,110.170774 C324.033069,110.141265 324.062577,110.141265 324.062577,110.141265 L324.770774,110.141265 L324.770774,108.960938 M315.888806,108.960938 L315.239626,108.960938 C314.826511,108.960938 314.531429,109.07897 314.324872,109.315036 L311.315036,112.295364 C310.842905,112.767495 310.842905,113.5052 311.315036,113.947823 L313.056019,115.688806 C313.262577,115.895364 313.557659,116.013397 313.823233,116.013397 C314.088806,116.013397 314.383888,115.895364 314.590446,115.688806 L314.619954,115.688806 C314.649462,115.688806 314.649462,115.688806 314.649462,115.718315 L314.649462,121.944544 C314.649462,123.242905 315.711757,124.3052 317.010118,124.3052 L322.911757,124.3052 C324.210118,124.3052 325.272413,123.242905 325.272413,121.944544 L325.272413,115.718315 C325.272413,115.688806 325.272413,115.688806 325.301921,115.688806 L325.331429,115.688806 C325.537987,115.895364 325.833069,116.013397 326.098642,116.013397 C326.393724,116.013397 326.659298,115.895364 326.865856,115.688806 L328.606839,113.947823 C329.07897,113.475692 329.07897,112.737987 328.606839,112.295364 L325.626511,109.315036 C325.390446,109.07897 325.095364,108.960938 324.770774,108.960938 L324.033069,108.960938 C323.619954,108.960938 323.265856,109.167495 323.02979,109.521593 C322.410118,110.436347 321.259298,111.026511 319.931429,111.026511 C318.60356,111.026511 317.452741,110.406839 316.833069,109.521593 C316.656019,109.167495 316.272413,108.960938 315.888806,108.960938 Z" id="picview_skin_hover"></path>
        </g>
    </g>
</svg>