<?xml version="1.0" encoding="UTF-8"?>
<svg width="13px" height="13px" viewBox="0 0 13 13" version="1.1" xmlns="http://www.w3.org/2000/svg" xmlns:xlink="http://www.w3.org/1999/xlink">
    <!-- Generator: Sketch 61 (89581) - https://sketch.com -->
    <title>dropbox_window_normal</title>
    <desc>Created with Sketch.</desc>
    <g id="图标" stroke="none" stroke-width="1" fill="none" fill-rule="evenodd">
        <g id="切图" transform="translate(-533.000000, -480.000000)" fill="#A2ABC3" fill-rule="nonzero">
            <path d="M534.857143,493 C533.831471,493 533,492.168529 533,491.142857 L533,481.857143 C533,480.831471 533.831471,480 534.857143,480 L544.142857,480 C545.168529,480 546,480.831471 546,481.857143 L546,483.714286 L545.999071,483.714286 L546,491.142857 C546,492.168529 545.168529,493 544.142857,493 L534.857143,493 Z M538.571429,480.928571 L534.857143,480.928571 C534.344307,480.928571 533.928571,481.344307 533.928571,481.857143 L533.928571,491.142857 C533.928571,491.655693 534.344307,492.071429 534.857143,492.071429 L538.571429,492.071429 L538.571429,480.928571 Z M539.5,492.071429 L544.142857,492.071429 C544.655693,492.071429 545.071429,491.655693 545.071429,491.142857 L545.0705,483.714286 L539.5,483.714286 L539.5,492.071429 Z M544.142857,480.928571 L539.5,480.928571 L539.5,482.785714 L545.0705,482.785714 L545.071429,481.857143 C545.071429,481.344307 544.655693,480.928571 544.142857,480.928571 Z" id="dropbox_window_normal"></path>
        </g>
    </g>
</svg>