<?xml version="1.0" encoding="UTF-8"?>
<svg width="16px" height="17px" viewBox="0 0 16 17" version="1.1" xmlns="http://www.w3.org/2000/svg" xmlns:xlink="http://www.w3.org/1999/xlink">
    <!-- Generator: Sketch 61 (89581) - https://sketch.com -->
    <title>picview_display_normal</title>
    <desc>Created with Sketch.</desc>
    <g id="图标" stroke="none" stroke-width="1" fill="none" fill-rule="evenodd">
        <g id="切图" transform="translate(-269.000000, -138.000000)" fill="#A2ABC3" fill-rule="nonzero">
            <path d="M275.422752,138.003856 L269.850325,138.003856 C269.381779,138.003856 269,138.387563 269,138.854182 L269,153.153531 C269,153.622078 269.383707,154.003856 269.850325,154.003856 L275.422752,154.003856 C275.891299,154.003856 276.273078,153.620149 276.273078,153.153531 L276.273078,138.854182 C276.273078,138.387563 275.891299,138.003856 275.422752,138.003856 Z M275.039046,152.769824 L270.234032,152.769824 L270.234032,139.237889 L275.040974,139.237889 L275.040974,152.769824 L275.039046,152.769824 Z M284.151603,138 L278.559894,138 C278.093275,138 277.711497,138.381779 277.711497,138.848397 L277.711497,144.440106 C277.711497,144.906725 278.093275,145.288503 278.559894,145.288503 L284.151603,145.288503 C284.618221,145.288503 285,144.906725 285,144.440106 L285,138.848397 C285,138.381779 284.618221,138 284.151603,138 Z M283.765968,144.054471 L278.945529,144.054471 L278.945529,139.234032 L283.765968,139.234032 L283.765968,144.054471 Z M284.151603,146.715353 L278.559894,146.715353 C278.093275,146.715353 277.711497,147.097132 277.711497,147.56375 L277.711497,153.155459 C277.711497,153.622078 278.093275,154.003856 278.559894,154.003856 L284.151603,154.003856 C284.618221,154.003856 285,153.622078 285,153.155459 L285,147.56375 C285,147.097132 284.618221,146.715353 284.151603,146.715353 Z M283.765968,152.769824 L278.945529,152.769824 L278.945529,147.949385 L283.765968,147.949385 L283.765968,152.769824 Z" id="picview_display_normal"></path>
        </g>
    </g>
</svg>