<?xml version="1.0" encoding="UTF-8"?>
<svg width="30px" height="30px" viewBox="0 0 30 30" version="1.1" xmlns="http://www.w3.org/2000/svg" xmlns:xlink="http://www.w3.org/1999/xlink">
    <!-- Generator: Sketch 61 (89581) - https://sketch.com -->
    <title>dropbox_black_select</title>
    <desc>Created with Sketch.</desc>
    <g id="图标" stroke="none" stroke-width="1" fill="none" fill-rule="evenodd">
        <g id="切图" transform="translate(-188.000000, -582.000000)">
            <g id="dropbox_black_select" transform="translate(188.000000, 582.000000)">
                <circle id="椭圆形" stroke="#6A748B" fill="#000000" cx="15" cy="15" r="14.5"></circle>
                <path d="M21.6768895,10.3240244 C21.4700365,10.1165866 21.1891324,10 20.8961842,10 C20.6032361,10 20.322332,10.1165866 20.115479,10.3240244 L13.1674008,17.2723359 L9.88780894,13.9929773 C9.60932357,13.7121517 9.20188623,13.6017602 8.819724,13.7035892 C8.43756177,13.8054182 8.13907269,14.1039073 8.03724368,14.4860696 C7.93541467,14.8682318 8.04580619,15.2756691 8.32663178,15.5541545 L12.385879,19.6134018 C12.5926922,19.8208254 12.8735577,19.9374063 13.1664676,19.9374063 C13.4593776,19.9374063 13.7402431,19.8208254 13.9470562,19.6134018 L21.6761896,11.8845017 C21.8834985,11.6776275 22,11.3967849 22,11.1039131 C22,10.8110413 21.8834985,10.5301987 21.6761896,10.3233245 L21.6768895,10.3240244 Z" id="路径" fill="#4F84FA" fill-rule="nonzero"></path>
            </g>
        </g>
    </g>
</svg>