<?xml version="1.0" encoding="UTF-8"?>
<svg width="22px" height="14px" viewBox="0 0 22 14" version="1.1" xmlns="http://www.w3.org/2000/svg"
     xmlns:xlink="http://www.w3.org/1999/xlink">
    <title>Fill 4</title>
    <g id="2.5" stroke="none" stroke-width="1" fill="none" fill-rule="evenodd">
        <g id="插件交互规范" transform="translate(-184.000000, -185.000000)" fill="#A2ABC3">
            <g id="搜索文件备份" transform="translate(176.000000, 178.000000)">
                <g id="编组-15" transform="translate(8.000000, 7.800000)">
                    <path d="M5.42,0 C8.409,0 10.84,2.431 10.84,5.42 C10.84,6.6472656 10.4301639,7.78045939 9.74014254,8.68993042 L12.1697,11.1204 C12.4627,11.4134 12.4627,11.8874 12.1697,12.1804 C12.0237,12.3274 11.8317,12.4004 11.6397,12.4004 C11.4477,12.4004 11.2557,12.3274 11.1097,12.1804 L8.67698921,9.74993081 C7.76972002,10.434038 6.64145129,10.84 5.42,10.84 C2.431,10.84 0,8.409 0,5.42 C0,2.431 2.431,0 5.42,0 Z M5.42,1.5 C3.258,1.5 1.5,3.258 1.5,5.42 C1.5,7.582 3.258,9.34 5.42,9.34 C7.582,9.34 9.34,7.582 9.34,5.42 C9.34,3.258 7.582,1.5 5.42,1.5 Z M15.2104301,4.16966991 L17.5081,6.46842712 L19.8066242,4.16966991 C20.0995174,3.8767767 20.5743911,3.8767767 20.8672843,4.16966991 C21.1601776,4.46256313 21.1601776,4.93743687 20.8672843,5.23033009 L18.0388572,8.05875721 C17.745964,8.35165043 17.2710903,8.35165043 16.978197,8.05875721 L14.1497699,5.23033009 C13.8568767,4.93743687 13.8568767,4.46256313 14.1497699,4.16966991 C14.4426631,3.8767767 14.9175369,3.8767767 15.2104301,4.16966991 Z"
                          id="Fill-4"></path>
                </g>
            </g>
        </g>
    </g>
</svg>