<?xml version="1.0" encoding="UTF-8"?>
<svg width="18px" height="18px" viewBox="0 0 18 18" version="1.1" xmlns="http://www.w3.org/2000/svg" xmlns:xlink="http://www.w3.org/1999/xlink">
    <!-- Generator: Sketch 61 (89581) - https://sketch.com -->
    <title>picview_back_disable</title>
    <desc>Created with Sketch.</desc>
    <g id="图标" stroke="none" stroke-width="1" fill="none" fill-rule="evenodd">
        <g id="画板" transform="translate(-108.000000, -168.000000)" fill="#595D6F">
            <path d="M117,168 C121.970563,168 126,172.029437 126,177 C126,181.970563 121.970563,186 117,186 C112.029437,186 108,181.970563 108,177 C108,172.029437 112.029437,168 117,168 Z M117,169.145455 C112.662054,169.145455 109.145455,172.662054 109.145455,177 C109.145455,181.337946 112.662054,184.854545 117,184.854545 C121.337946,184.854545 124.854545,181.337946 124.854545,177 C124.854545,172.662054 121.337946,169.145455 117,169.145455 Z M119.06991,173.402751 C119.273579,173.606419 119.273579,173.938555 119.06991,174.142223 L116.224823,176.98731 L119.06991,179.832397 C119.273579,180.036065 119.273579,180.368201 119.06991,180.571869 C118.866242,180.775537 118.534107,180.775537 118.330438,180.571869 L115.115616,177.357046 C115.012215,177.256778 114.962081,177.122044 114.962081,176.98731 C114.962081,176.852576 115.012215,176.717841 115.115616,176.617574 L118.330438,173.402751 C118.534107,173.199083 118.866242,173.199083 119.06991,173.402751 Z" id="picview_back_disable"></path>
        </g>
    </g>
</svg>