<?xml version="1.0" encoding="UTF-8"?>
<svg width="17px" height="16px" viewBox="0 0 17 16" version="1.1" xmlns="http://www.w3.org/2000/svg" xmlns:xlink="http://www.w3.org/1999/xlink">
    <!-- Generator: Sketch 61 (89581) - https://sketch.com -->
    <title>picview_screen_hover</title>
    <desc>Created with Sketch.</desc>
    <g id="图标" stroke="none" stroke-width="1" fill="none" fill-rule="evenodd">
        <g id="画板" transform="translate(-228.000000, -108.000000)" fill="#E0E7FA" fill-rule="nonzero">
            <path d="M241.741147,108.460939 C241.880807,108.46059 242.0148,108.516147 242.113235,108.615221 C242.212307,108.713739 242.267792,108.847833 242.2673,108.98755 C242.2673,109.113396 242.222153,109.235067 242.14013,109.330511 L237.52591,114.697137 L237.52591,123.505849 C237.525729,123.796415 237.290326,124.031974 236.99976,124.032349 C236.70916,124.032001 236.473683,123.796515 236.47337,123.505936 L236.47337,114.502044 C236.47337,114.376103 236.518516,114.25432 236.600645,114.158951 L240.594704,109.513809 L229.76291,109.513809 L233.430136,114.176655 C233.502936,114.269509 233.542571,114.384054 233.542728,114.502044 L233.542728,119.877489 L235.128376,121.463028 C235.226328,121.562115 235.280594,121.696254 235.279089,121.835576 C235.278388,121.975269 235.221871,122.108884 235.122117,122.20668 C235.022941,122.304368 234.891748,122.358158 234.752699,122.358158 C234.61365,122.358158 234.482326,122.304478 234.383302,122.20668 L232.644358,120.467626 C232.54534,120.369064 232.489831,120.235008 232.490188,120.095297 L232.490188,114.684226 L228.26565,109.312698 C228.086198,109.084164 228.125602,108.753497 228.353732,108.573532 C228.44658,108.500737 228.561116,108.461103 228.679099,108.460939 L241.741147,108.460939 Z M243.626843,121.577655 C243.917359,121.57833 244.152544,121.813966 244.152664,122.104483 C244.152119,122.362446 243.966294,122.576873 243.721183,122.621771 L243.626843,122.630415 L239.553806,122.630415 C239.414168,122.630704 239.28022,122.575109 239.181827,122.476024 C239.082871,122.377401 239.027476,122.243294 239.027981,122.103585 C239.028599,121.813377 239.263707,121.578269 239.553916,121.577655 L243.626843,121.577655 Z M243.626843,118.282977 C243.917367,118.283653 244.152557,118.519302 244.152664,118.809827 C244.152055,119.067764 243.966256,119.282155 243.721173,119.327094 L243.626843,119.335758 L239.553806,119.335758 C239.263274,119.335203 239.027985,119.09955 239.027985,118.809017 C239.02861,118.518796 239.263694,118.283663 239.553916,118.282977 L243.626843,118.282977 Z M243.626843,115.02629 C243.917043,115.02629 244.153124,115.262371 244.153124,115.55268 C244.153124,115.842989 243.917043,116.07907 243.626843,116.07907 L239.553806,116.07907 C239.265292,116.075241 239.032121,115.836161 239.035776,115.545962 C239.037646,115.259715 239.269244,115.028116 239.555491,115.02629 L243.626843,115.02629 Z" id="picview_screen_hover"></path>
        </g>
    </g>
</svg>