<?xml version="1.0" encoding="UTF-8"?>
<svg width="16px" height="16px" viewBox="0 0 16 16" version="1.1" xmlns="http://www.w3.org/2000/svg" xmlns:xlink="http://www.w3.org/1999/xlink">
    <!-- Generator: Sketch 61 (89581) - https://sketch.com -->
    <title>picview_search_normal</title>
    <desc>Created with Sketch.</desc>
    <g id="图标" stroke="none" stroke-width="1" fill="none" fill-rule="evenodd">
        <g id="画板" transform="translate(-188.000000, -138.000000)" fill="#A2ABC3" fill-rule="nonzero">
            <path d="M200.297518,149.317766 C201.277271,148.1222 201.865504,146.596231 201.865504,144.932752 C201.865504,141.111144 198.75627,138 194.932752,138 C191.111144,138 188,141.109234 188,144.932752 C188,148.75627 191.109234,151.865504 194.932752,151.865504 C196.594321,151.865504 198.1222,151.277271 199.317766,150.297518 L202.816609,153.796362 C202.952208,153.931961 203.129824,153.998806 203.30744,153.998806 C203.485056,153.998806 203.662672,153.931961 203.798272,153.796362 C204.06756,153.525163 204.06756,153.085898 203.796362,152.816609 L200.297518,149.317766 Z M189.190938,144.935938 C189.190938,141.76867 191.76867,139.190938 194.935938,139.190938 C198.103205,139.190938 200.680938,141.76867 200.680938,144.935938 C200.680938,148.103205 198.103205,150.680938 194.935938,150.680938 C191.76867,150.680938 189.190938,148.103205 189.190938,144.935938 Z" id="picview_search_normal"></path>
        </g>
    </g>
</svg>