<?xml version="1.0" encoding="UTF-8"?>
<svg width="16px" height="16px" viewBox="0 0 16 16" version="1.1" xmlns="http://www.w3.org/2000/svg" xmlns:xlink="http://www.w3.org/1999/xlink">
    <!-- Generator: Sketch 61 (89581) - https://sketch.com -->
    <title>picview_search_hover</title>
    <desc>Created with Sketch.</desc>
    <g id="图标" stroke="none" stroke-width="1" fill="none" fill-rule="evenodd">
        <g id="画板" transform="translate(-188.000000, -108.000000)" fill="#E0E7FA" fill-rule="nonzero">
            <path d="M200.297518,119.317766 C201.277271,118.1222 201.865504,116.596231 201.865504,114.932752 C201.865504,111.111144 198.75627,108 194.932752,108 C191.111144,108 188,111.109234 188,114.932752 C188,118.75627 191.109234,121.865504 194.932752,121.865504 C196.594321,121.865504 198.1222,121.277271 199.317766,120.297518 L202.816609,123.796362 C202.952208,123.931961 203.129824,123.998806 203.30744,123.998806 C203.485056,123.998806 203.662672,123.931961 203.798272,123.796362 C204.06756,123.525163 204.06756,123.085898 203.796362,122.816609 L200.297518,119.317766 Z M189.190938,114.935938 C189.190938,111.76867 191.76867,109.190938 194.935938,109.190938 C198.103205,109.190938 200.680938,111.76867 200.680938,114.935938 C200.680938,118.103205 198.103205,120.680938 194.935938,120.680938 C191.76867,120.680938 189.190938,118.103205 189.190938,114.935938 Z" id="picview_search_hover"></path>
        </g>
    </g>
</svg>