<?xml version="1.0" encoding="UTF-8"?>
<svg width="18px" height="18px" viewBox="0 0 18 18" version="1.1" xmlns="http://www.w3.org/2000/svg" xmlns:xlink="http://www.w3.org/1999/xlink">
    <!-- Generator: Sketch 61 (89581) - https://sketch.com -->
    <title>picview_back_hover</title>
    <desc>Created with Sketch.</desc>
    <g id="图标" stroke="none" stroke-width="1" fill="none" fill-rule="evenodd">
        <g id="画板" transform="translate(-108.000000, -108.000000)" fill="#E0E7FA">
            <path d="M117,108 C121.970563,108 126,112.029437 126,117 C126,121.970563 121.970563,126 117,126 C112.029437,126 108,121.970563 108,117 C108,112.029437 112.029437,108 117,108 Z M117,109.145455 C112.662054,109.145455 109.145455,112.662054 109.145455,117 C109.145455,121.337946 112.662054,124.854545 117,124.854545 C121.337946,124.854545 124.854545,121.337946 124.854545,117 C124.854545,112.662054 121.337946,109.145455 117,109.145455 Z M119.06991,113.402751 C119.273579,113.606419 119.273579,113.938555 119.06991,114.142223 L116.224823,116.98731 L119.06991,119.832397 C119.273579,120.036065 119.273579,120.368201 119.06991,120.571869 C118.866242,120.775537 118.534107,120.775537 118.330438,120.571869 L115.115616,117.357046 C115.012215,117.256778 114.962081,117.122044 114.962081,116.98731 C114.962081,116.852576 115.012215,116.717841 115.115616,116.617574 L118.330438,113.402751 C118.534107,113.199083 118.866242,113.199083 119.06991,113.402751 Z" id="picview_back_hover"></path>
        </g>
    </g>
</svg>