<?xml version="1.0" encoding="UTF-8"?>
<svg width="14px" height="14px" viewBox="0 0 14 14" version="1.1" xmlns="http://www.w3.org/2000/svg" xmlns:xlink="http://www.w3.org/1999/xlink">
    <!-- Generator: Sketch 61 (89581) - https://sketch.com -->
    <title>dropbox_layout_select</title>
    <desc>Created with Sketch.</desc>
    <g id="图标" stroke="none" stroke-width="1" fill="none" fill-rule="evenodd">
        <g id="切图" transform="translate(-481.000000, -502.000000)" fill="#E0E7FA" fill-rule="nonzero">
            <path d="M486.25,508.475 L482.1375,508.475 C481.525,508.475 481,507.95 481,507.25 L481,503.225 C481,502.525 481.525,502 482.1375,502 L486.25,502 C486.8625,502 487.3875,502.525 487.3875,503.225 L487.3875,507.25 C487.3875,507.95 486.8625,508.475 486.25,508.475 Z M482.1375,503.05 C482.05,503.05 481.9625,503.1375 481.9625,503.225 L481.9625,507.25 C481.9625,507.3375 482.05,507.425 482.1375,507.425 L486.25,507.425 C486.3375,507.425 486.425,507.3375 486.425,507.25 L486.425,503.225 C486.425,503.1375 486.3375,503.05 486.25,503.05 L482.1375,503.05 Z M486.25,516 L482.1375,516 C481.525,516 481,515.475 481,514.775 L481,510.75 C481,510.05 481.525,509.525 482.1375,509.525 L486.25,509.525 C486.8625,509.525 487.3875,510.05 487.3875,510.75 L487.3875,514.8625 C487.3875,515.475 486.8625,516 486.25,516 Z M482.1375,510.575 C482.05,510.575 481.9625,510.6625 481.9625,510.75 L481.9625,514.8625 C481.9625,514.95 482.05,515.0375 482.1375,515.0375 L486.25,515.0375 C486.3375,515.0375 486.425,514.95 486.425,514.8625 L486.425,510.75 C486.425,510.6625 486.3375,510.575 486.25,510.575 L482.1375,510.575 Z M493.6,504.3625 L489.225,504.3625 C488.9625,504.3625 488.7,504.1 488.7,503.8375 C488.7,503.575 488.9625,503.3125 489.225,503.3125 L493.6,503.3125 C493.8625,503.3125 494.125,503.575 494.125,503.8375 C494.125,504.1 493.8625,504.3625 493.6,504.3625 Z M493.6,507.1625 L489.225,507.1625 C488.9625,507.1625 488.7,506.9 488.7,506.6375 C488.7,506.375 488.9625,506.1125 489.225,506.1125 L493.6,506.1125 C493.8625,506.1125 494.125,506.375 494.125,506.6375 C494.125,506.9 493.8625,507.1625 493.6,507.1625 Z M493.6,514.6 L489.225,514.6 C488.9625,514.6 488.7,514.3375 488.7,514.075 C488.7,513.8125 488.9625,513.55 489.225,513.55 L493.6,513.55 C493.8625,513.55 494.125,513.8125 494.125,514.075 C494.125,514.3375 493.8625,514.6 493.6,514.6 Z M493.6,511.8875 L489.225,511.8875 C488.9625,511.8875 488.7,511.625 488.7,511.3625 C488.7,511.1 488.9625,510.8375 489.225,510.8375 L493.6,510.8375 C493.8625,510.8375 494.125,511.1 494.125,511.3625 C494.125,511.7125 493.8625,511.8875 493.6,511.8875 Z" id="dropbox_layout_select"></path>
        </g>
    </g>
</svg>