<?xml version="1.0" encoding="UTF-8"?>
<svg width="18px" height="18px" viewBox="0 0 18 18" version="1.1" xmlns="http://www.w3.org/2000/svg" xmlns:xlink="http://www.w3.org/1999/xlink">
    <!-- Generator: Sketch 61 (89581) - https://sketch.com -->
    <title>picview_back_normal</title>
    <desc>Created with Sketch.</desc>
    <g id="图标" stroke="none" stroke-width="1" fill="none" fill-rule="evenodd">
        <g id="画板" transform="translate(-108.000000, -138.000000)" fill="#A2ABC3">
            <path d="M117,138 C121.970563,138 126,142.029437 126,147 C126,151.970563 121.970563,156 117,156 C112.029437,156 108,151.970563 108,147 C108,142.029437 112.029437,138 117,138 Z M117,139.145455 C112.662054,139.145455 109.145455,142.662054 109.145455,147 C109.145455,151.337946 112.662054,154.854545 117,154.854545 C121.337946,154.854545 124.854545,151.337946 124.854545,147 C124.854545,142.662054 121.337946,139.145455 117,139.145455 Z M119.06991,143.402751 C119.273579,143.606419 119.273579,143.938555 119.06991,144.142223 L116.224823,146.98731 L119.06991,149.832397 C119.273579,150.036065 119.273579,150.368201 119.06991,150.571869 C118.866242,150.775537 118.534107,150.775537 118.330438,150.571869 L115.115616,147.357046 C115.012215,147.256778 114.962081,147.122044 114.962081,146.98731 C114.962081,146.852576 115.012215,146.717841 115.115616,146.617574 L118.330438,143.402751 C118.534107,143.199083 118.866242,143.199083 119.06991,143.402751 Z" id="picview_back_normal"></path>
        </g>
    </g>
</svg>