<?xml version="1.0" encoding="UTF-8"?>
<svg width="14px" height="14px" viewBox="0 0 14 14" version="1.1" xmlns="http://www.w3.org/2000/svg" xmlns:xlink="http://www.w3.org/1999/xlink">
    <!-- Generator: Sketch 61 (89581) - https://sketch.com -->
    <title>形状结合</title>
    <desc>Created with Sketch.</desc>
    <g id="2.0正式2" stroke="none" stroke-width="1" fill="none" fill-rule="evenodd">
        <g id="素材库路径丢失" transform="translate(-100.000000, -615.000000)" fill="#A2ABC3" fill-rule="nonzero">
            <g id="编组-2" transform="translate(100.000000, 615.000000)">
                <path d="M7,0 C10.8596875,0 14,3.14015625 14,7 C14,10.8598437 10.8596875,14 7,14 C3.1403125,14 0,10.8598437 0,7 C0,3.14015625 3.1403125,0 7,0 Z M7,0.97671875 C3.67875,0.97671875 0.97671875,3.67859375 0.97671875,7 C0.97671875,10.3214063 3.67875,13.0232813 7,13.0232813 C10.32125,13.0232813 13.0232813,10.32125 13.0232813,7 C13.0232813,3.67875 10.32125,0.97671875 7,0.97671875 Z M6.91875,10.071875 C7.25193303,10.071875 7.52203125,10.3419732 7.52203125,10.6751563 C7.52203125,11.0083393 7.25193303,11.2784375 6.91875,11.2784375 C6.58556697,11.2784375 6.31546875,11.0083393 6.31546875,10.6751563 C6.31546875,10.3419732 6.58556697,10.071875 6.91875,10.071875 Z M6.90734375,3.148125 C8.4959375,3.148125 9.2196875,4.335 9.2196875,5.43796875 C9.2196875,6.51265625 8.5103125,7.034375 7.9921875,7.4153125 C7.563125,7.73109375 7.38890625,7.88296875 7.3953125,8.11703125 L7.39546875,8.90296875 C7.39546875,9.1728125 7.176875,9.3915625 6.9071875,9.3915625 C6.63734375,9.3915625 6.41875,9.1728125 6.41875,8.903125 L6.41875,8.13046875 C6.398125,7.3753125 6.96125,6.96140625 7.41359375,6.6284375 C7.9278125,6.25046875 8.24296875,5.990625 8.24296875,5.43796875 C8.24296875,4.80296875 7.8921875,4.12484375 6.90734375,4.12484375 C5.46015625,4.12484375 5.4184375,5.3928125 5.4184375,5.5375 C5.4184375,5.8071875 5.19984375,6.0259375 4.93,6.0259375 C4.66015625,6.0259375 4.4415625,5.8071875 4.4415625,5.5375 C4.4415625,4.71109375 4.95703125,3.148125 6.90734375,3.148125 Z" id="形状结合"></path>
            </g>
        </g>
    </g>
</svg>