<?xml version="1.0" encoding="UTF-8"?>
<svg width="663px" height="680px" viewBox="0 0 663 680" version="1.1" xmlns="http://www.w3.org/2000/svg" xmlns:xlink="http://www.w3.org/1999/xlink">
    <!-- Generator: Sketch 61 (89581) - https://sketch.com -->
    <title>编组 4</title>
    <desc>Created with Sketch.</desc>
    <defs>
        <linearGradient x1="50%" y1="40.6588357%" x2="60.1308164%" y2="62.1670977%" id="linearGradient-1">
            <stop stop-color="#5A8DFE" offset="0%"></stop>
            <stop stop-color="#5AA2FE" offset="0%"></stop>
            <stop stop-color="#3D74F0" offset="100%"></stop>
        </linearGradient>
        <linearGradient x1="50%" y1="0%" x2="50%" y2="100%" id="linearGradient-2">
            <stop stop-color="#44D7B6" offset="0%"></stop>
            <stop stop-color="#44BED7" offset="100%"></stop>
        </linearGradient>
        <linearGradient x1="49.9998704%" y1="5.43411343%" x2="50%" y2="89.6482222%" id="linearGradient-3">
            <stop stop-color="#FFDB76" offset="0%"></stop>
            <stop stop-color="#FC8B40" offset="100%"></stop>
        </linearGradient>
        <linearGradient x1="49.9996886%" y1="-20.315701%" x2="49.9996886%" y2="145.924858%" id="linearGradient-4">
            <stop stop-color="#FBFBE8" offset="0%"></stop>
            <stop stop-color="#FDD88E" offset="100%"></stop>
        </linearGradient>
        <linearGradient x1="50%" y1="0%" x2="50%" y2="100%" id="linearGradient-5">
            <stop stop-color="#F7E09F" offset="0%"></stop>
            <stop stop-color="#F8D176" offset="100%"></stop>
        </linearGradient>
        <linearGradient x1="64.8356903%" y1="104.256158%" x2="30.0126122%" y2="-26.010119%" id="linearGradient-6">
            <stop stop-color="#5186FB" offset="0%"></stop>
            <stop stop-color="#6092FF" offset="100%"></stop>
        </linearGradient>
        <linearGradient x1="85.2612209%" y1="63.0393069%" x2="27.480616%" y2="22.690896%" id="linearGradient-7">
            <stop stop-color="#374259" offset="0%"></stop>
            <stop stop-color="#10131A" offset="100%"></stop>
        </linearGradient>
        <linearGradient x1="74.1475575%" y1="100%" x2="24.2972857%" y2="5.96577192%" id="linearGradient-8">
            <stop stop-color="#4F80EE" offset="0%"></stop>
            <stop stop-color="#356FF1" offset="100%"></stop>
        </linearGradient>
        <linearGradient x1="36.8289616%" y1="78.1529996%" x2="55.2483418%" y2="0%" id="linearGradient-9">
            <stop stop-color="#4C7EEE" offset="0%"></stop>
            <stop stop-color="#356FF1" offset="100%"></stop>
        </linearGradient>
        <linearGradient x1="25.99174%" y1="51.4454496%" x2="176.997822%" y2="41.5848443%" id="linearGradient-10">
            <stop stop-color="#317C97" offset="0%"></stop>
            <stop stop-color="#0D232A" offset="100%"></stop>
        </linearGradient>
        <linearGradient x1="50%" y1="0%" x2="50%" y2="100%" id="linearGradient-11">
            <stop stop-color="#625ABA" offset="0%"></stop>
            <stop stop-color="#3F3981" offset="100%"></stop>
        </linearGradient>
        <linearGradient x1="50%" y1="0%" x2="50%" y2="100%" id="linearGradient-12">
            <stop stop-color="#625ABA" offset="0%"></stop>
            <stop stop-color="#3F3981" offset="100%"></stop>
        </linearGradient>
        <linearGradient x1="50%" y1="0%" x2="50%" y2="100%" id="linearGradient-13">
            <stop stop-color="#625ABA" offset="0%"></stop>
            <stop stop-color="#3F3981" offset="100%"></stop>
        </linearGradient>
        <linearGradient x1="66.1153392%" y1="11.199954%" x2="38.6362526%" y2="84.9992372%" id="linearGradient-14">
            <stop stop-color="#E0E7FA" offset="0%"></stop>
            <stop stop-color="#E6EEF0" offset="100%"></stop>
        </linearGradient>
        <linearGradient x1="50%" y1="0%" x2="50%" y2="100%" id="linearGradient-15">
            <stop stop-color="#625ABA" offset="0%"></stop>
            <stop stop-color="#3F3981" offset="100%"></stop>
        </linearGradient>
        <linearGradient x1="79.8152276%" y1="11.199954%" x2="28.9757628%" y2="84.9992372%" id="linearGradient-16">
            <stop stop-color="#E0E7FA" offset="0%"></stop>
            <stop stop-color="#E6EEF0" offset="100%"></stop>
        </linearGradient>
        <linearGradient x1="20.3582963%" y1="46.1195393%" x2="113.409398%" y2="64.4054567%" id="linearGradient-17">
            <stop stop-color="#FBC14B" offset="0%"></stop>
            <stop stop-color="#FDD88E" offset="100%"></stop>
        </linearGradient>
        <linearGradient x1="61.7213571%" y1="9.45784441%" x2="37.1828996%" y2="93.4907291%" id="linearGradient-18">
            <stop stop-color="#CC834B" offset="0%"></stop>
            <stop stop-color="#FBC14B" offset="100%"></stop>
        </linearGradient>
        <linearGradient x1="57.9389298%" y1="139.323236%" x2="41.3621577%" y2="-47.5533559%" id="linearGradient-19">
            <stop stop-color="#FDD88E" offset="0%"></stop>
            <stop stop-color="#FBC14B" offset="100%"></stop>
        </linearGradient>
        <linearGradient x1="102.800213%" y1="78.9318793%" x2="28.953925%" y2="38.4712723%" id="linearGradient-20">
            <stop stop-color="#604238" offset="0%"></stop>
            <stop stop-color="#CC834B" offset="100%"></stop>
        </linearGradient>
        <linearGradient x1="109.702446%" y1="79.7965396%" x2="26.2100697%" y2="38.1216821%" id="linearGradient-21">
            <stop stop-color="#604238" offset="0%"></stop>
            <stop stop-color="#CC834B" offset="100%"></stop>
        </linearGradient>
        <linearGradient x1="176.859708%" y1="58.8531228%" x2="72.931003%" y2="51.6000266%" id="linearGradient-22">
            <stop stop-color="#604238" offset="0%"></stop>
            <stop stop-color="#CC834B" offset="100%"></stop>
        </linearGradient>
        <linearGradient x1="47.2260529%" y1="3.41947222%" x2="52.7413706%" y2="96.4215434%" id="linearGradient-23">
            <stop stop-color="#CC834B" offset="0%"></stop>
            <stop stop-color="#FBC14B" offset="100%"></stop>
        </linearGradient>
        <linearGradient x1="138.283611%" y1="80.3332395%" x2="-36.7142209%" y2="14.4159304%" id="linearGradient-24">
            <stop stop-color="#FBC14B" offset="0%"></stop>
            <stop stop-color="#FDD88E" offset="100%"></stop>
        </linearGradient>
        <linearGradient x1="99.7849228%" y1="50.000466%" x2="-6.07939394%" y2="50.000466%" id="linearGradient-25">
            <stop stop-color="#EFB36F" offset="0%"></stop>
            <stop stop-color="#FA6400" offset="100%"></stop>
        </linearGradient>
        <linearGradient x1="-7.6154605%" y1="42.8466241%" x2="106.133547%" y2="55.850431%" id="linearGradient-26">
            <stop stop-color="#FA6400" offset="0%"></stop>
            <stop stop-color="#DB9C6C" offset="100%"></stop>
        </linearGradient>
        <linearGradient x1="50%" y1="0%" x2="50%" y2="113.688858%" id="linearGradient-27">
            <stop stop-color="#44D7B6" offset="0%"></stop>
            <stop stop-color="#C1F4FF" offset="100%"></stop>
        </linearGradient>
        <linearGradient x1="50%" y1="0%" x2="50%" y2="100%" id="linearGradient-28">
            <stop stop-color="#6FEFD2" offset="0%"></stop>
            <stop stop-color="#44BED7" offset="100%"></stop>
        </linearGradient>
    </defs>
    <g id="2.0正式2" stroke="none" stroke-width="1" fill="none" fill-rule="evenodd">
        <g id="素材库路径丢失" transform="translate(-477.000000, 0.000000)">
            <g id="编组-4" transform="translate(476.000000, -14.702706)">
                <path d="M552.746802,694.702706 C624.791686,607.375524 646.005043,533.455128 616.38687,472.941519 C571.959612,382.171105 475.191722,403.702079 435.648038,403.702079 C396.104353,403.702079 326.711305,389.534651 314.09949,312.271706 C301.487675,235.008761 283.096291,192.741805 232.555582,186.850809 C182.014873,180.959813 127.684786,150.191609 94.8141286,111.304413 C61.9434707,72.4172177 20.2514631,14.7027062 0.814128604,14.7027062 C-12.1440944,14.7027062 223.717339,9.80180416 708.39843,0 L714.44642,723.519724 L552.746802,723.519724 L552.746802,694.702706 Z" id="路径-2" fill="#27293B"></path>
                <path d="M525.387052,379.306697 C539.715537,403.950997 547.877919,421.643541 549.874199,432.38433 C555.942286,465.03308 559.16525,493.082948 546.426715,505.306265 C533.380224,517.825082 515.176224,521.254328 497.192987,499.916319 C486.229254,486.907304 496.103007,469.43813 501.598973,462.123646 C514.980945,444.313817 585.848979,455.245053 592.641079,489.54805 C601.634325,534.967773 565.92718,555.843035 540.795916,561.118955 C524.04174,564.636235 493.432016,554.423444 448.966743,530.480583" id="路径-6" stroke="#6A748B" stroke-width="2" stroke-dasharray="6"></path>
                <g id="编组" transform="translate(87.307992, 139.702706)">
                    <path d="M150.652764,24.3141026 C149.0502,28.1645299 148.926268,32.4636752 147.748918,36.465812 L147.748918,36.465812 C146.571567,40.4679487 143.766012,44.525641 139.624986,45.0384615 L139.624986,45.0384615 C136.520285,45.4230769 133.543789,43.7029915 131.137806,41.7008547 L131.137806,41.7008547 C128.73396,39.7008547 126.571567,37.3226496 123.759601,35.9529915 L123.759601,35.9529915 C120.945499,34.5833333 117.14849,34.5363248 115.075841,36.8782051 L115.075841,36.8782051 C113.176268,39.025641 113.330114,42.3974359 111.577977,44.6666667 L111.577977,44.6666667 C109.89208,46.8504274 106.787379,47.4871795 104.067294,47.0384615 L104.067294,47.0384615 C101.347208,46.5897436 98.8707124,45.2542735 96.3600287,44.1132479 L96.3600287,44.1132479 C93.0950714,42.6324786 89.5160116,41.4401709 85.9796868,42.0192308 L85.9796868,42.0192308 C82.443362,42.5982906 79.0651569,45.457265 79,49.0384615 L79,49.0384615 C78.9454987,51.9679487 81.0929346,54.5876068 83.6890885,55.9465812 L83.6890885,55.9465812 C86.2873791,57.3055556 89.2809688,57.6452991 92.1997723,57.9166667 L92.1997723,57.9166667 C101.840798,58.8119658 110.507465,58.4358974 119.810883,58.0598291 L119.810883,58.0598291 C127.657037,57.741453 135.958319,57.4252137 145.671994,57.8696581 L145.671994,57.8696581 C151.97114,58.1581197 141.225413,59.8269231 140.601482,62.3055556 L140.601482,62.3055556 C138.785242,69.5534188 166.210456,68.9679487 164.518148,64.1837607 L164.518148,64.1837607 C162.729687,61.2051282 167.06943,61.3354701 175.498918,61.465812 L175.498918,61.465812 C181.122849,61.5491453 188.56302,61.6367521 197.219003,60.7991453 L197.219003,60.7991453 C200.191225,60.5106838 203.657037,58.4102564 203.38567,55.4358974 L203.38567,55.4358974 C203.229687,53.7435897 201.744644,52.4145299 200.122849,51.9059829 L200.122849,51.9059829 C198.501054,51.3974359 196.757465,51.5405983 195.065157,51.6901709 L195.065157,51.6901709 C187.229687,52.3782051 179.396353,53.0641026 171.560883,53.7542735 L171.560883,53.7542735 C169.958319,53.8952991 168.180541,53.9871795 166.915584,52.9935897 L166.915584,52.9935897 C164.751054,51.292735 165.710456,47.6132479 167.832251,45.8589744 L167.832251,45.8589744 C169.949772,44.1025641 172.778832,43.5 175.193362,42.1816239 L175.193362,42.1816239 C180.39849,39.3376068 183.3002,32.9444444 182.3002,27.0982906 L182.3002,27.0982906 C181.304473,21.2521368 176.633533,16.275641 170.941225,14.6111111 L170.941225,14.6111111 C169.524559,14.1965812 168.065157,14 166.603618,14 L166.603618,14 C159.932678,14 153.238234,18.0982906 150.652764,24.3141026" id="Fill-1" fill="url(#linearGradient-1)"></path>
                    <path d="M213.668803,34.1538462 C203.205128,38.9871795 197.147436,50.3824786 195.012821,61.7115385 L195.012821,61.7115385 C192.876068,73.0405983 193.925214,84.6923077 193.608974,96.215812 L193.608974,96.215812 C192.83547,124.544872 183.561966,152.58547 167.290598,175.788462 L167.290598,175.788462 C160.549145,185.405983 148.833333,195.104701 138.307692,189.893162 L138.307692,189.893162 C130.596154,186.076923 128.303419,176.117521 128.630342,167.521368 L128.630342,167.521368 C128.959402,158.925214 130.957265,150.064103 128.269231,141.891026 L128.269231,141.891026 C125.292735,132.844017 116.717949,126.288462 107.410256,124.282051 L107.410256,124.282051 C98.0982906,122.275641 88.2457265,124.371795 79.6987179,128.574786 L79.6987179,128.574786 C62.8888889,136.84188 50.4957265,153.538462 47.4508547,172.023504 L47.4508547,172.023504 C44.4102564,190.50641 50.792735,210.297009 64.0662393,223.517094 L64.0662393,223.517094 C69.2029915,228.634615 75.6047009,233.32265 77.292735,240.371795 L77.292735,240.371795 C79.7542735,250.666667 70.957265,260.893162 72.4636752,271.371795 L72.4636752,271.371795 C73.9273504,281.547009 84.1474359,287.673077 93.0555556,292.809829 L93.0555556,292.809829 C101.963675,297.946581 111.702991,305.523504 111.102564,315.790598 L111.102564,315.790598 L242.544872,315.059829 C266.371795,305.15812 287.628205,289.145299 303.715812,268.972222 L303.715812,268.972222 C313.470085,256.745726 321.49359,239.717949 313.985043,225.997863 L313.985043,225.997863 C306.173077,211.732906 286.702991,209.844017 270.455128,210.587607 L270.455128,210.587607 C254.209402,211.331197 235.378205,211.938034 224.720085,199.653846 L224.720085,199.653846 C213.025641,186.173077 218.690171,164.363248 230.566239,151.040598 L230.566239,151.040598 C242.444444,137.717949 259.019231,129.619658 272.581197,118.014957 L272.581197,118.014957 C286.141026,106.410256 297.121795,88.2970085 291.681624,71.2991453 L291.681624,71.2991453 C286.820513,56.1175214 271.029915,47.7094017 256.641026,40.8461538 L256.641026,40.8461538 C246.982906,36.2393162 236.173077,31.6004274 225.824786,31.6004274 L225.824786,31.6004274 C221.662393,31.6004274 217.574786,32.3504274 213.668803,34.1538462" id="Fill-3" fill="url(#linearGradient-2)"></path>
                    <path d="M318.440812,228.819658 C339.571154,256.70641 377.88312,267.362393 405.295513,268.445726 C458.323291,270.537607 484.182265,317.150855 460.846795,352.221368 C442.31688,380.069658 402.186538,368.170085 406.427991,352.219231 C410.519872,336.826068 447.808333,343.505556 441.994231,374.039744 C436.331838,403.787607 389.823291,421.652991 334.073291,396.165812" id="Stroke-7" stroke="#0D232B" stroke-width="0.485" stroke-dasharray="1.94"></path>
                    <path d="M328.051282,11.741453 L230.068376,181.450855 C221.544872,196.217949 232.200855,214.67735 249.252137,214.67735 L249.252137,214.67735 L445.215812,214.67735 C462.267094,214.67735 472.923077,196.217949 464.399573,181.450855 L464.399573,181.450855 L366.41453,11.741453 C362.153846,4.35897436 354.694444,0.666666667 347.232906,0.666666667 L347.232906,0.666666667 C339.773504,0.666666667 332.314103,4.35897436 328.051282,11.741453" id="Fill-9" fill="url(#linearGradient-3)"></path>
                    <path d="M342.196581,19.9081197 L244.213675,189.619658 C242.754274,192.147436 243.58547,194.350427 244.213675,195.433761 L244.213675,195.433761 C244.84188,196.521368 246.331197,198.34188 249.252137,198.34188 L249.252137,198.34188 L445.215812,198.34188 C448.138889,198.34188 449.626068,196.521368 450.254274,195.433761 L450.254274,195.433761 C450.880342,194.350427 451.715812,192.147436 450.254274,189.619658 L450.254274,189.619658 L352.271368,19.9081197 C350.811966,17.3760684 348.485043,17 347.232906,17 L347.232906,17 C345.978632,17 343.655983,17.3760684 342.196581,19.9081197" id="Fill-11" fill="url(#linearGradient-4)"></path>
                    <path d="M329.867521,80.7371795 L331.967949,129.012821 C332.314103,137.044872 338.929487,143.378205 346.970085,143.378205 L346.970085,143.378205 C355.008547,143.378205 361.621795,137.044872 361.970085,129.012821 L361.970085,129.012821 L364.07265,80.7371795 C364.495726,71 356.715812,62.8739316 346.970085,62.8739316 L346.970085,62.8739316 C337.222222,62.8739316 329.444444,71 329.867521,80.7371795 M329.850427,167.320513 C329.850427,176.775641 337.514957,184.438034 346.970085,184.438034 L346.970085,184.438034 C356.423077,184.438034 364.087607,176.775641 364.087607,167.320513 L364.087607,167.320513 C364.087607,157.865385 356.423077,150.200855 346.970085,150.200855 L346.970085,150.200855 C337.514957,150.200855 329.850427,157.865385 329.850427,167.320513" id="Fill-13" fill="url(#linearGradient-5)"></path>
                    <path d="M221.113248,193.136752 C211.833333,219.200855 221.059829,252.891026 236.301282,271.741453 L236.301282,271.741453 C251.542735,290.594017 255.58547,315.059829 255.58547,315.059829 L255.58547,315.059829 L342.587607,315.059829 C355.42094,283.373932 356.623932,258.303419 356.623932,258.303419 L356.623932,258.303419 C346.598291,242.461538 347,224.41453 350.209402,206.367521 L350.209402,206.367521 C353.41453,188.316239 362.217949,185.604701 362.217949,185.604701 L362.217949,185.604701 C348.876068,178.388889 324.660256,171.08547 297.021368,171.08547 L297.021368,171.08547 C272.67735,171.08547 245.675214,176.752137 221.113248,193.136752" id="Fill-19" fill="url(#linearGradient-6)"></path>
                    <path d="M230.944444,141.027778 C228.773504,146.653846 226.90812,151.925214 230.944444,152.974359 L230.944444,152.974359 C230.944444,152.974359 255.141026,163.991453 264.042735,162.467949 L264.042735,162.467949 C272.948718,160.946581 275.40812,157.66453 277.279915,150.166667 L277.279915,150.166667 C279.155983,142.668803 268.963675,128.258547 254.905983,126.619658 L254.905983,126.619658 C253.899573,126.502137 252.92735,126.446581 251.987179,126.446581 L251.987179,126.446581 C239.771368,126.446581 232.959402,135.809829 230.944444,141.027778" id="Fill-22" fill="url(#linearGradient-7)"></path>
                    <path d="M274.235043,159.188034 C274.235043,159.188034 262.25641,192.529915 265.446581,201.010684 L265.446581,201.010684 C268.638889,209.489316 274.57265,212.82265 279.388889,212.844042 L279.388889,212.844042 C284.777778,212.867521 301.724359,196.561966 297.155983,183.138889 L297.155983,183.138889 C292.393162,169.145299 279.974359,158.367521 279.974359,158.367521 L279.974359,158.367521 L274.235043,159.188034 Z" id="Fill-24" fill="#EFBC9A"></path>
                    <path d="M247.758547,143.021368 C234.987179,146.183761 231.123932,151.457265 231.123932,151.457265 L231.123932,151.457265 C229.014957,163.873932 241.668803,182.384615 244.82906,186.25 L244.82906,186.25 C247.991453,190.117521 253.850427,194.801282 256.42735,194.333333 L256.42735,194.333333 C259.004274,193.865385 265.916667,192.576923 270.720085,184.726496 L270.720085,184.726496 C275.523504,176.876068 272.948718,168.910256 273.064103,167.271368 L273.064103,167.271368 C273.179487,165.630342 275.40812,161.064103 275.40812,161.064103 L275.40812,161.064103 C277.514957,162.818376 279.155983,161.649573 279.974359,158.367521 L279.974359,158.367521 C280.794872,155.087607 279.974359,149.816239 277.514957,148.057692 L277.514957,148.057692 C275.055556,146.301282 272.380342,147.844017 271.891026,154.149573 L271.891026,154.149573 C271.705128,156.557692 266.267094,158.017094 260.17735,152.508547 L260.17735,152.508547 C255.99359,148.728632 259.128205,142.311966 252.512821,142.311966 L252.512821,142.311966 C251.294872,142.311966 249.74359,142.529915 247.758547,143.021368" id="Fill-26" fill="#F5C9AC"></path>
                    <path d="M270.485043,166.215812 C270.252137,167.271368 271.540598,169.145299 271.773504,170.668803 L271.773504,170.668803 C272.00641,172.192308 270.017094,176.175214 269.081197,177.931624 L269.081197,177.931624 C268.143162,179.688034 267.087607,179.220085 262.521368,179.102564 L262.521368,179.102564 C257.948718,178.987179 253.149573,178.869658 250.805556,181.155983 L250.805556,181.155983 C248.463675,183.442308 248.463675,188.00641 246.467949,186.602564 L246.467949,186.602564 C244.478632,185.196581 240.237179,179.632479 240.237179,179.632479 L240.237179,179.632479 C243.25641,187.070513 255.141026,201.010684 259.826923,202.534188 L259.826923,202.534188 C264.510684,204.055556 272.594017,203.002137 276.696581,194.918803 L276.696581,194.918803 C280.794872,186.83547 282.318376,171.839744 280.282051,168.337607 L280.282051,168.337607 C278.247863,164.837607 274.235043,159.188034 274.235043,159.188034 L274.235043,159.188034 C274.235043,159.188034 270.720085,165.162393 270.485043,166.215812 M251.273504,189.179487 C251.273504,189.179487 252.912393,183.90812 255.58547,183.790598 L255.58547,183.790598 C258.25641,183.673077 265.446581,183.790598 265.446581,183.790598 L265.446581,183.790598 C265.446581,183.790598 264.980769,187.891026 264.042735,188.59188 L264.042735,188.59188 C263.106838,189.294872 257.367521,191.638889 256.311966,191.638889 L256.311966,191.638889 C255.25641,191.638889 251.273504,189.179487 251.273504,189.179487" id="Fill-28" fill="#051A48"></path>
                    <path d="M430.023504,136.978632 C428.818376,137.380342 428.019231,155.027778 428.019231,155.027778 L428.019231,155.027778 C428.019231,155.027778 426.213675,151.818376 423.807692,152.621795 L423.807692,152.621795 C421.399573,153.423077 422.002137,163.25 422.803419,165.856838 L422.803419,165.856838 C422.803419,165.856838 419.594017,172.474359 417.989316,175.282051 L417.989316,175.282051 C416.388889,178.089744 414.179487,175.083333 414.583333,172.474359 L414.583333,172.474359 C414.982906,169.869658 413.715812,163.602564 409.888889,164.00641 L409.888889,164.00641 C406.061966,164.410256 407.269231,171.055556 409.282051,173.873932 L409.282051,173.873932 C411.297009,176.694444 412.303419,180.619658 410.489316,185.604701 L410.489316,185.604701 C408.679487,190.589744 410.895299,197.237179 414.316239,200.662393 L414.316239,200.662393 C417.741453,204.08547 411.589744,239.459402 411.589744,239.459402 L411.589744,239.459402 C411.589744,257.602564 428.036325,271.905983 438.07906,265.495726 L438.07906,265.495726 C440.521368,244.444444 438.923077,216.66453 437.643162,203.121795 L437.643162,203.121795 C435.638889,181.899573 435.683761,179.316239 435.683761,178.773504 L435.683761,178.773504 C435.683761,178.230769 434.220085,170.901709 434.382479,170.630342 L434.382479,170.630342 C434.544872,170.358974 438.245726,160.040598 438.245726,157.433761 L438.245726,157.433761 C438.245726,154.826923 435.839744,147.207265 435.036325,142.995726 L435.036325,142.995726 C434.297009,139.111111 431.67735,136.931624 430.333333,136.931624 L430.333333,136.931624 C430.220085,136.931624 430.115385,136.946581 430.023504,136.978632" id="Fill-30" fill="#F5C9AC"></path>
                    <path d="M129.987179,169.67094 C127.598291,170.538462 128.00641,176.685897 128.00641,176.685897 L128.00641,176.685897 C124.799145,177.487179 124.196581,178.891026 123.997863,181.155983 L123.997863,181.155983 C123.797009,183.418803 128.209402,190.523504 128.209402,190.523504 L128.209402,190.523504 C128.209402,190.523504 125.198718,189.923077 135.831197,231.963675 L135.831197,231.963675 C143.523504,262.391026 160.673077,291.980769 175.41453,305.17094 L175.41453,305.17094 C191.07265,302.850427 194.284188,272.352564 184.653846,263.581197 L184.653846,263.581197 C182.004274,266.628205 159.893162,227.373932 159.893162,227.373932 L159.893162,227.373932 C159.893162,227.373932 162.301282,220.75641 165.15812,214.67735 L165.15812,214.67735 C168.017094,208.600427 167.564103,207.369658 168.017094,200.901709 L168.017094,200.901709 C168.465812,194.433761 174.032051,189.019231 170.423077,187.064103 L170.423077,187.064103 C166.811966,185.108974 162.602564,190.974359 162.450855,195.185897 L162.450855,195.185897 C162.301282,199.397436 160.948718,202.705128 158.84188,203.307692 L158.84188,203.307692 C156.737179,203.90812 150.117521,195.036325 148.162393,193.136752 L148.162393,193.136752 C146.207265,191.235043 142.294872,178.935897 140.049145,174.557692 L140.049145,174.557692 C137.805556,170.17735 134.544872,172.314103 134.544872,172.314103 L134.544872,172.314103 C134.544872,172.314103 132.82906,169.532051 130.767094,169.532051 L130.767094,169.532051 C130.510684,169.532051 130.25,169.574786 129.987179,169.67094" id="Fill-32" fill="#F5C9AC"></path>
                    <path d="M350.209402,206.367521 C347,224.41453 346.598291,242.461538 356.623932,258.303419 L356.623932,258.303419 C379.886752,278.561966 415.985043,301.423077 429.220085,290.99359 L429.220085,290.99359 C434.010684,287.217949 436.692308,277.435897 438.07906,265.495726 L438.07906,265.495726 C428.036325,271.905983 411.589744,257.602564 411.589744,239.459402 L411.589744,239.459402 C411.589744,239.459402 397.873932,204.895299 362.217949,185.604701 L362.217949,185.604701 C362.217949,185.604701 353.41453,188.316239 350.209402,206.367521" id="Fill-34" fill="url(#linearGradient-8)"></path>
                    <path d="M184.653846,263.581197 C194.284188,272.352564 191.07265,302.850427 175.41453,305.17094 L175.41453,305.17094 C181.038462,310.202991 186.314103,312.861111 190.57906,312.252137 L190.57906,312.252137 C205.440171,310.128205 226.950855,290.735043 236.594017,272.117521 L236.594017,272.117521 C236.495726,271.99359 236.401709,271.865385 236.301282,271.741453 L236.301282,271.741453 C221.059829,252.891026 211.833333,219.200855 221.113248,193.136752 L221.113248,193.136752 C204.938034,203.923077 191.155983,256.09188 184.653846,263.581197" id="Fill-36" fill="url(#linearGradient-9)"></path>
                    <path d="M245.168803,327.576923 C244.017094,327.576923 243.081197,328.510684 243.081197,329.662393 L243.081197,329.662393 L243.081197,332.151709 C243.081197,333.303419 244.017094,334.237179 245.168803,334.237179 L245.168803,334.237179 L289.237179,334.237179 C291.764957,334.237179 293.811966,332.190171 293.811966,329.662393 L293.811966,329.662393 C293.811966,328.510684 292.878205,327.576923 291.726496,327.576923 L291.726496,327.576923 L245.168803,327.576923 Z" id="Fill-38" fill="url(#linearGradient-10)"></path>
                    <path d="M139.15812,263.5 C133.356838,263.5 129.147436,269.021368 130.683761,274.613248 L130.683761,274.613248 L145.754274,329.470085 C146.801282,333.284188 150.269231,335.929487 154.226496,335.929487 L154.226496,335.929487 L254.752137,335.929487 C260.549145,335.929487 264.758547,330.40812 263.222222,324.814103 L263.222222,324.814103 L248.153846,269.959402 C247.104701,266.143162 243.638889,263.5 239.681624,263.5 L239.681624,263.5 L139.15812,263.5 Z" id="Fill-40" fill="#DDDDDD"></path>
                    <g id="形状结合" transform="translate(194.000000, 300.266667) rotate(-8.000000) translate(-194.000000, -300.266667) translate(175.000000, 280.000000)">
                        <path d="M18.8489749,9.18086073 C18.3106191,6.28774682 15.1829572,0.452245987 7.50828889,1.94644455 C7.50828889,1.94644455 11.6477412,7.29871639 6.3158999,12.8081552" id="形状" fill="#CACACA" opacity="0.86" transform="translate(12.582437, 7.256953) rotate(-12.000000) translate(-12.582437, -7.256953) "></path>
                        <path d="M9.03586098,11.9936248 C14.6191144,6.41037139 23.6678885,6.4069031 29.2468636,11.9858782 C33.3466211,16.0856357 34.4317639,22.059144 32.5033467,27.1542173 C32.1566463,24.9989781 31.1528377,22.9304591 29.492431,21.2700524 C25.2909806,17.0686021 18.4764717,17.071214 14.2717993,21.2758863 C10.5282351,25.0194506 10.1156243,30.8318199 13.0353796,35.0268639 C11.585658,34.3442871 10.226797,33.4033101 9.02811433,32.2046275 C3.44913924,26.6256524 3.45260753,17.5768783 9.03586098,11.9936248 Z" fill="#C4C4C4" transform="translate(19.137489, 21.416599) rotate(-23.000000) translate(-19.137489, -21.416599) "></path>
                    </g>
                    <path d="M333.081197,287.636752 C332.722222,287.636752 332.429487,287.92735 332.429487,288.290598 L332.429487,288.290598 L332.429487,288.893162 C332.429487,289.254274 332.722222,289.544872 333.081197,289.544872 L333.081197,289.544872 L365.104701,289.544872 C365.465812,289.544872 365.75641,289.254274 365.75641,288.893162 L365.75641,288.893162 L365.75641,288.290598 C365.75641,287.92735 365.465812,287.636752 365.104701,287.636752 L365.104701,287.636752 L333.081197,287.636752 Z" id="Fill-43" fill="url(#linearGradient-11)"></path>
                    <path d="M332.626068,289.544872 C332.333333,289.544872 332.074786,289.737179 331.991453,290.019231 L331.991453,290.019231 L331.735043,290.880342 C331.67735,291.076923 331.824786,291.273504 332.027778,291.273504 L332.027778,291.273504 L366.15812,291.273504 C366.363248,291.273504 366.508547,291.076923 366.450855,290.880342 L366.450855,290.880342 L366.194444,290.019231 C366.111111,289.737179 365.852564,289.544872 365.559829,289.544872 L365.559829,289.544872 L332.626068,289.544872 Z" id="Fill-45" fill="url(#linearGradient-12)"></path>
                    <path d="M335.775641,283.373932 C335.438034,283.373932 335.15812,283.626068 335.119658,283.963675 L334.700855,287.636752 L363.485043,287.636752 L363.068376,283.963675 C363.029915,283.626068 362.747863,283.373932 362.410256,283.373932 L335.775641,283.373932 Z" id="Fill-47" fill="url(#linearGradient-13)"></path>
                    <path d="M333.288462,291.237179 L337.536325,333.395299 C337.583333,333.871795 337.987179,334.237179 338.467949,334.237179 L338.467949,334.237179 L359.717949,334.237179 C360.198718,334.237179 360.602564,333.871795 360.649573,333.395299 L360.649573,333.395299 L364.901709,291.237179 L333.288462,291.237179 Z" id="Fill-49" fill="url(#linearGradient-14)"></path>
                    <polygon id="Fill-51" fill="url(#linearGradient-15)" points="333.288462 302.805556 335.49359 322.673077 362.696581 322.673077 364.901709 302.805556"></polygon>
                    <path d="M340.929487,312.773504 C340.929487,317.282051 344.583333,320.935897 349.094017,320.935897 L349.094017,320.935897 C353.602564,320.935897 357.254274,317.282051 357.254274,312.773504 L357.254274,312.773504 C357.254274,308.264957 353.602564,304.611111 349.094017,304.611111 L349.094017,304.611111 C344.583333,304.611111 340.929487,308.264957 340.929487,312.773504" id="Fill-53" fill="url(#linearGradient-16)"></path>
                    <path d="M291.715812,423.809829 C312.905983,430.786325 348.497863,429.373932 359.262821,396.683761 L359.262821,396.683761 C370.029915,363.991453 342.237179,341.709402 321.049145,334.730769 L321.049145,334.730769 L291.715812,423.809829 Z" id="Fill-55" fill="url(#linearGradient-17)"></path>
                    <path d="M244.529915,357.346154 C237.209402,379.581197 239.67735,404.277778 251.987179,414.051282 L251.987179,414.051282 C253.891026,415.564103 255.933761,416.65812 258.068376,417.352564 L258.068376,417.352564 L290.5,428.032051 C305.350427,432.867521 324.713675,418.337607 334.068376,389.92735 L334.068376,389.92735 C343.425214,361.519231 336.899573,337.061966 322.553419,330.698718 L322.553419,330.698718 L290.121795,320.017094 C288.059829,319.102564 285.83547,318.561966 283.474359,318.438034 L283.474359,318.438034 C283.136752,318.42094 282.799145,318.412393 282.459402,318.412393 L282.459402,318.412393 C267.491453,318.412393 251.690171,335.604701 244.529915,357.346154" id="Fill-57" fill="url(#linearGradient-18)"></path>
                    <path d="M246.916667,358.264957 C240.220085,378.59188 242.16453,401.070513 252.963675,409.856838 L252.963675,409.856838 C266.254274,420.673077 287.448718,407.378205 297.235043,377.666667 L297.235043,377.666667 C307.019231,347.952991 298.369658,323.153846 281.752137,322.435897 L281.752137,322.435897 C281.514957,322.425214 281.275641,322.42094 281.038462,322.42094 L281.038462,322.42094 C267.739316,322.42094 253.491453,338.292735 246.916667,358.264957" id="Fill-59" fill="url(#linearGradient-19)"></path>
                    <path d="M259.944444,381.67735 C258.732906,385.354701 259.282051,389.260684 261.224359,390.438034 L261.224359,390.438034 C263.232906,391.653846 265.946581,389.50641 267.232906,385.608974 L267.232906,385.608974 C268.514957,381.709402 267.818376,377.724359 265.737179,376.735043 L265.737179,376.735043 C265.418803,376.58547 265.089744,376.512821 264.752137,376.512821 L264.752137,376.512821 C262.948718,376.512821 260.963675,378.581197 259.944444,381.67735" id="Fill-61" fill="url(#linearGradient-20)"></path>
                    <path d="M270.745726,348.871795 C269.536325,352.549145 270.224359,356.029915 272.346154,356.668803 L272.346154,356.668803 C274.536325,357.324786 277.40812,354.715812 278.690171,350.814103 L278.690171,350.814103 C279.972222,346.916667 279.119658,343.397436 276.856838,342.965812 L276.856838,342.965812 C276.705128,342.935897 276.549145,342.92094 276.391026,342.92094 L276.391026,342.92094 C274.292735,342.92094 271.871795,345.455128 270.745726,348.871795" id="Fill-63" fill="url(#linearGradient-21)"></path>
                    <path d="M239.32906,345.438034 L195.583333,348.275641 C192.292735,348.489316 189.794872,351.333333 190.008547,354.623932 L190.008547,354.623932 C190.222222,357.918803 193.064103,360.41453 196.356838,360.200855 L196.356838,360.200855 L240.102564,357.363248 C243.395299,357.149573 245.891026,354.305556 245.679487,351.012821 L245.679487,351.012821 C245.472222,347.852564 242.846154,345.425214 239.724359,345.425214 L239.724359,345.425214 C239.59188,345.425214 239.461538,345.429487 239.32906,345.438034 M241.632479,380.959402 L197.891026,383.797009 C194.598291,384.008547 192.100427,386.852564 192.314103,390.145299 L192.314103,390.145299 C192.525641,393.440171 195.371795,395.933761 198.662393,395.722222 L198.662393,395.722222 L242.40812,392.884615 C245.698718,392.668803 248.198718,389.826923 247.982906,386.534188 L247.982906,386.534188 C247.777778,383.371795 245.149573,380.946581 242.027778,380.946581 L242.027778,380.946581 C241.897436,380.946581 241.764957,380.950855 241.632479,380.959402" id="Fill-65" fill="url(#linearGradient-22)"></path>
                    <path d="M160.162393,323.344017 C157.910256,323.267094 155.643162,323.594017 153.405983,324.363248 C138.946581,329.32265 130.305556,351.645299 131.820513,375.004274 C133.33547,398.363248 144.852564,420.350427 159.925214,424.816239 C162.254274,425.50641 164.559829,425.758547 166.797009,425.606838 L200.871795,423.395299 C216.450855,422.331197 228.982906,401.619658 227.047009,371.771368 C225.111111,341.92735 209.918803,321.67735 194.237179,321.134615 L160.162393,323.344017 Z" id="Fill-67" fill="url(#linearGradient-23)"></path>
                    <path d="M157.632479,327.824786 C131.346154,329.527778 104.833333,343.745726 107.061966,378.089744 L107.061966,378.089744 C109.292735,412.433761 145.017094,422.534188 163.698718,421.320513 L163.698718,421.320513 C178.15812,420.384615 190.059829,401.262821 188.299145,374.160256 L188.299145,374.160256 C186.502137,346.474359 172.848291,327.788462 158.675214,327.790598 L158.675214,327.790598 C158.32906,327.790598 157.978632,327.801282 157.632479,327.824786" id="Fill-69" fill="url(#linearGradient-24)"></path>
                    <path d="M82.7628205,295.997863 C81.8397436,295.997863 81.1089744,296.779915 81.1730769,297.702991 L81.1730769,297.702991 L83.6025641,332.754274 C83.6602564,333.589744 84.3547009,334.237179 85.1944444,334.237179 L85.1944444,334.237179 L118.284188,334.237179 C119.121795,334.237179 119.816239,333.589744 119.873932,332.754274 L119.873932,332.754274 L122.305556,297.702991 C122.369658,296.779915 121.638889,295.997863 120.715812,295.997863 L120.715812,295.997863 L82.7628205,295.997863 Z" id="Fill-71" fill="url(#linearGradient-25)"></path>
                    <path d="M80.2863248,292.681624 C79.4294872,292.681624 78.7350427,293.373932 78.7350427,294.230769 L78.7350427,294.230769 L78.7350427,303.352564 C78.7350427,304.209402 79.4294872,304.901709 80.2863248,304.901709 L80.2863248,304.901709 L123.194444,304.901709 C124.047009,304.901709 124.741453,304.209402 124.741453,303.352564 L124.741453,303.352564 L124.741453,294.230769 C124.741453,293.373932 124.047009,292.681624 123.194444,292.681624 L123.194444,292.681624 L80.2863248,292.681624 Z" id="Fill-73" fill="url(#linearGradient-26)"></path>
                    <path d="M99.0811966,263.42735 L99.0811966,292.681624 L114.897436,292.681624 L114.897436,263.42735 C114.897436,259.061966 111.356838,255.521368 106.989316,255.521368 L106.989316,255.521368 C102.621795,255.521368 99.0811966,259.061966 99.0811966,263.42735" id="Fill-75" fill="url(#linearGradient-27)"></path>
                    <path d="M88.5811966,292.681624 L100.444444,292.681624 L100.444444,275.149573 C100.444444,271.873932 97.7884615,269.217949 94.5106838,269.217949 C91.2371795,269.217949 88.5811966,271.873932 88.5811966,275.149573 L88.5811966,292.681624 Z" id="Fill-77" fill="url(#linearGradient-28)"></path>
                    <path d="M293.811966,73.0197698 C255.773252,105.697295 226.504021,124.781985 206.004274,130.273838 C127.725627,151.244577 61.0085428,133.245265 42.3224976,130.273838 C18.6759814,126.513605 3.69962099,107.04939 15.702332,83.7785463 C27.8620574,60.2032838 55.5310731,67.1377905 72.2559924,78.5346734 C109.535661,103.938205 142.216553,189.401441 84.9009163,207.649234 C1.87154815,234.083603 -2.08007437,263.5 1.15699304,293.603281 C4.39406044,323.706563 51.6212984,379.666667 107.061966,378.089744" id="路径-5" stroke="#6A748B" stroke-width="2" stroke-dasharray="6"></path>
                </g>
            </g>
        </g>
    </g>
</svg>