<?xml version="1.0" standalone="no"?><!DOCTYPE svg PUBLIC "-//W3C//DTD SVG 1.1//EN"
        "http://www.w3.org/Graphics/SVG/1.1/DTD/svg11.dtd">
<svg t="1649838470411" class="icon" viewBox="0 0 1088 1024" version="1.1" xmlns="http://www.w3.org/2000/svg" p-id="8026"
     xmlns:xlink="http://www.w3.org/1999/xlink" width="212.5" height="200">
    <defs>
        <style type="text/css"></style>
    </defs>
    <path d="M975.05856 553.792l-166.08 287.68a122.24 122.24 0 0 1-105.6 60.928H371.09056a122.24 122.24 0 0 1-105.536-60.928L99.41056 553.792a122.304 122.304 0 0 1 0-121.92L265.61856 144.192c21.76-37.632 62.208-60.992 105.6-60.992h332.224c43.392 0 83.84 23.36 105.6 60.992l166.08 287.68a122.304 122.304 0 0 1 0 121.92m72-163.584l-166.08-287.68A205.696 205.696 0 0 0 703.37856 0H371.09056c-72.96 0-141.056 39.296-177.536 102.528L27.41056 390.208a205.696 205.696 0 0 0 0 205.184l166.144 287.744a205.632 205.632 0 0 0 177.536 102.528h332.288a205.696 205.696 0 0 0 177.6-102.528l166.08-287.744a205.696 205.696 0 0 0 0-205.184M537.23456 281.472A211.52 211.52 0 0 1 748.56256 492.8a211.584 211.584 0 0 1-211.328 211.392A211.584 211.584 0 0 1 325.90656 492.8a211.52 211.52 0 0 1 211.328-211.2z m0 76.8a134.72 134.72 0 0 0-134.592 134.464c0 74.304 60.416 134.656 134.592 134.656A134.784 134.784 0 0 0 671.82656 492.8a134.72 134.72 0 0 0-134.592-134.528z"
          fill="#A2ABC3" p-id="8027"></path>
</svg>