<?xml version="1.0" encoding="UTF-8"?>
<svg width="14px" height="15px" viewBox="0 0 14 15" version="1.1" xmlns="http://www.w3.org/2000/svg" xmlns:xlink="http://www.w3.org/1999/xlink">
    <!-- Generator: Sketch 61 (89581) - https://sketch.com -->
    <title>picview_backtop_normal</title>
    <desc>Created with Sketch.</desc>
    <g id="图标" stroke="none" stroke-width="1" fill="none" fill-rule="evenodd">
        <g id="切图" transform="translate(-197.000000, -310.000000)" fill="#848EA9" fill-rule="nonzero">
            <path d="M209.966913,314.012027 L209.959295,314.012027 L209.959295,314.010503 L209.134959,314.010503 L209.134959,314.008979 L204.039617,314.008979 C203.878102,313.973933 203.753156,313.842893 203.728777,313.67833 L203.728777,311.624347 C203.728777,311.613681 203.728777,311.604539 203.727253,311.593872 C203.727253,311.589301 203.727253,311.58473 203.725729,311.578635 C203.725729,311.574064 203.725729,311.567969 203.724205,311.563398 C203.724205,311.557303 203.722682,311.551208 203.722682,311.545113 C203.722682,311.540542 203.721158,311.537495 203.721158,311.532923 C203.719634,311.526828 203.719634,311.51921 203.718111,311.513115 C203.718111,311.510067 203.716587,311.50702 203.716587,311.502449 C203.715063,311.496354 203.713539,311.488735 203.712016,311.48264 C203.712016,311.479593 203.710492,311.476545 203.710492,311.473498 L203.705921,311.455213 C203.704397,311.452166 203.704397,311.447595 203.702873,311.444547 C203.70135,311.438452 203.699826,311.432357 203.696778,311.427786 C203.695255,311.423215 203.693731,311.420168 203.692207,311.415596 C203.690684,311.411025 203.687636,311.40493 203.686112,311.400359 L203.681541,311.386646 C203.680017,311.382074 203.67697,311.377503 203.675446,311.372932 C203.673923,311.368361 203.670875,311.362266 203.669351,311.357695 C203.667828,311.354647 203.666304,311.350076 203.663256,311.347029 C203.660209,311.340934 203.657162,311.336363 203.655638,311.330268 C203.654114,311.32722 203.65259,311.324173 203.649543,311.321125 C203.646495,311.31503 203.643448,311.310459 203.640401,311.304364 C203.638877,311.301317 203.637353,311.298269 203.634306,311.295222 C203.631258,311.289127 203.626687,311.284556 203.62364,311.278461 C203.622116,311.275414 203.619068,311.272366 203.617545,311.269319 C203.614497,311.263224 203.609926,311.258653 203.605355,311.252558 C203.602307,311.24951 203.600784,311.246463 203.597736,311.243415 C203.594689,311.238844 203.590118,311.234273 203.58707,311.229702 C203.584023,311.225131 203.579451,311.222083 203.576404,311.217512 C203.573357,311.214465 203.570309,311.209893 203.567262,311.206846 C203.559643,311.199227 203.553548,311.191609 203.545929,311.18399 C203.538311,311.176371 203.530692,311.170276 203.523074,311.162658 C203.520026,311.15961 203.515455,311.156563 203.512407,311.153515 C203.507836,311.150468 203.504789,311.145897 203.500218,311.142849 C203.495646,311.138278 203.491075,311.135231 203.486504,311.132183 C203.483457,311.129136 203.480409,311.127612 203.477362,311.124565 C203.471267,311.119993 203.466696,311.116946 203.460601,311.112375 C203.457553,311.110851 203.454506,311.107804 203.451458,311.10628 C203.445364,311.103232 203.440792,311.098661 203.434697,311.095614 C203.43165,311.09409 203.428603,311.092566 203.425555,311.089519 C203.41946,311.086471 203.414889,311.083424 203.408794,311.080377 C203.405747,311.078853 203.402699,311.077329 203.399652,311.074282 C203.393557,311.071234 203.388986,311.068187 203.382891,311.066663 C203.379843,311.065139 203.375272,311.063616 203.372225,311.060568 C203.367653,311.057521 203.361559,311.055997 203.356987,311.054473 C203.352416,311.052949 203.347845,311.049902 203.343274,311.048378 L203.32956,311.043807 C203.324989,311.042283 203.318894,311.039236 203.314323,311.037712 C203.309752,311.036189 203.306704,311.034665 203.302133,311.033141 C203.296038,311.031617 203.289943,311.02857 203.285372,311.027046 C203.282325,311.025522 203.277754,311.025522 203.274706,311.023999 L203.256421,311.019428 C203.253374,311.017904 203.250327,311.017904 203.245755,311.01638 C203.23966,311.014856 203.232042,311.013333 203.225947,311.011809 C203.222899,311.011809 203.219852,311.010285 203.215281,311.010285 C203.209186,311.008761 203.201567,311.007238 203.195472,311.007238 C203.190901,311.007238 203.187854,311.005714 203.183283,311.005714 C203.177188,311.00419 203.171093,311.00419 203.164998,311.00419 C203.160427,311.00419 203.154332,311.002667 203.149761,311.002667 C203.145189,311.002667 203.140618,311.001143 203.136047,311.001143 C203.116239,310.999619 203.094906,310.999619 203.073574,311.001143 C203.069003,311.001143 203.064432,311.001143 203.059861,311.002667 C203.05529,311.002667 203.049195,311.002667 203.044623,311.00419 C203.038529,311.00419 203.032434,311.005714 203.026339,311.005714 C203.021768,311.005714 203.01872,311.007238 203.014149,311.007238 C203.008054,311.008761 203.000435,311.008761 202.99434,311.010285 C202.991293,311.010285 202.988246,311.011809 202.983674,311.011809 C202.977579,311.013333 202.969961,311.014856 202.963866,311.01638 C202.960818,311.017904 202.957771,311.017904 202.9532,311.019428 L202.934915,311.023999 C202.931868,311.025522 202.927296,311.025522 202.924249,311.027046 C202.918154,311.02857 202.912059,311.030094 202.907488,311.033141 C202.902917,311.034665 202.899869,311.036189 202.895298,311.037712 C202.890727,311.039236 202.884632,311.042283 202.880061,311.043807 C202.87549,311.045331 202.870919,311.046855 202.866347,311.049902 C202.861776,311.051426 202.857205,311.054473 202.852634,311.055997 C202.848063,311.057521 202.841968,311.060568 202.837397,311.062092 C202.834349,311.063616 202.829778,311.065139 202.826731,311.068187 C202.820636,311.071234 202.816064,311.074282 202.80997,311.077329 C202.806922,311.078853 202.803875,311.080377 202.800827,311.083424 C202.794732,311.086471 202.788637,311.089519 202.784066,311.092566 C202.781019,311.09409 202.777971,311.095614 202.774924,311.098661 C202.768829,311.101709 202.762734,311.10628 202.758163,311.109327 C202.755115,311.110851 202.752068,311.113899 202.74902,311.115422 C202.742926,311.11847 202.738354,311.123041 202.732259,311.127612 C202.729212,311.13066 202.726165,311.132183 202.723117,311.135231 C202.718546,311.138278 202.713975,311.142849 202.70788,311.145897 C202.703309,311.148944 202.700261,311.151992 202.69569,311.156563 C202.692643,311.15961 202.688071,311.162658 202.685024,311.165705 C202.677405,311.1718 202.669787,311.179419 202.663692,311.187037 L197.196561,316.651121 L197.182847,316.664835 C197.060949,316.786733 197,316.946724 197,317.106715 C197,317.266707 197.060949,317.426698 197.182847,317.548596 L197.196561,317.56231 L202.663692,323.029441 C202.787114,323.152862 202.950152,323.213811 203.111667,323.212316 L203.117762,323.212316 C203.462125,323.212316 203.74249,322.933446 203.74249,322.58756 L203.74249,320.148074 L210.183283,320.148074 C210.606879,320.061221 210.937527,319.713811 211,319.282597 L211,314.943024 C210.945146,314.420385 210.503265,314.012027 209.966913,314.012027 Z" id="picview_backtop_normal" transform="translate(204.000000, 317.106158) rotate(-270.000000) translate(-204.000000, -317.106158) "></path>
        </g>
    </g>
</svg>