<?xml version="1.0" encoding="UTF-8"?>
<svg width="14px" height="12px" viewBox="0 0 14 12" version="1.1" xmlns="http://www.w3.org/2000/svg" xmlns:xlink="http://www.w3.org/1999/xlink">
    <!-- Generator: Sketch 61 (89581) - https://sketch.com -->
    <title>形状结合备份 2</title>
    <desc>Created with Sketch.</desc>
    <g id="1.5" stroke="none" stroke-width="1" fill="none" fill-rule="evenodd">
        <g id="视频单图预览-白" transform="translate(-291.000000, -694.000000)" fill="#666666" fill-rule="nonzero">
            <g id="素材区域_bj">
                <g id="一级菜单栏/素材预览备份" transform="translate(238.000000, 680.000000)">
                    <path d="M54.778,16.899 L60.095,20.906 L60.0959985,25.0068717 C60.0959985,25.5307286 59.7825911,25.7268585 59.3740756,25.4756961 L59.2851604,25.4149857 L56.0411445,22.9819342 L54.0126505,22.9819342 C53.4533827,22.9819342 53,22.5247581 53,21.9775661 L53,21.9775661 L53,17.9039976 C53,17.3493294 53.4487831,16.8996295 54.0126505,16.8996295 L54.0126505,16.8996295 L54.778,16.899 Z M63.876,23.755 L65.096,24.674 L64.9958633,24.7791214 L64.9105938,24.8527532 C64.6129656,25.0736013 64.1906092,25.0490626 63.9206838,24.7791372 C63.6237659,24.4822351 63.6237659,24.0008756 63.9206838,23.7039577 L63.876,23.755 Z M55.8615859,15.2612705 L66.7230288,23.4459548 C67.0317808,23.6786161 67.0934644,24.1175183 66.8608032,24.4262702 C66.6281419,24.7350222 66.1892397,24.7967058 65.8804878,24.5640445 L55.0190449,16.3793602 C54.7102929,16.1466989 54.6486092,15.7077968 54.8812705,15.3990449 C55.1139318,15.0902929 55.5528339,15.0286092 55.8615859,15.2612705 Z M61.5523881,22.0056782 L62.5992781,22.7933737 C62.3236351,22.9075946 61.9944287,22.8526451 61.7703089,22.6285252 C61.6001274,22.4583528 61.5274871,22.2275837 61.5523881,22.0056782 Z M63.9206838,15.1023159 C64.2175859,14.8053979 64.6989454,14.8053979 64.9958633,15.1023159 C66.9915197,17.097976 67.4967671,20.0196415 66.5116056,22.4841776 L65.2390064,21.5260167 C65.8074675,19.6984061 65.3680266,17.6248383 63.9206838,16.1774954 C63.6237659,15.8805933 63.6237817,15.3992338 63.9206838,15.1023159 Z M61.7703089,17.2526275 C62.067211,16.9557096 62.5485705,16.9557096 62.8454884,17.2526275 C63.7373266,18.1443646 64.0933819,19.3691445 63.9136543,20.5268194 L62.3633522,19.3589883 C62.2641175,18.9812158 62.0664364,18.6239346 61.7703089,18.3278071 C61.473391,18.0309049 61.4734068,17.5495454 61.7703089,17.2526275 Z M59.3735001,14.4064087 C59.7797134,14.1577246 60.0959985,14.3574757 60.0959985,14.8747236 L60.0959985,14.8747236 L60.095,17.65 L57.573,15.75 L59.2851604,14.466578 Z" id="形状结合备份-2"></path>
                </g>
            </g>
        </g>
    </g>
</svg>