<?xml version="1.0" encoding="UTF-8"?>
<svg width="14px" height="12px" viewBox="0 0 14 12" version="1.1" xmlns="http://www.w3.org/2000/svg" xmlns:xlink="http://www.w3.org/1999/xlink">
    <!-- Generator: Sketch 61 (89581) - https://sketch.com -->
    <title>形状结合</title>
    <desc>Created with Sketch.</desc>
    <g id="1.5" stroke="none" stroke-width="1" fill="none" fill-rule="evenodd">
        <g id="视频单图预览-白" transform="translate(-291.000000, -694.000000)" fill="#666666" fill-rule="nonzero">
            <g id="素材区域_bj">
                <g id="一级菜单栏/素材预览备份" transform="translate(238.000000, 680.000000)">
                    <path d="M59.3735001,14.4064087 C59.7797134,14.1577246 60.0959985,14.3574757 60.0959985,14.8747236 L60.0959985,14.8747236 L60.0959985,25.0068717 C60.0959985,25.568147 59.7362196,25.753205 59.2851604,25.4149857 L59.2851604,25.4149857 L56.0411445,22.9819342 L54.0126505,22.9819342 C53.4533827,22.9819342 53,22.5247581 53,21.9775661 L53,21.9775661 L53,17.9039976 C53,17.3493294 53.4487831,16.8996295 54.0126505,16.8996295 L54.0126505,16.8996295 L56.0411445,16.8996295 L59.2851604,14.466578 Z M63.9206838,15.1023159 C64.2175859,14.8053979 64.6989454,14.8053979 64.9958633,15.1023159 C67.6680456,17.7745139 67.6680456,22.1069391 64.9958633,24.7791214 L64.9958633,24.7791214 L64.9105938,24.8527532 C64.6129656,25.0736013 64.1906092,25.0490626 63.9206838,24.7791372 C63.6237659,24.4822351 63.6237659,24.0008756 63.9206838,23.7039577 C65.9990618,21.6255796 65.9990618,18.2558734 63.9206838,16.1774954 C63.6237659,15.8805933 63.6237817,15.3992338 63.9206838,15.1023159 Z M61.7703089,17.2526275 C62.067211,16.9557096 62.5485705,16.9557096 62.8454884,17.2526275 C64.329999,18.7370749 64.329999,21.1440147 62.8454884,22.6285252 C62.5485863,22.9254431 62.0672268,22.9254431 61.7703089,22.6285252 C61.473391,22.3316231 61.473391,21.8502636 61.7703089,21.5533457 C62.6610626,20.6626393 62.6610626,19.2185608 61.7703089,18.3278071 C61.473391,18.0309049 61.4734068,17.5495454 61.7703089,17.2526275 Z" id="形状结合"></path>
                </g>
            </g>
        </g>
    </g>
</svg>