<?xml version="1.0" encoding="UTF-8"?>
<svg width="26px" height="26px" viewBox="0 0 26 26" version="1.1" xmlns="http://www.w3.org/2000/svg" xmlns:xlink="http://www.w3.org/1999/xlink">
    <!-- Generator: Sketch 61 (89581) - https://sketch.com -->
    <title>preview_cut_normal</title>
    <desc>Created with Sketch.</desc>
    <g id="图标" stroke="none" stroke-width="1" fill="none" fill-rule="evenodd">
        <g id="切图" transform="translate(-524.000000, -282.000000)">
            <g id="preview_cut_normal" transform="translate(524.000000, 282.000000)">
                <circle id="椭圆形备份-4" fill-opacity="0.8" fill="#000000" cx="13" cy="13" r="13"></circle>
                <path d="M15.4954338,8.6347032 C15.9671008,8.64759876 16.414139,8.84810854 16.7374429,9.19178083 C17.0695172,9.52147635 17.262384,9.96605068 17.2762557,10.43379 L17.2762557,10.43379 L17.2762557,18.4794521 C17.2762557,18.7669427 17.0431985,19 16.7557078,19 C16.4682171,19 16.2351598,18.7669427 16.2351598,18.4794521 L16.2351598,18.4794521 L16.2351598,10.4292237 C16.2003003,10.0335848 15.8903665,9.71791158 15.4954338,9.6757991 L15.4954338,9.6757991 L10.0159817,9.6757991 L10.0159817,8.6347032 Z M8.96575343,7 C9.25324412,7 9.48630138,7.23305725 9.48630138,7.52054795 L9.48630138,7.52054795 L9.48630138,15.7762557 C9.5686301,16.1284691 9.86606375,16.3891826 10.2260274,16.4246575 L10.2260274,16.4246575 L15.7054794,16.4246575 L15.7054794,17.4703196 L10.2260274,17.4703196 C9.7627488,17.4565799 9.32201944,17.2672295 8.9931507,16.9406393 C8.66224784,16.6432397 8.46479527,16.2252985 8.44520548,15.7808219 L8.44520548,15.7808219 L8.44520548,7.52054795 C8.44520548,7.23305725 8.67826273,7 8.96575343,7 Z M18.8196347,16.4246575 C19.1071254,16.4246575 19.3401826,16.6577148 19.3401826,16.9452055 C19.3401826,17.2326962 19.1071254,17.4657534 18.8196347,17.4657534 L18.8196347,17.4657534 L17.8150685,17.4657534 L17.8150685,16.4246575 Z M7.89726028,8.6347032 L7.89726028,9.6757991 L7.02054795,9.6757991 C6.73305725,9.6757991 6.5,9.44274185 6.5,9.15525115 C6.5,8.86776046 6.73305725,8.6347032 7.02054795,8.6347032 L7.02054795,8.6347032 L7.89726028,8.6347032 Z" id="形状结合" fill="#A2ABC3" fill-rule="nonzero"></path>
            </g>
        </g>
    </g>
</svg>