<?xml version="1.0" encoding="UTF-8"?>
<svg width="26px" height="26px" viewBox="0 0 26 26" version="1.1" xmlns="http://www.w3.org/2000/svg" xmlns:xlink="http://www.w3.org/1999/xlink">
    <!-- Generator: Sketch 61 (89581) - https://sketch.com -->
    <title>preview_info_normal</title>
    <desc>Created with Sketch.</desc>
    <g id="图标" stroke="none" stroke-width="1" fill="none" fill-rule="evenodd">
        <g id="切图" transform="translate(-740.000000, -282.000000)">
            <g id="preview_info_normal" transform="translate(740.000000, 282.000000)">
                <circle id="椭圆形备份-2" fill-opacity="0.8" fill="#000000" cx="13" cy="13" r="13"></circle>
                <path d="M17.6153846,8 C18.3800866,8 19,8.61991342 19,9.38461538 L19,14.9230769 C19,15.6877789 18.3800866,16.3076923 17.6153846,16.3076923 L14.6153846,16.3076923 L13.3692308,17.9692308 C13.2820672,18.0854489 13.1452726,18.1538462 13,18.1538462 C12.8547274,18.1538462 12.7179328,18.0854489 12.6307692,17.9692308 L11.3846154,16.3076923 L8.38461538,16.3076923 C7.61991342,16.3076923 7,15.6877789 7,14.9230769 L7,9.38461538 C7,8.61991342 7.61991342,8 8.38461538,8 L17.6153846,8 Z M17.6153846,8.92307692 L8.38461538,8.92307692 C8.12971473,8.92307692 7.92307692,9.12971473 7.92307692,9.38461538 L7.92307692,14.9230769 C7.92307692,15.1779776 8.12971473,15.3846154 8.38461538,15.3846154 L11.6153846,15.3846154 C11.7606572,15.3846154 11.8974518,15.4530127 11.9846154,15.5692308 L13,16.9215385 L14.0153846,15.5692308 C14.1025482,15.4530127 14.2393428,15.3846154 14.3846154,15.3846154 L17.6153846,15.3846154 C17.8702853,15.3846154 18.0769231,15.1779776 18.0769231,14.9230769 L18.0769231,9.38461538 C18.0769231,9.12971473 17.8702853,8.92307692 17.6153846,8.92307692 Z M13.9230769,12.6153846 C14.1779776,12.6153846 14.3846154,12.8220224 14.3846154,13.0769231 C14.3846154,13.3318237 14.1779776,13.5384615 13.9230769,13.5384615 L10.2307692,13.5384615 C9.97586858,13.5384615 9.76923077,13.3318237 9.76923077,13.0769231 C9.76923077,12.8220224 9.97586858,12.6153846 10.2307692,12.6153846 L13.9230769,12.6153846 Z M15.7692308,10.7692308 C16.0241314,10.7692308 16.2307692,10.9758686 16.2307692,11.2307692 C16.2307692,11.4856699 16.0241314,11.6923077 15.7692308,11.6923077 L10.2307692,11.6923077 C9.97586858,11.6923077 9.76923077,11.4856699 9.76923077,11.2307692 C9.76923077,10.9758686 9.97586858,10.7692308 10.2307692,10.7692308 L15.7692308,10.7692308 Z" id="形状结合" fill="#A2ABC3" fill-rule="nonzero"></path>
            </g>
        </g>
    </g>
</svg>