<?xml version="1.0" encoding="UTF-8"?>
<svg width="26px" height="26px" viewBox="0 0 26 26" version="1.1" xmlns="http://www.w3.org/2000/svg" xmlns:xlink="http://www.w3.org/1999/xlink">
    <!-- Generator: Sketch 61 (89581) - https://sketch.com -->
    <title>preview_adapt_normal</title>
    <desc>Created with Sketch.</desc>
    <g id="图标" stroke="none" stroke-width="1" fill="none" fill-rule="evenodd">
        <g id="切图" transform="translate(-380.000000, -282.000000)">
            <g id="preview_adapt_normal" transform="translate(380.000000, 282.000000)">
                <circle id="椭圆形" fill-opacity="0.8" fill="#000000" cx="13" cy="13" r="13"></circle>
                <path d="M17.3158382,7 C18.2459751,7 19,7.75402494 19,8.68416185 L19,17.3158382 C19,18.2459751 18.2459751,19 17.3158382,19 L8.68416185,19 C7.75402494,19 7,18.2459751 7,17.3158382 L7,8.68416185 C7,7.75402494 7.75402494,7 8.68416185,7 L17.3158382,7 Z M17.3158382,7.9017341 L8.68416185,7.9017341 C8.25202312,7.9017341 7.9017341,8.25202312 7.9017341,8.68416185 L7.9017341,17.3158382 C7.9017341,17.7479769 8.25202312,18.0982659 8.68416185,18.0982659 L17.3158382,18.0982659 C17.7479769,18.0982659 18.0982659,17.7479769 18.0982659,17.3158382 L18.0982659,8.68416185 C18.0982659,8.25202312 17.7479769,7.9017341 17.3158382,7.9017341 Z M9.3833526,13.2261851 C9.52285135,13.1456454 9.6947209,13.1456454 9.83421966,13.2261851 C9.97371841,13.3067247 10.0596532,13.4555681 10.0596532,13.6166474 L10.0596532,13.6166474 L10.059,15.445 L11.9900578,13.5146821 C12.1442506,13.3606569 12.3821522,13.3415226 12.5571439,13.4571996 L12.6278613,13.5150289 C12.80389,13.6912492 12.8037348,13.9768036 12.6275145,14.1528324 L12.6275145,14.1528324 L10.839,15.94 L12.382659,15.9403468 C12.6039985,15.9403468 12.7880862,16.0998412 12.8262619,16.31017 L12.833526,16.3912139 C12.833526,16.6402209 12.631666,16.8420809 12.382659,16.8420809 L12.382659,16.8420809 L9.73225434,16.8420809 C9.41456647,16.8420809 9.15791908,16.5847399 9.15791908,16.2677457 L9.15791908,16.2677457 L9.15791908,13.6166474 C9.15791908,13.4555681 9.24385384,13.3067247 9.3833526,13.2261851 Z M16.2677457,9.15861272 C16.5849423,9.15861272 16.8420809,9.41575137 16.8420809,9.73294798 L16.8420809,9.73294798 L16.8420809,12.3833526 C16.8420809,12.6323596 16.6402209,12.8342197 16.3912139,12.8342197 C16.1422069,12.8342197 15.9403468,12.6323596 15.9403468,12.3833526 L15.9403468,12.3833526 L15.94,10.839 L14.0675145,12.713526 C13.9763188,12.8046225 13.8517855,12.8512613 13.7259466,12.8448781 L13.6318231,12.8300153 C13.4762109,12.7882284 13.3547124,12.6665976 13.3130948,12.5109401 C13.2714772,12.3552826 13.3160632,12.1892464 13.4300578,12.0753757 L13.4300578,12.0753757 L15.443,10.06 L13.617341,10.0603468 C13.4831083,10.0603468 13.3573727,10.0006699 13.2725809,9.90004915 L13.2268787,9.8349133 C13.1463391,9.69541455 13.1463391,9.52354499 13.2268787,9.38404624 C13.3074184,9.24454749 13.4562618,9.15861272 13.617341,9.15861272 L13.617341,9.15861272 Z" id="形状结合" fill="#A2ABC3" fill-rule="nonzero"></path>
            </g>
        </g>
    </g>
</svg>