<?xml version="1.0" encoding="UTF-8"?>
<svg width="26px" height="26px" viewBox="0 0 26 26" version="1.1" xmlns="http://www.w3.org/2000/svg" xmlns:xlink="http://www.w3.org/1999/xlink">
    <!-- Generator: Sketch 61 (89581) - https://sketch.com -->
    <title>preview_rotate_normal</title>
    <desc>Created with Sketch.</desc>
    <g id="图标" stroke="none" stroke-width="1" fill="none" fill-rule="evenodd">
        <g id="切图" transform="translate(-452.000000, -282.000000)">
            <g id="preview_rotate_normal" transform="translate(452.000000, 282.000000)">
                <circle id="椭圆形备份-2" fill-opacity="0.8" fill="#000000" cx="13" cy="13" r="13"></circle>
                <path d="M18.4370615,10.8203189 C17.8957591,9.3768458 16.7530095,8.11380681 15.3095364,7.51235967 C13.9863527,6.85076782 12.3023007,6.85076782 10.7986828,7.39207024 C9.83636741,7.75293853 9.05448613,8.29424095 8.39289428,8.9558328 L8.27260485,9.13626694 L8.27260485,7.57250438 C8.27260485,7.27178081 8.09217071,7.03120195 7.73130242,7.03120195 C7.37043414,7.03120195 7.19,7.27178081 7.19,7.57250438 L7.19,10.8203189 C7.19,11.1210425 7.37043414,11.3616214 7.73130242,11.3616214 L10.979117,11.3616214 C11.2798405,11.3616214 11.5204194,11.1811872 11.5204194,10.8203189 C11.5204194,10.5195954 11.3399853,10.2790165 10.979117,10.2790165 L8.81390727,10.2790165 L8.9341967,10.1587271 C9.47549912,9.3768458 10.1972357,8.77539866 11.0994064,8.41453036 C12.242156,7.93337265 13.6254844,7.99351737 14.8283787,8.53481979 C15.9711282,9.07612222 16.8732989,9.97829293 17.3544566,11.1811872 C17.8356144,12.3840815 17.8356144,13.7674099 17.2943119,14.9703042 C16.7530095,16.1130537 15.8508388,17.0152244 14.6479445,17.4963822 C13.5051949,17.9775399 12.1218665,17.9173952 10.9189723,17.3760927 C9.77622269,16.8347903 8.87405199,15.9326196 8.39289428,14.7297253 C8.33274957,14.5492912 8.09217071,14.368857 7.91173656,14.368857 C7.85159185,14.368857 7.79144713,14.368857 7.67115772,14.4290018 C7.5508683,14.4891465 7.43057886,14.6094359 7.37043414,14.7297253 C7.31028943,14.8500147 7.31028943,15.0304489 7.37043414,15.1507383 C7.91173656,16.5942114 9.05448613,17.8572504 10.4979593,18.4586976 C11.2798405,18.8195659 12.1218665,19 12.9638925,19 C13.6856291,19 14.4675104,18.8797106 15.0689575,18.6391317 C16.5124306,18.0978293 17.7754696,16.9550797 18.3769168,15.5116066 C18.9182192,13.8876993 18.9783639,12.263792 18.4370615,10.8203189 Z" id="路径" fill="#A2ABC3" fill-rule="nonzero"></path>
            </g>
        </g>
    </g>
</svg>