<?xml version="1.0" encoding="UTF-8"?>
<svg width="26px" height="26px" viewBox="0 0 26 26" version="1.1" xmlns="http://www.w3.org/2000/svg" xmlns:xlink="http://www.w3.org/1999/xlink">
    <!-- Generator: Sketch 61 (89581) - https://sketch.com -->
    <title>preview_flip_select</title>
    <desc>Created with Sketch.</desc>
    <g id="图标" stroke="none" stroke-width="1" fill="none" fill-rule="evenodd">
        <g id="切图" transform="translate(-488.000000, -314.000000)">
            <g id="preview_flip_select" transform="translate(488.000000, 314.000000)">
                <circle id="椭圆形备份-3" fill-opacity="0.8" fill="#000000" cx="13" cy="13" r="13"></circle>
                <path d="M12.955514,6 C12.6699065,6 12.4385047,6.2317757 12.4385047,6.51700935 L12.4385047,19.4829907 C12.4385047,19.768527 12.6699776,20 12.955514,20 C13.2410504,20 13.4725234,19.768527 13.4725234,19.4829907 L13.4725234,6.51700935 C13.4725234,6.23140187 13.2407477,6 12.955514,6 Z M15.988785,8.10878505 C15.2157009,8.10878505 14.588785,8.64299065 14.588785,9.30168224 L14.588785,16.4594393 C14.588785,17.1185047 15.2157009,17.6523364 15.988785,17.6523364 L17.388785,17.6523364 C18.1618692,17.6523364 18.788785,17.1185047 18.788785,16.4598131 L18.788785,9.30130841 C18.788785,8.64261682 18.1618692,8.10878505 17.388785,8.10878505 L15.988785,8.10878505 Z M15.988785,8.90429907 L17.388785,8.90429907 C17.646729,8.90429907 17.8553271,9.08224299 17.8553271,9.30168224 L17.8553271,16.4594393 C17.8553271,16.6792523 17.6463551,16.8571963 17.388785,16.8571963 L15.988785,16.8571963 C15.7308411,16.8571963 15.522243,16.6792523 15.522243,16.4594393 L15.522243,9.30168224 C15.522243,9.08224299 15.731215,8.90429907 15.988785,8.90429907 Z M8.14691589,8.90429907 C7.62394868,8.90429907 7.2,9.32824775 7.2,9.85121495 L7.2,15.9102804 C7.2,16.433271 7.62392523,16.8571963 8.14691589,16.8571963 L10.4530841,16.8571963 C10.9760748,16.8571963 11.4,16.433271 11.4,15.9102804 L11.4,9.85121495 C11.4,9.3282243 10.9760748,8.90429907 10.4530841,8.90429907 L8.14691589,8.90429907 Z" id="形状" fill="#E0E7FA" fill-rule="nonzero"></path>
            </g>
        </g>
    </g>
</svg>