<?xml version="1.0" encoding="UTF-8"?>
<svg width="20px" height="17px" viewBox="0 0 20 17" version="1.1" xmlns="http://www.w3.org/2000/svg" xmlns:xlink="http://www.w3.org/1999/xlink">
    <!-- Generator: Sketch 61 (89581) - https://sketch.com -->
    <title>preview_mute</title>
    <desc>Created with Sketch.</desc>
    <g id="图标" stroke="none" stroke-width="1" fill="none" fill-rule="evenodd">
        <g id="切图" transform="translate(-429.000000, -366.000000)" fill="#E0E7FA" fill-rule="nonzero">
            <path d="M437.978801,366.238014 C438.618452,365.758298 439.137141,366.029328 439.137141,366.821034 L439.137141,366.821034 L439.137141,381.295531 C439.137141,382.097353 438.623171,382.361721 437.978801,381.878551 L437.978801,381.878551 L433.344492,378.402763 L430.446644,378.402763 C429.64769,378.402763 429,377.749654 429,376.967952 L429,376.967952 L429,371.148568 C429,370.356185 429.641119,369.713756 430.446644,369.713756 L430.446644,369.713756 L433.344492,369.713756 L437.978801,366.237969 Z M448.622586,370.303301 C448.980138,370.648585 448.990083,371.218347 448.644799,371.575899 L446.422588,373.877706 L448.72378,376.100693 C449.081332,376.445978 449.091277,377.015739 448.745993,377.373292 C448.400709,377.730844 447.830947,377.740789 447.473395,377.395505 L445.172588,375.171706 L442.948601,377.474486 C442.603316,377.832038 442.033555,377.841983 441.676002,377.496699 C441.31845,377.151415 441.308505,376.581653 441.653789,376.224101 L443.877588,373.921706 L441.574808,371.699307 C441.217256,371.354022 441.207311,370.784261 441.552595,370.426708 C441.897879,370.069156 442.467641,370.059211 442.825193,370.404495 L445.127588,372.626706 L447.349988,370.325514 C447.695272,369.967962 448.265034,369.958017 448.622586,370.303301 Z" id="preview_mute"></path>
        </g>
    </g>
</svg>