<?xml version="1.0" encoding="UTF-8"?>
<svg width="26px" height="26px" viewBox="0 0 26 26" version="1.1" xmlns="http://www.w3.org/2000/svg" xmlns:xlink="http://www.w3.org/1999/xlink">
    <!-- Generator: Sketch 61 (89581) - https://sketch.com -->
    <title>preview_previous_normal</title>
    <desc>Created with Sketch.</desc>
    <g id="图标" stroke="none" stroke-width="1" fill="none" fill-rule="evenodd">
        <g id="切图" transform="translate(-884.000000, -282.000000)">
            <g id="preview_previous_normal" transform="translate(884.000000, 282.000000)">
                <circle id="椭圆形备份-6" fill-opacity="0.8" fill="#000000" cx="13" cy="13" r="13"></circle>
                <path d="M14.3735534,9.1109127 L17.7676659,12.5050253 C17.7918615,12.5292208 17.8135585,12.5549686 17.8327572,12.5819483 C17.8596858,12.6010111 17.8851465,12.6225058 17.9090873,12.6464466 C18.1434019,12.8807612 18.1434019,13.2606602 17.9090873,13.4949747 L14.5149747,16.8890873 C14.2806602,17.1234019 13.9007612,17.1234019 13.6664466,16.8890873 C13.432132,16.6547727 13.432132,16.2748737 13.6664466,16.0405592 L16.106,13.5991768 L8.52,13.6 C8.18862915,13.6 7.92,13.3313708 7.92,13 C7.92,12.6686292 8.18862915,12.4 8.52,12.4 L15.966,12.3991768 L13.5250253,9.95944084 C13.2907107,9.72512627 13.2907107,9.34522728 13.5250253,9.1109127 C13.7593398,8.87659813 14.1392388,8.87659813 14.3735534,9.1109127 Z" id="形状结合" fill="#A2ABC3" transform="translate(13.002412, 13.000000) rotate(-180.000000) translate(-13.002412, -13.000000) "></path>
            </g>
        </g>
    </g>
</svg>