<?xml version="1.0" encoding="UTF-8"?>
<svg width="20px" height="17px" viewBox="0 0 20 17" version="1.1" xmlns="http://www.w3.org/2000/svg" xmlns:xlink="http://www.w3.org/1999/xlink">
    <!-- Generator: Sketch 61 (89581) - https://sketch.com -->
    <title>preview_voice</title>
    <desc>Created with Sketch.</desc>
    <g id="图标" stroke="none" stroke-width="1" fill="none" fill-rule="evenodd">
        <g id="切图" transform="translate(-395.000000, -366.000000)" fill="#E0E7FA" fill-rule="nonzero">
            <path d="M403.978801,366.238014 C404.618452,365.758298 405.137141,366.029328 405.137141,366.821034 L405.137141,366.821034 L405.137141,381.295531 C405.137141,382.097353 404.623171,382.361721 403.978801,381.878551 L403.978801,381.878551 L399.344492,378.402763 L396.446644,378.402763 C395.64769,378.402763 395,377.749654 395,376.967952 L395,376.967952 L395,371.148568 C395,370.356185 395.641119,369.713756 396.446644,369.713756 L396.446644,369.713756 L399.344492,369.713756 L403.978801,366.237969 Z M410.600977,367.146166 C411.025123,366.721997 411.712779,366.721997 412.136948,367.146166 C415.954351,370.963591 415.954351,377.15277 412.136948,380.970173 L412.136948,380.970173 L412.042218,381.054597 C411.615909,381.3922 410.994848,381.364067 410.600977,380.970196 C410.176808,380.54605 410.176808,379.858394 410.600977,379.434225 C413.570088,376.465114 413.570088,371.651248 410.600977,368.682136 C410.176808,368.25799 410.176831,367.570334 410.600977,367.146166 Z M407.529013,370.218039 C407.953159,369.793871 408.640815,369.793871 409.064983,370.218039 L409.064983,370.218039 C411.185713,372.338678 411.185713,375.777164 409.064983,377.897893 C408.640838,378.322062 407.953181,378.322062 407.529013,377.897893 C407.104844,377.473747 407.104844,376.786091 407.529013,376.361922 C408.801518,375.089485 408.801518,373.026515 407.529013,371.75401 C407.104844,371.329864 407.104867,370.642208 407.529013,370.218039 Z" id="preview_voice"></path>
        </g>
    </g>
</svg>