<?xml version="1.0" encoding="UTF-8"?>
<svg width="18px" height="18px" viewBox="0 0 18 18" version="1.1" xmlns="http://www.w3.org/2000/svg" xmlns:xlink="http://www.w3.org/1999/xlink">
    <!-- Generator: Sketch 61 (89581) - https://sketch.com -->
    <title>preview_loop_select</title>
    <desc>Created with Sketch.</desc>
    <g id="图标" stroke="none" stroke-width="1" fill="none" fill-rule="evenodd">
        <g id="切图" transform="translate(-465.000000, -364.000000)" fill="#E0E7FA" fill-rule="nonzero">
            <path d="M468.771654,379.39932 L468.771654,380.687614 C468.771132,380.874388 468.661888,381.043754 468.491951,381.121252 C468.322014,381.19875 468.122507,381.170186 467.981142,381.048119 L465.165049,378.613972 C465.060225,378.523166 465,378.391315 465,378.252629 C465,378.113943 465.060225,377.982092 465.165049,377.891286 L467.980287,375.455412 C468.121734,375.332702 468.321801,375.303871 468.49214,375.38165 C468.662479,375.45943 468.771726,375.629498 468.771637,375.816755 L468.771637,377.104211 L476.718678,377.104211 C478.855856,377.104211 480.58963,375.363564 480.58963,373.212657 L480.58963,372.983496 C480.58963,372.349483 481.103599,371.835514 481.737612,371.835514 C482.371625,371.835514 482.885594,372.349483 482.885594,372.983496 L482.885594,373.212657 C482.885594,376.628707 480.125291,379.40103 476.718678,379.40103 L468.770782,379.40103 L468.771654,379.39932 Z M479.228363,365.764286 L479.228363,364.475992 C479.229176,364.289563 479.338289,364.120612 479.507882,364.043186 C479.677474,363.96576 479.876606,363.993983 480.018003,364.115487 L482.834951,366.550506 C482.939775,366.641312 483,366.773163 483,366.911849 C483,367.050535 482.939775,367.182386 482.834951,367.273192 L480.018858,369.709066 C479.877375,369.831222 479.677675,369.859716 479.507674,369.782003 C479.337673,369.704291 479.228557,369.534628 479.228363,369.347706 L479.228363,368.06025 L471.280467,368.06025 C469.144144,368.06025 467.409515,369.800898 467.409515,371.951805 L467.409515,372.180965 C467.409515,372.814742 466.895737,373.328519 466.26196,373.328519 C465.628184,373.328519 465.114406,372.814742 465.114406,372.180965 L465.114406,371.951805 C465.114406,368.535754 467.873854,365.763431 471.281322,365.763431 L479.22838,365.763431 L479.228363,365.764286 Z" id="preview_loop_select"></path>
        </g>
    </g>
</svg>