<?xml version="1.0" encoding="UTF-8"?>
<svg width="26px" height="26px" viewBox="0 0 26 26" version="1.1" xmlns="http://www.w3.org/2000/svg" xmlns:xlink="http://www.w3.org/1999/xlink">
    <!-- Generator: Sketch 61 (89581) - https://sketch.com -->
    <title>preview_whole_select</title>
    <desc>Created with Sketch.</desc>
    <g id="图标" stroke="none" stroke-width="1" fill="none" fill-rule="evenodd">
        <g id="切图" transform="translate(-956.000000, -314.000000)">
            <g id="preview_whole_select" transform="translate(956.000000, 314.000000)">
                <circle id="椭圆形备份-8" fill-opacity="0.8" fill="#000000" cx="13" cy="13" r="13"></circle>
                <path d="M8.68416185,7.9017341 C8.25202312,7.9017341 7.9017341,8.25202312 7.9017341,8.68416185 L7.9017341,17.3158382 C7.9017341,17.7479769 8.25202312,18.0982659 8.68416185,18.0982659 L17.3158382,18.0982659 C17.7479769,18.0982659 18.0982659,17.7479769 18.0982659,17.3158382 L18.0982659,8.68416185 C18.0982659,8.25202312 17.7479769,7.9017341 17.3158382,7.9017341 L8.68416185,7.9017341 Z M17.3158382,7 C18.2459751,7 19,7.75402494 19,8.68416185 L19,17.3158382 C19,18.2459751 18.2459751,19 17.3158382,19 L8.68416185,19 C7.75402494,19 7,18.2459751 7,17.3158382 L7,8.68416185 C7,7.75402494 7.75402494,7 8.68416185,7 L17.3158382,7 Z M13.8887661,12.5415378 L12.0359832,15.074761 L11.1397454,13.8347631 C11.0210074,13.670487 10.828509,13.6704992 10.7097711,13.8347631 L9.05756566,16.1207374 C8.93882768,16.2850135 9.00967565,16.4181979 9.21579767,16.4181979 L16.7856121,16.4181979 C16.991856,16.4181979 17.0611198,16.285306 16.9412242,16.1213832 L14.3229201,12.5415378 C14.2022446,12.3765427 14.0086495,12.3776273 13.8887661,12.5415378 Z M11.125,9.6 C10.5036797,9.6 10,10.1036797 10,10.725 C10,11.3463203 10.5036797,11.85 11.125,11.85 C11.7463203,11.85 12.25,11.3463203 12.25,10.725 C12.25,10.1036797 11.7463203,9.6 11.125,9.6 Z" id="形状备份" fill="#E0E7FA" fill-rule="nonzero"></path>
            </g>
        </g>
    </g>
</svg>