<?xml version="1.0" encoding="UTF-8"?>
<svg width="18px" height="18px" viewBox="0 0 18 18" version="1.1" xmlns="http://www.w3.org/2000/svg" xmlns:xlink="http://www.w3.org/1999/xlink">
    <!-- Generator: Sketch 61 (89581) - https://sketch.com -->
    <title>preview_loop_normal</title>
    <desc>Created with Sketch.</desc>
    <g id="图标" stroke="none" stroke-width="1" fill="none" fill-rule="evenodd">
        <g id="切图" transform="translate(-496.000000, -364.000000)" fill="#6A748B" fill-rule="nonzero">
            <path d="M499.771654,379.39932 L499.771654,380.687614 C499.771132,380.874388 499.661888,381.043754 499.491951,381.121252 C499.322014,381.19875 499.122507,381.170186 498.981142,381.048119 L496.165049,378.613972 C496.060225,378.523166 496,378.391315 496,378.252629 C496,378.113943 496.060225,377.982092 496.165049,377.891286 L498.980287,375.455412 C499.121734,375.332702 499.321801,375.303871 499.49214,375.38165 C499.662479,375.45943 499.771726,375.629498 499.771637,375.816755 L499.771637,377.104211 L507.718678,377.104211 C509.855856,377.104211 511.58963,375.363564 511.58963,373.212657 L511.58963,372.983496 C511.58963,372.349483 512.103599,371.835514 512.737612,371.835514 C513.371625,371.835514 513.885594,372.349483 513.885594,372.983496 L513.885594,373.212657 C513.885594,376.628707 511.125291,379.40103 507.718678,379.40103 L499.770782,379.40103 L499.771654,379.39932 Z M510.228363,365.764286 L510.228363,364.475992 C510.229176,364.289563 510.338289,364.120612 510.507882,364.043186 C510.677474,363.96576 510.876606,363.993983 511.018003,364.115487 L513.834951,366.550506 C513.939775,366.641312 514,366.773163 514,366.911849 C514,367.050535 513.939775,367.182386 513.834951,367.273192 L511.018858,369.709066 C510.877375,369.831222 510.677675,369.859716 510.507674,369.782003 C510.337673,369.704291 510.228557,369.534628 510.228363,369.347706 L510.228363,368.06025 L502.280467,368.06025 C500.144144,368.06025 498.409515,369.800898 498.409515,371.951805 L498.409515,372.180965 C498.409515,372.814742 497.895737,373.328519 497.26196,373.328519 C496.628184,373.328519 496.114406,372.814742 496.114406,372.180965 L496.114406,371.951805 C496.114406,368.535754 498.873854,365.763431 502.281322,365.763431 L510.22838,365.763431 L510.228363,365.764286 Z" id="preview_loop_normal"></path>
        </g>
    </g>
</svg>