<?xml version="1.0" encoding="UTF-8"?>
<svg width="26px" height="26px" viewBox="0 0 26 26" version="1.1" xmlns="http://www.w3.org/2000/svg" xmlns:xlink="http://www.w3.org/1999/xlink">
    <!-- Generator: Sketch 61 (89581) - https://sketch.com -->
    <title>preview_article_normal</title>
    <desc>Created with Sketch.</desc>
    <g id="图标" stroke="none" stroke-width="1" fill="none" fill-rule="evenodd">
        <g id="切图" transform="translate(-668.000000, -282.000000)">
            <g id="preview_article_normal" transform="translate(668.000000, 282.000000)">
                <circle id="椭圆形" fill-opacity="0.8" fill="#000000" cx="13" cy="13" r="13"></circle>
                <path d="M15.2988522,7 L9.06297675,7 C8.77978479,7.00068063 8.50851329,7.11406797 8.30907351,7.31512002 C8.10963374,7.51617208 7.99843419,7.78834772 8.00001666,8.07153598 L8.00001666,17.9293233 C7.9986633,18.2123631 8.10996413,18.4843175 8.30937907,18.6851834 C8.50879402,18.8860492 8.77993447,18.9993185 9.06297675,19 L17.0097007,19 C17.5931594,19 18.0726438,18.5170784 18.0726438,17.9293233 L18.0726438,9.7952739 L15.2988522,7 Z M16.74,9.60365199 L15.85,9.60365199 C15.7652508,9.60050615 15.6922092,9.53203975 15.69,9.44726101 L15.69,8.34 L16.74,9.60365199 Z M17.04,17.96 C16.9651775,18.0354675 16.8662718,18.0797737 16.76,18.08 C15.0933333,18.08 13.8516667,18.08 13.035,18.08 C12.2183333,18.08 10.9766667,18.08 9.31,18.08 C9.20364733,18.0797126 9.10528579,18.0351201 9.03,17.96 C8.95585145,17.8839292 8.90965266,17.7862292 8.90992485,17.68 L8.90992485,8.32 C8.90931413,8.21373017 8.95517752,8.1154675 9.03,8.04 C9.10482248,7.9645325 9.2037282,7.92022633 9.31,7.92 L9.31,7.91 L14.88,7.91 L14.88,9.44726101 C14.88,9.90268528 15.2414501,10.2721805 15.69,10.2721805 L17.160015,10.2721805 L17.160015,17.68 C17.1606859,17.7871291 17.1148225,17.8845325 17.04,17.96 Z M10.5684547,11.2856774 L13.4255976,11.2856774 C13.5139297,11.286283 13.5987423,11.2405406 13.6609605,11.1587318 C13.7231788,11.0769231 13.7575791,10.9659162 13.7564528,10.8506774 C13.7575791,10.7354386 13.7231788,10.6244318 13.6609605,10.542623 C13.5987423,10.4608142 13.5139297,10.4150718 13.4255976,10.4156774 L10.569314,10.4156774 C10.4809819,10.4150718 10.3961693,10.4608142 10.3339511,10.542623 C10.2717329,10.6244318 10.2373325,10.7354386 10.2384588,10.8506774 C10.2373325,10.9659162 10.2717329,11.0769231 10.3339511,11.1587318 C10.3961693,11.2405406 10.4809819,11.286283 10.569314,11.2856774 L10.5684547,11.2856774 Z M15.499067,15.0231997 L10.569314,15.0231997 C10.4810535,15.0228951 10.3963778,15.0687356 10.3342106,15.150478 C10.2720434,15.2322205 10.2375673,15.3430507 10.238469,15.4581997 C10.238469,15.7003638 10.3845664,15.8931997 10.569314,15.8931997 L15.499067,15.8931997 C15.5873275,15.8935043 15.6720032,15.8476638 15.7341704,15.7659213 C15.7963376,15.6841789 15.8308137,15.5733487 15.829912,15.4581997 C15.8308137,15.3430507 15.7963376,15.2322205 15.7341704,15.150478 C15.6720032,15.0687356 15.5873275,15.0228951 15.499067,15.0231997 L15.499067,15.0231997 Z M10.569314,12.7538085 C10.4809819,12.7532029 10.3961693,12.7989453 10.3339511,12.880754 C10.2717329,12.9625628 10.2373325,13.0735697 10.2384588,13.1888085 C10.2373325,13.3040473 10.2717329,13.4150541 10.3339511,13.4968629 C10.3961693,13.5786716 10.4809819,13.6244141 10.569314,13.6238085 L15.499067,13.6238085 C15.5873991,13.6244141 15.6722117,13.5786716 15.7344299,13.4968629 C15.7966481,13.4150541 15.8310485,13.3040473 15.8299222,13.1888085 C15.8310485,13.0735697 15.7966481,12.9625628 15.7344299,12.880754 C15.6722117,12.7989453 15.5873991,12.7532029 15.499067,12.7538085 L10.569314,12.7538085 L10.569314,12.7538085 Z" id="形状" fill="#A2ABC3" fill-rule="nonzero"></path>
            </g>
        </g>
    </g>
</svg>