<?xml version="1.0" encoding="UTF-8"?>
<svg width="26px" height="26px" viewBox="0 0 26 26" version="1.1" xmlns="http://www.w3.org/2000/svg" xmlns:xlink="http://www.w3.org/1999/xlink">
    <!-- Generator: Sketch 61 (89581) - https://sketch.com -->
    <title>preview_mark_select</title>
    <desc>Created with Sketch.</desc>
    <g id="图标" stroke="none" stroke-width="1" fill="none" fill-rule="evenodd">
        <g id="切图" transform="translate(-560.000000, -314.000000)">
            <g id="preview_mark_select" transform="translate(560.000000, 314.000000)">
                <circle id="椭圆形备份-5" fill-opacity="0.8" fill="#000000" cx="13" cy="13" r="13"></circle>
                <path d="M19.3878063,17.9366925 C16.7295328,15.5442464 13.5396047,17.4050378 13.4953001,17.4493423 C12.6535135,18.0253016 11.6788133,18.2468244 10.704113,18.1139107 C10.4825902,18.0696061 10.2610675,18.2468244 10.2167629,18.4240426 C10.1724583,18.6898699 10.3496766,18.9556973 10.5711994,18.9556973 C10.8370267,19.0000018 11.0585495,19.0000018 11.2800723,19.0000018 C12.2547725,19.0000018 13.1851682,18.7341745 13.9826503,18.1582153 C14.1155639,18.1139107 16.6409237,16.6075558 18.811847,18.6012608 C18.9890652,18.7341745 19.2548926,18.7341745 19.3878063,18.6012608 C19.6093291,18.379738 19.6093291,18.1139107 19.3878063,17.9366925 Z M14.8687414,10.6707451 L12.1661634,9.03147644 L12.0775543,9.12008556 L8.48888516,15.1012008 L11.2800723,16.6518603 L14.8687414,10.6707451 Z M15.6662234,9.34160835 C15.6662234,9.29730379 15.710528,9.29730379 15.710528,9.25299924 C16.109269,8.49982176 15.7991371,7.61373062 15.0902642,7.2149896 C14.3370867,6.77194403 13.3623865,7.03777137 12.9193409,7.79094885 L12.609209,8.32260353 L15.311787,10.0061767 L15.6662234,9.34160835 Z M8.09014414,15.8100737 L8.09014414,18.5569563 L10.8813313,17.3164287 L8.09014414,15.8100737 Z" id="形状" fill="#E0E7FA" fill-rule="nonzero"></path>
            </g>
        </g>
    </g>
</svg>