<?xml version="1.0" encoding="UTF-8"?>
<svg width="26px" height="26px" viewBox="0 0 26 26" version="1.1" xmlns="http://www.w3.org/2000/svg" xmlns:xlink="http://www.w3.org/1999/xlink">
    <!-- Generator: Sketch 61 (89581) - https://sketch.com -->
    <title>preview_back_select</title>
    <desc>Created with Sketch.</desc>
    <g id="图标" stroke="none" stroke-width="1" fill="none" fill-rule="evenodd">
        <g id="切图" transform="translate(-308.000000, -314.000000)">
            <g id="preview_back_select" transform="translate(308.000000, 314.000000)">
                <circle id="椭圆形" fill-opacity="0.8" fill="#000000" cx="13" cy="13" r="13"></circle>
                <path d="M12.4200377,16.4200377 C12.2037309,16.4200377 11.987424,16.3395515 11.8264515,16.1735485 L6.66526934,11.0123664 C6.33829386,10.6853909 6.33829386,10.1521694 6.66526934,9.82519388 C6.99224481,9.4982184 7.52546636,9.4982184 7.85244184,9.82519388 L12.4200377,14.3927898 L16.9876336,9.82519388 C17.3146091,9.4982184 17.8478306,9.4982184 18.1748061,9.82519388 C18.5017816,10.1521694 18.5017816,10.6853909 18.1748061,11.0123664 L13.013624,16.1735485 C12.8526514,16.3395515 12.6363446,16.4200377 12.4200377,16.4200377 Z" id="路径" fill="#E0E7FA" fill-rule="nonzero" transform="translate(12.420038, 13.000000) rotate(-270.000000) translate(-12.420038, -13.000000) "></path>
            </g>
        </g>
    </g>
</svg>