<?xml version="1.0" encoding="UTF-8"?>
<svg width="26px" height="26px" viewBox="0 0 26 26" version="1.1" xmlns="http://www.w3.org/2000/svg" xmlns:xlink="http://www.w3.org/1999/xlink">
    <!-- Generator: Sketch 61 (89581) - https://sketch.com -->
    <title>preview_medium_normal</title>
    <desc>Created with Sketch.</desc>
    <g id="图标" stroke="none" stroke-width="1" fill="none" fill-rule="evenodd">
        <g id="切图" transform="translate(-776.000000, -282.000000)">
            <g id="preview_medium_normal" transform="translate(776.000000, 282.000000)">
                <circle id="椭圆形备份-3" fill-opacity="0.8" fill="#000000" cx="13" cy="13" r="13"></circle>
                <path d="M12.9303441,19 C13.1222106,19 13.2535975,18.9603754 13.3245047,18.8811262 C13.3954119,18.801877 13.4308655,18.6913452 13.4308655,18.5495308 L13.4308655,18.5495308 L13.4308655,15.5839416 L16.9470282,15.5839416 C17.1972888,15.5839416 17.4016684,15.5672576 17.5601668,15.5338895 C17.7186653,15.5005214 17.8417101,15.4400417 17.9293014,15.3524505 C18.0168926,15.2648592 18.0752868,15.1480709 18.1044838,15.0020855 C18.1336809,14.8561001 18.1482795,14.6704901 18.1482795,14.4452555 L18.1482795,14.4452555 L18.1482795,10.4911366 C18.1482795,10.2408759 18.1315954,10.0385819 18.0982273,9.88425443 C18.0648592,9.72992701 18.0043796,9.61313869 17.9167883,9.53388947 C17.8291971,9.45464025 17.7061522,9.40250261 17.5476538,9.37747654 C17.3891554,9.35245047 17.1847758,9.33993743 16.9345151,9.33993743 L16.9345151,9.33993743 L13.4308655,9.33993743 L13.4308655,7.47549531 C13.4308655,7.30031283 13.3912409,7.17726799 13.3119917,7.10636079 C13.2327424,7.0354536 13.1096976,7 12.9428571,7 C12.7593326,7 12.6279458,7.0354536 12.5486966,7.10636079 C12.4694473,7.17726799 12.4298227,7.30031283 12.4298227,7.47549531 L12.4298227,7.47549531 L12.4298227,9.33993743 L8.98873827,9.33993743 C8.73847758,9.33993743 8.53618352,9.35662148 8.3818561,9.38998957 C8.22752868,9.42335766 8.10656934,9.47966632 8.0189781,9.55891554 C7.93138686,9.63816475 7.8729927,9.75286757 7.84379562,9.90302398 C7.81459854,10.0531804 7.8,10.2450469 7.8,10.4786236 L7.8,10.4786236 L7.8,14.4452555 C7.8,14.6704901 7.81459854,14.8561001 7.84379562,15.0020855 C7.8729927,15.1480709 7.92930136,15.2648592 8.01272158,15.3524505 C8.09614181,15.4400417 8.21710115,15.5005214 8.37559958,15.5338895 C8.53409802,15.5672576 8.73847758,15.5839416 8.98873827,15.5839416 L8.98873827,15.5839416 L12.4298227,15.5839416 L12.4298227,18.5370177 C12.4298227,18.7038582 12.4590198,18.822732 12.517414,18.8936392 C12.5758081,18.9645464 12.7134515,19 12.9303441,19 Z M16.9345151,14.620438 L13.4308655,14.620438 L13.4308655,10.3034411 L16.9470282,10.3034411 C17.0221064,10.3034411 17.078415,10.3159541 17.1159541,10.3409802 C17.1534932,10.3660063 17.1722628,10.4160584 17.1722628,10.4911366 L17.1722628,10.4911366 L17.1722628,14.3451512 C17.1722628,14.4619395 17.1493222,14.5370177 17.1034411,14.5703858 C17.05756,14.6037539 17.0012513,14.620438 16.9345151,14.620438 L16.9345151,14.620438 Z M12.4298227,14.620438 L8.97622523,14.620438 C8.90948905,14.620438 8.85943691,14.5995829 8.82606882,14.5578728 C8.79270073,14.5161627 8.77601668,14.4661105 8.77601668,14.4077164 L8.77601668,14.4077164 L8.77601668,10.4911366 C8.77601668,10.4410845 8.79478624,10.3972888 8.83232534,10.3597497 C8.86986444,10.3222106 8.92200209,10.3034411 8.98873827,10.3034411 L8.98873827,10.3034411 L12.4298227,10.3034411 L12.4298227,14.620438 Z" id="中" fill="#A2ABC3" fill-rule="nonzero"></path>
            </g>
        </g>
    </g>
</svg>