<?xml version="1.0" encoding="UTF-8"?>
<svg width="26px" height="26px" viewBox="0 0 26 26" version="1.1" xmlns="http://www.w3.org/2000/svg" xmlns:xlink="http://www.w3.org/1999/xlink">
    <!-- Generator: Sketch 61 (89581) - https://sketch.com -->
    <title>preview_enlarge_normal</title>
    <desc>Created with Sketch.</desc>
    <g id="图标" stroke="none" stroke-width="1" fill="none" fill-rule="evenodd">
        <g id="切图" transform="translate(-632.000000, -282.000000)">
            <g id="preview_enlarge_normal" transform="translate(632.000000, 282.000000)">
                <circle id="椭圆形备份-5" fill-opacity="0.8" fill="#000000" cx="13" cy="13" r="13"></circle>
                <path d="M13,8 C13.3221661,8 13.5833333,8.26116723 13.5833333,8.58333333 L13.583,12.416 L17.4166667,12.4166667 C17.7388328,12.4166667 18,12.6778339 18,13 C18,13.3221661 17.7388328,13.5833333 17.4166667,13.5833333 L13.583,13.583 L13.5833333,17.4166667 C13.5833333,17.7388328 13.3221661,18 13,18 C12.6778339,18 12.4166667,17.7388328 12.4166667,17.4166667 L12.416,13.583 L8.58333333,13.5833333 C8.26116723,13.5833333 8,13.3221661 8,13 C8,12.6778339 8.26116723,12.4166667 8.58333333,12.4166667 L12.416,12.416 L12.4166667,8.58333333 C12.4166667,8.26116723 12.6778339,8 13,8 Z" id="形状结合" fill="#A2ABC3"></path>
            </g>
        </g>
    </g>
</svg>