<?xml version="1.0" encoding="UTF-8"?>
<svg width="26px" height="26px" viewBox="0 0 26 26" version="1.1" xmlns="http://www.w3.org/2000/svg" xmlns:xlink="http://www.w3.org/1999/xlink">
    <!-- Generator: Sketch 61 (89581) - https://sketch.com -->
    <title>preview_hide_select</title>
    <desc>Created with Sketch.</desc>
    <g id="图标" stroke="none" stroke-width="1" fill="none" fill-rule="evenodd">
        <g id="切图" transform="translate(-344.000000, -314.000000)">
            <g id="preview_hide_select" transform="translate(344.000000, 314.000000)">
                <circle id="椭圆形" fill-opacity="0.8" fill="#000000" cx="13" cy="13" r="13"></circle>
                <path d="M11.2718823,7 C11.6274961,7 11.915778,7.28828196 11.915778,7.64389577 C11.915778,7.99950957 11.6274961,8.28779152 11.2718823,8.28779153 L8.92005475,8.28779153 C8.40959116,8.29258141 8.28779153,8.4000114 8.28779153,8.77020015 L8.28779153,11.0488111 C8.28779152,11.4044249 7.99950957,11.6927068 7.64389577,11.6927068 C7.28828196,11.6927068 7,11.4044249 7,11.0488111 L7,8.77020015 C7,7.65347551 7.72532361,7.01026401 8.91458061,7 L11.2718823,7 Z M14.7281177,7 C14.4980759,7 14.2855085,7.12272583 14.1704876,7.32194788 C14.0554667,7.52116992 14.0554667,7.76662161 14.1704876,7.96584365 C14.2855085,8.1650657 14.4980759,8.28779154 14.7281177,8.28779153 L17.0799453,8.28779153 C17.5904088,8.29258141 17.7122085,8.4000114 17.7122085,8.77020015 L17.7122085,11.0488111 C17.7122085,11.4044249 18.0004904,11.6927069 18.3561042,11.6927069 C18.711718,11.6927069 19,11.4044249 19,11.0488111 L19,8.77020015 C19,7.65347551 18.2746764,7.01026401 17.0854194,7 L14.7281177,7 L14.7281177,7 Z M11.2718823,18.995564 C11.5068062,19.0032253 11.727239,18.8822678 11.8469685,18.6799987 C11.9666979,18.4777296 11.9666979,18.226291 11.8469685,18.024022 C11.727239,17.8217529 11.5068062,17.7007954 11.2718823,17.7084567 L8.92005475,17.7084567 C8.40959116,17.7036668 8.28779153,17.5962368 8.28779153,17.2260481 L8.28779153,14.9467529 C8.28779152,14.5911391 7.99950957,14.3028571 7.64389577,14.3028571 C7.28828196,14.3028571 7,14.5911391 7,14.9467529 L7,17.2260481 C7,18.3427727 7.72532361,18.9859842 8.91458061,18.9962482 L11.2718823,18.9962482 L11.2718823,18.995564 Z M14.7281177,18.995564 C14.4931938,19.0032253 14.272761,18.8822678 14.1530315,18.6799987 C14.0333021,18.4777296 14.0333021,18.2262911 14.1530315,18.024022 C14.272761,17.8217529 14.4931938,17.7007954 14.7281177,17.7084567 L17.0799453,17.7084567 C17.5904088,17.7036668 17.7122085,17.5962368 17.7122085,17.2260481 L17.7122085,14.9467529 C17.7122085,14.5911391 18.0004904,14.3028571 18.3561042,14.3028571 C18.711718,14.3028571 19,14.5911391 19,14.9467529 L19,17.2260481 C19,18.3427727 18.2746764,18.9859842 17.0854194,18.9962483 L14.7281177,18.9962483 L14.7281177,18.995564 Z" id="形状" fill="#E0E7FA" fill-rule="nonzero"></path>
            </g>
        </g>
    </g>
</svg>