<?xml version="1.0" encoding="UTF-8"?>
<svg width="26px" height="26px" viewBox="0 0 26 26" version="1.1" xmlns="http://www.w3.org/2000/svg" xmlns:xlink="http://www.w3.org/1999/xlink">
    <!-- Generator: Sketch 61 (89581) - https://sketch.com -->
    <title>preview_word_select</title>
    <desc>Created with Sketch.</desc>
    <g id="图标" stroke="none" stroke-width="1" fill="none" fill-rule="evenodd">
        <g id="切图" transform="translate(-704.000000, -314.000000)">
            <g id="preview_word_select" transform="translate(704.000000, 314.000000)">
                <circle id="椭圆形备份" fill-opacity="0.8" fill="#000000" cx="13" cy="13" r="13"></circle>
                <path d="M18.4,12.0007951 C18.7313709,12.0007951 19,12.0694242 19,12.400795 C19,12.7321658 18.7313709,12.800795 18.4,12.800795 L16.4,12.800795 L16.4,17.4007951 C16.4,17.7321659 16.3313708,18.0007951 16,18.0007951 C15.6686292,18.0007951 15.6,17.7321659 15.6,17.4007951 L15.6,12.800795 L13.6,12.800795 C13.2686291,12.800795 13,12.7321658 13,12.400795 C13,12.0694242 13.2686291,12.0007951 13.6,12.0007951 L18.4,12.0007951 Z M8,8 L16,8 C16.5522848,8 17,7.94771526 17,8.5 C17,9.01546576 16.6099903,9.0042843 16.108961,9.00050248 L12.5,8.99999997 L12.5,17 C12.5,17.5522847 12.5522847,18 12,18 C11.4477153,18 11.5,17.5522847 11.5,17 L11.5,8.99999997 L8,8.99999997 C7.44771524,8.99999997 7,9.05228474 7,8.5 C7,7.94771526 7.44771524,8 8,8 Z" id="路径-2" fill="#E0E7FA" fill-rule="nonzero"></path>
            </g>
        </g>
    </g>
</svg>