<?xml version="1.0" encoding="UTF-8"?>
<svg width="26px" height="26px" viewBox="0 0 26 26" version="1.1" xmlns="http://www.w3.org/2000/svg" xmlns:xlink="http://www.w3.org/1999/xlink">
    <!-- Generator: Sketch 61 (89581) - https://sketch.com -->
    <title>preview_display_select</title>
    <desc>Created with Sketch.</desc>
    <g id="图标" stroke="none" stroke-width="1" fill="none" fill-rule="evenodd">
        <g id="切图" transform="translate(-380.000000, -250.000000)">
            <g id="preview_display_select" transform="translate(380.000000, 250.000000)">
                <circle id="椭圆形" fill-opacity="0.8" fill="#000000" cx="13" cy="13" r="13"></circle>
                <path d="M10.3679245,15.1509434 L7.22641509,15.1509434 C7.10188679,15.1509434 7,15.2528302 7,15.3773585 L7,16.0566038 C7,16.1811321 7.10188679,16.2830189 7.22641509,16.2830189 L9.68867925,16.2830189 L9.68867925,18.7735849 C9.68867925,18.8981132 9.79056604,19 9.91509434,19 L10.5943396,19 C10.7188679,19 10.8207547,18.8981132 10.8207547,18.7735849 L10.8207547,15.6037736 C10.8207547,15.3533019 10.6183962,15.1509434 10.3679245,15.1509434 Z M10.5943396,7 L9.91509434,7 C9.79056604,7 9.68867925,7.10188679 9.68867925,7.22641509 L9.68867925,9.71698113 L7.22641509,9.71698113 C7.10188679,9.71698113 7,9.81886792 7,9.94339623 L7,10.6226415 C7,10.7471698 7.10188679,10.8490566 7.22641509,10.8490566 L10.3679245,10.8490566 C10.6183962,10.8490566 10.8207547,10.6466981 10.8207547,10.3962264 L10.8207547,7.22641509 C10.8207547,7.10188679 10.7188679,7 10.5943396,7 Z M18.7735849,15.1509434 L15.6320755,15.1509434 C15.3816038,15.1509434 15.1792453,15.3533019 15.1792453,15.6037736 L15.1792453,18.7735849 C15.1792453,18.8981132 15.2811321,19 15.4056604,19 L16.0849057,19 C16.209434,19 16.3113208,18.8981132 16.3113208,18.7735849 L16.3113208,16.2830189 L18.7735849,16.2830189 C18.8981132,16.2830189 19,16.1811321 19,16.0566038 L19,15.3773585 C19,15.2528302 18.8981132,15.1509434 18.7735849,15.1509434 Z M18.7735849,9.71698113 L16.3113208,9.71698113 L16.3113208,7.22641509 C16.3113208,7.10188679 16.209434,7 16.0849057,7 L15.4056604,7 C15.2811321,7 15.1792453,7.10188679 15.1792453,7.22641509 L15.1792453,10.3962264 C15.1792453,10.6466981 15.3816038,10.8490566 15.6320755,10.8490566 L18.7735849,10.8490566 C18.8981132,10.8490566 19,10.7471698 19,10.6226415 L19,9.94339623 C19,9.81886792 18.8981132,9.71698113 18.7735849,9.71698113 Z" id="形状" fill="#E0E7FA" fill-rule="nonzero"></path>
            </g>
        </g>
    </g>
</svg>