<?xml version="1.0" encoding="UTF-8"?>
<svg width="44px" height="44px" viewBox="0 0 44 44" version="1.1" xmlns="http://www.w3.org/2000/svg" xmlns:xlink="http://www.w3.org/1999/xlink">
    <!-- Generator: Sketch 61 (89581) - https://sketch.com -->
    <title>preview_audio_stop</title>
    <desc>Created with Sketch.</desc>
    <g id="图标" stroke="none" stroke-width="1" fill="none" fill-rule="evenodd">
        <g id="切图" transform="translate(-534.000000, -359.000000)">
            <g id="preview_audio_stop" transform="translate(534.000000, 359.000000)">
                <circle id="椭圆形" fill="#4F84FA" cx="22" cy="22" r="22"></circle>
                <path d="M17.5,13 C18.3284271,13 19,13.6715729 19,14.5 L19,29.5 C19,30.3284271 18.3284271,31 17.5,31 C16.6715729,31 16,30.3284271 16,29.5 L16,14.5 C16,13.6715729 16.6715729,13 17.5,13 Z M26.5,13 C27.3284271,13 28,13.6715729 28,14.5 L28,29.5 C28,30.3284271 27.3284271,31 26.5,31 C25.6715729,31 25,30.3284271 25,29.5 L25,14.5 C25,13.6715729 25.6715729,13 26.5,13 Z" id="形状结合" fill="#E0E7FA"></path>
            </g>
        </g>
    </g>
</svg>