<?xml version="1.0" encoding="UTF-8"?>
<svg width="26px" height="26px" viewBox="0 0 26 26" version="1.1" xmlns="http://www.w3.org/2000/svg" xmlns:xlink="http://www.w3.org/1999/xlink">
    <!-- Generator: Sketch 61 (89581) - https://sketch.com -->
    <title>preview_actual_select</title>
    <desc>Created with Sketch.</desc>
    <g id="图标" stroke="none" stroke-width="1" fill="none" fill-rule="evenodd">
        <g id="切图" transform="translate(-416.000000, -314.000000)">
            <g id="preview_actual_select" transform="translate(416.000000, 314.000000)">
                <circle id="椭圆形备份" fill-opacity="0.8" fill="#000000" cx="13" cy="13" r="13"></circle>
                <path d="M17.3158382,7 C18.2459751,7 19,7.75402494 19,8.68416185 L19,17.3158382 C19,18.2459751 18.2459751,19 17.3158382,19 L8.68416185,19 C7.75402494,19 7,18.2459751 7,17.3158382 L7,8.68416185 C7,7.75402494 7.75402494,7 8.68416185,7 L17.3158382,7 Z M17.3158382,7.9017341 L8.68416185,7.9017341 C8.25202312,7.9017341 7.9017341,8.25202312 7.9017341,8.68416185 L7.9017341,17.3158382 C7.9017341,17.7479769 8.25202312,18.0982659 8.68416185,18.0982659 L17.3158382,18.0982659 C17.7479769,18.0982659 18.0982659,17.7479769 18.0982659,17.3158382 L18.0982659,8.68416185 C18.0982659,8.25202312 17.7479769,7.9017341 17.3158382,7.9017341 Z M13.0864173,14.4102244 C13.2466279,14.4102244 13.3837573,14.4645331 13.4978055,14.5731505 C13.6118537,14.6817678 13.6688778,14.8175395 13.6688778,14.9804655 C13.6688778,15.1433915 13.6132114,15.2832364 13.5018786,15.4 C13.3905459,15.5167636 13.2534165,15.5751455 13.0904904,15.5751455 C12.9275644,15.5751455 12.7890773,15.5181214 12.6750291,15.4040732 C12.5609809,15.2900249 12.5039568,15.1528955 12.5039568,14.992685 C12.5039568,14.8324744 12.5609809,14.695345 12.6750291,14.5812968 C12.7890773,14.4672485 12.9262067,14.4102244 13.0864173,14.4102244 Z M10.9677972,10.5 L10.9677972,15.4448047 L10.1287282,15.4448047 L10.1287282,11.2087282 L9.42,11.2087282 L9.42,10.5 L10.9677972,10.5 Z M16.42,10.5 L16.42,15.4448047 L15.580931,15.4448047 L15.580931,11.2087282 L14.8722028,11.2087282 L14.8722028,10.5 L16.42,10.5 Z M13.0864173,12.0477972 C13.2466279,12.0477972 13.3837573,12.1021058 13.4978055,12.2107232 C13.6118537,12.3193405 13.6688778,12.4551122 13.6688778,12.6180382 C13.6688778,12.7809643 13.6132114,12.9208091 13.5018786,13.0375727 C13.3905459,13.1543364 13.2534165,13.2127182 13.0904904,13.2127182 C12.9275644,13.2127182 12.7890773,13.1556941 12.6750291,13.0416459 C12.5609809,12.9275977 12.5039568,12.7904683 12.5039568,12.6302577 C12.5039568,12.4700471 12.5609809,12.3329177 12.6750291,12.2188695 C12.7890773,12.1048213 12.9262067,12.0477972 13.0864173,12.0477972 Z" id="形状结合" fill="#E0E7FA" fill-rule="nonzero"></path>
            </g>
        </g>
    </g>
</svg>