<?xml version="1.0" standalone="no"?><!DOCTYPE svg PUBLIC "-//W3C//DTD SVG 1.1//EN"
        "http://www.w3.org/Graphics/SVG/1.1/DTD/svg11.dtd">
<svg t="1649838463245" class="icon" viewBox="0 0 1024 1024" version="1.1" xmlns="http://www.w3.org/2000/svg" p-id="7764"
     xmlns:xlink="http://www.w3.org/1999/xlink" width="200" height="200">
    <defs>
        <style type="text/css"></style>
    </defs>
    <path d="M292.736 551.808a179.392 179.392 0 0 1 179.136 168.448l0.32 10.944v113.344a179.456 179.456 0 0 1-168.512 179.136L292.736 1024h-113.28a179.456 179.456 0 0 1-179.136-168.512L0 844.608v-113.408c0-95.36 74.56-173.44 168.512-179.072l10.944-0.32h113.28z m655.424 299.84a44.8 44.8 0 1 1 0 89.6H624.512a44.8 44.8 0 0 1 0-89.6zM292.736 635.008h-113.28c-50.176 0-91.456 38.464-95.872 87.424l-0.384 8.768v113.344c0 50.112 38.464 91.456 87.488 95.872l8.768 0.384h113.28c50.112 0 91.456-38.528 95.872-87.488l0.384-8.768v-113.28c0-53.12-43.2-96.256-96.256-96.256z m655.424-16.128a44.8 44.8 0 1 1 0 89.6H624.512a44.8 44.8 0 0 1 0-89.6zM843.008 0a179.392 179.392 0 0 1 179.456 179.392v113.344a179.456 179.456 0 0 1-179.456 179.456h-113.28a179.52 179.52 0 0 1-179.456-179.456V179.392A179.456 179.456 0 0 1 729.728 0zM292.736 0a179.392 179.392 0 0 1 179.456 179.392v113.344a179.456 179.456 0 0 1-179.456 179.456h-113.28A179.52 179.52 0 0 1 0 292.736V179.392A179.456 179.456 0 0 1 179.456 0z m550.272 83.2h-113.28c-53.12 0-96.256 43.136-96.256 96.192v113.344c0 53.056 43.136 96.256 96.256 96.256h113.28c53.056 0 96.256-43.2 96.256-96.256V179.392c0-53.056-43.2-96.192-96.256-96.192z m-550.272 0h-113.28c-53.12 0-96.256 43.136-96.256 96.192v113.344c0 53.056 43.136 96.256 96.256 96.256h113.28c53.056 0 96.256-43.2 96.256-96.256V179.392c0-53.056-43.2-96.192-96.256-96.192z"
          fill="#A2ABC3" p-id="7765"></path>
</svg>