<?xml version="1.0" encoding="UTF-8"?>
<svg width="17px" height="20px" viewBox="0 0 17 20" version="1.1" xmlns="http://www.w3.org/2000/svg" xmlns:xlink="http://www.w3.org/1999/xlink">
    <title>编组 19</title>
    <defs>
        <polygon id="path-1" points="0 0 17 0 17 19.9974612 0 19.9974612"></polygon>
    </defs>
    <g id="2.6.3" stroke="none" stroke-width="1" fill="none" fill-rule="evenodd">
        <g id="更多设置下拉框-关于软件弹窗" transform="translate(-464.000000, -363.000000)">
            <g id="编组备份-2" transform="translate(412.000000, 172.000000)">
                <g id="编组-15" transform="translate(44.000000, 185.000000)">
                    <g id="编组-19" transform="translate(8.000000, 6.000000)">
                        <path d="M10.6382401,17.9956721 C9.83137236,17.9956721 9.13397911,17.9956721 8.62850416,18.0951299 C8.02571852,17.9956721 7.32021605,17.9956721 6.51605135,17.9956721 C4.30358478,17.9956721 2.29384881,18.8975121 2.29384881,19.4915706 C2.29384881,20.0910052 4.00219196,19.9942355 6.21465853,19.9942355 C7.12154007,19.9942355 7.92300169,19.8961218 8.63120724,19.6945182 C9.33806125,19.793976 10.1354683,19.8961218 10.942336,19.8961218 C13.1534511,19.8961218 14.8631457,19.9942355 14.8631457,19.3934569 C14.8577396,18.7926782 12.8480036,17.9956721 10.6382401,17.9956721" id="Fill-1" fill="#EFAB1B"></path>
                        <g id="编组">
                            <mask id="mask-2" fill="white">
                                <use xlink:href="#path-1"></use>
                            </mask>
                            <g id="Clip-4"></g>
                            <path d="M16.2680688,11.8970298 C15.8666622,10.8003064 15.3611872,9.59874911 14.86247,8.50068167 L14.86247,7.69829947 C14.86247,3.39607931 12.6513549,-0.000268804758 8.52781463,-0.000268804758 C4.40562585,-0.000268804758 2.19180774,3.39607931 2.19180774,7.69695544 L2.19180774,8.49933765 C1.68633279,9.59606106 1.18761553,10.7976183 0.786208947,11.8943417 C-0.122024122,14.2974563 -0.122024122,16.3954774 0.182071772,16.595737 C0.38345083,16.6951947 1.18491245,15.8928125 1.99178022,14.5971736 C2.49860671,17.5943466 4.60565337,19.9974612 8.53051771,19.9974612 C12.4513274,19.9974612 14.5637802,17.6978365 15.0692552,14.4977158 C15.7774607,15.7987309 16.5748677,16.598425 16.7775983,16.4962792 C17.1695442,16.3954774 17.0695304,14.1953105 16.2680688,11.8970298" id="Fill-3" fill="#040000" mask="url(#mask-2)"></path>
                        </g>
                        <path d="M12.6483816,9.49445286 C11.4455134,9.69471241 10.03586,9.79417017 8.62755808,9.79417017 C7.22060775,9.79417017 5.81095434,9.69471241 4.60808614,9.49445286 C3.80121837,10.4930625 3.70120461,11.9929931 3.70120461,13.5937254 C3.70120461,16.5908985 5.40954776,19.0934708 8.62485501,19.0934708 C11.8415138,19.0934708 13.549857,16.5935865 13.549857,13.5937254 C13.549857,11.9929931 13.4511947,10.4984386 12.6483816,9.49445286" id="Fill-5" fill="#FFFFFF"></path>
                        <path d="M10.336577,2.49934664 C9.73379137,2.49934664 9.23372257,3.20227108 9.23372257,3.99524512 C9.23372257,4.89708508 9.73919752,5.59597745 10.336577,5.59597745 C10.9393626,5.59597745 11.440783,4.89170899 11.440783,4.09873495 C11.440783,3.19555096 10.9366596,2.49934664 10.336577,2.49934664" id="Fill-7" fill="#FFFFFF"></path>
                        <path d="M6.91691732,2.49934664 C6.31413168,2.49934664 5.81406288,3.20227108 5.81406288,4.09873495 C5.81406288,5.00057491 6.31953783,5.69946729 6.91691732,5.69946729 C7.51970296,5.69946729 8.01977176,4.99519882 8.01977176,4.09873495 C8.02517791,3.19555096 7.51970296,2.49934664 6.91691732,2.49934664" id="Fill-9" fill="#FFFFFF"></path>
                        <path d="M8.6280987,6.1974281 C6.51564589,6.1974281 4.70728898,6.59660317 4.70728898,6.9998103 C4.70728898,7.29952761 7.01976931,8.30082533 8.6280987,8.30082533 C10.2364281,8.30082533 12.5489084,7.30221566 12.5489084,6.9998103 C12.4488947,6.59794719 10.7351454,6.1974281 8.6280987,6.1974281" id="Fill-11" fill="#EFAB1B"></path>
                        <path d="M14.8057054,8.372193 C13.1811576,8.87754594 10.9443633,9.18263934 8.50078389,9.18263934 C5.95854221,9.18263934 3.72309951,8.87754594 2.19586236,8.372193 C1.89041493,9.08318158 1.58361596,9.88825183 1.27952006,10.5965524 C2.29452458,10.9016458 3.31493525,11.2027071 4.53267036,11.4069987 L4.53267036,14.3423467 C4.53267036,14.3423467 5.34764735,14.5426062 6.1572182,14.5426062 C6.7694646,14.5426062 7.27358801,14.4418044 7.27358801,14.4418044 L7.27358801,11.7107481 L8.4940262,11.7107481 C11.2389985,11.7107481 13.7771855,11.3048529 15.8098976,10.7027302 C15.5152625,9.88556378 15.2111666,9.17726325 14.8057054,8.372193" id="Fill-13" fill="#DB2920"></path>
                        <path d="M7.31805359,3.58881233 C7.59782181,3.58881233 7.82352854,3.86030513 7.82352854,4.19362303 C7.82352854,4.52694093 7.59782181,4.79708971 7.31805359,4.79708971 C7.03828537,4.79708971 6.81257864,4.52694093 6.81257864,4.19362303 C6.81257864,3.86030513 7.03828537,3.58881233 7.31805359,3.58881233" id="Fill-15" fill="#040000"></path>
                        <path d="M9.57444512,4.49831322 C9.55957821,4.49831322 9.54200823,4.49293713 9.52984439,4.49024908 C9.45550984,4.46605665 9.41496372,4.3840712 9.43793985,4.31014989 C9.5447113,3.98489614 9.88394716,3.76044416 10.2596745,3.76044416 C10.4867328,3.76044416 10.6962211,3.83974157 10.8597571,3.97817602 C10.9205763,4.02924892 10.9246309,4.11929852 10.8719209,4.17843556 C10.8178594,4.23757261 10.7300095,4.2429487 10.6705419,4.19053178 C10.5637704,4.09645011 10.4164529,4.04537721 10.2623776,4.04537721 C10.0082886,4.04537721 9.78123033,4.19053178 9.715005,4.39616742 C9.68932579,4.45799251 9.63391276,4.49831322 9.57444512,4.49831322" id="Fill-17" fill="#040000"></path>
                    </g>
                </g>
            </g>
        </g>
    </g>
</svg>