<?xml version="1.0" encoding="UTF-8"?>
<svg width="14px" height="14px" viewBox="0 0 14 14" version="1.1" xmlns="http://www.w3.org/2000/svg" xmlns:xlink="http://www.w3.org/1999/xlink">
    <!-- Generator: Sketch 61 (89581) - https://sketch.com -->
    <title>question_select</title>
    <desc>Created with Sketch.</desc>
    <g id="图标" stroke="none" stroke-width="1" fill="none" fill-rule="evenodd">
        <g id="切图" transform="translate(-348.000000, -110.000000)" fill="#E0E7FA" fill-rule="nonzero">
            <path d="M355,110 C358.859688,110 362,113.140156 362,117 C362,120.859844 358.859688,124 355,124 C351.140312,124 348,120.859844 348,117 C348,113.140156 351.140312,110 355,110 Z M355,110.976719 C351.67875,110.976719 348.976719,113.678594 348.976719,117 C348.976719,120.321406 351.67875,123.023281 355,123.023281 C358.32125,123.023281 361.023281,120.32125 361.023281,117 C361.023281,113.67875 358.32125,110.976719 355,110.976719 Z M354.91875,120.071875 C355.251933,120.071875 355.522031,120.341973 355.522031,120.675156 C355.522031,121.008339 355.251933,121.278437 354.91875,121.278437 C354.585567,121.278437 354.315469,121.008339 354.315469,120.675156 C354.315469,120.341973 354.585567,120.071875 354.91875,120.071875 Z M354.907344,113.148125 C356.495938,113.148125 357.219688,114.335 357.219688,115.437969 C357.219688,116.512656 356.510313,117.034375 355.992188,117.415312 C355.563125,117.731094 355.388906,117.882969 355.395313,118.117031 L355.395469,118.902969 C355.395469,119.172812 355.176875,119.391563 354.907188,119.391563 C354.637344,119.391563 354.41875,119.172813 354.41875,118.903125 L354.41875,118.130469 C354.398125,117.375313 354.96125,116.961406 355.413594,116.628438 C355.927813,116.250469 356.242969,115.990625 356.242969,115.437969 C356.242969,114.802969 355.892188,114.124844 354.907344,114.124844 C353.460156,114.124844 353.418438,115.392812 353.418438,115.5375 C353.418438,115.807187 353.199844,116.025937 352.93,116.025937 C352.660156,116.025937 352.441563,115.807187 352.441563,115.5375 C352.441563,114.711094 352.957031,113.148125 354.907344,113.148125 Z" id="question_select"></path>
        </g>
    </g>
</svg>