<?xml version="1.0" encoding="UTF-8"?>
<svg width="14px" height="14px" viewBox="0 0 14 14" version="1.1" xmlns="http://www.w3.org/2000/svg" xmlns:xlink="http://www.w3.org/1999/xlink">
    <!-- Generator: Sketch 61 (89581) - https://sketch.com -->
    <title>question_normal</title>
    <desc>Created with Sketch.</desc>
    <g id="图标" stroke="none" stroke-width="1" fill="none" fill-rule="evenodd">
        <g id="切图" transform="translate(-348.000000, -140.000000)" fill="#A2ABC3" fill-rule="nonzero">
            <path d="M355,140 C358.859688,140 362,143.140156 362,147 C362,150.859844 358.859688,154 355,154 C351.140312,154 348,150.859844 348,147 C348,143.140156 351.140312,140 355,140 Z M355,140.976719 C351.67875,140.976719 348.976719,143.678594 348.976719,147 C348.976719,150.321406 351.67875,153.023281 355,153.023281 C358.32125,153.023281 361.023281,150.32125 361.023281,147 C361.023281,143.67875 358.32125,140.976719 355,140.976719 Z M354.91875,150.071875 C355.251933,150.071875 355.522031,150.341973 355.522031,150.675156 C355.522031,151.008339 355.251933,151.278437 354.91875,151.278437 C354.585567,151.278437 354.315469,151.008339 354.315469,150.675156 C354.315469,150.341973 354.585567,150.071875 354.91875,150.071875 Z M354.907344,143.148125 C356.495938,143.148125 357.219688,144.335 357.219688,145.437969 C357.219688,146.512656 356.510313,147.034375 355.992188,147.415312 C355.563125,147.731094 355.388906,147.882969 355.395313,148.117031 L355.395469,148.902969 C355.395469,149.172812 355.176875,149.391562 354.907188,149.391562 C354.637344,149.391562 354.41875,149.172812 354.41875,148.903125 L354.41875,148.130469 C354.398125,147.375313 354.96125,146.961406 355.413594,146.628437 C355.927813,146.250469 356.242969,145.990625 356.242969,145.437969 C356.242969,144.802969 355.892188,144.124844 354.907344,144.124844 C353.460156,144.124844 353.418438,145.392812 353.418438,145.5375 C353.418438,145.807187 353.199844,146.025937 352.93,146.025937 C352.660156,146.025937 352.441563,145.807187 352.441563,145.5375 C352.441563,144.711094 352.957031,143.148125 354.907344,143.148125 Z" id="question_normal"></path>
        </g>
    </g>
</svg>