<?xml version="1.0" encoding="UTF-8"?>
<svg width="16px" height="16px" viewBox="0 0 16 16" version="1.1" xmlns="http://www.w3.org/2000/svg" xmlns:xlink="http://www.w3.org/1999/xlink">
    <title>Fill 6</title>
    <g id="2.6.3" stroke="none" stroke-width="1" fill="none" fill-rule="evenodd">
        <g id="主菜单优化交互规范" transform="translate(-286.000000, -142.000000)" fill="#A2ABC3">
            <path d="M286.5665,150.8267 C286.9415,150.7457 287.3235,150.9947 287.4015,151.3787 C288.0185,154.3947 290.7065,156.5847 293.7905,156.5847 C295.8335,156.5847 297.6735,155.6307 298.8805,154.1147 C298.5735,153.8597 298.1395,153.4527 297.7965,152.9367 C297.4935,152.4777 297.7385,151.8527 298.2715,151.7177 L298.2715,151.7177 L300.6795,151.1097 C300.7765,151.0917 300.8775,151.0907 300.9795,151.1167 C301.3595,151.2107 301.5895,151.5947 301.4965,151.9737 C300.6195,155.5217 297.4495,157.9997 293.7905,157.9997 C290.0365,157.9997 286.7665,155.3347 286.0145,151.6617 C285.9355,151.2797 286.1825,150.9057 286.5665,150.8267 Z M293.7261,141.9998 C297.4801,141.9998 300.7511,144.6658 301.5031,148.3388 C301.5811,148.7208 301.3351,149.0948 300.9511,149.1738 C300.9031,149.1838 300.8561,149.1878 300.8091,149.1878 C300.4791,149.1878 300.1841,148.9568 300.1161,148.6228 C299.4981,145.6048 296.8111,143.4148 293.7261,143.4148 C291.6831,143.4148 289.8421,144.3688 288.6361,145.8858 C288.9431,146.1408 289.3771,146.5468 289.7201,147.0638 C290.0231,147.5218 289.7781,148.1478 289.2451,148.2828 L289.2451,148.2828 L286.8371,148.8888 C286.7401,148.9078 286.6401,148.9088 286.5381,148.8838 C286.1591,148.7908 285.9281,148.4068 286.0211,148.0278 C286.8971,144.4788 290.0651,141.9998 293.7261,141.9998 Z" id="Fill-6"></path>
        </g>
    </g>
</svg>