<?xml version="1.0" encoding="UTF-8"?>
<svg width="12px" height="12px" viewBox="0 0 12 12" version="1.1" xmlns="http://www.w3.org/2000/svg" xmlns:xlink="http://www.w3.org/1999/xlink">
    <!-- Generator: Sketch 61 (89581) - https://sketch.com -->
    <title>remind_success_icon</title>
    <desc>Created with Sketch.</desc>
    <g id="图标" stroke="none" stroke-width="1" fill="none" fill-rule="evenodd">
        <g id="切图" transform="translate(-413.000000, -445.000000)" fill="#E0E7FA" fill-rule="nonzero">
            <path d="M419.36,453.42136 L418.724,454.0576 C418.667768,454.113937 418.591438,454.145596 418.51184,454.145596 C418.432242,454.145596 418.355912,454.113937 418.29968,454.0576 L415.754,451.51216 C415.636938,451.394941 415.636938,451.205059 415.754,451.08784 L416.39048,450.45136 C416.507699,450.334298 416.697581,450.334298 416.8148,450.45136 L418.51184,452.1484 L423.55712,447.10336 C422.456,445.81768 420.824,445 419,445 C415.68632,445 413,447.68632 413,451 C413,454.31368 415.68632,457 419,457 C422.31368,457 425,454.31368 425,451 C424.999214,450.094307 424.792223,449.200681 424.39472,448.38688 L419.36,453.42136 Z" id="remind_success_icon"></path>
        </g>
    </g>
</svg>