<?xml version="1.0" encoding="UTF-8"?>
<svg width="12px" height="12px" viewBox="0 0 12 12" version="1.1" xmlns="http://www.w3.org/2000/svg" xmlns:xlink="http://www.w3.org/1999/xlink">
    <!-- Generator: Sketch 61 (89581) - https://sketch.com -->
    <title>remind_error_icon</title>
    <desc>Created with Sketch.</desc>
    <g id="图标" stroke="none" stroke-width="1" fill="none" fill-rule="evenodd">
        <g id="切图" transform="translate(-440.000000, -445.000000)" fill="#E0E7FA" fill-rule="nonzero">
            <path d="M446,445 C442.686607,445 440,447.686607 440,451 C440,454.313393 442.686607,457 446,457 C449.313393,457 452,454.313393 452,451 C452,447.686607 449.313393,445 446,445 Z M445.998661,454.614732 C445.599554,454.614732 445.275446,454.290625 445.275446,453.891518 C445.275446,453.492411 445.599554,453.168304 445.998661,453.168304 C446.397768,453.168304 446.721875,453.492411 446.721875,453.891518 C446.720536,454.291964 446.397768,454.614732 445.998661,454.614732 Z M446.687054,451.720536 C446.666964,452.094196 446.364286,452.391518 446.004018,452.430357 C446.030804,452.433036 446.053571,452.445089 446.080357,452.445089 L445.930357,452.445089 C445.955804,452.445089 445.979911,452.433036 446.005357,452.430357 C445.64375,452.391518 445.347768,452.100893 445.330357,451.720536 L445.164286,448.108482 C445.145536,447.708036 445.458929,447.382589 445.859375,447.382589 L446.192857,447.382589 C446.594643,447.382589 446.904018,447.7 446.88125,448.108482 L446.687054,451.720536 Z" id="remind_error_icon"></path>
        </g>
    </g>
</svg>