<?xml version="1.0" encoding="utf-8"?>
<!-- Generator: Adobe Illustrator 25.0.0, SVG Export Plug-In . SVG Version: 6.00 Build 0)  -->
<svg version="1.1" id="图层_1" xmlns="http://www.w3.org/2000/svg" xmlns:xlink="http://www.w3.org/1999/xlink" x="0px" y="0px"
	 viewBox="0 0 7 7" style="enable-background:new 0 0 7 7;" xml:space="preserve">
<style type="text/css">
	.st0{fill-rule:evenodd;clip-rule:evenodd;fill:#52596E;}
</style>
<g id="_x32_.8标签">
	<g id="双击标签查看对应素材" transform="translate(-989.000000, -256.000000)">
		<g id="_x2A_right" transform="translate(921.000000, 20.000000)">
			<g id="编组-20" transform="translate(0.000000, 159.000000)">
				<g id="编组-20备份-5" transform="translate(8.000000, 70.000000)">
					<path id="矩形备份-10" class="st0" d="M66.8,7.2c0.2,0.2,0.2,0.6,0,0.8l-2.4,2.4l2.4,2.4c0.2,0.2,0.2,0.6,0,0.8
						c-0.2,0.2-0.6,0.2-0.8,0l-2.4-2.4l-2.4,2.4c-0.2,0.2-0.6,0.2-0.8,0s-0.2-0.6,0-0.8l2.4-2.4l-2.4-2.4c-0.2-0.2-0.2-0.6,0-0.8
						s0.6-0.2,0.8,0l2.4,2.4l2.4-2.4C66.2,7,66.5,7,66.8,7.2z"/>
				</g>
			</g>
		</g>
	</g>
</g>
</svg>
