<?xml version="1.0" standalone="no"?><!DOCTYPE svg PUBLIC "-//W3C//DTD SVG 1.1//EN" "http://www.w3.org/Graphics/SVG/1.1/DTD/svg11.dtd"><svg t="1648010569152" class="icon" viewBox="0 0 1024 1024" version="1.1" xmlns="http://www.w3.org/2000/svg" p-id="3440" xmlns:xlink="http://www.w3.org/1999/xlink" width="200" height="200"><defs><style type="text/css"></style></defs><path d="M377.494588 511.277176c58.187294 0 105.472 47.344941 105.472 105.532236v241.965176c0 58.127059-47.284706 105.411765-105.472 105.411765H135.589647A105.592471 105.592471 0 0 1 30.117647 858.834824V616.809412c0-58.187294 47.284706-105.532235 105.472-105.532236z m199.318588 199.378824a36.141176 36.141176 0 0 1 36.141177 36.141176v93.364706l78.004706-78.004706a36.141176 36.141176 0 1 1 51.079529 51.139765l-78.004706 78.004706h93.364706a36.141176 36.141176 0 0 1 0 72.282353h-136.734117a80.112941 80.112941 0 0 1-79.992471-80.112941V746.917647a36.141176 36.141176 0 0 1 36.141176-36.201412z m-199.318588-127.096471H135.589647a33.249882 33.249882 0 0 0-33.249882 33.249883v241.965176c0 18.311529 14.938353 33.129412 33.249882 33.129412h241.904941a33.249882 33.249882 0 0 0 33.249883-33.129412V616.809412a33.249882 33.249882 0 0 0-33.249883-33.189647z m536.033883-72.282353a80.112941 80.112941 0 0 1 79.99247 80.112942v136.734117a36.141176 36.141176 0 1 1-72.282353 0v-93.485176L843.294118 712.704a36.141176 36.141176 0 1 1-51.2-51.139765l78.004706-78.004706h-93.364706a36.080941 36.080941 0 1 1 0-72.282353zM377.494588 0c58.187294 0 105.472 47.344941 105.472 105.472v241.965176c0 58.187294-47.284706 105.472-105.472 105.472H135.589647A105.532235 105.532235 0 0 1 30.117647 347.437176V105.472C30.117647 47.344941 77.402353 0 135.589647 0z m510.674824 0c58.187294 0 105.411765 47.344941 105.411764 105.472v241.965176c0 58.187294-47.224471 105.472-105.411764 105.472h-241.965177a105.532235 105.532235 0 0 1-105.472-105.472V105.472C540.732235 47.344941 588.016941 0 646.144 0zM377.494588 72.282353H135.589647a33.249882 33.249882 0 0 0-33.249882 33.189647v241.965176c0 18.311529 14.938353 33.189647 33.249882 33.189648h241.904941a33.249882 33.249882 0 0 0 33.249883-33.189648V105.472a33.249882 33.249882 0 0 0-33.249883-33.189647z m510.674824 0h-241.965177a33.249882 33.249882 0 0 0-33.249882 33.189647v241.965176c0 18.311529 14.938353 33.189647 33.249882 33.189648h241.965177a33.249882 33.249882 0 0 0 33.249882-33.189648V105.472a33.249882 33.249882 0 0 0-33.249882-33.189647z" fill="#DEE4F3" p-id="3441"></path></svg>