<?xml version="1.0" standalone="no"?><!DOCTYPE svg PUBLIC "-//W3C//DTD SVG 1.1//EN" "http://www.w3.org/Graphics/SVG/1.1/DTD/svg11.dtd"><svg t="1648109684338" class="icon" viewBox="0 0 1024 1024" version="1.1" xmlns="http://www.w3.org/2000/svg" p-id="2400" xmlns:xlink="http://www.w3.org/1999/xlink" width="200" height="200"><defs><style type="text/css"></style></defs><path d="M379.482353 512c60.235294 0 108.423529 48.188235 108.423529 108.423529v240.941177c0 60.235294-48.188235 108.423529-108.423529 108.423529h-240.941177c-60.235294 0-108.423529-48.188235-108.423529-108.423529v-240.941177c0-60.235294 48.188235-108.423529 108.423529-108.423529h240.941177z m198.776471 198.776471c18.070588 0 36.141176 18.070588 36.141176 36.141176v90.352941l78.305882-78.305882c12.047059-12.047059 36.141176-12.047059 48.188236 0 12.047059 12.047059 12.047059 36.141176 0 48.188235l-78.305883 78.305883h96.376471c18.070588 0 36.141176 18.070588 36.141176 36.141176s-18.070588 36.141176-36.141176 36.141176H620.423529c-42.164706 0-78.305882-36.141176-78.305882-78.305882v-138.541176c0-12.047059 12.047059-30.117647 36.141177-30.117647zM379.482353 584.282353h-240.941177c-18.070588 0-36.141176 12.047059-36.141176 36.141176v240.941177c0 18.070588 12.047059 36.141176 36.141176 36.141176h240.941177c18.070588 0 36.141176-12.047059 36.141176-36.141176v-240.941177c-6.023529-24.094118-18.070588-36.141176-36.141176-36.141176z m536.094118-72.282353c42.164706 0 78.305882 36.141176 78.305882 78.305882v138.541177c0 18.070588-18.070588 36.141176-36.141177 36.141176s-36.141176-18.070588-36.141176-36.141176v-96.376471l-78.305882 78.305883c-6.023529 6.023529-18.070588 12.047059-24.094118 12.047058-12.047059 0-18.070588-6.023529-24.094118-12.047058-12.047059-12.047059-12.047059-36.141176 0-48.188236L873.411765 584.282353h-96.376471c-18.070588 0-36.141176-18.070588-36.141176-36.141177s18.070588-36.141176 36.141176-36.141176h138.541177zM379.482353 0c60.235294 0 108.423529 48.188235 108.423529 108.423529v240.941177c0 60.235294-48.188235 108.423529-108.423529 108.423529h-240.941177C78.305882 457.788235 30.117647 409.6 30.117647 349.364706v-240.941177C30.117647 48.188235 78.305882 0 138.541176 0h240.941177z m505.976471 0c60.235294 0 108.423529 48.188235 108.423529 108.423529v240.941177c0 60.235294-48.188235 108.423529-108.423529 108.423529h-240.941177c-60.235294 0-108.423529-48.188235-108.423529-108.423529v-240.941177c0-60.235294 48.188235-108.423529 108.423529-108.423529h240.941177zM379.482353 72.282353h-240.941177c-18.070588 0-36.141176 12.047059-36.141176 36.141176v240.941177c0 18.070588 12.047059 36.141176 36.141176 36.141176h240.941177c18.070588 0 36.141176-12.047059 36.141176-36.141176v-240.941177c-6.023529-24.094118-18.070588-36.141176-36.141176-36.141176z m505.976471 0h-240.941177c-18.070588 0-36.141176 12.047059-36.141176 36.141176v240.941177c0 18.070588 12.047059 36.141176 36.141176 36.141176h240.941177c18.070588 0 36.141176-12.047059 36.141176-36.141176v-240.941177c0-24.094118-18.070588-36.141176-36.141176-36.141176z" fill="#4F84FA" p-id="2401"></path></svg>