<?xml version="1.0" encoding="UTF-8"?>
<svg width="16px" height="16px" viewBox="0 0 16 16" version="1.1" xmlns="http://www.w3.org/2000/svg" xmlns:xlink="http://www.w3.org/1999/xlink">
    <!-- Generator: Sketch 61 (89581) - https://sketch.com -->
    <title>screen_color</title>
    <desc>Created with Sketch.</desc>
    <g id="图标" stroke="none" stroke-width="1" fill="none" fill-rule="evenodd">
        <g id="切图" transform="translate(-109.000000, -196.000000)">
            <g id="screen_color" transform="translate(117.000000, 204.000000) scale(-1, -1) translate(-117.000000, -204.000000) translate(109.000000, 196.000000)">
                <path d="M8.00028571,0 C10.8587266,0 13.4995643,1.5248 14.9283847,4 C16.3572051,6.4752 16.3572051,9.5248 14.9283847,12 C13.4995643,14.4752 10.8587266,16 8.00028571,16 C5.14184488,16 2.50100715,14.4752 1.07218674,12 C-0.356633675,9.5248 -0.356633675,6.4752 1.07218674,4 C2.50100715,1.5248 5.14184488,0 8.00028571,0 L8.00028571,8 C8.00028571,8 8.00028571,8 8.00028571,8 C8.00028571,8 8.00028571,8 8.00028571,8 C8.00028571,8 8.00028571,8 8.00028571,8 C8.00028571,8 8.00028571,8 8.00028571,8 C8.00028571,8 8.00028571,8 8.00028571,8 C8.00028571,8 8.00028571,8 8.00028571,8 L8.00028571,0 Z" id="Base-plate" fill-opacity="0.002" fill="#455A64"></path>
                <path d="M8,0 C9.404,0 10.784,0.3696 12,1.072 L8,8 C8,8 8,8 8,8 L8,0 Z" id="Segment-1" fill="#7C3294"></path>
                <path d="M12,1.072 C13.216,1.7744 14.2256,2.784 14.928,4 L8,8 C8,8 8,8 8,8 L12,1.072 Z" id="Segment-2" fill="#462992"></path>
                <path d="M14.928,4 C15.6304,5.216 16,6.596 16,8 L8,8 C8,8 8,8 8,8 L14.928,4 Z" id="Segment-3" fill="#3C5AAB"></path>
                <path d="M16,8 C16,9.404 15.6304,10.784 14.928,12 L8,8 C8,8 8,8 8,8 L16,8 Z" id="Segment-4" fill="#0090CE"></path>
                <path d="M14.928,12 C14.2256,13.216 13.216,14.2256 12,14.928 L8,8 C8,8 8,8 8,8 L14.928,12 Z" id="Segment-5" fill="#61AE3E"></path>
                <path d="M12,14.928 C10.784,15.6304 9.404,16 8,16 L8,8 C8,8 8,8 8,8 L12,14.928 Z" id="Segment-6" fill="#CCDE20"></path>
                <path d="M8,16 C6.596,16 5.216,15.6304 4,14.928 L8,8 C8,8 8,8 8,8 L8,16 Z" id="Segment-7" fill="#FFF400"></path>
                <path d="M4,14.928 C2.784,14.2256 1.7744,13.216 1.072,12 L8,8 C8,8 8,8 8,8 L4,14.928 Z" id="Segment-8" fill="#FCBE00"></path>
                <path d="M1.072,12 C0.3696,10.784 0,9.404 0,8 L8,8 C8,8 8,8 8,8 L1.072,12 Z" id="Segment-9" fill="#FF9D00"></path>
                <path d="M0,8 C0,6.596 0.3696,5.216 1.072,4 L8,8 C8,8 8,8 8,8 L0,8 Z" id="Segment-10" fill="#FF5600"></path>
                <path d="M1.072,4 C1.7744,2.784 2.784,1.7744 4,1.072 L8,8 C8,8 8,8 8,8 L1.072,4 Z" id="Segment-11" fill="#FF2400"></path>
                <path d="M4,1.072 C5.216,0.3696 6.596,0 8,0 L8,8 C8,8 8,8 8,8 L4,1.072 Z" id="Segment-12" fill="#A8194A"></path>
            </g>
        </g>
    </g>
</svg>