<?xml version="1.0" encoding="UTF-8"?>
<svg width="12px" height="12px" viewBox="0 0 12 12" version="1.1" xmlns="http://www.w3.org/2000/svg" xmlns:xlink="http://www.w3.org/1999/xlink">
    <!-- Generator: Sketch 61 (89581) - https://sketch.com -->
    <title>screen_option_cancel</title>
    <desc>Created with Sketch.</desc>
    <g id="图标" stroke="none" stroke-width="1" fill="none" fill-rule="evenodd">
        <g id="切图" transform="translate(-379.000000, -445.000000)" fill-rule="nonzero">
            <g id="screen_option_cancel" transform="translate(379.000000, 445.000000)">
                <path d="M6,0 C2.67675,0 0,2.67675 0,6 C0,9.32325 2.67675,12 6,12 C9.32325,12 12,9.32325 12,6 C12,2.67675 9.32325,0 6,0 Z" id="路径" fill="#F7B500"></path>
                <path d="M8.446125,7.89225 C8.584875,8.031 8.584875,8.261625 8.446125,8.353875 C8.307375,8.492625 8.07675,8.492625 7.984875,8.353875 L6.09225,6.461625 L4.2,8.353875 C4.06125,8.492625 3.830625,8.492625 3.73875,8.353875 C3.6,8.215125 3.6,7.9845 3.73875,7.892625 L5.63025,6 L3.73875,4.10775 C3.64657411,3.96781528 3.64657411,3.78643472 3.73875,3.6465 C3.8775,3.50775 4.108125,3.50775 4.200375,3.6465 L6.092625,5.538375 L7.984875,3.646125 C8.123625,3.507375 8.35425,3.507375 8.4465,3.646125 C8.58525,3.784875 8.58525,4.0155 8.4465,4.107375 L6.553875,6 L8.446125,7.89225 Z" id="路径" fill="#262735"></path>
            </g>
        </g>
    </g>
</svg>