<?xml version="1.0" standalone="no"?><!DOCTYPE svg PUBLIC "-//W3C//DTD SVG 1.1//EN" "http://www.w3.org/Graphics/SVG/1.1/DTD/svg11.dtd"><svg t="1597996873146" class="icon" viewBox="0 0 1024 1024" version="1.1" xmlns="http://www.w3.org/2000/svg" p-id="12803" xmlns:xlink="http://www.w3.org/1999/xlink" width="200" height="200"><defs><style type="text/css"></style></defs><path d="M953.685333 1024l-240.913066-258.8672c-72.226133 56.32-185.685333 111.616-283.511467 111.616C192.170667 876.7488 0 680.482133 0 438.408533 0 196.266667 192.170667 0 429.2608 0c237.021867 0 429.192533 196.266667 429.192533 438.408533a441.9584 441.9584 0 0 1-80.964266 255.522134L1024 944.810667 953.685333 1024zM429.329067 91.682133c-187.528533 0-339.5584 155.170133-339.5584 346.7264 0 191.488 152.029867 346.7264 339.5584 346.7264 187.460267 0 339.490133-155.2384 339.490133-346.794666 0-191.488-152.029867-346.658133-339.490133-346.658134z" fill="#666666" p-id="12804"></path></svg>