<?xml version="1.0" standalone="no"?><!DOCTYPE svg PUBLIC "-//W3C//DTD SVG 1.1//EN" "http://www.w3.org/Graphics/SVG/1.1/DTD/svg11.dtd"><svg t="1647570518497" class="icon" viewBox="0 0 1024 1024" version="1.1" xmlns="http://www.w3.org/2000/svg" p-id="4969" xmlns:xlink="http://www.w3.org/1999/xlink" width="200" height="200"><defs><style type="text/css"></style></defs><path d="M1010.904503 948.148938L787.007562 724.251997A441.13841 441.13841 0 0 0 887.436945 443.698207C887.436945 199.066907 688.370037 0 443.738737 0A444.210167 444.210167 0 0 0 0.04053 443.698207c0 244.6313 198.981581 443.698207 443.698207 443.698207a441.39439 441.39439 0 0 0 280.55379-100.429382l223.896941 223.896941a44.199168 44.199168 0 0 0 62.885689 0 44.369821 44.369821 0 0 0-0.170654-62.715035zM88.780172 443.698207A355.385199 355.385199 0 0 1 443.738737 88.739641 355.385199 355.385199 0 0 1 798.697303 443.698207 355.385199 355.385199 0 0 1 443.738737 798.656773 355.385199 355.385199 0 0 1 88.780172 443.698207z" fill="#F9F9F9" p-id="4970"></path></svg>