<?xml version="1.0" encoding="UTF-8"?>
<svg width="12px" height="12px" viewBox="0 0 12 12" version="1.1" xmlns="http://www.w3.org/2000/svg" xmlns:xlink="http://www.w3.org/1999/xlink">
    <title>形状</title>
    <g id="2.5" stroke="none" stroke-width="1" fill="none" fill-rule="evenodd">
        <g id="插件交互规范" transform="translate(-184.000000, -413.000000)" fill="#4F84FA" fill-rule="nonzero">
            <g id="搜索文件备份-3" transform="translate(176.000000, 405.000000)">
                <g id="编组-15" transform="translate(8.000000, 8.000000)">
                    <path d="M11.8472713,11.1124569 L9.22313865,8.48832422 C9.95795308,7.59165008 10.3991282,6.44717302 10.3991282,5.19956411 C10.3991282,2.33335811 8.0672025,0 5.19956411,0 C2.33335811,0 0,2.33192572 0,5.19956411 C0,8.0672025 2.33192572,10.3991282 5.19956411,10.3991282 C6.44574063,10.3991282 7.59165008,9.95795308 8.48832422,9.22313865 L11.1124569,11.8472713 C11.2141563,11.9489707 11.3473683,11.9991043 11.4805803,11.9991043 C11.6137922,11.9991043 11.7470042,11.9489707 11.8487037,11.8472713 C12.0506702,11.6438724 12.0506702,11.3144234 11.8472713,11.1124569 L11.8472713,11.1124569 Z M1.03991282,5.19956411 C1.03991282,2.90631283 2.90631283,1.03991282 5.19956411,1.03991282 C7.49281539,1.03991282 9.3592154,2.90631283 9.3592154,5.19956411 C9.3592154,7.49281539 7.49281539,9.3592154 5.19956411,9.3592154 C2.90631283,9.3592154 1.03991282,7.49281539 1.03991282,5.19956411 Z" id="形状"></path>
                </g>
            </g>
        </g>
    </g>
</svg>