<?xml version="1.0" encoding="UTF-8"?>
<svg width="12px" height="12px" viewBox="0 0 12 12" version="1.1" xmlns="http://www.w3.org/2000/svg" xmlns:xlink="http://www.w3.org/1999/xlink">
    <title>形状</title>
    <g id="2.5" stroke="none" stroke-width="1" fill="none" fill-rule="evenodd">
        <g id="颜色筛选-下拉" transform="translate(-674.000000, -24.000000)" fill="#A2ABC3" fill-rule="nonzero">
            <g id="mid-top" transform="translate(26.000000, 16.000000)">
                <g id="搜索文件夹" transform="translate(418.000000, 1.000000)">
                    <path d="M241.847271,18.1124569 L239.223139,15.4883242 C239.957953,14.5916501 240.399128,13.447173 240.399128,12.1995641 C240.399128,9.33335811 238.067202,7 235.199564,7 C232.333358,7 230,9.33192572 230,12.1995641 C230,15.0672025 232.331926,17.3991282 235.199564,17.3991282 C236.445741,17.3991282 237.59165,16.9579531 238.488324,16.2231387 L241.112457,18.8472713 C241.214156,18.9489707 241.347368,18.9991043 241.48058,18.9991043 C241.613792,18.9991043 241.747004,18.9489707 241.848704,18.8472713 C242.05067,18.6438724 242.05067,18.3144234 241.847271,18.1124569 L241.847271,18.1124569 Z M231.039913,12.1995641 C231.039913,9.90631283 232.906313,8.03991282 235.199564,8.03991282 C237.492815,8.03991282 239.359215,9.90631283 239.359215,12.1995641 C239.359215,14.4928154 237.492815,16.3592154 235.199564,16.3592154 C232.906313,16.3592154 231.039913,14.4928154 231.039913,12.1995641 Z" id="形状"></path>
                </g>
            </g>
        </g>
    </g>
</svg>