<?xml version="1.0" standalone="no"?><!DOCTYPE svg PUBLIC "-//W3C//DTD SVG 1.1//EN" "http://www.w3.org/Graphics/SVG/1.1/DTD/svg11.dtd"><svg t="1647570424082" class="icon" viewBox="0 0 1024 1024" version="1.1" xmlns="http://www.w3.org/2000/svg" p-id="4579" xmlns:xlink="http://www.w3.org/1999/xlink" width="200" height="200"><defs><style type="text/css"></style></defs><path d="M512 0a512 512 0 1 1 0 1024A512 512 0 0 1 512 0z m186.7776 267.8784L512 454.656 325.2224 267.8784a40.5504 40.5504 0 1 0-57.344 57.344L454.656 512 267.8784 698.7776a40.5504 40.5504 0 1 0 57.344 57.344L512 569.344l186.7776 186.7776a40.448 40.448 0 0 0 57.344 0 40.5504 40.5504 0 0 0 0-57.344L569.344 512l186.7776-186.7776a40.5504 40.5504 0 0 0-57.344-57.344z" fill="#F9F9F9" p-id="4580"></path></svg>