<?xml version="1.0" encoding="UTF-8"?>
<svg width="34px" height="34px" viewBox="0 0 34 34" version="1.1" xmlns="http://www.w3.org/2000/svg" xmlns:xlink="http://www.w3.org/1999/xlink">
    <!-- Generator: Sketch 61 (89581) - https://sketch.com -->
    <title>setting_library_delete</title>
    <desc>Created with Sketch.</desc>
    <g id="图标" stroke="none" stroke-width="1" fill="none" fill-rule="evenodd">
        <g id="切图" transform="translate(-755.000000, -102.000000)">
            <g id="setting_library_delete" transform="translate(755.000000, 102.000000)">
                <circle id="椭圆形" fill-opacity="0.2" fill="#848EA9" cx="17" cy="17" r="17"></circle>
                <path d="M22.1376147,13.2563284 C22.4422018,13.2563284 22.6880734,13.5007982 22.6880734,13.8036488 L22.6880734,23.3580388 C22.6880734,24.2611174 21.9449541,25 21.0366972,25 L12.9633028,25 C12.0550459,25 11.3119266,24.2611174 11.3119266,23.3580388 L11.3119266,13.8036488 C11.3119266,13.5007982 11.5577982,13.2563284 11.8623853,13.2563284 C12.1669725,13.2563284 12.412844,13.5007982 12.412844,13.8036488 L12.412844,23.3580388 C12.412844,23.659065 12.6605505,23.9053592 12.9633028,23.9053592 L21.0366972,23.9053592 C21.3394495,23.9053592 21.587156,23.659065 21.587156,23.3580388 L21.587156,13.8036488 C21.587156,13.5007982 21.8330275,13.2563284 22.1376147,13.2563284 Z M15.440367,15.5970353 C15.7449541,15.5970353 15.9908257,15.8415051 15.9908257,16.1443558 L15.9908257,21.0264538 C15.9908257,21.3293044 15.7449541,21.5737742 15.440367,21.5737742 C15.1357798,21.5737742 14.8899083,21.3293044 14.8899083,21.0264538 L14.8899083,16.1443558 C14.8899083,15.8415051 15.1357798,15.5970353 15.440367,15.5970353 Z M18.559633,15.5970353 C18.8642202,15.5970353 19.1100917,15.8415051 19.1100917,16.1443558 L19.1100917,21.0264538 C19.1100917,21.3293044 18.8642202,21.5737742 18.559633,21.5737742 C18.2550459,21.5737742 18.0091743,21.3293044 18.0091743,21.0264538 L18.0091743,16.1443558 C18.0091743,15.8415051 18.2550459,15.5970353 18.559633,15.5970353 Z M18.7412844,9 C19.6513761,9 20.3926606,9.73705815 20.3926606,10.6419612 L20.392,11.57 L24.4220183,11.5705815 C24.7412844,11.5705815 25,11.8150513 25,12.1179019 C25,12.4207526 24.7412844,12.6652223 24.4220183,12.6652223 L9.57798165,12.6652223 C9.2587156,12.6652223 9,12.4207526 9,12.1179019 C9,11.8150513 9.2587156,11.5705815 9.57798165,11.5705815 L13.607,11.57 L13.6073394,10.6419612 C13.6073394,9.73705815 14.3486239,9 15.2587156,9 L18.7412844,9 Z M18.7412844,10.0946408 L15.2587156,10.0946408 C14.9559633,10.0946408 14.7082569,10.340935 14.7082569,10.6419612 L14.708,11.57 L19.291,11.57 L19.2917431,10.6419612 C19.2917431,10.340935 19.0440367,10.0946408 18.7412844,10.0946408 Z" id="形状结合" fill="#E0E7FA" fill-rule="nonzero"></path>
            </g>
        </g>
    </g>
</svg>