<?xml version="1.0" encoding="UTF-8"?>
<svg width="34px" height="34px" viewBox="0 0 34 34" version="1.1" xmlns="http://www.w3.org/2000/svg" xmlns:xlink="http://www.w3.org/1999/xlink">
    <!-- Generator: Sketch 61 (89581) - https://sketch.com -->
    <title>setting_library_merge</title>
    <desc>Created with Sketch.</desc>
    <g id="图标" stroke="none" stroke-width="1" fill="none" fill-rule="evenodd">
        <g id="切图" transform="translate(-623.000000, -102.000000)">
            <g id="setting_library_merge" transform="translate(623.000000, 102.000000)">
                <circle id="椭圆形" fill-opacity="0.2" fill="#848EA9" cx="17" cy="17" r="17"></circle>
                <path d="M11.375,10.4365245 C10.8579605,10.4365245 10.4365245,10.8560094 10.4365245,11.375 L10.4365245,20.75 C10.4365245,21.2670395 10.8560094,21.6884755 11.375,21.6884755 L20.75,21.6884755 C21.2670395,21.6884755 21.6884755,21.2689906 21.6884755,20.75 L21.6884755,11.375 C21.6884755,10.8579605 21.2689906,10.4365245 20.75,10.4365245 L11.375,10.4365245 Z M11.375,9.5 L20.75,9.5 C21.7860302,9.5 22.625,10.3389698 22.625,11.375 L22.625,20.75 C22.625,21.7860302 21.7860302,22.625 20.75,22.625 L11.375,22.625 C10.3389698,22.625 9.5,21.7860302 9.5,20.75 L9.5,11.375 C9.5,10.3389698 10.3409209,9.5 11.375,9.5 Z M11.375,22.1879553 L12.3134755,22.1879553 L12.3134755,22.8610822 C12.3134755,23.2493496 12.6276015,23.5634755 13.0158689,23.5634755 L22.8591311,23.5634755 C23.2473985,23.5634755 23.5615245,23.2493496 23.5615245,22.8610822 L23.5615245,13.0158689 C23.5615245,12.6276015 23.2473985,12.3134755 22.8591311,12.3134755 L21.9772373,12.3134755 L21.9772373,11.375 L22.8591311,11.375 C23.7644381,11.375 24.5,12.1105619 24.5,13.0158689 L24.5,22.8591311 C24.5,23.7644381 23.7663892,24.5 22.8591311,24.5 L13.0158689,24.5 C12.1105619,24.5 11.375,23.7663892 11.375,22.8591311 L11.375,22.1879553 L11.375,22.1879553 Z M12.3134755,22.1879553 L12.3134755,22.8610822 C12.3134755,23.2493496 12.6276015,23.5634755 13.0158689,23.5634755 L22.8591311,23.5634755 C23.2473985,23.5634755 23.5615245,23.2493496 23.5615245,22.8610822 L23.5615245,13.0158689 C23.5615245,12.6276015 23.2473985,12.3134755 22.8591311,12.3134755 L21.9772373,12.3134755 L21.9772373,11.375 L22.8591311,11.375 C23.7644381,11.375 24.5,12.1105619 24.5,13.0158689 L24.5,22.8591311 C24.5,23.7644381 23.7663892,24.5 22.8591311,24.5 L13.0158689,24.5 C12.1105619,24.5 11.375,23.7663892 11.375,22.8591311 L11.375,22.1860042 L12.3134755,22.1860042 L12.3134755,22.1879553 Z" id="形状结合" fill="#E0E7FA" fill-rule="nonzero"></path>
            </g>
        </g>
    </g>
</svg>