<?xml version="1.0" encoding="UTF-8"?>
<svg width="14px" height="14px" viewBox="0 0 14 14" version="1.1" xmlns="http://www.w3.org/2000/svg" xmlns:xlink="http://www.w3.org/1999/xlink">
    <!-- Generator: Sketch 61 (89581) - https://sketch.com -->
    <title>setting_usually_normal</title>
    <desc>Created with Sketch.</desc>
    <g id="图标" stroke="none" stroke-width="1" fill="none" fill-rule="evenodd">
        <g id="切图" transform="translate(-389.000000, -109.000000)" fill="#A2ABC3" fill-rule="nonzero">
            <path d="M399.749387,116.501177 C400.611307,116.500889 401.438051,116.842956 402.047797,117.452149 C402.656559,118.061752 402.99916,118.888047 402.99836,119.749778 C402.99836,121.545202 401.543541,123.00041 399.748566,123.00041 C397.953513,123.00041 396.498715,121.545202 396.498715,119.749778 L396.498715,119.749778 L396.498715,116.501177 Z M395.499057,116.501178 L395.499057,119.749758 C395.499057,121.544753 394.04465,122.99955 392.249831,122.99955 C390.455052,122.99955 389,121.544772 389,119.749758 C389,117.955545 390.455052,116.501178 392.249226,116.501178 L392.249226,116.501178 L395.499057,116.501178 Z M392.249831,109.001192 C394.04465,109.001192 395.499663,110.455638 395.500269,112.249831 L395.500269,112.249831 L395.500269,115.499077 L392.249226,115.499077 C390.455052,115.499077 389.000606,114.04467 389.000606,112.249831 C389.000606,110.455638 390.455052,109.001192 392.249226,109.001192 Z M399.750129,109 C401.545202,109 403,110.455032 403,112.249831 C403,114.04467 401.545202,115.499077 399.75097,115.499077 L399.75097,115.499077 L396.500337,115.499077 L396.500337,112.249831 C396.500337,110.455032 397.955174,109 399.750129,109 Z" id="setting_usually_normal"></path>
        </g>
    </g>
</svg>