<?xml version="1.0" encoding="UTF-8"?>
<svg width="14px" height="14px" viewBox="0 0 14 14" version="1.1" xmlns="http://www.w3.org/2000/svg" xmlns:xlink="http://www.w3.org/1999/xlink">
    <!-- Generator: Sketch 61 (89581) - https://sketch.com -->
    <title>setting_usually_select</title>
    <desc>Created with Sketch.</desc>
    <g id="图标" stroke="none" stroke-width="1" fill="none" fill-rule="evenodd">
        <g id="切图" transform="translate(-418.000000, -109.000000)" fill-rule="nonzero">
            <g id="setting_usually_select" transform="translate(418.000000, 109.000000)">
                <path d="M3.24922554,0.0011922329 C1.45505184,0.0011922329 0.000605888849,1.45563819 0.000605888849,3.24983143 C0.000605888849,5.04466964 1.45505184,6.49907651 3.24922554,6.49907651 L6.50026874,6.49907651 L6.50026874,3.24983143 C6.49966285,1.45563819 5.0446501,0.0011922329 3.24983143,0.0011922329 L3.24922554,0.0011922329 Z" id="路径" fill="#4F84FA"></path>
                <path d="M14,3.24983143 C14,1.4550323 12.5452022,-4.75175455e-14 10.7501295,-4.75175455e-14 C8.955174,-4.75175455e-14 7.50033715,1.4550323 7.50033715,3.24983143 L7.50033715,6.49907651 L10.7509699,6.49907651 C12.5452022,6.49907651 14,5.04466964 14,3.24983143 Z" id="路径" fill="#F7B500"></path>
                <path d="M2.19824159e-13,10.7497581 C2.19824159e-13,12.5447723 1.45505184,13.9995505 3.24983143,13.9995505 C5.0446501,13.9995505 6.49905696,12.5447527 6.49905696,10.7497581 L6.49905696,7.50117757 L3.24922554,7.50117757 C1.45505184,7.50117757 2.19824159e-13,8.95554535 2.19824159e-13,10.7497581 L2.19824159e-13,10.7497581 Z" id="路径" fill="#FA6400"></path>
                <path d="M10.7493868,7.50117739 L7.49871493,7.50117739 L7.49871493,10.7497777 C7.49871493,12.5452022 8.95351269,14.0004104 10.7485659,14.0004104 C12.5435409,14.0004104 13.9983596,12.5452022 13.9983596,10.7497777 C13.9991596,9.88804738 13.6565587,9.0617518 13.0477968,8.45214944 C12.4380509,7.84295621 11.6113069,7.50088919 10.7493868,7.50117739 L10.7493868,7.50117739 Z" id="路径" fill="#44D7B6"></path>
            </g>
        </g>
    </g>
</svg>