<?xml version="1.0" encoding="UTF-8"?>
<svg width="14px" height="14px" viewBox="0 0 14 14" version="1.1" xmlns="http://www.w3.org/2000/svg" xmlns:xlink="http://www.w3.org/1999/xlink">
    <!-- Generator: Sketch 61 (89581) - https://sketch.com -->
    <title>setting_library_select</title>
    <desc>Created with Sketch.</desc>
    <g id="图标" stroke="none" stroke-width="1" fill="none" fill-rule="evenodd">
        <g id="切图" transform="translate(-418.000000, -136.000000)" fill-rule="nonzero">
            <g id="setting_library_select" transform="translate(418.000000, 136.000000)">
                <path d="M10.1735352,4.5609375 L12.5922852,3.184375 C12.4954102,3.0875 12.3797852,3.0109375 12.2391602,2.9328125 L7.70322266,0.3484375 C7.30322266,0.121875 6.91728516,-4.52970994e-14 6.53134766,-4.52970994e-14 C6.14541016,-4.52970994e-14 5.75947266,0.121875 5.36103516,0.346875 L4.05478516,1.0859375 L10.1735352,4.5609375 Z" id="路径" fill="#44D7B6"></path>
                <path d="M6.53134766,6.6265625 L9.27822266,5.0703125 L3.18603516,1.5890625 L0.825097656,2.934375 C0.682910156,3.0109375 0.567285156,3.0890625 0.470410156,3.1859375 L6.53134766,6.6265625 Z" id="路径" fill="#F7B500"></path>
                <path d="M6.96884766,14 C7.01416016,13.9875 7.05166016,13.9671875 7.09697266,13.9421875 L12.1344727,11.071875 C12.7329102,10.73125 13.0610352,10.3828125 13.0610352,9.45 L13.0610352,4.4390625 C13.0610352,4.2453125 13.0422852,4.0921875 13.0094727,3.95 L6.96884766,7.3984375 L6.96884766,14 Z" id="路径" fill="#4F84FA"></path>
                <path d="M6.09384766,14 L6.09384766,7.3984375 L0.0516601562,3.95 C0.0157226562,4.1109375 -0.00146484375,4.275 9.76562498e-05,4.4390625 L9.76562498e-05,9.4515625 C9.76562498e-05,10.384375 0.328222656,10.73125 0.926660156,11.0734375 L5.96416016,13.9421875 C6.01103516,13.9671875 6.04853516,13.9875 6.09384766,14 Z" id="路径" fill="#FA6400"></path>
            </g>
        </g>
    </g>
</svg>