<?xml version="1.0" encoding="UTF-8"?>
<svg width="14px" height="14px" viewBox="0 0 14 14" version="1.1" xmlns="http://www.w3.org/2000/svg" xmlns:xlink="http://www.w3.org/1999/xlink">
    <!-- Generator: Sketch 61 (89581) - https://sketch.com -->
    <title>setting_library_normal</title>
    <desc>Created with Sketch.</desc>
    <g id="图标" stroke="none" stroke-width="1" fill="none" fill-rule="evenodd">
        <g id="切图" transform="translate(-389.000000, -136.000000)" fill="#A2ABC3" fill-rule="nonzero">
            <path d="M399.673535,140.560937 L402.092285,139.184375 C401.99541,139.0875 401.879785,139.010938 401.73916,138.932813 L397.203223,136.348437 C396.803223,136.121875 396.417285,136 396.031348,136 C395.64541,136 395.259473,136.121875 394.861035,136.346875 L393.554785,137.085938 L399.673535,140.560937 Z M396.031348,142.626563 L398.778223,141.070312 L392.686035,137.589063 L390.325098,138.934375 C390.18291,139.010938 390.067285,139.089063 389.97041,139.185937 L396.031348,142.626563 Z M396.468848,150 C396.51416,149.9875 396.55166,149.967187 396.596973,149.942187 L401.634473,147.071875 C402.23291,146.73125 402.561035,146.382812 402.561035,145.45 L402.561035,140.439063 C402.561035,140.245313 402.542285,140.092187 402.509473,139.95 L396.468848,143.398438 L396.468848,150 Z M395.593848,150 L395.593848,143.398438 L389.55166,139.95 C389.515723,140.110938 389.498535,140.275 389.500098,140.439063 L389.500098,145.451562 C389.500098,146.384375 389.828223,146.73125 390.42666,147.073438 L395.46416,149.942187 C395.511035,149.967187 395.548535,149.9875 395.593848,150 Z" id="setting_library_normal"></path>
        </g>
    </g>
</svg>