<?xml version="1.0" encoding="UTF-8"?>
<svg width="14px" height="14px" viewBox="0 0 14 14" version="1.1" xmlns="http://www.w3.org/2000/svg" xmlns:xlink="http://www.w3.org/1999/xlink">
    <!-- Generator: Sketch 61 (89581) - https://sketch.com -->
    <title>setting_format_normal</title>
    <desc>Created with Sketch.</desc>
    <g id="图标" stroke="none" stroke-width="1" fill="none" fill-rule="evenodd">
        <g id="切图" transform="translate(-389.000000, -186.000000)" fill="#A2ABC3">
            <path d="M396,186 C396.552285,186 397,186.447715 397,187 L397,192 L402,192 C402.552285,192 403,192.447715 403,193 C403,193.552285 402.552285,194 402,194 L397,194 L397,199 C397,199.552285 396.552285,200 396,200 C395.447715,200 395,199.552285 395,199 L395,194 L390,194 C389.447715,194 389,193.552285 389,193 C389,192.447715 389.447715,192 390,192 L395,192 L395,187 C395,186.447715 395.447715,186 396,186 Z M402,195 C402.552285,195 403,195.447715 403,196 L403,199 C403,199.552285 402.552285,200 402,200 L399,200 C398.447715,200 398,199.552285 398,199 L398,196 C398,195.447715 398.447715,195 399,195 L402,195 Z M393,195 C393.552285,195 394,195.447715 394,196 L394,199 C394,199.552285 393.552285,200 393,200 L390,200 C389.447715,200 389,199.552285 389,199 L389,196 C389,195.447715 389.447715,195 390,195 L393,195 Z M393,186 C393.552285,186 394,186.447715 394,187 L394,190 C394,190.552285 393.552285,191 393,191 L390,191 C389.447715,191 389,190.552285 389,190 L389,187 C389,186.447715 389.447715,186 390,186 L393,186 Z M402,186 C402.552285,186 403,186.447715 403,187 L403,190 C403,190.552285 402.552285,191 402,191 L399,191 C398.447715,191 398,190.552285 398,190 L398,187 C398,186.447715 398.447715,186 399,186 L402,186 Z" id="setting_format_normal"></path>
        </g>
    </g>
</svg>