<?xml version="1.0" encoding="UTF-8"?>
<svg width="16px" height="10px" viewBox="0 0 16 10" version="1.1" xmlns="http://www.w3.org/2000/svg" xmlns:xlink="http://www.w3.org/1999/xlink">
    <!-- Generator: Sketch 61 (89581) - https://sketch.com -->
    <title>setting_shortcut_normal</title>
    <desc>Created with Sketch.</desc>
    <g id="图标" stroke="none" stroke-width="1" fill="none" fill-rule="evenodd">
        <g id="切图" transform="translate(-388.000000, -163.000000)" fill="#A2ABC3" fill-rule="nonzero">
            <path d="M401.448295,163.00015 L402.148646,163.001504 L402.148646,163.001504 L402.848295,163.010051 C403.634433,163.023912 403.954235,163.330843 403.957206,164.10312 C403.969087,166.685299 403.969087,169.265497 403.957206,171.847675 C403.954235,172.558566 403.5978,172.90411 402.883938,172.910051 C401.556216,172.923912 400.228493,172.915002 398.90275,172.915002 C397.623542,172.915002 396.346315,172.920942 395.066117,172.912031 C394.134433,172.907081 393.831463,172.589259 393.822552,171.637774 C393.817602,171.009061 393.820572,170.383318 393.822552,169.754606 C393.828493,168.761536 394.105721,168.478368 395.123542,168.469457 C396.377008,168.457576 397.631463,168.440744 398.885919,168.477378 C399.40473,168.492229 399.537404,168.324903 399.523542,167.823912 C399.488889,166.642724 399.505721,165.459556 399.514631,164.278368 C399.520572,163.293219 399.788889,163.015992 400.749285,163.007081 L400.749285,163.007081 L401.448295,163.00015 Z M390.626513,168.467477 C392.330473,168.473417 392.436414,168.579358 392.444334,170.263516 L392.444334,170.263516 L392.444334,170.621932 C392.444334,171.007081 392.455226,171.391239 392.441364,171.777378 C392.409681,172.609061 392.121562,172.890249 391.285919,172.910051 L391.285919,172.910051 L390.925523,172.916982 L390.20374,172.915002 C388.126513,172.915002 388.008691,172.915002 388.00176,171.087279 L388.00176,171.087279 L388.00176,170.368467 C388.007701,168.582328 388.115622,168.473417 389.8978,168.467477 L389.8978,168.467477 Z M390.760176,163.007081 L391.30275,163.013021 C392.084928,163.032823 392.418592,163.335794 392.441364,164.094209 C392.464136,164.864507 392.455226,165.637774 392.441364,166.408071 C392.429483,167.073417 392.080968,167.435794 391.407701,167.447675 C390.684928,167.458566 389.960176,167.464507 389.239384,167.452625 C388.283938,167.436784 388.006711,167.144705 388.00176,166.179358 C387.9978,165.864507 388.00176,165.549655 388.00176,165.238764 L388.00176,165.238764 L388.00176,164.878368 C388.007701,163.122922 388.113641,163.016982 389.859186,163.010051 L389.859186,163.010051 L390.218592,163.010051 L390.760176,163.007081 Z M396.432453,163.010051 C398.173047,163.016982 398.278988,163.121932 398.284928,164.844705 L398.284928,164.844705 L398.284928,165.564507 C398.277998,167.39817 398.162156,167.453615 396.187899,167.455596 L395.635677,167.455155 C393.933641,167.448553 393.82707,167.34291 393.820572,165.652625 L393.820572,165.652625 L393.820799,165.102175 C393.824285,163.133409 393.879738,163.017732 395.709681,163.010051 L395.709681,163.010051 Z" id="setting_shortcut_normal"></path>
        </g>
    </g>
</svg>