<?xml version="1.0" encoding="UTF-8"?>
<svg width="22px" height="20px" viewBox="0 0 22 20" version="1.1" xmlns="http://www.w3.org/2000/svg" xmlns:xlink="http://www.w3.org/1999/xlink">
    <!-- Generator: Sketch 61 (89581) - https://sketch.com -->
    <title>setting_library_path</title>
    <desc>Created with Sketch.</desc>
    <g id="图标" stroke="none" stroke-width="1" fill="none" fill-rule="evenodd">
        <g id="切图" transform="translate(-478.000000, -187.000000)" fill="#E0E7FA" fill-rule="nonzero">
            <path d="M482.4,187 C483.264286,187 484.05,187.392857 484.521429,188.178571 L484.521429,188.178571 L486.407143,190.928571 C486.564286,191.164286 486.878571,191.321429 487.192857,191.321429 L487.192857,191.321429 L497.485714,191.321429 C498.9,191.321429 500,192.421429 500,193.835714 L500,193.835714 L500,204.285714 C500,205.7 498.9,206.8 497.485714,206.8 L497.485714,206.8 L480.514286,206.8 C479.1,206.8 478,205.7 478,204.285714 L478,204.285714 L478,189.514286 C478,188.1 479.1,187 480.514286,187 L480.514286,187 Z M482.4,188.571429 L480.514286,188.571429 C480.042857,188.571429 479.571429,188.964286 479.571429,189.514286 L479.571429,189.514286 L479.571429,204.285714 C479.571429,204.757143 479.964286,205.228571 480.514286,205.228571 L480.514286,205.228571 L497.485714,205.228571 C497.957143,205.228571 498.428571,204.835714 498.428571,204.285714 L498.428571,204.285714 L498.428571,193.757143 C498.428571,193.285714 498.035714,192.814286 497.485714,192.814286 L497.485714,192.814286 L487.192857,192.814286 C486.328571,192.814286 485.542857,192.421429 485.071429,191.714286 L485.071429,191.714286 L483.185714,188.964286 C483.028571,188.728571 482.714286,188.571429 482.4,188.571429 L482.4,188.571429 Z M497.328571,188.1 C497.8,188.1 498.114286,188.414286 498.114286,188.885714 C498.114286,189.357143 497.8,189.671429 497.328571,189.671429 L497.328571,189.671429 L489,189.671429 C488.528571,189.671429 488.214286,189.357143 488.214286,188.885714 C488.214286,188.414286 488.528571,188.1 489,188.1 L489,188.1 Z" id="setting_library_path"></path>
        </g>
    </g>
</svg>