<?xml version="1.0" encoding="UTF-8"?>
<svg width="34px" height="34px" viewBox="0 0 34 34" version="1.1" xmlns="http://www.w3.org/2000/svg" xmlns:xlink="http://www.w3.org/1999/xlink">
    <!-- Generator: Sketch 61 (89581) - https://sketch.com -->
    <title>setting_library_details</title>
    <desc>Created with Sketch.</desc>
    <g id="图标" stroke="none" stroke-width="1" fill="none" fill-rule="evenodd">
        <g id="切图" transform="translate(-667.000000, -102.000000)">
            <g id="setting_library_details" transform="translate(667.000000, 102.000000)">
                <circle id="椭圆形" fill-opacity="0.2" fill="#848EA9" cx="17" cy="17" r="17"></circle>
                <path d="M23.2708123,9 C24.1722161,9 24.9609148,9.90143535 24.8483518,10.9154968 L24.8483518,10.9154968 L24.8483518,15.1971214 C24.8483518,16.0985252 24.5102523,17.1126656 23.8342113,17.7887066 L23.8342113,17.7887066 L17.1862855,24.4366009 C16.8482807,24.8872792 16.5102602,25 15.9468454,25 C15.496183,25 15.0454258,24.7746214 14.7074053,24.4366009 L14.7074053,24.4366009 L9.63701891,19.4787933 C8.9609937,18.6901735 8.9609937,17.5633123 9.63701891,16.8872713 L9.63701891,16.8872713 L16.3975867,10.1267823 C16.9609858,9.56339907 18.0877682,9 18.9891088,9 L18.9891088,9 Z M23.2708123,10.1267823 L18.9890457,10.1267823 C18.5383675,10.1267823 17.6369795,10.5775553 17.2989432,10.91556 L17.2989432,10.91556 L10.5383911,17.6761278 C10.4257334,17.7887697 10.3130126,17.9015064 10.3130126,18.1267823 C10.3130126,18.3521688 10.3130126,18.5775474 10.4257334,18.6902682 L10.4257334,18.6902682 L15.6089196,23.4226026 C15.7214826,23.5352603 15.8342192,23.6479811 16.059582,23.6479811 C16.3975236,23.6479811 16.5102602,23.5352603 16.5102602,23.5352603 L16.5102602,23.5352603 L23.1581703,16.8873502 C23.4961119,16.5492508 23.8342113,15.760552 23.8342113,15.1971688 L23.8342113,15.1971688 L23.8342113,10.9154653 C23.8342113,10.4648186 23.4961119,10.1267823 23.2708123,10.1267823 L23.2708123,10.1267823 Z M20.3411908,11.3662224 C21.5806151,11.3662224 22.5947555,12.3802839 22.5947555,13.6197082 C22.5947555,14.8592114 21.5806309,15.8732887 20.3411908,15.8732887 C19.1017507,15.8732887 18.0876892,14.8591325 18.0876892,13.6197082 C18.0876892,12.3802681 19.1017665,11.3662224 20.3412066,11.3662224 Z M20.3412224,12.492989 C19.6651498,12.492989 19.2144874,12.9436514 19.2144874,13.6196924 C19.2144874,14.2957334 19.6651814,14.7464905 20.3412066,14.7464905 C21.0172318,14.7464905 21.4679889,14.2957176 21.4679889,13.6196924 C21.4679889,12.9436672 21.0172476,12.492989 20.3412066,12.492989 Z" id="形状结合" fill="#E0E7FA" fill-rule="nonzero"></path>
            </g>
        </g>
    </g>
</svg>