<?xml version="1.0" encoding="UTF-8"?>
<svg width="34px" height="34px" viewBox="0 0 34 34" version="1.1" xmlns="http://www.w3.org/2000/svg" xmlns:xlink="http://www.w3.org/1999/xlink">
    <!-- Generator: Sketch 61 (89581) - https://sketch.com -->
    <title>setting_library_toggles</title>
    <desc>Created with Sketch.</desc>
    <g id="图标" stroke="none" stroke-width="1" fill="none" fill-rule="evenodd">
        <g id="切图" transform="translate(-579.000000, -102.000000)">
            <g id="setting_library_toggles" transform="translate(579.000000, 102.000000)">
                <circle id="椭圆形" fill-opacity="0.2" fill="#848EA9" cx="17" cy="17" r="17"></circle>
                <path d="M24.2697024,19.322664 L9.53111512,19.322664 C9.39833634,19.322664 9.26555756,19.4554428 9.26555756,19.4554428 C9,19.7210003 9,19.9865579 9.13279304,20.2521155 C9.13279304,20.3849085 9.26558609,20.3849085 9.26558609,20.3849085 L12.3195123,23.4388347 C12.5850699,23.7044066 12.9834205,23.7044066 13.248978,23.4388347 C13.5145356,23.1732772 13.5145356,22.7749408 13.248978,22.5093833 L11.2572678,20.517673 L24.2697024,20.517673 C24.668053,20.517673 24.9336106,20.2521155 24.9336106,19.8537791 C24.9336106,19.5882216 24.668053,19.322664 24.2697024,19.322664 Z M9.6638939,14.8081284 L24.4024955,14.8081284 C24.5352743,14.8081284 24.668053,14.6753496 24.8008318,14.6753496 C25.0663894,14.409792 25.0663894,14.0114557 24.8008318,13.7458981 L21.6141126,10.5591789 C21.3485407,10.293607 20.9502044,10.293607 20.6846468,10.5591789 C20.4190893,10.8247364 20.4190893,11.2230728 20.6846468,11.4886303 L22.6763428,13.4803406 L9.66390817,13.4803406 C9.2655433,13.4803406 9,13.7458981 9,14.1442345 C9,14.5425708 9.26555756,14.8081284 9.6638939,14.8081284 Z" id="形状" fill="#E0E7FA" fill-rule="nonzero"></path>
            </g>
        </g>
    </g>
</svg>