<?xml version="1.0" encoding="UTF-8"?>
<svg width="16px" height="10px" viewBox="0 0 16 10" version="1.1" xmlns="http://www.w3.org/2000/svg" xmlns:xlink="http://www.w3.org/1999/xlink">
    <!-- Generator: Sketch 61 (89581) - https://sketch.com -->
    <title>setting_shortcut_select</title>
    <desc>Created with Sketch.</desc>
    <g id="图标" stroke="none" stroke-width="1" fill="none" fill-rule="evenodd">
        <g id="切图" transform="translate(-416.000000, -163.000000)" fill-rule="nonzero">
            <g id="setting_shortcut_select" transform="translate(416.000000, 163.000000)">
                <path d="M13.4482948,0.000150076677 L12.7492849,0.00708076975 C11.7888889,0.0159916608 11.5205721,0.293219384 11.5146315,1.2783679 C11.5057206,2.45955602 11.4888889,3.64272433 11.5235424,4.82391245 C11.5374037,5.32490255 11.4047305,5.49222928 10.8859186,5.4773778 C9.63146315,5.44074414 8.3770077,5.45757582 7.12354235,5.46945701 C6.10572057,5.4783679 5.82849285,5.76153622 5.82255226,6.75460552 C5.82057206,7.38331839 5.81760176,8.00906097 5.82255226,8.63777384 C5.83146315,9.58925899 6.13443344,9.90708077 7.06611661,9.91203126 C8.34631463,9.92094216 9.62354235,9.91500156 10.9027503,9.91500156 C12.2284928,9.91500156 13.5562156,9.92391245 14.8839384,9.91005107 C15.5977998,9.90411047 15.9542354,9.55856592 15.9572057,8.84767483 C15.9690869,6.26549661 15.9690869,3.68529859 15.9572057,1.10312037 C15.9542354,0.330843146 15.6344334,0.0239124529 14.8482948,0.0100510668 C14.1486868,-0.00227369996 13.448925,-0.00326392889 12.7492849,0.00708076975 L13.4482948,0.000150076677 Z" id="路径" fill="#4F84FA"></path>
                <path d="M2.62651265,5.46747681 L1.89779978,5.46747681 C0.115621562,5.4734174 0.00770077008,5.58232829 0.00176017602,7.36846691 L0.00176017602,8.08727879 C0.00869086909,9.91500156 0.126512651,9.91500156 2.20374037,9.91500156 L2.92552255,9.91698176 L3.28591859,9.91005107 C4.12156216,9.89024909 4.40968097,9.60906097 4.44136414,8.7773778 C4.45522552,8.39123919 4.44433443,8.00708077 4.44433443,7.62193225 L4.44433443,7.26351641 C4.43641364,5.579358 4.33047305,5.4734174 2.62651265,5.46747681 Z" id="路径" fill="#F7B500"></path>
                <path d="M2.76017602,0.00708076975 L2.21859186,0.0100510668 L1.85918592,0.0100510668 C0.113641364,0.0169817598 0.00770077008,0.122922354 0.00176017602,1.8783679 L0.00176017602,2.23876394 C0.00176017602,2.54965503 -0.00220022002,2.86450651 0.00176017602,3.179358 C0.00671067107,4.14470453 0.283938394,4.43678374 1.23938394,4.45262532 C1.96017602,4.46450651 2.68492849,4.45856592 3.40770077,4.44767483 C4.0809681,4.43579364 4.42948295,4.0734174 4.44136414,3.40807087 C4.45522552,2.63777384 4.46413641,1.86450651 4.44136414,1.09420948 C4.41859186,0.335793641 4.08492849,0.032823344 3.30275028,0.0130213638 C2.94037404,0.00114017569 2.579978,0.0100510668 2.21859186,0.0100510668 L2.76017602,0.00708076975 Z" id="路径" fill="#FA6400"></path>
                <path d="M8.43245325,0.0100510668 L7.70968097,0.0100510668 C5.82255226,0.0179718589 5.82255226,0.140744136 5.82057206,2.29222928 L5.82057206,2.65262532 C5.82750275,4.45559562 5.94829483,4.45559562 7.99779978,4.45559562 L8.18789879,4.45559562 C10.1621562,4.45361542 10.2779978,4.39816988 10.2849285,2.56450651 L10.2849285,1.84470453 C10.2789879,0.121932255 10.1730473,0.0169817598 8.43245325,0.0100510668 Z" id="路径" fill="#44D7B6"></path>
            </g>
        </g>
    </g>
</svg>