<?xml version="1.0" encoding="UTF-8"?>
<svg width="12px" height="13px" viewBox="0 0 12 13" version="1.1" xmlns="http://www.w3.org/2000/svg" xmlns:xlink="http://www.w3.org/1999/xlink">
    <!-- Generator: Sketch 61 (89581) - https://sketch.com -->
    <title>setting_library_name</title>
    <desc>Created with Sketch.</desc>
    <g id="图标" stroke="none" stroke-width="1" fill="none" fill-rule="evenodd">
        <g id="切图" transform="translate(-453.000000, -187.000000)" fill="#A2ABC3" fill-rule="nonzero">
            <path d="M454.164813,194.991673 L457.042587,197.869446 L454.713,198.52 L457.967585,198.520371 L457.967585,199.205555 L453.376851,199.205555 L453.376,198.894 L453,199 L454.164813,194.991673 Z M464.716649,198.520371 L464.716649,199.205555 L459.680546,199.205555 L459.680546,198.520371 L464.716649,198.520371 Z M460.742581,188.379645 L463.620355,191.257419 L457.31666,197.561113 L454.438887,194.68334 L460.742581,188.379645 Z M463.003689,187.214832 L464.785168,188.996311 C465.093179,189.304323 465.059312,189.783274 464.751871,190.091642 L464.785168,190.126865 L463.928687,190.983345 L461.050914,188.105572 L461.907394,187.249092 C462.215727,186.940759 462.695356,186.906499 463.003689,187.214832 Z" id="setting_library_name"></path>
        </g>
    </g>
</svg>