<?xml version="1.0" encoding="UTF-8"?>
<svg width="34px" height="34px" viewBox="0 0 34 34" version="1.1" xmlns="http://www.w3.org/2000/svg" xmlns:xlink="http://www.w3.org/1999/xlink">
    <!-- Generator: Sketch 61 (89581) - https://sketch.com -->
    <title>setting_library_remove</title>
    <desc>Created with Sketch.</desc>
    <g id="图标" stroke="none" stroke-width="1" fill="none" fill-rule="evenodd">
        <g id="切图" transform="translate(-711.000000, -102.000000)">
            <g id="setting_library_remove" transform="translate(711.000000, 102.000000)">
                <circle id="椭圆形" fill-opacity="0.2" fill="#848EA9" cx="17" cy="17" r="17"></circle>
                <path d="M18.7536557,21.356307 C18.8697524,21.4720013 18.9350087,21.629158 18.9350087,21.7930592 C18.9350087,21.9569603 18.8697524,22.1141171 18.7536557,22.2298113 L17.4439702,23.538355 C16.1985468,24.7948111 14.3760605,25.2888918 12.6665573,24.8335239 C10.957054,24.378156 9.62184397,23.042946 9.16647611,21.3334427 C8.71110824,19.6239395 9.20518892,17.8014532 10.461645,16.5560298 L11.7701887,15.2452024 C11.9262252,15.0891659 12.1536533,15.0282267 12.3668032,15.08534 C12.579953,15.1424534 12.746442,15.3089424 12.8035553,15.5220922 C12.8606687,15.735242 12.7997295,15.9626702 12.643693,16.1187067 L11.3328656,17.4283923 C9.88654219,18.8747157 9.88654219,21.2196692 11.3328656,22.6659926 C12.779189,24.112316 15.1241425,24.112316 16.5704659,22.6659926 L17.8790096,21.356307 C17.9947038,21.2402104 18.1518606,21.174954 18.3157617,21.174954 C18.4796629,21.174954 18.6368197,21.2402104 18.7525139,21.356307 L18.7536557,21.356307 Z M21.371885,20.4839446 C21.6127812,20.7248408 21.6127812,21.1154108 21.371885,21.356307 C21.1309887,21.5972033 20.7404188,21.5972033 20.4995225,21.356307 L12.643693,13.5004775 C12.4878604,13.3446449 12.4270009,13.1175141 12.4840395,12.9046428 C12.5410782,12.6917716 12.7073496,12.5255003 12.9202208,12.4684616 C13.133092,12.4114229 13.3602229,12.4722825 13.5160554,12.628115 L21.371885,20.4839446 L21.371885,20.4839446 Z M23.553933,10.446067 C25.4820223,12.3741939 25.4820223,15.5002654 23.553933,17.4283923 L22.2453893,18.7392196 C22.0893528,18.8952562 21.8619246,18.9561954 21.6487747,18.899082 C21.4356249,18.8419687 21.2691359,18.6754797 21.2120226,18.4623299 C21.1549092,18.24918 21.2158484,18.0217518 21.371885,17.8657153 L22.6815705,16.5571716 C24.1285245,15.1108482 24.1290357,12.7653835 22.6827123,11.3184295 C21.2363889,9.87147553 18.8909242,9.8709643 17.4439702,11.3172877 L16.1354265,12.628115 C15.97939,12.7841515 15.7519618,12.8450907 15.538812,12.7879774 C15.3256621,12.7308641 15.1591731,12.5643751 15.1020598,12.3512253 C15.0449465,12.1380754 15.1058857,11.9106472 15.2619222,11.7546107 L16.5716077,10.446067 C18.4997346,8.51797766 21.6258061,8.51797766 23.553933,10.446067 Z" id="形状" fill="#E0E7FA" fill-rule="nonzero"></path>
            </g>
        </g>
    </g>
</svg>