<?xml version="1.0" standalone="no"?><!DOCTYPE svg PUBLIC "-//W3C//DTD SVG 1.1//EN" "http://www.w3.org/Graphics/SVG/1.1/DTD/svg11.dtd"><svg t="1648108747673" class="icon" viewBox="0 0 1024 1024" version="1.1" xmlns="http://www.w3.org/2000/svg" p-id="2140" xmlns:xlink="http://www.w3.org/1999/xlink" width="200" height="200"><defs><style type="text/css"></style></defs><path d="M843.328 0a180.608 180.608 0 0 1 180.416 180.48v662.848a180.608 180.608 0 0 1-180.48 180.48H180.48a180.672 180.672 0 0 1-180.48-180.48V180.48A180.672 180.672 0 0 1 180.48 0z m0 76.8H675.2v870.208h168.064c57.152 0 103.68-46.464 103.68-103.68V180.48c0-57.216-46.528-103.744-103.68-103.744z m-244.8 0H180.416c-57.152 0-103.68 46.528-103.68 103.68v662.848c0 57.216 46.528 103.68 103.68 103.68h418.112V76.8zM274.816 323.712a38.208 38.208 0 0 1 54.208 0L481.92 476.544a38.464 38.464 0 0 1 0 54.336l-152.832 152.832a38.144 38.144 0 0 1-54.208 0 38.4 38.4 0 0 1 0-54.4L400.448 503.68 274.816 377.984a38.272 38.272 0 0 1 0-54.272z" fill="#4F84FA" p-id="2141"></path></svg>