<?xml version="1.0" encoding="UTF-8"?>
<svg width="13px" height="13px" viewBox="0 0 13 13" version="1.1" xmlns="http://www.w3.org/2000/svg" xmlns:xlink="http://www.w3.org/1999/xlink">
    <title>路径</title>
    <g id="2.5" stroke="none" stroke-width="1" fill="none" fill-rule="evenodd">
        <g id="边栏下拉框" transform="translate(-783.000000, -130.000000)" fill="#4F84FA" fill-rule="nonzero">
            <g id="编组-32" transform="translate(768.000000, 46.341545)">
                <g id="编组-14" transform="translate(8.000000, 11.658455)">
                    <g id="编组-9" transform="translate(7.000000, 72.000000)">
                        <path d="M6.89,9.12314 L6.201,9.8124 C6.14008211,9.87343167 6.0573914,9.90772849 5.97116,9.90772849 C5.8849286,9.90772849 5.80223789,9.87343167 5.74132,9.8124 L2.9835,7.05484 C2.85668267,6.92785328 2.85668267,6.72214672 2.9835,6.59516 L3.67302,5.90564 C3.80000672,5.77882267 4.00571328,5.77882267 4.1327,5.90564 L5.97116,7.7441 L11.43688,2.27864 C10.244,0.88582 8.476,0 6.5,0 C2.91018,0 0,2.91018 0,6.5 C0,10.08982 2.91018,13 6.5,13 C10.08982,13 13,10.08982 13,6.5 C12.9991487,5.51883242 12.7749079,4.55073793 12.34428,3.66912 L6.89,9.12314 Z" id="路径"></path>
                    </g>
                </g>
            </g>
        </g>
    </g>
</svg>