<?xml version="1.0" encoding="UTF-8"?>
<svg width="13px" height="13px" viewBox="0 0 13 13" version="1.1" xmlns="http://www.w3.org/2000/svg" xmlns:xlink="http://www.w3.org/1999/xlink">
    <title>椭圆形</title>
    <g id="2.5" stroke="none" stroke-width="1" fill="none" fill-rule="evenodd">
        <g id="边栏下拉框" transform="translate(-783.000000, -98.000000)" fill="#6A748B" fill-rule="nonzero">
            <g id="编组-32" transform="translate(768.000000, 46.341545)">
                <g id="编组-14" transform="translate(8.000000, 11.658455)">
                    <g id="编组-8" transform="translate(7.000000, 40.000000)">
                        <path d="M6.5,0 C10.0898509,0 13,2.91014913 13,6.5 C13,10.0898509 10.0898509,13 6.5,13 C2.91014913,13 0,10.0898509 0,6.5 C0,2.91014913 2.91014913,0 6.5,0 Z M6.5,1 C3.46243388,1 1,3.46243388 1,6.5 C1,9.53756612 3.46243388,12 6.5,12 C9.53756612,12 12,9.53756612 12,6.5 C12,3.46243388 9.53756612,1 6.5,1 Z" id="椭圆形"></path>
                    </g>
                </g>
            </g>
        </g>
    </g>
</svg>