<?xml version="1.0" encoding="UTF-8"?>
<svg width="16px" height="16px" viewBox="0 0 16 16" version="1.1" xmlns="http://www.w3.org/2000/svg" xmlns:xlink="http://www.w3.org/1999/xlink">
    <title>Fill 3</title>
    <g id="2.6.3" stroke="none" stroke-width="1" fill="none" fill-rule="evenodd">
        <g id="工具栏优化2" transform="translate(-768.000000, -22.000000)" fill="#E0E7FA">
            <g id="mid-top" transform="translate(444.000000, 16.000000)">
                <g id="排序方式" transform="translate(318.000000, 0.000000)">
                    <path d="M20.5427,14.5289 C21.0537,14.5289 21.5107,14.7939 21.7657,15.2349 C21.9952,15.6336 22.01815,16.10034 21.83455,16.512648 L21.7657,16.6479 L19.3757,20.7879 C19.1197,21.2299 18.6627,21.4939 18.1527,21.4939 C17.6928,21.4939 17.27664,21.28006 17.012112,20.915074 L16.9297,20.7879 L14.5387,16.6479 C14.2837,16.2049 14.2837,15.6779 14.5387,15.2349 C14.7691,14.838 15.16231,14.58366 15.610438,14.536761 L15.7617,14.5289 L20.5427,14.5289 Z M20.5427,15.8299 L15.7617,15.8299 C15.7187,15.8299 15.6867,15.8489 15.6647,15.8859 C15.6507,15.9105667 15.6460333,15.9356778 15.6507,15.9606407 L15.6647,15.9979 L18.0557,20.1379 C18.0893,20.1987 18.16578,20.21086 18.217044,20.17438 L18.2497,20.1379 L20.6397,15.9979 C20.6607,15.9609 20.6607,15.9229 20.6397,15.8859 C20.6187,15.8489 20.5857,15.8299 20.5427,15.8299 Z M18.1521,5.9999 C18.6631,5.9999 19.1201,6.2649 19.3751,6.7059 L19.3751,6.7059 L21.7661,10.8469 C22.0211,11.2889 22.0211,11.8159 21.7661,12.2589 C21.5101,12.7009 21.0531,12.9659 20.5431,12.9659 L20.5431,12.9659 L15.7621,12.9659 C15.2511,12.9659 14.7941,12.7009 14.5391,12.2589 C14.2841,11.8159 14.2841,11.2889 14.5391,10.8469 L14.5391,10.8469 L16.9291,6.7059 C17.1851,6.2649 17.6421,5.9999 18.1521,5.9999 Z M18.2491,7.3559 C18.2071,7.2819 18.0981,7.2819 18.0551,7.3559 L18.0551,7.3559 L15.6651,11.4969 C15.6441,11.5339 15.6441,11.5719 15.6651,11.6089 C15.6861,11.6459 15.7191,11.6649 15.7621,11.6649 L15.7621,11.6649 L20.5431,11.6649 C20.5851,11.6649 20.6181,11.6459 20.6401,11.6089 C20.6611,11.5719 20.6611,11.5339 20.6401,11.4969 L20.6401,11.4969 Z M13.253,18.9813 C13.695,18.9813 14.053,19.3393 14.053,19.7813 C14.053,20.2223 13.695,20.5813 13.253,20.5813 L13.253,20.5813 L6.799,20.5813 C6.357,20.5813 6,20.2223 6,19.7813 C6,19.3393 6.357,18.9813 6.799,18.9813 L6.799,18.9813 Z M11.4794,12.9379 C11.9214,12.9379 12.2784,13.2969 12.2784,13.7379 C12.2784,14.1799 11.9214,14.5379 11.4794,14.5379 L11.4794,14.5379 L6.8184,14.5379 C6.3764,14.5379 6.0184,14.1799 6.0184,13.7379 C6.0184,13.2969 6.3764,12.9379 6.8184,12.9379 L6.8184,12.9379 Z M13.253,6.9139 C13.695,6.9139 14.053,7.2719 14.053,7.7139 C14.053,8.1549 13.695,8.5139 13.253,8.5139 L13.253,8.5139 L6.818,8.5139 C6.377,8.5139 6.019,8.1549 6.019,7.7139 C6.019,7.2719 6.377,6.9139 6.818,6.9139 L6.818,6.9139 Z" id="Fill-3"></path>
                </g>
            </g>
        </g>
    </g>
</svg>