<?xml version="1.0" encoding="UTF-8"?>
<svg width="12px" height="11px" viewBox="0 0 12 11" version="1.1" xmlns="http://www.w3.org/2000/svg" xmlns:xlink="http://www.w3.org/1999/xlink">
    <!-- Generator: Sketch 61 (89581) - https://sketch.com -->
    <title>window_restore_normal</title>
    <desc>Created with Sketch.</desc>
    <g id="图标" stroke="none" stroke-width="1" fill="none" fill-rule="evenodd">
        <g id="切图" transform="translate(-249.000000, -210.000000)" fill="#A2ABC3">
            <path d="M258.142857,212.857143 L249.857143,212.857143 L249.857143,219.714286 L258.142857,219.714286 L258.142857,212.857143 Z M259,217.714 L260.142857,217.714286 L260.142857,210.857143 L251.857143,210.857143 L251.857,212 L258.3,212 C258.686599,212 259,212.313401 259,212.7 L259,217.714 Z M259,219.871429 C259,220.258028 258.686599,220.571429 258.3,220.571429 L249.7,220.571429 C249.313401,220.571429 249,220.258028 249,219.871429 L249,212.7 C249,212.313401 249.313401,212 249.7,212 L251,212 L251,210.7 C251,210.313401 251.313401,210 251.7,210 L260.3,210 C260.686599,210 261,210.313401 261,210.7 L261,217.871429 C261,218.258028 260.686599,218.571429 260.3,218.571429 L259,218.571 L259,219.871429 Z" id="window_restore_normal"></path>
        </g>
    </g>
</svg>