<?xml version="1.0" encoding="UTF-8"?>
<svg width="12px" height="11px" viewBox="0 0 12 11" version="1.1" xmlns="http://www.w3.org/2000/svg" xmlns:xlink="http://www.w3.org/1999/xlink">
    <!-- Generator: Sketch 61 (89581) - https://sketch.com -->
    <title>window_restore_hover</title>
    <desc>Created with Sketch.</desc>
    <g id="图标" stroke="none" stroke-width="1" fill="none" fill-rule="evenodd">
        <g id="切图" transform="translate(-249.000000, -240.000000)" fill="#E0E7FA">
            <path d="M258.142857,242.857143 L249.857143,242.857143 L249.857143,249.714286 L258.142857,249.714286 L258.142857,242.857143 Z M259,247.714 L260.142857,247.714286 L260.142857,240.857143 L251.857143,240.857143 L251.857,242 L258.3,242 C258.686599,242 259,242.313401 259,242.7 L259,247.714 Z M259,249.871429 C259,250.258028 258.686599,250.571429 258.3,250.571429 L249.7,250.571429 C249.313401,250.571429 249,250.258028 249,249.871429 L249,242.7 C249,242.313401 249.313401,242 249.7,242 L251,242 L251,240.7 C251,240.313401 251.313401,240 251.7,240 L260.3,240 C260.686599,240 261,240.313401 261,240.7 L261,247.871429 C261,248.258028 260.686599,248.571429 260.3,248.571429 L259,248.571 L259,249.871429 Z" id="window_restore_hover"></path>
        </g>
    </g>
</svg>