<?xml version="1.0" encoding="UTF-8"?>
<svg width="12px" height="12px" viewBox="0 0 12 12" version="1.1" xmlns="http://www.w3.org/2000/svg" xmlns:xlink="http://www.w3.org/1999/xlink">
    <!-- Generator: Sketch 61 (89581) - https://sketch.com -->
    <title>window_close_hover</title>
    <desc>Created with Sketch.</desc>
    <g id="图标" stroke="none" stroke-width="1" fill="none" fill-rule="evenodd">
        <g id="切图" transform="translate(-276.000000, -239.000000)" fill="#E0E7FA">
            <path d="M282,238 C282.338274,238 282.6125,238.274226 282.6125,238.6125 L282.612,244.387 L288.3875,244.3875 C288.725774,244.3875 289,244.661726 289,245 C289,245.338274 288.725774,245.6125 288.3875,245.6125 L282.612,245.612 L282.6125,251.3875 C282.6125,251.725774 282.338274,252 282,252 C281.661726,252 281.3875,251.725774 281.3875,251.3875 L281.387,245.612 L275.6125,245.6125 C275.274226,245.6125 275,245.338274 275,245 C275,244.661726 275.274226,244.3875 275.6125,244.3875 L281.387,244.387 L281.3875,238.6125 C281.3875,238.274226 281.661726,238 282,238 Z" id="window_close_hover" transform="translate(282.000000, 245.000000) rotate(-315.000000) translate(-282.000000, -245.000000) "></path>
        </g>
    </g>
</svg>