<?xml version="1.0" encoding="UTF-8"?>
<svg width="14px" height="14px" viewBox="0 0 14 14" version="1.1" xmlns="http://www.w3.org/2000/svg" xmlns:xlink="http://www.w3.org/1999/xlink">
    <!-- Generator: Sketch 61 (89581) - https://sketch.com -->
    <title>list_all_select</title>
    <desc>Created with Sketch.</desc>
    <g id="图标" stroke="none" stroke-width="1" fill="none" fill-rule="evenodd">
        <g id="画板" transform="translate(-110.000000, -283.000000)" fill-rule="nonzero">
            <g id="list_all_select" transform="translate(110.000000, 283.000000)">
                <path d="M6.99078717,10.4838012 C6.99078717,12.4129395 8.5546628,13.9768151 10.4838011,13.9768151 C12.4129395,13.9768151 13.9768151,12.4129395 13.9768151,10.4838012 C13.9768151,8.5546628 12.4129395,6.99078718 10.4838011,6.99078718 C8.5546628,6.99078718 6.99078717,8.5546628 6.99078717,10.4838012 L6.99078717,10.4838012 Z" id="路径" fill="#44D7B6"></path>
                <path d="M9.08519835,2.45266343 C9.08519835,3.80306027 10.1799113,4.89777321 11.5303081,4.89777321 C12.880705,4.89777321 13.9754179,3.80306027 13.9754179,2.45266343 C13.9754179,1.10226658 12.880705,0.00755364544 11.5303081,0.00755364544 C10.1799113,0.00755364544 9.08519835,1.10226658 9.08519835,2.45266343 L9.08519835,2.45266343 Z" id="路径" fill="#F7B500"></path>
                <path d="M0.0250187126,11.5128431 C0.0250187126,12.8632399 1.11973165,13.9579529 2.4701285,13.9579529 C3.82052534,13.9579529 4.91523828,12.8632399 4.91523828,11.5128431 C4.91523828,10.1624462 3.82052534,9.06773329 2.4701285,9.06773329 C1.11973165,9.06773329 0.0250187126,10.1624462 0.0250187126,11.5128431 Z" id="路径" fill="#FA6400"></path>
                <path d="M0.00615643713,3.4991704 C0.00615643713,5.42830875 1.57003206,6.99218438 3.49917041,6.99218438 C5.42830876,6.99218438 6.99218439,5.42830875 6.99218439,3.4991704 C6.99218439,1.57003205 5.42830876,0.00615642894 3.49917041,0.00615642894 C1.57003206,0.00615642894 0.00615643713,1.57003205 0.00615643713,3.4991704 Z" id="路径" fill="#4F84FA"></path>
            </g>
        </g>
    </g>
</svg>