<?xml version="1.0" encoding="UTF-8"?>
<svg width="14px" height="14px" viewBox="0 0 14 14" version="1.1" xmlns="http://www.w3.org/2000/svg" xmlns:xlink="http://www.w3.org/1999/xlink">
    <!-- Generator: Sketch 61 (89581) - https://sketch.com -->
    <title>list_all_normal</title>
    <desc>Created with Sketch.</desc>
    <g id="图标" stroke="none" stroke-width="1" fill="none" fill-rule="evenodd">
        <g id="画板" transform="translate(-144.000000, -283.000000)" fill="#A2ABC3" fill-rule="nonzero">
            <path d="M154.477645,289.990787 C156.406783,289.990787 157.970659,291.554663 157.970659,293.483801 C157.970659,295.41294 156.406783,296.976815 154.477645,296.976815 C152.548506,296.976815 150.984631,295.41294 150.984631,293.483801 C150.984631,291.554663 152.548506,289.990787 154.477645,289.990787 Z M146.463972,292.067733 C147.814369,292.067733 148.909082,293.162446 148.909082,294.512843 C148.909082,295.86324 147.814369,296.957953 146.463972,296.957953 C145.113575,296.957953 144.018862,295.86324 144.018862,294.512843 C144.018862,293.162446 145.113575,292.067733 146.463972,292.067733 Z M147.493014,283.006156 C149.422152,283.006156 150.986028,284.570032 150.986028,286.49917 C150.986028,288.428309 149.422152,289.992184 147.493014,289.992184 C145.563876,289.992184 144,288.428309 144,286.49917 C144,284.570032 145.563876,283.006156 147.493014,283.006156 Z M155.524152,283.007554 C156.874549,283.007554 157.969261,284.102267 157.969261,285.452663 C157.969261,286.80306 156.874549,287.897773 155.524152,287.897773 C154.173755,287.897773 153.079042,286.80306 153.079042,285.452663 C153.079042,284.102267 154.173755,283.007554 155.524152,283.007554 Z" id="list_all_normal"></path>
        </g>
    </g>
</svg>