<?xml version="1.0" encoding="UTF-8"?>
<svg width="12px" height="14px" viewBox="0 0 12 14" version="1.1" xmlns="http://www.w3.org/2000/svg" xmlns:xlink="http://www.w3.org/1999/xlink">
    <!-- Generator: Sketch 61 (89581) - https://sketch.com -->
    <title>list_unlabel_select</title>
    <desc>Created with Sketch.</desc>
    <g id="图标" stroke="none" stroke-width="1" fill="none" fill-rule="evenodd">
        <g id="画板" transform="translate(-145.000000, -341.000000)" fill="#4F84FA" fill-rule="nonzero">
            <path d="M155.572418,341 C155.971377,341 156.303843,341.323417 156.303843,341.729761 L156.303843,341.729761 L156.303843,354.268374 C156.303843,354.790816 155.763586,355.147403 155.28151,354.940085 L155.28151,354.940085 L151.175555,353.215196 C150.84309,353.07422 150.460754,353.07422 150.128288,353.215196 L150.128288,353.215196 L146.022333,354.940085 C145.531946,355.147403 145,354.790816 145,354.268374 L145,354.268374 L145,341.729761 C145,341.331709 145.324154,341 145.731425,341 L145.731425,341 Z M149.863,347.42 L148.652513,348.631401 C148.405036,348.88882 148.377709,349.267194 148.593507,349.482992 C148.810246,349.699731 149.190964,349.671226 149.44844,349.42075 L149.456209,349.413088 L150.656,348.213 L151.855802,349.413088 L151.866912,349.423986 C152.124332,349.671463 152.502706,349.69879 152.718504,349.482992 C152.935243,349.266253 152.906738,348.885534 152.656262,348.628059 L151.448,347.42 L152.659498,346.209586 C152.906975,345.952166 152.934302,345.573793 152.718504,345.357995 C152.501765,345.141255 152.121046,345.169761 151.863571,345.420237 L151.855802,345.427899 L150.655,346.627 L149.456209,345.427899 L149.445098,345.417001 C149.187678,345.169524 148.809305,345.142197 148.593507,345.357995 C148.376767,345.574734 148.405272,345.955452 148.655749,346.212928 L149.863,347.42 Z" id="list_unlabel_select"></path>
        </g>
    </g>
</svg>