<?xml version="1.0" encoding="UTF-8"?>
<svg width="14px" height="14px" viewBox="0 0 14 14" version="1.1" xmlns="http://www.w3.org/2000/svg" xmlns:xlink="http://www.w3.org/1999/xlink">
    <!-- Generator: Sketch 61 (89581) - https://sketch.com -->
    <title>list_recycle_normal</title>
    <desc>Created with Sketch.</desc>
    <g id="图标" stroke="none" stroke-width="1" fill="none" fill-rule="evenodd">
        <g id="画板" transform="translate(-110.000000, -399.000000)" fill="#A2ABC3" fill-rule="nonzero">
            <path d="M122.188954,402.484475 C122.518696,402.484475 122.776315,402.767778 122.746867,403.094916 L122.745893,403.104845 L121.880717,411.15206 C121.768655,412.19449 120.895667,412.986531 119.851159,412.999831 L119.819443,413 L114.385495,412.987074 C113.34196,412.984583 112.465544,412.205168 112.337859,411.172273 L112.334224,411.140895 L111.46326,403.105313 C111.427686,402.777144 111.681727,402.490263 112.010177,402.484475 L122.188954,402.484475 Z M115.544182,404.906682 C115.237913,404.906682 114.989061,405.152593 114.984115,405.457832 L114.98419,409.317084 C114.991215,409.620487 115.239243,409.864282 115.544182,409.864282 C115.850452,409.864282 116.099304,409.618371 116.10425,409.313131 L116.104175,405.453879 C116.09715,405.150476 115.849122,404.906682 115.544182,404.906682 Z M118.466642,404.906682 C118.160372,404.906682 117.91152,405.152593 117.906574,405.457832 L117.906649,409.317084 C117.913674,409.620487 118.161702,409.864282 118.466642,409.864282 C118.772911,409.864282 119.021763,409.618371 119.026709,409.313131 L119.026634,405.453879 C119.019609,405.150476 118.771581,404.906682 118.466642,404.906682 Z M123.447419,400.926076 C123.754509,400.926076 124.003466,401.176989 124.003466,401.486499 C124.003466,401.791589 123.761576,402.039748 123.46053,402.046773 L110.556065,402.046923 C110.248956,402.046923 110,401.79601 110,401.486499 C110,401.18141 110.24189,400.933251 110.542936,400.926226 L123.447419,400.926076 Z M119.202989,399 C119.512349,399 119.76315,399.250913 119.76315,399.560423 C119.76315,399.865513 119.519468,400.113672 119.216214,400.120697 L114.79609,400.120847 C114.486729,400.120847 114.235947,399.869934 114.235947,399.560423 C114.235947,399.255334 114.47961,399.007175 114.782864,399.00015 L119.202989,399 Z" id="list_recycle_normal"></path>
        </g>
    </g>
</svg>