<?xml version="1.0" encoding="UTF-8"?>
<svg width="14px" height="14px" viewBox="0 0 14 14" version="1.1" xmlns="http://www.w3.org/2000/svg" xmlns:xlink="http://www.w3.org/1999/xlink">
    <!-- Generator: Sketch 61 (89581) - https://sketch.com -->
    <title>folder_yellow_open</title>
    <desc>Created with Sketch.</desc>
    <g id="图标" stroke="none" stroke-width="1" fill="none" fill-rule="evenodd">
        <g id="画板" transform="translate(-143.000000, -577.000000)" fill="#FFF182" fill-rule="nonzero">
            <g id="folder_yellow_open" transform="translate(143.000000, 577.000000)">
                <path d="M9.99819372,2.18160554 L8.19535195,2.18160554 C7.74646001,2.1851253 7.32014658,1.95743967 7.03511331,1.56194487 L6.44151708,0.62581711 C6.1614144,0.226552794 5.73510208,-0.00247725363 5.28679173,0.00545782887 L4.01261201,0.00545782887 C1.72460181,0.00545782887 0.880457174,1.53679517 0.880457174,4.14118638 L0.880457174,6.95515843 C0.877394821,7.26463946 13.1297354,7.26463946 13.1304572,6.95515843 L13.1304572,6.13779316 C13.1413745,3.53340195 12.318671,2.18230413 9.99819372,2.18230415 L9.99819372,2.18160554 Z" id="路径" opacity="0.4"></path>
                <path d="M10.4120749,4.38386882 C11.3255376,4.32634858 12.2320006,4.55016497 12.9515712,5.0103269 C13.0348678,5.06727764 13.1118646,5.12992345 13.1825618,5.19712532 C13.4065526,5.41069058 13.5787456,5.65557874 13.6921409,5.92039966 C13.9154318,6.46370968 14.0183276,7.03492556 13.9973285,7.60784994 L13.9973285,10.5994721 C13.9963804,10.8514392 13.9734571,11.103034 13.9287313,11.3523608 C13.8436617,11.7925512 13.6534197,12.2149173 13.3687541,12.5955953 C13.2377616,12.779498 13.0787798,12.949222 12.8955735,13.1007484 C12.0655726,13.7203619 10.9644388,14.0427296 9.83949825,13.9954444 L4.15153049,13.9954444 C3.02486122,14.0425371 1.92194669,13.7205173 1.08915554,13.1013179 C0.908109967,12.9493184 0.751254549,12.7794136 0.622274597,12.5955953 C0.339357181,12.2151783 0.15321798,11.7924086 0.0748969528,11.3523608 C0.0250930634,11.1036358 0,10.8520458 0,10.6000416 L0,7.60841946 C0,7.35840572 0.0167993141,7.1089615 0.0496979817,6.86065629 C0.06859721,6.74447679 0.112695409,6.63285335 0.112695409,6.52179943 C0.175692837,6.22223856 0.290488144,5.93122031 0.454281457,5.65785676 C0.940061627,4.81384687 1.93542099,4.38443832 3.56635439,4.38443833 L10.4120749,4.38386882 Z M3.6376748,9.62553171 C3.43474596,9.61759003 3.24280494,9.69909524 3.13834498,9.83756552 C3.03388501,9.9760358 3.03388501,10.1489642 3.13834498,10.2874345 C3.24280494,10.4259048 3.43474596,10.50741 3.6376748,10.4994683 L10.3587404,10.4994683 C10.5058216,10.5044811 10.6493278,10.4625955 10.757354,10.3831237 C10.8653802,10.303652 10.9289729,10.1931809 10.9339938,10.0762711 C10.9422306,9.97364127 10.8996503,9.87251883 10.8153436,9.79449278 C10.7183456,9.68935798 10.5647807,9.62658118 10.4007346,9.625 L3.6376748,9.62553171 Z" id="形状"></path>
            </g>
        </g>
    </g>
</svg>