<?xml version="1.0" encoding="UTF-8"?>
<svg width="12px" height="14px" viewBox="0 0 12 14" version="1.1" xmlns="http://www.w3.org/2000/svg" xmlns:xlink="http://www.w3.org/1999/xlink">
    <!-- Generator: Sketch 61 (89581) - https://sketch.com -->
    <title>list_unlabel_normal</title>
    <desc>Created with Sketch.</desc>
    <g id="图标" stroke="none" stroke-width="1" fill="none" fill-rule="evenodd">
        <g id="画板" transform="translate(-111.000000, -341.000000)" fill="#A2ABC3" fill-rule="nonzero">
            <path d="M121.572418,341 C121.971377,341 122.303843,341.323417 122.303843,341.729761 L122.303843,341.729761 L122.303843,354.268374 C122.303843,354.790816 121.763586,355.147403 121.28151,354.940085 L121.28151,354.940085 L117.175555,353.215196 C116.84309,353.07422 116.460754,353.07422 116.128288,353.215196 L116.128288,353.215196 L112.022333,354.940085 C111.531946,355.147403 111,354.790816 111,354.268374 L111,354.268374 L111,341.729761 C111,341.331709 111.324154,341 111.731425,341 L111.731425,341 Z M115.863,347.42 L114.652513,348.631401 C114.405036,348.88882 114.377709,349.267194 114.593507,349.482992 C114.810246,349.699731 115.190964,349.671226 115.44844,349.42075 L115.456209,349.413088 L116.656,348.213 L117.855802,349.413088 L117.866912,349.423986 C118.124332,349.671463 118.502706,349.69879 118.718504,349.482992 C118.935243,349.266253 118.906738,348.885534 118.656262,348.628059 L117.448,347.42 L118.659498,346.209586 C118.906975,345.952166 118.934302,345.573793 118.718504,345.357995 C118.501765,345.141255 118.121046,345.169761 117.863571,345.420237 L117.855802,345.427899 L116.655,346.627 L115.456209,345.427899 L115.445098,345.417001 C115.187678,345.169524 114.809305,345.142197 114.593507,345.357995 C114.376767,345.574734 114.405272,345.955452 114.655749,346.212928 L115.863,347.42 Z" id="list_unlabel_normal"></path>
        </g>
    </g>
</svg>