<?xml version="1.0" encoding="UTF-8"?>
<svg width="12px" height="14px" viewBox="0 0 12 14" version="1.1" xmlns="http://www.w3.org/2000/svg" xmlns:xlink="http://www.w3.org/1999/xlink">
    <!-- Generator: Sketch 61 (89581) - https://sketch.com -->
    <title>list_labeling_select</title>
    <desc>Created with Sketch.</desc>
    <g id="图标" stroke="none" stroke-width="1" fill="none" fill-rule="evenodd">
        <g id="画板" transform="translate(-145.000000, -370.000000)" fill="#4F84FA" fill-rule="nonzero">
            <path d="M156.000866,371.75 C156.349955,371.75 156.640863,372.03299 156.640863,372.38854 L156.640863,372.38854 L156.640863,383.359827 C156.640863,383.816964 156.168138,384.128978 155.746321,383.947574 L155.746321,383.947574 L152.153611,382.438297 C151.862703,382.314942 151.528159,382.314942 151.237252,382.438297 L151.237252,382.438297 L147.644541,383.947574 C147.215452,384.128978 146.75,383.816964 146.75,383.359827 L146.75,383.359827 L146.75,372.38854 C146.75,372.040246 147.033635,371.75 147.389997,371.75 L147.389997,371.75 Z M154.250866,370 C154.56822,370 154.83749,370.233876 154.883825,370.543529 L154.890863,370.63854 L154.89,370.875 L146.514997,370.875 C146.158635,370.875 145.875,371.165246 145.875,371.51354 L145.874559,382.205657 C145.481376,382.357582 145.064306,382.101662 145.006731,381.703992 L145,381.609827 L145,370.63854 C145,370.321909 145.234409,370.053252 145.544769,370.007022 L145.639997,370 L154.250866,370 Z M153.87316,377.168258 L149.786289,377.168333 C149.464991,377.175356 149.206817,377.423322 149.206817,377.728187 C149.206817,378.03438 149.467232,378.283171 149.790475,378.288115 L153.877346,378.28804 C154.198644,378.281017 154.456817,378.033051 154.456817,377.728187 C154.456817,377.421993 154.196402,377.173202 153.87316,377.168258 Z M152.317712,374.543258 L149.593132,374.543333 C149.378933,374.550356 149.206817,374.798322 149.206817,375.103187 C149.206817,375.40938 149.380427,375.658171 149.595922,375.663115 L152.320503,375.66304 C152.534702,375.656017 152.706817,375.408051 152.706817,375.103187 C152.706817,374.796993 152.533207,374.548202 152.317712,374.543258 Z" id="list_labeling_select"></path>
        </g>
    </g>
</svg>