<?xml version="1.0" encoding="UTF-8"?>
<svg width="14px" height="14px" viewBox="0 0 14 14" version="1.1" xmlns="http://www.w3.org/2000/svg" xmlns:xlink="http://www.w3.org/1999/xlink">
    <!-- Generator: Sketch 61 (89581) - https://sketch.com -->
    <title>collect_orange_open</title>
    <desc>Created with Sketch.</desc>
    <g id="图标" stroke="none" stroke-width="1" fill="none" fill-rule="evenodd">
        <g id="切图" transform="translate(-143.000000, -779.000000)" fill="#F7B500" fill-rule="nonzero">
            <g id="collect_orange_open" transform="translate(143.000000, 779.000000)">
                <path d="M5.28679173,0.000199601666 C5.73510208,-0.00773548084 6.1614144,0.221294566 6.44151708,0.620558883 L6.44151708,0.620558883 L7.03511331,1.55668664 C7.32014658,1.95218144 7.74646001,2.17986707 8.19535195,2.17634731 L8.19535195,2.17634731 L9.99819372,2.17634731 C12.318671,2.1770459 13.1413745,3.52814372 13.1304572,6.13253493 L13.1304572,6.13253493 L13.1304572,6.9499002 C13.1303216,7.00802691 12.6979939,7.05523627 11.9958476,7.09152827 C11.9984397,7.0613156 12,7.03073878 12,7 C12,5.8954305 9.98528137,5 7.5,5 C5.01471863,5 3,5.8954305 3,7 C3,7.04431915 3.00324348,7.0883016 3.00963069,7.13190304 C1.74196747,7.09236677 0.879644473,7.03203171 0.880457174,6.9499002 L0.880457174,6.9499002 L0.880457174,4.13592815 C0.880457174,1.53153694 1.72460181,0.000199601666 4.01261201,0.000199601666 L4.01261201,0.000199601666 Z" id="路径-6" opacity="0.4"></path>
                <path d="M12.9515712,5.00506868 C13.0348678,5.06201942 13.1118646,5.12466522 13.1825618,5.19186709 C13.4065526,5.40543235 13.5787456,5.65032052 13.6921409,5.91514144 C13.9154318,6.45845145 14.0183276,7.02966733 13.9973285,7.60259172 L13.9973285,10.5942138 C13.9963804,10.846181 13.9734571,11.0977758 13.9287313,11.3471026 C13.8436617,11.7872929 13.6534197,12.2096591 13.3687541,12.5903371 C13.2377616,12.7742397 13.0787798,12.9439638 12.8955735,13.0954901 C12.0655726,13.7151036 10.9644388,14.0374714 9.83949825,13.9901862 L4.15153049,13.9901862 C3.02486122,14.0372788 1.92194669,13.7152591 1.08915554,13.0960596 C0.908109967,12.9440602 0.751254549,12.7741553 0.622274597,12.5903371 C0.339357181,12.20992 0.15321798,11.7871503 0.0748969528,11.3471026 C0.0250930634,11.0983775 0,10.8467875 0,10.5947834 L0,7.60316123 C0,7.3531475 0.0167993141,7.10370328 0.0496979817,6.85539807 C0.06859721,6.73921857 0.112695409,6.62759512 0.112695409,6.5165412 C0.175692837,6.21698033 0.290488144,5.92596208 0.454281457,5.65259854 C0.940061627,4.80858864 1.93542099,4.37918009 3.56635439,4.37918011 L10.4120749,4.37861059 C11.3255376,4.32109036 12.2320006,4.54490674 12.9515712,5.00506868 Z M6.99832675,5.44474177 C6.4758696,5.44474177 6.05469493,5.85388288 6.05469493,6.35127012 C6.05469493,6.63907281 6.29436337,7.39618443 6.38361229,7.69301229 L6.65537023,8.60355183 L5.96344041,7.92465837 C5.73781112,7.70003187 5.17624489,7.12542928 4.91351212,6.98102654 C4.46425913,6.73032733 3.88664815,6.88074685 3.62692377,7.3109467 C3.36619659,7.74214934 3.51962451,8.29870159 3.97288868,8.5504036 C4.22860187,8.69179795 5.03986452,8.87230138 5.35173434,8.94851394 L6.30338854,9.17715162 L5.35173434,9.40980049 C5.03986452,9.48300466 4.22860187,9.66451089 3.97288868,9.80791084 C3.5206273,10.05861 3.36719939,10.6121539 3.62592097,11.0433565 C3.88564535,11.4745592 4.46225354,11.6239759 4.91351212,11.3772879 C5.17624489,11.2298768 5.73781112,10.6552742 5.96344041,10.4316505 L6.65637303,9.75175421 L6.38461509,10.6642993 C6.29536617,10.9631328 6.05569772,11.7192416 6.05569772,12.0080471 C6.05569772,12.5034288 6.4758696,12.9105643 6.99932955,12.9105643 C7.5227895,12.9105643 7.94296138,12.5034288 7.94296138,12.0080471 C7.94296138,11.7182388 7.70229014,10.9631328 7.61404402,10.6642993 L7.34228607,9.75175421 L8.03521869,10.4316505 C8.26084798,10.656277 8.82241421,11.2298768 9.08514699,11.3762851 C9.53540277,11.6239759 10.1130137,11.4745592 10.3737409,11.0433565 C10.6334653,10.6121539 10.4800374,10.05861 10.027776,9.80791084 C9.77106003,9.66551369 8.95779179,9.48300466 8.64893036,9.40980049 L7.69627336,9.17815442 L8.64792756,8.94951674 C8.95678899,8.87330418 9.77106003,8.69280075 10.0267732,8.548398 C10.4790346,8.29970438 10.6324625,7.74214934 10.3717353,7.3109467 C10.112011,6.87974406 9.53439997,6.72932453 9.08414419,6.97902094 C8.82241421,7.12442648 8.25984518,7.70003187 8.03421589,7.92465837 L7.34128328,8.60355183 L7.61304122,7.69301229 C7.70128734,7.39618443 7.94195858,6.63907281 7.94195858,6.35127012 C7.94195858,5.85187729 7.52178671,5.44474177 6.99832675,5.44474177 Z" id="蒙版"></path>
            </g>
        </g>
    </g>
</svg>