<?xml version="1.0" encoding="UTF-8"?>
<svg width="14px" height="14px" viewBox="0 0 14 14" version="1.1" xmlns="http://www.w3.org/2000/svg" xmlns:xlink="http://www.w3.org/1999/xlink">
    <!-- Generator: Sketch 61 (89581) - https://sketch.com -->
    <title>folder_red_close</title>
    <desc>Created with Sketch.</desc>
    <g id="图标" stroke="none" stroke-width="1" fill="none" fill-rule="evenodd">
        <g id="画板" transform="translate(-110.000000, -601.000000)" fill="#F0695A" fill-rule="nonzero">
            <g id="folder_red_close" transform="translate(110.000000, 601.000000)">
                <path d="M10.4034618,2.18160554 L8.3474738,2.18160554 C7.83555064,2.1851253 7.34937636,1.95743967 7.0243201,1.56194487 L6.347374,0.62581711 C6.02794066,0.226552794 5.54176764,-0.00247725363 5.03050774,0.00545782887 L3.57741392,0.00545782887 C0.968132485,0.00545782887 0.00545717408,1.53679517 0.00545717408,4.14118638 L0.00545717408,6.95515843 C0.00196482036,7.26463946 13.9747193,7.26463946 13.9755424,6.95515843 L13.9755424,6.13779316 C13.9879928,3.53340195 13.0497692,2.18230413 10.4034618,2.18230415 L10.4034618,2.18160554 Z" id="路径" opacity="0.4"></path>
                <path d="M10.3971744,2.18160554 C11.308851,2.11104666 12.2135417,2.38559756 12.9317053,2.95006861 C13.0148391,3.01992889 13.0916854,3.09677519 13.1622443,3.17921033 C13.3857972,3.44118638 13.5576534,3.74158558 13.6708271,4.06643588 C13.8936814,4.73290295 13.996376,5.43360156 13.9754179,6.13639596 L13.9754179,9.80615644 C13.9744717,10.1152393 13.9515932,10.4238654 13.9069548,10.7297093 C13.8220516,11.2696817 13.6321816,11.7877894 13.3480726,12.2547592 C13.2173362,12.4803488 13.0586652,12.6885457 12.8758171,12.8744199 C12.0474392,13.6344869 10.9484583,14.0299287 9.82571732,13.9719249 L4.148871,13.9719249 C3.02440467,14.0296925 1.92364661,13.6346776 1.09248379,12.8751185 C0.911792207,12.6886639 0.755243481,12.4802452 0.626515719,12.2547592 C0.344151479,11.7881096 0.158376229,11.2695068 0.0802083388,10.7297093 C0.0305018288,10.4246035 0.00545782887,10.1159833 0.00545782887,9.80685505 L0.00545782887,6.13709457 C0.00545782887,5.83040793 0.0222242959,5.52441991 0.0550586382,5.21982909 C0.0739209136,5.07731412 0.11793289,4.94038796 0.11793289,4.80416043 C0.180807141,4.43669536 0.295377994,4.07970934 0.458851048,3.74437998 C0.943681393,2.70905064 1.93709457,2.18230413 3.56483907,2.18230415 L10.3971744,2.18160554 Z M10.5648391,8.31254367 L3.47751373,8.31254367 C3.26483418,8.30206884 3.06367042,8.40957163 2.95419117,8.59220954 C2.84471191,8.77484744 2.84471191,9.0029345 2.95419117,9.18557241 C3.06367042,9.36821032 3.26483418,9.47571311 3.47751373,9.46523828 L10.5215257,9.46523828 C10.6756741,9.47184996 10.8260757,9.41660419 10.9392926,9.31178348 C11.0525095,9.20696277 11.1191578,9.06125499 11.1244199,8.90705464 C11.1330525,8.77168913 11.0884263,8.63831183 11.0000686,8.53539795 C10.8984098,8.39672849 10.7374661,8.31392788 10.5655377,8.31184236 L10.5648391,8.31254367 Z" id="形状"></path>
            </g>
        </g>
    </g>
</svg>