<?xml version="1.0" encoding="UTF-8"?>
<svg width="14px" height="14px" viewBox="0 0 14 14" version="1.1" xmlns="http://www.w3.org/2000/svg" xmlns:xlink="http://www.w3.org/1999/xlink">
    <!-- Generator: Sketch 61 (89581) - https://sketch.com -->
    <title>list_unfiled_normal</title>
    <desc>Created with Sketch.</desc>
    <g id="图标" stroke="none" stroke-width="1" fill="none" fill-rule="evenodd">
        <g id="画板" transform="translate(-110.000000, -313.000000)" fill="#A2ABC3" fill-rule="nonzero">
            <path d="M116.65729,313.245278 C116.900893,313.445971 117.042675,313.744568 117.044233,314.060191 L117.044233,318.53007 C117.044233,318.902865 117.192325,319.26039 117.45593,319.523995 C117.719536,319.787601 118.077061,319.935693 118.449856,319.935693 L122.919735,319.93499 C123.234495,319.936318 123.532424,320.077302 123.733035,320.319853 C123.933645,320.562405 124.016234,320.881493 123.95849,321.190914 C123.466173,323.904688 121.43205,326.07966 118.757259,326.752295 C116.082468,327.42493 113.261484,326.47088 111.544032,324.312801 C110.004854,322.379165 109.594427,319.779192 110.463123,317.465454 C111.331819,315.151715 113.351952,313.464299 115.78339,313.021436 C116.093477,312.962565 116.413688,313.044584 116.65729,313.245278 Z M119.662908,313.043223 C120.704579,313.281257 121.657712,313.808989 122.412305,314.565512 L122.413008,314.566215 C123.17016,315.320828 123.698396,316.274236 123.936703,317.316315 C124.004239,317.628653 123.926459,317.954766 123.725222,318.202999 C123.523985,318.451232 123.221015,318.594789 122.901462,318.593334 L119.79082,318.593334 C119.418025,318.593334 119.0605,318.445231 118.796894,318.181626 C118.533289,317.918021 118.385185,317.560495 118.385185,317.187701 L118.385185,314.078464 C118.383684,313.758759 118.527335,313.45564 118.775741,313.254373 C119.024147,313.053107 119.350467,312.975441 119.662908,313.043223 Z" id="list_unfiled_normal"></path>
        </g>
    </g>
</svg>