<?xml version="1.0" encoding="UTF-8"?>
<svg width="14px" height="14px" viewBox="0 0 14 14" version="1.1" xmlns="http://www.w3.org/2000/svg" xmlns:xlink="http://www.w3.org/1999/xlink">
    <!-- Generator: Sketch 61 (89581) - https://sketch.com -->
    <title>list_recycle_select</title>
    <desc>Created with Sketch.</desc>
    <g id="图标" stroke="none" stroke-width="1" fill="none" fill-rule="evenodd">
        <g id="画板" transform="translate(-143.000000, -399.000000)" fill="#4F84FA" fill-rule="nonzero">
            <path d="M155.188954,402.484475 C155.518696,402.484475 155.776315,402.767778 155.746867,403.094916 L155.745893,403.104845 L154.880717,411.15206 C154.768655,412.19449 153.895667,412.986531 152.851159,412.999831 L152.819443,413 L147.385495,412.987074 C146.34196,412.984583 145.465544,412.205168 145.337859,411.172273 L145.334224,411.140895 L144.46326,403.105313 C144.427686,402.777144 144.681727,402.490263 145.010177,402.484475 L155.188954,402.484475 Z M148.544182,404.906682 C148.237913,404.906682 147.989061,405.152593 147.984115,405.457832 L147.98419,409.317084 C147.991215,409.620487 148.239243,409.864282 148.544182,409.864282 C148.850452,409.864282 149.099304,409.618371 149.10425,409.313131 L149.104175,405.453879 C149.09715,405.150476 148.849122,404.906682 148.544182,404.906682 Z M151.466642,404.906682 C151.160372,404.906682 150.91152,405.152593 150.906574,405.457832 L150.906649,409.317084 C150.913674,409.620487 151.161702,409.864282 151.466642,409.864282 C151.772911,409.864282 152.021763,409.618371 152.026709,409.313131 L152.026634,405.453879 C152.019609,405.150476 151.771581,404.906682 151.466642,404.906682 Z M156.447419,400.926076 C156.754509,400.926076 157.003466,401.176989 157.003466,401.486499 C157.003466,401.791589 156.761576,402.039748 156.46053,402.046773 L143.556065,402.046923 C143.248956,402.046923 143,401.79601 143,401.486499 C143,401.18141 143.24189,400.933251 143.542936,400.926226 L156.447419,400.926076 Z M152.202989,399 C152.512349,399 152.76315,399.250913 152.76315,399.560423 C152.76315,399.865513 152.519468,400.113672 152.216214,400.120697 L147.79609,400.120847 C147.486729,400.120847 147.235947,399.869934 147.235947,399.560423 C147.235947,399.255334 147.47961,399.007175 147.782864,399.00015 L152.202989,399 Z" id="list_recycle_select"></path>
        </g>
    </g>
</svg>