<?xml version="1.0" encoding="UTF-8"?>
<svg width="14px" height="14px" viewBox="0 0 14 14" version="1.1" xmlns="http://www.w3.org/2000/svg" xmlns:xlink="http://www.w3.org/1999/xlink">
    <!-- Generator: Sketch 61 (89581) - https://sketch.com -->
    <title>list_unfiled_select</title>
    <desc>Created with Sketch.</desc>
    <g id="图标" stroke="none" stroke-width="1" fill="none" fill-rule="evenodd">
        <g id="画板" transform="translate(-144.000000, -313.000000)" fill="#4F84FA" fill-rule="nonzero">
            <path d="M150.642709,313.245278 C150.886312,313.445971 151.028094,313.744568 151.029652,314.060191 L151.029652,318.53007 C151.029652,318.902865 151.177744,319.26039 151.441349,319.523995 C151.704955,319.787601 152.06248,319.935693 152.435275,319.935693 L156.905154,319.93499 C157.219914,319.936318 157.517843,320.077302 157.718454,320.319853 C157.919064,320.562405 158.001653,320.881493 157.943909,321.190914 C157.451592,323.904688 155.417469,326.07966 152.742678,326.752295 C150.067887,327.42493 147.246903,326.47088 145.529451,324.312801 C143.990273,322.379165 143.579846,319.779192 144.448542,317.465454 C145.317238,315.151715 147.337371,313.464299 149.768809,313.021436 C150.078896,312.962565 150.399107,313.044584 150.642709,313.245278 Z M153.648327,313.043223 C154.689998,313.281257 155.643131,313.808989 156.397724,314.565512 L156.398427,314.566215 C157.155579,315.320828 157.683815,316.274236 157.922122,317.316315 C157.989658,317.628653 157.911878,317.954766 157.710641,318.202999 C157.509404,318.451232 157.206434,318.594789 156.886881,318.593334 L153.776238,318.593334 C153.403444,318.593334 153.045919,318.445231 152.782313,318.181626 C152.518708,317.918021 152.370604,317.560495 152.370604,317.187701 L152.370604,314.078464 C152.369103,313.758759 152.512754,313.45564 152.76116,313.254373 C153.009566,313.053107 153.335886,312.975441 153.648327,313.043223 Z" id="list_unfiled_select"></path>
        </g>
    </g>
</svg>