<?xml version="1.0" encoding="UTF-8"?>
<svg width="12px" height="14px" viewBox="0 0 12 14" version="1.1" xmlns="http://www.w3.org/2000/svg" xmlns:xlink="http://www.w3.org/1999/xlink">
    <!-- Generator: Sketch 61 (89581) - https://sketch.com -->
    <title>list_labeling_normal</title>
    <desc>Created with Sketch.</desc>
    <g id="图标" stroke="none" stroke-width="1" fill="none" fill-rule="evenodd">
        <g id="画板" transform="translate(-111.000000, -370.000000)" fill="#A2ABC3" fill-rule="nonzero">
            <path d="M122.000866,371.75 C122.349955,371.75 122.640863,372.03299 122.640863,372.38854 L122.640863,372.38854 L122.640863,383.359827 C122.640863,383.816964 122.168138,384.128978 121.746321,383.947574 L121.746321,383.947574 L118.153611,382.438297 C117.862703,382.314942 117.528159,382.314942 117.237252,382.438297 L117.237252,382.438297 L113.644541,383.947574 C113.215452,384.128978 112.75,383.816964 112.75,383.359827 L112.75,383.359827 L112.75,372.38854 C112.75,372.040246 113.033635,371.75 113.389997,371.75 L113.389997,371.75 Z M120.250866,370 C120.56822,370 120.83749,370.233876 120.883825,370.543529 L120.890863,370.63854 L120.89,370.875 L112.514997,370.875 C112.158635,370.875 111.875,371.165246 111.875,371.51354 L111.874559,382.205657 C111.481376,382.357582 111.064306,382.101662 111.006731,381.703992 L111,381.609827 L111,370.63854 C111,370.321909 111.234409,370.053252 111.544769,370.007022 L111.639997,370 L120.250866,370 Z M119.87316,377.168258 L115.786289,377.168333 C115.464991,377.175356 115.206817,377.423322 115.206817,377.728187 C115.206817,378.03438 115.467232,378.283171 115.790475,378.288115 L119.877346,378.28804 C120.198644,378.281017 120.456817,378.033051 120.456817,377.728187 C120.456817,377.421993 120.196402,377.173202 119.87316,377.168258 Z M118.317712,374.543258 L115.593132,374.543333 C115.378933,374.550356 115.206817,374.798322 115.206817,375.103187 C115.206817,375.40938 115.380427,375.658171 115.595922,375.663115 L118.320503,375.66304 C118.534702,375.656017 118.706817,375.408051 118.706817,375.103187 C118.706817,374.796993 118.533207,374.548202 118.317712,374.543258 Z" id="list_labeling_normal"></path>
        </g>
    </g>
</svg>