<?xml version="1.0" encoding="UTF-8"?>
<svg width="14px" height="14px" viewBox="0 0 14 14" version="1.1" xmlns="http://www.w3.org/2000/svg" xmlns:xlink="http://www.w3.org/1999/xlink">
    <!-- Generator: Sketch 61 (89581) - https://sketch.com -->
    <title>collect_orange_close</title>
    <desc>Created with Sketch.</desc>
    <g id="图标" stroke="none" stroke-width="1" fill="none" fill-rule="evenodd">
        <g id="切图" transform="translate(-110.000000, -779.000000)" fill="#F7B500" fill-rule="nonzero">
            <g id="collect_orange_close" transform="translate(110.000000, 779.000000)">
                <path d="M5.03050774,0.00545782887 C5.54176764,-0.00247725363 6.02794066,0.226552794 6.347374,0.62581711 L6.347374,0.62581711 L7.0243201,1.56194487 C7.34937636,1.95743967 7.83555064,2.1851253 8.3474738,2.18160554 L8.3474738,2.18160554 L10.4034618,2.18160554 C13.0497692,2.18230413 13.9879928,3.53340195 13.9755424,6.13779316 L13.9755424,6.13779316 L13.9755424,6.95515843 C13.9753476,7.02840652 13.1924786,7.08431823 11.9974799,7.12289354 C11.999226,7.08200931 12,7.04107696 12,7 C12,4.790861 9.76142375,3 7,3 C4.23857625,3 2,4.790861 2,7 L2.00306419,7.12359686 C0.796281331,7.08499905 0.00462556519,7.0288529 0.00545717408,6.95515843 L0.00545717408,6.95515843 L0.00545717408,4.14118638 C0.00545717408,1.53679517 0.968132485,0.00545782887 3.57741392,0.00545782887 L3.57741392,0.00545782887 Z" id="路径-5" opacity="0.4"></path>
                <path d="M12.9317053,2.95006861 C13.0148391,3.01992889 13.0916854,3.09677519 13.1622443,3.17921033 C13.3857972,3.44118638 13.5576534,3.74158558 13.6708271,4.06643588 C13.8936814,4.73290295 13.996376,5.43360156 13.9754179,6.13639596 L13.9754179,9.80615644 C13.9744717,10.1152393 13.9515932,10.4238654 13.9069548,10.7297093 C13.8220516,11.2696817 13.6321816,11.7877894 13.3480726,12.2547592 C13.2173362,12.4803488 13.0586652,12.6885457 12.8758171,12.8744199 C12.0474392,13.6344869 10.9484583,14.0299287 9.82571732,13.9719249 L4.148871,13.9719249 C3.02440467,14.0296925 1.92364661,13.6346776 1.09248379,12.8751185 C0.911792207,12.6886639 0.755243481,12.4802452 0.626515719,12.2547592 C0.344151479,11.7881096 0.158376229,11.2695068 0.0802083388,10.7297093 C0.0305018288,10.4246035 0.00545782887,10.1159833 0.00545782887,9.80685505 L0.00545782887,6.13709457 C0.00545782887,5.83040793 0.0222242959,5.52441991 0.0550586382,5.21982909 C0.0739209136,5.07731412 0.11793289,4.94038796 0.11793289,4.80416043 C0.180807141,4.43669536 0.295377994,4.07970934 0.458851048,3.74437998 C0.943681393,2.70905064 1.93709457,2.18230413 3.56483907,2.18230415 L10.3971744,2.18160554 C11.308851,2.11104666 12.2135417,2.38559756 12.9317053,2.95006861 Z M6.99808772,3.81 C6.40099383,3.81 5.91965134,4.27758984 5.91965134,4.8460324 C5.91965134,5.17494976 6.19355814,6.04022018 6.2955569,6.37945203 L6.60613741,7.42006863 L5.81536047,6.64419039 C5.55749843,6.3874744 4.91570845,5.73078572 4.61544242,5.56575402 C4.10201044,5.27924063 3.4418836,5.45114866 3.14505574,5.94280563 C2.84708182,6.43560865 3.02242801,7.07166836 3.5404442,7.3593278 C3.83268786,7.52092135 4.75984517,7.72721098 5.11626782,7.81431105 L6.20387262,8.07561126 L5.11626782,8.34149568 C4.75984517,8.42515759 3.83268786,8.63259327 3.5404442,8.79647893 C3.02357406,9.08299231 2.84822787,9.71561387 3.14390968,10.2084169 C3.44073755,10.7012199 4.09971833,10.8719819 4.61544242,10.5900527 C4.91570845,10.4215828 5.55749843,9.76489417 5.81536047,9.50932423 L6.60728346,8.73229993 L6.29670296,9.77520865 C6.19470419,10.1167326 5.9207974,10.980857 5.9207974,11.3109204 C5.9207974,11.8770708 6.40099383,12.3423686 6.99923377,12.3423686 C7.59747372,12.3423686 8.07767015,11.8770708 8.07767015,11.3109204 C8.07767015,10.9797109 7.8026173,10.1167326 7.70176459,9.77520865 L7.39118408,8.73229993 L8.18310707,9.50932423 L8.40393225,9.72981927 C8.70934373,10.0332829 9.14948488,10.4587659 9.38302513,10.5889067 C9.89760316,10.8719819 10.55773,10.7012199 10.8557039,10.2084169 C11.1525318,9.71561387 10.9771856,9.08299231 10.4603154,8.79647893 C10.1669257,8.63373933 9.23747633,8.42515759 8.88449184,8.34149568 L7.79574098,8.07675731 L8.88334578,7.8154571 C9.23633027,7.72835704 10.1669257,7.5220674 10.4591694,7.35703569 C10.9760395,7.07281441 11.1513857,6.43560865 10.8534118,5.94280563 C10.5565839,5.45000261 9.89645711,5.27809458 9.38187907,5.56346191 C9.0827591,5.72963967 8.43982307,6.3874744 8.18196102,6.64419039 L7.39003803,7.42006863 L7.70061854,6.37945203 C7.80147125,6.04022018 8.0765241,5.17494976 8.0765241,4.8460324 C8.0765241,4.27529774 7.59632766,3.81 6.99808772,3.81 Z" id="路径-4"></path>
            </g>
        </g>
    </g>
</svg>