<?xml version="1.0" standalone="no"?><!DOCTYPE svg PUBLIC "-//W3C//DTD SVG 1.1//EN" "http://www.w3.org/Graphics/SVG/1.1/DTD/svg11.dtd"><svg t="1637047934296" class="icon" viewBox="0 0 1024 1024" version="1.1" xmlns="http://www.w3.org/2000/svg" p-id="958" width="32" height="32" xmlns:xlink="http://www.w3.org/1999/xlink"><defs><style type="text/css"></style></defs><path d="M512 20.675477C240.587372 20.675477 20.675477 240.587372 20.675477 512S240.587372 1002.948605 512 1002.948605s490.948605-219.911894 490.948605-490.948605S783.036711 20.675477 512 20.675477zM445.086637 221.791483c0-36.839941 30.073421-66.913363 66.913363-66.913363S578.913363 184.951542 578.913363 221.791483v312.387665c0 36.839941-30.073421 66.913363-66.913363 66.913363s-66.913363-30.073421-66.913363-66.913363V221.791483z m66.913363 617.256975c-45.110132 0-81.574156-36.464023-81.574156-81.574156s36.464023-81.574156 81.574156-81.574155 81.574156 36.464023 81.574156 81.574155-36.464023 81.574156-81.574156 81.574156z" fill="#9399B4" p-id="959"></path></svg>