<?xml version="1.0" encoding="UTF-8"?>
<svg width="10px" height="10px" viewBox="0 0 10 10" version="1.1" xmlns="http://www.w3.org/2000/svg" xmlns:xlink="http://www.w3.org/1999/xlink">
    <!-- Generator: Sketch 61 (89581) - https://sketch.com -->
    <title>update_version</title>
    <desc>Created with Sketch.</desc>
    <g id="图标" stroke="none" stroke-width="1" fill="none" fill-rule="evenodd">
        <g id="切图" transform="translate(-598.000000, -601.000000)" fill="#A2ABC3" fill-rule="nonzero">
            <path d="M607.724071,605.5354 L598.693176,601.048578 C598.633777,601.018019 598.563556,601 598.489164,601 L598.450272,601 L598.439866,601.001732 L598.431192,601.001732 L598.415564,601.003465 L598.410355,601.003465 L598.38953,601.010406 C598.334352,601.020276 598.28542,601.041527 598.243295,601.071672 L598.259398,601.058985 C598.196168,601.092436 598.144076,601.139209 598.105379,601.195875 L598.176112,601.116237 L598.160497,601.131852 L598.155288,601.135317 L598.143137,601.147468 L598.137928,601.154409 C598.128973,601.162851 598.122129,601.173404 598.118201,601.185298 L598.118848,601.175209 L598.111906,601.183883 L598.103232,601.196034 L598.098023,601.202975 L598.085872,601.218591 L598.08414,601.222055 C598.073234,601.237134 598.065389,601.255153 598.061888,601.274684 L598.071989,601.2446 C598.041661,601.291385 598.021557,601.347418 598.016103,601.407695 L598.023411,601.357372 C598.00915,601.400059 598.000634,601.449247 598,601.500326 L598.000854,601.562117 L598.002574,601.581197 L598.002574,601.582917 C598.015054,601.663239 598.043418,601.735106 598.084469,601.797946 L598.082395,601.787649 L600.750892,605.993394 L598.059839,610.240763 C598.044772,610.263503 598.034122,610.290489 598.029791,610.319536 L598.039026,610.284133 L598.02862,610.315363 L598.023411,610.32577 L598.014737,610.358733 L598.013005,610.370883 L598.006063,610.400382 L598.006063,610.409056 C598.003843,610.421084 598.002562,610.434955 598.002513,610.449119 L598.002586,610.492342 C598.002586,610.532246 598.007795,610.573883 598.019934,610.613788 L598.019934,610.618997 C598.033085,610.657755 598.041759,610.702564 598.044077,610.749044 L598.033817,610.662379 C598.050445,610.712677 598.076747,610.755827 598.110759,610.791596 L598.068525,610.738711 C598.108368,610.809541 598.159204,610.869294 598.219445,610.917836 L598.099768,610.787302 L598.113651,610.806382 L598.141405,610.841077 L598.144869,610.842809 L598.163949,610.863634 C598.169158,610.863634 598.170891,610.865366 598.174355,610.868843 C598.197937,610.891693 598.226667,610.909358 598.258642,610.919886 L598.203854,610.894877 L598.216005,610.903551 L598.222946,610.90876 L598.233352,610.912225 L598.261118,610.929572 L598.262838,610.929572 C598.275807,610.93971 598.291715,610.946676 598.309087,610.949043 L598.294081,610.94692 C598.3314,610.965219 598.374928,610.977333 598.420895,610.980603 C598.388396,610.980139 598.419102,610.985531 598.451004,610.986068 L598.434608,610.986812 L598.467571,610.988545 L598.476245,610.988545 L598.500534,610.986812 L598.509208,610.986812 L598.536974,610.98508 L598.550857,610.983348 L598.576878,610.978138 L598.589029,610.976406 C598.599435,610.972941 598.606377,610.969465 598.615051,610.969465 L598.623724,610.966 C598.637876,610.963694 598.650454,610.958265 598.661177,610.950446 L598.658444,610.953849 C598.721955,610.922338 598.795798,610.899976 598.873668,610.890839 L607.722303,606.451412 C607.888338,606.365943 608,606.195747 608,605.999482 C608,605.997347 608,605.995175 608,605.99304 C608,605.990673 608,605.987465 608,605.984257 C608,605.789247 607.88907,605.620162 607.726865,605.536632 L607.724071,605.5354 Z" id="update_version"></path>
        </g>
    </g>
</svg>