<?xml version="1.0" encoding="UTF-8"?>
<svg width="23px" height="19px" viewBox="0 0 23 19" version="1.1" xmlns="http://www.w3.org/2000/svg" xmlns:xlink="http://www.w3.org/1999/xlink">
    <title>编组</title>
    <defs>
        <polygon id="path-1" points="-6.10818856e-16 -2.41094221e-15 15.853342 -2.41094221e-15 15.853342 14.7268468 -6.10818856e-16 14.7268468"></polygon>
        <polygon id="path-3" points="0 0 13.786053 0 13.786053 12.477377 0 12.477377"></polygon>
    </defs>
    <g id="2.6.3" stroke="none" stroke-width="1" fill="none" fill-rule="evenodd">
        <g id="更多设置下拉框-关于软件弹窗" transform="translate(-510.000000, -364.000000)">
            <g id="编组备份-2" transform="translate(412.000000, 172.000000)">
                <g id="编组-15" transform="translate(44.000000, 185.000000)">
                    <g id="编组-10" transform="translate(49.000000, 0.000000)">
                        <g id="编组" transform="translate(5.000000, 7.000000)">
                            <g>
                                <mask id="mask-2" fill="white">
                                    <use xlink:href="#path-1"></use>
                                </mask>
                                <g id="Clip-2"></g>
                                <path d="M4.96947117,3.90857918 C5.55540937,3.90857918 6.03131223,4.37818416 6.03131223,4.95636831 C6.03131223,5.53590971 5.55540937,6.00415744 4.96947117,6.00415744 C4.38353297,6.00415744 3.90763011,5.53183799 3.90763011,4.95636831 C3.90763011,4.37411244 4.38353297,3.90857918 4.96947117,3.90857918 M10.8054707,3.90857918 C11.3914089,3.90857918 11.8673117,4.37818416 11.8673117,4.95636831 C11.8673117,5.53590971 11.3914089,6.00415744 10.8054707,6.00415744 C10.218157,6.00415744 9.74362961,5.53590971 9.74362961,4.95636831 C9.74362961,4.37411244 10.2140307,3.90857918 10.8054707,3.90857918 M15.853342,5.48297736 C15.0652139,2.34639617 11.8590591,-0.000271447961 8.02020105,-0.000271447961 C3.5912785,-0.000271447961 -6.10818856e-16,3.12409458 -6.10818856e-16,6.98001286 C-6.10818856e-16,9.06744767 1.05358841,10.9458676 2.72199929,12.2243875 L2.4359074,14.5995571 C2.42215299,14.6932067 2.52531112,14.7569969 2.60783763,14.712208 L4.89107099,13.4133295 C5.85112936,13.7702836 6.90884409,13.9643689 8.02020105,13.9643689 C8.14811714,13.9643689 8.27053146,13.9602972 8.39432122,13.9562254 C8.23752086,13.421473 8.15086802,12.8595757 8.15086802,12.2800343 C8.15086802,8.59512822 11.5798444,5.59562826 15.853342,5.48297736" id="Fill-1" fill="#64AB23" mask="url(#mask-2)"></path>
                            </g>
                            <g transform="translate(9.213947, 6.522623)">
                                <mask id="mask-4" fill="white">
                                    <use xlink:href="#path-3"></use>
                                </mask>
                                <g id="Clip-4"></g>
                                <path d="M9.54281511,2.61811558 C10.1287533,2.61811558 10.6046562,3.08772055 10.6046562,3.66590471 C10.6046562,4.2454461 10.1287533,4.71369384 9.54281511,4.71369384 C8.95550147,4.71369384 8.48097405,4.2454461 8.48097405,3.66590471 C8.48372494,3.08772055 8.96100324,2.61811558 9.54281511,2.61811558 M4.24048703,2.61811558 C4.82642523,2.61811558 5.30232808,3.08772055 5.30232808,3.66590471 C5.30232808,4.2454461 4.82642523,4.71369384 4.24048703,4.71369384 C3.65317338,4.71369384 3.17864597,4.2454461 3.17864597,3.66590471 C3.18139685,3.08772055 3.65317338,2.61811558 4.24048703,2.61811558 M13.786053,5.75741124 C13.786053,2.58147011 10.6995617,0 6.89371423,0 L6.81118772,0 C3.03835091,0.0366454747 0,2.59775698 0,5.75741124 C0,6.30437888 0.0894037161,6.82691621 0.258583056,7.32909494 C1.07834636,9.74362454 3.73569989,11.5161797 6.89371423,11.5161797 C7.63095103,11.5161797 8.34480532,11.4198157 9.0091437,11.2420173 L10.2924309,11.913851 L11.3432684,12.4635331 C11.4244195,12.508322 11.5275776,12.4391028 11.5110723,12.3454532 L11.3831562,11.3790985 L11.2318576,10.2376598 C12.7902332,9.17765555 13.786053,7.56389742 13.786053,5.75741124" id="Fill-3" fill="#64AB23" mask="url(#mask-4)"></path>
                            </g>
                        </g>
                    </g>
                </g>
            </g>
        </g>
    </g>
</svg>