<?xml version="1.0" encoding="UTF-8"?>
<svg width="22px" height="18px" viewBox="0 0 22 18" version="1.1" xmlns="http://www.w3.org/2000/svg" xmlns:xlink="http://www.w3.org/1999/xlink">
    <title>编组</title>
    <defs>
        <polygon id="path-1" points="0 0 7.5571953 0 7.5571953 8.20807411 0 8.20807411"></polygon>
        <polygon id="path-3" points="4.56036231e-16 0 19.1847663 0 19.1847663 15.473844 4.56036231e-16 15.473844"></polygon>
    </defs>
    <g id="2.6.3" stroke="none" stroke-width="1" fill="none" fill-rule="evenodd">
        <g id="更多设置下拉框-关于软件弹窗" transform="translate(-559.000000, -364.000000)">
            <g id="编组备份-2" transform="translate(412.000000, 172.000000)">
                <g id="编组-15" transform="translate(44.000000, 185.000000)">
                    <g id="编组-16" transform="translate(98.000000, 0.000000)">
                        <g id="编组" transform="translate(5.000000, 7.000000)">
                            <g transform="translate(14.442805, 0.000000)">
                                <mask id="mask-2" fill="white">
                                    <use xlink:href="#path-1"></use>
                                </mask>
                                <g id="Clip-2"></g>
                                <path d="M7.5571953,5.93430353 C7.53391884,6.59265419 7.5161192,7.19279279 7.27513946,7.76243936 C7.13548075,8.0950797 6.87122456,8.19487179 6.54946184,8.20734581 C6.23865274,8.21981982 6.02779547,8.07151767 5.89224437,7.8040194 C5.76353928,7.54345114 5.71698637,7.26347886 5.78133892,6.97796258 C6.06202555,5.66126126 5.78133892,4.45682606 5.06524571,3.35218295 C4.57370181,2.58711019 3.84117817,2.14220374 2.97310343,1.92875953 C2.39256133,1.78600139 1.79421959,1.74442134 1.19587785,1.7984754 C0.920668031,1.82203742 0.650935026,1.81510742 0.39352485,1.7028413 C0.193621202,1.61413721 0.0580700984,1.46583507 0.0183632095,1.23991684 C-0.05283535,0.842134442 0.0772389414,0.40970201 0.509907111,0.207345807 C0.932990858,0.0119196119 1.37798185,-0.0241164241 1.82434205,0.0119196119 C3.71110388,0.16022176 5.29390263,0.937768538 6.51386256,2.41524602 C7.15328039,3.18724879 7.4695663,4.0950797 7.5161192,5.0971587 C7.52296522,5.400693 7.53939566,5.6972973 7.5571953,5.93430353" id="Fill-1" fill="#E67D00" mask="url(#mask-2)"></path>
                            </g>
                            <path d="M19.1159107,6.03520444 C19.1213875,6.27914068 19.010482,6.66999307 18.7352722,7.01510742 C18.5353686,7.25765766 18.2656356,7.31171171 17.9781029,7.26320166 C17.7549228,7.22855163 17.661817,7.04421344 17.6084181,6.83631324 C17.5618652,6.66999307 17.5796648,6.4981289 17.6029413,6.33180873 C17.6440174,6.01718642 17.6330637,5.7025641 17.5262659,5.4004158 C17.3208854,4.83076923 16.8758944,4.58821899 16.313152,4.52169092 C16.137894,4.4981289 15.95579,4.51060291 15.773686,4.48565489 C15.4286468,4.44546085 15.1999899,4.18350658 15.1821902,3.82176022 C15.1643906,3.5015939 15.3697711,3.24518365 15.7038566,3.16340956 C16.5185324,2.96105336 17.297609,3.02065142 17.9835797,3.56673597 C18.6996729,4.14192654 19.1159107,4.89036729 19.1159107,6.03520444" id="Fill-3" fill="#E67D00"></path>
                            <path d="M9.22533539,12.2905059 C9.53066767,12.2960499 9.80587749,12.0534997 9.81820031,11.7804574 C9.82367713,11.5420651 9.61829667,11.3466389 9.35404047,11.3466389 C9.04323138,11.3410949 8.77349837,11.5850312 8.76802156,11.8580735 C8.75569873,12.0950797 8.96107919,12.2905059 9.22533539,12.2905059 M7.34268117,14.0881497 C7.74796528,14.0770617 8.09300445,13.9343035 8.37506028,13.6446292 C8.95560238,13.0444906 8.76254475,12.1657658 7.98757581,11.9107415 C7.7589189,11.8331254 7.52478518,11.8331254 7.29065145,11.8816355 C6.99079598,11.9467775 6.72790899,12.0826057 6.52252853,12.3140679 C6.22951907,12.6467082 6.1062908,13.0264726 6.28154879,13.4602911 C6.44037635,13.8580735 6.86209089,14.1006237 7.34268117,14.0881497 M8.36958347,15.5600832 C7.29612826,15.5365211 6.40477707,15.2288288 5.71332952,14.4623701 C4.83977796,13.4949411 4.80417868,12.0826057 5.61337769,10.9793486 C6.31714807,10.0230076 7.28517464,9.53652114 8.43941282,9.42979903 C9.42523903,9.34109494 10.3330207,9.56701317 11.0956668,10.2309078 C12.249905,11.2343728 12.37861,12.8365904 11.4229063,14.0715177 C10.6260301,15.0805267 9.55394412,15.5198891 8.36958347,15.5600832" id="Fill-5" fill="#0B0C0E"></path>
                            <path d="M9.22533539,12.2905059 C8.96107919,12.2849619 8.75569873,12.0950797 8.76254475,11.8580735 C8.76802156,11.5850312 9.04323138,11.3466389 9.34856366,11.3466389 C9.61281985,11.3466389 9.81820031,11.5420651 9.8113543,11.7804574 C9.8113543,12.0534997 9.53614448,12.2960499 9.22533539,12.2905059 M7.34268117,14.0881497 C6.8675677,14.1006237 6.44585316,13.8580735 6.28154879,13.4658351 C6.1062908,13.0320166 6.22951907,12.6522523 6.52252853,12.3196119 C6.72790899,12.0881497 6.99079598,11.9523216 7.29065145,11.8871795 C7.52478518,11.8331254 7.7589189,11.8400554 7.98757581,11.9162855 C8.76254475,12.1726958 8.96107919,13.0500347 8.37506028,13.6487872 C8.09300445,13.9343035 7.74248846,14.0770617 7.34268117,14.0881497" id="Fill-7" fill="#FEFEFE"></path>
                            <g transform="translate(-0.000000, 2.526156)">
                                <mask id="mask-4" fill="white">
                                    <use xlink:href="#path-3"></use>
                                </mask>
                                <g id="Clip-10"></g>
                                <path d="M8.32207212,13.7226313 C9.84051832,13.7046133 11.2603819,13.413553 12.5967241,12.7552023 C13.6564873,12.2326798 14.5779609,11.5382931 15.2050559,10.5001781 C15.967702,9.24307481 15.8157205,7.80024736 14.8066178,6.7371843 C14.0097417,5.90696947 13.0061158,5.46206302 11.9107534,5.20565277 C10.8728974,4.96310253 9.82271868,4.92706649 8.76158631,5.05180661 C7.32529229,5.22505679 5.97662727,5.65748922 4.76351335,6.46414203 C4.01319007,6.96310253 3.36829543,7.57432914 2.95205769,8.39899996 C2.43586814,9.40800897 2.43039133,10.417018 3.01641024,11.396921 C3.41484833,12.0677456 4.00771326,12.5306701 4.68683798,12.8854864 C5.83696856,13.4967131 7.07883574,13.7046133 8.32207212,13.7226313 M9.06144178,15.474537 C7.30201584,15.462063 5.49056018,15.1765467 3.77221033,14.417018 C2.76447687,13.9721115 1.84984922,13.389991 1.13923283,12.5237401 C-0.0615582568,11.0587366 -0.295691981,9.41493898 0.354679476,7.64501521 C0.822946924,6.36989393 1.60886948,5.28326885 2.48926706,4.26871583 C3.66130488,2.90904847 4.98121664,1.72817529 6.51609328,0.809256372 C7.37184519,0.29782186 8.28647284,-0.02234446 9.29009869,0.00121756355 C9.99934588,0.0192355816 10.5744112,0.304751867 10.8728974,0.992208555 C11.1070312,1.5327491 11.1015543,2.08992165 10.8783742,2.64293621 C10.8194985,2.78430835 10.755146,2.92706649 10.7373463,3.08784265 C10.7140699,3.29019885 10.8071757,3.38444695 11.0070793,3.36642893 C11.1015543,3.36088492 11.1823373,3.30683087 11.2644895,3.26663683 C12.4324197,2.69006025 13.6564873,2.44612401 14.9531226,2.56532013 C16.0964071,2.67204223 16.8412536,3.84737141 16.4893684,4.95062851 C16.4195391,5.17654674 16.283988,5.36642893 16.1251604,5.5382931 C15.926626,5.75866732 15.9855017,6.02477959 16.2730343,6.10239566 C16.6002739,6.19109975 16.9466822,6.22159178 17.268445,6.3338579 C17.8257106,6.52374009 18.3309465,6.79678236 18.6937854,7.27772484 C19.156576,7.88895145 19.2688506,8.59442616 19.1278227,9.33177889 C18.8457669,10.8328184 18.0721672,12.0372536 16.9165598,13.0046826 C15.7143995,14.0136916 14.3137047,14.6179882 12.8130582,15.0102266 C11.6232207,15.3248489 10.40463,15.462063 9.06144178,15.474537" id="Fill-9" fill="#D5261E" mask="url(#mask-4)"></path>
                            </g>
                            <path d="M8.36889887,15.560499 C9.55325952,15.5189189 10.6267147,15.0795565 11.4235909,14.0650035 C12.3847715,12.8370062 12.2505896,11.2278586 11.0949822,10.2257796 C10.3337053,9.56604297 9.42455443,9.33458073 8.44009743,9.42467082 C7.28449004,9.53000693 6.31646347,10.0164934 5.61269309,10.9728344 C4.80349408,12.0774775 4.83909336,13.4898129 5.71401412,14.4572419 C6.40409247,15.2278586 7.29544366,15.5369369 8.36889887,15.560499 M8.32234596,16.2493416 C7.07910958,16.2368676 5.84271921,16.0234234 4.69258863,15.4177408 C4.01894072,15.0629245 3.4260758,14.6 3.02216089,13.9277893 C2.43614198,12.9437283 2.44161879,11.9402633 2.95780835,10.9312543 C3.37404608,10.1121275 4.01894072,9.5009009 4.769264,8.9963964 C5.98237792,8.18974359 7.33104294,7.75592516 8.76870616,7.58406098 C9.82846934,7.45377685 10.8786481,7.4953569 11.916504,7.73790714 C13.0132357,7.99431739 14.0154923,8.43229383 14.8123685,9.26943867 C15.820102,10.3255717 15.9679759,11.7739432 15.2108066,13.0324324 C14.5837116,14.0705475 13.6636071,14.7649342 12.6024748,15.2874567 C11.2592865,15.9402633 9.84079216,16.2313236 8.32234596,16.2493416" id="Fill-11" fill="#FEFEFE"></path>
                        </g>
                    </g>
                </g>
            </g>
        </g>
    </g>
</svg>