<?xml version="1.0" standalone="no"?><!DOCTYPE svg PUBLIC "-//W3C//DTD SVG 1.1//EN"
        "http://www.w3.org/Graphics/SVG/1.1/DTD/svg11.dtd">
<svg t="1649838460150" class="icon" viewBox="0 0 1024 1024" version="1.1" xmlns="http://www.w3.org/2000/svg" p-id="7633"
     xmlns:xlink="http://www.w3.org/1999/xlink" width="200" height="200">
    <defs>
        <style type="text/css"></style>
    </defs>
    <path d="M916.475011 874.561961c0 36.671519-25.023672 66.559126-55.743268 66.559127H138.501222c-30.783596 0-55.743268-29.887608-55.743268-66.559127V275.78582c0-36.735518 24.959672-66.559126 55.743268-66.559126h722.230521c30.719597 0 55.743268 29.823609 55.743268 66.559126v598.776141zM251.075745 76.364438H748.797212c9.471876 0 18.751754 3.327956 23.551691 8.447889l39.167486 41.663453H188.22857l39.231485-41.663453c4.799937-5.119933 14.015816-8.447889 23.61569-8.447889z m715.446609 104.062634l0.447995-0.447994-3.967948-4.223945a139.646167 139.646167 0 0 0-10.367864-10.943856L827.900174 32.461014A108.670574 108.670574 0 0 0 748.797212 0.01344H251.075745c-30.975593 0-59.839215 11.903844-79.23096 32.447574L49.798386 161.931315a138.878177 138.878177 0 0 0-15.743793 16.70378l-1.791976 1.919975 0.191997 0.191998A154.493972 154.493972 0 0 0 0.00704 275.78582v598.776141c0 82.494917 61.951187 149.31004 138.494182 149.310041h722.230521c76.478996 0 138.558181-66.815123 138.558181-149.310041V275.78582a154.877967 154.877967 0 0 0-32.76757-95.358748zM617.598934 529.222494L541.055939 605.765489v-218.877127a41.471456 41.471456 0 0 0-82.878913 0v218.877127L381.570032 529.286493a41.343457 41.343457 0 1 0-58.559232 58.623231l147.262068 147.198068a41.599454 41.599454 0 0 0 58.62323 0l147.262067-147.198068a41.343457 41.343457 0 1 0-58.559231-58.623231"
          fill="#E0E7FA" p-id="7634"></path>
</svg>