<?xml version="1.0" standalone="no"?><!DOCTYPE svg PUBLIC "-//W3C//DTD SVG 1.1//EN"
        "http://www.w3.org/Graphics/SVG/1.1/DTD/svg11.dtd">
<svg t="1649838445490" class="icon" viewBox="0 0 1024 1024" version="1.1" xmlns="http://www.w3.org/2000/svg" p-id="7109"
     xmlns:xlink="http://www.w3.org/1999/xlink" width="200" height="200">
    <defs>
        <style type="text/css"></style>
    </defs>
    <path d="M940.8 685.44a71.04 71.04 0 0 1-70.912 70.912H632.832l-24.704 26.624L512 886.72l-96.128-103.744-24.704-26.624H154.112A71.04 71.04 0 0 1 83.2 685.44V154.112A71.04 71.04 0 0 1 154.112 83.2h715.776A71.04 71.04 0 0 1 940.8 154.112v531.328zM869.888 0H154.112A154.112 154.112 0 0 0 0 154.112v531.328a154.112 154.112 0 0 0 154.112 154.112h200.768l110.272 119.04a63.808 63.808 0 0 0 93.696 0l110.272-119.04h200.768A154.112 154.112 0 0 0 1024 685.44V154.112A154.112 154.112 0 0 0 869.888 0z m-154.88 469.504H260.928a48 48 0 0 0 0 96h454.08a48 48 0 0 0 0-96m-454.08-115.84h148.992a48 48 0 0 0 0-96H260.928a48 48 0 0 0 0 96"
          fill="#E0E7FA" p-id="7110"></path>
</svg>